<svg xmlns="http://www.w3.org/2000/svg" viewBox="0 0 400 610" width="533.3" height="813.3" xmlns:v="https://vecta.io/nano"><style><![CDATA[.B{fill:#333}.C{fill:#fff}.D{fill:#858585}.E{fill:#9260c7}]]></style><path d="M0 0h400v610H0V0z"/><path d="M18.5 15.3H382v307.5c-19.8 12.4-36.2 30.5-50.3 49a325 325 0 0 0-36.4 57.8l7.4-44.4c.6-23.7.6-48-3-71.6L320 324c5 3 11.4 7 13.5 12.8 1 1 2.2 1.5 3.3 2a37 37 0 0 0 2.6-1.4c5-7 9-14.7 12.3-22.6 4.5-11.4 7.2-24.3 3.8-36.4-1.7-7-6-13-11.6-17.5-6-4.7-13.6-6-21-4.8a24 24 0 0 0-16 9c4.4-14.6 6.4-32 .1-46.2-1-2.8-2.4-5.4-4.6-7.5-1.7-2-4.8-1.3-7.2-1.7a401 401 0 0 1 26.8-53.7 193 193 0 0 1 31.3-40v-4a43 43 0 0 0-3.2.1c-9.2 5.8-17.8 12.8-25.8 20.3-25.4 24-44 54.2-58 86-8.2 18.4-14.6 37.5-20.3 56.8-1-.7-2.4-1.2-2.8-2.3a66 66 0 0 1-.1-28.9c2.5-9.6 9.3-17.8 13-27 .5-2.8-1-6.2-3.4-7.8-3-2.6-8-1.5-11.6-1.5-3.5 2.2-6 6-7.8 9.6-3.2 6.5-6 13.4-7.5 20.6-2 9.6-.6 20 2.4 29.2-4.3-1-8.3-1-12.6-.1-14-62-22.6-125.3-25-188.8-.1-2.3-1.4-3-3.5-3-37.6-.1-75.4 0-113 0-1.7-.1-3.2.3-4.7.8-.5 1.8-.6 3.3-.5 5l6.8 89.6-1.3-1.7c-15-16.3-32.7-31-52.3-41.6-1.7 0-3.3-1-3.5 1.5V15.3z" class="C"/><path d="M218 33c1.2 2.5.7 4.8.1 7.3-1.6.4-3.7 1.8-5.3 1-3.2-.8-4-5.4-2.5-8 1.8-2.5 5.4-1.8 7.7-.5zm-34.6 3.5c2-.3 4.4-.2 6 1 1.4 1.4 1.4 3.7.8 5.5-1 3.7-7.5 4.4-9 .8-.7-2.5-1-6.6 2.2-7.4zm64 .2c1-.5 2.8-.6 4-.1 3.2 1.2 4 6.3 1.6 8.6-1.6 1.3-4 1-6 .6-3.7-1.4-3.2-7.7.3-9zM83 38c1.7 3.3 1.5 4 .3 7.3-2 .8-4.4 2.4-6.4.8-2-1.5-2-5.2-1.2-7.3 1.4-2.8 5-2 7.3-.8zm41 .2c4.6-2.4 9.6 5.3 5.6 8.6-2.2 1.2-7 1.2-7.5-2-.4-2-.3-5.6 2-6.7zm186.5 1.3c.8 2.6.6 4.6.1 7.3-1.8.8-3.5 2-5.5 1-2.3-.6-2.6-3-3.8-5 1-1.5 1.6-3.6 3.4-4.2 2.2-1 3.8.1 5.8.8zm-266.2-.2c2.5-.7 6.4-.4 7 2.7.6 1.4-.5 3.2-1 4.6-2 1.4-6.3 2.8-7.6-.4-.6-2-.8-6 1.5-7zm300.7.3c3.4.2 4.8 3.4 4.3 6.5-.3 3.5-5.5 4.4-7.6 2.3l-1.5-3.5c1-2.5 1.8-5 4.8-5.3zM111 43c2 2.3.7 4.3-.4 6.6-2.2.6-3.8 1.7-6 .8-2.8-1-3-5-1.7-7.2 1.6-2 6.2-2 8-.2zm158 0c2 0 4-.3 5.3 1.6 1.3 3 .7 8-3.3 8.2-3.5.4-4.5-3-6-5.5 1-1.4 2-4.3 4-4.4zm-117.5 3.7c2-.6 5.5-1 6.8 1 1.2 2 0 4-.7 6.2-2.3 1.6-5.3 2.4-7.2-.3-1-2-1.4-5.8 1-7zm72 4.8c3.7-2 7.4.4 7.4 4.5.5 5-6.3 6.2-8.7 3-1-2-.8-6 1.3-7.4zm75.2 3.2c2-1.2 5-.6 6 1.6.7 2 1 4.5-.2 6.3-1.4 1.8-5 1.7-6.8.8-3-2-1.2-7 1-8.7zM51 56c2.3-.8 6.2-.7 7.3 2 1 2.2-.2 3.6-1 5.6-2.3.7-4 1.8-6.4.8a5 5 0 0 1 0-8.3zm158.6.5c2.3 2.3 1.2 4.4 0 7l-3.8 1.3-3.3-1.3c-.7-1.8-1.8-3.2-1.2-5.2.6-3.5 6-3.2 8.3-1.7zM334.2 60c1.4 2.5.1 4.3-.6 6.7-1.2.5-2.3 1-3.5 1.3-3 .6-4-3.6-5-5.8.6-4.4 7-5.5 9.2-2.2zm-60.4 4.3c1.6 1.6 1.3 4.3.8 6.3-1 3-5.3 3.4-7.4 1.3-.8-1.3-1.4-2.7-2-4 .7-1.2 1.4-2.5 2.3-3.6 1.7-1.3 4.7-1.4 6.4 0zM252.2 69c.7 2-.2 3.5-1 5.4-2 1-4.4 2.4-6.3.6-1.2-2-3-3.5-2-6 1.3-4 8.2-4.4 9.3-.1zm96.3.6c3.4-1.3 7.3.4 7.5 4.4 1 5.3-7 6.8-9.4 3.3-1-2.2-.8-6.6 2-7.7zm-59 4c2-.6 5.3-.5 6.6 1.5s.4 4.3-.8 6c-2.3 1-5.3 2.4-7-.2-1-2-1-6.3 1.4-7.3zm22.3 3c.5 1.4 1.8 3 1.3 4.6-.4 3.4-5.3 4-7.7 2.7-1.7-1.5-1.6-5-.7-7 1.8-2.8 4.8-1 7.2-.4z" class="B"/><path d="M75.3 81.7H184L194 186c8 55.4 20.2 110 37.8 163.2 15.3 46 34.6 90.3 59.6 132L169 484.4c-11-19.2-20.3-39.2-28.6-59.7-19-47.6-32-97.6-41.7-148C92.5 243.4 87 210 83 176l-7.6-94.4z" fill="red"/><path d="M322.2 85.2c3.3-2.3 7.3 1.2 6.8 5-.2 4.2-6.2 5.6-9 3-2-2.7-.8-6.3 2-7.7zM51.6 90c-.4 1.5-.8 2.8-1.3 4.3-2 .5-4.3 2-6 .7-2-1.5-2-5-1.3-7 2-4 8.6-2 8.8 2.2zM274 89c4.6.6 4.5 5 3.6 8.5-2.4.7-4.2 2-6.7.7-3.6-2.5-1.7-9.8 3.2-9.2zm-50.6 1.4c3.6-2 8 .4 7.4 4.6-.2 4.2-5 6-8 3.3-1.5-2-1.7-6.5.6-8zM249 100c3.4-1 8-.6 8 4 .2 4-2.8 5-6.2 4.7-4.4.2-5-7-2-8.7zm42.3 8.2c1.8-1.4 6.2-1 6.5 2 .5 2.4.4 6.5-2.7 7-3.6 1-4.8-2.8-6.2-5.2 0-1.8 1.2-2.7 2.5-3.8zm-60.8 7.3c3.2-.7 7 2.2 6.8 5.5-1 3.5-5.2 4.4-8 2.8-2.8-2-1.5-7.2 1.3-8.3zM259 126c1.7.2 3.3 1.3 4.8 2.2.7 2.5.4 4.5-.1 7-2.3.4-5.5 1.4-7.4-.5-2.4-2.7-1.2-8 2.6-8.7zm18.5 1.7c2-.5 5.3-1 6.3 1.6.5 2 .6 4.3-.4 6.2-1.7 3-6.6 2-8-1-1-2.3-1-6 2-6.8z" class="B"/><path d="M18.4 130.7a450 450 0 0 1 60.8 85.2c1.4 2.7 3.2 5 3.5 8A1036 1036 0 0 0 122 395.3c-5.5-9.4-12-18-18.3-27-7-2.3-13.6-3.8-20.8-2-5.6-.3-11.3-2-17-2.5-1.2.8-2 1.2-2.4 2.7L53 397c-2.4 8.7-4 17.8-4.5 26.8-8-5.8-17-10-25.6-14.6-2.5-1.4-3.8 2.6-3.3 4.4-.5 4-.4 8.2-.4 12.4L19 594.8h-.7V139v-8.3z" class="C"/><path d="M333 132a392 392 0 0 0-41.8 74.3c-8 18.8-15.3 38.2-21 58-.4 1.2-.7 2.4-1.3 3.5a51 51 0 0 0-16.1 4.8c8.2-27 18.5-53.7 32-78.5 12.5-22.7 28.6-44.8 48.2-62z" class="D"/><path d="M354.4 132.4c3-1.2 7.4-.4 7.6 3.6.5 4.7-5.7 6.6-8.7 3.8-1.8-2.2-1.4-6 1.2-7.4z" class="B"/><path d="M34.2 141a212 212 0 0 1 39 34.9c1.3 1.6 3.3 3 3.5 5.3 1 8.5 2.4 17 3.3 25.5l-1.5-2a552 552 0 0 0-44.3-63.6z" class="D"/><path d="M349.4 150c0 1.7-1.2 3.2-1.8 4.8-2.4.7-5 1.5-7-.3-1.4-1.6-1.2-4.4-.4-6.3 2.2-3 8.5-2 9.2 1.8zm5 17.3c2.4-1.2 4.2.1 6.4 1 .6 2 1.8 3.3 1 5.4-1 3.3-6.6 4.4-8.2 1-.8-2-1-6 1-7.4zm-4.8 23.2c1 2 .3 4.5-.2 6.7-1.6.4-3.7 1.7-5.3 1-3-.8-3.8-4.4-2.8-7 1.3-3.2 6.5-3.6 8.2-.7zM332 197c2 .5 2 2.5 3 4.2l-1.2 3.8c-2 1-3.5 2-5.7 1.2-1.4-1.3-2.2-3.5-3-5.2.4-3 4-5.5 7-4zm23 8c3-1.8 7.4.2 7.5 4 .4 3.4-2.4 5.4-5.6 5.2-4.3 0-4.5-7.2-2-9.2zm-311.8 6.2c2-.7 4.6-.1 5.6 2 1.3 2.4 1 6.5-2 7.4-2.5.6-6 .4-7-2.5-1-3 1.5-5 3.3-6.8z" class="B"/><path d="M247.2 211.6a37 37 0 0 1 4.2 3.5c-2.7 5.6-5.7 11-9.2 16.2-3 4.3-4.3 9.2-5 14.3a100 100 0 0 0 .6 25l-3-1.4c-4-11.2-5.2-23.4-2.8-35a61 61 0 0 1 5.3-13.6c2.3-4 4.5-8.5 9.8-8.8zm49.5 2.8c3 3.7 7 7.7 7.7 12.5 1.2 4.8 2 10.2 1 15l-2 15c-.3 1.3-.2 3-1 4l-5-36c-.5-3.5-.7-7-.7-10.6z" class="E"/><path d="M290.7 221l.3.4v.2l1.7 10.4a20 20 0 0 0-9.5 16.1c-.3 6.3.4 12.8 1.4 19a88 88 0 0 0-5.5 1.7l-4.5-1.2a573 573 0 0 1 16-46.7z" class="C"/><path d="M339 225c3.7-1.5 7 2.3 7 6-.7 3.7-7 5.2-8.6 1.6-1-2.2-.8-6.2 1.7-7.5z" class="B"/><path d="M293.7 238l3.3 29.4-7.3-.2-1.6-16 1.4-7.6c.6-2.3 2.5-4 4.2-5.6z" class="C"/><path d="M40.5 239.5c2-.7 4 .5 5.8 1 .6 2 1.8 3.3 1 5.4-1 2.5-4 2.7-6.2 2.3-4.2-.4-4.4-7.8-.5-8.8zm314.7 1.7c3.4-1.8 7 1.2 6.8 4.8a5 5 0 0 1-9.4 1.2c-1.3-2.7.4-4.6 2.6-6zm-296 8c3-2.2 7 1.4 7.4 4.7a5 5 0 0 1-9.2.1c0-2 .1-3.6 1.8-4.8z" class="B"/><path d="M332.2 262.7c6.6 1.4 11 6.2 14 12 4.8 8 4.3 18.4 2.2 27.2-2 7.8-5 15.7-9 22.6-.1-6.2-1-12.4-2.7-18.4-2-8.8-5-17-10.8-24-4-5-9.5-8.3-15.4-10.8a21 21 0 0 1 21.6-8.5z" class="E"/><path d="M44.5 266.5c2.4-1.7 6.8-1 8 2 1 1.8-.8 3.8-1.6 5.5-1.6 1.3-4.7 2.4-6.4.5-1.2-2.6-2.6-5.6-.1-8z" class="B"/><path d="M306 275l11.4 18.7a727 727 0 0 1 13.2 29.8 98 98 0 0 0-14-9L290 301.7a40 40 0 0 0 1.8-15.8 26 26 0 0 0-5.5-13c7-1.8 13.3-.3 19.8 2zm-88.8-1.5c9-2 19.3 3.4 26.6 8l-2.6 10.5a40 40 0 0 0-.3 13.8 121 121 0 0 0 9.7 33l-19.2-14.4c-1.2-1-1.4-2.8-2-4-4.5-15.5-8.8-31.2-12.3-47zM278 275c4.6 2.2 6.4 7.2 6.6 12 1.2 8.7-2.2 17.3-7.5 24l-19 26.2c0-18.7-2.2-38-8.5-55.5 3.2-2.3 7.8-4.4 11.6-5.5L278 275zm33.3 2c1 .4 2.2.8 3.2 1.5 5.2 3 9.3 7.3 12.4 12.5a72 72 0 0 1 8.6 33.3c-1.7-3-2.8-6.4-4.3-9.5A250 250 0 0 0 313 280l-1.8-3zm-65 7.8l1.4 4.2a223 223 0 0 1 6.7 48c-4-9.3-7.2-19-9-29a50 50 0 0 1 .9-23.3z" class="E"/><path d="M58.4 286.4c2-1 3.6.2 5.5 1 1.2 2.4 2.3 4.6.4 7-2 1.6-7 1.6-7.8-1.4-.5-2-.6-5.6 2-6.5zm-17 7c2-.3 4.2-.2 5.4 1.7 1 2 1 4.8 0 6.6-1.8 2-4.7 1.5-6.8.2-2.2-2.5-2.3-7.5 1.5-8.6z" class="B"/><path d="M286.7 307.8c2.3 1.3 4.8 2 7 3.3 3.4 24 3.7 48.2 3.5 72.5l-10-1.3.6-13.3c-.2-17.7-2.2-35.5-5-53-1-3 2-6 3.7-8.2z" fill="#ffe000"/><path d="M74 309c1.6-.7 3.3-.5 5 0 3.7 2 2.5 9.2-2 9.4-3.5.2-4-2.6-5-5.3.6-1.4 1-3 2-4.2zm-25.8 4c1.3-1 3.4-.8 5-.4 3.6 1 4.4 7.4.8 9-2.2.7-6 1-7.2-1.6-.7-2-.6-5.8 1.5-7z" class="B"/><path d="M278.3 320c2.8 13.6 3.6 27 4.7 41a118 118 0 0 1-.7 27.1l-8.2 47.7-20-44.7c-.7-1.7-1.4-3.3-1.2-5l4-35c1-1 2.7-1.6 3.2-3 4-10 12.7-18.5 18.3-28z" class="C"/><path d="M67.4 331.4c1.6-.8 3.7-.6 5.4-.1 2.6 1 3 4.2 2 6.6-1.2 3.3-6.7 4-8.6 1-1.3-2.2-1.3-6 1.2-7.3z" class="B"/><path d="M377.8 333c-28.5 33.4-49 71.8-64 113L301 485c-3.3-7.4-9-14.4-12.4-22 .8-5.4 2-11 4.3-16a327 327 0 0 1 22.3-42.8c14-22.8 30.7-44.4 51-62l11.7-9.2z" class="D"/><path d="M382 336.6v75c-21.2 10.7-36 28.8-50.2 47.2a236 236 0 0 0-34.7 67.3c1-7.4 3.2-14.8 5-22l19-63c14.2-38 34.3-74 61-104.4z" class="C"/><path d="M236.8 337.8l15.2 10.4-3.4 29.7-12.2-35.2c-.5-1.5.2-3.5.5-5z" class="D"/><path d="M44.5 351.5c3.4-1 6 1 6.4 4.5.3 4-3.2 6-6.8 5-4.4-1.4-4-8.2.4-9.3z" class="B"/><path d="M68 369l13 2.4c5.4.5 10.8.5 16.3 1-.3.6-.7 1.2-1 1.7-9 10-16.2 22-22 34a242 242 0 0 0-17.7 54.4c-2-5.7-2-12.4-2.7-18.5-1.2-25.2 2.8-52.2 14.3-75zm34.2 6.2l25.4 39.2a82 82 0 0 1 5.9 12.1 481 481 0 0 0 22.1 47.9c2.6 5 5.8 9.8 7.8 15.3a474 474 0 0 1 24.3 86c.8 6.4 1.5 13 1.6 19.3H162a638 638 0 0 0-19.6-88c-12.2-39.5-28.6-80.6-53.4-114 3-5.6 7.3-10.7 11.3-15.5l2-2z" class="D"/><path d="M287.2 388.5c3 1.3 5.6 1.8 9 1.6a1571 1571 0 0 1-12 65.7c-1.8-4-4.3-7.6-6-11.7l8.4-52.5.4-3zm-201.4 9a301 301 0 0 1 34 61.7 500 500 0 0 1 24.1 72.9A303 303 0 0 0 68 438.6a193 193 0 0 1 17.8-41.1zm-66.3 16a162 162 0 0 1 28.4 25.5 209 209 0 0 0 4.8 40.6L56 481c1-1 2.3-1.6 2.4-3.2l4.4-20.8c21 28.2 37 60 51 92.2l18 45.6H19.2l.1-168.8c-.1-4.2-.2-8.3.4-12.4zM382 420v174.8h-65l2.4-21c5.4-36 15-70.8 30.5-103.7a126 126 0 0 0-10.7 18c.2-2.8 1.4-5 2.5-7.6a256 256 0 0 1 13.2-27.7c.7-1.2 1.2-2.4 2.6-3a63 63 0 0 0-2.6 9.3l27.3-39z" class="C"/><path d="M369 427a78 78 0 0 0-11.7 22.7c-1.3.7-1.8 2-2.6 3a256 256 0 0 0-13.2 27.7c-1 2.5-2.2 4.8-2.5 7.6-6 11-10.4 23-14 35l-13.7 71.6h-23.7c-.1-12.5 2.6-25.5 5.5-37.7 6.4-27 16-52.6 30.6-76.2 12-20.4 26.5-39 45.2-54z" class="D"/><path d="M45.4 428c1.3-.5 3.5 1.2 2.6 2.6-.7.7-3-2-2.6-2.6z" class="B"/><path d="M66.3 444l10 8.7a310 310 0 0 1 67.4 90.6c2.6 5.5 5.7 11 7 17L157 595h-20a543 543 0 0 0-28.3-70.5 416 416 0 0 0-42.1-70.9 22 22 0 0 1-2.1-3.3l1.8-6zM301 485.5c-9.5 35.8-16.2 72.3-18 109.3h-23.6l-2-14.7c.1-12 5-21 8.4-32.2l16.8-60.2c6-1 13 .8 18.2-2z" class="D"/><path d="M250 488.4l13.3-.4-11 41.3a622 622 0 0 1-2.3-41zm19-.4c2.7-.2 5.3-.2 8-.3-8.8 36.7-19.4 72.3-34 107a622 622 0 0 0-9.7 0A621 621 0 0 0 269 487.9z" class="C"/><path d="M222 489.4l23-.7 3 51.4c.5 3-1 5.4-1.7 8.2L229.5 592l-6.4-43c-2-8.5-1.2-17-1.5-26l.5-33.6zm-39.4 1.2l23.5-.7 18.2 105H195c-2.5-35-6.5-69.7-12.5-104.2z" class="D"/><path d="M211.4 489.7l5.3-.2-.1 24.8c-1.4-8.2-3.4-16.5-5.2-24.6zm-41.7 1.3l7.4-.2 6.6 44.3c-3.7-15-8.7-29.6-14-44z" class="C"/><path d="M353 502c2-.4 5.3-.7 6.5 1.6 1 2.4 0 4-1 6-2 .8-3.5 1.7-5.6 1-4-.8-4-7.8.1-8.6zM74.4 512.5c2-.5 4.6-.5 6.2 1 2 2 1 5-.5 6.8-1.7.8-3.7 2.5-5.7 1.3-3.2-1.5-3.6-7.7-.1-9zm-26 2c2.4-.5 6-.7 7.3 2 2.2 4.5-5.3 9.4-8.6 5.5-1.3-2-1.2-6.4 1.4-7.5zM296 527c1-.1 1.3.4.8 1.6-1 .1-1.3-.4-.8-1.6zm64 1c3.5 2 2.3 8.4-2 9-1.6.5-3.3-.6-4.7-1.2-.6-2.2-1.8-4-.8-6.3 1.3-2.6 5.2-2.7 7.4-1.4zm-311.4 9.4c.8 1.7-.5 3.8-1 5.5-2 .8-4.7 1.2-7 .4-1.5-2-2.6-6-.4-7.8 2.4-1.8 7-1 8 2zm23.4.8c3.7-1.2 7.2.8 7 5 .2 4-5 4.6-7.8 3.5-3.4-1.4-2.4-7.2.6-8.4zm267.5 8.3c3.5-.8 6.3 2 6 5.5a5 5 0 0 1-9.4.9c-1.5-3 1-5 3.4-6.4zm-288.2 3c2.3-.8 4 .4 6.2 1l1.2 3.4-1.3 3.8c-1.6.4-3.7 1.7-5.3 1-4-1-4.5-7.8-.8-9.3zM358.7 564c-.2 1.7-1.3 3.2-2 4.7-2.4 1-4.2 2.2-6.5.1-1-2.4-2.2-4.8-.5-7.2 2.5-2.7 8.3-1.6 9 2.4zM89 565.2c2-.5 5-.8 6 1.6.6 2 .6 5-.8 6.7-2 2.2-6.5 1-7.5-1.6-1-2.4-.7-5.8 2.2-6.7zm-16.3 1.2c1.7 1.6 1.4 5 .6 7-1.6 3-5 2.4-7.3.7l-1.4-4c.6-4 4.6-5.6 8-3.6zM47 568c1.6.3 3 1 4.5 1.4l1.3 3.4-1.3 3.8c-1.4.4-3 1.3-4.3 1.2-2.7-.8-3.6-3.4-4.3-5.8.8-1.7 2.4-3.4 4-4zm286.4 3.4c2-1.4 5.3-.4 6.2 2 1 2.4.8 5.3-2 6.3-2.5.6-6.7.5-7.3-2.8-.5-2.7 1.5-3.8 3-5.5z" class="B"/><path d="M252.5 584.8c.3 3.3.8 6.6 1.2 10h-5.5l4.2-10z" class="D"/></svg>