<svg xmlns="http://www.w3.org/2000/svg" viewBox="0 0 400 610" width="533.3" height="813.3" xmlns:v="https://vecta.io/nano"><style><![CDATA[.B{fill:#fff}.C{fill:#858585}.D{fill:#9260c7}]]></style><path d="M0 0h400v610H0V0z"/><path d="M19.5 16.3l363.6-.1v362.5a152 152 0 0 0-44.8 26.5c-18.8 16-32.5 36.7-42 59.3l7-38.6a635 635 0 0 1 18.7-66.1c8.7-25.8 19.2-51.3 34.7-73.8-1.6-2-2.7-1.7-5-1.7-22.2 16.2-39.3 37.7-52 62-16.5 31.4-25.8 66-31.4 100.8l-3.5 29.2a31 31 0 0 1-.7-7.2c-1-56.8 4.8-113.7 17-169.2 7.7 2.3 16 4.6 23 8.5 2 1 4.7 3.5 7 3.3l2.6-2 6.4-28.7a93 93 0 0 0 1.3-19.9c-.4-6.5-1.7-13.2-5.4-18.7-4-5.6-10.6-9.4-17.7-9.3 14.6-49 33.8-98 60-142 1-1.8 3.4-4.3 2-6.3-1.2-.8-3.3.2-4.7.3l-20 27c-23.3 33.6-41.7 70.8-56 109-1.2 1.2-.1 3-2 3.6l.4 1.5-1 .5v2.8l-1-.1.2 3-1.3-.2.3 3.3-1.6-.3 1 2.2-1.6-.1.3 3.3-1.3-.3.1 1.8c-2 2-4.6 3.6-7 5.4-10-1-19.4 1-27.8 6.4 2.6-6.6 5.6-13 9-19.3.8-1.4 1.5-3 2.7-4.2 6.4-2.7 13.6-6.6 17.8-12.2 2.5-3.2 2-7.4.1-10.8-3.2-4.2-8.7-6-13.6-3.8-6 2.8-10.8 8.3-14.4 13.6-3.7 6.5-8.8 12-12.8 18.2l-14 25-2 1a135 135 0 0 0 7.8-43.6c0-7-.7-15-4-21.4-1.6-3-4.4-2.6-7.2-3.6-2.8 1.3-5.2 3-5.8 6-1 9-.6 18.2-2 27-4.8 1-9 3-12 7-4 5.7-6.3 12.6-8.7 19l-4 13a339 339 0 0 1-4-52.1c0-2 0-4 .7-6 4-8.7 8.7-18.5 9.7-28 .6-5-1-10.7-6-13-6-2.8-13.3.2-15.6 6.3-4.3 10.4-2.2 22-1.6 32.7l-3.4 23c-1 8.8-1.4 17.7-1.2 26.6-3.4-1.5-7-2-10.6-3-3.5-3-6.5-7-10.3-9.7-5.7-4.4-13.8-7-21-5.4A30 30 0 0 0 91.5 253c-20.3-25.8-43-49.6-69.5-69-1-1-2.7-1.4-2.5-3.2V16.3z" class="B"/><path d="M336 120c-.8 3.2-2.6 6-4 9a773 773 0 0 0-39.1 102c-.5 1-.5 2.7-2 2.8-5 1-9.7 3-14.3 5.3A530 530 0 0 1 336 119.9z" class="C"/><path d="M173.7 172.3a19 19 0 0 1 .5 9.8c-1.4 7-4.6 14-7.8 20.4-1.2 2.3-2.2 4.8-3.8 6.7-1.4-7.3-2-14.8-2-22.2.1-4.5.8-9.4 2.8-13.5 1.6-3.8 7.5-4 10.2-1.2z" class="D"/><path d="M19.4 189a227 227 0 0 1 19.3 15.4c18.2 16 34.8 34 49.6 53.3 1 1 .2 2.3 0 3.5-3.4 11-4 23.4-3.6 35L20.3 195.6c-1.4-1.8-.8-4.6-1-6.8z" class="C"/><path d="M207 197.7c2.6 1.5 3.5 5.5 4 8.2 2.8 19.6-.4 39.2-7.7 57.6-.7 1-2 1.4-3 2-3.4 1.7-6.3 4-9.6 5.8 5-10.7 9-21.6 11.2-33.2 3-12.5 1.3-24 2.7-36.6.2-1.4 1.4-2.7 2.3-3.8z" class="D"/><path d="M19.4 202.8l10 14.7 55 89c1.6 2.8 1.3 6.7 2.3 9.8 1.3 2 2.5 1.7 4.5 2.3 12.4 21.6 24 43.7 35.2 66 22 44.3 41.6 89.7 57.4 136.5l-24-46.8A231 231 0 0 0 94 401.9c-21.5-14.8-46.3-24.5-72-28.3-1.2-.4-2.8.2-2.6-1.6v-169z" class="B"/><path d="M259 208c2.6.5 2.8 3 3.8 5-1.2 2.4-2.7 4.3-4.8 6-5.8 4.5-13 7.4-20 10 3.3-5.8 7-12.4 12-17 2.4-2 5.7-4 9-4z" class="D"/><path d="M159.5 219.2l1.4 1 3-1 4.5 49.7-1.3-.5c-2.5-3.4-4.6-7-8-9.5-2.3-1.5-1.5-3.5-1.7-6a206 206 0 0 1 2.1-33.8zm38 12.4a115 115 0 0 1-11.6 37.8 83 83 0 0 0-8.5-1.3 499 499 0 0 1 7.4-21.2c1.5-4 3-8 5.6-11.4 1.7-2.4 4.4-3 7-3.8zm43.2 2c-4.7 9-8 18.5-11.7 28-3.6-1.2-7-2-10.8-1.8 4-8.3 8.5-16.3 14-23.7 3 .6 6-1.5 8.6-2.6z" class="B"/><path d="M298 239.7c5-.2 9.8 2.7 12.5 6.8 2.2 3.7 3 8.3 3.3 12.5.8 12-.7 23.6-3.3 35.2-2-9.6-5-18.8-11-26.7a42 42 0 0 0-26.6-16.9 38 38 0 0 1 25.1-10.8zM116 243c7.5.4 14 4.6 18.2 10.7-5.5 1-10.7 3-15.3 6.3-8.6 6-14.7 14.4-19.5 23.6a86 86 0 0 0-7.2 15.7 87 87 0 0 1 2.3-34.7c2-7 5.7-16 12.7-19.2 2.7-1.5 5.6-2.6 8.8-2.2zm150 11.4l14.5 15 22 30.6c-19-8-38.5-10.2-58-15.6-.8-7.5-4.2-14.3-9.7-19.5a20 20 0 0 1 8.2-6.8c6.7-3.3 15.5-2.8 23-3.6zm7 .6a41 41 0 0 1 21.1 12c7.8 8.5 12 20.6 13.2 32l-6-9-28.2-35zm-140 3.5a54 54 0 0 1-2.5 3L95 304a99 99 0 0 1 10.5-23.5c5.8-9 14-17 24.2-21l3.3-1zm6.7-.3c8.7 1.4 16.6 4.3 21.7 12-2.8 2.5-6.2 3.7-8.7 6.6-4.5 5.5-6.7 12.7-6 19.8l-11.7 2L96.8 309a461 461 0 0 1 28.6-36.6l14.4-14zm86.3 9c5.8 1.7 9 7.8 10.7 13 1 6.6 2 13 .5 19.7-3.5 16.5-15 31.4-26 43.7a105 105 0 0 0 1.1-43.2c-2-9.7-6.3-18.7-14.6-24.7 2.4-2.3 5.6-4 8.5-5.5 6.2-3 12.8-5.6 19.7-3zm-50 7.8c5.2-.1 9.5 1.7 14.4 2.7l5 20.4 7.7 45.3-20.4-15-17.8-13a30 30 0 0 1-9-11c-4-7.8-3.4-18.8 3.6-24.8 4.8-4.2 10.6-4.7 16.6-4.5zm19.5 5c7 5.5 11.4 15 13.2 23.5 2.8 13 .8 25-1 37.7-4-20.4-7-41-12-61.2z" class="D"/><path d="M245 292c3.4.3 6.7 1.4 10 2L241 367a499 499 0 0 0-7.4 55 850 850 0 0 0-2.5 95.9 84 84 0 0 0 .5 8.2A583 583 0 0 1 207.7 423l-1.2-7.4c.5 3.8.5 7.6.7 11.4A397 397 0 0 0 229 535c1.4 4.6 3.4 8.3 3.7 13l4 38-10.8-30C207.7 504 195 449.8 189 395c3.7 4 8 7.4 12 11.2 2-.6 2.6-1 2.8-3.2.2-7-.4-14-.5-21 0-1.5-1-2.5-1.2-4l-.8-27.2c1.5 2.2 3 4.2 5.3 5.6 10.8-8 19.5-19.7 26.7-31C240 315.3 244.3 304 245 292z" class="B"/><path d="M255.2 294l4.2.8-1 6 1.6-5.8 15 3.4c.4.6.4 1.4 0 2.5A737 737 0 0 0 260.6 516l.4 9a567 567 0 0 0 2.3 70.8c-6.6-.1-13.2 0-19.7 0l-5.2-47.7 2-143c2.8-27.4 7-54.7 13-81.7a20 20 0 0 0 .4-4.2A545 545 0 0 0 241 367l14.2-73zm87.8 4l-2.3 4.7a420 420 0 0 0-35 89A555 555 0 0 0 286.3 508a572 572 0 0 0 2 87.8H269l-1.3-12.8-1-74c1.7-42 8.5-83.4 22-123.2 11-32.6 28.4-64.6 54.4-87.8z" class="C"/><path d="M148 302.8c2 4.7 2.4 10.2 3.5 15.2l5 22.2c5.5 15.8 13.2 31.5 23.6 44.6 1.2 1.7 3 3 3 5l3.7 32.2L128.7 307l19.5-4.2z" class="B"/><path d="M123.3 308.3a946 946 0 0 1 66 131.6c.7 2 1 4 1.5 6a685 685 0 0 0 18 75.2c7.5 25.4 16.6 50 26.4 74.6-8 0-16-.1-24.2.1l-.6-2c-7-29.8-15.8-59.2-26-88a1249 1249 0 0 0-74-165.1L96.6 316a228 228 0 0 1 26.7-7.9z" class="C"/><path d="M155 315.2c3.6 4.7 9.2 8.3 14 11.8 1 .6 1.3 2 1.6 3.2 3 10 6.5 19.8 11.2 29l15.5 22.7 1.3 14.5c-22.6-21.8-37-50.6-43.5-81z" fill="#ffe000"/><path d="M176.3 331.5l5 3.4-.2 10a180 180 0 0 1-4.8-13.4zm10.4 6.8l9.2 7c.1 9.7.4 19.4 2 29-4-5.5-7.7-11.3-11-17.3-.6-6.2-.2-12.5-.3-18.7z" class="B"/><path d="M30.8 381.3c32.3 6.6 61.3 23.2 84.8 46 14 13.5 25.7 28.7 36 45 13 21 24.6 43.5 33.3 66.7 6.8 18.4 12.6 37.4 16.2 56.7-7.5 0-15-.1-22.4 0l-7.5-29a331 331 0 0 0-52.8-105.3c-17.6-23-37.5-44.7-60.8-62.2-8.6-6.6-17.7-12.3-27-18z" class="C"/><path d="M19.4 381.8A240 240 0 0 1 76 422a322 322 0 0 1 69 91.8c-5.6-7.5-12.6-14-20-19.7-16.7-12.7-36.2-20-56.8-23.8L47 468c-2.2 1-1.6 2.7-1.6 4.7l23 10c23.7 12.8 46 30.5 60.2 53.8 10.8 17.8 16 38.6 15 59.4H19.4v-214z" class="B"/><path d="M375.8 388c-40 37-65 89-70.8 143-2.6 21.6-1.7 43.3 1.2 64.8-4.2 0-8.5 0-12.7 0-3.3-35.5-3.6-71.2-.2-106.7.5-3.8 1.7-7.2 3-10.8 6.4-17.5 14.8-34 26.3-48.6 14-17.8 32.4-32.5 53.2-41.5z" class="C"/><path d="M383 388.4v56.3c-14.4 5.8-27.3 15.3-38.8 25.5-11 9.7-20.8 20.7-29 33a233 233 0 0 1 21.2-55.7c12-21.8 27.3-43.3 46.7-59z" class="B"/><path d="M381.8 452a63 63 0 0 0-14.9 19.5c-8.5 9.4-15.6 20.4-22 31.4-1 1.4-1.4 2.8-1.8 4.4a125 125 0 0 0-20.7 39.8l-12 40.2c-2-22.2-2-44.4 1.5-66.5.4-2.8 2-5 3.4-7.5l14.4-20.6a129 129 0 0 1 52-40.7z" class="C"/><path d="M383 458v137.6c-23-.1-46 .2-69-.1a293 293 0 0 1 11-40.6c6.6-20.7 16.3-40.5 28-59-3.5 3.5-7 7.2-10 11.2.4-1.6 1-3 1.8-4.4l22-31.4-4.6 10.6 21-24z" class="B"/><path d="M67.7 476c10 1.5 19.8 4.5 29 8 21 8.4 39 23 51 42 13 20.5 22 45 22.2 69.5-7 0-13.7 0-20.6 0 .2-13-1-26.2-5.2-38.7-6.5-20.6-19.2-38.6-35.4-52.8a202 202 0 0 0-41.1-28.1z" class="C"/></svg>