<svg xmlns="http://www.w3.org/2000/svg" viewBox="0 0 400 610" width="533.3" height="813.3" xmlns:v="https://vecta.io/nano"><style><![CDATA[.B{fill:#fff}.C{fill:#fff000}.D{fill:#6fc7e6}.E{fill:#858585}.F{fill:#9260c7}.G{fill:#da8e55}]]></style><path d="M0 0h400v610H0V0z"/><path d="M19 16.3l82.4-.1c-.7 7-4 14.3-9.5 18.7-3.6 2.8-7.6 2.5-12 2a162 162 0 0 0-42 0c-6.5 1-12.5 3-19 4.3v-25zm86.5.1l48.6-.1a35 35 0 0 1-32.1 20 46 46 0 0 1-21.1-6.2 52 52 0 0 0 4.6-13.8zm53.7-.1l222-.1V60c-10.8 1.4-21.5 2-32.3 1.3-4-.5-8.8-1.4-11-5.2-1.8-2.3-1.7-5.2-1-8 .7-2.5 3.3-4.4 5.3-5.7 3-2 6.4-1.2 9.4-3l-2-2.2c-5 .1-9.6 1-13.3 4.5-3 3.2-3.6 8.3-3.7 12.5-.2 3 1.8 5 3.5 7.5l12.3.3c-1.3 5.2-4.4 10.8-4 16.2A16 16 0 0 0 354 92c7 3 15.4 3.2 23 3 1.8.1 3-.8 4.4-1.7v44.2a235 235 0 0 1-44.4-.7c-5-.7-10.5-2-15-4.6-3-1.7-5-5.6-6-9-1.2-5.4 1.7-10.4 5.3-14.2 6.7-.3 14.3-1.4 20.7 1.2 2.4 1.3 4.2 5.8 1.5 7.7l-12.5 1-.3 3 7.4 1.5c5.8.3 11.7-4.3 11-10.5-1.3-2.7-3-6-6-7.2-6.5-3.2-13.3-2.7-20.2-2-10-1-19.8-1.5-29.8-2.2a65 65 0 0 1-20.9-4.9c-3.5-1.5-8-3.7-9.7-7.2a36 36 0 0 1 .3-21.3c6.4 2.3 13.5 2.5 20.3 2.5 8.4-.4 16.6-2 25-2.5a28 28 0 0 1 9.2 1.4c3 1 5 4.3 4 7.3-1 2.7-2.4 5.7-5.4 6.7-4 1.5-7.8-.2-11.7.1-1.7 1.2-.6 3.6 1 4 4.7.7 9.2 1.4 13.6-1 3.5-1.6 4.7-5.5 6-8.8 1.3-3.2.4-6.3-1.8-9-2.8-3.5-7-4-11.2-5 3-2.5 5.3-5 5.5-9 .6-6.7-5.3-11-10.7-13.5a60 60 0 0 0-28.5-3.3c-5.6 1-12 2.3-16 7-.7 1.2-1.8-.3-2.6-.6-6-4-13.4-5.8-20.3-7a228 228 0 0 0-52.2-3c-7 .1-14 2.2-19.8 6-4.2 3-8 6.5-11.6 10.3-2.7 3-6.3 5-9.4 7.6-1.7 1.2-3 2.7-5 2.7-6 .5-12 1.5-18 1.7l-14.8-3c-7.8-2.5-16-5.3-24-6.2-5.4-.4-11.8-.6-16.8 1.8-4.6 1.6-7 6.3-8 10.6-1 4.2 1.4 8.4 5.5 9.8 5.5 2 12-.6 17.5-2.3a4 4 0 0 0 1-2.6c-4.2-1.5-6.7 1-10.5 2-3-.4-5.8-1.2-8.5-2.2-2-2.2-.6-5.3.4-7.6 1.3-3 4-4.2 7-4.8 7.5-1.5 15.6.2 23 2 4 1 8 2 11.8 3.7A61 61 0 0 1 90 82c-10.6 7.5-24.5 9.8-37 6.2a56 56 0 0 1-26.8-17.3c-2.6-3-5.4-6.2-7-10-.4-3.6-.1-7.3-.2-11 .2-1-.4-3.5.5-4.3l15.5-4c14-2.5 28.7-3 43-.7 4.5.6 9.4.8 13.6-1.2 2.8-1.2 5-4 7.2-5.8 6.8 2.8 12.7 5.8 20.2 6.4a37 37 0 0 0 31.7-11.5c3.6-3.7 6-8 8.5-12.3z" fill="#d96038"/><path d="M189 41.3l38 1.7c7.3.2 14.6 1.4 21.5 3.6 3 1 6.7 2.5 8.8 5 1.6 2 1 4 .6 6.4l-4 19c-1 6 1 12.6 4.4 17.6 4.2 6 11.8 9 18.5 10.8 11.2 3 23.4 4 35 4.6-3.8 7-3.6 15.6 1.4 22 5 7 14 9.4 22 10.8 16 3 30.7 1.2 47 1.2v21a243 243 0 0 0-92.9 65.1l-3.6 3.8-1.6-19c0-.8.2-1.5.7-2.3a277 277 0 0 1 42-52c-.3-1.8.8-4.7-1.7-5.2-3 .8-5.5 3-8 4.5-14.2 9-26.8 20-38.6 32-5-7.8-13-10.5-21.4-12.8-7-1.7-14-1.3-20.7 1.7 1.4-4 2.5-8 4-11.7 1-2.4 3.3-4.2 4.8-6 6.7-7.8 11.6-17.4 11.4-28-.3-4.6-1-9-5.2-11.4-3.2 1-8 .6-10.2 3.3-3 3.2-4.5 8-5.6 12-1 3.5-.3 6.8-3 9.4-12.4 15.4-17.2 33.7-22.5 52.3a40 40 0 0 0-7.3 6 116 116 0 0 0 .7-7.7 667 667 0 0 1 18.3-112.1c-1-.8-2-2.7-3.5-2-1.3.7-2 2-2.8 3.3-11.4 18.8-19.3 40.5-25.5 61.5l-9.4 38 .8-18c.2-3-.4-6-1.8-8.5-1.7-2.4-4.8-2.5-7.3-1-3.5 2.2-6.4 5.2-8 9-2.2 6-1.8 12.6-.7 18.7-3.5 5-7.7 9.3-7 15.8 1.2 6 3 12 4.4 17.8l-7 .5c-3.2-7.2-7.6-13.7-15.6-16 5-9 7.6-19.2 8.7-29.3 1-9 1-18.2-4-26.2-1.7-3-6-4.3-9-2.4-3 1.8-5 5.6-6.3 8.7a5 5 0 0 0-.5 3.9c2 9.7 1.6 19.2.7 29-13.4-24.5-30.8-47.7-52-66-1.3-1-2.3-2.2-4.2-2-1 .3-2.4 2-2 3 1 2 2 4 3 6l27.2 60.5c-11 3-21.2 9.3-26 20-6.7 15-4.3 32-7.8 47.6-.4 1.6.2 3.5.4 5 9.3.3 18.7-1 28-1.3 9 0 18.2-3.3 26.8-6a589 589 0 0 1 16.8 86.3l-1-29.3c1.2 2 1.4 4.4 1.8 6.8l5.2 37.5 1.8 23.4-4.8-18.8 3.4 46.4c.1 3.7.3 7.4-.1 11-2.6-12.2-6.6-24-11-35.6a190 190 0 0 0-18.2-36c-17-26.2-41-47.3-69-61.2-1.6-.7-3.8-2.5-5.6-1.6-1.8.3-2.3 2-1 3.4l12.4 14.6c9 10 16.5 22 23.4 33.6 11.2 19 20.8 39.3 26.7 60.6l1.2 3.6-.7-10c2.2 4.8 3.3 10.2 4.6 15.3l-2.3-.8c-28.2-19-56.4-37.7-84.6-56.6-1-.7-2.2-1.2-2-2.6V71c3 3.5 6 7 9.2 10.4 9 8 20.3 13.7 32.4 15 9.8 1 20.3-.7 29-5.3 10-5.3 17.5-13.7 23-23.4 9 1.7 17.4 3.4 26.7 1.8 3.2-.7 6.7-1 9-3.5l20.5-17.5c5.4-5 13.2-7.8 20.6-7z" class="B"/><path d="M290 42c7.3.8 16 2.3 21.2 7.7 3 2.7 2.4 7.4-.8 9.6a42 42 0 0 1-9.6 4.4c-5.7 1-11 2.8-16.8 2.3-6.7-.5-13.4-1.3-20-2 .6-4 1.5-8.2 1-12-.1-1.8-.8-3 .7-4.5 2.2-2.6 5-3 8.3-3.7 5.6-1 10.4-2.6 16-1.8zm62.7 20c5-.8 9.4.3 14.3.4l14.4.4.1 29c-4-1.6-7.4-.6-11.5-.7-5.5 0-12.2-.6-17-4-3.5-2.6-4.7-6.6-4.5-10.8-.2-4.7 1.7-8.4 3.4-12.6l.7-1.5z" fill="#d96038"/><path d="M211.5 107a770 770 0 0 0-14.7 106.5 57 57 0 0 0-16.4 7.1V214c5.6-34.2 14-68.8 28-100.7 1-2.2 2-4.3 3.2-6.3z" class="E"/><path d="M248 128.3c1.2 2.4 3.2 5 2.8 7.7-.6 9.3-5.2 18.5-11.5 25.2a54 54 0 0 1 2-24.8c1.4-3.6 3.4-6 6.7-8z" class="F"/><path d="M83.2 138.8c3 2.3 5.4 5.4 8 8a254 254 0 0 1 35.8 53c-4.3-5.3-10-8.3-17-9.2-1.3-.2-3 0-4-.7l-4.4-10.6-18.3-40.6z" class="E"/><path d="M137 152.5c4.3 3 4.5 7.6 5 12.5.6 11-.7 23.2-5.7 33.2-1.4 2.6-2.8 5.6-5.2 7.3l3.4-22.5c.8-8-1-16-1.8-24 1.3-2.3 2.5-4.5 4.4-6.4z" class="F"/><path d="M233.8 156.7l.7 10.3c-.6 4-2.7 8-3.6 12-1 2.7-.8 6-3 8-2.4 2.4-4.4 4.8-6.4 7.6-1.2 2-3.3 2.2-5.3 3.2 4-14.2 9.2-28.8 17.6-41z" class="B"/><path d="M176 165l-2 39.4c-1.6-3-2.2-6-3.2-9.2-2-6.3-3.6-13.6-2.6-20.2.8-4.6 3-9 7.8-10z" class="F"/><path d="M304.8 176l-17 22.7a53 53 0 0 1-4.8 6.6l-2-8a229 229 0 0 1 23.8-21.3zm67.2 0a332 332 0 0 0-66.4 72.6 414 414 0 0 0-44.2 84.8l-18.3 62c-6.6-7.5-19-9-28.4-8.4l11.2-35a446 446 0 0 1 35.2-73.8c11.4-18.7 25-36 40.2-51.8a247 247 0 0 1 67.8-49.2l3-1z" class="E"/><path d="M382 175.3v273c-11.6-.1-23.4.2-35-.1l-20.5-12.6-44-27.4c0-1.3-.5-1.6-1.3-2.5l-.7 1.6-.7-.8c2.3-5.2 4.2-11 7.5-15.6l-1.8 9.2 6-11.5C305.8 363 326 341.7 349 324c.3-1.4.4-3 .4-4.3-17 1.6-33.6 7-48 16-18.4 11.3-32.7 28-43.3 46.7a167 167 0 0 0-11.9 24.7c1.6-6.8 2.7-13.6 4.4-20.4l20-63c14.7-36 35.3-69.8 60.6-99.5a282 282 0 0 1 51-48.7z" class="B"/><path d="M274 198c4.4 10.2 2.7 22.4 4 33.5-5-4-9.4-9-14.6-13-11-8.4-22.5-16-35.8-20.5 3.4-4 6.5-8.7 11.4-10.7 12-5.7 29-1.6 34.8 10.8z" class="F"/><path d="M165.3 195.2c2 9.8 4.3 19.3 9 28.2l-7.6-1.2c-1.7-5.7-3-11.5-4.6-17.2-1-3 .6-6.4 2-9 .2-.5.6-.8 1.2-.8z" class="B"/><path d="M113.6 198.5a21 21 0 0 1 10.4 10.2A162 162 0 0 0 90.9 235c-6 5.8-11 12.5-16.7 18.3l2-19.2c.4-5.5.8-11.2 2.2-16.5 2.4-7.2 8.5-12.7 15.2-16 6-3 13.3-5.3 20-3.2zm110 4.5l10.4 14a116 116 0 0 0 39.8 22.5c-15.5 4.5-34 7-49.6 2 .4-4.7.8-9.2-1-13.7-3-7.3-9-13.6-17-14.7 4-5 11-8.2 17-9.6zm-95 9.2l10.6 1.3c3 3 7.4 6 8 10.5-2.7 1.4-5.4 2.6-7.5 5-4.2 4.4-6.2 10-7.3 16-13.6 7.8-30.3 11-45.7 12a87 87 0 0 0 40.7-42.1l1-2.5zm-5.4 1.8a76 76 0 0 1-21 27.3c-7.7 6.3-16.4 11.2-25.4 15.4 2-3.2 4.5-6 7-9 11.2-13 24.4-25.6 39.5-33.8zm85.2 6.6c5 1.7 7.6 6.4 8.7 11.2 1.4 6.6-.1 12.8-2.4 19a139 139 0 0 1-17.5 30.4 32 32 0 0 1-4.3 5.3l-.3-19.3a87 87 0 0 0-12.7-38.3c4.2-2.7 8.7-4.7 13.3-6.8 5-2 10-3.6 15.3-1.6zm-34.3 10l-1.6 16.4a95 95 0 0 0 11.6 40.3c-13.2-6.3-25.6-11.7-36.5-22-5.2-5.2-8.6-12-8.2-19.4.7-5.3 2.6-10.4 6.6-14.2l28.2-1.2zm3 3c2.3 3.2 3.7 7 5.2 10.8a119 119 0 0 1 7 42.4 84 84 0 0 1-12.2-53.2z" class="F"/><path d="M276 246a353 353 0 0 0-44 75.1l31.2-71.6a329 329 0 0 0 12.8-3.4zm-53.3 2.3l11.6 2.5a485 485 0 0 0-33.8 70l-.4-29c.1-2-.5-4.2 1-6 3.3-4.7 6.7-9.3 10-14a98 98 0 0 0 11.7-23.7z" class="B"/><path d="M240.3 251.3c5.4-.3 10.8-.5 16.3-.8L242.8 279a609 609 0 0 0-35.2 107c-.4 1.3-.3 2.3-1.8 2.8-4.2 2-9 3.4-11.3 7.8-1.8 3-1 6.2-1 9.6v46c-.1 1.6.2 3.5-.4 5-1.7 1.5-3.8 2.7-5.8 4-5.8-4-11.7-7.8-17.6-11.8 7-42.2 19.4-82 34.3-122 10-26 21.7-52 36.3-75.7zM133 252c2.6 10.7 9.7 19.2 18.6 25.4l1.2 20.6 5 41.8L168 389c2.4 7.7 3.2 16 3.6 24l-6.7 32.5-15-9.5a226 226 0 0 0-3.7-54.5l-1.8-23.4-5.2-37.5c-.4-2.4-.6-4.7-1.8-6.8-.6-2.7-.5-5.4-.7-8.2L130 267l-3-12.5 5.8-2.5z" class="E"/><path d="M156.4 280.2c2.8 1.8 5.7 3.3 8.6 4.8l2.6 22c.2 2 .7 4 .1 5.8l-6.2 16-5-48.7z" class="B"/><path d="M178.8 292.2l2.7 1.4c2.3 1.4 5.8 2.5 7.5 4.5-6.3 17.2-15 33.6-24.6 49.2-.3-3.6-2.2-8-.2-11 6.5-14 11.7-28.8 14.6-44z" class="C"/><path d="M56 299.2L81 318c22.8 20.3 39.7 46.3 50.3 75 4 12 8 24.3 9.4 36.8L105.2 406l2.3.8c-1.3-5-2.4-10.5-4.6-15.3a111 111 0 0 0-9.3-33.1 265 265 0 0 0-30.2-50L56 299zm138.5-.2l.4.5 1 24.5c.1 4 1 7.3-.7 11l-10.6 32-5-23c-.5-3-1.5-6-1.3-9l16.4-36zm140.8 28c-2 2.6-4.4 4.5-6.7 6.8a255 255 0 0 0-30.2 33.8 72 72 0 0 0-11 23.4c-3.3 4.7-5.2 10.3-7.5 15.6l-5.7-3.7c-8.7 5.8-17.3 11.7-26 17.4 6-19.4 15.5-38 28-54a108 108 0 0 1 59.3-39.1z" class="E"/><path d="M173.5 342.8l6.3 29.3c.5 2.5 1.7 5.2.7 7.7-1.7 5.7-3 11.4-5 17l-9.4-41c1.8-4.5 4.8-8.8 7.2-13z" class="B"/><path d="M18.4 355L182 464.3 153 484h-.8c-5.6-3.7-11.2-7.5-16.8-11.3-2.6-1.7-3.7-5-6.5-6.5-3.3-2.6-7.5-2.7-10.8-5l-91-61c-2.8-2-5.8-3.6-8.4-5.8l-.2-39.4z" class="C"/><path d="M224 393c5.6 1.3 12.6.6 15.2 7-2.6 1.8-5 4.3-8 4.8l-12 2.7c-7.6.4-14.7-2.4-20.2-7.6 1.5-2.4 3.5-4.2 6.2-5.2a32 32 0 0 1 19.1-1.6z" class="G"/><path d="M18.4 401l90.8 60.8c-9 .4-17.5.5-23.8 7.6-4 4.4-1.6 10-2.2 15.6l-5-3.2c-20-13.4-40-26.6-59.8-40V401z" class="C"/><path d="M284.4 401.3l.4.1c-.2 1.4-.6 2.7-1.2 4-.7.3-1.3.4-1.8.1a13 13 0 0 1 2.7-4.1z"/><path d="M199 408.2a50 50 0 0 0 39.9.2l-.1 16.6c.1 1.6-1 1.8-2 2.7-12.6 8.4-25 17-37.7 25.3v-44.8zm75.8.2L305 428c-1.3 1.6-3.5 2.6-5.2 3.8l-239 160c-2 1.3-4 2.8-6 3.8-3.6.4-7.2.1-10.8.2-2-.1-4 .3-5.8-1L24 586c-2-1.2-4-2.3-5.6-3.8-.7-1.8 1.4-2.3 2.4-3.3l245.8-165 8.2-5.2zm36 23.2l30 19.4-64.8 43.3c-4.8-4-10.6-5.5-16.6-6.8a43 43 0 0 0-24 3.2c-4 1.8-7.5 4.7-7.5 9.4v26.7l-101.4 67.8c-1.6 1-2.5 1.4-4.4 1.3H65.8l25.7-17.4 212-142 7.5-4.7z" class="C"/><path d="M18.5 453.7c3.8 0 8.6-1 11.8 1.3-4 4.2-8.6 7.4-12 12 .2-4.5-.1-9 .1-13.4zm327.5 0c4.3 3.8 8 8.2 12 12.2 3.7 3.6 6.2 7.8 8.8 12a88 88 0 0 1 11.5 50.9 87 87 0 0 1-15.8 45.6 77 77 0 0 1-23.7 20.3c-2 1-3.8.8-6 1-14-.1-28 .1-41.8-.1a104 104 0 0 0 36.8-15.7c3-2 6.2-3.6 8.8-6a77 77 0 0 0 19.3-26.7c4.6-11 6-23.3 4.4-35-2.3-15.5-10.4-29.2-21.6-40-3-2.7-6.4-4.7-9.6-7l16.7-11.2zm5.3 0H382V503l-.6 9a79 79 0 0 0-17.4-45.1c-4-4.6-8.8-8.6-12.8-13.2zm-317.5 4L48 467a52 52 0 0 0-21.4 32 47 47 0 0 0 2.9 28.5 70 70 0 0 0 21.7 24.7L39 560.5c-6.8-5.2-12.4-11-17.4-18-1.6-2.4-3.5-4.3-3.2-7.4v-58c-.1-2.2 1-3.7 2-5.4 3.4-5.3 8.6-9.7 13.2-14z" class="D"/><path d="M106 467c3.6-1 6.6.2 10.2.8 3.3.8 7.4.7 10 3 1.3 1 3.2 2.4 3 4.2-1.8 3.8-6.4 4.7-10.2 5.3-5 .6-9 2.5-13.8 1-4.8-1.2-11.2-1.3-15-4.5-1.5-1.3-2-2.7-.5-4.4 4.5-4.4 10.5-4 16.4-5.5z" class="G"/><path d="M326 467l8.7 6.2c12 11 20.6 25.3 22.2 41.7 1.3 17-4 34-14.5 47.4a77 77 0 0 1-23.3 18.7 123 123 0 0 1-40.4 13.2V579a83 83 0 0 0 22.4-6.8c5.7-3.2 11.6-5 16.7-9.3a57 57 0 0 0 21.5-29.6 45 45 0 0 0 .3-27c-4.3-13.3-14.5-23.2-25.7-31l12.2-8zm-274.8 2.5c4.6 2.5 9 5.8 13.3 8.6-6.7 4.6-12.7 9.5-16.5 17-4 8-4.7 18-.3 26.2 4.6 8.7 12 14 20 19.3l.1.4-12.8 8.7c-10.7-8.2-21-17.7-24.3-31.2-2-9.7-1-20.4 3.4-29.4a51 51 0 0 1 17-19.6zM310 478a69 69 0 0 1 22.4 22.7c4.8 8.3 5.2 17.6 3.8 27a47 47 0 0 1-19.8 30l-12.7 9.3a86 86 0 0 1-25 7.8V560a116 116 0 0 0 22-10.3 42 42 0 0 0 17.2-18.7 30 30 0 0 0-1.4-26c-4.7-8-12-13-19.8-17.7l13.5-9z" class="D"/><path d="M134 478.5l13.6 9.2c-4.6 3-9 6-13.6 9v-18.2z" class="C"/><path d="M68.2 481c5 3 9.8 6.5 14.8 9.6-5.5 2-11.4 4.7-15.3 9.2-3.5 4-5.3 9.7-3.3 15 2 5.2 7 8.8 11.8 11 2.2 1.2 5 1.7 7 3.2.1 1.2-.2 2-1 2.4-3.4 2.5-7 4.6-10.5 7.2C64 535 56.5 529.3 52 522c-4.8-7.7-4-17-.2-25 3.6-7 9.5-12 16.3-16z" class="D"/><path d="M88.6 483.2l3 1.3a50 50 0 0 0 16.5 3.7c7.2.1 14.7-2 21.2-5-.2 5.5.4 11.2-.3 16.6-3.2 2.6-6.8 4.5-10 7-10 6.7-20 13.6-30.2 20.2v-43.7z" class="C"/><path d="M293 489.5c9 4.5 18.8 11.7 22 21.6 2.4 8 1 17.6-4.4 24.4a46 46 0 0 1-17 13c-4.8 2.6-9.4 5.3-14.7 7l-.1-17.7c6.3-2.3 12.8-4.3 17.2-10 3.2-4 4.3-10.6 2.6-15.3-4-7.4-10.8-11.6-18.6-14 4-3.4 8.7-6.2 13-9z" class="D"/><path d="M257 493c4.4 1 9.2 1.6 13.3 3.6 2 1.2 4 3.5 2.2 5.8-3.6 3-9.2 4-13.7 4.8-4.7 1-9-.1-13.7-1-3.8-.8-10.3-1-11.7-5.3-.3-4.2 5.2-5.7 8.4-6.3 5.4-.8 10-3.4 15.2-1.6z" class="G"/><path d="M83.2 494.7v29.8c-4.7-1.6-9.7-4-13-7.8a10 10 0 0 1-1.6-11c3-5.8 8.8-8.6 14.5-11zm195.5 8c4.6 1.5 10 3.6 13.5 7 2.8 3 4.4 8 2.4 11.8-3 6.5-9.6 9.7-16 11.8v-30.8z" class="D"/><path d="M233.5 509c2.5.6 5 1.8 7.4 2.5 10.8 3.2 22.5 2 32.5-3.3l-.1 87.5h-39.7V509z" class="C"/><path d="M228 533v4.6h-7l7-4.7zm153.5 3c1 5.7.5 11.3.6 17v42.8a6209 6209 0 0 0-36.1 0 70 70 0 0 0 17.7-16.2 80 80 0 0 0 17.9-43.6zM215 541.8c4.3-.6 8.7-.1 13-.2v16.2h-37l24-16zm-196.6 4l8.3 9.5c2.6 3 5.8 5 8.6 7.7-5.6 3.8-11 7.7-17 11.2V546zM185 562h43v14c-21.3-.1-42.7.2-64-.1l21-14zm-25 18h68v15.6c-31-.1-62 0-93.2 0l19-13c2-1.3 3.6-3 6.2-2.6zm-141.6 9a311 311 0 0 1 10.8 6.8H18.4V589z" class="D"/></svg>