<svg xmlns="http://www.w3.org/2000/svg" viewBox="0 0 400 610" width="533.3" height="813.3" xmlns:v="https://vecta.io/nano"><style><![CDATA[.B{fill:#fff}.C{fill:#858585}.D{fill:#9260c7}]]></style><path d="M0 0h400v610H0V0z"/><path d="M18.5 16.3l363.6-.1V176v7.7L378 186c-29 20-54 47.5-75.7 75.3-4.3-5-10-8.7-16.3-10.2-5.3-1.4-11.4-.2-16.5 1.5a38 38 0 0 0-16.2 13.6 354 354 0 0 1 1.5-39.7c.2-3.8 3.4-7.2 5-10.7 4-7.6 9.4-17 9.2-26-.1-5-3.3-7.4-7-9.7l-9.4 1.4c-3.6 2.3-6 6.7-7.6 10.4-4 9.6-5.8 19.7-6.3 30a289 289 0 0 0-2.6 56.1c-4.5 4.3-6.8 8.6-7.6 15a41 41 0 0 0-9.4 0 119 119 0 0 0-5.3-36.7l-6.4-16.6c-2.2-4.8-5-10.3-9-13.7-2.6-2-6-3.2-9-1.6-3 1-4.6 4.8-4.7 7.8.4 6.2 2.3 12 5 17.5l6.3 23.3c2.2 8 2 16 2.2 24-4.8-2.4-9.6-4.5-15-5.3a32 32 0 0 0-15.6 1.7c-2-2.5-3.8-4.5-6.3-6.3a79 79 0 0 0 10.2-27c1-6-3.4-12-8.4-14.8l3.8-24.2c.6-4.4 1.7-8.6 1-13-.5-3-1.3-5.8-4-7.5-4.5-3.5-11.3-1.7-14 3-2.8 5-3.6 11.6-4.7 17.3-2.2 15-6.3 29.3-12.3 43.3L123 238c-18.2-47.5-41.7-92.7-72.2-133.4l-4 .1c-.5 1.5-.4 3 .3 4 25 49 43 102.3 58 155A27 27 0 0 0 94 268c-6.8 4.7-10.6 12-13.4 19.5-6 16.8-6 36.5-4 54 1.2 1 2.7 2.7 4.3 2.3l41-13.2L146 524.8l.5 4.5c-3.5-14-7.7-27.8-12.3-41.5A391 391 0 0 0 82 382a270 270 0 0 0-63.6-63.6v-302z" class="B"/><path d="M66 135.8c2 2.5 3.5 5.3 5.2 8 24.5 39.8 42.8 82 57.6 126.3a33 33 0 0 0-17.6-6.6c-2.2-6.5-3.7-13-6-19.6L66 135.8z" class="C"/><path d="M259.6 185.5c2 1.3 5 2.7 4.2 5.5 0 10-6.6 20.5-12 28.7l-8-1.3a108 108 0 0 1 5.3-22.9c1.2-3.3 2.8-7.2 5.4-9.6 1.2-.7 3.3-.4 4.7-.3z" class="D"/><path d="M378.7 193c-25 27.2-47.7 56.6-67.2 88a45 45 0 0 0-6-15.2c1-1.7 2.2-3.3 3.5-4.8a372 372 0 0 1 61.2-61.8c2.8-2.2 5.4-4.5 8.6-6.3z" class="C"/><path d="M382 197v169c-15.2 8.8-29.7 18.8-43 30.3-1.7-3.2-3-8-6.4-10-5.6-1.5-12.4.6-17.6 3-6.8-2-13.4-.1-20.2 1.4-4.7 4.4-10 8-14.4 12.7-17.6 17.2-30 37.8-40 60 11-43 25.8-85.3 45-125.3 4 2.4 7.8 5 11.6 7.7 2.5 1.8 6.2-.2 6.7-3 4.6-15.3 8.8-31.8 9-48 .2-2.6-.8-6.2.8-8.4a550 550 0 0 1 66.5-87.5l2-2z" class="B"/><path d="M160.6 205.3c.8 3.7 2.4 7 1.6 10.8l-3.6 26c-3.3 13.7-8.5 27-15.6 39l-3.5-.2-5.5-6 12.7-35.8 3.7-19.3c1.4-4.6 2-11.2 5.5-14.6 2-1.5 2.8-1 4.7.3z" class="D"/><path d="M243.4 224c2.4.3 4.8.7 7.2 1.2a246 246 0 0 0-2.4 46.2l-7.2 3.3c-.8-17 1-33.7 2.4-50.7z" class="B"/><path d="M193 229c2.8 1 5 4.2 6.5 6.6 10.7 17 14 39 13.7 58.6l-10.5 3.7-.5-19.8c0-2-.1-3.7-.6-5.5l-12-39.6c.8-2 .8-3.8 3.4-4z" class="D"/><path d="M161.4 250.5c3.4 3 4.8 6 4.3 10.5-1 8.2-5.5 16.2-9.4 23.4a46 46 0 0 0-8-2.7 139 139 0 0 0 13.1-31.3z" class="B"/><path d="M275 257.3c8-2 15 2 20.5 7 7 6.4 10 15.5 10.6 24.6a114 114 0 0 1-5.8 42.4C299 315 295 296 284 283a32 32 0 0 0-25.6-12c4.6-5.5 9.2-12 16.6-13.6zM107 270c6.7-.4 13.7 2 19 6 1.8 1.7 3.2 3.8 4.8 5.7-9.4-.1-18.7 3-26 9a76 76 0 0 0-18.2 23.8c-2 3.3-2.8 7-4.8 10.2-.3-11 .7-23 4.7-33.3 2.2-4.8 3.5-9.5 6.6-13.4a21 21 0 0 1 14-8zm151 5c6.2-.5 12.6 2 17.7 5.3 7.3 5.8 11.6 14.6 14.5 23.3 2.2 6.8 4 14 4.6 21-4-10.3-8.7-20.3-15.3-29.2a77 77 0 0 0-21.5-20.5zm-5 1.8c4.3 1.5 8.4 5.2 12 8 15.2 13.7 24.2 33.4 31 52.4l-31.7-17.6-18.3-7c-.8-4.5-.7-8.5-3.4-12.4-2-2.8-4.6-4.2-7.6-5.5.2-4.6 1.4-9.8 5.4-12.7a45 45 0 0 1 12.8-5.5zm-122 8.6C113.5 297 97.8 311 85 328c4.5-12.5 11.6-26.2 22.4-34.4a38 38 0 0 1 23.5-8.1zm5 2.2c8.6-.8 20 1.6 25.4 9-5.7 4.2-8 10.2-8.3 17.2L84.6 336c8-13.2 19.2-24.7 31.2-34.3l20.3-14.2zm41 9.7c7-.2 14.2 3.2 20.2 6.7-4 7-6 15-7 23a161 161 0 0 0 1.4 43.3c-8.5-10.5-17-21.4-23.7-33.2a58 58 0 0 1-8-21 18 18 0 0 1 3.1-11.9c3.4-4.2 8.5-6.7 14-6.8zm45 1.7a19 19 0 0 1 12.3 2.8c2.5 1.7 4 4.4 4.4 7.4 1 7.4-1.2 14.4-4.6 21-4 7.4-8.8 14.4-14.6 20.4L201 370.3c3.7-14.8 5.6-30 5-45.3l-2.7-20.4c6-2.5 12-5 18.8-5.6zm-22.6 9c5.2 21.2 2 42.4-3 63.3l-2-21a81 81 0 0 1 5.1-42.2z" class="D"/><path d="M245 319.4c6 1.6 11.4 4.4 17 6.7l.7 2.6-2-.6 1 1.6-1.6-.3.5 2.2-1.6-.1.7 2.2-1.7-.3.7 2.2-1.7-.2.6 2-1.6-.2.6 2-1.6-.1.5 2H254l.4 1.7-1.2.3c-.3 1.8-1.7 3.2-2 5l-.8.2c.2 2-1.7 3.5-2.3 5.4-22.7 44.8-40 92-51.8 140.8.4-3.7 0-7.2-.1-11l1.2-69c.1-1.4.2-2.3 1.3-3.2a169 169 0 0 0 32.6-48.4c4-7.8 5.4-17 8-25.3 1.4-6.4 4.2-12.4 5.7-18.7zm-91 1a78 78 0 0 0 11.2 25.4c6 9.4 12.7 18.6 20 27.3l-3 29.4c-.1 1.8-1.4 3-1.8 4.6l-1.2 27.4-1.7 50.5c-.3-10.4-2-20.7-3-31a1073 1073 0 0 0-24.8-132.3l4.4-1.4z" class="B"/><path d="M144.3 323.5c10.3 40 18 80.7 23.6 121.6 6.6 50 9.5 100.4 9 150.8h-26l1-34.8c.2-78-8.6-155.8-24.8-232l17-5.4z" class="C"/><path d="M18.4 327.4c2.5 3.8 5.3 7.4 8 11 30.8 43.2 54.2 91 70.7 141.4 1 3 2 6 2.7 9-.1-5.4-1-11-2-16.2.7 1 1.3 2 1.6 3 6 17.2 11 34.6 15.4 52.2.7 3 1.7 5.6 1.6 8.6-2.3-8.3-6.3-16-8.7-24.2l-1 3.5-1.6-4c-7.4-14-16.4-28-27.2-39.8a124 124 0 0 0-57.7-36.5l-1.7 1 .1-109.4z" class="B"/><path d="M264.7 327.2c5.6 2.6 11.5 5.2 16.7 8.6a664 664 0 0 0-46 126.4l-8.8 37.6a460 460 0 0 0-19.1 96c-7.7.1-15.5-.7-23.3-1.2 5.4-48.4 14.4-96 28.3-142.7 13-43.3 30-85.2 52-124.7zm-233.7 8c32.2 26.8 56.4 60.5 75 97.8a426 426 0 0 1 29.2 76l10.8 44c1.2 5.4.7 10.6.8 16l-.5 26.7h-16.7a277 277 0 0 0-13.2-59c.1-3-1-5.6-1.6-8.6-4.3-17.6-9.5-35-15.4-52.2-.3-1-1-2-1.6-3-1-2-1-4.7-1.4-7A180 180 0 0 0 88 439c-14.3-34.6-32-67.8-53.6-98.4l-3.5-5.4z" class="C"/><path d="M233 344.7a171 171 0 0 1-47.4 72.9c.4-3.6.1-7.6 1-11L199 384a21 21 0 0 1 3.9-6.1l20.8-21.3a143 143 0 0 0 9.4-11.8z" fill="#ffe000"/><path d="M382.3 372.5c-.3 1-1 2-2 3-12.7 12.5-24.3 26-35.3 39.8-1.2-4.4-2.5-8.7-3.8-13 12.7-11 26.4-21.2 41-29.6z" class="C"/><path d="M188.3 377l5 6.3c-2.2 4.4-4.7 8.7-7 13.2l2-19.5zm193.7 3.5v215.3h-98c-3.4 0-6.7-.1-10 .2 1-1.3 1.2-2.3 1.3-4 2-27 8.5-53.5 18.4-78.5a356 356 0 0 1 32.9-63.2 306 306 0 0 1 13.3 49.7c.1 1.5 2 2.6 2.8 3.7.8-1 1.4-2 2-3a187 187 0 0 0 2-78.8l35.3-41.6z" class="B"/><path d="M330.3 391.6c8.7 17 12.8 35.5 14 54.4 1 13-.6 26.3-1.6 39.3a305 305 0 0 0-14.3-45.7c-6.7-16.4-15.8-31.7-27.5-45 5-.3 10-.4 15-.7 4-.6 10.2-3.8 14.3-2.3zm-34.6 5.4a94 94 0 0 1 11.1 13.8c-12.2 15-22.4 31.8-31.4 48.8-20.6 42-30.2 88-33.4 134.4l-29.5 1.8c2.8-29.6 9-59.2 17-87.7 6-20 13.7-40 23.8-58.5 10.7-19.6 24.7-39 42.4-52.6z" class="C"/><path d="M309.7 415c1.3 2.2 2.7 4.4 3.8 6.8a284 284 0 0 0-51.3 86.7 292 292 0 0 1 19.3-48c8.3-16 16.8-31.4 28.2-45.5zM193 418l-.7 83c.1 4 .7 8 .1 12-1.8 10.7-4.7 21.4-5.7 32.2-4.4-38-4-77-2.4-115.2.1-1.5 0-3 .4-4.5 2.7-2.6 5.7-5 8.4-7.6z" class="B"/><path d="M316.7 427.5l6.5 14.3c.4 1.2 1.3 2.5.4 3.7L302 483c-17.2 34-29 70.6-31.6 108.8l-22.4 1.3c1.4-30.5 10.8-61.4 22.6-89.4a277 277 0 0 1 43.5-73.6c.8-1 1.6-2 2.6-2.6z" class="C"/><path d="M18.4 439.8a257 257 0 0 1 28.3 29.5c29.3 36.3 48.4 80.3 55 126.4-27.7-.1-55.4 0-83 0v-156z" class="B"/><path d="M33.7 446.2a133 133 0 0 1 54.6 48.4 244 244 0 0 1 28.3 59.5c4 13.4 5.5 27.7 7.3 41.6-5.7-.1-11.6.2-17.3-.2a277 277 0 0 0-29-89.1c-10.8-20.4-24.5-39-40-56l-3.7-4.3z" class="C"/></svg>