<svg xmlns="http://www.w3.org/2000/svg" viewBox="0 0 400 610" width="533.3" height="813.3" xmlns:v="https://vecta.io/nano"><style><![CDATA[.B{fill:#d96038}.C{fill:#ffe000}.D{fill:#858585}]]></style><path d="M0 0h400v610H0V0z"/><path d="M18.4 15H41c1 5.5 3.7 10 6.2 15 3.3 6.4 8.4 11.6 14.6 15.4C72.3 52 84 53.5 96.2 55c17 1.7 34.8 1.7 52 1.6.2 4.6.3 9 2 13.3 2.5 6.7 9.5 12.2 16.7 12.3l30.3 1.8c2.3 5.3 5 9.4 9.7 13l29 1c3-.1 4.5 1.6 6.8 3 11.3 7 24.8 10 38 8.7 12.2-1.5 24-5.4 33.5-13.4 21.3 7.8 46.4 8.8 67.6.4v189a77 77 0 0 0-30.1-7.3c-11-.3-21.3 2.6-31 7.4 1.7-3.8 3.3-7.6 5-11.4l-.7-2.6c-8-.5-16.4 1.8-24 4.5a60 60 0 0 0-32 28.2c-8.7-5-18-7.4-27.5-10.5-3.8-1.3-8.3-.6-12 0-6.3 2.8-11.7 7.8-17.8 11l-15.3 7.5c-5 2.5-8.8 6.6-12.2 11-3.4 4.6-4 10-4.3 15.4-2.8-4.7-6.5-8.3-10.4-12-1.2-2.7-1-6.4-1.8-9.3-1.7-10.4-5.4-20.7-9.5-30.3-6.8-15.7-16-30-29.2-41-1.8-1.7-4-1.3-6.2-.7-.5 3.2-.4 6.4-1 9.6-.6 4-2 7.8-3.4 11.5a116 116 0 0 0-31.2-14.7c-7.5-2-15-3.4-22.8-3.6-1.7.1-3-.4-4.2 1.2-.6 3.3 1.6 6.7 2.4 10a49 49 0 0 1 1.2 24.8c-2.5 11.7-1.7 23.5 2.3 34.7 2.8 8.4 7.2 16.3 15.2 20.7 7.2 3.7 15.3 6 23.2 7.8l21.8 5.3-6 18c-12.6-7.7-28-11-42.7-11-7 .2-14.3.4-20.8 2.7-.1 6.4 6 12 9.4 17.3-20.4 9.3-34.5 25.7-46.5 44 1.3 1.7 2.4 3.4 4.3 4.5 12.8 8.2 27.6 12.8 42.7 14 18.7 1.6 38 1.6 56-3.7 0 2.3.1 4.7.3 7-9 5.2-17 12-24 19.5l-13.6 15.4c-1.8 2.2-3.2 4.8-6 6-2.7 1.5-5.6 1.8-7.6 4 .7 1.5 1.7 3 2.6 4.3l29 3.3-23.2 30L67 549c1.6 1.2 3 2.5 5 3l19.5 5.3a64 64 0 0 0 14.5 2.2c13 .8 25.6.1 38-3.7 6-1.7 11.5-4.2 17.2-6.7 13.5-6 26.7-12.8 38.8-21.2-2.5 8.5-5.5 15.4-10 23 1 1 1.7 2.8 3 3.4a74 74 0 0 0 22.2-12.1 85 85 0 0 0 31.9-42.3l14.6 3.8c-1.2 14-.1 30.3 6.7 43 3 5 7 11 12.6 13 5.2-6.7 8.7-14.6 13-22a92 92 0 0 0 36.6 24.6c16.3 6.4 34 9 51.3 10.3v21H18.4V15z" fill="#fff"/><path d="M48.8 17.3l223.8.4c-5 7.2-10.8 13.8-18 19A86 86 0 0 1 231 49.1c-6 1.8-12 1.5-18 1.6l-51 .5a51 51 0 0 1-7.7-.6c-7-1-14.2-.6-21.3-.7-18.3.1-38.3 0-56-5-13.5-4-24-14.2-28.2-27.6zm228.2.5l102.7.1v22l-9.8 2c-7 1.4-14.8.5-22 .5-8.8-.3-17.8.2-26.6-1-7-1-14-1.2-21 .2-4.7 1-9.4 2.4-12.7 6.2-3 3.6-5.4 8.2-3.6 13 1.5 4.7 5 6.8 9 9.5-2.7 4-5.3 8-10 10-5 2-9.4 1.3-14.4.1.6-4.4 1.2-8.5-.1-13-1.5-4.6-5.8-7.7-10.5-8.3-4.5-.6-9.5.8-14 2l2 3c5.7-.4 10.6-1.6 16 .8 2.3 1.4 3.5 4.6 3.7 7.2.4 4.3-2.4 8.7-5.4 11.5-6.3 5.6-15 8-23.3 9-7.8 1.7-14.8 3.5-22.8 1.2-5.5-1.3-8.8-8.2-11.3-12.8 5.6-2.8 11-4.6 15.3-9.3C223 67 225 61 226 54.5a72 72 0 0 0 27.8-12.3 97 97 0 0 0 23-24.3zm102.8 25.8v47a87 87 0 0 1-42.3 4.6c-6-1-12-3-18-4.6a49 49 0 0 0 9.6-11.6c2.7-4.7 4.4-10 7.3-14.7 1.3-2 3.5-2.4 5.7-2.6 6.8-.6 13 8 8.6 14-3 5-8.5 4-13.6 5a6 6 0 0 0 1.4 3 14 14 0 0 0 17.4-9.8c1-4.7-1.6-9.6-4.7-13-3.3-3.7-9.4-3.7-13.7-2.3-5 2-7 7.7-9 12.4-9 .4-19.4.6-28.2-2.2-4.3-1.6-9.5-3.8-11.6-8.2-2.2-4.6 1-9.8 5-12 9.2-4.2 19.3-5 29.2-3 12 1 24.2.5 36.2 1 7.3.5 13.8-1.6 20.8-3zM154.3 55.2l68-.6c-1 5-2.4 10-6 13.8-4 4.5-9 6-14.4 8-3 0-6 .4-9.2 1.2a45 45 0 0 1-25.2-1c-4-1.3-7.6-3.4-10-7-3-4.3-3.2-9-3.4-14.2zm143 17c3.7.3 7.2 1.7 11 2.2l18.5 1c-3 4.7-6 9.6-10.7 12.6l-9.3 5.8a48 48 0 0 1-34.7 9.6 53 53 0 0 1-25.8-8.6c3.7-1.4 7.7-2.6 11.2-4.4 3.6-1.8 6.3-4.5 9.2-7.3 3.2 1 6 1.8 9.4 2 5 .2 10.2-1.7 14-4.8 3-2.3 4.6-5.4 7.2-8z" class="B"/><path d="M129.4 79.5c3.3-1 6.7-.3 9.8 1.2 4.8 2.3 9.6 4.5 14.3 7 4 1.8 7.3 5.7 9.6 9.4 2 3 2.8 6.4 4.8 9.2 3 2 6.7 3 9.6 5.4l21.7 18.3c4 3.6 8 7.5 8 13.2.3 2.7-.6 4-2.7 5.6a79 79 0 0 1-26.1 11.8L161 164l-19.4 1.3c2.6 3 3.2 6.3 3.7 10.2 6 1.7 12.6 2.3 19 3.4 3 .4 6.7 1.4 9.8 1 12.6-2 23-8.2 32.6-16l4 .7-.7 4c-10.5 8-23.4 15-36.7 16.7-7-.6-14-2-21-3-3.2-.3-6.2-1-9.2-2-2.3 1.4-4.6 3-7 4.3-3.6 1.2-7-1-10-2.6-1.5 2-3 4.4-5.2 5.6-2 1.6-5 .2-7.5-.1a58 58 0 0 1-15.2 16.3A48 48 0 0 1 74 213c-10 1.4-19.7 0-29.5-2-2-.6-1.7-4 .5-4.2 12.4-.5 24.7-1.4 37-2 1.8-.1 3.5-.1 5.2-1 8.5-4 15.3-10.4 20.6-18.2-2.6-3-4-6.5-3.2-10.6.8-4 3.8-6 6-9.2-4 3.5-7 8-11 11.4A43 43 0 0 1 73 190l-27 1.7c-5.4-.2-12.3-1.5-16.3-5.4-2.7-2.6-1.5-7-.1-9.8 2-4.7 6-7.6 6.5-12.5 1-4.5.4-9.4 2.3-13.7a49 49 0 0 1 14.1-17.6c-1.7-4.8-3.3-9.4-3-14.6 0-8 3.7-16.4 10-21.6 2.5-2 5.3-3.7 8.6-2.8 5.5 1.5 9 6 13 9 4.7 2 9 1.2 13.8 1.6 5.2.8 9.3 4.7 12.6 8.5 1-5.4 2.8-11.3 7.8-14.4 3.5-2.3 6.6-4.8 8-8.8 1.5-3.8 2.2-7.8 6-10z"/><path d="M132.7 85.2l18.5 8.7c4 2 5.8 5.5 8 9-5.2.4-10.2.6-15.2 2.2-10.3 3.3-19.5 9.5-24.7 19.2-1.6-2.6-3.3-5.2-5.2-7.6.6-3.4 1-7.6 3-10.5 3-3.8 8.7-5.8 10.7-10.3 1.7-3.5 3.2-7.2 4.8-10.7zm-65 15.2c4.5 1.7 7.7 7 11.8 9 5 2 11.3.4 16.3 1.8 2.8 1 5.2 4 7 6.2-1.8 4.3-1.8 8-1 12.6-5.2-3-10.7-5.4-16.8-5.8-9.3-.5-18.6.4-27 5-1.3-5.3-2.5-10.2-1.4-15.6 1-4 2.8-8 5.8-11 1.4-1.4 3-2.6 5.2-2z" class="B"/><path d="M158 109c4 1.2 8 3.3 12 4.8 4.8 1.7 7 6.5 11 10 4 4 9 5.3 12.8 9.3 3 3 5 6.5 7 10.2-9.5 7.7-23 11-34.7 13.3-11.3 2.5-22.6 2.3-34 1.4l-7.7-22.4c-.6-1.6-1.3-3-.6-4.6 2.6-7.5 8.8-13.8 15.6-17.6a47 47 0 0 1 18.6-4.4z" class="C"/><path d="M108.2 119.8c4.4 1.8 6 6.2 8 10.2 5.2 10.8 8.4 22 12.4 33.3l-4.8 5.7c-3-1.7-6-2.7-9.6-3.4-3.6-10-4.8-20-6.3-30.4l-1.2-11.3c-.1-1.7.8-2.8 1.6-4.2z" class="B"/><path d="M138.5 121.6c5.8-2.7 13 1 13.7 7.4.5 4.3-2.5 7.3-5.7 9.5-4 2-10.4 1-12.6-3.4-2.7-4.4-1-12 4.5-13.5z"/><path d="M142 124.5c2.7.7 4.3 3.2 6 5.2-1 1.8-1.5 4-2.8 5.6-2.7 2.4-7-.6-8-3.4-1.7-3.4 1.3-7.2 5-7.3z" class="B"/><path d="M165.5 126.6c2.8-1 6.4-1.5 9-.1 3.6 1.8 6.7 4.4 7.4 8.5 1.6 6.6-2.7 14.8-10 15.5-6.7 1-13.6-3.5-14.4-10.5-1-6 2.3-11.3 7.8-13.5z"/><path d="M166.4 130.5c3.3-1.4 7.7-1 10 2 2.5 2.8 2.4 7.5.6 10.6-2.4 4-8 4.6-11.6 2.4-1.7-1.2-2.7-3.7-3.5-5.6-1.7-3.6 1.2-7.8 4.3-9.4z" class="B"/><path d="M85 131c6.5.7 14 3.7 18.2 8.8 1.8 6.6 2.6 13.5 4.5 20-5 5-9.4 10.8-15 14.8-6.5 4.5-13.6 8.4-21.6 8.8l-24 1.7c-4.7.3-9-1-13-3.2 1.8-4 4.3-7.6 6.8-11.3 2.4-3.5 2-8.4 2.8-12.6a25 25 0 0 1 9-16.6c3.4-2.6 7-5.4 10.7-7.3 6.6-3.4 14.4-3.7 21.7-3.3z" class="C"/><path d="M83.6 135c2 1.6 4.6 3 6.4 5 1 4.6 1.2 9-3 12.3-2.5 1-5.5.8-8.2 1-2.4-2-6-4-6.7-7.4-.4-2.5-.1-5.8 2-7.6 2.3-2.4 6.3-2.7 9.4-3.4zm179.4 2.6c5.2-.8 9 3.8 12.2 7 4.4.3 8.5.3 12 3.2 3 2.4 3.7 5.5 4.6 9 4.3-3.6 9.6-8 15.2-9.3 5-.7 7.8 2.4 11.4 5 5-.1 10.2.7 15.2 1.4 3 4 5.3 8 5.5 13 .5 6.8-2.2 12-4.6 18 3.6 3.2 9.5 4.6 11.7 8.8 2 6 2.6 12.4 4.7 18.3a118 118 0 0 0 5.9 12.1c1 2 2.2 4.3 2.3 6.7-.5 1.3-1.6 3.3-3 3.5-15 2.8-29 6-44.2 2.7-8.6-2-14.8-7-21.3-12.6-2.5-2.2-5.4-3-8.5-3.8 1.4 2.6 2.4 5.3 2.4 8.3.2 3-1.6 5.8-3.6 7.8-1.7 1.8-5 2-7.4 2.6 5.7 3.7 12.2 6.3 18.7 8l35.3 6.2c5.6 1 11 4 15.6 7.2 1.4 1 1.7 2.4 2.4 4l-4 1a54 54 0 0 0-14.5-7.2l-37.8-6c-6-1-12-5-17-8.4-4.4-3-6-7-9.2-11.2l-1.2 1.4-8.5 1c-2.7-.6-5-2.5-7-4.2-10.5 2.6-21 6-32 3.3l-38-1.6c-1.8-.2-3.3-.7-2.7-2.8.5-3 3.5-2 5.7-2.3 14.6.8 29.4.5 44 2 6.8.4 14-1.4 20.7-3-.7-6 2.3-12 8.5-13-5.3.7-10.7-.6-16 .2-9.6 2.6-20.2 5.6-30.2 4.7-7-1-14-2.6-18.3-8.8-2.5-3-3-6.2-3-10 6.2-5.4 13.6-9.5 20-14.6 4.7-4.3 8-9.2 14-11.8l18-5.2c1.3-.3 1.7-2.5 2-3.7 1.5-6 3.2-12 8-16s10-9.7 16-11.3z"/><path d="M83.2 138c1.2 1 2.8 1.8 3.5 3 .6 2.7-.6 6-1.3 8.5-2.4-.4-6.2-.2-8-2-1-1.8-2.3-5-.5-6.6 1.7-1.5 4.2-2.2 6.3-3zm180.8 6c3.2 1.5 5.7 4.6 8.7 6.2 3 1.3 6.8 1.7 10 2.3 4.5 6.4 1.4 13.3-1.2 19.7-2-.1-2.7-1.5-4-2.7a29 29 0 0 0-17.5-9.8c-5-.6-9.5 1-14.2 2.7 1.6-3.5 3-7 6.2-9.4 3.8-3 7.5-7 12-9zm45 10c2.5 1.4 4.6 4 7.2 4.8 4.3.7 9-.2 13.3-.3a31 31 0 0 1 2.5 9.5c.3 4.3-1 8-2.3 12-4.5-2.8-9-6-14.5-5.7l-24 1-2.5-3.4c2-7 7.2-10.6 12.7-14.8 2.2-1.5 5-3.3 7.7-3.2z" class="B"/><path d="M67.2 156.2c5.3-.7 10 5 11 9.7 2 5.3-.7 11.7-6.4 13l-10.7 1c-4.2-1.5-7-6.5-7.5-10.8.1-3.4 1.6-7 3.6-9.7 1.8-3 6.8-2.7 10-3z"/><path d="M74.4 165.5c1.4 4.4-1.6 6.8-3.8 10.2-2.5.3-5.2 1-7.6.7-3.6-1.7-6.3-6.5-5.3-10.4 2-7.2 14.2-7.2 16.7-.5z" class="B"/><path d="M259 166.2c6.7 1.2 13 4.7 16 11l-21 30c-3.4-.6-6.7-1-10.2-1-5 .3-10 2.4-15 3.6-8 2-16.8 3.7-25 2.7-5.8-1-11-3.4-13-9.3l16.2-11c3.3-2.2 5-5.5 8-8 6.7-7 19.4-6.4 27.2-11.8 4.7-3.2 10.8-6.3 16.6-6z" class="C"/><path d="M135 166.8c5 1 8 7.5 4.5 11.7-2.5 3-7 1.7-10.5 1.7-1-1.7-2-3.5-2.7-5.3-.1-4.4 3.8-9.8 8.8-8zm-15.2 4c1.2 2.4 3.8 5 2.7 7.8-.6 2.6-2.4 4.5-4.7 5.8-2 0-4.2-.5-6.2-.8l-3-5.5c-.3-3.6 2.3-6 5.3-7.3 2-.5 4-.1 6-.1z" class="B"/><path d="M253.2 173c4.5-1 9.5 2.3 11.3 6.4 1 3.2-.3 8-3 10-3 1.4-7.4 3-10.5 1.3-4-2.3-6.4-7.3-5-11.8 1-2.8 4-5.2 7-6z"/><path d="M256 176.8c4.2.2 5.5 4.2 4.4 7.7-.8 3-3.4 4.5-6.4 4-3-.7-3.5-4-4.7-6.3 2-2 3.4-6 6.8-5.3zm30.2-.8a50 50 0 0 1-1.4 11.7l-6 23c-.6 2.2-1 4.6-2.3 6.5-3.3 1.3-7 1.7-10.6 2.4-2.4-3-4.7-5-8-7 4.4-8.2 10.2-15.8 15-23.7 3.7-5.3 6.3-11.2 13-13z" class="B"/><path d="M325 185c4.4 4.3 10 7.6 15 11.2l4.7 17c1.5 6 4.8 10.2 7.2 16-12.7 2-24.6 4.3-37.6 2.5-4.2-.7-8-3-11.2-5.5-6.3-5-11.7-9.8-19.6-12l8-32.7c6.8-.3 13.7-.8 20.5-1 4.6-.4 9.5 2 13 5z" class="C"/><path d="M225.4 182.5c3-.7 6.6-.7 9.3.8 5.6 3.5 8.5 10.5 5.2 16.7-1.7 2.8-5.6 5.7-9 6.4-5 .3-11.6-1.5-13.6-6.8-3.2-6.5.8-15.4 8-17zM303 184c3 .6 7.6.7 9.8 3.2 3 2.6 3.2 7.3 2.2 10.8-1.6 2-4 3.4-6 5-3-.6-6.3-.8-9-2.2-2.3-1.6-3.4-5.2-3.7-7.8a13 13 0 0 1 6.5-9z"/><path d="M227.5 185.6c4.8-1 10 3.5 9.8 8.4.6 5.8-6 11-11.5 8.2-2.8-1.6-5.7-4.8-5.5-8.2-.2-4 3.8-7.3 7.2-8.4zm81 2.4c1 1.3 2.4 2.6 3.2 4 .7 3-1 7-4.6 6.7-3.4.1-8-4-6.6-7.5 1-3 5.5-2.7 8-3.3z" class="B"/><path d="M320.2 203.3c3.3-.4 8 .3 11.2 1.4 3.4 2 6.4 7.5 5.8 11.4-.7 3.8-2.6 8.3-6.3 10-2.8 1.7-7 .6-10 .2-4-.5-7.5-3.4-8.5-7.3-1.4-6 2-13.3 7.8-15.6z"/><path d="M321.3 207.3c4-.4 8.8-.5 10.7 3.8 3 4.7-.1 10-5 12-2.5.2-5.6.1-7.8-1.2a11 11 0 0 1-3.2-7.7c.4-2.8 2.7-5.4 5-6.8zm-64.5 9.7l5 3.6c0 2.4.7 5.4-.3 7.6-1.5 3-5 2.8-7.6 3.7-1.6-1.3-3.4-2.5-4.7-4-1.6-2.8-1-7.2 1.7-9.2 1.8-1 4-1 6-1.6zm18 4.4c3 1.2 6 4.3 5.8 7.7-.6 2.2-2.2 4-3.4 6l-5.5.7c-1.8-1.2-4-2.4-5.3-4-.6-2-.7-4.2.1-6 1.4-3 5.2-4.6 8.3-4.2z" class="B"/><path d="M68.6 255.2l3.2.4A88 88 0 0 1 106 268c4 2.2 8 5 12.3 6.7 2 .7 3.5.1 4.7-1.6 3.5-5 4.8-11.7 6-17.7 13.5 13.7 23.2 30.6 29 49l4.4 19.2c-2.8.7-5.6 1.4-8.2 3l-9 5.8-3.3 1.2 4.8-14.3c1.7-8 .7-16.6.1-24.7-1.2.5-3.6.1-3.3 1.8-.5 5 .5 10 .2 15a56 56 0 0 1-4.5 18.7l-17.6-18 7.4-10c4.2-8 5.2-16 6.6-24.8.2-2.3-.8-3.4-2.7-4.6-2.6 8.8-3 18.4-6.7 26.5a42 42 0 0 1-7.1 10.3l-10.5-11.8c-5.6-6-10.3-13-15.4-19.5-4-5-6.8-10.2-12.2-14-.2 2.4-.8 4 1 6l25.2 31.3a55 55 0 0 1-18.8-2.7c-3.5-1-7.6-3.7-11.3-2.7.3 1.7.4 3 2.2 4a58 58 0 0 0 30.5 4.7l19 20.8a137 137 0 0 1-35-7 35 35 0 0 0-7.8-1.7 17 17 0 0 0 0 3.2c2 1 4.4 1.8 6.6 2.5 12 3.4 24 6 36.5 6.6 4.8-.3 7.5 4.3 10.7 7l-10.4 11.2c-9.7-3.2-19.7-5-29.5-8-7-2.2-14.3-2.8-19.5-8.8a51 51 0 0 1-10.2-21.9c-2.6-11.4 2.2-24.2 2.2-35.8-.2-6-2.2-12-3.8-18zM317 278.8l-6.5 16c2 1 3.2 2.3 5.5 1.6 7.3-2.3 14-8 22-9.4a59 59 0 0 1 37.3 4.3L348 317l-17 19c-7.7-4.3-16-7.6-24-11.3 14-12.7 31.7-22.2 49.5-28.6l-2.2-3c-1.6 0-3.3.6-4.8 1.2a151 151 0 0 0-42.5 25.4c-1.5 1-3 2.7-4.8 3.3-1.6-.1-3-.3-4.7-.5-1.2-10 0-20 6.2-28.3l-.3-3c-1.2.6-3 1.2-3.6 2.5a64 64 0 0 0-5.2 11.9c-1.7 5.2-1.6 10.4-1.3 16-4.4.6-7.7 1.8-11.5 4-.2-4-.3-8.2-1.7-11.8-1-2.5-3.3-4.5-5-6.3a57 57 0 0 1 11.4-14 67 67 0 0 1 30.6-14.6z" class="D"/><path d="M382 293.5v174.8c-11.8-10.7-25.2-19-39.5-26 .8-3.6 1.4-7.4 3-10.8 3-7 5.5-14.2 7-21.7.4-3 1-6-.7-8.6-4-5.7-9.7-8.2-16.2-9.8 1.6-2.2 3-4.3 4-7 3.4-9.6 2.2-20.6 1.3-30.5a41 41 0 0 0-4-14.4c13.7-17 29.6-31.2 45.3-46z" fill="#fff"/><path d="M242.2 299.8c9.2 3.2 18 5.6 26.6 10.4 3 1.8 6.3 3.2 6.8 7 1.2 7.5.4 15.4-.3 23-4-1.7-8.8-4.4-13.3-4.3l-12 .6c-2 .2-3.3 1.7-4.6 3a67 67 0 0 0-10.2 16c-.8-5.6-1.4-13-5-17.5-3.8-3.7-8.8-6.2-13-9.4-3.7.3-8-.1-11.4 1.2-6.7 5-11.4 12-19 16.4-.4-4.6-1-9.8.2-14.3 1.2-5 4.6-9 9-12 6.8-5 14.4-7.2 21.7-11.3 4.6-2.6 8.8-6 13.4-8.6 3.7-2 7.5-1.4 11.3-.1zM154 326.3l-3 4.3c4-1 8-2.2 12-.5 9.3 3.3 14.2 11.5 18.5 19.8l-15.7 16a76 76 0 0 0-14 20.1 24 24 0 0 0 .5 18.6c-4 1-7.6 2.3-10.4 5.4-5 5.4-9 12.2-12.8 18.6l-12.2-8.2c-2-1.6-3.8-3.5-3.6-6.2.1-3.8 1.5-7.7 2.7-11.3l8.5-25.3c2.5-8 4.8-17 8.6-24.6 1.4-2.8 3.3-5.3 5.4-7.6 4.3-4.6 7.8-9.6 12.3-14l-5.5.7 9-5.7zm139 1c8 1 15.8 4.6 23 7.7 5 2.3 10.2 4.3 14.7 7.3 2.7 1.7 3 5.4 3.8 8.3 1.6 9.7 3 20.4.8 30-.8 3.3-2 6.2-5 7.8l-15.5 6.8c-2.5-.4-5-1.6-7.4-2.4 4.5-3.6 8.6-7 10-13 1-3.7-1.7-6.8-3.5-9.8-4.3-6.3-7.7-13.6-13.8-18.2-5.7-4.5-13.5-6.8-20.2-9.7.8-3.3.5-8.4 3.3-10.7 2.7-2.5 5.7-4.6 9.6-4zm-77.5 6.3c3.8 2 7.8 5.2 10.8 8.3 3.4 3.6 3.6 10 4.3 14.8a57 57 0 0 0-16 2c-5.5 1.5-9.4 7.4-11.8 12.2-2.8 5.6-2.7 11.5-1.4 17.6l-17.8.4a52 52 0 0 0-6.6 21.9l-8.7.3c-2.7-2-5.6-3.7-8.2-5.8-4.5-3.7-6.2-10.2-4.3-15.6 1.4-4 4-8 6.5-11.5 6-8 13-15 20.3-21.7l8-6c7-4.6 12.3-12.2 18.7-17.3 1.8-1.6 4.7-.4 6.6.5zM254 341c5.4 0 11 .1 16 2.2l20 8.8c8.8 3.5 14.8 13.6 19.6 21.4 1 2.4 4 5.4 2 8-4.8 5.3-9.4 10.2-16.5 12.4l.8 6.2 5.5-3.2c4.2.8 9.5 1 11.4 5.6 1.4 4-1 8.6.3 12.6 1.4 3.3 4.8 5.7 6 9 .5 6.8-5 14-8 20-2 4-4.3 10.3-8.5 12.3-10.7 1.2-21 .1-31.4-2.5-4-1-6.8-4.7-9.5-7.5 7-3.4 13.8-6.7 18.5-13.2 3.8-5.6 3.8-12.2 1.8-18.5 3.8-.4 9.3.6 11.6-3 2.6-3.5.2-8.4-.7-12.2-.8 2.6-.8 8.3-4 9.3-4.4.5-9-.2-13.5-.4a48 48 0 0 0-10.1-22.4c-3-3-6.5-4-10.3-5.3 1.6-4.4 3-10.8 7-13.7 3.6-2 9-.8 13 .4 5.2 1.8 11.6 5 13.2 10.7 1.8 6.2 2.6 12.6 4.5 18.8 1.5-3.2 3-6 2.8-9.8a41 41 0 0 0-3.4-12.8c-2-5-7-8-11.7-10.3-5.5-2.7-12.8-4.5-18.7-2.5-5.5 2-7.6 7-10 11.8a40 40 0 0 0-12.5-13.7c2.8-5.7 5.6-11 10-15.7 1.5-1.4 2.8-2.8 5-2.7zm-25 21c5.3-.3 9.3 4.8 13 8 3.6 3 5 7.2 7 11.4l-35 6c-1.8.3-4 .6-5.7.3-2.5-1.2-2.8-4.2-2.8-6.7.2-6 3-12.2 8-15.6 4-3.2 10.6-3.2 15.6-3.5z" class="B"/><path d="M66 367.6c18.3-3 36.5 1.4 52.7 10l-5 14.8c-8.6-7-18-12.6-28-17-2.3-1.4-2.8 1.3-4.2 2.6 11.2 4.6 21.7 10.2 31 18l-1 3.4-18.4 3.3c-3.7 1-6.3-1-9.6-2.2-5.6-2.4-11.4-3.8-17.4-5.2a31 31 0 0 0 .1 3.6c5.8 2.3 12 3.3 18 6-8.8 2.4-17.3 5.2-25.8 8.4L43.6 419c-.4.8 0 1.7 1.2 2.6 5.5-1.4 10.6-4 16-5.7a380 380 0 0 1 48.5-11.9c-5 6.6-10 12.8-16.7 17.6-2 1.5-4.4 2.8-6.2 4.6a30 30 0 0 0-.1 3.7 55 55 0 0 0 21.1-17.1c.8 3 1.4 6 3.3 8.5 3.5 5 8.4 7.5 13.5 10.5-6 2-11.8 4-18 4.4-12 1-24.2 1-36.2.2-14.8-1-28.7-5.5-41.3-13 7.7-10.8 16.2-20.7 27-28.7 6.5-5 14.4-7.2 20.7-12.6-3-5-6.7-9.7-10.4-14.4z" class="D"/><path d="M256.2 386.2l-.6 32c-4.5 1.6-9 2-13.7 2.4l.5-32.3c4.8-.8 9.2-3 13.8-2zm3.4 1.5a29 29 0 0 1 5.8 6.8c2.5 4.4 3.2 9.4 4 14.3l-9.8 6.3.1-27.4zm-21.3 1l-1 31.7a32 32 0 0 1-13.1-3.9l.4-25.5 13.6-2.4zm-51 3.6c5.3-.6 10.8.2 16 .3-.3 5.5-.4 10.4 3 15 5 6.4 13.2 10.7 19.2 16 1 2.6 1 5.6 1.3 8.3a71 71 0 0 1-14 5c-3.4.6-6.6.8-9.7-1-7.5-4-12.3-10-18-16-1.5-1.7-3.2-3.4-3.5-5.8-.4-3.5.7-7.4 1.5-10.8 1-3.6 2-7.8 4.2-11zm33.4-.5l-.3 22c-3.8-3.8-8.2-7.6-11.2-12-1.6-2.5-1-5-.8-8l12.3-2zm107.4 3.6c3.6-.2 7.5 1.2 10.8 2.5 3.7 1.5 6 4.3 8.7 7l-11 38c-2.6 8.5-2.7 16-6.3 23.7-1.7 3.5-4.6 7.2-8.6 7.7-5 .4-10.2-1.4-15-2.4l-1.8-10.5c5.8-5.5 8.2-12 12.4-19 3-5.5 7.3-12 6.8-18.6-.2-4.2-4-6.7-5.6-10.2-.5-4.4-.1-9-.8-13.4l10.3-5zM156 409.2c2.7 2 5.6 4.6 9 5 4 .4 8 .4 11.8.5.4 1.7.8 3.3 1 5-4.2 5.7-8.3 12-10.7 18.6-1.2 3 .8 6 2.3 8.3 5 7 11.5 12.6 18.7 17.3 7 4.5 12 10 20.6 11.2-1.8 4.7-4 10.6-8 14-2 2-5.6.7-8 .3l-48.3-12.8c-3.4-1.5-8.3-2.8-9-7l-4-17c-1-3.6-2.7-7.5-3-11.3.7-3.5 2.8-6.8 4.4-10 3.4-6 7.2-13 12.3-17.7 3-2.8 6.6-3.3 10.5-4.2zm116.8 3.8c3 3 5.7 5.8 5.6 10.2-.5 5.2-4.3 10-9 12.5-6 3.2-11.5 7-18.5 7.7-6 1-13-1.5-16.7-6.6-2-3.4-2-8-2.4-12l18-.5c2.8-.2 5.2 0 7.6-1.5 5-3 10-7 15.2-9.8zm-91.2 10.4c6.8 7.3 13.8 15.4 23.6 18.5 7.4 1.8 16.4-2 23.2-4.7 3 4.4 6.2 8.3 11.4 10 5.6 2 10.7 1 16.4.8 2 1.2 3.3 3.4 4.8 5l-8 16-45-.5c-5.3.5-9.4-4.2-13.6-7-7.8-5-15-10.8-21.2-17.8-1-1.3-2.3-2.7-1.6-4.4 2-5.8 6.6-11 10-16z" class="B"/><path d="M341.3 449a111 111 0 0 1 34.8 22.9c2.2 2 2 4.4 2.3 7L380 499c-16.3-5.6-33-6.8-50-9-2-.4-4.7-.3-6-2-2.3-2.6-4.2-5.6-6.2-8.4 3.6-.4 7.4-.3 10.5-2.3 4-2.6 7-6.7 9-11 2-5.5 2.3-11.6 4.2-17.2zM126 452.4a118 118 0 0 1 5.6 17.7c-7 1-15 2.2-21 6 1.2.5 2.3 1 3.5 1.2 5.8-.2 12-3.5 18-2.8 2.5 1 4.6 3.2 7 4.7 3.3 2.2 7 3.4 10.7 4.4l18.6 4.8c-3.5 2.8-7.3 7.8-12 7.8-11.7 1-23.4 2-35 3.5 1.2.8 2.5 2.3 4 2.5 2.7.1 5.4-.4 8-.7l21.2-1.5-38 26.2c-6.2 4-13.5 7-19 11.8 2.4 2.8 4.6.4 7-.8 8-5 16-9.3 24-14l21-14.8a60 60 0 0 1-19.6 31.4l2.2 2.4a54 54 0 0 0 19.3-26l3-10.2c.7-2.2 3-3.8 4.8-5.2 4.8-3.6 9.3-7.6 14-11.4L187 493c-1.6 6.4-3.6 12.6-7 18.3-2.5 4.6-6 8.3-9.2 12.3l2.8 2a61 61 0 0 0 17.2-31.4c3.7.4 8.6 1.5 12-.1 4.2-2.7 7-8.3 9-12.8.8 2.3 1.4 5 3 7 1.7 2 4.2 3.3 6.3 4.6-.5 6.7-2.3 13-4 19.4l3.3.4c2.6-6 4-12.3 4.8-18.8 5 1.4 10.4 2.5 15.6 3.6a81 81 0 0 1-7.1 16.4 79 79 0 0 1-31.9 29.3 109 109 0 0 0 6-19.4c.5-2.5-.1-5-.6-7.3-7.3 2.8-12.3 7.6-19 11.7a206 206 0 0 1-45.4 20.7c-22.2 6.8-44.6 4.2-66.5-2.4L108 504c2.4-3.3 5.5-6.7 7-10.5-1.3-2.4-2.7-3-5.4-3.3l-23.4-.6L98 477a96 96 0 0 1 28.5-25z" class="D"/><path d="M265 457.4a85 85 0 0 0 20.3 5c5 .4 10 .2 15 .2 1 4.6 3 8.6.6 13.2-1.7 4.4-5.7 5.5-9.6 7.5-9 3.8-17 10.4-25.3 16-6.4-.7-11.7-4-18-5.3-7.3-2-15-2.8-22.2-4.7-3-.8-6.6-2-8-5-1.2-2.7-1.2-6.2-1.5-9l32-1.2c2.8-.3 5.4-.4 8-2 5.3-2.7 5.8-10 8.8-14.7z" class="B"/><path d="M308.5 477.4c2 1 4 1.5 5.6 3.4 3.5 4.3 6.2 9 9.7 13.4 1 1.4 2.5 3 3 4.8.5 3 .5 6 .6 9a113 113 0 0 0 5 30.5c.7 2.3 2.3 4 4 5.6.5-2.8.7-5.4-.3-8a115 115 0 0 1-5-32.4c15.2 19 32 37.2 51 52.3v9.7c-22.3-1.3-47.7-5.6-66.6-18.2l-21-20c-2.2 1.3-4.2 2.4-5.5 4.7L279 551a63 63 0 0 1-7-13.8 93 93 0 0 1-4-32.8c7.4-5 14.4-11 22.5-14.6a54 54 0 0 0 12.3-7.7 131 131 0 0 0-2.3 38.7l2 2c.6-1 1.3-1.7 2-2.6-1.2-13-.5-26.7 3-39.3l1-3.4zm19.8 16.4l3.3.5 14.5 2a164 164 0 0 1 34.2 7.5l1.3 16.3c1 10.2.5 20.5.6 30.7a334 334 0 0 1-53.8-57z" class="D"/></svg>