<svg xmlns="http://www.w3.org/2000/svg" viewBox="0 0 400 610" width="533.3" height="813.3" xmlns:v="https://vecta.io/nano"><style><![CDATA[.B{fill:#333}.C{fill:#858585}.D{fill:#d96038}]]></style><path d="M0 0h400v610H0V0z"/><path d="M18.4 15.3H382v.8 578 .8c-121.2 0-242.4 0-363.6 0V305l-.1-7 7 6.7c12.6 11.8 24.4 25 33 40A62 62 0 0 0 92 374.1c8 3 16.3 3.5 24.7 3C103 415.3 85 452.5 58.3 483.3c-1 1.5-3 3-3.5 4.7.2 2.3 2 2.6 3.6 3.5l13 .3c-1.4 3.4-2.8 6.7-3.8 10-.5 2.3 1.8 5.2 4.3 4.7h15.5a49 49 0 0 0-4.3 13.3c-2.8 16 1 32.7 5.7 48l4 2.7 45.2-5.3c9.3-1 18.3-1.5 27-5.4 7-2.7 13-7 19-11.6l2.5 16.2c1.8 1.7 2.5 4 5.3 2 11.4-12.7 19.3-27.3 26-43 5.8-13.6 9.5-28 10.7-42.7l13-1c1.2 15.2 5 30.7 12 44.3 1.8.8 3.4 1.3 5.2.1 2-2.5 3-7 5-9 1 3.6 2.7 7 4.7 10 6.3 9 16.3 15.6 26.3 19.7 13.4 5.8 27.4 8 41 13 2 1 3.5.2 5.4 0 1.3-1.4 1-3.3.5-5-2.4-9-3-18.2-1-27.4 5-14 6.4-30.4 2-44.8 3 .7 5.2 2.6 8.4 1.3 2.8-2.4 1.8-7 1-10.3a101 101 0 0 0-11.2-27.6c2.8.1 6 .8 8.4-.8 2-1.4 4-3.4 5.6-5.4L379 402c1.8-5.6-.6-10.7-3.4-15.4-1.7-4.2-2.5-9-3.2-13.5-.6-4.7-2-9.4-3.2-14-1-4.6-3.2-9.3-6.6-12.6-3-2.4-7.8-3-11.7-2.4 3-3.7 2-9.8 1.3-14-.4-4.6-.5-9.2-.7-13.8.4-6 1.6-12 2.6-18-.7-2.2-1.2-4.6-2.2-6.8-2.8-3.2-7.2-5.3-11-7-6.8-3-13.7-6-20.8-8.4v-.6c8.3-6.4 18-12.8 28.2-15.7 1.3-.6 2-2.4 3-3.4 0-2-1.6-3-3-4.4a40 40 0 0 0-16.2-10.2c13-18 24.6-38 28.2-60.4.5-2-.1-4.6-2.6-5l-38-.6c-14.4.8-28.5 3.6-42.4 7.3L282 83c-.1-1.8-.1-3.5-2.2-3.7l-13-.2-103-.6c-2-.3-4 1.3-4 3.5v13L143 109c-5.2 5.6-10 11.6-13.8 18.3V110c.3-3 1-6 .3-9-.2-2.3-1-4.7-1-7l48-55.8c.1-1 0-2.2-.1-3.3l-3.7-.6c-3.6 1.4-7 3.6-10.3 5.2-5 3-10.6 4.6-15.7 7.3-7.2 3-13.2 8-18.6 13.4-2.8 3-5.2 6.5-6.5 10.4-2.8-3-5.2-2.8-9-2-3.6-2.4-6.7-5.3-11-6.7-5.2-2.2-11-2.3-16.2-.4-6 2.2-12 5.2-16 10.4-4.5 5.8-5.4 14-5 21a52 52 0 0 0 2 25.9c1 3 3.8 5 5.8 7.2 3 4 6 8.3 8 13 1 2.7 1.7 5.4 2.8 8-4.8-3.2-10-7-15.6-8.2-14.5-3.3-29-7.5-41.8-15-2.4-1.7-6.4-3.6-7.8-6.2V15.3z" fill="#fff"/><path d="M45.2 34.2c4-1.7 8 .1 7.2 4.8.2 4.3-5 6-7.7 3.2-1-2.7-2.6-6 .5-8zm29.8.2c5 0 5 8 1 9.5-1.4.8-3.4-.5-4.8-1-.8-1.4-2-3.2-2-4.8 1.4-2.2 3-4.3 6-3.7zm127.3 1.3l1.3 3.3-1.2 3.6c-1.4 1-3.6 2-5.3 1.4-3.4-1-4.4-5.7-2.3-8.2 2.2-2.2 5.2-1.4 7.6 0zm49.2-1c3.5-1 7 .2 7 4.5.2 4.5-5 7-8.2 3.8-1.5-2-1.8-7.3 1.3-8.2zM103 35c2.8.1 5 2.3 5.5 5l-1.2 3.3c-2.3 1.4-5.6 2.5-7.4-.3-1.2-2.7-.7-7.8 3-8zm243.3 2.3c2-.8 4.6-.7 5.8 1.5.8 2 .7 5-.6 6.7-1.5 1.6-3.8 1.4-5.7.5-3.3-1.8-3.3-7.4.4-8.8zm-127 2c3.5-1.2 6.6 1 6 4.8.2 4.4-6.7 5.4-8.7 2.3-1-2.2 0-6.3 2.6-7zm87 0c4-1.2 7 .4 7 4.7.2 4-3 5.5-6.6 4.5-4.3-1.2-4.2-7.7-.2-9.2zm-28.8 1c3-.5 6.8-.3 7.3 3.6 1 5.2-6.5 7.4-9.2 3.5-1-2.2-1-6.4 2-7z" class="B"/><path d="M162 46c-.3.6-.7 1-1.2 1.6L127.3 87c-.8-3-2-6-2.5-9 1.8-5.5 4.6-11.3 8.8-15.4C142 54.7 151.8 51 162 46z" class="C"/><path d="M66.6 52.4c.8 1.3-.5 3-1 4.3-2.2 1-3.8 2-6.2.8-2.3-1.4-2-5.7-.8-7.7 2.4-3.3 7.2-.6 8 2.7zm196-3.7c.7-.5 1.5-.7 2.4-.5 4.3.4 5.4 7.6 1.6 9.4-1.5.4-3.6.8-5-.3-2.8-2.7-2-6.4 1-8.6zm-81.4 2.5c1.8-.7 3.6-.4 5.3.4 2 2 3 6.3.1 8-2.2 1-6.3 1-7-2-.5-2-.6-5.4 1.7-6.4zm51.8 0c2.3-.5 6-1 7 1.8.7 2.3.6 6-2.3 6.8-2 .4-5 .3-6.3-1.3-1.6-2.2-1.3-6.2 1.5-7.3zm103.4 1.3c2-.6 4.7-.6 6 1 1.2 1.7 1 3.8.6 5.7-1 4-8 4-8.7-.2-.4-2.2-.7-5.4 2-6.4zm-45 4c1.8-1.3 5.5-1.5 7.3-.1 1.6 1.6 1.3 4.3.8 6.3-1 2.8-4 3-6.5 2.3-3.3-1-4-6.2-1.7-8.5zm68 3.8c1.8-.6 4-.6 5.2 1 1 2 1 4.4.3 6.4-1 2-3.2 2.5-5 1.4-2.3-.5-2.8-2.5-3.8-4.3.2-2 1.7-3.7 3.4-4.7zm-313 6c2-.7 5.8-1 7 1.3 1 2.4 1 6.6-2.3 7.2-2 .3-5 .4-6-2-.6-2-.7-5.4 1.5-6.5z" class="B"/><path d="M106 70.7L95 76c-3 2-3 5.4-4.7 7.7-7-.5-13-2.5-19.4.8.7-8.5 7-14 14.6-17 6.8-3 15-1.5 20.5 3.3z" class="D"/><path d="M318.4 68.5c3.2-1.6 6.7 1.5 7.2 4.6l-1.2 3.2c-2.3 1.4-4.7 2-7.2.5-2.4-2-1.8-7.2 1.2-8.4z" class="B"/><path d="M112.2 74.3c1.4-.4 3.5-1.4 5-.6l3.6 10.5c1.8 4.6 1.8 10 2.6 14.8 1 4.6.1 9.4-.3 14a40 40 0 0 1-6.3 8.8c-4.6 2.8-10 1.5-14.8.2 2.5-8.5 6-17.7 4.6-26.7-1.3-5.6-5.4-8.2-10.2-10.5.2-1.4.7-2.8 1.4-4 4.7-2.3 9.6-4.6 14.6-6.3z" class="D"/><path d="M348.3 82.3c2.2-.8 6-1 6.7 1.7.5 2 .5 5.2-1.2 6.8-1.8 1.3-4.6 1-6.2-.5-2-2-2.2-6.7.7-8z" class="B"/><path d="M166.8 85l108.6.6-4.2 102.3c-4 51.2-10.3 102-20 152.5l-36 126.7-10 21.6L65 485c14.2-17 26-36 36-55.7 21-41.3 34.4-87 44-132l20.3-158 1.5-54z" fill="#9260c7"/><path d="M88 89c4 .3 10.2 1.7 12.3 5.5 1.3 5 .2 11.3-.3 16.5a38 38 0 0 1-5.6 12.4c-.8 1.3-2.2 1.8-3.5 2.5-5.7-2.4-11-2-16-5.8-3.2-3-4.3-8-5-12-.8-6-1-13.3 2.5-18.5 5.3-3.3 10-1 15.5-.5z" class="D"/><path d="M322.7 100c.8 2.2-.3 3.7-1 5.8-2 1.2-4.5 1-6.7.2-.7-1.8-2.6-3.7-1.6-5.6 1.3-3.5 8-4 9.2-.3z" class="B"/><path d="M160 101v12c-8.3 7.7-17.4 14-24.3 23.6-4.6 6.8-8 16-10 23.8-.1-2 1.6-5.8 2-8.2 1.3-4.4.4-9.5 2-13.8 7.2-14.6 17-28 30.6-37.4z" class="C"/><path d="M347.3 107.7c1.8 2.4-.2 4-1.2 6.3-1.4.6-3.5 2-5 1-2.2-.6-2.2-3-3-5-.4-4.7 6.7-4.6 9-2.3zm15.5 4.5c2.3 1.5 2.2 5.4.8 7.4-2 3-7.5 2.3-8-1.5-.6-2 .4-3.5 1.2-5.3 2-1.3 4-1.8 6-.6zm-53.8 6c4.2 1 3.7 8.2-.2 9.3-2 1-3.5-.3-5.3-1-.6-1.5-1.2-3-1.4-4.6.4-1 1-2 1.4-2.7 2-1 3.4-1.6 5.6-1z" class="B"/><path d="M123.8 121v24c-1.3 7.4-5.6 14.3-4.4 22 1.6 16.7 4.4 33.4 7 50 1.6 13 9.2 25.3 17.4 35.4.8 1 2.3 2.2 2.5 3.6l-1.5 10c-4-3-7.3-8-10.5-12-7-9.2-13.2-19.5-15.6-31l-6.3-50.3c-.5-5.6-3-10.8-8.2-13.5a41 41 0 0 1-11.2-6.8c-6.2-6.8-6.4-16-11.7-23.8a49 49 0 0 1 8.9 2.9c3 .5 7-1 8.6-3.8 1-2 2.5-.3 4-.1 4 1 8.6 1.7 12.5.6 3.7-1 6.3-4.3 8.8-7z" class="C"/><path d="M159.8 119.7l-4.2 64.3-8.2 64c-8-9-15.7-20.7-16.8-33l-4.3-32c1.8-12.8 4.5-26 10-37.7 4.5-9.3 12.8-16.7 20.7-23 1-.7 2-1.5 2.7-2.4zm-141.5 9l6.2 10.8a87 87 0 0 0 14.3 16.7c11 9.8 26.7 14.8 41 16.3l27.3 3.3.5.3c1.4 14.7 2.6 29.7 5.5 44.2-3.4-3-6-6.2-10.4-7.7-11-2.2-22-3.3-32.7-7.6-3.6-1.5-7.3-3.3-10.3-5.8-1-1-2.6-1-3.8-1-1 .7-1.8 2.7-1.5 4 .4 6.6 3.3 13.5 6 19.6 4 8.7 9.7 16.6 19 20L101 247a65 65 0 0 1 26.9 7.4c4.6 6 10 11.4 15.2 17 .4 3.7-1.3 8.7-1.8 12.6l-13-6c-14.3-5.2-30.8-9.4-46-7.7-1.6 1.3-3.3 1.8-3.3 4l4.7 11.6c-8-4-16.4-6.6-25.5-6a212 212 0 0 0-39.6 6.3l-.1-157.3z" fill="#fff"/><path d="M24 129c13 7.7 27.3 12 42 15 5.5 1 10.2 4.2 14.7 7.4 7.5 5.4 14.2 11.5 21.2 17.5-10.4-.7-20.8-1.4-31-3.6-6.8-1.6-14.2-3.2-20.2-7C39 151.8 30 140.6 24 129z" class="C"/><path d="M320.4 135.4c2.5-1.6 7.4-1 7.8 2.5.6 3.4-1.4 7-5.2 6.4-4.2.1-5-6.7-2.6-9zm39.2 6c.8 1.3-.5 3-1 4.3-2.4 1-4.4 2.2-6.8.4-1.7-1.7-1.4-5.5-.2-7.4 2.5-3.2 7.2-.5 8 2.8zm-17.2 14c1.6-1 3.8.4 5.4.8 1 2.2 1 5.3-.1 7.5-1.7.4-3.7 1.8-5.3.8-2.2-.8-2.4-2.8-3.5-4.6.5-1.7 1.6-3.8 3.4-4.4zM124 162.2c1-.1 1.3.4.8 1.6-1 .1-1.3-.4-.7-1.6z" class="B"/><path d="M311.5 182.8c13.5-1 27.5-2 41-.8-1 9-5 19.3-8.8 27.7a172 172 0 0 1-18.5 30.5c-.7 1.2-2 2.3-2 3.7 1 1 2.5 2.7 4 2.8 5.6.1 11.6 3.7 14.8 8a109 109 0 0 0-30.1 18.1l-24.8-5c-7 0-12.5 3.4-18.4 6.6.6-6.3 1.2-13.4 2.4-19.4l40.2-8.7c1.4-.1 2.7-2 2.2-3.3-1-.7-2-1-3-.6l-39.2 8.4c.1-2 .1-4.4 1.5-6l19-19c4.7-.7 9.6-.2 14.2-1.3l22-4c.7-.1 1.3-.3 1.7-.8.2-1.2-.3-2.5-1.6-2.8l-23 4.4c-3 .7-5.8.3-9 .5 11.3-10 24.3-18 37.4-25.2 1.2-.8 4-1.4 2.5-3.3-.4-1.4-2.6-1.4-3.6-.8a217 217 0 0 0-36.7 25.3c-2.4 2.3-5.3 3.8-7.5 6.3 1-6.5 2.4-12.8 5-19l5-11c-.2-1.7-2.3-3-3.5-1.3a119 119 0 0 0-11 34.2c0 2.7-2.5 3.7-4 5.6-2.4 2.2-4.3 5.2-7 7l4.7-49a201 201 0 0 1 34.3-7.6zm-250 23.4l3 1.6a53 53 0 0 0 11.6 4.6c6.8 2 14 2 20.7 4 2.8.8 5.8 1 8 3a60 60 0 0 1 11.1 12.9l6.5 13c-7-2-13.8-3.2-21-3.8l-20.7-5c-11.2-5.3-17.3-18.8-19-30.4z" class="C"/><path d="M45.2 232.2c2.2-1.2 5.8-.8 6.8 1.8.5 2 1 5.5-1.3 6.8-2.3 1-6.8 1-7.4-2.2-.3-2-.3-5.2 1.8-6.4zm8 22.2c1.6-.6 3.6-.4 5.3.1 3.6 1.3 3.3 8-.6 8.5-2 .4-5.2.7-6.3-1.7-.8-2-.8-6 1.7-7z" class="B"/><path d="M287 273c7.5.3 14 2.5 21.2 4.5 9.3 2.8 18.3 6.3 27.3 10 3.8 1.7 8 3.3 11.2 5.8 1.3 1 1.5 3 2 4.6-1 5.7-2.2 11.3-3.2 17-.3 4.6.7 9.4 1.2 14 .3 3.7 2.4 7.6.4 11-3.2 3-8 4.7-12 6l-.7-.5c-2.8-4.6-5.8-9.7-10-13-3.7-2.4-8.5-1.2-12.5-.5 1.4-10-1.8-20-9.7-26.3-10.2-7.8-23.4-11.2-35.6-14.8-.1-3 .7-6.4 1-9.5 1.5-1.5 3.7-2.5 5.5-3.6 4.2-2.2 9-4.7 14-5z" class="D"/><path d="M87 276.7c6.5-.5 13.7.8 20 2 11.2 2.3 22.3 7.3 32.8 11.7-1 8.7-3.7 17.6-5.4 26.3l-.4.3-.6-.1c-7.6-10-16.8-18.8-25.5-27.7-.8.1-1.6.3-2.5.5-.1 1.2-.5 2.6.6 3.5l26.8 29.3-4.4 17.3c-1.8.4-4.3-.4-6-1-6-9-11.3-18.5-18-27-1-1.3-2-1-3.3-1.3l-.5 3c5.6 7.5 11.3 14.8 15.8 23l.2 1.3c-11.6-3-24-8.8-31.7-18.4-7.8-8.6-19-14.5-30-18l-20-4c-.8-.2-1.7-.1-2.7.2-.4 1.2-.4 2.8 1 3.4L53 305c11.7 4 22.7 8.7 30.7 18.4 10.5 12.3 28 17.6 43.4 20.6l-3 11c-8.7-1.3-16.7-4.4-24.6-8.4L79 334c-2.6 1-1.8 3.6 0 4.8l17.7 11.3c8 4.3 16.7 7.3 25.7 8.8-.5 3.3-2 6.6-2.8 9.8-.3 1.5-1.5 1.4-2.7 1.5-7 .7-14.5.2-21.4-2a54 54 0 0 1-25.6-17.3c-5.5-6.3-8.3-14-13.3-20.6a301 301 0 0 0-34.1-37.9l-.4-1.2c12.3-2.2 24.3-4.6 37-5 8.2 0 16 2.3 23 6.5 4.6 2 8.6 5 12.8 7.7 1.4-.2 3.3-2 3.6-3.4-.3-1-.7-1.7-1-2.6-5.3-4-8.2-11.8-10.5-18z" class="C"/><path d="M265.3 297h.8l29.3 10.6c3.3 2.2 6.4 5 8.4 8.6 3.8 6 3.3 14.4 1 20.7-8.5-6-18-15-28.2-17.3-6.7-1.4-10.6 2.3-15.6 5.7l4.4-28zm7.7 27c2.8.1 5.7 1.6 8 3 8.7 5 16.8 11 24.3 17.8 1.2 1.3 3 2.7 3.7 4.4l-8.2 18c-1 .1-1.5-2-2-2.6a26 26 0 0 0-17.5-11.5l-24.6-2.8a106 106 0 0 1 2.8-14.7 38 38 0 0 1 13.7-11.4zm48 12.4c4.3 3.4 7 9.2 9.6 13.8l10 18c.5 2.2 1 4.5 1.3 6.8l-3.4 14.6-5.8 10-18 .4c.7-2.8 2-5 1.6-8-.3-3.2-.2-6.5-.7-9.6-2.4-5.3-5.7-8.7-10.7-11.4 3-6.4 7.4-12.8 9.3-20 1.2-4.2-2.6-7.5-5-10.3.2-1 .6-1.7 1.2-2.5a33 33 0 0 1 10.8-1.8z" class="D"/><path d="M50.3 349c.5 1.6-.7 3.6-1.2 5.2-1.5.8-3.5 2-5.2 1-2.7-1-3-4.4-2.4-6.8 1-4 8.3-3.7 8.8.5z" class="B"/><path d="M345 350.3l15 .7c3.8 4.8 5 12.5 6.5 18.5a58 58 0 0 0 5.3 20.8c1 2.5 3.3 6 2.4 8.7l-22 34-7 6.2-32-2.6c-.3-1-.2-1.8.4-2.3 3-3.2 6-7 6-11.5 0-6.2-2.6-12.7-4.4-18.5l20.6-.7.6-.3 7.7-12.5a249 249 0 0 0 3.2-16c.1-3-.3-6-1.4-9l-8-14.2 7.2-1.6zm-89.7 5c2.4-.7 5.6.5 8 .6.3 8.6-.2 17.6-.2 26.3.1 1-.1 1.7-.4 2.4L250 386c-.2-3.3 0-6.7 1-10 1.7-7 3-14 4.5-20.8zm12.7 1.4l13 1.6.4.7-.6 22.6c-4.4 1.6-9 1.7-13.5 2.2l.8-27.2zm17.3 2.8c5.6 2 10.4 7 12 12.6a52 52 0 0 1-12.4 7.5l.3-20zm15.7 16.2c1.7-.2 3.8 1.3 5.2 2.2 4 3 4.7 8.6 5.6 13.2-.1 7.3-5 10.4-9.6 15.2-5.3 5-11.7 10-19 11-4 .7-8-.6-11.5-3a91 91 0 0 1-21.3-21.8v-.8c8.4-1 16.7-2.8 25.2-3.5a62 62 0 0 0 25.5-12.7z" class="D"/><path d="M54.3 378.7c1 1.4 1 5.2 0 6.6-1.6 1.7-5.2 1.7-7 .5-2.4-2.3-1-5 .2-7.3 2-1.4 5.2-1.5 7 .3z" class="B"/><path d="M246.2 395c6.2 9.4 12.8 18.2 22.5 24.3a22 22 0 0 0 19.7 2.1c8.8-3 14.8-9 21.4-15.3 2 5.8 5 12.7 4.5 19-7.5 8.2-13.5 16.3-23.4 22-1.2.5-2.5 1.2-3.8 1l-24-4.3a396 396 0 0 1-27.9-9l-.3-.7 11.3-39z" class="D"/><path d="M67.4 401.5c2-.5 4.6-.7 6 1 1 1.7 1 4.4.1 6-2 2.7-7 2.2-8-1-.8-2.2-.3-5 2-6zm-17 6c1.6 2.4.2 4-.4 6.5-3 1.3-8.3 1.3-8.6-3-.7-5 6.3-7 9-3.4zm-3 19c3-2 8-.8 7.7 3.5.8 5-5.6 6-8.5 3.3-1-2-1-5.4.7-7zm22.4 12.7c1 2.5.7 7.4-2.7 8-3.5 1-5-2.3-6-5l1.4-3.4c2-1.5 5.8-2 7.2.6z" class="B"/><path d="M233.7 439.3l45.3 13.5c4.3.7 8.2 1.6 12.2-.5 6-3.3 12-7.7 17-12.5 1.6-.1 3 2 5 2.2 2.2 5 4 10.5 4.6 16 .7 6.6-2.5 12.8-7.7 17-3.7 2-7.7 3.7-11.5 5.5-.8.4-1.6.6-2.4.5l-48-6.4c-9.5 0-18.7 1.8-28.3.7l12.7-33.7c.2-1.2.6-2 1.3-2.2z" class="D"/><path d="M319.4 442.8c4.7 1.4 9.4 1 14 1.7a61 61 0 0 1 12 30.1c-2.8.2-5.6-1.8-8.5-2-1 .5-2.4 2-2.8 3.2 4.7 8.7 5 19.4 4.5 29-.3 9.3-4.7 17.3-5.4 26.5-1 6.6.8 13 .6 19.3-9.3-3-19-5.3-28-8.4-7-2.6-13.8-5-19.8-9.4-9.3-6.2-17.7-16.3-17.8-28 0-1.7-1-2.5-2.3-3.5-1.6.4-3.3 1.8-4.5 3l-4.7 9.4-.7.1c-4-11-6.7-22.5-8-34 7 1 14 2.4 20.8 3.6l15 3.2c-2 6.6-4 13.4-5 20.3-.1 1-.1 2 .3 3 1.4.2 2.7-1 3.6-2 .6-7 3-13.8 4.5-20.6 2.7-1 6-.5 9-.8l4.2 9.3c.8 2.5 2.4 4.8 1.5 7.4-2.4 8-3.7 16.5-4 25 .1 1 0 3.3 1.7 2.7 1-1.2 2.4-1.8 2.3-3.7.2-6.5 1.5-12.7 2.5-19 1 1 1.4 2.5 2 4 4 10 9.5 19.2 16.6 27.3l1 .1c1-.6 1.5-1.4 1.7-2.3-.6-1.7-2-3-3-4.5a110 110 0 0 1-16.2-33.1c7.6 1.2 15.2 4.6 21.6 9 1.2-1 3-1.7 1.2-3.5-6.3-5.6-16-7.8-24-10.2-1.7-3-2.7-6.5-4-9.7 7.8-3 16.5-7 19.7-15.2 4.4-8.6 2-17.5-1.3-26v-1z" class="C"/><path d="M43 455.3c5.3-1.2 7.3 5.6 4.5 9.2-2.4.4-5.4 1.3-7-1-1-2.6-1-7.3 2.6-8z" class="B"/><path d="M221.5 480.7l.2 1a143 143 0 0 1-28.1 70.8c-1 1-1.3 2.6-2.6 3l-1.4-15.4c-.4-2.2-3.5-3.5-5.3-2l-10.7 9.3c-7 4.8-15 9-23.7 9.7L95 564l-.6-.4L91 550a68 68 0 0 1 1.1-38.8c1.3-2.8 3-5.4 4.5-8-1-1.4-2-3-3.7-3-5.7-.1-11.5.1-17.2-.1 1-2.7 2.3-5.2 3.5-7.8.8-.2 1.7-.3 2.7-.2l76.5 2-.1.8c-2.4 2.2-4.3 4.8-6.6 7-11.4-1-22.4.3-33.3 3.7-6 1.8-12 4-17.3 7.6-1 2.3 1.2 2.3 2.8 2.7 6.5-2.3 12.4-5.6 19-7a79 79 0 0 1 24.2-3l-.5 1c-7.4 7-16.4 11.3-24 18-8.6 7-15.6 16.3-21 26-.7 1.8-2.5 4.4-1.7 6.3 1.4 1 2.3 1 3 0 2.5-4.8 5.3-9.4 8.4-13.8 5-7.2 11.4-15 19-19.6.3 8.7.1 17-3 25.3 1 2 3.2.4 4.5-.2L134 533c.7-4.2.4-8.6 1-12.8A120 120 0 0 0 153 506c.5-.5 1-1 1.8-1.2l-1.4 31.2c-.3 3-1 6-1.3 9 1 1.4 2.2 1.7 3.7 1 2-8.6 2-18 2.8-26.8.5-6.3-.1-12.7.4-19l5-5.7 18.5.4a147 147 0 0 1-1.8 30.2c-.3 1 .2 2 1.5 2.8 1.6-.5 2.7-2 2.8-3.8a170 170 0 0 0 1.6-28.8c5.4-.6 11.2.2 16.6.1 2.3-.1 5.6.8 7.5-.8l6-12.8c.3-2 3.4-.8 4.8-1z" class="C"/><path d="M55.8 523.2c.8 2 2 3.4 1 5.5-1 2.7-6 3-8 1.6-2.6-2.3-1-5.7.6-8 2.4-2.2 4.2-.1 6.6 1zm4.5 21c1.8-1 4.5-1 6.2.3 1.5 1.4 1.4 4.2 1 6-.8 2.5-4 2.5-6.2 2-3.3-1-3.6-6.6-.8-8.2zM253 546c2.3-1 5.8-.7 7 2 .8 2.2-.2 3.8-1 6-1.7 1-4.4 1-6.3.4-3.3-1.4-3-7 .3-8.2zm-16 3c1.4.5 1.8 2.7 2.2 4l-1.3 4-4 1.3c-1.2-.4-2.4-.8-3.4-1.5-.3-1.7-2-4-.7-5.6 1-2.6 5-3.4 7-2zm120 .5c2.8 1.3 4.2 2.2 4.8 5.4-.6 3-2.7 5-6 4-2.2-.3-3.5-3-4-5 1-1.8 3-4.2 5-4.6zm-89 8.5c2-1 6-1 7.5 1.3 1.7 3.4-.7 7.5-4.6 7.3-4.4.4-6.6-6.4-3-8.6zm-219 1.4c2.6.1 4.7 3.3 5.4 5.5-1.2 3-3.2 4.5-6.4 4.4-2.3-.6-2.4-2.4-3.3-4.3.4-2.7 1.8-4.5 4.3-5.5zm169.4 1c1.5-.5 3.6-.4 5 .3 3.4 2.2 2.3 9-2.4 8.6-4.4 1-7-7.4-2.6-9zm82.6 1.2c1.6-.7 3.4 1 4.8 1.7 1 2.6.7 4.8.1 7.4-2 .3-4.7 1-6.7.3-1-1-1.6-3-2.3-4 .7-2 2.2-4.2 4.2-5.3zM70.8 573l-2 4-3.8 1c-1-.4-1.8-.8-2.7-1.3-1.2-3-1.8-4.2 0-7.2 3.2-3 7.7-.2 8.4 3.5zm176.2-5.6c4 .2 5.7 5.4 3.6 8.3-2.2 1-4.7 2.4-7 .6-1-1-1.4-3-1.8-4.3.8-2.3 2.5-4.5 5.2-4.7zm105 0c1.3.6 2.6 1.3 3.8 2 1 1.8 2 3.6 1 5.6-1 2.6-5.4 2.8-7.6 2-3.7-2.7-1.3-8.5 2.7-9.4zm-67 1.2l4.3 2c.5 2 1.4 5-1 6.5-2 1-5.4 1-6.8-1-2-3-.2-7.5 3.4-7.8zm35.3.7c3.7-1.8 8.2.2 8 4.7-.2 3.6-3.4 4-6.3 3.8-4.5.2-4.5-6.6-1.7-8.5z" class="B"/></svg>