<svg xmlns="http://www.w3.org/2000/svg" viewBox="0 0 400 610" width="533.3" height="813.3" xmlns:v="https://vecta.io/nano"><style><![CDATA[.B{fill:#858585}.C{fill:#d96038}]]></style><path d="M0 0h400v610H0V0z"/><path d="M19.5 15.4c3.5-.3 7-.1 10.5-.1h353v319.4c-10-3-20-5.6-30.6-6.3l5.8-10.8c-.8-1-1.4-2.8-2.7-3.2-2-.8-4 0-5.8.5l-32 9a63 63 0 0 0-22.9 15.2l-12-1c.5-5.2 1-10.3-.7-15.4 2-2.8 4-5.7 5.5-9 3.2-6.8 3.4-15 5-22.6.5-5 3-9.7 2.6-14.6l-3.2-2.4c-3 1-5.6 2.3-8.4 3.8-.1-6.8-1.3-13.6-2-20.3l-3-17.5c-.3-1.4-.8-2.7-1.8-3.7-1.4 0-2.7-.2-4 .7-3.2 2.2-6.4 4.5-10 6.2-5.8 3.2-12 5-18 8-10.8 5.4-21.2 11.6-29 21a61 61 0 0 0-12.3 24.9c-9.4-4.7-19.6-4.5-30-4.6l11-30.5c7.3-21.7 13.6-44.4 16.3-67.2.5-3.8.4-8 1.7-11.8a55 55 0 0 1 8.6-16.8c2 5 4.2 9.7 8.7 13 7.8 6 15.5 12 23.4 17.8 1.8 1.2 4.4 1.2 4.7-1.4a49 49 0 0 0-3.7-23.7c-2.4-6.2-7.8-11-12-16.3 5.8 0 11.4-1.5 16.3-4.7 3-2 5.5-5.3 5.6-9.2.2-5.6-2.7-11.2-5-16 2.4-2 5-4 6-7 1.5-3.4.1-8-.2-11.5 12.4-4.5 26.2-7.3 39.4-6l14 .8c1-.7 1.8-1.3 2.7-2l-.7-2.7c-6-5-11.8-10.5-18.2-15C286.2 78 278 74 270 75.8c-8 1.4-15.6 7.5-21.4 13-3-1.5-6-2.2-9.4-2.5 1.8-7.5 3.3-16.6-3-22.5-5.2-4.6-10.7-2.5-17-3-5.2.2-9.8-2-15-2-3.7 0-7.4 0-11 0-2 .1-4-.2-5.8 1-4 3-5.2 8-6.4 12.8-3.3-2.8-8-6.8-12.7-6-5.4 1.3-10.4 6.3-14.6 9.8-2.4-4-4.5-8-8.5-10.5l-22.2-16c-1.2 1.5-2.2 3-2.5 5-1 3 .7 6.2 1.4 9.3a61 61 0 0 0-23.1.3c-11 3.3-23 2.4-34.2 4.7-1 1.6-1 3.7-1.3 5.6-1 9 2.3 18 6 26 5 9.4 12.6 16 21.6 21a20 20 0 0 1-10.9 4l-2.2 2.5c2 3 5 5 7.8 7.3 6.2.2 12.4 1 18.6 1l28.6-4c1.4 5 3 10 6.7 14 2 2 4.8 4.5 7.7 3.2 10-3.5 15.8-10.2 25.3-15.4L172 159c.5 4.6 4.2 7.8 6.3 11.7 2.6 4.6 5 9.8 4 15.2-2 14.4-5.4 28.7-8 43a374 374 0 0 1-15.2 51.9c-2.2 5.7-5 11.2-7.4 17-3-7.7-6.4-15-11.7-21.5-13.3-16.7-31.6-26-51.4-32.5-1.3 1.4-3 2-2.2 4.2 1.4 4.8 3.4 9.5 5 14.2l-22.2-1a126 126 0 0 0-49.6 6.7V27l.1-11.6z" fill="#fff"/><path d="M124.7 57.7L140 69c4 2.7 6.8 6.2 9.3 10.3-3.3 2.3-7 4.3-10.2 6.8-1.8 1-1.6 4-2 5.7l-.1 1.7L125.5 77l-3.4 2.7c5 7 9.8 13.8 14.6 20.8-7.5-.6-15-2-22.2-4-2-.6-4-1.5-5.4-3.4-3.4-4.6-5.5-10.4-8-15.5l-3 2.3 7.7 14-21-8.6c-2.4-1-4.8-1.2-7.4-1l1.2 3.4 31.7 12.4c-6.6 2-13.2 4-19.8 6 .8 1.2 1.7 2.3 2.5 3.5l20-5.6c3-.8 6-2 9.3-1.4 4.6.6 9.2 1.4 13.8 1.8l-.4 2.5a87 87 0 0 1-20.9 9c-4 1.3-7.8 1.4-10.7 5 2.4.6 4.6 1 7 .4a127 127 0 0 0 25.4-9.7l2.3 2.8c-2 1.6-4.7 3.2-6 5.5-1 2.5-1 5.3-1.5 8l-32.6 5c-4.4.8-8.2-.5-12.3-2L95 125c1.3-1 2.2-1.7 2.8-3.2-1-2.7-3.4-3.7-5.7-5.2-8.7-5-16.8-12.8-20.8-22.2-3-6.4-3.8-13.2-3-20.2L90 72c5-.6 9.2-2.2 14-2.2l19 .5c2.3.1 3.8-1.2 5.6-2.3-1.7-3.3-3-6.6-4-10.2z" class="B"/><path d="M191 64c7.4-1 15.6.6 23 2 5.2.8 10.6-.4 15.8.5 2.3.5 3.7 2 4.4 4.2 1.5 5 .6 10.8-.5 16-3.2.7-6.6 1-9.5 2.7-3 1.7-5.6 4-8.8 5.3-2.7 1.2-5 2.8-7.3 4.7a29 29 0 0 1-11.7 6.2c-.1-5.2.3-11.3-1.5-16.2-1.7-4.7-6.4-7.4-9-11.4-.4-4.4 1.2-11.4 5.4-13.7zm-18.8 8.8c4 2.3 7 6.7 10.2 9.8 2.4 2.5 5.6 4.6 7.4 7.6 2 3.7 1.8 9 2 13-3.7-2.5-7-5.8-10.6-8.3-4-2.7-8.7-.5-11.5 2.8-4.4 5.6-6.8 12.6-5.6 19.7-6.3-1.4-14-2.3-19.6-6-4.6-2.5-4.3-9.5-5.2-14L137 101a128 128 0 0 1 .3-7.6l.1-1.7L139 97c1-2.3 1.4-5 3.3-6.7l9.2-7 12.8-9.2c2.3-1.5 5.2-3 7.8-1.5z" class="C"/><path d="M275 80.7c10 .6 19.3 8.5 26.6 14.6-16-.2-31.4 1-46.5 6.4-.7-3-1.6-6-2.7-9 6.4-5.7 13.4-12.4 22.6-12z" class="B"/><path d="M243 93c3 .2 4.2 2.6 5 5a159 159 0 0 1 3.1 15c.4 2.8-.1 5.7-2.8 7-3.2 1.4-6.8 2-10.2 3-4.4 1-8.4.3-12.8 0 3-6 3.4-12.6 2.3-19-.6-3.2-2.4-5.8-4-8.6 6.3-3.4 12.7-3 19.6-2.5zm-67.4 5.5c6.5 1.8 10 7.2 16 9.8 3.6 1.6 7.5 2.5 11.3.6 6-2.8 10.7-7.5 16.4-10.8a21 21 0 0 1 2.8 11.8c-.3 4.4-.2 9.3-3.7 12.4-6.2 6-15.4 8.3-23.5 10-3 .5-7 1.7-10 .6-3.6-1-6.4-4.5-9-7-3.7-4-7.5-9.3-7-15 .6-4.8 3.2-9.2 6.7-12.4zm-31.3 19.7c2 .2 4 1 5.8 1.6 5.7 2 11.3 2.4 17.3 3.5l4 5.5c-9.6 4.6-16.7 12.4-26.5 16.5-2.2-3-5-5.7-6-9.2a36 36 0 0 1-1.7-13.4l7-4.5zM221 128c3.2-.5 6.7.2 10 .3a67 67 0 0 0 13.9-.7c1.7 3.6 3.8 7.4 4.3 11.3.5 3.3-.7 6.8-3.8 8.4-7.3 4-14.5 3-22.6 3.7-5-5.4-7.7-11.6-11-18 3-1.7 6-3.8 9.3-5z" class="C"/><path d="M177.6 135.5c3 1.8 5.7 4 9.4 3.6 6.7-.6 13.4-2.4 20-4l9.8 17.7c-4 6.2-9.6 10.3-13 17-2.7 5.7-5.8 12-6.5 18.2-2.5 22.3-8.5 44.7-15.3 66l-13.5 38.8-9.7 1.3a307 307 0 0 0 20.2-64c3.2-14 6.5-28 8.5-42.2a21 21 0 0 0-.6-10.5c-2.4-6.4-8-13-9.6-20.2-1.2-7 .3-14.5.4-21.6zm43 21c2.3-.5 4.8-.5 7.2-.6 4.4 5.4 9.5 10.5 12 17 2.4 5.4 3.2 11.2 3.5 17l-16-11.7c-2.8-2-6-4-7.8-7-1.7-2.7-2.8-6-4-9l4.8-5.5zm53 87.7l3 24.7c.5 6.7-1 12.8.5 19.4a59 59 0 0 0 10.3-4.9L284 303a52 52 0 0 1-5.6 14.3c-4-6-8-12.3-13-17.4-3.2-3.3-7.3-4-11.5-5.4l8-20 8.5-15.2-2-3.6L258 273l-7.3 16.2-7.3-18.3-3 2.5 7 19.8c-7-.4-13.4-1-20 2-6.5 3-10.2 8.6-14 14.3l-4-7a57 57 0 0 1 13.4-27.9 103 103 0 0 1 27.5-18.5l23.5-12zM95.2 253c18.2 8 35.7 18.7 45.2 36.7 2 4 4.5 8.6 4.8 13-4 5.8-10.3 9.6-14.5 15.4-2-13.3-5.2-26.5-9.3-39.2-1 .3-2 .6-3.2 1 2.8 13.7 7.5 27 9 41.2.3 3-.5 6-.8 9-.4 3.3-.1 6.6-.1 10-5-1.5-8.2-6.8-12-10.2-3.4-3-4-7-5-11l-9.7-34.3c-1-2-1.3-5.7-4.4-4.5-1.2 1.6-.3 3.2 0 5l11 37.5L81 304c-2.5-1.6-4-4-5.6-6.4l-13.3-23-4.2.2c2.4 5 5.7 9.2 8.3 14l5.3 9.5-44.7-22.6-2.6 1.3-1.8-3c13.8-4.5 28-6.2 42.6-6.5 9.4-.2 19 1.3 28 1.7 2.2.1 5.6-.2 5.2-3.2-.5-4.4-2-8.8-3-13zm-68.7 27.4l2.8 1.4L67 301l12 7a225 225 0 0 1-40.2-.4c-2.7-8.5-6-16.8-10.6-24.5l-1.6-2.7z" class="B"/><path d="M19.4 281.6a107 107 0 0 1 7.8 14.2c3.8 8 5.4 16.7 9.2 24.8 6 13.6 15.7 25 28.2 33-6.7.4-15-1.5-20.6 2.3 2 4.5 5.8 7.2 9.2 11 3.3 3.2 6.4 7.4 10.4 9.6a63 63 0 0 0 20.1 7.2c-3.2 8.3-7 15.6-4 24.7 3 8.4 11.3 15.3 19 19.5a58 58 0 0 0-17.3 31.3 116 116 0 0 0 .1 30.9 109 109 0 0 1 .7 22.1c-.2 2.3.8 4.2 1.5 6.4 1.4-.6 2.8-1 3.8-2 3-3 6-6 9-9a86 86 0 0 0 7.9 27c4 8.3 8.3 18.8 6.8 28l2 2.7c2-.4 3.7-.6 5.4-1.7 4.7-2.8 9-6.3 13.6-9.5 6-4 11-10 15.6-15.4a114 114 0 0 0 16.9-27.2l3.5 12.8c5.8-1 9.3-5.2 12.5-9.7 4.3-6.7 8-13.8 10-21.5 5-.1 11.3.1 15.5-3 4.5-3.4 7-9.7 9-14.7l3.7 4.8c-1 11.5-.7 23 1 34.4a97 97 0 0 0 5.8 23c.7 2 2 3 3.6 4.2 4.7-2.5 7.4-8.2 10.8-12.3a113 113 0 0 0 13.2 22.3c5 6 11.3 10 18.2 13.8 7.8 4 16 7.7 24 10.8a33 33 0 0 0 6 1.7c1-2 2-3.8 2-6 .6-6.7 3.3-12.3 6.2-18.2 3.2-6.4 6.2-13 8.2-20 3-12.7 2.3-25.5-.6-38.2 4.7 2.3 10.7 5.8 16 4.8.1-2 .5-4-.4-5.8l-4.7-13.3c-3.3-9-8.3-17.2-14.3-24.6-4-4.6-9-7.2-13.8-10.3-1.4-2.8-2.2-6-3.6-9 3.6-.4 7-1 10.2-2.8 4.4-2.4 7.3-6 10.4-10a120 120 0 0 0 23.7 6c7.5.4 15 .5 22.5.7 1-1 2-1.8 3-2.8.2-2.8-3.5-5.2-5-7l22-6.8v180H19.4v-313z" fill="#fff"/><path d="M192 299c4 .8 9 2 11.6 5.3 3 3.8 5 8.6 7 13a68 68 0 0 0-21 2.7c-4.4 1.4-8 4.3-11.7 7a56 56 0 0 0-12.1-.5c-10.8 1-21 4-29 11.7h-5c-.2-4.6-.3-10.2 2-14.4 3-5.5 8.8-10.2 13-15 3.6-3.7 6.4-8 11.6-9.4 10.6-3.2 23-2.3 33.7-.5zm58.5.4c4.4 1 9 2.2 12.3 5.8 4 4.4 7.5 9.3 11 14 1.4 2 3.2 4.4 4 7 .4 3.6-.4 7.4-.7 11-4-.2-7.6.1-11.4 1.3a39 39 0 0 0-7.1-6.7 101 101 0 0 0-24.6-12.4c-5.8-2-11.3-1.5-17.4-2a50 50 0 0 1 10.3-15.7c2-2 4.8-1.8 7.4-2.2 5.7-.4 11-1.3 16.5 0z" class="C"/><path d="M40 311.6a238 238 0 0 0 39.1.5c3-.1 5.8-.6 8.5 1.4l21.2 16-40.7-1.2c-2.3 0-4.5-.3-6.6 1l1.6 3 44 1c2 .1 4.2 0 6 .7 2.8 1.8 5 4.7 7.4 7A91 91 0 0 0 106 349c-2 1.2-3.5 2.7-6 2.7-4.7.2-9.4-.2-14-.2l-2.3 4 14 .1c-5 6.6-7.6 15-11.5 22.2A56 56 0 0 1 71 373a68 68 0 0 1-14.1-10.5c3.4-.5 7-.6 10-2.5 3-2 5-5 7-8-4.7-4.2-10.6-6.5-15.3-10.7-9.2-8-14.7-18.4-18.8-29.7z" class="B"/><path d="M213 322.6c5 .3 10.4 0 15.4.8 10 2.5 19.3 7.4 27.6 13.5 2.4 2 4.7 3.8 5.2 7 1 7.3-.2 14.2-2.7 21-3.8.2-7.6.5-11.4 1.2.7-5 2-12.7-1.4-17a52 52 0 0 0-24.8-11.5c-6.5-.6-13 2.8-18.5 5.6-4 2-8.5 2.6-12.5 4.5-2.3 1-3.5 3-5.2 4.7L179 351c-.8-5.8-2.4-13.5 1.6-18.5 3-3.2 6.6-6.8 11-8 7-2 14.3-2.3 21.6-2z" class="C"/><path d="M344.4 323.6l.7-.2 4-1-7 9.5 3 3c5.7.3 11.3.3 17 1.8 7 1.8 14 3.5 21 5.2v26.3l-33.8.8 12.8-12c4.7-3.3 10-5.2 15.4-6.5 0-1.5.8-3-.4-4-6.8 1-13.5 4.6-19.2 8.4-6 4-9.6 9-14.5 14-6.6.5-13.3 2-19.8 3l-2.6-7c7-6.7 13.5-13.4 22.7-17.2l-.3-3.8c-2.8.3-5 1.7-7.2 3.2l-16.6 13.5c-1.5-3.2-3-6.2-5.5-9-3.8-4.4-8.5-7.3-13.4-10.3 4.4-3.8 8.6-7.3 14-10 4-2 8.4-3 13-4l17-4z" class="B"/><path d="M174.7 331.3a39 39 0 0 0-1.6 18.6c-4.3.1-9.3 0-13.2 2-2.3 1.4-4 4.3-5.2 6.7-5 9.8-9.2 20-12 30.8l-16.2 8.6a30 30 0 0 1-4.5-10c-1-4.7.1-10 1.5-14.4a95 95 0 0 1 11.3-23.6c4.4-6.3 9.2-12.4 16.6-15.3a59 59 0 0 1 23.1-3.3zM221 343c7 .2 13.8 5.4 19.8 8.6.7 2.7 1.7 5.6 1.8 8.4-.1 5.5-2.5 10-5 14.7-8.3-3.2-17.6-6.6-26.6-6.4-8 .6-16 2-24 3 .3-5.2.2-11.7 3-16.4 1.8-3.5 7-4.2 10.5-5.5 7.5-2 12.8-6.8 20.5-6.6zm46.3.4c7.7-1.8 14.8-1 22.7-.6 4 0 7 2.8 10.3 4.8 5.4 3.6 10.6 6.4 13.6 12.5l8 22c1.8 4.2 5.2 7.7 7 11.8 1.4 3 .7 6.2-.8 9-4.8 8.6-12.2 14-18.5 21.5a19 19 0 0 1-10 6.8c-5.3 1.6-10.5-.2-15.6-1.8a99 99 0 0 0 6.9-13.8c3.7-9 4-20 5.8-29.8.7-5 2-12-1-16.6-3.3-4.4-9.6-6.7-14.6-8.6-5.3-2-10.3-1-15.7-.1a54 54 0 0 0 2-17.4zm-135.6 1.4l-11 21a48 48 0 0 0-3.4 23.2 33 33 0 0 0 5.6 13c-1.2 3.3-2.4 6.4-2.4 10s.8 7.2 1.5 10.8l-10.6 7-18-12-7-7a18 18 0 0 1-1.6-14.6c2-7.3 5.7-14.3 8.8-21.2 3-6.3 4.7-12.2 10-17 7.4-7 17.5-13.4 28-12.8zm31 12.2l20.6.7c-.8 6-1 12-1.4 18-7.5 5.4-11 13.3-13.2 22-2 1.4-4.2 2.7-5.2 5-1.2 2.8-1.7 6-2.3 9-5.3-1.4-11.2-2.4-13.5-8.2-2.5-6.6.6-15.3 3-21.7 3.3-8.3 6.5-17.6 12-24.7zm114.4 7.7c3.2.2 6.5 2.4 9.2 4 2.8 1.8 5.4 3.3 6.3 6.7 1 4-.6 9-1.2 13-2.5 12.8-2.6 25.4-10.5 36.3-3.8 6-12.2 7-18.4 4.7-4.6-1.8-6.7-5.6-9.2-9.6 8.3-4 16-7.6 21.5-15.3 3-4.2 2.7-10.4 1.7-15.2-2-8.4-6.3-16.3-12.4-22.4 4-1 8.8-2.6 13-2.3zm-23.8 5.5c4.4-1.2 8 1.6 10.7 4.8 4 5.4 7 11.2 7.5 18 .2 3 .5 7.2-1.8 9.6-5 5.6-12.4 9-19 12-9.7 4-19.8 3-29.7.6 8.3-7.4 19.5-15.4 21.2-27 1-4.3-1.4-10 1.8-13.2 2.6-2.3 6.2-3.6 9.4-4.6zm-44 3.3a47 47 0 0 1 13.6 1.2l.6 31.6-9.2 6.6-4-2.4-1-37z" class="C"/><path d="M339 373.4c2-.3 4 1.7 5.7 3a131 131 0 0 0 35.4 22.8l-.2-3.8-33.2-22.2 36.5-.8v36a1022 1022 0 0 1-23.2 6.7c-2.2.7-4.6 1.3-6.6 2.5-.6 3 1.5 5.2 2.8 7.7a123 123 0 0 1-34.4-5.3c5.2-6 10.4-11.7 13-19.5l15.2 8.2 2.6-2.7L337 397c-2.2-1.2-2.7-3.2-3.7-5.3-2.4-5.6-6.3-10-9-15.6l14.7-2.7z" class="B"/><path d="M205 373.7l.5 34.7-13.8-5V376a67 67 0 0 1 13.3-2.1zm22 2.3l10 3.5c.2 4.3.6 8-1.2 12-1.8 4.6-5 8-8.3 11.6l-.5-27zm-39.2 1.7c.3 8 .3 16.3.5 24.4l-14.3-4.4c1.2-4.2 2.3-8.3 4.8-12 2.4-3.5 5.7-5.7 9-8zm-46 17.6c.2 4.8-.5 9.3 2.6 13.4 4 5.4 10.3 6.4 16.6 7.3.4 3.2.6 7 2.2 10 2 3.4 5.5 6.3 8.3 9l-.3 14c-3 .1-6 .3-8.6-1.4L138 433l-9.3-7.7c-2.2-3-2.8-7.5-3-11.3-.2-4 .6-8 3.6-10.7 3.6-3.3 8.2-5.6 12.4-8zm41.5 10.5L207 415a36 36 0 0 1 11.6 8c-1 2.8-1.5 5.5-4 7.5-5.7 5-12.4 5.6-19.5 6.7-3.7.4-7.5 1.4-11-.5-6-3-11-8.6-15.7-13.4-2.8-3-2.6-6.8-2.5-10.5.2-3 1-7.2 3.6-9.3 4.2-1.3 9.6.7 13.6 2.2zm40.6 16.2a52 52 0 0 0 24.5-.2c2 3.6 4 6.6 7 9.6-.2 3.6-.3 7.4-1.2 10.8-.6 2.5-3 3.6-5 4.8l-28.4 12.6a44 44 0 0 1-10.6 3c-3.8.7-7.4-.6-11-1.5-6-1.7-11.7-2.5-17.3-5.8-1.7-1-4-2.4-4.4-4.4-1-4-1.2-8.2-1.3-12.4 3.8 2 8 4.7 12 5.3 4.6-.1 9.3-1.4 14-2 7.7-1.5 15.7-4.8 20-11.8 1.6-2.6 1.6-5.2 1.8-8zm-100 6c11.2 9.7 23.6 16.4 36.2 24 3.8 2.5 7.8 2 12 1.7 4.5 5.6 10.7 8.6 17.4 10.6 7.6 2 14.5 4.3 22.4 3.5-1.8 5-3.6 10.8-6.7 15.3-1.6 2.2-3.3 4-6.2 4-18.5 1.3-35-3-53-5.7-4-.7-7.6-1.3-11-3.8-4.4-3.4-7.7-8.4-12-12L108 455c-2.5-2-4-5.2-4-8.4.4-4 3-7 5.8-9.6 4-3.6 8.5-7 13.4-9.3z" class="C"/><path d="M107.2 432.2c-3 4.3-7.2 7.3-8 12.8-.7 6 2.4 10.5 6.2 14.8-2.4 4-5.3 8.6-6.5 13.3-.7 1.8 1 2.5 2 4 3-4.8 5.5-9.8 8.3-14.8 5.5 4 11 7.8 15.6 13l-5.2 4.3c-4.6 4-7.7 10-11 14.8l3.6 1.3c4.6-6.3 9.2-12.4 15.4-17.2l3.4 2.6-5.4 25-3 29c-.2 2.8.2 5.5 1 8.2l3-2.3c.1-9.7 1-19.2 2.2-28.8 3 5.4 5 11.3 8.2 16.4 1.4.4 3 .4 4.5.6l-9.5-19.7c-1-2-2-4-1.6-6.3l4-20a47 47 0 0 0 13.5 4.4c1.3 4 2 9 4.3 12.7l3.3.3c-.7-4.3-2-8.4-3-12.5 10.7 1.6 21.3 3.5 32 4.8-2.3 8.5-6.3 15.5-12 22.2l-4.7-13.4c-1-2-2.5-3-4.8-2.2-1.8 3-2.6 6.8-4 10-8.3 19.8-23 35.3-40.6 47a62 62 0 0 0-3.2-16.2c-2.7-8-7.4-15-9.7-23.2a62 62 0 0 1-2.4-17c-.1-2.8.1-6-.8-8.6-1.5-.4-3-.7-4.5-.3-1.3 2.2-2 5-3 7.2-1.2 3-3 5.8-5 8.6L87 480c-.7-6.6.2-13.5 1-20 1.4-9.6 6.5-18 13-25 2-2 3.2-3.6 6.2-2.7z" class="B"/><path d="M280 434.2l10.8 3.3c1.3 2.7 3 5.6 3.3 8.6 0 1.8-.8 3.8-1.5 5.5-3.8 9-6.8 17.6-12.4 25.8-2 3-4 3.4-7.3 3.6-10 .6-19.7 2.3-29.8 1-6.7-.8-16-1.2-21-6-3-2.6-3.8-6-4.6-9.6A288 288 0 0 0 247 454c3.5-1.8 7.7-3.7 10.3-6.7 2.6-3.4 3.2-8.3 3.8-12.4 6.5 1.7 12.5 1 19-.6z" class="C"/><path d="M297.8 452.6c6 3 11.8 7.2 15.6 13a96 96 0 0 1 11.4 26.5c-3.6-2.4-7-5-10.7-7.3-1.6-1.3-4.2-.3-5 1.3.5 5 2.2 10 2.6 15 .7 8.8 2.4 16.5 1 25.3-2 15-13.3 28.6-15.3 43.5l-26-12.2c-5.4-3-10.6-6.6-14.4-11.6-2.6-3.5-4.8-7.3-7-11-3-5-4.3-10.4-8-15l-4 .8-7.3 10.6c-5-15.4-6.7-31.4-5.6-47.5 7.6 2.3 15.2 3.4 23 3.8-1.4 5-3.7 11-3.3 16.2l2.4.5c2.8-5 3-11.3 5-16.7l19-1.6-8.5 27.4c-2 6.3-4.4 12-5 18.6 2-1.7 4-3 4.6-6l11-35c2.2 5 4.2 10.3 5.2 16 1 5.7 3 10.8 1 16.5-1.8 8-5.7 16.6-5.5 25 1.4-1.3 3.4-2.5 4-4.4l4.2-16.8 5.8 26.3c.6 1.8 1 4 2.2 5.5 1.3.4 2.6.7 4 1-1.8-7-4.5-13.6-6-20.7-1.4-7-2.5-14.3-3.8-21.4a67 67 0 0 1 10.5 9.7c3 3.3 4.7 7 9 8.7l.7-3.3c-3.5-5.2-7.5-10-12.4-13.7-3-2.4-6.4-4.4-8.8-7.3-1.4-2.6-1.6-6-2.4-8.8-1.4-6.5-4.2-12.2-7-18.2 2.8.2 5.3.1 8 1.4a87 87 0 0 1 21 14l1.6-3c-6.3-6.4-13.8-11-21.7-15.2 6.7-9.4 10-19.6 14.6-30z" class="B"/></svg>