<svg xmlns="http://www.w3.org/2000/svg" viewBox="0 0 400 610" width="533.3" height="813.3" xmlns:v="https://vecta.io/nano"><style><![CDATA[.B{fill:#9260c7}.C{fill:#fff}.D{fill:#858585}]]></style><path d="M0 0h400v610H0V0z"/><path d="M18.5 16.4l74.3-.1-4 3.4c-7.4-.6-14.4-.2-20.4 4.7C60.5 30 58 39 57.6 48c-.1 2 1.4 3.5 3.4 3.5 8.3.6 17.2-1.7 23.7-7 6-5.7 8-13.4 8-21.4 3.6-2.8 6.2-7 11-7.3-1.5 9.4-3.6 18.8-5.8 28-.7 3-1.5 6-3 9l-.2 4.5-17.5 16c-4.7 0-9.8-.1-14 1.6-4.8 2-8.6 5.5-11.3 9.8-3.4 5.7-4.5 12.8-4 19.4 2.6 1.5 6.3 1 9.2 1 8-.3 15.7-4.2 20.5-10.7a28 28 0 0 0 4.5-17.3l9.7-9.5c-3 8.5-4.7 17.8-9 25.7a48 48 0 0 1-4.3 12c-5.5 3.7-12 6.2-17.8 9.5l-4-1.4c-3-1-6.8-.1-10 .2-4 .7-7.5.5-11 2.8-6.7 4-10.7 12-12.3 19.6-.6 2 1 3 2.7 3 8-.3 16-.5 24-1.3 3.6-1.4 6.8-4.7 9-7.7 2.5-3 3-6.7 4-10.5l12.6-7a360 360 0 0 1-18.2 40.2 28 28 0 0 0-23.8 9.9c-4 5.3-5.2 12.8-5.2 19.2-.1 1 .1 2 .6 2.8 11 2.7 24-2 29.7-12 2.4-4 3.4-8.2 3.2-13-.2-4 2-6.8 3.6-10.4A473 473 0 0 0 86 99.9l8.6 13.6c-1.7 7.6-2 17 2.8 23.6 5 6.2 12.8 10 20.5 11.4 1.8.3 3.4 0 4-2 2-7.2 2.2-16.5-2-23-2.7-4-5.7-7.8-10-10-3.4-2-7-2.3-10.6-3l-11-17c3.7-11 7.3-22.2 10.4-33.5l8.3 12.3c-2.3 6.5-2.4 13.2.7 19.5 4.4 9.6 14.5 14.8 24.8 15.3l.5 92.5c-1.8-.8-4-2-6-2-4 .3-7.3 2.4-9.7 5.3-5.7 6.6-8 16.2-12 23.2-3.8 4.4-8.5 8.2-12.5 12.4L88 208.3l12.2-17.4c1-1.4 2-2.5 3.6-3.3 5.8-3.2 12-6.7 16.7-11.4 3-3 5.4-6.2 5.4-10.6.4-5-3.8-9.3-8-11-4.6-1.7-10 1.5-12.7 5.4a57 57 0 0 0-7.3 23.7c-.3 2.4-1.6 4-3 6L87 201l-7.4-46.6c-.3-1.7-.5-3.3-1.7-4.6-1.8.1-4.3.3-4 3l14.5 92.3-15-4.8c-1.7-.6-3-1.3-4.4-2.5a70 70 0 0 0-19.3-13.6c-3.5-1.5-8-1.6-11.3.2-2.7 2-4 6-5 9-1.6 5 2.6 9.3 6.8 11a39 39 0 0 0 19.6 1.2c4-.4 7.6-1.5 11.5-.2l17.6 5.6 3 35-12.6-3.6c-2-.7-4-1-5.6-2.5-5.6-5-11.4-10.3-18.2-13.8-3.7-2-7.5-3-11.6-2-3 .6-4.7 3.4-5.8 6-1 2.7-2.2 5.5-1 8.4 1.4 4 4.7 6.3 8.5 7.3a42 42 0 0 0 17.3.6c4-.4 8.4-1.7 12.5-.2l17 5.6 1.7 46-15-5.2c-2-.7-4.2-1.6-5.8-3.2A75 75 0 0 0 58 317.7c-3.5-1.7-7.2-3.3-11-2.3-5 1-8.2 6.6-8.5 11.3-.3 5 4.7 9.2 9 10.6 8 2.5 16 .4 24-.5 3-.4 5.3.6 8 1.5l14.8 4.8-.3 39-13.6-8.3c-2-1.2-3-3-4-5-3.8-6.4-8.7-14-15.3-17.7-3-2-6.7-2.3-10-1-3.6 1.3-6 5.5-7.2 9-1.3 4 1.6 7.5 4.4 10 6 4.6 14.4 6.4 21.7 7.3 2.6.4 6 .3 8.2 2L94 388.8l-2.4 38.4-11-9.3c-1.4-1.2-2.2-2.5-3-4.2-2.8-6.8-6.2-14.3-11.3-19.6-2.7-2.8-6-4.6-10-4.7-8-.3-14.6 10.4-9.3 17 5 6.5 14.7 9.6 22.3 11.7 2.8.8 5.4 1.2 7.6 3.3l14 12.6-2 18.5c-.3 3.8-3 7-4.5 10.8-2.4 6.3-5.4 13-4.7 19.8.4 4.2 2.8 8 7 9.2 3.7.8 8.3 1 11.6-1s4-5.5 4.2-9a42 42 0 0 0-4.6-19.6c-1.4-3.4-3.6-6.6-3-10.4l2-21.6 15-5.8a19 19 0 0 1 7.4-2c7.4.5 16 1 23-1.5 4.2-1.4 8.3-4.6 9-9.2a13 13 0 0 0-7.2-12.9c-5-1.8-10.7 1.4-14.7 4-5.5 3.4-8.8 8.3-13.3 12.7-1.7 1.6-3.7 2.3-5.8 3l-13 5 2.2-39 14.3-9.2c1.8-1 3.7-2.5 6-3 7.2-1.3 15.2-1.2 22-4.2 3.4-1.5 6.3-3.6 8-7 1.3-2.3.8-5.4 1-8 .7 8 2.8 15.4 4.4 23.4l14 50.3c10.5 31.5 24.2 62 44.3 88.8 1 1.6 2.3 1 4 1.2l127-5.2c2-.1 3.7-.4 5.3-1.7-.5-3.7-3-5.8-5-8.7-18.3-24.4-31.6-51-42.6-79.4-16.6-43-27-88.7-34-134.2 6 3.3 12.2 4.7 18.4 7 5.3 4.3 10 9.5 15 14l-.5 27c.2 4.6-3 8.8-3.8 13.4-1.2 6.7-4 14.6-2.3 21.3 1 4.6 5 7.5 9.6 8 5.6.8 12.6-3.6 12.5-9.7 0-10-5-18.7-9.3-27.2-2.2-3.8-1.2-7.6-1.3-11.8.3-4.3-.2-9 .7-13.2 4-3.4 8.6-6 12.8-9.3 2.3-1.5 4.8-3.8 7.5-4.2l15.5-3.6c4.3-1.6 9.6-4 11.7-8.4 2.4-4.7-.4-10.3-4-13.6-3.5-3.4-9-2.5-13-.2-5.2 3.4-9 9.4-12.4 14.7-2 3.2-3.5 7.3-6.6 9.4l-12 9 2.7-43.4 14.2-7.7c2.8-1.4 5-3 8.4-3 7-.1 14-.4 20.6-3 3.2-1.3 6.2-3 8-6 1.7-3 1.6-6.3.1-9.2-1.6-3.3-3.7-6.8-7.7-7.5-5.3-1-10.4 2.7-14.2 6-5 4.4-8.7 10-13 15-5 3.5-10.7 6-16 9l3-30.3 15-11.4c1.6-1.2 3-2.3 5-2.5a50 50 0 0 0 24.4-9c4.5-3.8 5-10.5 1.4-15-2.8-4-8.8-6.6-13.3-3.7-9.4 5.6-12.8 15.2-18 24-3.8 4-9 7-13.4 10.6l6.7-46.5a55 55 0 0 0 4.6 5.1c1 1 2 1.7 3 .6a39 39 0 0 0 9.9-13.2c2.3-5 2.2-11.3 1-16.7-1.3-5.2-4.5-9-8-12.8-1.6-1.6-1.3-3.6-1.6-5.7l-.8-36.3 8 10.5c-.6 7-.5 13.4 3.3 19.4 4.5 7.4 12.2 11.7 20.6 13 2 .2 4.6 1 6.4-.1 1.7-9.5 1-19.6-6-27-5.3-6.2-12-7-19.3-8.6-4.3-4.3-8-9.5-12-14.2-1.7-1.7-1-3.7-1-6l3.5-37c1.8 3.6 4.3 6.8 6.2 10.3 1 1.5.4 3 .3 4.7-.6 4.6-.4 9.5 1 14 2.2 6.5 7 11.8 13.4 14.6 4.5 1.8 8.8 3.6 13.6 1.7 1-5.8 2-11.4.6-17.3-1.5-7-6.4-12.8-12.8-16-3-1.7-6.5-2.2-9.7-3.4-2.8-2.8-4.6-6.7-7-10-1.4-2.4-3.8-5-4.4-7.7l4-22.8 7.5.1 2.7 4c-.5 4.5-1.4 9.2-.7 13.7.7 5 3.6 10 7 13.5 5 4.8 11 6.6 17.8 8l3.4-2c1-6.2 1.7-12-.1-18.3-1.8-6.2-6.3-11-12-14-4-2.3-8.6-2.7-12.6-4.8 10.3-.6 20.7-.1 31-.3v579h-363V27l.1-10.6zm90.7 0a59 59 0 0 1 4.2-.2l2 3.8c-2.4 7-3.3 15.4-.6 22.3 3.6 8.2 11.3 13 19.5 15.6 1 .4 3.3.6 3.8-.7 3.7-8 4.3-17.5.3-25.5-2-4.4-5.7-7.5-9.8-10-3.2-2-6.8-2.3-9.7-5 6-.4 12-.1 18-.3 0 3.6-.1 7.6.8 11l1.4.4a36 36 0 0 0 25-11.6h32l2.4 5.8-6.8 17.8c-3.6 2.8-8 4.2-11.4 7.5-6 5-8.3 13-7.4 20.7a42 42 0 0 0 5 14.4c9.4-2 18.7-9.4 21.5-19 2-7-.2-14-3.5-20.3l5.5-14L213 59.7 205 78a41 41 0 0 0-16.2 12.7c-2 3-2.5 7-3 10.6l-50.8.3c1-7 .6-14-3.3-20.2C127.4 74 119 71 111 69.7L102 55c-1.6-2.2-.4-4 0-6.3l7.3-32.4z" class="C"/><path d="M141.7 16.3h15c-4.5 3-9 4.7-14.3 5.7l-.6-5.8z" class="D"/><path d="M202 16.2H326c-3.6 2.5-6 7-11 6-8-.4-17.8 2.2-22.3 9.4A36 36 0 0 0 287 53c9 2 20.3 1 27-6 6-5.5 8.6-12.8 8.5-20.8l10-8.7c-2 7.4-2.6 15-4.6 22.3a78 78 0 0 1-1 8.7L313 57c-1.2.7-2.6 1.7-4 2l-19 1c-2.7.1-4.6 1.6-6.6 3.4-4.5 4.2-7.4 9.8-9 15.7-.4 1.6-1.3 3.3-.1 4.8 6.3 2.5 13.7 3.4 20.3 1.5 7-2.2 13.3-7 16.2-13.8 1.3-3 1.5-6.2 2.8-9 4-2.7 8.4-5 12.6-7.6-1.4 12-2.3 24-2.7 36-.2 2.2.4 5.4-1 7.2l-7.6 10.4c-1.8 2-2.4 4.5-5.5 4.5a27 27 0 0 0-17.4 8.6c-4.3 4.4-6 10.3-6.3 16.4.1 4.5-.5 8.5 3.2 11.8 9.2-1.3 17.8-4 23.3-12 4.7-6.5 4.8-14 3.6-21.6l7.8-10c.1 11 .6 22 1.6 33-6.7 6-10.7 14-10.4 23 .2 3.4 2 6.6 1.6 10l-10.4 78.2c-2.2-3.6-4.7-7-7-10.7-2-2.5-1.5-6.2-2-9.2-1-7-2.6-15-7-20.6-3-3.8-7.8-5.4-12.5-3.7-6.6 2-9 10.2-5.7 16 4.4 7.7 13 13.3 20.4 17.6 2.5 1.2 3.8 4.5 5.3 6.7 2.4 4.3 5.6 8.4 7.5 13-1 14.4-2.4 29-3 43.5l-10-9c-3.3-2.7-4-7-6-11-3-6.2-6.6-13.6-12-18-3-2.3-6-1.6-9.3-.8l-6.6-63c2 .2 4 1.6 5.3-.7 3-7.3 4.4-16.6 1.3-24-1.8-4.4-5-7.2-8.6-10.3l-.6-14c7.3 6.2 16 7 25.3 6l2-3.5c-1-8.8-3.4-17-10.5-22.8-5-4.2-11-5.7-17.3-5.2v-17.8c4.3.2 9.2.7 13.5-.5 1-4-.3-8.5-1.4-12.3-2-7-6.8-12.5-13-16-5.2-2.6-11-3.3-16.7-2L224 67c-1.3-1.2-3.2-2.4-3.8-4l-9.8-26.8 10.8 7c1 3.8 1.8 7.5 3.8 11A24 24 0 0 0 242 66.2c6.3 1 12-.3 18-2-1.8-7.8-5-17.7-12-22.3-7.3-4.3-16-5.8-24.3-3.3l-16.7-11c-2.2-3.5-3-7.7-5-11.4z" class="C"/><path d="M119.4 23c6.2 2.7 12 5 14.7 12 2.6 5.6 1.6 11 .5 16.7-5.5-2.4-11.4-5.3-14.6-10.6-2.8-5.6-1.7-12-.5-18zm233.2 0c6.5 1.2 12 4 15.8 9.7 3.8 5.2 3.5 11 2.8 17-3.5-1-7-1.7-10-3.7a19 19 0 0 1-7.4-9.6c-1.4-4-1-9-1-13.4zM87.3 25c-.5 6.5-2.3 12.5-7.6 16.7-5 4-10.4 4.2-16.4 4 1-6.8 2.4-13 8-17.3 4.7-3.8 10-4 16-3.4zm229.2 2.7a23 23 0 0 1-6.3 15.5c-5 5-11 5.5-17.7 6 1-6 2-12.4 7-16.7s10.8-4.7 17.2-4.6zm-90 15.3l17.2 2c5 2.7 8 10 10 15-6.3.6-13 1.3-18.7-2.4-5.2-3.5-7.3-9-8.5-14.8zM192 45.5c2.4 6.2 3.7 12.3 1.3 18.7-2.6 5.7-7.5 8.7-12.6 12-2.2-5.6-3.4-11-1.3-17 1.7-6.8 6.7-10.6 12.6-13.7zM344.6 62c5.4 1.4 10.3 3 14 7.4 4.5 5 3.7 13 3.8 19-6.4-2-12.8-4.4-16.6-10.4-2.6-4.7-1.7-11-1.2-16.2zm-53.4 2.7l16-1.3c-1.8 6-4 11.7-9.7 15C292 81.7 286 81 280 80c1.6-4.2 3-8.5 6-12 1.4-1.6 3-3 5-3.3z" class="D"/><path d="M215.4 67a618 618 0 0 1 10.6 34.1l-13.4.1c.7-3 1.4-6 1-9.2-.5-4-2.3-8-3.5-12l5.3-13zm8 6.7L232 81c1 2.5 1 5.6 1.8 8.2 1 4.5 3.4 8.3 6.2 11.8h-8.5a763 763 0 0 0-8-27.3z" class="C"/><path d="M111.5 74.6c6.4 2 12.7 4.7 16 11 3 5 2.7 10.5 2 16.2-6.3-2-12.4-4-16-10.2-3.2-5.5-2.6-11-2-17zm-34.8 3.2c-.5 6.2-1.6 12.3-6 17-5 4.5-11 5.3-17.4 5.7.5-6 1-11.3 5.2-15.8 5-5.2 11.3-6.4 18-7zm129 5.2c2.8 5.8 2.8 11.7 2 18l-16.2.2c1-3.4 1.5-7.4 3.7-10.2 2.7-3.6 6.7-6 10.6-8zm32-.6c6.4-.1 12.3.2 17.3 4.6 5 4.3 6 10 7.4 16.2a33 33 0 0 1-15.1-3.5c-6.2-3.7-8.8-10.4-9.6-17.3z" class="D"/><path d="M139.3 108.3l2.7-.2 106-.6c-.2 36.2 1 72.4 4.6 108.4a1218 1218 0 0 0 12.8 94.5c7 39.2 16.6 78 31 115.2 11 28.5 25 55.7 43 80.4l-121.8 4.6c-14.5-19.3-25.4-40.5-34.3-63-18.6-47-28-96-35-145.8-8.8-64-11-129-8.8-193.6z" fill="red"/><path d="M342.6 110.6c6 .6 11.6 2.4 15.6 7.2 4.6 5 5 11 4.6 17.5-6.2-1-13-3-17-8-3.5-4.5-3-11-3.2-16.5zm-243 5.6c6.8 1 14 5 16.6 11.7 2.2 4.8 2 9.6 1.3 14.7-3.7-1.2-7.3-2.3-10.6-4.5-7-5-10.6-13.7-7.4-22zM310 118c.8 6 1 11.8-3 17-4 5.8-10 7.6-16.4 9-.3-3.2-.7-6.2.1-9.5 1-4.5 4-8.4 7.4-11.4 3.5-3 7.5-4 12-5zm-268 1.5c5.4-.3 10.8 0 16.2 0-1.5 3.7-2.8 7.2-5.6 10.2-1.6 1.7-3.3 3.4-5.8 3.6L29 134c2-4.2 4-8 7.4-11.3 1.5-1.4 3.4-3 5.5-3zM254.5 131c6 .6 11.7 2 16 6.5 4 4.3 5 9.5 6.4 15-5.5-.4-11-.5-15.7-3.7-2.4-1.7-5-4-6.2-7-.8-3.5-.5-7.4-.5-11zm73 12.7c4.6 4.8 8 10.4 7.8 17.3-.5 6.2-4.4 10.3-8.5 14.5-3.7-4.8-7-9.2-7.3-15.5-.2-6.7 3.5-11.7 8-16.3zM57 158c-.4 6.3-1.2 12.2-6 16.7-5 4.5-10.8 5-17 5.3.8-6.8 2.3-13 7.8-17.7 4.4-4 9.7-4.5 15.4-4.3z" class="D"/><path d="M112.7 160c1.8.2 3.6.4 5.3 1 2.7 1 4.3 4 2.7 6.6-3.3 6.3-11.2 10.6-17 14.3 1.7-7.2 3.4-16.6 9-21.8z" class="B"/><path d="M255.8 173.2c2 3.5 4.4 6.6 4.4 10.8 0 4-.7 8-1.6 11.8-1-1.5-1.7-3-1.8-4.7l-1-17.8z" class="D"/><path d="M354.7 195c.3 2.6 2 5.4-.3 7.5-5 5.2-14.2 7-21 8.5 3.6-5.7 7.3-12.7 12.8-16.7 3-2 5.4-.4 8.4.7zM126 203c4-.2 5.2 4.4 7 7-4.2 8-12.4 10.4-20.2 13.4 2.5-7 6.2-17.2 13.3-20.4zm156.7 7c6 5.6 7 15 8.6 22.7-5-3.2-11-6.6-14.8-11.2-1.5-2-3-4.6-2-7 1.8-3 4.8-4 8-4.5z" class="B"/><path d="M134 217.7l1.8 24.4c-2.3-.6-4.3-1.4-6.7-.8-3.6.7-6.4 3.4-8.5 6.2-4.8 6.5-7 14.8-11.4 21.6-3.8 4-8.2 7.5-12 11.4-1-11.8-2-23.6-3-35.4l12.5-12.6c3-3.5 8.6-4.5 12.8-6a42 42 0 0 0 14.7-8.6z" class="C"/><path d="M45 228.2c7 1.4 13.3 7.2 18.5 11.8a69 69 0 0 1-17.5.8c-2.5-.3-5-1-7-3-1.4-3.5 1-11.3 6-9.7zm307.7 8c4.2 1.7 5 8 1 10.5-5.7 4-14.4 4.2-21 4.4 3.6-4.4 7.4-9 12-12.5 2-1.6 5.3-3.3 8-2.4zM131 246c5 0 7.6 7.8 3.8 11-4.8 4.7-12.4 7-18.7 9 2.3-5.2 4.8-10.8 8.4-15.2 1.7-2 4-4 6.5-4.6z" class="B"/><path d="M137.5 261.6l4.3 37a18 18 0 0 0-6.2-7.4c-3.5-2-8-1.4-11 1.2-6 5-8.7 12.8-11.3 19.7-1 2.8-1.7 6-3.8 8.2l-10 11-1.8-44.5 14-13.2c2-2 4.3-2.4 6.8-3.2a56 56 0 0 0 19-8.9z" class="C"/><path d="M272.7 270.3c4.7 4.6 7.3 12 10 17.8-4.7-1.7-9.7-3.3-14-6-1-.6-2-1.2-2.2-2.4a76 76 0 0 1-1.4-10.8c3-1.3 5-1 7.6 1.3zM48 269c7 1.3 13.5 7.2 18.7 11.8-6.3.8-13.6 2-19.8.3-2.8-.8-5.6-2.6-5-6 .4-3 2.2-7 6-6zm297 11.6c3 .6 4.5 3.4 4.7 6.3-.2 2.6-2.4 4.3-4.4 5.5-5.2 3-11.5 4.6-17.2 6.2 2.6-5.4 5.5-11.2 10-15.3 2-1.7 4.2-2.7 6.8-2.7zm-214.8 14.7c3.7 0 6 3.6 7 6.6-.7 2.8-2.7 4.7-5 6.4-4.4 3.4-10 5.6-15 8l7.4-16.5c1.3-1.8 3.2-3.8 5.4-4.5z" class="B"/><path d="M142.3 304.6c1.4 12 3.3 23.7 5.3 35.4l2.7 14c-2-4.4-5.2-8-10.2-8-5.3 0-10.3 4.6-13.8 8.2-4.4 4.3-7 10.3-11.3 14.6l-15.5 9c.5-13 .1-25.8.5-38.7 4-4.7 8.2-9.3 12.3-14 2.2-2.6 5-3.7 8-5 8.2-3.4 18-7 22-15.6z" class="C"/><path d="M49.8 320.3c7.2 1.3 13.8 7.7 19 12.5-6.2.5-13 1.2-19.3-.2-2.6-.7-6-2.3-5.5-5.6.4-3 1.8-7.7 5.8-6.7z" class="B"/><path d="M337 321.6c1.6.4 3 1 4.6 1.8.3 2.2 2 5.2-.4 6.8-2 1-5.7 1-7.5-.8a5 5 0 0 1 3.3-7.7z" fill="#333"/><path d="M303.2 346a56 56 0 0 1 8 17.6c.6 2.7.6 6.4-1.3 8.6-2.7 1.7-7 .2-10-.3a49 49 0 0 1 2.3-22.5l1-3.4zm-163.6 5c3 2 4.8 3.5 6.5 6.7-2 2.4-3.4 4.7-6.3 6-5.2 2.4-11.5 3-17 3.3 4.2-6 9.4-14 17-16z" class="B"/><path d="M351.2 353c3.2-1.5 6.7.2 6.7 4 .1 3.8-3.7 5.7-7 4.2-3.2-1.5-2.3-6.7.4-8z" fill="#333"/><path d="M55 353.8c7.4 3 12.2 10.8 16.3 17.3-6.2-1.2-13.4-2.3-19-5.5-1.5-1-4-2.4-3.5-4.6.4-4 3.2-5.3 6-7.2z" class="B"/><path d="M336.2 390.2c3.4-2 8.4 1 8.3 4.8-.6 4-7.3 5-9.2 1.6-.8-1.8-1-5.2 1-6.5z" fill="#333"/><path d="M56 394c2.3 0 4.6 2.2 6 3.8a69 69 0 0 1 9.2 15.3c-6.2-1.8-13.4-4-18.4-8-1-1-3.2-3-2.5-4.7 1-2.5 2.7-6 5.6-6.4zm84.8 10c1.8 1 3.4 2.6 5 4-.7 2.6-.2 5.8-3 7-6 3.3-14.8 2.6-21.6 2.2 4.2-4.3 8.7-9 14-11.8 1.6-.8 3.7-1.7 5.5-1.3z" class="B"/><path d="M356.4 405.4c1.4-.3 3.2-.2 4.4.7 3 2.5 1.6 9-2.8 9-3-1-4.8-3-5.6-6 .8-1.7 2.2-3 4-3.6zm-23 14.2c2-.7 4.6-.6 6.3.5 2.4 2 2 6.4-1 7.7-2.3 1-5.8.8-7-1.8-.7-2-.8-5.4 1.6-6.4zm14.7 12.6c2-.7 4.7-1 6.4.3 1.6 1.4 1.4 4.3 1 6-1 4-7.8 3.7-9 0-.8-2.2-.6-5.3 1.8-6.5zm-301 26c1.8-.5 4.3-.6 6 .5 2 1.4 2 4.4 1 6.4-1.5 3.2-7 3.5-8.6.3-1-2.3-1-6 1.7-7.2zm304 2c3.3-1.4 7.5.7 7 4.7 0 4-5 5-8 3.4-1.8-2-1.8-6.8.8-8z" fill="#333"/><path d="M91.7 460.5c2.3 6.2 5.3 12.8 6 19.5-.2 3-1 7.3-4.6 8-3 .8-5.3-.6-8-2-.4-9.2 2.4-17.4 6.6-25.5z" class="B"/><path d="M44.3 480.3c1.8-.8 4.3-.8 5.8.7 1.7 1.7 2 4.8.8 6.8-1 1.6-3 2-5 1.7-4-1.2-6-7-1.7-9.2zm90 2c2.6-1.3 7.4-1 8 2.7s-3 6.7-6.3 6.4c-3.8-.7-4.6-7-1.6-9zm-73 20c3-1.2 6.5 2.4 7.2 5 .4 4.7-7.4 6.2-9.3 2.3-.8-2.4-.7-6.3 2-7.3zm90 6c2-1.6 6-1.5 7 1 .7 2 .6 5.3-1 6.8-2.7 1.8-7.2 1-8-2.5-.7-2 1-4 2-5.4zm-31.4 1c2 .3 3.5 3 5 4.4l-2 4-3.7 1.4-2.8-1.3-1.5-4.3c1.3-1.6 2.8-4.7 5.2-4.3zm-27.5 16.3c2-.6 4.7-.6 6.3.7 1.5 2 .5 4.4-.3 6.3-2 2.2-6.3 2.5-7.5-.6-.6-2-1-5.6 1.6-6.4zm95 4c1.6-.6 3.5-.6 5-.2 2 1.2 2 4.5 1.5 6.5-.7 2.7-4 2.5-6 2-3.6-.8-3.8-7-.6-8.3zm-118 3c1.7-.4 3.6-.4 4.8 1 1.2 1.7 1.3 5 .3 6.8-1.3 2.3-5 2-6.7.7-3-2.3-2-7.7 1.7-8.6zm96.7 1.6c3.2-1 7.2-.2 7.2 3.8.7 5-6 6.5-8.6 3.2-1-2-1-6 1.4-7zm183.2.2c2.6-1.4 8-1 8.3 2.8.2 3.6-4.5 7-7.8 5-1.8-1.8-3-6-.5-7.7zm-86 3c2-.6 5-1 6.5.7 2.8 3.6-1 9.6-5.5 8.5-4-1-4.7-7.6-1-9zm-135.2 2.2c1.8 2.3.5 4.8-.1 7.3-2 .3-5 2-6.3.1-1-1.2-2.8-3.5-2.2-5 .6-4 6.3-5 8.7-2.4zm95.3 1c2.3-1 5.8-.7 6.8 2 .8 3 .4 7-3.3 7.4-4.7 1.4-8.8-7.5-3.5-9.3zm-171 2.6c1.8 2 .3 4.7-.1 7-2.2.5-5 2-7 .1-1.6-1.6-1.5-5.4-.2-7 1.5-1.5 5.7-1.5 7.2.1zm95.4 2.3c1.7.2 3.5.6 5.2 1 .4 2 1.6 4.3.5 6-1 2-4.2 2.3-6.3 1.8-4.2-1-4-8.7.6-9zm190.2 2.3a8 8 0 0 1 5.7-.1c3 1.6 2.8 7-.4 8.3-2.6 1-5.7-.5-6.8-3-1.2-1.8-.3-4.2 1.5-5.2zm-234 1.3c1.8-.7 4.2-.7 5.7.7 2.5 2.3 1.7 7.2-1.5 8.4-1.7.5-3.7.3-5-.8-2.6-2.2-2.4-7 1-8.3zm152 1.4c1 1.3 1.6 2.8 2.4 4.2-1.5 2.5-2.5 4.8-5.7 5.2-4-.3-4.5-5.4-3.2-8.2 1.3-2 4.6-2 6.5-1zm55-.3c2-.4 4.5-.3 6 1.2 1.3 1.6 1.2 4.2.3 6-1.6 3-7 3.5-8-.1-.6-2-1-6.4 2-7zm-246 3c4-1.6 8.7 5.2 5 8-1.7 1.3-4.8 1.3-6.7.5-3-1.7-1.5-8 1.6-8.6zm114.8-.2c3.4-1.6 8 .4 7.5 4.6-.1 4-5.2 4.8-8.2 3.3-2.5-2-2.2-6.5.6-8zm105.7 1.5c.8 2 .8 5-.8 6.5-1.5 1-4.2.3-6 .3l-1.8-4.6c-.1-4 7-6 8.6-2.2zm-202 3.7l4.7 2 1 4.2c-.7 4.4-8 5-9.5 1-1-3.5.4-6 3.7-7.2zm38 2.5c1.4 1.3 3 3.6 2.3 5.6-1 3.6-6.5 4.6-8.7 1.8-1.6-2.5-.5-4.8.4-7.3 2-.6 4-1.6 6-.1zm93-1c3.8.5 3.6 4.8 2.7 7.5-1.2 2.5-4 2.5-6.3 2-1.3-1.5-2.2-3.4-3.2-5 2-2.7 3-5 6.8-4.4zm-79 1.5c3.4-.1 5.4 2 6.6 5L141 570c-2.3.4-5.2 2-7.2 0-2.4-2.4-1.5-7.7 2-8.6zM53 569c.8 2 .8 5.4-1 7-2 1.8-4.4.5-6.7-.1-.7-2.8-1.3-4.8 0-7.6 2.5-1 5.7-2.2 7.5.6zm239.4-1.6c2-1 5-1.2 7 .2 1.5 1.5 1.4 4.5.7 6.3-1.2 2.3-4.5 2-6.6 1.5-3.4-.8-3.7-6.4-1-8zm40.4-.2c3 1.4 3.6 6.6 1 8.5-2.4 1.4-4.6.2-7-.3l-1-4.3c.7-2.8 4.3-5.5 7-4zm-66.8.8c2.7.6 3.3 3 4.6 5-1.5 2.6-1.8 5-5.5 4.8-3.3.2-3.6-2.5-5-4.7 1.4-2 2.5-6 5.8-5zm92.4 5c-.2 1.7-.7 3.4-1 5-2.2 0-6 1.3-7.3-1-1-2-1-5.6 1-7 2.7-1.7 7-.2 7.5 3zm-263-2.7c2-.6 4-.7 5.4 1a8 8 0 0 1 .3 6.6c-1.3 2.4-4.8 2.2-6.8 1-3-2-2.2-7.3 1-8.5zm96 0c3-1 6.2.3 6.4 3.8.4 3.3-1 6-4.6 5.7-5.2 0-6-7.4-1.8-9.5zm48.7.7c.5 2.4 1.8 5 .1 7.3-2 2.5-7.2 1.8-8.4-1.3-.8-2.2-.7-5.3 1.7-6.5 2-1 4.5 0 6.6.5zm-84.6.4c4-1 8 5 5 8-2.8 3-9 2-9.4-2.6.7-2.2 2.3-4.6 4.4-5.6z" fill="#333"/></svg>