<svg xmlns="http://www.w3.org/2000/svg" viewBox="0 0 400 610" width="533.3" height="813.3" xmlns:v="https://vecta.io/nano"><path d="M0 0h400v610H0V0z"/><path d="M19 16.2l30.3.1c-2 2-3.3 4.4-6.3 4.5l-16 2-8-6.5z" fill="#fff"/><path d="M56.3 16.5c3.2-.5 6.5-.2 9.7-.2 5.4.1 10.2-.7 15.3 1.4-4 5.2-8.4 9.6-15.2 10.4-6.4.8-11-2.4-16-5.8 2-2 3.8-4.7 6.3-5.8z" fill="#858585"/><g fill="#fff"><path d="M87.7 16.2h63c-2.6 1.3-5 2.5-7.3 4.2-7 5.2-10.6 15-9.3 23.6.6 4.8 2.6 9 5 13.2l3.3.6c6-3 11.3-7 14.5-13 2.7-5.5 4.3-11.5 2.6-17.6-1-4-3.6-7-4-11l10.4-.1 12 26c.4 1.3 1.6 3.2.7 4.4l-9.2 15c-7 1.5-13.4 4-17.8 10a25 25 0 0 0-5.4 16.1c-5.3-3.5-11-6-17.4-5.4a27 27 0 0 0-14.5 7c-1.7 1.3-3.2 3.3-5.5 3-6 .1-12 0-17.8 0-7-9-14-18-21.6-26.5h14c5.7 6.6 13.6 10.5 22.5 9.6 9-.8 14.5-6.5 20.6-12.5-4-4.2-7.6-8.3-13.2-10.7-6.8-3-14.3-2.3-21 1-3.5 1.8-6.6 5-9.5 7.5H65L32.3 27.7c4.3-.5 8.4-1.4 12.7-1.8 1.3-.2 2.5 1 3.5 1.5 5.5 4 12.6 7 19.5 5.6C75.6 31.7 82.3 25.8 87 20c1-1 .7-2.3 1-3.7z"/><path d="M171.3 16.3c5.2-.3 9.8.1 14.7 1.5 2.2 3.6 4 7 7.4 9.8 3.8 3 8.7 5 13.6 5 6.8 0 13.6-2.8 19-6.6 1.6-1 1-2.3.6-3.7-1.2-2.2-3-4.2-4.5-6.2h103.2l-3.5 8.5-18 8.6c-2.4-1-4.6-2.2-7.2-2.7-6.5-1.6-13.8.3-19.3 4-6.4 4.4-10 11.5-12 18.8 1.4.6 2.7 1.2 4.3 1.2l22.7-.2a20 20 0 0 0 9.1-6.7c2.5-3 3.4-6.4 5-9.8 4-2.6 8.5-4.2 12.6-6.5L307 71c-.4 1.8-2 2.6-3 3.8-4 3.3-8 6.8-12.2 10.2-7.2-1-14.2-.2-20 4.6-6.6 4.6-9.5 11.6-10.8 19.3-.2 2-1.3 5 1 6.3 1.7 1 4.3.6 6.2.7 7.6-.3 15.7-2 20.8-8 4.6-5.2 6.4-11.7 6.5-18.5l9.4-8.5L299 109l-16 11.4c-9-2.7-18.7-1.8-25.3 5.3-5.7 5.8-7.5 13-8.7 20.8 11 5 25.8 1.5 32.6-9 3-4 3.4-8.4 5-13 3.7-3 7.7-5.3 11.4-8l-5.6 38.4c-.3 2-.1 4-1.5 5.7l-11 13.2c-6.2 0-12 1-17 4.8-4 3.2-7.5 7-9.2 11.8-2 5.4-2.2 12-1 17.4 7.5 1.2 17-1.3 22.7-6.5 6.4-6 8.6-14.7 7.6-23.2l8-9.8c-1 10.3-1.8 20.6-2.3 31-.2 2.7-.1 5.4-.6 8-.7 1.5-1.8 2.8-2.7 4-4.2 6.5-5.5 14.3-3.2 21.8 2 7 6.8 11.8 12.7 16 5.3-.5 6.5-4.7 8.8-8.6a26 26 0 0 0 0-22.7c-2.4-4.7-6.3-7.2-10.2-10.5l4-47 9 11c-1.5 7.7.6 15.7 5 22 2.7 3.8 6.5 6 10.6 7.7-3 16.2-5.8 32.5-9 48.7L308 285c-5-3.6-10.6-6.7-15.6-10.5-3.6-4-5.5-9.6-9-13.8-3.3-4-7.7-9-13.2-9.5-7-.3-12.7 7-11.8 13.5 2 6.5 9.7 9.7 15.7 11.2 5.5 1.6 12.8 1 17.4 4.7l15.8 10.6c-1 4.3-1 8.6-1.4 13l-3 32a334 334 0 0 0-14.8-1.2c-2.3-.2-4.4-.1-6.5-1.4-7-4.3-15-9.4-23.5-10-4.2-.3-8.3 1-10.5 5-2.4 4.7-2.4 11.4 2.3 14.7 5 .7 10.2.4 15.2.7 7 .8 12.5-4.8 19-4.2 6.2.3 12.3.7 18.5 1-.6 7-.8 14.2-1 21.2-.2 2.7 0 5.8-1 8.3-2.3 6.3-5.5 11.7-6.5 18.5-.7 4.3-1.3 10.2 1.4 14 3.4 4.8 10 5.5 15 3.6 4-1.5 5.7-6.5 5.8-10.4-.1-7.5-3.6-14.4-7-21-1.4-3-3.6-5.7-3.2-9L307 347l14-10c1.6-1 3.3-2.3 5.2-2.8 7.3-1.7 14-1.8 21-5 3.5-1.6 7.5-4.4 8.4-8.4 1-4.5-1.6-8.7-4.7-11.6-3-3-8.3-2-11.8-.3-6 3.4-9.8 9.3-13 15-1.7 2.7-3.2 6.2-6 8-4.2 3-8.7 5.8-12.8 9l4-43 13.3-6.4c2.8-1.3 5.3-2.8 8.5-3 6.5-.4 12.5 0 18.8-2 4.5-1.4 10-3.6 11.4-8.6 1.6-5-1.5-9.8-5.3-13-3-2.5-7.6-1.7-11-.1a48 48 0 0 0-14.8 13.3c-2 2.4-3.4 5.2-6.4 6.6l-13.8 7c1-13 3-26 5-39l16.3-10.6c2.8-2 6.5-1.8 9.8-2.3a40 40 0 0 0 19.8-6.2c2.8-2.3 6-6.4 4.6-10.3-1.3-5-6-10-11.3-9.5-7.6 1.6-13.8 9-18.4 14.8-2.8 3.4-4 8.3-8 10l-11.7 6.8 8-43.6c3 .2 7.2 1.7 10 .2 1.2-5.4 1-13-1-18.2-2.8-8-10.6-14-19-14.8-2.6-.6-5-.1-6.7-2.5L298 152.4l6.3-40.7 5.7 12c-3.7 8.4-2.7 18.2 2.5 25.7 3.7 5 9 7.8 15 10 1.4.4 3 1.3 4.6 1 1.2-1 1.6-2.8 2-4.2 1.6-6.5 2.4-13.5-.3-20-2.4-5.4-6.8-10.4-12.5-12.6-2-1-4.5-1.3-6.4-2.6-2.4-3.4-4-7.3-6-11-1.3-2.7-3.3-5-2.6-8l6.5-30.2c2 4 5 7.8 6.6 12-.2 3.3-1.6 6.5-1.7 9.8-.2 5.2 1 11 4.2 15.3 4.2 5.6 11 9.5 17.6 11.4 1 .2 3.5.7 3.8-.7 3-7.5 3.5-16.7.1-24-2-4.6-6.3-8-10.6-10.3-2.8-1.5-6-2-8.8-3.2-2-2.5-3-5.6-4.7-8.3-1.5-3-3.4-5.8-4.4-9 .5-3.3 1.7-6.5 2.5-9.8 3-9.5 5.6-19.3 10-28.3l4 12.8c-6.3 8.4-6 20.7.1 29 3.8 5.3 9 8.4 15 11.2 2-3.7 4.3-7.2 5.5-11.3 2-6.6 1-14-2.3-20a42 42 0 0 0-13.4-11.5L331 21c-.5-1.6-.2-3-.1-4.6l24.6-.1c1 4.2 2 8.2 4.8 11.5 5.6 6.5 13.6 9 21.8 9.5V595H18.4V22.2c2 1.8 3.6 3.4 4.7 5.8 2 1 4.4 1.2 5 3.8l5 18.2c.6 2-.6 3.2-1.3 5-3.3 6.3-4.2 14-1.5 20.5 3 8 10 13.6 17.8 16.5 4.3-6.3 7.2-13.2 6.7-21-.2-5.3-2.6-10-6-14-3-3.2-6.5-4.7-9.8-7.2-2-4-2.7-8.5-4.2-12.6l21.7 22.2c1.6 1.7 3 3.8 4.4 5.6 2 2 4 3 4.4 6l3 18c-1 3-3 5.4-4.3 8.2-3.4 6.8-3.3 15.5 1 22 3 4.8 7.2 8.2 11.7 11.5l3.2-.6c5-7.2 8.5-14.8 6.6-23.8-1-8.2-6.6-14-13.3-18l-2-12 15 19c2.6 3.7 5.8 7 8.2 11 1 1.2.5 3 .4 4.5l-2 15.7c-1 1.7-3 3-4.3 4.5-4.5 4.4-7.5 10.2-7.6 16.6-.3 7.3 3 14 7.5 19.7 1.2 1.8 3 1.5 5 2.2 6.7-5 12-11.3 13.4-20 1-8.7-3-16-8.5-22.5.5-4.6 1-9.2 1.5-13.8l14.7 22.2c1 1.5 1 2.4.8 4.2l-9.7 72.6-14.8-13c-3.4-8-8-17.8-15.3-22.8-4.3-3.3-10-1.5-13.2 2.3-3.2 3.6-4.7 10-.8 13.8 5.7 6.2 14.6 8.3 22.3 10.7 2.8 1 5.4 1.4 7.6 3.4l13.5 11.8-5.7 50.7-12.6-10.6c-3.7-2.6-5-8-7-12-2.8-5.5-7.5-12.2-13.7-14.2-6.3-1.5-12.3 4.7-13.4 10.5-.8 4 2.8 7.7 5.8 10 7 5 14 6 22 8.3 3.8 1 6.8 4.5 10 7 2.7 2.5 6.2 4.7 8.3 7.7-.4 8.8-1.6 17.5-2 26.3-4.6-2.5-9.3-4.8-14-7.3a10 10 0 0 1-3.7-3.3 126 126 0 0 0-11.7-13.3c-3.7-3.5-8-7-13.6-6-4.5.7-7.2 5.2-8.6 9-1.3 4.3.5 8.4 4.2 10.7 8.7 5.5 18 4.8 27.7 5.5 6.6 2.7 12.8 6.7 19.2 10-1 11.6-1.5 23.2-2 34.8l-19 11c-6.3 1.5-12.7.6-19 3C51 357 45 359.8 43.8 365c-1.4 4.3 1.6 8.8 4.5 11.7 4 3.5 9 2.4 13.2-.2 6.5-4.3 11-11.5 15.2-18 1-1.7 2.6-2.5 4.3-3.6 4-2.5 8.2-5 12.2-7.6l-.5 27.6c.1 4.2-2 7.6-3 11.7-1.6 5.6-3 11.5-2.7 17.3.1 3.7 1.5 7.3 4.3 9.8 2.5 2 6.8 1.5 9.8 1 3.2-.4 5.3-2.4 6.4-5.4 2.5-5.5.6-11.8-1.7-17-2-4.8-5.3-9-7.7-13.5l.3-26 20.8-.4c6 1.2 11.5 4.5 17.6 5.6 5.8 1 12 1.4 16.5-3 3.8-5.3 2-13.4-3.6-16.7-3.3-1.8-7.4-1-10.8 0l-16 6.3c-2 1-4.3 2.6-6.7 2.7l-17.6.5 1.7-31.5 15.7-5.6c2-.7 4-1.5 6.2-1 7.7 1.2 15.5 2 23.2.3 3.3-1 7.3-2.7 8.8-6 1.5-3 .5-6-.2-9 10 3 19 2 29 1.5 6 2 12 4.7 18 7 .3 11.5.3 23 .4 34.6l-16.8-6.4c-5-3.8-9-9-14.6-12.6-4.7-3.2-10-5.7-15.8-4.4-3.3 1-5 4-6 7.2-2 4.7.7 10.8 5.2 13 5 2.6 11.3 3 17 2.7 4.5.1 9.5-1.6 13.8-.3l17.5 6.2v45l-15.7-6c-3.4-1-5.6-4.4-8.2-6.8-4.4-4-9.7-8.6-15.5-10.5-4-1.3-9.2-.6-11.6 3-1.4 2.5-2.4 6-2.6 8.8 0 4.2 3 7.2 6.7 8.7 5.7 2.4 12.7 2.3 18.7 2 3.7-.1 7.8-1.4 11.3 0 5.7 2 11.5 4 17.2 6.2l-.2 38c-4.8-3.5-10.2-6.4-14.6-10.4-5.8-8.3-9-17.2-18.4-22.8-5.5-2.7-11.6.1-14.2 5.4-3 5 .3 11 4.6 14 7.3 4.7 15.8 5.5 23.8 7C189 429 195 434 201.2 438l-.4 38.7L188 469c-5-2.6-7.6-8.5-11.2-12.8-4-5-10-11-17-10.8-5 .2-8 4.7-9.6 8.8-1.4 4.4 1 8.4 4.5 11 7 5 17 5 25 6.3 4 .4 7 3 10.5 5 3.3 2.2 7 4 10 6.6.2 4.3-.1 8.6-.1 13-.1 2 .2 4.7-.8 6.6-2.7 5.6-7 10.7-8.4 16.7-1.4 5-2.6 11-.4 16 1.2 2.6 3.8 3.7 6.4 4.4 3 .6 6 1.2 9-.5 3.2-2 5.8-5.2 6.2-9a42 42 0 0 0-4.4-20.9c-1.2-3.3-3-6.7-3-10 .1-6.7.3-13.4.6-20l11.8-11.6c4.4-5.5 13.2-5.5 19.4-8.6 4.7-2.3 11-5.8 13-11 2-6-3-11.3-8-13.6-4-1.6-7.8.2-10.6 3-7 6.8-9.6 15-13.6 23.5-3.7 4-8.2 7.5-12 11.4.3-12.7.4-25.4.7-38l14.3-11.5c3-2.7 6.8-2.7 10.7-4 6.3-2 14-4.7 18.5-9.8 2.8-3 3.8-7.3 1.3-10.8-2-2.7-4.6-6.7-8-7-3.6-.1-7.3 1.7-10 4-6.5 5.8-8.4 13.4-12.7 20.4-4.2 4.4-9.5 7.8-14 12 .3-12.7 0-25.5.6-38.3 1-3 4-5.6 6-8.2 3.2-3.5 5.6-8 10-10 7.6-4.2 17-8.6 21.4-16.6 2.3-3.5 1-7.8-2-10.5-2.4-2.2-6-4.8-9.3-4.6-3.6.2-6.8 3.3-8.7 6.2-4.8 7.2-5.5 16-8.4 23.6-2.7 4.2-6.4 7.8-9.3 11.8V334l15.7-10.2c8.4-1.5 18-2.7 25.8-6.5 4-2 7.4-5.5 7.5-10.2-.5-4.5-4-8.7-7.7-11-3.2-1.8-6.6-.4-9.5 1.3-5.5 3.4-9 9.3-12.6 14.5-2 3-3.8 6.2-6.8 8.2-4 2.8-8.4 5.4-12.5 8.3l-.2-29 14-11c1.8-1.3 3.4-2.6 5.6-3 7.4-1.5 14.8-3 21.3-7 3-2 5.5-4.7 5.8-8.3.4-5.8-4.6-11.3-10.2-12.4-3.4-.4-6.7 2-9.2 4.2a57 57 0 0 0-11.9 16.3c-1.2 2.2-1.8 4.3-4 5.8l-11.8 8.5-.5-27.5c-.5-3.4 3-6 4.7-8.5 3-3.3 5.4-7.4 8.8-10 7.8-3.6 15.2-6.2 21-13 3-3.5 4.5-8.7 2-13-2.4-4-7.3-7.6-12.2-6.3-5.4 1.7-8.7 7-11 12-2.6 5.4-2.7 11.7-4.8 17.2-2.7 3.8-6 7-9 10.8l-1.2-42.2a54 54 0 0 0 5.7 7h4c3.7-4 7-8 9-13 2.7-6.7 2.4-14.6-1-21-1.6-3-4.5-5.5-7-8a394 394 0 0 0-3.7-34.8l12 8.6c.8 2.3 1 4.8 1.7 7 2.2 5.4 5.7 10.2 10.8 13 7 4.4 15 4.2 23 2.4l2-2.7c-1.7-9.3-5.3-17.8-14-22.5-6.4-3.6-13-3-20-1.7-5.6-3.8-11.3-7.5-16.8-11.5-2-13.4-5.2-26.8-8.7-40l11.6 5c1 .6 2.2 1 2.6 2 1.3 2.7 2.2 5.8 4 8.2 1.8 2.5 4.2 4.6 6.6 6.4 1.4 1 2.7 2 4.5 1.8l23.6-.6 2-4c-2.5-5.2-5-10-9.3-14-3-2.5-6-4.8-10-4.7-7 0-12.7-1.6-19.3 1.4l-17.7-7c-2.7-10-6-19.7-9.7-29.2L202 68c1.3 5.4 2.3 10.4 6 14.8 6.2 7 16.8 9 25.6 7 2-.6 4.8-.8 6-2.6-1.4-8-5.5-17.7-13-21.8-7-3.4-15-4.7-22.7-2-5.2-3.6-10.8-6.7-16-10.5-2.5-2.6-2.8-7-4.7-10.2l-12.2-26.3z"/></g><path d="M190.7 16.3l20.4-.1c1.5.1 3.7-.2 4.8 1 2 1.6 3.6 4 5.2 6-6 3-11.5 5.4-18.2 3.2-5.6-1.5-9.2-5.3-12.3-10zm170 0l16.4-.1c2.3 5 2.7 10.3 2.6 16-5-1.2-9.8-2.4-13.7-6-3-2.7-4-6-5.3-9.7zm-209.3 6c2.6 5 5 9.4 3 15-1.6 7-6 11.4-12 14.8-3-6-4.2-12.4-2.2-19 2-5.2 6.7-8 11.3-11zM284 37c5.5-.8 11.4.3 17 .3-2.2 4.6-5 10.8-10.2 12.6-6 .6-12.2.1-18.3.2 2.7-5 6-10.8 11.5-13zm50.5 6.4c5.3 2.4 9.8 5.5 12 11a25 25 0 0 1-2.2 18.4c-3-1.7-6-3.3-8-6-2.4-3-3.7-6.8-4.5-10.4-1-4.7 1-9 2.8-13z" fill="#858585"/><path d="M181.7 51.2l10 28c.5 1.5.4 2.5-.2 4l-5.6 13.5c-.8 1.6-1 3.4-3 4-7.2 2.4-14.8 7.2-17 15-2.7 8.7-.4 16.8 3.5 24.6 8.7-2 17.2-7.8 21-16a30 30 0 0 0-1-22.3c1.7-4.2 3.8-8.2 5.3-12.5l9 36.3c.2 1.7.8 3-.1 4.6l-8.8 15.6c-3.7.7-7.2 1.3-10.5 3-6.6 3.6-11.2 10.4-12 17.8-.7 5.4-.2 11.3 1.5 16.5.6 1.7 2.8 1.4 4.2 1 7.4-2 15-5.8 19.2-12.5 4.3-7.4 4.3-15.8 2-23.8l6.4-11.2c1.3 4.3 1.7 8.6 2.4 13a439 439 0 0 1 2.9 27.1c-1.8 2-3.8 3.8-5.5 6-4.5 6-6.2 13.2-4.8 20.6-1.3 1.6-2 2.2-1.7 4.4l1.4 50-13.2-8.5c-3-1.7-4-4.6-5.6-7.3-3.5-5.7-8-12-13.6-15.4-4-2.6-10-2.5-13.3 1.4-2.2 2.7-4.4 6.4-4 10 .3 3.5 3.4 6 6.2 7.7 7.3 4 15.6 5.3 23.7 6.5 2.6.4 4.4 1.8 6.5 3.2l13.5 9.3c.2 11 .5 22 .6 32.8l-16.5-5.7c-2.8-1-5-3.8-7-6-4.2-4.5-9.2-8.7-15-11-3-1.2-7-1.8-10 .3-4 3.2-6 8.2-5.5 13.3-2.6-.1-5-.2-7.5.8-9.2 3.3-15 10-22 16-5.3 2.3-11 3.7-16.6 5.6l2.5-30.4 15.3-11c2.5-2 6.4-1.7 9.4-2.4 6.8-1.3 14.8-3.3 20-8.2 2.5-2.5 5-6.6 3.8-10.2-2-5-6.5-9.6-12.4-8.6-4.8 1.3-9 5.3-12.2 9-3.8 4.4-6 10-9.5 14.5-4.2 3.6-9 6.4-13.6 9.7l4.6-43.5 17-9.2c3.5-2 7.5-1 11.6-1.5 6.7-.5 15.3-1.7 20.2-6.7 3.8-3.8 3.2-9.5.4-13.7-3-4.2-9-6-13.5-3.5-8.2 4.3-14 13-19.6 19.5-4.8 3.3-10.3 5.5-15.4 8.5l10.5-79.5c1.5 3.3 4 5.7 3.2 9.5-2 10.7 3.2 23.2 13.7 27.4 4.2 1.6 9.8 3.3 14 1.6 1-7.8 2-15.6-2-22.7-4.2-7.6-13-11-21.2-12.3-9.7-17-20.6-33.5-32.4-49.2l15 .2c2.2 1 3.7 3.8 5.8 5.3 3 2 6.7 3.8 10.3 4.5 6.6 1 13.7-.8 19-4.6 2.4-1.5 4-3.3 7-3.8 6.8-1.4 13.4-3.8 18-9.5a28 28 0 0 0 4-24.9l7.7-13.8z" fill="#fff"/><path d="M37.8 55c4 3 8.3 6 10.4 10.7a25 25 0 0 1-1.9 19.8c-5.5-4.2-10.7-8.5-12-15.6-1-5.5.8-10.2 3.4-15zm67.2.8c5.7.5 10 3.7 14.2 7-4.8 4.2-9.4 8-16.2 7.8-6.4-.1-10.7-3.6-15-7.8 5-4.2 10.4-7.4 17-7zm101.7 11.6c5.7-.8 11-1.4 16.3 1.6 5.6 3 8 9.7 10.3 15.3-5.8.6-12.5 1.2-17.7-2-5.4-3.5-7.3-9-9-15zm-38-.1c.5 3 1.5 6.2.7 9.2-1 3.4-1.7 7.3-3.8 10.2-3.3 4.3-8 5.7-13 7.3a21 21 0 0 1 3-19.4c3.5-4.2 8-5.8 13.2-7.2zM131 87.5c6 .5 10.7 4 15.2 7.6-4.6 3.5-10.2 7.8-16.2 7.8-6.3-.1-10.5-3.8-15-7.8 4.6-4 9.5-7.5 16-7.6zm193.2-.1c5.4 2.5 11.2 6 14.3 11 2.8 5.4 1.5 10.6.5 16.2-5.5-1.8-10.6-3.7-14-8.8-3.3-6-2-12.2-1-18.5zm-34 2.6c-.5 5.8-1.5 11-6 15-5 5-11.3 5.3-18 5 1-6.4 2.5-12.2 8-16.3 4.8-3.7 10.4-4.2 16.3-4zM71.4 93c4.4 3.8 8.3 7.7 10 13.4 1.2 6.7-1.2 12.4-4.8 17.8-3.8-3.7-7.7-7.3-9.2-12.5-1.4-5.2.1-11 2.5-15.8l1.5-2.8zm166.6 7c6 1.8 9.5 8 12.2 13.3l-18.8.5c-5-2-8-8.2-10.3-12.7l17-1zm-53.2 4.8c1 5.2 2.6 10 1 15.2-1.7 7-8 10.7-14 13.4-1.8-5-2.6-11.3-.8-16.4 3-6 8-9.5 13.8-12.3zm96.2 20c-2 5.8-4.2 12-9.6 15.8-5 3.2-10.8 2.6-16.4 2.4 1.5-6.3 3.4-12 9.3-15.6 5.2-3.5 10.8-3.4 16.7-2.6zm33.5 1.3c6.2 3.4 12.5 6.2 15 13.4 2 5 .5 9.5-.8 14.5-5.4-2-11-4.6-13.7-10-2.3-6-1.5-11.8-.4-18zm-219.3 5.2c3.4 5 6.2 9.7 5.8 16-.3 6.5-4.6 11-9 15.2-3.2-5.2-6.2-10-5.8-16.3a23 23 0 0 1 7-12.7l2-2zm134 19.8c5.6-.8 10.8-1.2 15.7 2 6 3.7 8.3 9.4 10.3 15.8-6 .6-12.4 1.3-17.7-2.4-5-3.7-6.8-9.5-8.3-15.3zm-101.3.8c5.8 1.5 11 3.3 15 8 3.8 5.2 4 11 3.2 17.3-6-1.5-12-3.3-16-8.5-3.3-5-3-11.3-2.2-17zm66-.5c.6 3.6 1.5 6.7.6 10.3-1 4-2 8-5 11-3.2 3-7 4.5-11 6-1.6-5-2.8-9.5-.6-14.5 2.8-7.4 9.2-10 16-12.7zm117.3 22c6 .4 13 2.4 16.5 7.8 3.4 5.2 3.3 10.7 3.5 16.7-6-1.3-12.7-3.4-16.7-8.4-3-4.4-3.6-10.8-3.3-16z" fill="#858585"/><path d="M69.2 179.2c2.3-.7 4.5 1 6 2.6 4.3 4.3 7.2 10.5 9.8 16-5.3-1.5-11-3-16-5.8-2-1.2-4-3-4.7-5-.2-3.2 1.5-6.8 5-7.6z" fill="#9260c7"/><path d="M277.8 179c-.2 5.8-.2 11-4 15.8-4.5 5.5-10.7 7-17.4 7.7.3-6.6 1.6-12.8 6.5-17.5 4-4.3 9.3-5.6 15-6zm-65 3c4.6 4.7 8 10.2 7.6 17-.7 5.8-4.5 10-8.3 14.3-4-5.2-7.4-10.4-7-17.3.3-6 3.8-10 7.8-14z" fill="#858585"/><path d="M150 199c4.7.8 6.3 8.4 2 10.8-5.8 3.6-14 4-20.6 4.6 3.4-4.4 7-9.2 11.5-12.7 2-1.5 4.4-3 7-2.7z" fill="#9260c7"/><path d="M291.2 211c4.2 4 8.7 9 9.7 14.8.6 6.6-2.5 11.6-5.7 17-3.5-3.5-7-6.6-8.7-11.4-2.2-6-.5-12.8 3-18l1.7-2.5z" fill="#858585"/><path d="M355.3 219.3c4.2-1.3 7 4.5 7 8-4.8 5.7-15 7-22 8 4.3-5.2 8.6-13.3 15-16zM239 225c-.7 2.7-2.6 4.7-4.7 6.4-4.3 3.5-9.3 6.2-14.2 8.8 2-6.4 4-15.2 9.3-19.7 4-3 8.3.6 9.5 4.4zm-77.8 5c7.7 2.5 12.6 10.5 16.7 17a60 60 0 0 1-17.7-5c-2.5-1.2-3.7-3.4-5.3-5.6 1.7-3 3.3-4.7 6.3-6.5zM62 237c3-.1 5.5 1.4 7.6 3.5a58 58 0 0 1 8.9 14.1c-5.6-1.4-12-3-17-6.2-2-1.4-3.3-3.3-4.6-5.4 1.3-2 2.5-5.3 5-6zm80.5 8.4c2.7 1.3 3.7 4.8 3.6 7.6-1 2.2-3.5 3.5-5.6 4.5-5 2.3-11 3.4-16.3 4.7a60 60 0 0 1 11-14.9c2-1.6 4.7-3.3 7.3-1.8zM270 256.2c7 2.8 11.7 10.8 15.6 17-5.7-1-12-2-17.2-4.5-2.7-1.3-4-3.5-5.7-5.8 2-3 4-5 7.3-6.7zm-27 6.8c4.3.8 6.7 7 3 10-5 4.4-13 6-19 7.4 2.4-4.4 5-9.3 8.4-13 2-2.2 4.6-4.3 7.8-4.4zm112.2 6.8c1.7 1.5 2.4 4.3 3.4 6.3-1.6 1.8-2.8 3.5-5 4.4-5.7 2.3-12.3 2.6-18.4 3 3.6-4.3 7.5-9 12.2-12.3 2.3-1.5 5.2-2.7 8-1.5zm-294.7 8.7c4.7 3.5 8.5 8.8 12.2 13.4-6-.7-12.4-1.3-18-3.7-2.3-1-4.8-2.5-5.2-5.3.5-2 1.5-4.7 3.3-6 2.8-1 5.4.1 7.7 1.7zm97.5.5c7 1.3 13 8 18 13-5.7.2-11.8.5-17.4-.6-2-.4-5.6-1.4-6-3.5-.8-3.2 1-10.2 5.6-8.8zm-12.6 14l4.2 5c-.6 2.4.2 5-2.5 6.2-6.4 3-15.3 1.5-22.2.7 6.4-5 12-11 20.5-12zm98.6 7.8l5.6 2.7.4 5.3c-1 2-3 3-5 4-5 2.4-11.3 3.5-16.8 5 3.7-6 8.6-15 15.8-17zM345 312c5 .6 7.4 7 3.5 10.5-5 4.4-13.4 5.3-19.8 6.3A49 49 0 0 1 339 315c1.7-1.4 3.8-2.8 6-3zm-188.8 7.2c2-.7 4.6.4 6.3 1.3 5.2 2.8 9.8 7.4 14 11.5-6.2.4-13.3.8-19.3-1.2-1.8-.7-4.2-1.4-4.4-3.7-.8-3.3.6-6 3.4-8zM258 329c6.2.6 12.4 4.4 17.8 7.3a64 64 0 0 1-15.9 4.2c-2 .1-4.7.2-6.6-1-2.2-1.8-3.4-4.7-2.2-7.5.6-2.7 4.5-3.2 6.8-3zm-116 13.3c2-.2 5-.3 6.3 1.3 1.3 2 1.3 5 1 7.5-1.5 2-5 3-7.4 3-5.8-.3-11.7-2.8-17.2-4.8 5.2-2.8 11.2-6.2 17-7zm90 2.4c2.7.7 6 1.2 7.5 3.8 1.7 2-.2 4.8-1.6 6.6-4.2 4.7-10.8 7.8-16.4 10.4 2-7 4-16.5 10.5-20.8zm-160.6 13c-3.3 5-7 10.3-11.8 14-1.5 1-3.5 2.3-5.4 2-1.8-.8-3.4-2-5-3-.1-3-.5-5.2 2-7.2 5.3-4 13.7-4.7 20-5.6zm92.3 13.5c4.8 2.6 9 7 12.8 11-5.5.1-11.4.4-16.8-.7-2.4-.6-5.3-1.4-6.7-3.6-.6-2.6.1-6 2.5-7.4 2.6-1.4 5.8-.6 8.3.8zm139.8 3.8c2.8 6 6 12.4 7 19 .2 2.2.1 6-2 7.3-2.7 1.7-6-.2-8.8-1-3-8.6 1.2-17 4-25.2zM96 385.4c3 6 7.3 12.8 7.8 19.6 1 5-6.8 7.4-9.4 3.8-3.3-7 0-16.2 1.7-23.5zm149.2 20.8c-5 4.4-12.7 6.5-19 8.2 3-6 6.4-13.3 12-17.4 4.5-4.5 12 5.7 7.2 9.2zm-83.2-3.8c2.8.5 5.4 1 7.5 3 4.3 4 7.3 9.7 10.2 14.7a59 59 0 0 1-15.3-4.7c-2.2-1-4.4-2.5-5.7-4.6-.8-3.5.5-6.4 3.3-8.5zm82.4 41.3c1.3 2.5-.6 4.7-2.4 6.2-5 3.8-11.8 5.8-17.8 7.7 3-6.2 6.3-14.2 12-18.5 3.4-2.4 7 1.5 8.2 4.6zm-86 7.6c1.8-1.4 5-.4 6.7.6a42 42 0 0 1 12.7 14.7c-6-.7-13-1.3-18.3-4-2.4-1.2-3.3-3.3-4.6-5.4 1-2 2-4.2 3.4-5.8zm43.4 56.7a69 69 0 0 1 4.8 15.4c.6 3.7.1 8-1.8 11.3-3.7 1.2-6.4.3-9.5-1.7-1.7-8.4 2.3-15 5.4-22.4l1.2-2.6z" fill="#9260c7"/></svg>