<svg xmlns="http://www.w3.org/2000/svg" viewBox="0 0 400 610" width="533.3" height="813.3" xmlns:v="https://vecta.io/nano"><path d="M0 0h400v610H0V0z"/><path d="M18.5 15.4l97.6-.2-15 6c-3.6-1.6-7-3-11-3.2-5.2-.4-10 1.4-14.8 3.4-6 2.8-9.8 8.7-12.7 14.3-.8 1.8-2.3 4-1 5.8L89 42.8c7.3-2.6 11.8-9.8 14.4-16.8l11.4-5L100 47.2l-19 5.4c-4-2-7.5-4-12-4.7-8-1.4-16.2 1.6-21.8 7.4-3.4 3.6-6.4 8-8 12.8A35 35 0 0 0 56 74.6a25 25 0 0 0 23.4-11.2c1.2-1.8 2.2-4 3.5-5.6 4.5-2 9.3-3 14-4.5C90.8 65 85 76.7 79.5 88.5c-1.2 2.4-1.8 5.3-4.3 6.6l-15.5 9-7-1.7c-5-1-10.4 0-15 2.3-8 4.7-12.6 13.5-14.5 22.3-.3 1.3.6 2.4 1.8 2.6 6.3 1.7 13.3 2.4 19.7 1 6.5-1.6 11-7 14.5-12.3 2-3 2.3-6.3 3-9.8l11.3-6.5-12 28.8c-1 2.8-2 5.8-3.5 8.4-2.3 2.4-5.4 3.8-7.6 6.5-5 6-8 14.5-6.3 22.3 1 5.4 3.7 9.7 6.8 14l3.4.7c7.2-5 13.6-11 15.7-19.7 1.5-8-2-15.7-6.6-22L82 96.4l4.5 12c1 2.4-.6 5.5-1 8-1.8 6-2.4 12.5.5 18.4 1.5 3.2 4 5.3 6 8 .4 4.3.1 8.7.2 13v109l-9-10.5c-1.5-1.7-1.7-3.6-2.3-5.7-1.5-6.3-3.8-13-7.7-18.3-2.5-3.3-6-6-10.4-6-3.6.4-7.5 3-9.6 5.8-2.6 4-2 8.8 1 12.4 3.8 5 10.2 8.5 15.7 11.3 3.6 2 8.3 3 11 6l10 11c1.8 1.7 1.3 3.7 1.4 6l.2 27L78 293c-3-4.4-5-9.4-8.5-13.6C66 275 61 270 55 269.3c-3-.5-5.4 1-7.3 3.2-2 2.3-4.3 5.4-4 8.5.8 5.4 4.6 9 9.3 11.2C59.4 295.7 66 296 73 298c3.2.7 6.2 3.3 9 5l10.3 7.5c1 10 .4 20 .8 30L79 332c-2.5-1.5-3.4-3.8-5-6-3.2-5.4-7.3-11-12.3-14.7-3-2.2-6.7-4-10.6-3.3-2.8.6-4.6 2.6-6 5-1.4 2.4-3 5.2-2.8 8 .4 4 3.8 7 7 9 7 4 16 5.3 24 6.2 3.4.2 6.5 3 9.3 4.6 3.5 2.4 7.5 4.4 10.7 7l1.3 47.3c-3.2-4.2-7-8-10-12.5-1.5-4-2-8.4-3.5-12.5-2-5.7-5-12.4-10.2-15.7C64 350 54 356.3 54 364c-.4 3.2 1.2 5.6 3 8 4.3 5 9.6 8 15.5 10.5 3.8 2 8 3 10.5 6.5l10 12c1 1.3 1.4 2.3 1.4 4l1.3 37.3-13-10c-2.2-2.8-3.4-6.6-5.3-9.7-3.3-6-8-13-14.2-16-4.3-2-9 .2-12 3.6-4 4-4.5 11.7.4 15 5.4 4.4 12.6 7 19.5 8.3 3.2.8 6.4 1 9 3 5.3 4 10.6 8 16 12.2l1.6 38.8-9.7-8.6c-1.7-1.5-3.2-2.8-4-5-3-7.5-6.4-15-12.4-20.6-2-1.8-4.7-3.8-7.4-4-3.3 0-7.7 2-10 4.5-2.7 3.8-3.8 10.4 0 14 5 5.3 12.3 7.7 19 9.8 3.7 1.2 7.5 2 10.5 4.6L97.8 495l1 21c0 2 .2 3.6-.4 5.5-1.8 6-4.5 11.2-5 17.5-.6 4.8-1 10.5 2 14.7 1.5 2.4 3.8 4.2 6.7 4.4 4.3.3 9-.7 12-4 2.4-2.6 2.7-6.7 2.2-10-1-7.2-5.5-14-8.8-20.4-1.4-2.7-3.5-5.4-3.4-8.5l-.7-16 15.2-9.7c1.5-1 2.8-1.5 4.5-1.7 5.7-.7 11.3-1.2 16.8-3 4.8-1.4 10.2-3.6 13.3-7.8 5-7.7-4.5-21.4-13.6-16.6-9.6 4.4-14.6 15.5-21 23-4.8 3.6-10.3 6.3-15.4 9.6l-1.7-39 14.5-11c1.8-1.3 3.4-2.6 5.7-3 8-1.5 15.8-3 22.6-7.6 3-2 6.2-5.3 6-9 .3-4-2.3-6.8-4.6-9.6-3-3.5-8.6-4-12.2-1-6 4.3-10.6 11.5-14.2 17.8-1.8 3-3.2 6-6 8l-12 8.6-1.3-38.3 20.5-8.3c8.2.3 15.7 1.6 24-.8 4-1.2 9-3.5 10.3-7.8 1.2-5-1-11.7-5.6-14.3-5.6-2-12.4 1.3-16.8 4.6-5.5 3.8-9.6 9-14.5 13.6-5.6 2.8-11.8 4.7-17.6 7-.5-4.5-.5-9-.6-13.4l-.7-32.6 12.7-5c3-1 5.5-2.6 8.7-2.3 8.3.4 18 1 26-2 4.2-1.5 8-5.2 8-10-.4-3.2-2-6.4-4-9-2.6-3.2-7-3.6-10.8-2.4-6.6 2.2-12 7.2-16.4 12.3-2 2-3.8 4.5-6.3 5.5L98.3 351l.2-5.7-.6-29.5 18.4-7.6c3-1.2 5.7-.4 8.8-.2a43 43 0 0 0 21.2-2.8c3.6-1.8 6.8-4.8 7-9-.4-5.6-3.5-11-9.2-12.6-4.4-.3-9.2 2.2-12.8 4.6-5.7 4.5-10 10.7-16 15-5.6 2.5-11.5 4.4-17.2 6.6l-.4-34c5-3.8 10-7.2 15.2-11 2-1.3 3.4-2.6 5.8-3 7.3-1 15.5-2.6 22-6.3 4-2.3 7.4-5.5 7.6-10.5.1-7-7-13-14-11-4.8 1.7-9 6.2-12 10-3.6 4.2-5.4 9.8-9 14l-15.6 11V146.6c2.5 1.3 5.6 4 8.5 3.8 2-1.4 2.8-4.7 3.6-7 3.5-10.4 1-23.2-8-30.2-2.6-2.5-6-3-9-5L85 90l19.6-38.8c.7 4.6 2 9 2.5 13.8-.7 2.4-2.2 4.5-3.2 6.8a24 24 0 0 0 .5 22c3 5.6 7.8 9.4 13 12.8l3.5-.7c4.2-6.4 7.2-13 7-21 .2-5-3-10-6-13.7-2.6-3.5-6.4-5.4-9.3-8.5-1.8-5.8-3-12-4.5-17.7l16.7-29 2.6 15c-4.6 5.8-6.7 12.6-6.4 20 1 8.6 7.3 15.4 14.2 20 1.7 1.4 3.4.6 5.5.6 3.5-5.4 6.3-11 6.7-17.6a26 26 0 0 0-8.5-20.7c-1.7-1.6-3.8-2.7-5.5-4.3-1.4-4.4-2-9.2-3-13.7h36c2.6-.3 3.7 1.7 5.7 3a38 38 0 0 0 13.5 6.6 38 38 0 0 0-10.7 18.5c1.8.5 3.6 1 5.5 1 7.6.3 15.3.8 23 .4 7-2.8 11.3-9.8 13.5-16.8 3.4-1.7 7-3 10.3-4.8L209 49c-1.8 2.6-2.8 6-6 7-5.7 2.3-11.4 4.6-17 6.8-8.5-3.7-17.8-5-26 0-7.6 4.5-11 11.7-14.2 19.6 6.8 3.8 15.6 6 23.2 4.3 5.5-1.6 11-4.7 14.6-9.2 2.4-3 3.6-6.3 4.8-9.8l12.3-4.8-11 19c-1.5 2.7-2.4 6-4.4 8.4l-20 4.3c-6.4-4.3-13.5-6.4-21.3-5-7.2 1-12.3 5.7-16.7 11-1.5 2-3.7 4.2-3.7 6.8 1.2 2.3 4.7 3.4 6.8 4.7 8.4 4.2 19 5.3 26.8-.4 4.6-3 7-7.4 10.3-11.6 4.8-1.6 10-2 15-3.4l-16 37.5c-.7 1.6-2.7 2.7-4 3.7-4.5 3-8.8 6-13.3 9a34 34 0 0 0-13.2-1c-4.6.6-9 3.3-12.5 6-6.5 5.6-9 13.7-9.7 22a41 41 0 0 0 18.7 1.2c8-1.8 14.6-8.2 17.4-16 1-2.6 1.2-5.4 2-8 3.4-3 7.7-5.2 11.4-8l-9.8 32.5-7.2 3.8c-8.2 6-12.7 16.7-10.3 26.6 1 4.2 2.3 9 5 12.4 2.2.8 4-.6 6-1.5 6.7-4 13-9.2 15-17 2-7 .7-13.7-2.5-20-1.6-2.7-.4-4.8.3-7.5l11.3-34.8 5 13.4c-1.6 4-3.6 7.8-4 12-.8 6 .8 12 4.5 17 4.3 6 10.5 9 17 11.7 3.8-6.7 6.5-14.6 5.6-22.4-.5-6-5-11-9.2-15-2.6-2.5-5.8-3.3-8.8-5.2-1.6-3.2-2.5-6.8-3.7-10.2l-3-10c.6-2.8 2-5.4 3-8 4.2-10 8.7-20 13.7-29.7.8 4.8 2.3 9.6 3.3 14.4-4 6.2-7 12.6-6 20.3 1.8 9.4 9 16.6 17.5 20.6L227 225l-16.4-5.8c-1.7-.6-2.7-2-4-3.2-4-4.5-8.8-8.8-14-11.8-3.5-2-7.7-3.3-11.8-2.3-3 .8-5.2 3.5-6.4 6.4-1.3 3-2 6.4-.6 9.7 1.7 3.5 5.8 5.3 9.5 6.2a47 47 0 0 0 15.5 1c4.4-.3 8.3-1.4 12.5.2l17.3 6L240 276l-13.6-6.7c-3.2-1.4-5-5-7.3-7.7-4.3-5.3-9.8-11.3-16.3-13.8-3.4-1.3-7.2-1.5-10 1.2-2 2.2-3.5 5.3-4.5 8.2-1.3 4 2 8 5 10.3 8.2 5.2 17.4 4.5 26.6 5 3.5.1 6 1.8 9 3.4l12.5 6.6c2 8.5 4.2 17 5.7 25.7.4 1.7 1 3.3 1.3 5-6.4-1.3-13-2-19.4-3.6-7-4.5-12.8-9.7-21-12-4.4-1.3-9-1-12.7 2-2.6 2.2-3.3 6.3-3.7 9.5-.3 5 3.6 8.8 8.2 10 6.8 1.7 14.7.2 21.3-1.8 3-.7 6.6-2.2 9.7-1.5l19 3.8 6.2 31.6c-6.7.3-13.6 1.6-20.2 1.4-8.4-2.3-17-5.4-26-5-3.7 0-7.7 1.7-10 4.6-3.2 5.2-1.8 13.5 4.2 16 5.3 2.4 12.3.4 17.5-1.6 5-1.8 9-5.7 14-7.4 7.2-1 14.4-1.6 21.6-2.5L261 382c-2 4-3.7 8-4.7 12.2-1.6 6-3.5 13.4-1.8 19.6 1 3.5 4.3 5 7.5 5.6 4.6.6 9.7 0 12.3-4.3 3-4.8 1.6-11.4.1-16.4-2-6.5-6.4-12.2-8.2-18.7l-5-31 14.2 6.5c5.4 2 8.7 8.3 13 12 3.7 3.3 8 6.6 12.7 8.3 4.2 1.4 9.2.2 11.3-4 1.4-3 3.8-6.8 2.6-10-1.4-4.2-5.6-7-9.7-8.5-8-2.7-15.8-1.8-24-1.2-7.2-2.5-14-6.2-21-9.2l-6.7-33.2c6.5-.8 13-2 19.7-2.5 9.3 2 18 6.2 28 4.7 3.6-.6 8.4-3.2 9-7.2.4-2.7.1-6-.6-8.8-1-3.6-5.2-5.3-8.5-6-6.8-1-13 3-18.8 6-3.3 1.6-6.2 3.8-9.4 5.5-6.8 1.4-13.8 2-20.7 3l-6.4-28.6 14.4-15c2.3-2.7 6.2-3.3 9.4-4.7 5.3-1.8 10.3-4.8 14.2-8.7 2.7-2.7 4.7-6.8 4.2-10.7-1.5-6.2-9-11.2-15.2-8.4-4.5 1.8-7.6 7.2-10 11.2-3.2 5.2-3.7 11.4-6.3 16.6-3.7 4.7-8.4 8.7-12.4 13.2l-12.8-50c3.3-4 6.7-7.6 10-11.5 1.8-2 3.3-4 6-5 6.6-2.7 13-5.7 18.8-10 3-2.3 6-5.5 7.3-9a12 12 0 0 0-7.6-12.8c-4.3-2-8.6-.4-11.8 2.8-6.7 7-9 16.4-12 25.2-3.5 5.2-8.5 9.6-12.5 14.6L210.4 143c2.5-5.2 4.8-10 4.8-16 .1-5.4-2.5-10.3-5.7-14.5-2.8-3.5-6.7-5.2-10-8.2-1.8-4.7-2.5-10-4-14.8-.4-2.3-1.7-5-.3-7C200 73 205.7 64.2 211 55.2l5.8 15c-4 7.6-5.3 16.7-2 24.8 3.4 8 11.7 13.7 19.8 15.8 2-1.2 2.7-4.2 3.4-6.3 2-6.8 2.5-14-.1-20.6a24 24 0 0 0-13.3-13.8c-1.4-1-3.3-1.3-4-3-2.3-5.7-4.3-11.5-6.5-17.2l24.7-34.7h3l1.4 12c-2 3-4.4 6-6 9.4-2.6 5-2.3 11.7-.8 17.2 2 7 7.4 11.3 13 15.5h3.4l2.5-3.8c.8 5.4 2 11.5 5.2 16 10-2 20.4-9 22-19.7 1.5-7 .6-13-2-19.2l4.7-10.7c3 14.6 7.2 29 11.8 43l-9.6 16.3c-8 1.8-15 5.5-19.6 12.5-4.5 7.5-4 17.5-1.4 25.5 1 2.8 2.8 1.4 5 1 8.4-2 16-6.5 19.6-14.5 3.7-7 3.5-14.7 1-22l7.4-12.4 12.7 33.8-10.5 16.8c-3.7 1-7 1.7-10.4 3.7-4.6 2.8-8 7-10.2 11.7-3 6.2-2.5 14-1 20.4.2 2 2 2.6 3.6 4 9.8-2.8 19.3-7.3 23.2-17.4 3-6.7 1.5-12.8.2-19.6 2-5 5-9.5 7.4-14.2l2.8 7.2 23.6 47.3c-2.4 2.2-4.6 4.3-6 7.2-2.7 5.2-7 9.5-9.3 14.8-4.8 12.4-4.8 26.7-3.4 39.7 1.6 17 6 33.6 12.2 49.6 3.8 9.3 6 19.3 9.2 29 3 9.3 3.3 18.6 3.2 28.3a141 141 0 0 1-7.3 33.2l-9 29.8c-.7 10.4 5.2 21.6 6.4 32 1.4 10.3 5 21.7 3.5 32-1 9.3-7.8 16.5-14.8 22a73 73 0 0 1-31.1 14.6c-7.5 1-15.3.6-21.6-4.2-8-6.2-16.4-13.6-21.7-22.3-3-5-5-11.2-2.4-16.8 2.4-5.3 8.3-9.2 13-12 4.7-2.6 10-4 14.6-.5 6 4.6 10 12.5 9.5 20-.3 2.8-2 4.5-3.6 6.6l-7.7.6-5.3-3.2c-1.8-1.2-4.3-.7-6.3-.7.4 4.2 4.3 6.6 7.6 8.5 3.7 2.3 7.7.5 11.7-.1 3.3-.5 5.7-2.8 7.2-5.6 2.6-4.6 1.6-10.4 0-15-1.5-4.3-3.3-9.2-6.6-12.6-5-5.2-13-6.6-19.6-4.4-6.6 2-12.4 7-17 12-4.8 5.8-5 13.4-2.4 20.2 4.2 11.4 14.7 20.8 24 28a29 29 0 0 0 19.4 6.7 60 60 0 0 0 26.1-6 81 81 0 0 0 23.9-18.1c8.3-9 10.7-23.2 7.8-35l-8.6-44c-.6-8.4 2.6-17.4 5.6-25.2a168 168 0 0 0 9.3-35.5c1.2-6.6 1-13.6.5-20.2-.6-6-1.2-11.5-3.3-17l-9.2-26-11-38a108 108 0 0 1-1.9-19.7 75 75 0 0 1 4.9-31.6c1.2 9 6.4 17 13.8 22 3.4-2.6 6-6.2 8.5-9.7 6.7-9.8 4-24.6-5-32-3.6-3-5-6.7-7.3-10.6a544 544 0 0 1-16-32.2c4.2 2.3 9 3.8 13 6.3 1.4 2.6 2 5.6 3.7 8.2 3.2 5 8.2 9.5 14 11 8.2 2.2 16 .2 23.7-3a19 19 0 0 0-1.6-6.1c-2.7-6-6.3-11.6-12.2-15-2.8-1.7-5.7-1.5-9-1.8-3.4-.2-7-.7-10.3-.7-2 .5-4 1.6-6 2.5l-16.8-7.8c-2-.7-2.2-2.3-3-4-4.7-11.5-9.4-23-13.6-34.6l9.6 8.3c.3 3.7.1 7 1.8 10.5 2.6 5.7 6.7 11.7 12.4 14.5 6 3 12.8 3 19.4 2.5l2.8-2.8c-.7-7.3-2.2-14-7-20-3.6-4.8-9.6-7-15.3-8.5-3.6-1-7-.1-10.7-.4-5.2-3.8-10-8.3-15-12.4-2.2-1.7-2.2-4-2.6-6.5l-2-4.7c-3.6-11.2-6.5-22.6-9.3-34l12.3 10c.7 3.8 1.2 7.5 2.8 11 2.5 6 8 10.8 14 13.2 5.8 2.3 11.5 2 17.6 1.2 2.8-3.4 1.3-6.7.7-10.6A25 25 0 0 0 328.1 44c-6.4-3.5-13.7-5.2-21-3.4l-17.5-14V22c-1-2-1.6-4.3-2-6.6H299c5.3 8 14.6 11.8 24 11.5 2-.2 4.8.1 6.6-1 .7-3.3-.1-7-.4-10.5h53v579.5H18.4V26l.1-10.6z" fill="#fff"/><path d="M176 15.3l9.3-.1-1 3.4-8.3-3.3z" fill="#858585"/><path d="M191 15.2h41.4c-6 2.2-11.6 5-17.5 7-2.2-.1-4.5-1.3-6.7-1.8a29 29 0 0 0-18.4 1.5l1.2-6.7z" fill="#fff"/><path d="M250 15.2h6.3l-5.8 2-.5-2z" fill="#858585"/><path d="M266 15.3l16-.1c.4 3.4 2 7 .4 10.3l-6.2 14.7c-5.7 2-10.4 4.8-14.6 9.2-.4-3.7-.8-7.2-2.4-10.6-2.3-5-6-8.4-10.2-12l-.4-3.6c6.7-1.4 12-3.5 17.4-7.8z" fill="#fff"/><path d="M306 15.3h17l1 6c-3.7-.1-7.4 0-11-1.4-2.7-1-5-2.8-7.3-4.6zM80 24.7c5.8-.3 11.8.8 17.6 1-2.5 4.6-5.8 10-11 12.2-6.3.8-12.8.1-19.2.3 3-5.2 7-11.2 12.6-13.5zM193 27c5.8-.8 12 .2 17.8.3-1.8 3.7-3.4 7.3-6.4 10.3-1.5 1.4-3 2.7-5.3 2.7-5.8.1-11.7-.4-17.5-.5 2.7-4.8 6-11 11.5-12.8zm54 4.6c4.6 4 9.3 8.7 9.4 15.3.2 6.5-2.8 11.3-6 16.6-5.2-4.5-9.5-9.4-10-16.6-.3-6 2.5-11 6.5-15.4zm-116.4 2.6c4.8 3.4 9.5 7 11 13 1 7-1.3 13-4.4 19-5-4.2-9.3-8.5-10.6-15-1.7-6.3.7-11.6 4-17zm178.7 11.3c6.4-.1 12.7.1 18 4.4 4.8 4.4 6 10.3 7 16.4-6.6-.4-12.8-.7-18-5.3-4.8-4-6-9.5-6.8-15.4zm-33 .5c1 4 3.4 9 2 13-1 3.4-2 7-4.6 9.5-2.7 2.8-6.6 4.8-10 6.8-1.3-5-3.7-10.2-2-15.5 2.3-7 8-11 14.4-13.8zm-199 11c-2.6 4.7-5.4 8.8-10.7 10.7-7 3-14 1.6-20.7-1.3C49.4 61.5 53.3 56 59 54c6.3-1.8 12.4.2 18.2 2.8zm88.8 9.3c5.5.1 11 1 16.4 1.2-2.4 4.7-5.8 11-11.4 12.3-6 .4-12.4-.4-18.5-.5 2.2-3.6 4.4-7.5 7.6-10.3 1.7-1.4 3.6-2.8 6-2.7zm-55.2 3c4.8 2.7 9 5.6 10.8 11.2 1.6 7-.3 13.4-3.5 19.7-4.5-3.2-8.7-6-10.6-11.6-2-6.8 0-13.2 3.2-19.3zm110 5c5 2.3 10 6.3 12.7 11.3 2 6 .2 13-1 19.2-5.4-3.2-10.4-6.3-13-12.4-3-5.8-1-12.3 1-18zM162 98c-3.5 5-6.8 9.3-12.8 11.2-6.6 2.3-12.5-.6-18.5-3.2 3.6-5 7-10 13.4-11.2 6.5-1.6 12 .5 18 3zm125-1c1.5 6.3 1.4 12.5-1.3 18.4-3.2 5-9.2 7.6-14.5 9.7-.5-5.6-1.4-11.7 1.2-17 3-5.7 8.8-8.8 14.7-11zm35.4 1.4c6.2-.1 12 .1 17 4.3 5.2 4.3 7 10 8 16.6-6 0-11.6-.2-16.8-3.8-5.6-4.2-7.5-10.3-8-17zM43 109.7l14.3-.5c-2 5.7-4.5 11-10 14-5.6 3-12 2.4-18 2 2.2-5.5 4.7-10.8 9.6-14.5 1.3-1 2.7-1 4.2-1zm154.6-.7c5.4 3.5 10 7.2 11.3 14 1.5 6.3-.6 11.8-3.3 17.4-5.4-3.7-10-7.6-11.4-14.4-1.6-6.3 1-11.4 3.4-17zm-105.4 5a21 21 0 0 1 13.6 19.1c-.4 3.6-1.5 7.2-2.4 10.7-4.6-3-9-5.6-12-10.3a19 19 0 0 1 .6-19.6zm209.3 23.5c.5 3.5 1.6 7 .6 10.6-1 3.4-1.7 7.3-4 10-3 3.7-8.4 5.6-12.7 7.3-1-5-2-9.8 0-14.8 2.4-7 9.3-10.8 16-13.2zm42 1.5l17.2.3c5.8 2 9.5 8 12.3 13-6.2 1.6-12.3 3.2-18.4 0-5.6-2.8-8.8-7.7-11-13.4zM60 145a25 25 0 0 1 4 19c-1.3 5.6-5.3 9-9.6 12.3a23 23 0 0 1-5-17.8c1.6-5.7 6-10 10.5-13.5zm86.7 6.4c-1.5 5.6-2.8 11-7.8 14.5-5.7 4.3-12 4.4-19 3.7 1.4-5 3-10.3 6.8-14 5.6-4.7 13-6 20-4.3zm33 2.6c6 3.2 11.3 6.7 13 13.7 1.7 6 .7 11.5-1.6 17-5.4-3-10.3-6-12.8-12-2.2-6.4-1-12.6 1.4-18.8z" fill="#858585"/><path d="M266.3 185.3c-4 5.5-11.7 8.7-17.8 11.3 2.4-6.7 5-15.7 10.8-20.4 5-3.5 10.7 5.2 7 9z" fill="#9260c7"/><path d="M343.8 179.3c4.6 4.3 8.4 9.2 8.6 15.7 0 6.6-3.4 11.3-7.2 16.3-4.2-4.5-8.2-8.7-8.6-15.2-.5-6.7 2.8-12 7.2-16.7zm-189.4 2c1.4 5.6 4.6 12 2.5 17.6-2.3 6.2-7.5 9.8-13 13-1.5-5.6-4.2-10.4-2.6-16.2 1.4-7 7-11 13-14.5z" fill="#858585"/><path d="M181.5 207.6c3-1.2 6-.4 8.8 1.2 5 2.8 9.2 7 13.3 11-6 .7-12.5 1.5-18.4 0-2.8-.7-5.5-2.6-6.7-5.2-.4-2.3 1.2-5.5 3-7zM63 230c3 .2 5.3 2.5 7 5 2.8 4.7 4.4 10.5 6 15.7-6-3-13.8-6.3-17.7-12-2.5-4 .7-8.6 5-8.8zm214 3c2.8.8 5 3.7 6 6.3.5 2-1.6 4.3-3 5.6a57 57 0 0 1-16.8 8.7c2-5.8 4.3-12.4 8.2-17.2 1.3-1.5 3.6-3.6 5.7-3.4zm-139 5.3c2.5 1.2 4 4.6 5.5 7-1.4 2.4-2.6 4.7-5.2 6.2-5 3-11.8 4-17.6 5l8.8-12.7c2.3-2.4 5-5 8.5-5.2zm61 14c2.8-.2 5.4 1.5 7.6 3.2 4 3.4 7.6 8 10.8 12-6.8-.6-15.4-.8-21.4-4.4-4.6-3-1.8-10 3-10.8zM55 274.5c7.5 2.5 12 11.3 16.2 17.5-6.4-1.2-14.3-2.4-19.5-6.6-1.3-1.2-3.6-3.2-2.5-5 1-3 3.3-4.2 5.8-5.8zm88 13.7c2 2.7 5.7 5.4 4.4 9.2-1.6 2.3-4.2 3.4-7 4-5.4 1.4-11.6 1-17.2 1 5.6-6 11-12.8 19.7-14.3zm156 7.4c1.7 0 4-.2 5 1.4 2 3 2.3 8.5-2.2 9.5-7 1.4-15-1-21.6-2.6 5.6-3.6 12-7.7 18.8-8.3zm-91.7 7c5.4 1.7 10.5 5.2 15.2 8.4l-24.8 1.4c-.1-2.7-.7-6.6 1-9 2.4-2 6-1.7 8.8-1zm-152 11c6.5 2.8 11.4 10.2 15.2 16C64 329 56.8 328 51 325c-2-1.2-4.4-3.2-3.4-6 .8-3.2 4-7.4 7.6-5.4zm90.4 17.5c2.3 2.8 4 7.3.1 9.6-6 3.5-15 2.8-21.8 2.8 4.4-4.5 9.4-9.7 15.2-12.4 2-.8 5-1.6 6.5 0zm61.8 21.4c7-1.6 15.7 1.6 22.5 3.5a73 73 0 0 1-17.2 7.5c-2.5.5-6 .7-7.7-1.7-1.5-3.3-2-8.3 2.5-9.4zm78 4.8c6.4-.1 14-.3 20 2.2 2.2 1 5 3.3 4 6-1 2.5-3.2 4.6-5.4 6-7.4-.8-13.8-9-18.6-14zM68 359c2.2 1 3.6 3.4 4.7 5.4 2.3 4.6 3.7 10 5 15-7.2-3.7-15.2-7.2-19-15l3-5c2-.3 4-.7 6-.4zm77 23c2.7 0 3.3 3.2 4 5.2 1.3 3.2-1.5 5.7-4.2 6.8-6 2-13.3 1.4-19.5 1.3 3.5-3.6 7.2-7.5 11.3-10.5 2.4-1.6 5.3-3.2 8.3-2.8zm118.7 6.5c2.4 5 4.8 10.3 6 15.7.6 2.8.8 5.7-.3 8.4-1 1.6-3.8 1.7-5.5 1.7-2-.1-4-.5-4.4-2.8-1.3-6.5.6-14 3-20l1.2-3zM59 411.8c3-.1 5.4 2 7.2 4 3.6 4 6.3 9 9 13.8-8.4-2.2-16.8-3.5-22-11.3l1.6-5c1.4-.7 2.8-1.3 4.3-1.6zm80 4c3 .3 4.8 4.5 6.5 6.7-1.5 2.3-2.7 4.5-5 6-5.2 3-11.8 4.2-17.6 5.3 2.7-4.8 5.4-9.7 9.2-13.7 2-2 4.2-3.8 7-4.2zm-77.6 39.7c2.5-.7 5.5 1.3 7.2 3 4.2 4.4 7 10.7 9 16.3-5.4-2-11.4-4-16.2-7.2-1.8-1.3-4-3-4.4-5.4.6-2.4 2-5.5 4.3-6.7zm82.6 9.8c3 2 4.3 3.6 5.7 6.8-1.8 2.3-3.2 4.4-6 5.6-5.2 2.4-11.4 3.2-17 4.2 4.2-6.4 9-15.4 17.3-16.7zm-41.8 60.5a62 62 0 0 1 7.6 15.5c1 3.3 1.4 7-.5 10.2-2.8 2-9.7 2-10.2-2.3-2-7.4.6-16.3 3-23.3z" fill="#9260c7"/></svg>