<svg xmlns="http://www.w3.org/2000/svg" viewBox="0 0 400 610" width="533.3" height="813.3" xmlns:v="https://vecta.io/nano"><path d="M0 0h400v610H0V0z"/><path d="M18.5 16.4l61.3-.1c6.3 5 12.7 9.4 21.2 9a28 28 0 0 0 18.9-8.9l16 .7-27.8 35-19.3 2.8a32 32 0 0 0-13-7.1c-6.8-1.3-14-.7-20 3.4-4.4 3-8.3 7.3-10.6 12 .5.8 1 1.5 1.6 2 8 7 19.2 10.4 29.3 6.2 6-2.3 9.4-6.8 12.8-12l13.7-1.6c-8.8 9.8-18.3 19.2-28 28C72.5 88 70 87.5 67 88a23 23 0 0 0-17.9 10.1c-4.4 7-5 15.4-4.3 23.5a36 36 0 0 0 22.3-5.4c7.3-5.4 11-15.4 9.4-24.3l24.7-24.4-1.8 13.2c-1.3 1.8-3.2 3.2-4.8 5-4.4 5-7.5 10.6-7.4 17.4 0 8 4 14.6 9 20.6l3.3.6c6.8-5.6 12.4-12.2 13.7-21.3 1.3-8.5-2.8-15.8-8.2-22l2-18c.2-2.2 1.5-3.4 2.8-5A449 449 0 0 0 134 28.5l4.2 15.3c-2 3-4 5.7-4.7 9.4-1 6.5-1 14 2.7 19.8 4 6.2 9.7 9.4 16 12.6 5.7-7.2 9-18 6-27-2-7.3-8.5-13.3-15-17L138 23c1.7-2.4 3.4-4.7 5-7 0 3.6-.8 8 .4 11.5 1.6 2 5.3.8 7.5.6 8.2-1 15.5-4.7 20.3-11.7h12c8.5 7.5 19.7 7 29.8 3.7 1.7-.4 2-3 3-4.4-.3 6.4-1.5 12.7-2.4 19-.2 2.4-2 3.2-3.5 4.6-5.5 4.3-9.7 10-10.5 17-1.5 8.8 2.2 16.4 7.6 23.2l3.4.6a43 43 0 0 0 10.7-10.7 30 30 0 0 0 4.2-15.3c-.1-6.4-4.4-11.7-7.4-17l2.7-15.2L245.5 45l-.6 19.8c-3 3-5.8 5.8-7.7 9.5-3 5-3.6 11-2.8 16.7 1.3 7 6.2 13.7 11.6 18.2 7.3-6.3 13.6-13 14-23.2-.2-8-5-15-9.8-21l.4-15.7L276 69c2.5 2.2 5.7 3.6 8 6 2 3.8 3 8.3 4.6 12.4.8 3 2.8 5.4 1 8.4a33 33 0 0 0-2.4 20.1c2.5 8 9.8 14.2 17 17.8 1.6 1 4.3 1 5.2-.8 2.4-4.8 4-10.3 4.4-15.7.4-8-3.7-15.5-10-20-2.4-2-5.4-3-8-5-2-3.8-3-8-4.5-12a518 518 0 0 0 29 17.7c1 4 1.8 8 4 11.8 2.4 3.8 5.6 7.4 9.8 9.2 7.4 3.4 16.5 3 24 .5-.7-8.3-4.3-18.3-11.4-23.2-6.8-5-16-5.5-23.7-3l-35.8-22.3 13.8-1.7c6 5.5 13 9.5 21.6 9 9-1 16-6.7 21-14 .8-1 1-2 0-3-6.8-6.4-15.8-11-25.4-9.2-7.8 1.2-12.6 6.6-18 12-6.3.5-12.5 1.2-18.8 1.7-2 .3-3-.8-4.5-1.7l-29.2-23.3c4.4.8 9 .7 13.3 1.6 1.8 1 3.2 2.7 4.7 4 6.2 6.5 16 9 24.5 6 6.2-2 10.5-6 15.4-10-5-5.8-9.8-11-17-13.7a19 19 0 0 0-15.5.6c-4.4 1.6-7.6 4.7-11.5 7-6.4 0-13.2.1-19.6-.8-7-5.7-13.2-12.4-19.7-18.6H242c3.7 0 7.2 1.2 11 1 4 0 8-1 12-1h117V217c.1 3-1.2 5-2.4 7.7l-13.5 31-6.7-14.3c-1.2-2.5-.8-4.8-.8-7.4a49 49 0 0 0-3.3-20.5c-1-2.5-3-5.3-5.3-6.7-5.4-2-12.4-.4-15.5 4.8-2.2 3.5-1.2 8.5.7 12 3.6 6.8 10.2 12.2 16 17 2.7 2 4 5.6 5.4 8.5l6.3 13c-.2 1.6-1 3-1.5 4.6-3.5 8.2-6.5 16.7-9.8 25l-9-15c-2.4-7.7-2.2-17-5.6-24.3-1.8-4.3-5.7-8-10.4-8.7-4.8-.4-9.5 3.5-11.4 7.6-1.4 3.4-.1 6.3 1 9.5-11.2 4-21.6 9.6-31.5 16.2-20.3 13-37.8 30-51.2 50-4.6.6-9.4 1.3-14 .8-1.4-.3-2.2-.6-2.5-2-1.5-5.6.7-12.3 2.7-17.6 1.2-3 1.8-5.7 4.7-7.3 9.2-5.8 18-12.8 25-21 11.2-13.4 16-31.2 13.6-48.4 24-8 49.3-17 71.2-29.8 3.7-2.3 7.3-4 9.8-7.7-1-1.8-1.6-3.6-3.6-4.5l-20.6-11.5 2.7-35.6-2-3c-2.5.1-4.5.3-6.4 2-8.2 6.3-15.6 13.8-23.2 20.8-16 15.5-32 32-43 51.5a108 108 0 0 0-23.5 3.8c-.2-6-2-11.8-5.2-16.8-2-3-4.8-5.5-8.4-6.5l-16-4.4c-2.7-.6-4.8-3.6-6.7-5.5a43 43 0 0 1 6.6-8c8-7.6 17.2-14.3 26-21 15.2-11.6 31.8-23.4 49.6-30.6 2.2-1 1-5.8-1.7-5.5-20.6-1.3-41-1-61.3 2.3a50 50 0 0 0-14.7 4.6c-12 6-23 14.2-33.2 22.8L133 175c-4.2 5-8.2 10-11.3 15.7-2.2 4.2-4 9.4-3 14.2 1 4.7 4.7 8.3 8.7 10.5 7.6 4 16.5 5.2 24 9 1.8 1 4.4 2 4.4 4.5.6 5.8-2.3 12-5 17-1.3 2.2-2.3 5-4.8 6l-36 18.3a135 135 0 0 1-11.4-27.2 122 122 0 0 1 13.2-98.2c1-1.5.5-3 .5-4.6-2 .4-3.8.3-5.6 1.4a140 140 0 0 0-42.7 43.3C52.7 204 45 225.2 42.5 247c-3.5 29.7 3.6 60.8 17.2 87.2-1 4-2.5 7.2-1 11.2 2.2-.6 4.3-1.2 6.4-2a149 149 0 0 0 72.5 57c21.5 8.3 45 11 67.7 7.6a142 142 0 0 0 1.9 24.8c1 6 1.2 12.2 1.8 18.3a29 29 0 0 1-5.2 18.8c-2.3 3-5.7 5-8.5 7.4-3 2.5-6.2 5.8-10 7l-12.8 5-15 6c-4.7 2.6-9 5.6-11.4 10.5-3.8 8-5 17-2 25.2a42 42 0 0 0 15.2 20.7 51 51 0 0 0 21.1 8c5.8 1 11.5-.8 16-4.5 2.8-2 4.5-5.6 6.5-8.5 2-3.3 4.4-6 5.2-9.8 1.6-6 1-12.2-1-18-2-4.8-6.2-7.8-11.2-9-7.5-2-15 1-20.8 5.8-1.8 1.6-3 3.5-2.8 6 .3 4.5 2.8 8.8 6.3 11.6 2 1 3.2-.7 4.7-1.6-2.2-2.6-4.7-5.4-5.2-9 .6-2 1.8-4.3 3.4-5.7 6-3.7 14.2-2.7 19.5 1.8 3.4 3.5 3.5 9.2 2.7 13.8-1.3 8-7 14.6-13 19.5-4.2 3-8.4 1.7-13 .8-8.6-1.8-16.5-5.7-22-12.6-4.2-5.2-7.7-12-8-18.6a24 24 0 0 1 8.3-19.4c4-3.5 9.3-4.7 14.2-6.7l21-8.2a46 46 0 0 0 17.1-14.7c3.8-6 7.2-12.7 6.4-20-.6-7.4-.7-14.8-2-22-1.3-8-2-16-1.7-24a194 194 0 0 0 27.9-7.6c22.8-8 43-22.3 59-40.6l12 8.8c2.2 2.5 3.7 5.7 5.4 8.6 2 3.7 4.5 7 6 11-1 6-3 11.7-4.2 17.5l-7.5 31.8-10.6-10c-3-2.6-3.8-6-5.3-9.6-2.7-6-4.7-12.7-9.5-17.5-2.7-2.6-5.6-5-9.6-4-5.7 1.3-11.4 7.6-10 13.7 2 5.6 8.6 9.6 13.5 12.4 5.8 3.4 13 3.8 17.4 8.6l13 12.6-5.4 28.7-11.7-8c-1.8-1.3-3.6-2.3-4.6-4.3-4-7.3-8.7-15.6-15.5-20.7-3.3-2.6-8.2-3.8-12-1.5-3 2-5.6 6.6-6 10.2-.4 4.8 4 8.4 7.7 10.5 7.8 4.6 16 4.7 24.3 7.5 5.8 3.5 11.2 8 16.7 12l-3.3 22c-.3 2.6-2 4-3.4 6-3.4 4.3-6 9.3-9 14-2.5 4.6-5 10.3-2.4 15.4 3.6 6.4 14.2 7.8 19.5 2.7 3.4-4 3.5-11 3.4-16.2 0-6.6-2.6-12.6-3.2-19 .6-6.5 1.8-13 2.8-19.4l16-8.6c3.5-2 8.3-1.8 12.4-2.3 7.2-.7 16-.7 22-5.4 3.3-2.4 3.4-6.8 2.8-10.4-.8-5-5.7-10-11-9-7.4 1.2-14 7.7-19 13-2.7 2.8-4.8 7-8.3 8.7l-13.6 7 7.4-38.7 17.8-5.7c4-1.4 8.3.1 12.5.3 6.6.4 14.6.3 20.5-3.2 3-1.7 5-4 5-7.5-.2-3.3-1.2-6.8-3-9.6-2-3-6.2-3.3-9.5-3-5 1-9.8 4-14 7-4.8 3.6-8 9.8-14 11l-14.3 5a998 998 0 0 1 9.1-37.4l18.7-1.6c6-1.3 12 5 18.2 5h17.8l2.4-2.8V595H18.4V27l.1-10.6z" fill="#fff"/><path d="M88.6 16.3H111c-4 2-7.6 3.7-12 3.5-4-.1-7-2-10.3-3.5zm59.4 0h16.3c-5 4-10.3 5.6-16.6 6.3l.3-6.4zM283 32c6.5.8 11 4.7 15.5 9.2-4.8 3.6-9.4 6.7-15.6 6.6-7-.1-11.8-4-16.5-8.6 4.8-3.7 10-7.6 16.5-7zm-68.5 9.6c4.2 5 7 11.7 5.6 18.4-1.4 5.4-6.4 9.8-10.3 13.6a26 26 0 0 1-5.2-14.5c-.4-6.4 3.4-11.5 7.8-15.7l2-1.8zm-72.7 6c4.5 3 10 7.3 11.8 12.6 2 7-1 12.2-3.2 18.5-4.8-3.3-10.3-7-12-13-1.4-6.4.7-12.5 3.6-18.2zM67 52.3c6.8-1 12 2 17.4 6C80 62 75.2 67 69 67.5c-6.6.7-11.8-2-17.3-5.2 4.2-5 8.3-9.5 15.2-10zM319 57c7-1.3 13 1.6 18.6 5.7-4.6 5-9.4 9.4-16.6 9.3-6 .2-10.3-2.7-15-6 3.5-4.4 7-8.2 13-9zm-71.4 13c4.3 4 6.8 9 6.5 15 0 6.7-3.6 11.5-8 16.3-3.8-4.8-7.5-9.8-7.2-16.3.3-6.3 3.8-11.2 8.6-15zM101.4 85c4 5 7 10.3 6.6 17-.3 7-5 11.4-10 15.8-2.4-4-5.6-9-5.8-13.7a25 25 0 0 1 7-16.7l2-2.3zm-29.6 7.4C71.6 99 70.6 105 66 110c-4.2 4-10.8 5.2-16.3 6.4.5-6.3 1-12.5 5.2-17.5 4.6-4.8 10.6-6 17-6.5zm254.2 5l16.6 2c5.5 2.6 8.3 10.4 10 15.8a31 31 0 0 1-14.7-1.3c-6.8-2.7-11-9.5-12-16.5zm-31.5.3c2.8 1.4 5.7 2.6 8 4.8 3.7 3.3 5.6 8.7 6.2 13.6-.3 4-2 7.8-3 11.6-5.2-3-10.8-6.4-12.8-12.4-2-6.2-.2-11.6 1.7-17.5z" fill="#858585"/><path d="M230.2 125l-30.7 24.4-34 29c1 1 1.5 3 3.4 2.3 2.5-1.3 4.5-3.5 6.6-5.3l25.2-21.7 31.7-25.3c2.4-1.5 4.6-3.5 7.5-3.5h15.5l-44 29.4c-7.8 6-16 12.3-22.6 19.5l-25.2 26.5 3.8 1.5 15.6-16.2c1 4 3.3 6.2 6.4 8.6l-14.7 13.8 3 2.2 15.4-15 11.4 3.5L188 213c-1.7 1.5-3.5 3-4.7 4.8-.3 2.3 1.5 2 3 2.5l23-20.6c2.2 2 4.3 3.6 5.6 6.2 3.4 6.8 3 13.5 3.5 20.8.1 2.5 2 3.6 4.3 3 2.4-.1 2-3.7 2.4-5.5l24.3-4.2c3.6-.4 4.8-4.4 6.7-7 15.4-24.3 37-45.6 59.3-64L315 161l-55.5 56 4 .5a448 448 0 0 1 51.2-50.8l-1 14a79 79 0 0 0 6.9 4.8l-39 20.4 1.8 3 41.3-21 9.6 5.8C312 208 285 217 260 225c-1.8.6-3.2 1.8-3.2 3.8-.1 3.7.6 7.4.5 11a57 57 0 0 1-10.1 32.3c-4.4 6.4-10.6 11.6-16.7 16.4a142 142 0 0 1-43.4 21.6c-17.8 5.6-35.8 8.2-54.2 10.2-12.3.8-24.2 1.3-36-2.6-1.8-.6-2.8-3-3.3-4.6-1.3-4.2-1-9-.7-13.3.6-8.2 6-15 13-19l38-20c1.5.8 3 1.6 4.8 2 2.4-2.3 4-5.6 5.6-8.4a58 58 0 0 0 8-22.3c.2-3.6-.2-7.6-3.2-10-8-6.5-18.5-8-27-12-3-1.6-7.3-4-6.8-8 .4-6 4.5-12 8-17 8-10.5 18.4-20 28.4-28.6a206 206 0 0 1 33.1-23.9c4.7-2.7 9.6-4 14.7-5.5l-58.6 48.6a74 74 0 0 0-6.1 6.3l4.3 1.2c20.6-19.7 42.3-39.4 66.2-55 4.4-3.2 9.8-2.4 15-3z" fill="#fcce00"/><path d="M102.7 151.5L93 175c-5.8 19.4-6.5 40-1.8 59.6C94 248.3 99 261 105.8 273c-5.6 3.3-10.6 7-14.3 12.5-3.5 4.7-5 10.2-5.4 16-4 3.2-8 6.4-11.5 10-4.8 5-8.4 10.5-12 16.3l-9.2-22.3c-6.7-19-8.3-40-5.7-59.8C50.4 226.3 57.4 208 67 191a130 130 0 0 1 33.2-37.7l2.4-2z" fill="#d96038"/><path d="M346 211.3c2.7 1.3 4.4 3.7 5.3 6.5 1.8 5.5 2 12 2 17.6-4.8-4-10.5-8.6-13.4-14.3-1-1.8-1.8-5-.5-6.7 1.5-1.6 4.3-3 6.5-3.2z" fill="#9260c7"/><path d="M236.3 232.5c2 1.2.6 2.3.3 4.2-5.3 1.6-10.5 3.7-16 5-1.8.3-2.4-.2-3.3-1.7 1.3-2 4-2.6 6-3.5 4.3-1.4 8.4-3 12.8-4.2z"/><path d="M382 232.3v61c-3 1.5-5.7 3.6-8.7 4.8-6 .8-12.3.7-18.4 1.2l25.6-63.6 1.5-3.3z" fill="#fff"/><path d="M240 245.5c.5.8 1 1.6 1.3 2.4l-13.5 5c-1.8.5-4.3-.3-3.4-2.6 2.7-1.8 6.2-2.5 9.2-3.7 2-.5 4.3-1.7 6.4-1.2zm-39.4 1c.1 1 .5 2.7-.8 3.3-2.8 1.7-6 2.8-9 4.2-2.2 1-4.3 2.3-6.7 2 0-1-.3-3 .7-3.8 2-1.4 4.6-2.3 7-3.4 2.5-.7 6.5-4 9-2.2z"/><path d="M329 249.6c6 6 6.4 14 7.7 22-5.2-3.4-11.3-7.3-15-12.5-1.6-2.4-2.4-5.3-.2-7.6 1.6-2.2 5-1.6 7.6-2z" fill="#9260c7"/><path d="M203.5 256.5c1.8-.7 2.7.6 2.6 2.4a75 75 0 0 1-12.1 5.6c-1.6.6-4-1.5-2-3.2a70 70 0 0 1 11.5-4.8zm37.2-.1l.2 3c-3 1.2-6 3-9 3.7-2.3.5-3-2-1.5-3.3 3-2 6.8-2.7 10.3-3.2zm-74 4.3c.1 1 1.6 3.4.1 3.8-4.7 2.5-9.5 5.3-14.6 7-1.4-1.3-1.4-4 .6-4.6l14-6z"/><path d="M320 265.8l2.4 2a124 124 0 0 1-10.7 16c-2 2.8-5.6 1.4-8 4-2.8 2.5-3 5.5-4 8.8-2 2.4-4.5 4.4-6.8 6.3-9.2 7.5-19.4 14-30.5 18.5-7 2.3-14.5 3-21.7 4.6 14.7-20.8 34.2-37.4 56-50.2 7.3-4 15-8 23-10z" fill="#fff"/><path d="M207.2 268c.8 1 1 2 1.3 3.3-3.5 1.7-6.8 3.8-10.5 5-1-.6-2-1.3-3-2l12.2-6.2z"/><path d="M326.3 270c.8 8-1.2 17-2.4 25-2-4-4-7-7-10.2l9.4-14.8z" fill="#d96038"/><path d="M174.3 273c-.2 1-.4 1.8-.7 2.6-5 2.4-10.8 3.4-16 5a181 181 0 0 1-1.6-3.1l13-4.5c2-.5 3.3-1.3 5.2-.2z"/><path d="M332.3 275.6c3 2 6 3.3 7.6 6.6 3 5.3 6.7 10.3 9.4 15.8L338 331.5c-2.8-4.3-5.7-8.5-8.6-12.8-2-2.6-1.7-6.6-2.2-9.7-.4-2.8 0-5.4.8-8 2.3-8.3 3.6-16.8 4.4-25.4z" fill="#fff"/><path d="M211.7 278.3c.4 1 .8 2.2 1 3.4-2.3 2-6 2.6-9 3.7l-2-2.7a86 86 0 0 1 9.8-4.4zm-87.3 6.2c-.2 1.7.5 4.6-1 5.8-3 1-6.6 1.4-9.3 3-2.4 1.5-4.2 4-6.6 5.5-1.2.1-2.3-.5-3-1.3-1-1.6-.1-3.6 1-5 5-5.2 11.6-8.7 19-8zm55.2.7l1 2a82 82 0 0 1-16.3 5.9c.3-2-1-4.8 1.7-5 4.4-1 9.2-3.2 13.7-2.8z"/><path d="M314 289.4c6 6.5 7.2 14.3 8.3 22.7-4.6-3-9.5-6-13.2-10-2-2.2-3.6-5-3.3-8 1-3.5 5.4-3.6 8.2-4.6z" fill="#9260c7"/><path d="M180.2 295.3l1 3.6-12.7 4c-.3-1-.7-2.3-1-3.4 4-1.7 8.4-2.8 12.6-4.2z"/><path d="M381.2 300.3h.5v.5h-.5v-.5z" fill="#9260c7"/><path d="M302.3 302.2c4.6 5.6 9 9.5 15.2 13.3l-10 20c-4.2-2.4-8.4-1.6-13-1-4 1-7 5.4-6.5 9.4.4 4.2 3 7.6 5.3 11-21 25-50.6 41-82.4 46.8a94 94 0 0 1 4.5-22.5c.4-1.4 1.5-1.5 2.7-2 19.2-7.2 38-16.5 54.5-28.7a97 97 0 0 0 13.8-12.2c3-3.4 6-7.7 6.7-12.3.3-1.7-1-3.7-1.5-5.3l-9.7-.7c7.5-4.4 14-10 20.5-15.7z" fill="#d96038"/><path d="M372 304.2c3.4-.3 7 2 10 3v20.3A69 69 0 0 0 364 335c-1.7 1-3 2-5.2 2.2l-17.3 1a534 534 0 0 1 11.4-33.5c6.4-.3 12.8-.4 19-.6z" fill="#fff"/><path d="M214 307l-3 10.7-16.5 6.5c.6 1.3.4 4.3 2.7 3.2 4.6-1.5 9-3.6 13.3-5.4l1.2 8-21.3 8.5c-1.5.5-2 1.7-3 3 4.3.8 7.6-1 11.6-2.5l14-5.2c3-1.2 6 .2 9.3.5 4 .7 8 .1 12-.8-12 6-23.3 12.6-36.5 16.2-1.5.7-4.7 1-4 3.3-.2 1.8 2.5 1.4 3.5 1 14.2-4 28-11 41-18 3.4-2 6.2-4 10.2-4.7l16.8-3-12 8.7a161 161 0 0 1-17.3 10.7c-12.4 6.8-25 12.8-38.8 16-2.3.6-4 1-5 3.3.8 1.3 2 1.7 3 1.3 19-3.7 37.4-13.4 53.6-23.6L271 329c4-3.2 10.5-3 15.4-4a33 33 0 0 1-7 9.6c-7.7 7.3-17 13.3-26 19-17.6 10-36.4 18.5-56 24-5 1.4-10.2 1.7-15.3 2.3-5.5.6-10.5 1.8-16 .7-7.4-1.2-15.3-4-19.2-11-2.5-4 0-8.7 2.2-12.4l12-19c2.2-5 1-10-.8-14.7A199 199 0 0 0 214 307zm-126.7 2.8c.5 3.6 1.4 6.4 3.2 9.6-8.4 3-15.5 8-22.8 13 2-3.5 4-7 6.7-10 4-4.8 8.6-8.2 13-12.5z" fill="#fcce00"/><path d="M322.4 318c2 1.7 3.3 3.8 4.7 6l8.8 13.3-13 43-8.6-15.7c-.6-8-1-15.8-3.8-23.5a201 201 0 0 0 11.8-23.1z" fill="#fff"/><path d="M101 324.7l37 1.2c5.3.2 10.5-.7 15.7-1.4 1.2 3.5 3 7 1.2 10.5-4.6 9.7-13.5 18.7-15.5 29.3-1 4.5 1.6 8.8 4.2 12 4.8 6 13 8.5 20.3 9.7 6.2 1 12-.1 18-.6l17-2.4 10.7-3-4.2 22.6c-21.3 3-43.2.8-63.5-6.5-29.6-10.3-55.7-30-72.6-56.5 6.8-5 14.2-9.8 22-13.2 3.2-1.4 6.2-2 9.7-1.7z" fill="#d96038"/><path d="M382 333v11.3a82 82 0 0 1-14.9-5.1c4.8-2.5 9.8-4.6 15-6.2zm-77.3 7.3c3.6 5.8 4 14 5 20.7-5.4-3.7-11.7-8-14.7-14-1.2-2.6-2-5.5.7-7.5 2.5-1.8 7.5-2.8 9 .7z" fill="#9260c7"/><path d="M360 342.8c7.4 2.7 14.3 6 22.2 7l.1 32c-2-2.6-3.4-5-7-5-10.8-.1-18.5 5-27.7 9.6-6.6 1.5-14 1-20.8 1.6l12.8-43.6 20.5-1.5z" fill="#fff"/><path d="M369.3 382.3c2.7-.5 6.6-.5 8.5 2 1.3 3 .7 8.5-3.2 9-7 1.4-15.5-2-22-4.6a69 69 0 0 1 16.7-6.4zm-95 18.7c2.4-1.5 4.7.7 6.3 2.3 4.3 4.8 7 11.6 9.3 17.6a52 52 0 0 1-16.8-8.1c-1.7-1.4-3.6-3.6-3.7-6-.1-2.7 2.7-4.8 5-6zm88.6 13.2c2 1.3 3 4.5 2.5 6.8-.5 2.7-3 4-5.4 4.7-6.2 1.5-13.5.5-19.8 0l11.6-9c3.4-2 7-4 11.2-2.4zM262 441c3.4-.4 6.3 1 8.6 3.4 4 4 7 9.6 10 14.5-5.5-1.2-11.3-2.5-16.4-5-2.3-1-5-2.7-6-5-.2-2.8 1.4-6.5 4-8zm89.7 12.3c1.5 1.7 2 4.4 2.6 6.5-1.8 1.8-3.2 3.6-5.7 4.5-5.7 2-12.4 2.2-18.4 2.4l13.7-13c2.4-1.4 5.4-2.7 7.8-.5zm-52.7 55l2 14.7c.2 3.2.1 7.3-1.6 10-2 1-4.6 1.6-6.8 1.4-2-.4-5-2-4.6-4.4.1-8 6.4-16 11.2-21.8z" fill="#9260c7"/></svg>