<svg xmlns="http://www.w3.org/2000/svg" viewBox="0 0 400 610" width="533.3" height="813.3" xmlns:v="https://vecta.io/nano"><style><![CDATA[.B{fill:#858585}.C{fill:#d96038}]]></style><path d="M0 0h400v610H0V0z"/><path d="M18.5 15.3c3-.2 6.3-.1 9.5-.1h354V308c-8 1.5-15.7 4.4-21.2 10.8-4.8 6.2-9 13-9 21-.2 6 2.3 10.8 4 16.4l-5 7.3-15-17.6c-3.5-4.4-6.2-9.2-9-14 2.3-3 4-6.6 6.8-9.2 2-.4 4.2-.3 6.2-.5 5.2.1 10.4-2.8 14.5-6 7.2-6 11.8-15 12-24.4.6-6.6-1.5-12.2-2.8-18.6-5.5-2.5-11.7-.6-17 1.4a34 34 0 0 0-19.3 16.6 29 29 0 0 0-2.7 15.6c.2 4.5 2.2 8.5 3.6 13l-4.4 6.3c-3.2-7.2-6.2-14.6-8.2-22.2a426 426 0 0 1-4.4-26.1L321 264h9a27 27 0 0 0 19.6-9.6c4.8-5.5 7.3-12.4 8-19.6.6-5.2-.8-10.8-1.6-16-.2-1.5-1.2-2.3-2-3.4l-13 1.5a37 37 0 0 0-16.8 8.2c-5.3 4.2-8.5 11.3-10 17.8-1.4 6.3-.2 12.4 2 18.4l-6 8.7-5-38.2 11.2-19.6a25 25 0 0 0 14.1-6.8 41 41 0 0 0 10.8-18.5c1-5-1.4-9.2-5.5-11.8-3.7-2.7-10-4.8-14-1.3a34 34 0 0 0-11.8 22.1c-.4 4.5 1 8.6 2 13l-8.4 15.3L297 196c1-6 3-12 4.2-18 .6-2 .6-4.2 2.5-5.2 3.3-2.2 6.5-3.8 9-7 4.4-5 6-11.4 7-18 .6-4.7.4-9.2-3.5-12.4-4.6-4.2-10.4-2-16-2-5.8 5.6-7 12.7-8.4 20.3-1 7 1 13.4 5 19l-3.5 14.7a146 146 0 0 0-15.3-27l2.4-22.2c3.4-2.4 6.5-4.8 8.8-8.3 5-7.6 5.8-18 4.2-26.8-.5-3.6-4.4-5-7.4-6.3-5.5-2.2-12.8-.1-15.5 5.4-4.4 9.4-4.6 20.5.2 29.8 1.2 1.8 3 3.4 4.4 5l-1.7 17.3c-3-4.3-7-7.8-10-12l-7-20.8a26 26 0 0 0 4.1-19.7c-1.3-6.3-3.7-14.3-9.5-18-3.3-1-7-1.3-10.4-1.5-5.7 1.5-9.3 6.7-9 12.5.8 8.4 4.8 16.7 10.6 22.8 2.4 2.6 5.4 3.7 8.6 5l5 12.8a35 35 0 0 0-5.2-5.2L222 108.2c-.5-12.5-10.4-21.5-21.3-26-3.6-1.4-8.8-2.3-11.7 1-3.2 3.3-6.6 8-6 12.8.3 4 4.2 7.3 7 9.7 7.4 6.3 17 9.3 26.7 7.3 2.5-.7 3.7 1 5.6 2.3l25.7 20.5-15-2c-1.8-3-2.8-6-6-8.2-4.7-3.4-11.3-7.3-17.4-6.3-4.3.4-8.6.5-12.8 1.2-4.3 1.4-5 6.7-5.3 10.5a11 11 0 0 0 4.7 10.5 34 34 0 0 0 27 2.9c3.4-1.2 6-3.2 9-5.2l20.7 2.8c1.8.2 2.8 1.6 4 2.8a159 159 0 0 1 16 19.3l-17.8-1-6.6-6.8c-5.7-4.3-12.7-6.3-19.8-6-4.3.3-9.8.2-13 3.8a18 18 0 0 0-2.1 14.7c.6 2.5 2 3.7 4.2 4.8a38 38 0 0 0 24.7 2.3c4.8-1.2 8.6-4 12-7.5l22.5 1.8a137 137 0 0 1 14.9 30.1c-6.5-1.3-13.2-2-19.7-3.3-4-7.6-11.5-13-19.8-14.6-4-.1-8 .6-12 .8-2.6.4-5-.2-6.6 2-3 4-4.3 10-2.5 14.8 2.2 4.7 7.5 6.3 12 7.8a30 30 0 0 0 21.1-1c2.5-1 4.3-3.4 6.8-4.3 7.5.7 14.8 2.4 22.3 3.3 3.2 11 5 22.3 7 33.6l-20.4-4c-2.6-4.8-6.2-8.8-11-11.3-3.5-1.7-7.6-3.8-11.6-3.2-4.6.4-9.2.6-13.7 1.4-3.6 1.3-4.8 6-5 9.5-.3 3.6-.3 8.4 3.3 10.5 5 3.2 11.6 4.2 17.5 5 8 .7 14.3-1 20.4-6.3l21.5 4c1.5 11 3 21.8 3.6 32.7l1.5 9.5-7-2.5c-1-5.4-3.4-10-6.2-14.6-4.5-6.6-11.8-12-19.8-13a37 37 0 0 0-23.5 4c-2.3 1.3-5 2.6-6.7 4.7a99 99 0 0 0 4.4 12.8 38 38 0 0 0 18.2 16.7c7 2.4 15 2 22-.4 3.5-1.3 6.5-4 10-5.4 3.3.6 6.5 2 9.7 3.2 2 13.7 6.7 27 12.8 39.5l-5.4-1.2c-1.8-5.3-5-9.8-8.4-14-7.3-8.5-19.8-12-30.5-9-7.5 2-12.8 6.3-19.3 10.2 1 4.2 3.8 8 5.8 12 5.5 10 16.8 16.4 28.3 16 8.7-.4 17-4.5 23.4-10.4 3 1 7.2 1 9.8 3 7 10.7 15.3 20 23.8 29.6l-6.7.3c-5-5-8.3-10-15-13-12.6-5.2-27-1.2-36 8.6l-10.5-9.8a25 25 0 0 0-5.3 3.7c-2.7 2.5-5.6 4.4-7.5 7.5-3.8 6-7 12.8-7 20-.1 11.7 6.8 22.3 16.5 28.5v5c-11-12.7-23.7-22.5-36-33.6l2.3-10.7c2.3-2.2 5.8-3.4 8.4-5.4 10.4-7 14.5-22 11-33.7-2.3-8-7.4-13-12-19.6-1.7.3-3.3.6-4.8 1.6-4 2.5-8.5 5-11.5 8.4a36 36 0 0 0-8.7 17.4c-1 7 .3 14.3 3.8 20.4 2 3.8 5.4 6.7 8.4 10l-1.5 7.6-34.3-29c.8-3.3 1.4-6.8 2.6-10 2.6-2 6.2-3 9-5 9.8-7.4 14.5-20.7 11.7-32.6-1.2-5.2-3.3-10-6.6-14.2-2.3-2.8-3.3-6-7-7l-11 7c-5.8 4.5-10.2 10.6-12 17.8-2 7.5-1.2 15.4 2 22.4 1.6 4 5.7 7 8.4 10.6l-1.7 7-32.2-32.6 2.7-10a44 44 0 0 0 11.9-6.4c5.3-4.3 9.3-10.4 11-17a36 36 0 0 0-1.2-19.3c-1.8-5.5-6-10.2-9.2-15.2l-2.7-.8c-5 2.3-10.6 4.8-14.4 8.8-6 6-10.5 14-11 22.7-.5 6.3 1.3 12.6 5 17.8l6.2 7.4-1.7 7.4a141 141 0 0 1-26.5-42.8c-.7-1.4.3-2.7.8-4l9.6-17.5c3-.8 6-1.5 8.8-3.2a31 31 0 0 0 12.1-14.9c2-4.3 3-9.5 1.6-14-1.7-3.2-5.2-6.4-9-6.6-2.5-.2-5.4-1-7.8-.6-5.2 2.8-8.5 9-11 14.2-3.4 7.3-4 15.6-.3 23l-8 15.8a234 234 0 0 1-10.1-40.1c-.5-1.6 1.5-3.4 2.3-4.6L135 202c2-1 5.3-.6 7.6-1.4 5.6-1.8 10.8-5 14.7-9.4 3.5-3.7 7.4-9 7.5-14.2.2-5.3-3.6-9.3-8-11.8-4.3-2.3-9-.8-12.7 2a43 43 0 0 0-11.8 14.2c-2.7 5.3-3 11-1.6 16.6-3.7 4.7-7.6 9.3-11.2 14l-3-38c.6-1.4 1.8-2.5 2.8-3.7l10.8-11.5c3.8.3 7.5.5 11.2-.5 6.6-1.8 12-6.5 16.5-11.4 3-3.4 5.8-7.7 5-12.5-.8-3.4-3.6-6.4-6.2-8.7-3.3-2.8-8-2.3-11.6-.6a42 42 0 0 0-10.8 8.1 28 28 0 0 0-7.3 21.8c-3.5 3.6-7 7.2-10.6 10.8l.2-21.7c-.1-3.5 2.2-6 3.8-8.8l7.8-12c2.2-1 5-.7 7.4-1.6 7.8-3 13.7-9.4 17.5-16.7 1.7-3.3 3.6-7 2.2-10.7-1.2-4-4.3-6.3-7.5-8.5-3.6-2.3-8.5-1.6-11.8 1-5.4 4.3-10 10-12.3 16.6-2 5.5-2 11-.3 16.7l-6.3 11 3.7-42.3c8.4-4.5 13.4-13 14.3-22.4.4-5.4-.6-10.5-1.3-15.8-2.8-2-6-3.8-9.4-3.7-3.2.3-6.3.8-9.4 1.2-5.6 7.7-8.2 17.4-6 26.8 1 4.8 3.6 8.6 6.5 12.4l-3.8 40-5.8-12c5.8-10 3.5-20.7-1-30.5-1.8-3.5-4.6-7.4-8.6-8.3-4.4-1-9.4 1-13 3.6-3.5 2.7-4 7-3.2 11 1 5.2 3 10.7 6 15.3 3.3 5.4 8.3 9 14.2 11l8.6 16c1 1.7 2 3.8 2 5.8l-.2 31.5-9.7-10.6c-1-1-.3-2.2-.1-3.4 2.2-6.4-.4-14-3.5-19.8-3-4.7-6.8-9.5-11.6-12.4-3.6-2-7.3-1-10.5 1.3-2.4 1.7-6 4-6.7 7-.6 4.6 1 8.8 3 12.8 4.5 8.8 13 15.4 23 16l15.3 16.6c1.3 1.3 1 2.8 1.2 4.5l4.2 38.3-11.6-10.5c-.1-3 .4-6.6-.8-9.4a42 42 0 0 0-12.4-16.7c-3-2.4-7.2-4.6-11-4.4-7.8.7-14 8.8-11.8 16.4 1.6 4.3 5.8 8 9 11a32 32 0 0 0 16.9 7.7c2.3-.1 4.6-.7 7-.8 1.7.8 3 2.4 4.6 3.7 3.6 3.5 7.4 6.7 11 10.2 1.3 1.2 1.4 2.7 1.8 4.3a219 219 0 0 0 10 34.8l-13.3-8c-.8-3.3-1.6-6.5-3.4-9.4-3.3-5.5-8.2-9-13.8-12-4-2-8.3-4-12.8-3.2-5.5 1.4-9.8 7.5-10.2 13 .1 6.8 5.6 10 10.8 13.4 8.2 5 17.6 7.3 26.7 3 5.7 3.4 11.2 7 16.8 10.4 1.5 1 3 1.6 3.6 3.3a136 136 0 0 0 19.6 31.4l-5.5-.7c-2.5-4-4.4-8-7.7-11a25 25 0 0 0-10.7-6.4 35 35 0 0 0-22.5.7c-6 2.2-11 6.8-16 11-2 1.6-1 3.3 0 5 2.7 3.8 5 8.5 8.7 11.4a36 36 0 0 0 19.4 8.7c7.2.7 14.8-1.5 20.8-5.4 3-2.2 5-5.2 7.6-7.8 3.5.2 7 .1 10.5.6 1 .4 1.7 1.4 2.4 2l30.6 31.5-6.2.3-6-8c-5.3-5-12.3-8.5-19.6-8.6-6 .1-12 2-17.4 4.8-5.7 3-9.2 7.8-13.6 12.4-1.3 1-1.2 2.4-1.5 4 5 4.6 8.6 9.4 14.5 13 6.3 4 13.6 6 21 4.8 6-.8 11.4-4 16-7.8 2.8-2.3 4.2-5.7 6.7-8.3 4-.7 8-.5 12-.8l33.3 28-6.8.5c-2.4-2.3-4.6-5-7.3-7-6.3-4-13.2-7-20.8-6-8.2 1-16 5.4-21.8 11-2.3 2.7-4.2 6-6 9-1 1.5-1 3-1 4.7 3 2.3 6 4.8 9.2 7.2 6.7 5 15.4 7.8 23.8 6.8a36 36 0 0 0 17.3-8.4c3.8-3 6.6-7.7 9-12a140 140 0 0 1 9.5-1.4l24 20.2 11 11.3-7.7 1.5-7.4-6.7c-10.2-6.6-24-6.6-34 .5-6.5 4.7-11.7 11.3-15.5 18.3l.8 3.5 15 9.3c12.5 5.8 29 1.6 37.4-9.3 2.3-3 3-7.3 5.5-10.3 3.3-1 6.7-1.4 10-2 11.6 13 21.2 27.6 30.2 42.4l-6.6-.7-6-9.6c-5-5.4-11.4-9.6-18.7-10.5a38 38 0 0 0-21.2 3.1c-4 1.6-7 5.2-10 8-1.7 1.5-2.5 2.6-3.3 4.8 4.4 5.8 7 11.7 13 16 8.5 6.8 20.2 8 30.3 4.4 6-2.2 9.8-6.4 14.4-10.7l11.3 1 22.3 45.7c-2.4-.7-4.8-1.4-7.3-2l-3.5-9c-4-6.8-11-11-18.3-13.6-6.6-2.2-13.8-1-20.3 1-5.3 1.7-9.7 5.5-14.6 8.6l-.6 2.6c3 5 5.6 11 9.6 15.4 5.8 6.4 14.3 10.4 23 10 8.6-.1 17.3-4.7 24-9.7l9.7 2c.4.5.8 1 1 1.6 5.3 13.5 9.7 27.3 13 41.5l-7.7-2c-1.3-3.2-2.3-6.6-4-9.7a32 32 0 0 0-35.3-14.2c-6 1.8-12 4.5-17 8.2-1.3 5.4 1.5 9.7 4 14.3 8 11.4 23.3 19 37 14.5 5.8-1.3 9.5-5 14.3-8.2l9.8 3a233 233 0 0 1 4 23.3c-29.8-.1-60 .1-90-.1-4.2-1.5-8-4.6-12-7l-1-11.2c5-4 9.8-7.5 13-13.4 3-5.3 3.5-11.2 2.6-17-1.5-11-7.8-21.4-17-27.7-2-1.2-3.2-1-5 .3-9 7.8-16.8 19-15.7 31.3a32 32 0 0 0 10 21.9c2 2 4.3 3 6.4 4.8.6 2.4.4 5 .6 7.3a411 411 0 0 1-42.1-31.9l2-9.7c3.7-1.7 7.7-3.2 11-5.6 5.3-4.4 10-10.4 12-17a32 32 0 0 0-.8-18.8c-2-6-5.7-10.6-9-16.2l-3.4-.7c-8.8 5-16.8 9.7-21.8 19-3.3 7.4-5 15.3-2 23 2 6 6 10 9.5 14.8l-1.6 7.7-28.2-27.7 6.4-22c3-1.6 6-3 8.5-5.4 6.4-6.6 10.6-15.3 10.2-24.6-.6-3.3-2-7-5-8.7-4-2.4-8.2-1.2-12.7-1-2.2 0-3.8 2-5 3.6a30 30 0 0 0-5.5 14.1c-.5 7.3-1 14.2 3.8 20.3l-5 18.6-20.3-24.7c1.6-6.8 3-13.7 4.5-20.5 7-3.8 12.5-10.2 14.4-18 1.4-6 3.7-12.8.3-18.5-1.8-3.5-5.2-5-9-5.4-3.6-.3-8.2-.4-10.5 2.8-4 5-5.5 12.3-6.3 18.5-.8 7 1.5 13.4 6 19L138 486l-19-26.4 2.3-22a25 25 0 0 0 12.4-16.1c1.5-6.2 3-14.4.3-20.4-3.6-5.4-10.8-6.8-16.7-4.8-4 2-6 5.6-7 9.8-2.6 8-2 16.6 1.5 24.2 1.2 2.5 3.2 4.6 5 6.8l-2 16L95 418.7l5-23c3.4-1.7 6.6-2.7 9-6a38 38 0 0 0 7.5-22.8c-.1-3-.3-5.7-2.2-8-2.4-3.2-6.4-4-10.2-4.6-3.2-.5-6.4.8-8.4 3.3-4.2 4.7-5.3 11.5-6.5 17.5-1.3 7.3 1 14 5.5 19.6l-3.4 16L80 386c-.5-1.2-1-2.5-1.3-3.8 1-3.5 3-6.3 3.2-10a34 34 0 0 0-9.9-26.1c-2.5-2.7-5.8-1.3-9-1.4-4 .1-7.6 1.2-10 4.6-2.7 3.6-2 7.7-1 11.7 2 6.4 5.8 13 10.4 17.7 3.2 3.3 7.2 4.5 11.5 5.8 6 12.8 11 26.3 17.5 39-3.7-2.6-7.5-5-11.3-7.5-1-11-9.2-19.4-18.6-24.2-4.8-2-10-4.2-14.7-.7-3.7 3-7 8.4-6.2 13.3.4 3 3 6 5.3 8a35 35 0 0 0 24.2 9.1c2.4-.2 5.4-1.8 7.8-1.2 4 2.2 7.6 5 11.5 7.6 3 2.3 6.8 3.8 8.5 7.4 4.8 9 10.3 17.6 15.8 26.2-4.2-2-8.5-3.5-12.7-5.5-1.7-.7-2.3-3.3-3-4.7-3.3-8-10.8-13.6-19-16.2-3.8-1.2-9-2.4-12.7-.6-7 3-10 13-5.8 19.2 4 4.2 9.8 7.5 15.6 7.5l14 1c3 .3 5-1.2 7.7-1.8l19 8c2.8 1 4 3.2 5.5 5.5 4 5.6 8 11 12.3 16.6l-18.6-2c-5-7.7-13.8-12.2-23-12.6l-13.7 2.2c-2.5.4-3.8 3-4.8 5-1.6 3.5-1.4 7.4-.2 11 1.3 3 4.6 5 7.5 6.3 6.8 2.6 14.7 2.8 21.8 1 4.7-1.3 8.3-4 12-7.2L139 496l12.7 15.4c3.3 3.8 6.8 7.3 9.6 11.5 1 1.3 2.3 2 3.6 3l-17.8-.6c-2 .1-3.4-2-5-3.4-4.6-5-11.4-7-18-7.2-4.6-.1-10 .1-14 2.2-3 1.7-5.8 4.3-6.2 8-.5 3.8-.3 8.8 2.4 11.8 2.5 3 7.2 3.7 11 4 8 1 16 .2 22.7-4.3 2.4-1.6 4-4.5 6.3-6l23.6.5 27.2 25.6c-3.5-.5-7-.7-10.7-1-2.2-3-4-6.6-6.6-9.4-6.4-6.2-15.5-9.7-24.4-8.3a40 40 0 0 0-26.8 15c-1 1.4-.6 2.8.5 4 4 4.4 7.5 9.5 12.3 12.8 3.3 2.4 7.2 4.4 11.3 5.3 8.4 1.4 17 1 24.4-3.7 4.2-2.3 6.4-6.5 9.5-10.2l15.7 1c1.2.1 2 .7 3 1.5 13.8 11 28.3 21.7 43.5 30.8h-230V25l.1-9.7z" fill="#fff"/><path d="M118 51.7c4-.4 7 .4 10.6 2 3.4 11-.6 23.7-10.6 29.6-6.7-8.8-6-22.4 0-31.5zm-22 30c5 4.8 5.4 11 7 17.4 1 5-.5 9-2.2 13.5-10-3.7-16-15.2-16-25.5 2-4.7 6.6-5 11-5.4zm98.3 4.7c3.3-.5 6.6 1.4 9.2 3a31 31 0 0 1 10.4 9.6c1.6 2.7 2 5.6 3 8.6-6.4 2.6-12.4 1.2-17.8-2.7-3.5-2.6-10-5.5-11-10 .1-3.3 3.8-6.7 6.3-8.6zm53.2 1.3c2.4 1.3 4 4.5 5 7 3 7.7 4 15.8 0 23.4-3.7-2-7.2-4-9.8-7.5-3.6-4.4-4.3-11-5.2-16.4 0-1.5-.8-3.7 1-4.6a13 13 0 0 1 9.2-1.8zM146.7 91c1 2 2.4 4 3.2 6.2-.1 2-1.3 3.8-2.3 5.5-3 5-6.3 9.7-11.6 12.5-2.5 1.4-5.2 1.7-8 2-.7-2.8-1.7-5.3-1-8.2a30 30 0 0 1 12.5-18.4c2.6-2 4.5-.3 7.2.5zM281 101.5c2.2.4 6.7.7 7.2 3.4 2 4.7.6 10.8-.7 15.6a28 28 0 0 1-9.5 13.3c-1.8-3-3.5-5.8-4.4-9.2a34 34 0 0 1 1-17.3c.8-3.3 3-6 6.6-5.7zm-80.8 23c3.3-.3 6.6-.2 9.8-.1 7.7.2 15.2 4.4 18.8 11.4a27 27 0 0 1-27.4 2c-2-1-3.7-2.4-4-4.8-.3-2.8-.1-7 2.8-8.4zM81 129c2-.6 4 1.2 5.4 2.4 4.6 4.4 7.8 10.5 9.3 16.7.8 3.2-.2 6-1 9-3.5-.5-6.7-1.2-9.6-3.3-6-4.3-11.2-11-12-18.7 2.4-2.6 4-5.4 7.8-6zm71 0c2.3 1 4.7 3.4 5.4 6 .4 2.5-1.6 5.3-3 7a33 33 0 0 1-13.1 10c-3 1.2-6.5 1.4-9.8 1.7-.1-9 4.8-15.7 11-21.6 2.5-2 6.4-3.7 9.6-3.2zm157.2 8.6c1.7 1.3 4.2 2.3 4.7 4.5 1 3 0 6.8-.4 10-1.3 7.7-5.7 14-13 17a29 29 0 0 1 2.3-30.3c2-1 4.4-.8 6.5-1.2zM233 155.8c7 .7 13.3 4.2 17.6 9.8-4 3-8.6 5.5-13.8 6-5 .7-9.5-1-14.4-2.2-1.3-.4-2.4-.6-3-2-1.8-3.5-.1-7 1-10.5l12.7-1.3zm-82 13.8c4.2-.3 6.7 4.3 8.5 7.5-3.4 10.3-12.2 19.2-23.6 19.4-2.5-11 5.3-22.6 15-26.8zm180 8.4c2.3 1.2 5.5 3 5.5 6-.7 2.6-1.8 5-2.8 7.5-3 7.5-9.2 13.5-17 15.5-.8-4.5-2-8.5-.8-13a42 42 0 0 1 6.2-13c2-2.7 5.6-5 9-3zm-252 7.7c4 .3 7.7 3.2 10.6 5.7 5.5 5 8.3 11 8.5 18.5-9.2 1.3-17-3.5-22.6-10.3-1.7-2.2-4.5-5-3-8 1.5-2.4 4-4.8 6.5-5.8zm161 2c6-.1 12.7-.8 18.3 2 4.3 2 7.3 5.3 9.8 9.2-8 6.3-20.4 6.4-29 .8-3.3-2.2-3-6-1.8-9.4.5-1 1.3-3 2.6-2.7zm-82.4 26c2.2.8 5 3 5 5.4a63 63 0 0 1-3.4 11.2 24 24 0 0 1-15.8 12.1c-.7-4-1.8-8-1-12a30 30 0 0 1 8-16c1.8-2 5-1 7.2-.7z" class="C"/><path d="M351.2 221c.7 5 1.8 10 1 15-1 7.2-4 14-10 18.2-6.2 4.6-13.4 5.6-21 5.4-3-9-3-20.3 3.7-27.8 6.7-7.8 16.3-10.8 26.3-11z" class="B"/><path d="M251 226c4.4 0 9 .8 13 2 5.3 1.5 9 5.2 12 9.7a23 23 0 0 1-20 4.4c-3.5-1-8-1.8-10.6-4.4-2-2-1-5.2-.4-7.6.6-3 3.3-4 6-4zM85.2 240.3c5.2.1 10.5 3 14.6 6 4.8 3.5 7 8.5 8.4 14-5.2 2-10 2-15-.4-4.2-2-8.8-4.5-12-8-4-3.6.4-9.8 4-11.5z" class="C"/><path d="M176.7 253.5a33 33 0 0 1 7.8 18.5c.6 8-1.7 17-8 22.6-3 3-6.7 4.3-10.6 5.6-2.7-2.5-5.2-5-6.8-8.5-4-8-3-17.5 1.7-25 3.8-6 9.6-10.2 15.8-13.5zm86.3 10c5 .4 10.5.1 15.5 1 9.4 3.3 14 11.5 16 21-7.8 6.3-18 8.6-27.5 4.5-9.6-4-14.4-12.4-18-21.7 4.3-2.7 8.6-4.7 13.8-4.5zm96.2 13.4l1.8 12a26 26 0 0 1-5.5 19.5c-5.5 7.2-13.7 9.5-22.4 9.7-5-9.8-4.2-21.7 3-30.2a34 34 0 0 1 23-11zm-148.5 13.3a44 44 0 0 1 9 15.9c2 6.7.3 14.4-3.4 20s-9 9-15 11.8c-5.8-6.6-10-14-9-23.2.5-6.8 4-12.5 8.2-17.6 3-3 6.7-5 10.3-7zm-83 7c6.6 2.6 10.7 8 13.8 14-3.8 4.6-8 8.4-13.8 10.2a27 27 0 0 1-21.2-2c-5.7-3.5-9.4-8.6-13-14 3.3-3 6.5-5.7 10.6-7.5a31 31 0 0 1 23.6-.7zM299 317c5.7 3.6 8.6 9 11 15.2-3.4 3-7 6-11.3 7.5-7 2.7-15 1.2-21.4-2a34 34 0 0 1-14.7-17.6 49 49 0 0 1 11.7-5.8 30 30 0 0 1 24.8 2.6zm83-3.5v32.2l-7.3 5c-4.2 2-9.6 2-14.3 2.8a26 26 0 0 1 .3-25.9c5-7.6 12.7-12 21.3-14.2zM247.3 322a44 44 0 0 1 9.6 16 29 29 0 0 1-1.7 19c-2.8 6.5-8.2 10.3-14.5 13-4.5-3-8-7-9.5-12.4-2-6.8-2-14.8 1.5-21a38 38 0 0 1 14.6-14.6zm-79.8 19.5c5 2.4 8.6 6.3 12 10.6-3.2 4.6-7 8.7-12 11.3a27 27 0 0 1-22.3.6c-6-2.3-10.7-6.5-15-11.2a44 44 0 0 1 9.7-9.1c8-5.4 19-6.6 27.8-2.2z" class="B"/><path d="M67 348.7c4.2 3.7 7 9 9 14.3 2 5.6-.1 10.3-1 15.8-6.5-1.6-11-6-14-11.7-2-4-5-9.5-3.7-14 1.7-4 6.2-3.8 9.8-4.5z" class="C"/><path d="M382 353v44l-27.8-29.8 5.8-8.5 10-.7c4.2-.6 8.4-3 12-5z" fill="#fff"/><path d="M324.2 360.8a30 30 0 0 1 13.1 11.3c-2 3.4-4 6.6-7.2 9-7.4 5.8-17.3 7-26 4-6.3-2-11-6-15.4-11a46 46 0 0 1 13.6-11.9c6.8-3.6 15-4.4 22-1.4z" class="B"/><path d="M106 359.5l4 2.7c2 5 .7 9.6-.5 14.5-2 6.4-5.6 11.6-11.5 15a28 28 0 0 1 1.6-30.8c1.5-1.2 4.5-1 6.4-1.2z" class="C"/><path d="M279.3 361.5a57 57 0 0 1 7.3 7.3c-1.8 2-3.3 3.6-3.5 6.5l9 8.8c2.2 1.8 1 5.3.7 7.7-1.4 8-6.6 13.7-13.3 17.7-4-4-9.5-6.8-11.7-12-5.5-11.6-.8-26.8 9.5-34.2.7-.6 1.4-1 2.2-1.6z" class="B"/><path d="M341.5 374.8c3.7-.8 7.6-.8 11.3-1l21.6 22.8 8 8.7-4.8.2c-3-3.5-5-8-8.6-10.6-10-8.4-25.6-9-36.6-2.6-5.7 3.4-11 8.2-14.2 14.2-3.7 2.3-7.4 4-10.4 7.3-6 6.3-9 14.6-9.4 23.2-.1 9.3 5.4 18.6 11.5 25.3l-1 4.2c-8.5-14.4-17.8-28.2-28-41.6-.6-3 .1-6.6.1-9.7 3-2 6-4 8.3-6.7 5-5.6 8-12.7 8.4-20.2 7.7 3.6 16.8 5 25 2.6 6-1.7 10.8-5.6 14.2-10.7 1.4-1.7 2.5-4 4.3-5.4z" fill="#fff"/><path d="M195 375.4a29 29 0 0 1 22.4 11.4c-2 3.6-3.8 7-6.8 9.8-5.8 5.8-15 8-22.8 6.6a36 36 0 0 1-18.6-11.2c5.7-8.5 15-16.4 25.8-16.6zm160.5 18c8 1.8 14 7.5 17.8 14.6-3.2 4.3-6.8 8-11.7 10.4-6.3 3.2-13.8 2.7-20.3.3-6.8-2.6-12-7.4-16.7-12.7 7.4-9.5 18.8-15.3 31-12.6z" class="B"/><path d="M52 394c2.7 0 5.2 1.3 7.5 2.5 3.8 2 7.5 4.3 10.2 8 2.6 3.4 3.8 7.2 5.2 11.2-7.6 1.7-14.2.4-20.6-3.8-3-2-7.2-5-8-9 0-3.8 2.7-7 5.8-9zm72 7c2 .6 5.2 1 5.7 3.4.6 2.8.5 6 .5 8.7a23 23 0 0 1-10.7 19.2c-3.6-5-6.3-10-5.8-16.2.5-4.4 1.3-9.8 4-13.4 1.6-2 4-2.4 6.3-1.8z" class="C"/><path d="M321.5 410.2c2.5 3 5.3 5.7 7.4 9 4 8 3.8 17.7 0 25.8-3.2 6.3-8.8 10.2-15 13.3-4.4-4.7-8.2-9.6-9.4-16-.8-4.7-1-10 1-14.6 3-7.4 9.4-13.2 16-17.2z" class="B"/><path d="M377.4 410.2c1.5-.2 3-.2 4.6-.2v184.8h-27.6a171 171 0 0 0-4.8-27.6c-5.2-18.3-10.4-36.4-17.7-54l5-10.3c4.5-1.2 9.3-1.4 13-4 6-3.8 12-9 14-16 3.2-12 1.4-25-6.3-35a56 56 0 0 0-9 2.5c-10.8 3-19.6 12.4-22.7 23-2.8 9.4 1 20.3 6 28.4l-2.3 5-16.2-33.3c.2-3.6 1.7-7.4 2.5-11 8.3-3 16-10.3 19.6-18.5 3.3-6.4 2.4-14.8.7-21.6a37 37 0 0 0 14.1 3.4c7-.1 13.8-2.5 19.2-7 3-2.5 5.3-6.3 8.3-9z" fill="#fff"/><path d="M243.3 414.7c5 1.5 9 5.6 13.3 8.7-3 5.3-5.2 11-10.7 14.4-5.5 3.4-13.3 4.8-19.7 3.6-6.6-1.4-12-5-17-9.3 2.5-4.3 5.3-8.4 9.2-11.7 6.5-6 16.4-8.4 25-5.7z" class="B"/><path d="M156 435.4a26 26 0 0 1-11.4 30 23 23 0 0 1-4.2-9.6c-1-4.6.6-8.5 1.3-13 .6-2.7 1-6 3.5-7.7 3.7-1.6 7-1 10.8.2zm-88 3.4c4.7-1 10.3 1.6 14.4 3.8 5.7 3 9.2 6.8 11.8 12.8L77 456c-3.6.3-6.5-1.7-9.5-3.5-2.2-1.5-4.5-3.6-4-6.5 1-2.5 2.3-5.6 4.5-7.2z" class="C"/><path d="M269.8 449.5c9.7 1.5 17 8.4 20.8 17.3-3.4 3.7-7 7-11.8 9-6.4 2.8-13.6 2.4-20-.6a43 43 0 0 1-16.3-15.1c7.7-6.8 16.7-11.4 27.2-10.5zm84.7 3.8a50 50 0 0 1 4.5 11.6c1.6 6 .1 12.7-1.8 18.3-4 9-12 13.2-21.3 15.5-5-9-8-19-2.7-28.5 4-9 12-14 21.3-17z" class="B"/><path d="M175.5 463.4c3.3-1.5 7.7.8 10 3.2 2 2.2.8 4.4.2 7-1.7 5.3-2.8 10.5-6.3 15-2.2 3-5 4.7-8 6.4-2-4.4-3.6-8.6-3-13.6.8-6.4 2.3-13.4 7.3-18zM94 480.8c6.8.5 12.6 4 17 9.2-7.2 7.6-18.4 8.3-27.7 4.8-3-1.2-4.8-3.5-4.4-6.8.3-2.2 1-6.2 4-6l11.3-1z" class="C"/><path d="M211.3 489.3l5.3 9a32 32 0 0 1 .7 23.8c-3.2 7.6-9.8 11.7-17.3 14.5l-6.2-7.5c-4.3-7.6-4-17.4.5-25 4-7 10-11.4 17-15zM302 499c7.5 3.4 11.4 10.2 14 17.8-2.2 2-4.4 3.8-7 5.3-7.6 4.4-17.5 4.5-25 .1-7.2-4-11.6-10.4-15.3-17.4 9.6-7.4 22-10.6 33.5-5.7z" class="B"/><path d="M125.8 520.2c6.2.5 11.4 3.4 15.7 7.8-4 4.6-9.3 7.5-15.4 8-4.5.2-10 .5-14.2-1.6-2.6-1.4-2.5-4.7-2.4-7.2.2-1.5.3-3.8 2-4.6 4.2-2.3 9.7-2.5 14.4-2.2z" class="C"/><path d="M242.6 523.2c4.4 3.8 8.4 7.8 11 13 3.5 7.2 4.2 16.5.5 23.7-2.4 5-7 8.7-11 12.5a33 33 0 0 1-9.4-8.4c-4.8-6.7-5.5-16-3.3-23.7 2-7 6.7-12.4 12-17.2zM164.2 544c8.2 2 13.7 7.7 18 14.7a34 34 0 0 1-7.5 7.9 27 27 0 0 1-25.7 2.6c-6.6-2.7-11.3-7.6-15.6-13.2 7.6-8.6 19-15 30.8-12zm138.8 0c5-.4 10-.2 14.4 2.5 7 4 11.2 10.6 14 18a28 28 0 0 1-10.8 6.8c-7.2 2.6-15 .8-21.6-2.4-7.2-4-11-10.5-14.4-18a40 40 0 0 1 18.4-7.1z" class="B"/></svg>