<svg xmlns="http://www.w3.org/2000/svg" viewBox="0 0 400 610" width="533.3" height="813.3" xmlns:v="https://vecta.io/nano"><style><![CDATA[.B{fill:#333}.C{fill:#d96038}.D{fill:#858585}.E{fill:#fff}]]></style><path d="M0 0h400v610H0V0z"/><path d="M18.4 15H382v396c-1.7-8.4-6.3-15-11.5-21.8-2.8-.4-6 1.5-8.4 3a44 44 0 0 0-15.4 17.8c-2.8 7.6-3.6 16-.3 23.5 1.8 4.6 5.3 7.7 8.4 11.5-.6 3.3-1.2 6.6-1.7 10L330 417.7l2-9.3c7.4-3.5 15-8.8 19.4-16 4-7.3 5.2-16.2 2.5-24.2-1.5-5.5-4.8-9.5-8-14-1-1.2-1.7-2.4-3-3-4 .8-8 3-11.3 5.5-6.3 5-12 11.8-14 19.6-1.3 6.3-.7 13.4 1.7 19.3 1.6 4 5 7.4 7.6 10.8l-1 5.4-14.3-18.4a48 48 0 0 1-5.4-7.7 121 121 0 0 1-12.6-34.1l7.5-6.2 9.8 2.2c5.8 1 12 .2 17.2-2.3a32 32 0 0 0 15.7-17.5c2.2-5.2 2-11.6 2.8-17.2l-2-2.6c-5-1-10.7-3-15.8-2.4-4.8.4-9.6 1.4-14 3.5-7.2 3.2-12.4 10.7-15 18-2 4.8-1.5 9.4-2 14.6l-5.4 4.3c-1.5-12.5-1.2-25 2-37.4 1.5-5 3.6-9.7 5.7-14.5l9.5-4c2.7 2 5.4 4.2 8.5 5.6l15.8 1c2.6.1 5.5.6 8-.1a34 34 0 0 0 18.6-15.9c2-4 4.2-7.7 3.4-12.3-4.5-2.7-9.5-6.4-15-6l-17-1c-4-.4-8.2 2-11.3 4.5-6 5-10.2 12.5-13 19.8l-4.3 1.4L322 250c1-1.8 1.6-3.5 3.5-4.7l17.2-10.8c12.4 4.6 26-.1 34.3-9.8 3.3-4.2 2.7-11-.7-15-2.3-2.8-5.2-5.4-9-5a32 32 0 0 0-23 15c-1.8 3-2.5 6.7-4.3 9.7-4 3-8.4 5.3-12.4 8.2a115 115 0 0 0 6.2-26.9c.3-1.5.3-2.8 1.4-4l14.3-15c4.6 0 8.8.3 13.2-1.6a37 37 0 0 0 16.4-14.5c2-3.7 2.8-8.2-.1-11.7-2.3-2.7-5.3-5.6-8.8-6.6-3.8-.5-7.4.8-10.5 3-5.4 3.8-10.2 9.3-12.3 15.6-1.5 4.2-1 8.2-1.2 12.6l-11.7 11.8c.5-10.5-.7-20.8-2.4-31.2l13.3-17.4c3.5-.6 7.3-.8 10.6-2 9-4 15.7-12.3 18-22 .4-2.3-.4-4.3-2-6-3.2-3.7-7.7-7-13-6.7a31 31 0 0 0-18.2 34l-10 13-4.7-26.5c-.5-2 0-4 .7-5.8l6.2-17c3.7-1.4 7.3-3 10.3-5.6 5.7-5 9-13 10.6-20.3 1-4.3.1-8.8-3.6-11.5-3.6-3.3-10-2.2-14.5-2.8l-4.2 5c-4.2 6.5-7.5 13.3-7 21.3.3 4.3 2.3 7.5 4 11.3l-5.4 14.8c-1.8-9.5-5.6-18.2-9-27.2 2-3.2 3.8-6.2 4.4-10 1.2-6.4-.4-12.3-2.5-18.3-1.3-3.6-3-7.7-5.8-10.4-2.5-.6-5-.6-7.6-.8-3.5-.4-7.2 1.4-9.6 3.8-2.8 3-2.4 8-1.8 11.6 1.8 8 3.6 15.6 10.8 20.6 2.2 1.8 6.5 2.7 7.3 5.6a369 369 0 0 1 9.9 31.6L307 122c.1-8.5-4.4-16-10.5-21.4-5-4-10.3-7.2-17-7l.7-16.6c.1-1.7-.4-3.3-1.7-4.4-2.7-.6-5.7-.3-8.5-.4l-105-.6c-1.4.1-3.5-.2-4.5 1-1 2.2-.7 5-1 7.5-.6 25.8-3 51.8-6.4 77.5-3.2 0-6.5-.2-9.8.2-2 .7-3.6 3-4.7 5-3.6 6.7-6.6 13.6-5.5 21.4.4 4 2.3 6.8 4.2 10-1.6 5.8-3.5 11.5-5 17.2L115.6 175c1-3.7 3.2-7 4.8-10.6 1.6-3 2.7-6.4 4.7-9 3.4-1.8 7-2.3 10.3-4.8 6.4-4.8 10.5-12.8 12.4-20.4 1-4 .1-8-3.3-10.5-4-3.6-8.6-2.4-13.6-3-5.8 4-9.3 10.3-11.7 16.8-2.2 6.6-1.4 13 1 19.5l-7.6 15.2c-2.5-6.6-5.4-13-7.8-19.7-1-3-3-6-3.2-9.2 2-7 5-13.8 7.3-20.7 4-1.4 8-3 11.2-6 5.5-5.2 9-12.7 10-20.2.5-4-.1-8.2-3.7-10.6-4-3-9-2.2-14-2.8-2.8 2.3-5.2 5-7 8a32 32 0 0 0-4.3 19.4c.2 3.8 2 6.8 3.4 10l-6 16.3-11-34.2-.7-4c1.7-3.5 4-6.2 5.2-10 2.3-7.2.5-15.4-2-22.2-1-2.3-2.2-5.5-5-6.2C80.4 54.3 74 54.6 70 58c-3 2.6-3.7 6-3.6 10 .3 7.6 2 15.7 6.8 21.8 2.3 3 5.4 5 8.6 6.8L96 140c-3-2.7-6.2-5-9.2-7.7-1.5-1-1-2.5-1.2-4.2.3-7.4-4-14.4-9.5-19-4-3.4-8.6-6.8-14-7-3.6-.2-6 2-8.3 4.6-2 2.5-4 6-4 9.3 1 5.4 5.6 9.4 9.6 12.7 5.3 4.4 11.6 7.7 18.6 7 2 .1 4-.7 5.5.7l11.7 10.3c2 2 4.6 3.7 5.6 6.3L111 179l-14.6-7c-1-3.6-2-7-4-10.2-4-5.5-10-9.5-16.4-11.7-4-1.4-8.2-2-12.3-.2-2.5 1.4-4.2 4.3-5.4 6.7-1.4 3.2-2.4 6.5-.5 9.7 3.7 6.6 11.8 10.4 19 12 6.2 1.4 11.7.6 17.4-2 6.6 3.5 14 6.5 20.2 10.6l11 22.6-19.4-2c-2.6-4.2-5.6-7.8-10.2-9.8-5.6-2.8-12.6-3-18.8-2.8-3.7.2-8.6 1.3-10.6 5-2.4 4.8-3 11 .8 15.4 2.4 3 6.2 4 9.8 5a31 31 0 0 0 19.1-1.7c3.3-1.3 5.7-4 8.8-5.6 7.7.3 15.3 1 23 1.6l12.2 22-2.4 11.8-7-1c-4-8.2-11.8-13.3-20.7-14.4l-14 1c-3.6.2-5.7 3.8-6.4 7-1 5-1 10.2 3.6 13.2 5.7 3.3 13 5 19.7 4.7 6-.2 11-2.8 15.4-6.3l8 1-3.3 15c-12.7.7-24.7 9-31 20 .7 2 1 4 2.4 5.4 5.3 5.3 12 9.2 19 11.6-16.6 58.7-39 115.5-71.6 167.3-1 1.6-1 3.3-1.4 5a180 180 0 0 1 3.5 2.7l33.2.7c-.1 2.6-.6 5 .4 7.4 1.7 5 7.3 7.8 12 9.3l24.2-.3c4.7 1.4 9 4 13.8 5.6-12.2 1-24.2 3-36 6.6-3-3-5.6-6-9.7-7.6-7.4-3-16.4-2.8-24-.7-4 1-5.6 4.5-7 8-2 6 2 14 8.5 15 9 1.5 18.6 1.4 26.4-4 3.2-2 4.6-5.7 8.3-6.5 7.5-2.2 15.4-3.7 23-5l-10.4 10.4c-2.4 3-6.6 2-10.2 3-6.2 1-10.8 4.6-14.8 9-3 3.3-7 8-6.7 12.8.3 5 4.2 8.6 8.3 11.2 4.4 2.5 9.4.7 12.8-2.5 5.5-5 10.8-10.7 12.8-18 1-3.6 0-6.8.3-10.3 4.7-5.7 10.3-10.8 15.3-16.2 14-1.4 27.8-1.5 41.8-.6-4.8 3-9 7-14 10-4-.1-7.8-1.3-12-.3-6.7 1.3-11.3 5.3-16.5 9.5-3.2 2.7-5.4 6.3-5.8 10.6.7 6.4 6 12 12.3 12.7 4.8-.3 9.6-3.6 13.4-6.3 4.2-3 7.7-6.6 9.5-11.5 1.4-3.3 1.3-7 2.4-10.3 5.7-4.8 12-9 18-13.5l35 5.2-12.7 9.2c-1.7 1.3-3.4.8-5.4.8a33 33 0 0 0-21.1 5.6c-4 3-9 7.7-9.2 13.2-.4 3.6 2.7 7 4.7 9.6 2 2.8 5 4.4 8.6 3.8 5-.8 9.4-4.4 13.4-7 5.5-3.6 9.5-9.7 10.4-16.3.3-1.7.4-3.6 1-5 3-2.7 6.5-4.8 9.8-7.3 2.4-1.6 4.6-3.7 7.3-4.7 9 1.7 18 4.5 27 7l-14 12.3c-4.3.1-8.4-.4-12.6 1-6.8 1.8-11 6.3-15.7 11.3-2.3 2.8-4.3 5.7-3.8 9.5.3 6.4 5.8 12.2 12.3 12.5 4.4-.7 8.5-4 12-6.4 6.2-4.6 11.5-12.2 11.5-20 .2-1.6-.2-3 1-4.2 5-4.7 10.2-9 15.2-13.7 13.2 4.5 26 10 38.6 16l-6.8 4.7c-5.5-1-11-3.2-16.7-2.5-7.6 1-14.7 5.3-19.7 11-5.4 6.5-7.6 14.3-8 22.6 0 2.5-1.7 6.8 2 7.5 7 1 14.6 2.2 21.4.7 9.7-2 18-8.6 22-17.8 2.8-5.8 3.4-12 2.8-18.2l8-5.7 40.4 24-6.8 3.7c-8-3.4-18.4-5.8-26.8-2.3-5.3 2.5-11 6-14.3 11-3.3 4.5-4.7 9.6-6.5 15h-270V15z" class="E"/><path d="M288.3 34.3c1.7-.7 3.7-.8 5.4-.1 2 1.3 1.7 4.7 1 6.6-1 2.3-3.6 2-5.7 1.7-3.7-.7-4-6.8-1-8.2zm-67 1c1.6-1 4-1 5.7-.4 3.4 1 3.3 7.2 0 8.3-2 .6-5.3.7-6.6-1.5-1-2-1-5 1-6.4zM71.5 36.5c2.2-.6 4.6.4 5.3 2.7.5 2 .6 5-1.3 6.3-3 1.4-8 .8-8.2-3.3.2-2 2.4-4.8 4.2-5.6zM164 36c4 .8 4 7.6.1 8.5-1.8.5-4-.4-5.8-.7-.4-2.2-1.8-4.8-.3-6.8 1.3-1.6 4.2-1.5 6-1zM53 37c3 .4 4 2.6 5.3 5l-1.7 3.8c-2 .3-4.7 1.6-6.5.2-1-1-1.5-2.6-1.8-4 0-2.7 2.4-4 4.6-5zm49.2.2c3.8-1.2 6 3 5.3 6.4-.7 3.2-4 3.6-6.8 2.8-1.3-1.2-2.2-2.8-2.8-4.4.2-2 2.5-4 4.3-4.7zM196 37c5.3-1 5.8 10.8.2 9.6-3-.4-4-2.7-5.7-4.8 1.4-1.6 3.2-4.5 5.5-4.8zm148.2.2c5.3-1.8 8 6.3 3.8 9-3.6 1.2-6.7-1-7.7-4.4.3-2 2.3-3.6 4-4.6zm-77 2l1.5 3.7c-.7 1.4-1.2 3.2-2.2 4.4-1.5.8-3.6.8-5.2.3-1.4-1-2-3.4-2.8-5 .8-1.2 1.4-2.7 2.5-3.8 2-1.4 4-.2 6.2.3zM143 42c3.6-1.3 7 1.4 7.7 5-1 3.8-6.3 5-9 2.2-1.7-2.3-.4-5.4 1.3-7.2zm96.8-.6c1.7.3 4.3-.1 5.3 1.5 1 2 1 5-.5 6.7-2.4 2.2-7.3.8-8-2.6-.6-2.5 1.6-4 3-5.6zm81 0c1.6.2 3.5.2 5 1 2 1.5 2 5 .5 6.7-2.4 2.8-8 1.7-8.6-2-.6-2.6 1.6-4 3.2-5.7zM119 52.7c1.5.5 3 1.2 4.6 1.8.2 2 1.8 4.5-.1 6-1.7 1.4-4.7 1.4-6.7.7-3.6-1.8-2-8.6 2.2-8.5zm52.4.5c2-1.4 5-.4 5.6 2 .6 2 .8 5.3-1.4 6.3-2.4.7-6.5.4-7-2.5-.7-2.6 1.2-4 3-5.6zm103 2c1.4-1 3.8-.8 5.4-.2 2.3 1.5 2.3 5.3.8 7.4a5 5 0 0 1-8.5-1.7c-.8-2.4.5-4 2.3-5.6z" class="B"/><path d="M84 61c2.8 5.6 4.2 11.8 4 18-.2 4.6-2.3 8.3-4.4 12.2-3.7-2.4-7-5-8.8-9a39 39 0 0 1-2.5-19.9c3.8-2 7.5-1.8 11.7-1.4z" class="C"/><path d="M137.5 61.7c2-1 4.6-1 5.8 1a8 8 0 0 1 .1 6.8c-1.2 1.8-4 1.5-6 1-3.5-1.2-3-7.3 0-8.7zm-92 3c1.8-.5 4.5-.6 6 1 1.3 1.6 1 5-.2 6.6-2 2-7 1.7-7.8-1.5-.5-2-.4-5.2 2-6z" class="B"/><path d="M303 63.7c2.6-.6 4.6-.2 6.2 2 3 4.5 4.3 10 4.8 15.3.5 4.8-1.2 8.6-3 13-3.4-1.6-6.5-3-8.8-6-4-5.2-6-13.3-5.3-19.8.1-3 3.7-3.7 6-4.3z" class="C"/><path d="M166.3 78l107.5.5C272 125 267 171 260.4 216.8c-6.8 47-16.5 93.4-29.7 139-12.2 41.7-28 83.2-49.5 121l-121.8-3.2a646 646 0 0 0 63.7-143.4l30.5-131.3c6.4-40 11-80.2 12.6-120.7z" fill="red"/><path d="M338.8 77.3c4 .5 8.3.8 10.2 4.8.6 2.8-1 6.3-1.6 9-2.3 7.6-7.2 13-14.5 16.3-2-5.4-3.4-10.7-1.8-16.5a35 35 0 0 1 7.7-13.8zm-219.5 6.4c3 .5 6.6 2.6 5.6 6.2a35 35 0 0 1-7 17c-2.5 3-5.6 4.6-8.8 6.5-1.6-4.8-3.3-9.2-2.2-14.4a40 40 0 0 1 6.2-14c1.4-2.5 4-1.4 6.3-1.2zm166 16c5 2.5 9.6 6.6 13 11 2.4 3.3 3.2 7 3.8 11-4 .2-8 .6-12-1-4.8-1.8-8-5-11.7-8.6l1-12.3c2-1 4-1.5 6-.3zM64 107a38 38 0 0 1 11.8 9.2c3.6 4 4.2 8.8 4.8 14-4.2.1-8.2 0-12-1.8-5.8-2.3-10-7-13-12-1.6-2.5.6-5 2-6.7 1.6-1.6 3.6-4 6-2.6z" class="C"/><path d="M278 119c3.5 2.8 7 5.4 11 7 5 2 9.8 1.8 15 .7 5.4 4 10.7 8 16 12.3 2 1.4 2 3.4 2.6 5.7l4 26.7c-5.4-3-11-5.5-16.3-8.6-1.4-4.5-2.8-8.8-6-12.4-5.5-6.5-14-11-22.4-11.3-2.2-.2-4.2 1.4-6 2.4l2-22.7z" class="E"/><path d="M359.5 120.6c4-1.8 8.6 3.8 8.6 7.4-.7 4.8-4.2 9.3-7.5 12.7-4 4-9 5.6-14.6 6.6.1-6 0-11.5 3.5-16.7a34 34 0 0 1 10-10zm-224.5.6c4.5-.2 5.8 2.8 8.6 5.7-2.2 5.5-3.6 11.6-7.7 16-3 3.5-7 5.3-11.2 7-1-3.8-2.5-8-1.6-12 1-4.7 3.2-9 6-13 1.7-2 3-4.3 6-3.8z" class="C"/><path d="M45.4 136.5c3.8-1.4 7 .3 7 4.5.8 5-5.8 6.2-8.5 3.2-1-2-1-6.6 1.6-7.7z" class="B"/><path d="M283 144.5c6.8.7 13.7 4.2 18 9.4 2.5 2.8 3.3 6.2 4.2 9.7-4 1-8 2-12 1-5.7-1.3-12.3-4-15.7-9-2-2.8-.4-5.4 1-8 1.2-1.7 2-3.5 4.5-3zM71 154a41 41 0 0 1 12.6 6.4c4 3 6 7 8 11.4l-16.6-1c-4.4-.1-8.7-3-11.6-6.2-2.3-2-.7-4.7.3-7 1.4-3 4-4.5 7.3-3.7z" class="C"/><path d="M274.2 159.8c3 2.2 6.2 5 9.8 6 7 .6 14 .5 21 1 2 .2 4 1.2 5.8 2l16.5 8.4c1 9.8 2.5 19 1.4 29-.2 9-2.3 17.3-4.8 25.7L312.3 217c1-4.5 1.5-8.8.2-13.2-1.5-5.4-5-9.4-8.7-13.5-3-3.2-6.2-6.4-10.7-6.8-3.6-.4-6.3 1.6-8.7 4-2 2-4.5 4.5-4.7 7.6-.5 4 1.8 7.5 3.7 10.7 5.6 8.8 15 15 25.5 15.3l13 17-16.8 34c-3.2 5.8-5.7 12-8.7 17.8l-3.6-5.8c2.4-5 5.3-9 5.7-14.8a32 32 0 0 0-15.8-29.6c-5.3-3.3-12.3-4.2-18.4-6l10-73.6z" class="E"/><path d="M145.4 162.4c2.2-.7 4.7-.4 7-.5l-2.6 18.8c-.3 2-.6 4-1.4 5.7-1.8 2.2-4.6 3.6-7 5-4.5-9.6-3-21.2 4-29.2zM369 162c3 1.3 5.4 4.8 6.5 7.8-2 5-5.8 10.3-10.2 13.3-4.5 3.3-9.3 4-14.7 4 .2-6 1.6-11.4 5.4-16.2 3-4 8-8.3 13-9z" class="C"/><path d="M44.3 183.3c2-.7 4.8-.5 6 1.5.8 1.6 1 4 .2 5.7-1 1.6-3.6 1.7-5.4 1.4-4.3-.1-4-7.3-.8-8.6z" class="B"/><path d="M292 188.6c3.5.1 5.5 2.4 7.6 5 2.5 3.2 5 6.6 6.7 10.3 1.5 3.7 1.4 7.4 1.5 11.3-4-.6-8-1-11.5-3.2-5-2.8-8-7.7-10.3-12.7-.8-2-1.7-4.3-.2-6.3 1.6-2 3.8-3.7 6.2-4.2z" class="C"/><path d="M147.6 194.3l-6 34-5.5-10 6-20.2c.3-1.2 1.7-1.6 2.6-2.2l3-1.5z" class="E"/><path d="M91.2 201.7a23 23 0 0 1 10.2 8c-3.6 2.5-7 5-11.4 5.3-5.3.4-11 0-16-2-2.7-1.2-5.4-3-4.4-6.4.5-2 1-5.5 3.5-5.5 6.2-1.2 12-2 18.2.6z" class="C"/><path d="M50.2 204.2c2.8-1 7 .4 7 3.8 1 4.8-5.3 6-8.4 4-2.2-2-1-6.5 1.3-7.8z" class="B"/><path d="M368 210c3.2 2.5 6.2 4.5 6.2 9-.7 2.8-3.4 5-5.7 6.4-3.8 2.4-8 4.6-12.3 5.6-3.7.8-7 .2-10.8-.3 1.3-4.3 2.7-8.3 6-11.5 4.5-4.6 10.4-8 16.8-9z" class="C"/><path d="M48.5 231.5c4-1.8 9.5 3 7 7-1.4 2-6.8 2.4-8.3.3-1-2-1.2-6.3 1.3-7.3z" class="B"/><path d="M97 237.7c7-.1 14.5-1 20.8 2.6 3.8 2 6.2 5 8.5 8.5-7 4.4-15.4 6-23.4 3.5-2.6-1-5.8-2.3-7.4-4.6-1.8-3.4-.2-7 1.5-10z" class="C"/><path d="M266.6 239l13 4.6c6.7 3.7 12 10 13.3 17.6 1.7 7.5-1 13.6-4 20.2-4-.8-8-1.5-11.7-3.5-6.2-3.2-11-8.5-12.7-15.4-2-7-.8-14 1.3-20.7l.8-2.8z" class="D"/><path d="M44.3 250.4c4.5-1.3 7 1 6.6 5.6 0 4.7-7.8 5.2-8.8 1-.5-2.2-.3-5.6 2.2-6.5z" class="B"/><path d="M259 262.4a33 33 0 0 0 19.5 21.8c3.2 1 6.8.8 10 1.6 2.3 2.8 3.8 6.4 5.6 9.5-4.4 11.7-7.8 23.5-8 36.2-1.3-1.4-3-2.8-4-4.4.4-5.2 2.2-9.8 1-15-1.4-9-7.2-15.7-14.5-20.6-4.4-2.7-9-4-14-5l4.5-24z" class="E"/><path d="M344.8 265.2c5.4 1 9.8 3.5 14.4 6.2-1.8 4.3-3.6 8.5-6.7 12-5.6 6.6-13.8 10.7-22.5 9.8-6.5-.6-11.4-3.8-16.6-7.4 1.5-4.8 3-9.3 6.6-12.8 6.4-6 16-9.7 24.7-7.8z" class="D"/><path d="M63.8 268.2c1.5 2 .1 4.4-.3 6.5L59 276l-3.2-1.3c-.4-2-1.7-5.2-.2-7 1.8-2.2 6.4-1.8 8 .5zm16.7-1.7c3.8-1 6.6 1.6 6.3 5.5 0 4.5-5.8 5-8.6 2.8-2.2-2.5-1.2-7.4 2.3-8.3z" class="B"/><path d="M132 273l-7 27c-7-2.3-12-5.7-17-11a42 42 0 0 1 13.2-12.7c3.3-2 6.8-2.5 10.5-3.3z" class="D"/><path d="M44.5 276l4.7 2c0 2 .6 4.2-.2 6-2.3 3.4-8.4 2-9.2-2 .7-2.7 2.5-4.6 4.7-6z" class="B"/><path d="M253.4 292c9.4 1.4 17.8 5.8 22.3 14.4 3.4 6.6 2.6 13 2 20-4.5.6-8.8 1-13.3.1-6.5-1.3-12.6-5.6-15.8-11.4 1-7.8 3.5-15.4 4.8-23z" class="D"/><path d="M50 301c3 .1 4.7 2.8 6.4 5-.8 1.5-1.5 3-2.3 4.5-2-.1-6 1-7-1.4-1.2-2.8-.7-7.5 3-8zm21.4 4.4c3.6-1.8 7.8.3 7.6 4.6.4 4.7-6.3 5.8-9 3-1.5-2.2-1-6 1.3-7.6z" class="B"/><path d="M341 312.5c-.4 5.6-1 11-3.5 16-3.7 8-11.8 13.5-20.5 14.6-5 .6-9.4-.8-14-2.4.1-5 .2-9.7 2.3-14.4 2.5-6.3 8.4-11 14.5-13.4 7-2.7 14-1.8 21.2-.4z" class="D"/><path d="M246.7 321.3l2 2c5.2 5 12.2 8.2 19.3 8.6 3.5.1 7-.6 10.6-1 2.5 2.3 5 4.7 7.5 7a112 112 0 0 0 8.8 37.3c-11.2-11.8-24-22.4-36-33.3l-14.5-11.6 1.6-6.3.7-3z" class="E"/><path d="M44 326.4c1.8.1 3.6.6 5.3 1 .1 2.3.1 4.5.1 6.8-1.7.7-3.4 1.5-5.2 1.8-2-1.2-3.2-3.4-4.5-5.2 1.2-1.5 2.5-3.6 4.3-4.3z" class="B"/><path d="M243.2 335.7l9 7.3-11.5 2.4 1.8-7 .8-2.8z" class="E"/><path d="M60.3 337.2c1.6-1 4.6-.8 6 .5 1.4 1.7 1.3 5 .1 6.6-1.8 2-6.6 1.8-8-.6-2-2 .5-5 2-6.5z" class="B"/><path d="M256.7 347a458 458 0 0 1 39 36.6l-11.7 1.6c-3.5-4-6.4-8.3-11.3-11-10-6.3-23.2-5.7-32.8.7-5 3-8.2 7.4-12 12a563 563 0 0 0 8.1-25.8c1-4 3-7.4 5-11l15.5-3z" class="E"/><path d="M46.5 352.5c1.7.4 2.4 2.7 3.3 4l-1.5 4.4c-1.8.4-4 1.5-5.8.5-2.6-1.2-3-4.7-2-7 1-2 4-2.4 6-2zm29 1c1.5-1.5 5.6-1.5 7 0 1.3 1.6 1.2 4.5.2 6.3-1.5 2.2-6 2.2-7.6 0-1-1.8-1-4.7.2-6.3z" class="B"/><path d="M342.2 356c4 6 7 12 7.6 19 .8 8.5-2.7 17.2-9.3 22.5-3 2.4-6.4 3.7-10 5a34 34 0 0 1-7.9-14.1c-1.5-7-.2-14.8 4.3-20.6 4-5.5 9.4-8.8 15.3-12z" class="D"/><path d="M58.3 366.4c3-1 7.5-.3 7.6 3.7.6 5-6.6 7-9 3-1-2-1-6 1.5-6.8z" class="B"/><path d="M271.5 379.5c3.4 2.3 5.7 5.4 8.3 8.6-2.5 3.6-4.7 7-8.3 9.5a25 25 0 0 1-22.6 3.6c-7-2-12.2-6.5-17-11.7 4.5-5.3 9.4-10 16-12.4 7.6-3.2 16.7-2 23.5 2.5z" class="D"/><path d="M49.2 382c1.4-.7 3.3-.5 4.7 0 2.4 1 2.8 4.4 1.6 6.4-1.3 2.2-4.6 2.6-6.8 1.8-3.3-1.4-3-7 .4-8.2z" class="B"/><path d="M300.5 389.2a333 333 0 0 1 27.4 35.3l-13 1.3c-3-3-5.7-7-9.6-9-7-4-16-6.5-24-4.2-8 2-14 7.2-19.6 13-2.4 2.7-3.5 5-3.7 8.6l10.2 8.6c7 5 15.3 7.6 23.8 6.3a29 29 0 0 0 17.6-9.5c2.2-2.6 4-5.7 5.8-8.6 5-.8 10.3-1.4 15.4-2a501 501 0 0 1 30 52.4l-10.3-4c-1.7-8.3-6.3-16.6-13-21.8-7.5-5.8-17.4-6.6-26.4-4.5-5 1.2-10 3-14 6-1.8 1.2-2 2.6-1.2 4.5 2.3 5.7 4 11 8 15.8 4.6 5.8 11 9.7 18.3 11.5 5.4 1.3 11.5.5 16.8-1 3.6-1 6-3.3 9.4-5 5.2 1.2 10.5 3 15.4 5 1.3 1.6 2 3.8 3 5.6a753 753 0 0 1 14.4 32.8c1 2 1 4 1 6v59A435 435 0 0 0 356 570c-1.8-1.3-2.2-3.2-3-5.2l-6.4-19.7c6-6.7 10-15 9.5-24-.1-7.3-3.4-13.7-8-19-4.7-5.3-12-8.6-18.2-12l-2.6.6c-2.8 4.7-6.8 9.6-8 15a37 37 0 0 0-.1 20.8 31 31 0 0 0 11.9 15.1c3 2.3 7 2.8 10.2 4.7 2.4 5.8 4 12 6 18a362 362 0 0 0-31.8-20.1c-2-1-3-3-4-5l-6-11 2.7-6.7c2-5 2.5-10.7 1.8-16-1-7.7-5.5-14.5-11.6-19.2-6-5-14.7-7-22.2-8.4-2.6 3.2-3.4 7.8-5 11.6-4.6 14.4 2.4 30.4 15.8 37.2 4.3 2.5 8.8 2.4 13.4 3.7 2 2.4 3 5.4 4.7 8l-34.4-15.4c-2-.6-2.3-2-3.2-3.7l-7.7-17c4.4-8 3.8-16.7 0-24.7-2.2-4.4-5-10.4-9.7-12.7-4.2.1-10.4-.6-13.5 2.8-2.7 2.5-4.5 5.8-3.8 9.6 1 6.2 4 12.5 8 17.4 3.6 4.5 8.3 6.3 13 9 1.3.6 1.8 2 2.5 3.3l6.5 13c-10.4-3.5-21-6.7-31.6-9-1.7-.5-3.4-.6-4.4-2.3-3-4.6-6-9.5-9-14-.6-1.2-2-2.6-1.5-4 .8-4 2-8 1.4-12-.6-7.4-5-13.8-9.4-19.5-2-2.5-4.2-3.7-7.2-4.6 9.7-20.3 18.3-41.3 25.3-62.8 3.4 5 8.2 7.8 13 11.3 10.3 7.3 25 7 35-.7 4.4-3 6.3-7.4 9.4-11.8 5.4-.2 11-1.2 16.5-.8z" class="E"/><path d="M369 395.3a32 32 0 0 1 8.2 17.7c.7 8-1.4 16.2-7.4 21.8-3.3 3.2-7.2 4.6-11.4 6.2a36 36 0 0 1-7.9-12.5c-2.5-7.4-.5-15.8 4-22 3.6-5.2 8.8-8.6 14.5-11.2z" class="D"/><path d="M46 400c4.7.7 5.2 9.2.1 9.6-3.8.8-4.5-2.2-6.5-4.6 1.4-1.6 4-5.8 6.4-5zm13.4 9.4c2-1.7 6-1.5 7.3 1 1 2 .2 4-.5 6-.6 2.2-3.3 2-5 1.7-3.3-.7-3.8-6.4-1.7-8.5z" class="B"/><path d="M296 417.8c6.6 1.4 10.7 5.7 15 10.6A30 30 0 0 1 300 441c-7 4.2-15.7 3.8-23 1.3-5.4-2-9-5.6-13-9.7 2-3 4-5.7 6.6-8 6.7-6 16.8-8.4 25.6-6.7z" class="D"/><path d="M382 420v95l-23.3-50c-.8-1.6-2-3.3-1.6-5l2.3-13.7c6.5-3 13.8-7 18-13 2.8-4 3.7-8.5 4.7-13.3z" class="E"/><path d="M49.3 425c.4 2 0 4.2-.1 6.2-2 .1-4.7.8-6.7.1-1.3-1-2-2.8-2.5-4.4-.2-4.6 7.5-6 9.3-2zm-4 22.2c1.8-.7 4.4-.7 6 .6 1.4 1.5 1.2 4.3.7 6-1 3.6-7.7 3.5-8.4-.3-.5-2-.7-5.4 1.7-6.4z" class="B"/><path d="M321 455.5c7.3.2 13.4 4 18.4 9 3.6 3.7 4.7 8.7 6.2 13.5-4 2.6-7.7 5-12.5 6-7 1.6-14.4-1-20-5-6.3-4.8-9.4-11.4-12-18.7 6.4-3 12.7-5.3 20-5z" class="D"/><path d="M198.4 460.3c1.7-.5 3.3-.7 4.8.6a27 27 0 0 1 8.6 13.4c1.4 4.8.4 9-.5 13.8-3.2-1.2-6.2-2-9-4.3-4.4-3.5-6.7-8.8-9.2-13.7 1.6-3.2 3-6.8 5.2-9.7zm50.6 9c4.7 6 7.4 13 8 20.5-.1 3-1 6-1.7 9-4.2-2.2-8.3-4.2-11.3-8.2a40 40 0 0 1-5.5-11.6c-.6-2.4-1.3-5 .6-7 2.2-2.6 6.7-2.4 9.8-3z" class="C"/><path d="M189.6 476.2a31 31 0 0 0 10.8 12.4c3 2.2 6.7 2.6 10 4 3.6 4.8 6.3 10.4 9.5 15.5l-23-3.6c-2.4-.4-4.6-.3-6.6-2L174 490l-1.2-7c4.8.2 9.2 1 13.8-.8l3-5.8z" class="E"/><path d="M93.2 481c4.2-.3 8.5.1 12.8.1 2.3.1 4.8-.1 7 .7 4.4 2.3 6.6 6.7 8.6 11-6.5-.1-13 .4-19.6-.2-3-.8-7-3.3-9-5.8-1.7-2-.6-3.8.2-6z" class="C"/><path d="M121.4 481.6l18.4.5 12.5 9.7c5.8 3.4 12.2 3.6 18.7 2.4l11 8.8-33-1c-7.3-2.5-14.5-6-21.8-9a34 34 0 0 0-4-8.8l-1.7-2.4z" class="E"/><path d="M147.7 482.2l19.6.6 1 6.5c-3.7.1-7.4.5-11-.7-3.6-1.2-6.7-4-9.7-6.4z" class="C"/><path d="M278 483.2c7.4 1.3 14.3 3.7 19.6 9.3 4 4.3 5.4 9.8 7 15.3 1.6 6-1 11.8-3.3 17.3-5-1-9.6-1.7-14-4.3-5.7-3-9.7-9.4-11.4-15.6-1.5-7.5-.5-15 2.2-22z" class="D"/><path d="M43.3 490.3c1-.5 2.4-.6 3.7-.4 4.5.4 4.3 9 0 9.5-1.8.1-4.2.5-4.7-1.7-1-2.5-2-5.8 1-7.4z" class="B"/><path d="M329.8 495.6c7.2 2.8 13.4 7.5 17.5 14C351 515 351 522 350 528c-1 5.3-3.8 9.3-7 13.3-5-2-9.6-4-13.2-8-4.8-5-6.8-11.5-7-18.2.1-7.2 3-13.7 7-19.4z" class="D"/><path d="M87.8 505.2c4.2 1.2 7.2 4 10.3 6.8a29 29 0 0 1-9.8 6.4c-6.2 2.4-13.8 1-20-.7-3.5-2.7-2.8-10.2 1.8-11.6 5.5-2 12-2.5 17.8-.8zm73.4 16.3c-.6 3.2-1 6.2-2.6 9a29 29 0 0 1-15.7 13.4c-5 2.2-9.6-4.6-8-9 2-4.3 5.8-8 9.8-10.4 5-3 10.7-3.6 16.6-3.2z" class="C"/><path d="M41.5 522.7c3.4-1 7 .2 7 4.4.2 4-4.2 5.5-7 3.8-2-2-3.2-6.8.2-8z" class="B"/><path d="M115 526c-.2 5-.5 9.4-3.2 13.7-2.8 4.5-7 9-12 11-3.8.5-9-2.8-9.6-6.7a26 26 0 0 1 7.4-11.4c4.8-4.7 11-6 17.4-6.5zm88 2c-.8 10.2-8.2 18-17.2 21.8-3 1.6-5.7-1-7.8-3-2.5-2.3-2.4-5.8-.5-8.4 3.2-4.2 8-7.2 12.8-9.3a25 25 0 0 1 12.7-1.2z" class="C"/><path d="M67.5 536.6a8 8 0 0 1 6 0c2 1 1.7 4.2 1 6-1.2 3.6-8 3.2-8.4-.8-.3-1.7-.5-4.3 1.3-5.3z" class="B"/><path d="M238.2 539.2c-.7 5-1.4 9.4-4.6 13.4-3 3.8-7.3 7.3-11.7 9.4-4.8 3-12-3.6-9.6-8.7 1-2.6 3.4-4.8 5.4-6.6 2.8-2.5 6-5 9.6-6.4 3.5-1.3 7-1 10.8-1.2z" class="C"/><path d="M288.3 549c.4 3.8.7 7.4-.3 11a27 27 0 0 1-18.2 18.8 38 38 0 0 1-18.3.4c.3-5.2.6-10 2.5-15 2.6-6.7 7-12.5 14-15 6.7-2.7 13.4-2 20.2-.2z" class="D"/><path d="M50.2 552c2.8-1 7 .4 7.2 4 1 4.8-6 6-8.8 3.5-1.6-2-.5-6 1.6-7.4zm88 7.2c2-.5 4.4-.6 6.2.4 1.7 1.7 1.3 5 .1 6.8-2.2 2.5-7.4 1.7-8.4-1.6-.8-2.3-.4-4.8 2-5.7zM75 562c3.3 0 4 2.5 5.5 5l-1.7 4c-2 .3-5 1.6-6.8.1-3-2.6-1.4-9 3-9zm34.2.2c1.7-.3 3.6.8 5.2 1.4.1 2.3.2 4.7.1 7-2 .4-4 1.4-6 1-1.4-1-2.5-3-3.6-4.4 1.3-1.7 2.6-4 4.4-5zm50.8 0c3.5.5 4.6 5.2 3 8-1 1.8-3.8 2-5.6 1.6-1.5-.8-2.2-3-3-4.4 1.4-2 2.5-5.8 5.7-5zm30.5 3l4.8 2a12 12 0 0 1 0 6.5L191 575l-3.3-1.3-1.5-4c1.2-1.7 2.5-3.3 4.3-4.5z" class="B"/><path d="M347.3 570a407 407 0 0 1 30.3 23.7c-14.8 0-29.7-.1-44.5 0 1.5-3 3.4-6.4 4-9.7.5-3 .7-6 1-9l9.2-5z" class="E"/><path d="M315 572c6.5-1 12.2.7 18.2 3-.4 6.5-1.7 13.8-6.8 18.4-2 .5-4.3.4-6.4.4l-26.7-.1 3.4-8a27 27 0 0 1 18.4-13.6z" class="D"/></svg>