<svg xmlns="http://www.w3.org/2000/svg" viewBox="0 0 400 610" width="533.3" height="813.3" xmlns:v="https://vecta.io/nano"><style><![CDATA[.B{fill:#d96038}.C{fill:#858585}]]></style><path d="M0 0h400v610H0V0z"/><path d="M18.4 15H382v426.6c-9.5 1.5-16.6 9-20.7 17.2-5 1.5-9.8 2.7-14.7 4l32-55.4c.8-1.7 1.2-3.5 1.4-5.4-1.6-.3-3.5-1.7-4.7.1-1.5 2.3-2.4 5-3.6 7.6-7 15-15.6 29.5-25 43.3v-14.6c7.6-5.7 9.8-14.4 9.8-23.5-.1-4.8-.1-11.4-3.3-15.3-5-4.7-15-4.4-19.4 1.2-4.2 6.8-4.4 16-2.2 23.4 1.6 6 5 10.5 9.7 14.3l-.8 23-23.8 31 1-15c2-2.4 4.4-4 6.2-6.6 6-8 6.8-18.8 4.4-28.4-1.2-4-4.3-6.8-8.4-7.5-4.6-.7-10.2-.5-13.2 3.7-3.6 5-3.5 12.5-3.5 18.3.2 8 4.3 14.3 9.8 19.6l-1.5 19.4c-.2 1-.2 2.6-1 3.5L293.2 518l-2.2-18.8c2.3-3.8 4.8-7.2 5.7-11.7 1.5-7.7 1-17-3.5-23.7-1-1.6-2.2-3.4-4-4-5-1.8-10-.5-14.3 2.3-2.5 1.8-3.5 5-3.7 8-.5 7.8.5 16 5 22.6 2.2 3.3 5.3 5 8.4 7.4l3 23-36.3 31 1.4-14.7c4-3.2 8.2-5.8 11.2-10 5.7-7.4 6.6-18 4.3-26.7-2.6-8.8-9.2-14-15.5-20.3-2.6-2-4.6 1-6.4 2.4-5.3 4.7-10.2 9.5-13 16.2-4.2 9.8-2.5 22 4.5 30.2 3 3.3 6.4 6 9.6 9.2l-1 17.5c-14 10-28.7 19.4-44 27.4l4-13c7.4-3.6 15.5-9 19.6-16.2a32 32 0 0 0 2.1-25.1c-1.7-5.7-6-10.7-9.3-15.7l-2.6-.6c-4 2.2-8 4-11.7 7-5.2 4.5-10.2 10-12.3 16.8-2.2 6.8-1.5 14 1 20.6 1.7 4.8 5 7.7 8 11.8L195 589l-8.2 4c-2.8 1.3-5.8.8-9 1H71.5c2.7-9 6-18 9.8-26.5l19-1.2c2.6 2.3 5 4.8 7.8 7 6.2 4.6 14.3 7 22 6a35 35 0 0 0 16.2-7.9c4.5-3.7 7.7-9 11.3-13.8V554l-7.5-6a33 33 0 0 0-33.8-4.9A44 44 0 0 0 99 560.9l-15.6 1.6a239 239 0 0 1 30.3-47.9l18.6 1.8a35 35 0 0 0 21.2 18c7.8 2.7 17 1.2 24-2.7 5-2.6 9-7 13.6-10.6-.1-3-.6-5.2-2.5-7.6-4.6-5.8-10.8-11.7-18-14.2-9-3-19-2.7-27.2 2.4-4 2.3-6.3 6-9.5 9.5l-16-2c12.8-15 28.5-28.2 43.7-40.7l16.6 4.6c2.6 7.7 8.3 15 15.2 19.2 8 4.8 18.7 5 27.4 1.7 4.8-1.6 8.2-4.7 12.3-7.7 1.5-1 2.4-2.4 3.4-4-2.2-3.4-4.3-7-6.6-10.4-8.3-12.2-24.5-17.3-38.3-12-4.6 1.6-8 5-11.8 8l-13.4-3.4c11-8.6 22.2-17 33.5-25.3 1.2-.7 2.3-1.8 3.8-1.5 5.8 1 11.7 1.6 17.3 3 3 3.5 4.6 7.7 8.3 10.7 8.3 7.8 21.2 10 31.7 5.8 4-1.7 8-3.5 11.2-6.8 2.7-2.8 6-4.7 7-8.4-4.5-5.2-7.5-10.5-13.3-14.4A32 32 0 0 0 241 422c-8 1.5-14.4 6.4-19.5 12.5l-12.6-1.6 45-32c1.6-1.2 3.2-1 5-1.2l20.8-.5c3.8 3 7 6 11.8 7.5 7.4 2.4 16 2.2 23-1 2.4-1.4 5.6-3.7 6-6.7 1-4.4.2-9.4-2.3-13-3.2-4-9.6-3.6-14.2-3.8-6.7-.3-13.3 1-18.6 5.5-2.4 1.8-4 4.6-6.5 6.3-5.7.6-11.5.6-17.2 1l12-10.3c2.4-2 3.8-6 7-6.8l21.4-6c3 1.5 5.7 3.3 9 4 6.4 1 13 .6 19-2.3 3.5-1.7 8-3.6 10.2-7 2.4-3.3 1-8-.3-11.6-1.2-3-3.4-6-7-5.8l-14 .7c-7.2 1.8-13.6 7-17.2 13.4-1 1.2-1.5 3.4-3.2 3.7l-13.6 4c6-7.7 11-16.4 15-25.2 5.8-5.5 12.3-10.4 18.5-15.6 3 .5 6 1 9 .4 5.4-1 10-3.8 14-7 3.2-2.6 6.8-5.6 8.7-9.4 4-6.3-1.3-15.6-8-17.5-4-.7-8.4.7-11.8 2.7-6.6 4-12.4 10-14.5 17.6-1 3.2-.8 6.3-1.4 9.5-3.2 3.4-7.4 6-10.8 9.2 2.4-7 4-14.2 5.5-21.5.8-4.2.2-8.8 2.7-12.3L323 285c3.7-.7 7.2-1.6 10.4-3.6 6.3-3.8 9.6-9.7 13-16 2-3.5 3.5-8.7 1.7-12.5-2-3.4-6.2-5.7-9.8-7-5.4-1.5-10.2 2.2-13.4 6-7.4 8-10.7 20-5.7 30l-7.8 12.7c.3-6.2 0-12.5-.6-18.7-.5-5.4-2-10.6-3-16 5-5.3 7.6-11.7 7.3-19-.4-5.4-1-11.6-3.5-16.5-1.7-3-4.7-6-8.4-6-3.2.2-7.6.1-10.2 2.3-2.3 2.3-4.4 4.7-4.6 8a36 36 0 0 0 7.2 25.6c2 2.6 4.8 3.7 7 6 4 14 4 29.6 3 44-2.4-4.7-5.3-9-8-13.6 1-4 2-7.8 1.3-12-.5-5-2.7-9.3-5.5-13.4-2.4-3.7-5-7.8-9.2-9.7-4-2-8.8-.8-12.2 2-2.5 2.2-5 4.4-5.2 8-.5 7 4 14 8.2 19 4.7 5.6 10.4 8.6 17.7 9.2l9.7 16.3c.7 1.4 1.8 2.7 1.4 4.4-1.7 10.3-5 20.4-9.2 30l-9.8-16c.7-2.8 1.7-5.7 1.8-8.6.1-5.5-1.7-10.6-4.5-15.3-2.5-4.3-5.4-8.7-9.8-11-2-1-4.2-1.6-6.5-1-4.8 1.4-9.6 5-11.5 9.6-.6 3 .5 6.7 1.8 9.5 3.2 6.8 8.4 13.4 15.2 16.8 3 1.6 6 1.8 9 3l11.6 18.7c-5 10-11.7 18.7-19 27l-9.4-17.2a24 24 0 0 0-.6-21.2c-2.6-4.7-5-10.2-9-14-3-3-8.2-2.7-11.6-.7-2.2 1.2-5 2.4-6.7 4.4-2.5 4.4-2 9 .1 13.5a39 39 0 0 0 12.2 15.9c3.2 2.4 7 3.3 10.7 4l10.6 19c-10 10-21.5 17.5-33 25.6-1-6.5-2.4-13-3.5-19.5 2.3-2.7 4.4-5.5 5.5-9 2.2-6.6.8-14-1-20.3-1.3-4.3-3.4-8.6-7.7-10.5-7-2.4-15.5 1.4-17.8 8.6-.8 4.2.5 8.8 1 13a28 28 0 0 0 14.6 19.8l3.5 21.6-37.3 26.5.5-20.3c3.3-2.7 7.2-5 9.8-8.5 4.3-5.3 7-12.2 6.6-19-.7-7.8-4-15.6-9.2-21.5-3.2-3.3-6.7-6.3-10-9.4-1.6 1-3 2-4.2 3.3l-8 9c-4.5 5.6-7.5 12.4-7.3 19.7.4 7.8 3.5 15.6 9 21.2 2.5 2.2 5.5 4 8 6l-.6 23.5-31.4 24.6-1-14.6c2.6-2.5 5.5-4.8 7.8-7.5a29 29 0 0 0 5.8-21.9c-1-5.7-3.4-11.3-6.8-16-3.4-4.7-9-8.3-13.4-12h-3.2l-5.2 6a36 36 0 0 0-9.5 25c.6 7.4 3.7 15 9.3 20 3 2.8 6.4 5.2 10 7.4l.6 18.4-41 41.5.8-11c4-3.3 7.7-5.5 10.8-9.4 7.8-9 8.4-23.5 3-34-2.5-5.3-7.2-9.5-11.2-14-1-.8-2.3-2.7-3.6-1.4a131 131 0 0 0-10.3 8.9c-8.5 9-12 24.3-6.3 35.6 3 5.8 7.6 9 12.3 13l-1 16.5c.1 3-2.6 5.4-4 7.7a223 223 0 0 0-23.2 40l-1.8-12L82 544c3.6-5.3 5.3-11.8 5-18 .1-8.5-5.7-17-11.5-22.7-4.4-4-9.6-8.2-16-8-2.4 3.8-5.3 7.3-7.4 11.2-2.3 5.5-4 11.6-4 17.6.4 6.3 2 12.6 6.2 17.5 4.2 5 10.4 8.5 16 11.8l3 19-7.5 21.5H18.4v-90.2l4.4-2c1-5 2.2-10.3 3.5-15.3.2-2.3 3.2-3 5-3.8 3.5-1.4 7-3.8 10.6-4.7 3.4 1.2 6.8 3.4 10.3 4.4a28 28 0 0 0 19.5-1.3 38 38 0 0 0 15.6-14.5c3.3-5 3.8-11.3 5.7-17-1.2-1.3-2.3-2.2-4-3-4.4-1.7-8-4-13-4-9-.6-19 .6-25.7 7.2-7 6-10 14.6-11 23.6l-10.8 5c5.7-20.3 12.8-40.2 22.3-59l16.3.1c3.6 4 6.6 8 11.5 10.6 8.3 5 19.6 4 28 .1 8-4 12.3-10.3 18-16.7v-3.2L114 401c-11.4-8-27.5-8-38.6.5-4.3 3.3-6.6 7.7-9.5 12.2l-13 .4c6-11.4 13-23 21-33 1-1 1.5-2.4 3-2.4 5.5-.4 11-.4 16.4-.6 3 3.3 6 7.3 10 9.6a28 28 0 0 0 10.6 3.9c7.5 1 15 .3 21.5-4 7-4 11-10.4 16-16.7-2-3-4.6-5-7-7.4a34 34 0 0 0-33.8-7.8c-8 2.4-14.5 10.2-19 17-3.7 0-7.3 0-11 .1l40.3-39.2c3.4 1 7 1.7 10.2 3 1.4 1 2 3.4 3 5 2.6 6 6.8 11.2 12.7 14.2 7 3.4 14.7 5.4 22.4 3.3 7.4-1.7 12.6-6 19-9.7l.6-2.6c-2.7-4.7-4.8-10.6-8.6-14.4-3.5-3.6-7.4-7-12.2-8.8-6.3-2.2-12.6-3.6-19.2-1.7-6.7 1.8-11 6-16.6 9.7l-6.7-2L155 306h17.5c4 4.6 7 9.2 12.5 12 12.8 7.6 29.3 3.8 39.3-6.5l7-8.7V300l-9.6-8.7c-5.8-4.3-12.3-7.6-19.7-7.8a36 36 0 0 0-21.6 7.9c-3 2.2-5.2 6.2-7.3 9.4-4 0-8 0-12.2.1 10.8-9.5 20.2-19.4 29.6-30.2L212 264c2.4 1.2 5.2 3 8 3.2l14 .5c2.3.3 4.2-.6 6.2-1.5 4-2 9.3-4.5 10.4-9.4 1.3-5-.4-12-4.8-15-3.5-1-8 0-11.8-.1-6.7-.5-12.7 3.4-17.4 7.8-2.8 2.6-4.2 6-6.2 9-4.8 2-10.2 3-15 5a220 220 0 0 0 18.9-33l21.8-4.6c2.7 1.7 4.6 4 8 4 5.4.3 11 1 16.3 1 5.5-1.3 12.8-3.6 15.3-9.2a14 14 0 0 0-5-16.2c-2.4-1.4-6-1.2-8.6-1.2-9 .1-18 4.3-24 11-1.6 1.8-2.3 5.8-5 5.8l-16.2 3.5 7.5-19.3c.6-1.4.8-2.8 2-3.7l18-12.4c8.4 3 17.5 1.4 24.7-3.8 4-3 9-6.5 11-11.2 1.5-6.4-3.7-12.5-9-15-4.2-2-9 .1-12.6 2.4-4.5 3.2-9.6 5.7-12.5 10.5-2.6 4-2.6 8.4-4.4 12.6-4.2 3.5-9.2 6.2-13.6 9.6l7.3-29c.5-2.5 2.3-4 4-6l12-13c7.4-.1 14.2-2.2 19.7-7.3 4.8-4.5 10-11 10-18 .1-4.2-3.3-7.2-6.4-9.5-3-2-7.6-3-10.8-.7-4.7 3-8.6 7.5-12 12-4.6 6-4.7 13-4.8 20.2l-9.4 11.3 5.8-45c.2-1.6 0-3.6.7-5.2 2.2-2.5 5-4.3 6.8-7.2 4-6.5 5.2-15 4.3-22.6-.5-4.4-3.3-9.7-8-10.4-3.7-.5-8-1-11.4.8-2.7 1.3-4 4.6-5 7.2a32 32 0 0 0 1.7 24.4c1.5 3 4.5 5 6 8-.2 13.5-2.2 27.2-4.4 40.5-2.5-5-5.2-9.8-7.7-14.7 1.6-3.8 2.8-7.6 2.6-11.8-.4-8-4.5-15.2-9.7-21-2-2.2-4.7-4.8-8-4.7-3.6-.1-7.2 2.7-10 4.8-3.6 3-4.2 7.6-3 12a39 39 0 0 0 10 17c4 3.8 8.7 4.4 13.7 6.2l8.5 16.5c.8 1.8 2 3.2 1.5 5.2l-6.8 30-9.2-15c.3-3.7 1.3-7 .8-11-.7-8.4-5.7-15.3-11.4-21.2-2.7-2.7-6-4.6-10-3.5-5.5 1.6-12 6.3-11.3 12.7 1.7 13 14 25 27 26.2l12 18.6-14.5 38-7.8-16c1.8-4 3-8.3 2.8-12.8-.5-9.3-5.7-19-13.2-24.7-3.3.3-6.7.3-10 1-4.4 2-7.8 5.7-7.6 10.8.6 5 3.3 10 5.6 14.5 3.8 6.8 10 11 17.5 12.8l9.6 21a169 169 0 0 1-20 31.7l-6.5-17.6c4.6-8 5-16.6 2-25.4-1.6-4.2-4-9.6-8.2-12-3.4-1-7.3-1-10.8-1-5.4 1.2-8.2 6.7-8.2 12 .8 8.8 4.2 17.2 11.2 23 2.6 2.3 5.7 3 8.7 4.6.8 1.2 1.2 2.7 1.7 4 2 6 4 11.7 6 17.6-9.7 12-22.2 22.7-33.7 32.8l.3-7 8-6c4.8-5.3 8-11.7 8-19 .2-7-2-13.5-5.7-19.4-3-5.4-7.8-8.6-12.3-13-1.7.6-3.2.7-4.4 2-5.2 5.3-10.4 9.6-13.4 16.7-4.6 10.2-2.4 22.3 4.5 31 2.5 3.3 6.8 5.6 10 8l-.7 10.8c-2 2.3-4.7 4-7 6-6.4 5.5-13.2 10.6-19.4 16.3l-2.4-15.3c2.7-3.4 6.4-6.7 8-10.7 2.5-5.7 3.3-12 2-18.2-2.5-12.6-13.8-24.2-26.2-27.3-8.6 7.7-12 18.8-12 30a27 27 0 0 0 4.8 14.2c4 6.6 11.8 11 18.6 14.3l3.2 16.6L82 363.8c-.7-2.4-2.2-5-2.2-7.7 1.5-3.3 4-6.4 5.5-10 3.7-9.4 2.5-20.6-4-28.7a39 39 0 0 0-25.5-15.2L49 315c-3 9.6-2.7 21 3.6 29.3 5 7.4 13.8 11.5 22 14.2l3.7 9.3c-9.7 10.7-18 22.6-25 35l-2.4-6.8c2.4-5 5-9 6-14.5 1.5-7.8-1-15.8-5.2-22.4-6.3-9-15.8-12.4-25.7-15.6-1.8-.2-3.2 2-3.8 3.4l-4 12c.4-4.4.2-8.8.2-13.2V15z" fill="#fff"/><path d="M242 68.6c2-.1 4.7-.5 6 1.4 3.8 4.5 2 10.7 1.4 16-.7 5.8-3.6 10.2-8.2 13.7-3.8-4-6-8.2-6.4-13.7-.3-4.7-.6-10.4 1.4-14.8 1-2.5 3.5-2.2 5.8-2.6zm-30.3 29.6c7 4.5 11 11.7 11.6 20-.1 3-1.2 6-2 8.7-8.5-1.5-15.3-9.3-18-17.2-.7-2.4-2-5-.3-7.4 1.7-3 5.6-3.3 8.5-4zm56.3 16.5c4.7 1 6.2 4.6 8.5 8.3-4.6 10-13 18.2-24.7 18.2.1-3.2 0-6.3 1-9.4 1.7-4.7 5-9 8.5-12.4 2-1.8 4-3.8 6.6-4.7zm-66.5 25.8a36 36 0 0 1 8.3 11.8c2 4.5 2 9.2 1.2 14a26 26 0 0 1-10.4-3.7c-5-3.5-8.2-8.8-10.7-14.3-3.2-6.2 7-12.2 11.7-7.7zm66.5 23c4.2 0 5.6 5.4 7 8.5-2.6 5-7.5 8-12.3 10.8a21 21 0 0 1-15.7 2c1-6 3.4-11.5 8.5-15.2 3.5-2.4 8-6 12.5-6.2zm-81 17.4c3-.5 4.7 2 6 4.2a40 40 0 0 1 4.7 11.1c1 4.6-.1 9.2-1 13.8-3-1.2-6-2.2-8.5-4.2-4.4-3.4-7.2-9-9-14-.7-2.4-1.7-6 0-8 1.8-2.4 5-2.4 7.6-2.7zm80.6 29.5c2.6 3.3 5 6.4 2.3 10.5-3.5 3.3-9.3 4.3-13.8 5.3-6.2 1.2-11.3-.1-16.3-4 2-4 4.6-7.6 9-9.6 6.2-3.3 12.2-2 19-2.3zM170 216c5 3.8 6.7 11.5 7.7 17.3.8 4.4-.5 8.3-2.3 12.2-2.7-1.2-5.2-2.3-7.4-4.3-3.7-3.4-6.2-8.5-8-13-1-2.6-1.8-6-.7-8.7 2.3-3.7 6.7-4.5 10.6-3.3zm130 7.6c2.3.6 6 1 7 3.4 4.5 9 4 20.3-2.4 28.3-9.6-6.2-13-18.4-10-29.2l5.4-2.6zM241.8 246c2.2 2.7 4 5.4 4.6 9-1 3-4.5 4.4-7.2 5.4-4.8 1.6-10.2 3.6-15.3 2.8a28 28 0 0 1-9.3-3.3c3.7-5.8 8.8-10.4 15.5-12.5 3.8-.7 7.8-1 11.7-1.4z" class="B"/><path d="M145 246.6c6 4.4 11 10 13 17.4 1.5 6.4 1.2 13.8-2.3 19.5-2.6 4.5-6.5 7.7-10.7 10.6-10.4-5.6-15.8-17.8-13-29.2 2-7.6 7-13.6 13-18.3z" class="C"/><path d="M339 252c2.8.7 4.8 3 4.3 6a32 32 0 0 1-5.7 12.6c-3.5 5-8.6 7-14 9-.7-3-1.4-5.7-1.2-8.7.1-6.4 4.3-12.5 8-17.6 2.3-3.2 5.4-2 8.7-1.5zm-58 7.8a35 35 0 0 1 10.4 13c2.3 5 2.2 10.3 1.4 15.7-3-.7-5.7-1.2-8.3-2.7a30 30 0 0 1-11.9-15.1c-.5-1.6-1.4-4-.6-5.5 2-3 6-4.2 9-5.3z" class="B"/><path d="M98.7 266.4l9.4 5.6c7 5.7 11.3 15 10.2 24-1 6.6-4.2 11.7-8.3 16.7-4.7-1.6-9-3.5-12.5-7.2-5-4.8-6.6-12-7.3-18.5a35 35 0 0 1 8.5-20.7zm114 25c5.2 2.5 9 6.4 12.6 10.7-3.6 3.5-7 7.7-11.3 10-6 3.4-12.2 5.5-19 4-7.5-1.5-13-6.4-17.3-12.6 2.6-4.5 5.8-8.5 10.5-11 7.4-4 17-4.8 24.5-1z" class="C"/><path d="M269 297.4c3 1.6 5.3 5.3 7.5 8 4.5 6 5.6 13.3 4.2 20.5-4.8-.5-9-1.8-12.4-5.4a37 37 0 0 1-9-16.3c3-3.2 4.7-6.8 9.6-7zm71 3.4c3.5.8 5.3 5.4 7 8a30 30 0 0 1-7.2 9.8c-5.6 4.5-12.3 6.7-19.5 6.5A27 27 0 0 1 331 305c2.4-1.8 5.8-4.5 9-4.2z" class="B"/><path d="M58.5 308.2a31 31 0 0 1 17.1 10.3c4 4.6 5.3 10 6.3 15.8 1 6.7-2.5 13.4-6.2 18.7-4.5-1-8.7-2.3-12.6-5-5.8-4-9.2-11-10.3-17.8-1.2-7.4 2-15.6 5.7-22zM154 328c4.2-.3 7.7-1.6 11.7.3 8.7 3.5 14 10.5 18.2 18.5-9.2 6-19.3 10-30.3 6.7-8.8-2.5-14.2-9.6-17.3-18 2-2 3.7-4 6.2-5.3 3.3-2 8-1.8 11.6-2.3z" class="C"/><path d="M249 328.4l7.4 8.2a26 26 0 0 1 3.4 9.4c.8 3.6-.3 7.3-1 11-10.4-2.4-17-11.3-19.6-21.2-.6-2 1.2-3.6 2.3-5 1.7-2.5 4.7-1.8 7.4-2.3z" class="B"/><path d="M26.8 349.5c8.3 2.5 16 6.4 21 13.7 2.5 3.3 3 7.8 3.7 12 1 6.5-1 12.8-4.8 18-3.6-.5-7-1-10.3-2.5-6.7-3-11.4-9.7-13.4-16.6-2.3-8.7.8-16.5 3.8-24.5z" class="C"/><path d="M228.8 353c2 1.2 3.2 4 4 6a28 28 0 0 1-3.2 24c-9.7-5.2-13.7-18.7-11-29 3-2.5 6.8-2.4 10.3-1.3zm104.5.4c2 2.7 4 5.8 3.4 9.2-1 2.7-4.2 4.3-6.7 5.3-5 1.8-10.7 3.5-16 2.8-3-.4-5.6-1.8-8.3-3a20 20 0 0 1 16.2-12.9l11.3-1.2z" class="B"/><path d="M127 360c7.4 1.3 13.2 5.7 18 11.3a43 43 0 0 1-10 10.4c-6 4.2-14 5.6-21.3 4.6-7-1.2-12.5-5.5-16.8-11a30 30 0 0 1 10.3-12.3c6-4 13.2-4 20-3zm64 4.8a33 33 0 0 1 13.3 19.7c1 6.7.4 14.5-4 20-2.5 3-6 5.2-8.8 7.8-3.3-2-6.5-4-8.8-7-5-6.2-6-14.8-4-22.4a33 33 0 0 1 12.3-18z" class="C"/><path d="M18.2 376.7C20.5 385.4 27 392 35 396c3.2 1.5 7.8 1.4 10.7 3.2 1.8 3 3 6.4 4.4 9.6a117 117 0 0 0-5.9 11.5c-10.8 22.6-18.6 46.4-24.5 70.7l-1.5 7.3c.3-5.4.1-10.8.2-16.2v-94l-.2-11.3z" fill="#fff"/><path d="M302 387.3l12 1.2c.8 2 2 4.3 2 6.5-.3 2-1.2 3.7-2 5.4-6.5 1-13 3-19.6 1.5-4-1-7-3.4-10.2-6a23 23 0 0 1 18-8.5z" class="B"/><path d="M148.2 398.4c5.5 3.5 10.6 8 13.6 13.8a28 28 0 0 1 1.3 21.8c-2 5.4-5.7 9.3-10.2 12.6l-9.7-7.8c-4.2-4.7-5.8-11.7-6-17.8.4-7.5 4.6-15 9.3-20.6a70 70 0 0 1 1.8-2.1zm-44 3.2c5.8 2 10.3 5.6 14.3 10-4.2 6-8.7 11.4-15.5 14.5-6 2.7-12.5 2.5-18.6.5-6-2-10-6-13.6-11a30 30 0 0 1 6.9-8.8c7-6.4 17.6-8.2 26.5-5.2z" class="C"/><path d="M349 403c3 3 3.2 8.8 3 13-.1 7-3.2 13-8 18.2-4-4.4-7-9.2-7.7-15.2a34 34 0 0 1 1.4-15.1c3.4-1.5 7.7-3.5 11-.8z" class="B"/><path d="M255.5 427.5c7.8 2.8 13.3 8.4 18 15-5 5.7-12 10.5-19.6 11.4-8 .8-16.8-1.5-22.6-7.2-2.6-2.5-4.3-5.5-6-8.6 2.4-2.2 4.7-4.5 7.2-6.6 6.3-5.3 15.3-7 23-4z" class="C"/><path d="M322.5 441.5c1.7 4 1 9.2 1 13.6-.3 7-2.7 12-7.8 16.8-2.4-2.3-4.6-4.5-6-7.6-3.2-7-2.2-16 1.3-23 4-1 7.6-2 11.4.1z" class="B"/><path d="M87 451.2a32 32 0 0 1-10.1 19.6c-7.8 8.5-22.3 8-31.7 3-.4-.7-.5-1.6-.1-2.7 1-5.5 3-11 6.8-15.3a27 27 0 0 1 14.2-8c7.3-1.6 14.5.1 21 3.4zm24.2-3.2a38 38 0 0 1 11.6 21.2c.7 6.2.1 13-3.7 18-2.8 4-6.5 6-10.6 8.3a33 33 0 0 1-9.4-9.7c-4.3-7.3-4-16.4-.6-24A34 34 0 0 1 111 448z" class="C"/><path d="M382 447v16c-6.2.8-10.3.2-15.7-3 4-6.4 8.5-10.4 15.6-12.8z" class="B"/><path d="M199 463c5-1 10.8.8 15.6 2.6 7.8 3.2 12.4 9.5 16.2 16.7-8 6.2-17 10.2-27.5 8.5-9.8-2.4-16-10-19.5-19 4-4.6 9.3-7.5 15.3-8.7z" class="C"/><path d="M364 464c1.8.8 3.5 2 5.3 2.8 4.2.4 8.5.1 12.8.2v126.8H207c-4.2 0-8.3.1-12.5-.2l4.7-1c3.5-3 7.6-4.6 11.7-6.8l27-16c1.4-.8 2.5-1.8 4-1.7 8 .3 15.8.8 23.8 1.2l5.8 8.3c5.8 4.8 13 8 20.6 8.2 8 .3 16-3.6 22.3-8.5 3-3 5.8-6.4 8.4-9.6 1.3-2.5-.5-3.6-2-5.3-4-4-8-8.2-13-10.8-7.5-4-16.6-5-24.7-2.6-7.7 2.6-14 8-18.2 15l-17-.8c14-9.8 27.2-20.5 39.7-32h23.2c5.4 5.3 11.5 9.2 19.3 9.3 6.2-.1 13-1 18.6-4 4.4-3.7 3-10.8 1.7-15.6-1.3-5-6.7-6.3-11.2-7-7.8-.6-16.2 1-22.8 5.4-2.5 1.6-4 4-6 5.8-5.7.8-11.6.6-17.4 1l16.5-16.8c1.2-1.3 2.4-2.4 4.2-3l20.4-6.2c8.3 5.7 19.2 6 28 1.7 3.3-1.6 7.4-3.4 9.7-6.3 2-3 1-8 .1-11.4-.7-3-3.2-6.6-6.6-6.6l-15 .7c-5.8 2-11.3 6-14.7 11-1.4 2-2.5 4.2-4.2 5.8-4.3 1.7-8.8 2.6-13.2 4l21.6-26.8c1.7-2.6 4.4-2.7 7-3.7l17.2-5z" fill="#fff"/><path d="M288.5 465.6a27 27 0 0 1-1.1 30.6c-4.7-3.5-8.6-7.7-10-13.6-.8-4.2-1.6-8.8-1-13 1-5.3 8-6 12-4zm75.5 16.6c2 3 5 6.4 3.3 10-2.3 3.8-8.6 5-12.6 6.4-6.6 2-12 1.5-18-2 2-4.2 4.4-8 8.6-10.5 5.8-3.7 12-3.2 18.7-4z" class="B"/><path d="M251 487.5c5.6 4 10 9.5 12 16.3 2 7 1.6 15-2 21.5-2.5 4.5-6.4 7.4-10.8 9.8-6.5-4-11.6-9.5-13.2-17-2.4-12 3.8-24 14-30.5zM62.4 500.8C73 505.6 81 515.3 82 527a23 23 0 0 1-9.8 20.6c-4.7-1.6-9-3.7-12.4-7.5-3.8-4.4-6.6-10.2-6-16 0-8.5 3.5-16.6 8.6-23.2zM155 503c8-1.6 16.5 1.2 22.4 6.6 2.8 2.7 5.2 6 7.7 9a37 37 0 0 1-11.5 9c-7.3 3.5-16.8 4-24-.3-5.4-3-9-7.6-12-12.7 4.4-5.8 10.2-10.3 17.5-11.6z" class="C"/><path d="M344.6 521.4c2.6 3.3 1.5 8.2-1 11.3-3 2-7.3 2-10.7 2.2-7.3.3-13.7-2-18.7-7.2 3-3.5 6.6-6 11.2-7.4 6.2-2.2 13-.4 19 1z" class="B"/><path d="M216.8 519.8a56 56 0 0 1 6.9 14.4c2 7.3 1 15.6-3.5 22-3.6 5.6-9 9-15.3 11a32 32 0 0 1-8.4-13.7c-1.7-5.3 0-11.2 1.7-16.4 3-8.6 10.5-14 18.6-17.4zM137 547c5.8 1.6 10.2 5 14.6 9-2 3.7-4.2 7.2-7.3 10-6 6-14.6 9-23 7.3-7-1.3-12.7-5.5-17.3-10.8 3.2-5 6.6-9.7 11.8-13 6.3-4 14-4.7 21.3-2.7zm164.8 7.3c6.5 2 11 6.5 15.3 11.6a39 39 0 0 1-14 12.2c-6.8 3.3-15 3.2-21.8-.4-5.2-2.7-8.7-7-11.8-11.8 2.5-4 5.2-7.6 9.5-10 6.8-3.8 15.5-4 22.8-1.6z" class="C"/></svg>