<svg xmlns="http://www.w3.org/2000/svg" viewBox="0 0 400 610" width="533.3" height="813.3" xmlns:v="https://vecta.io/nano"><style><![CDATA[.B{fill:#ffe000}.C{fill:#d96038}.D{fill:#858585}]]></style><path d="M0 0h400v610H0V0z"/><path d="M18.4 15.3l363.5-.1v.8 291.3c-2.4-1-3 1-4.3 2.5l-27 82-46 128-6.2 15h-.6l-32.8-94.6c3.6 3.3 7.7 6 12 8.4 4 2 8.4 3.5 12.7 2.3 4-1 6.8-5 7-8.8-.6-8-4.7-15-9.6-21h1c8.4 3 18 6 27 6 5.4-.2 11.2-2.2 13.6-7.4.5-1-1-2.4-1.6-3.3 2.2-5-3.6-11.5-7.7-13.8-.4-.3-.8-.6-1-1 6-.1 13.6-.8 18.4-4.8 2-1.7 4-4.8 3-7.5-.7-1.6-2-2-3.4-3-2-4.4-9-6.5-13-8.2-4.7-3.8-10-4.5-15.7-5.7l-.2-1c3.8-1 7.4-2.7 11-4.4 5.5-3 11.5-7 14-13 1.5-4 1.6-9.5-1-13-1.8-2.3-4.7-4.4-7.7-4.5l23-7.3c2.6-1.2 5.3-3 6.6-5.5 2.6-5.3 3.3-12 4-17.7 0-3.8.2-7.7-.5-11.5-.4-1.2-.5-2.5-1.8-3L340 287l.4-.5c4.6-2.3 9.4-4.4 14-7 2.4-2 2.8-5.6 3-8.4.5-5.5-.6-10.6-1.2-16-3.2-5-7.7-2-12-4.8 3.3-2 5.7-4.7 8.4-7.4.6-2.4 1.3-5 1.4-7.6l-3.6-25.6c-1.2-4.3-5.4-5.5-9.4-6-3-.2-7-1-9.4 1.2-5.2 4.4-8.4 11.5-12.4 17-6.3.2-5.8-6-10-8-10-.4-17.6 7.8-20.8 16.6-2.4 6.7.6 14.6 3 21-.1 1.7-1 3.4-1.2 5-1.6 0-3.4.4-5-.3-3-3.5-2-9-3-13-.2-2.3-1.8-5.5-4-6.5l-9.6 1.3-9 4.8c-4 2.5-5 8.2-5.5 12.5a72 72 0 0 0 1.9 19 39 39 0 0 1-2.5 11.8c.7-4.2.1-8.6-.6-12.8-1-5-3-9.7-7.7-12-4-2.4-9.2-1.6-12.8 1.4-4.7 3.8-7.8 10-9.7 15.5-.5-5.5-3-11.3-2.8-16.8 2.3-7.7 5-16 2.5-24-1.5-5-5.3-8.4-10-10l-4.5-23.8c-.2-2.4-1.6-5.2-.1-7.4 2.8-5.4 7.2-12.4 13.3-14.4l27 2c5-1 9.2-4 12-8l8-8c3.4-2.3 7-4.2 10.5-6.5l10.2-9c2.8-3.6 5.6-7.6 7-12 1-3.3 1.3-7-1-10-2-2.7-5.7-3.6-9-3.5-3.6.3-7 0-10.5 1-4.8 1.3-8.6 4.6-13.5 5.5-5.6 1.4-11.2 4-17 4a59 59 0 0 0-20.3 5.6c-4.4 2.5-6.4 8-7.4 12.8-1.4 3-3.3 6-5 8.8-3.4 3-6.3 6.5-8.6 10.5l-.7.2-3.5-30c0-12.2 2.4-23.8 5-35.7l.4-.4a105 105 0 0 0 45.5-15.5l24.3-17.7c2-1.8 4.6-2.2 4.4-5.6-1.2-.8-2.5-1.5-4-1.2-6 .5-12 1.6-18 2l-24.7 4.6c9-10.7 15.4-23.7 20.2-36.8l.1-2.6c-1-.2-1.8-.2-2.7-.1-6 2.3-11.6 5.4-17 8.8-7.6 5-15.4 10-21.6 17 1-8 2-16 .8-23.8-.4-2.3-.7-4.4-2-6.4-.8-.3-1.7-.1-2.8.6A75 75 0 0 0 189.4 54 85 85 0 0 0 177 23.6l-1-.2c-1 .6-1.8 1.3-2.6 2l-4 12.4c-2.5 9.7-2.8 19.3-3.6 29l-9.6-12.2L132 32c-2.7-1.3-4.2.5-4 3 2.2 11.4 5.6 22.4 10 33.2.5 1.6 1.7 2.7 1.7 4.4-5.3-3.2-10.8-4.5-16.6-6.5l-23-7.5-2.4.4c-.3.8-.2 1.7.4 3l22 24-35-1.6c-2.8.8-1.6 2.7-1.2 4.8l29.7 18.5.4.8a181 181 0 0 0-22.7 7.6c-8 3-16 6.6-23.6 10.5-.6 1-1.5 2-1.3 3.2l2 1 44 1.4c15.5-1 32-4 46-11h.7c5.6 7.5 11 15.2 16.3 23 .7 1 1.4 2 1.8 3l4 16.8a104 104 0 0 1-16.3-7.4c-4.3-2.7-9.4-5.2-14.6-5.3-2.7-.2-5.3-.5-8-.6l-26.6 2c-.7.2-1.2.7-1.7 1.5 0 .8.3 1.6 1 2.3l9.7 10.3c5 4 11 7.3 17.6 8.2l29 2.2c4.6-.2 10.3 2.4 13.7 5.3l11 53.7c-1 2.4-2.7 4.4-4 6.8l-.6.1-17-16a88 88 0 0 1-20.7-4.3L141 214l-10-1.3-9 3.4c-4.2 1.5-6.6 6.7-6.2 11 .7 4.8 2.6 10 1.8 15-.6 3-3 3.7-4.6 6.2-2.4 3.4-3 8-.8 11.6 2.6 4.4 7.2 6.5 10.5 10.6 2.3 2.7 5 7 2.8 10.4-2 2.6-6.5 2.8-9.5 3.6-2.4 1-4.7 1.8-6.7 3.2-2.5 2.8-2.5 7.6-1.7 11 1.4 4 3 9.6 6.5 12.3 7.3 5 16.2 7.7 24.4 10.6l4.3 4.6c-10.5-2.7-20-5.4-31-3-3.3.8-5.6 3.5-6.4 6.8l-19.7-20.5c-2.5-2-5.6-3-8.7-4l-15.6 1.3c-2 1.4-2.8 4.2-2.6 6.5.3 3.6 2.4 6 2.2 10h-7c-4.3-.6-7.6-2.6-12-1.7a143 143 0 0 0-23.4 5.6l-.2-1V15.3z" fill="#fff"/><path d="M176 33h.8c4.3 9 8 19 9.2 29a40 40 0 0 0-1.8 13.2c-1.7 7-1 13.8-1 20.8-.3 1.5-.5 2.8-1.8 3.8-1-6-3.7-11.6-6.2-17-1.2-3-3.6-5.8-4-9a107 107 0 0 1 4.8-40.9z" class="C"/><path d="M207.7 38.2l-1 20.8a76 76 0 0 1-18.9 39.7l-.7.3-1-10h-.8l-2 7c.1-7-.7-13.8 1-20.8-.1 3.6.5 7 1 10.4l.5.1a69 69 0 0 1 21.9-47.6zm-73.5 2A151 151 0 0 1 162 70a99 99 0 0 1 15.6 35.7l-1.5-.3a78 78 0 0 1-25.7-24.8c-8.3-12.3-13-26-16.2-40.3zM244 43.7h1a131 131 0 0 1-22.5 35 96 96 0 0 0-23.6 13.8 92 92 0 0 0 10.2-21.2 135 135 0 0 1 34.7-27.7z" class="B"/><path d="M107 66h1a169 169 0 0 1 33.7 13.3c1 .6 2.2 1 3 2a80 80 0 0 0 11.9 15.5L152 95c-8-3.5-16-5.5-24.4-7.6a132 132 0 0 1-20.3-20.6l-.3-1zm161 8v1l-27 18.2a94 94 0 0 1-36 10.8c-2.8-.7-5.6-.7-8.5-1-.2-.8.3-1.5 1.3-2.2A100 100 0 0 1 234 80a125 125 0 0 1 34.1-6.1z" class="C"/><path d="M92 89.3c24.8 0 50 4.4 71.5 17 1 .7 2.3.5 2 2-4.4.6-7.2 4.2-11.7 4-6.3.3-12.7-.5-18.8-2-15.6-3.7-30.6-11.3-43-21.2z" class="B"/><path d="M189.3 108.3c3-1.2 5.8-.8 9-.3l.5.8a267 267 0 0 0-4.7 34.1 207 207 0 0 0 2.5 26.9l9.7 55.2-.2 1c-2.7 1.2-4.6 2.5-6.7 4.7l-16-80.5c-.8-3-1.4-6.7-3.3-9.2L164 119c-.5-1-1.6-1.8-1.7-2.8 4.5-2.5 9.6-3.7 14.7-3 2.4.3 4.5.8 6.8-.4 1.7-1.8 3-3.6 5.5-4.6z" class="D"/><path d="M122 111.6a84 84 0 0 0 30.8 5.8c-7.4 4-15.8 6-24 8a184 184 0 0 1-50.7 2.2c1.2-1.2 2.6-1.6 4-2.2l32.3-12c2.4-.7 5-1.8 7.5-1.8z" class="C"/><path d="M287 132c1.8.2 4 .8 4 3 .1 4.2-3.2 8.5-5.4 11.8-1.5 2.6-4.5 4.3-6.7 6.3-5 4.7-11.6 7.7-16.6 12.3l-15.4 13-13-2c-4 0-7.8-.2-11.7.1 7-7 15-13 23.7-17.5 6.5-3.4 13.5-4.5 20-8l14.6-8.5c1-.7 1-2.2 1-3.2l-2.6-.3c-3.2 1.7-6.2 4-9.5 5.5-6 3.5-12.6 5.5-19 8-13.3 5.4-23.8 14.2-34 24a33 33 0 0 0-11.3 12.3c-.4-2.2-1-4.2.3-6.4 2.5-5 5.4-10.7 9.7-14.3 7.2-4.6 6-15.8 13-21a55 55 0 0 1 20.8-4.8l16.5-4.8c3-.8 5.5-2.7 8.7-3.2 4.2-.8 8.6-2.5 12.8-2.4zm-165 24l32 1.2c3.6.7 6.4 2.6 9.5 4.3l18.2 8.8c1 1 1 2.8 1.3 4-1.7.1-3.2-1.3-4.8-1.7-3-1.2-6-1-9.2-1.3l-26.5-2c-7.8-1.2-15-6.8-20.4-12.5v-1zm218 52.6c2.2.3 6 .4 6 3.4l2 23c.2 3.8-2 6-4 9-2 2-4.5 4-4.7 7.2-.2 2 1 3.4 2.7 4.2 2.8 1.4 7.2.4 9.7 2.2.4 4 1.8 7 .6 10.7-.7 2.4-.7 5.3-1.8 7.4-5 3.4-11 4-15.3 8.7-1.6 1.8-2.2 5.2.2 6.7 4.5 2.7 10.6 2.6 15.5 4.4 1 5 .2 9.7.1 14.8.1 3.2-1.3 5.6-2.2 8.5-.8 1.8-.7 3.7-2.7 4.4-8.6 4-17.8 6.5-26.7 9.3-2.6.6-5.3 1.7-8 1.6 4-4.8 7-10 7.2-16.5.6-.4 1.3-.6 2-.7l20-3c1.3-.4 4-3 1.4-3.7l-17 2c4.7-3.7 11-6.6 16.5-9.2 1.4-1.7-.5-4-2.5-3.4-7.4 3-14.5 7.4-21.2 11.6l-.6.1a16 16 0 0 0-10.2-8.1 26 26 0 0 0-14 1.7l10.3-15c7.7-.3 15-2 22.6-3.4 1.5-.7 1-2.6.6-3.8l-.7-.2c-6.5.3-13.2 3.2-19.7 2.8l7-12.6c2.6-1.3 6.8-.6 9.7-1l23-4.3c1.8-1.2 0-4.2-2-3.8-9.5 1.4-18.7 4-28.2 5-.5-1.7 2-3.3 2.3-5 .6-2.5 2-4.6 3-7l16.7-35.3c1.2-2-1.5-4-3-2.3l-18.2 39c-4-9-5.8-18.2-7.6-27.7-1.3-.8-2.5-.8-3.5.1-.4 1.6 0 3 .2 4.6 1.6 9.8 5 18.8 8.2 28-.5 2-1.6 4.2-3 5.6a60 60 0 0 1-6.6 11.6l-.7-.4c-2-4-3-8.4-4.6-12.5-1-1.4-3.7-1.2-3.4 1a100 100 0 0 0 5.9 16.8c-3 4.6-6.5 10.8-10.2 14.8-2.5-3-4.4-6.8-6.7-10 .2-2.7 0-5-.5-7.7.8-2.4.1-4.4-2-5.8-1.2-1-3-.1-4-1-2.8-6.2-3.6-13.8-5.5-20.4-.7-1-3-3.3-3.5-.8.3 8 3 15.4 5.6 23-3.2 2-7 4.2-9.3 7.3-2 1-4 3-6 3.8 1.2-4.7 2.4-9.2 2.4-14l-2.2-12.5a18 18 0 0 1 2.2-13c3.3-4.5 9.2-6.7 14.7-6.4l2.5 14.2c1.3 3.5 3.6 5.6 7.4 5.5 4 .8 7.8-1.4 10-4.6 3.4-8.6-5.3-17.5-2.8-26.8 1.6-3.5 5.4-6.2 8.2-8.8 1.5-1.5 3.4-2.2 5.5-2.5 1.4 1.2 2 3.3 3.6 4.5 3 3.3 8 4 12 2 4.3-4.2 7.3-11 10.3-16 1.3-2.7 4.5-1.3 7-1.5zM133 218c6.5-.8 12.2 5.5 17.2 9 6.4 5 14.5 3.7 22 5l8.4 7.7c2.4 3.7 6 8 10.4 9 2.8.5 5.6-2.4 7-4.6 2.3-3.8 4-8 6.4-11.6l6.3.1c4.2 1.5 6.8 5.2 7 9.6.6 7.4-2.8 13-4 20-1 5.4 1.2 9.4 2 14.8-1.7-.6-3-2-4.8-2.6-2.6-1.2-5-1-8-1.2 0-1.4.5-2.7 1-4l6.8-24c-.5-2-3.2-2.3-4.2-.5l-9.2 30.8c-3.6 3.4-5 7.2-6.2 11.8l-.8-.2c-3.6-4-8-7.5-13.2-8.6-2.2-.2-2.8-2-4.2-3.2l-.1-1a149 149 0 0 0 7.6-24.1c.2-1-2-3-3.2-2.8l-5.6 17.5h-1l-4-27.3c-1.5-.8-2.3-.3-3.3 1a404 404 0 0 1 3.6 29.8c-1.2-.7-2-2-3-3-10.5-12-19-25.6-29-38.2l-1-.5c-1 .2-1.8.7-2.5 1.5l.1 1 23 31.4c1 1.5 3 3 3.4 4.7-9.5-2-17.5-6.8-25-12.6-1.3.2-2.2 1-2.6 2.6 2.6 2.8 6.2 5 9 7.4 7 3.8 14.8 6.2 22.6 7.3 3.3 2.6 5.4 6.5 8.7 9.3-.4 1.2-2 1.8-2.7 3-1.2 1.4-.7 3.6-1.8 4.8l-11-1.5-15-3.4c-1.3-.1-2.3 1.5-1.8 2.7.4 1.5 2.6 1.6 4 2 6 1 11.7 3 17.8 3.4 2 .4 4.8.1 6.7 1 .6 7.7 3.4 14.3 6 21.4a106 106 0 0 0-15.9-11.4c-5.8-3.3-12-6.4-19-5.6-4.2.7-7.6 4-7.8 8.4-.2 3.4 1.2 6 2.6 9-5.7-1.3-11.5-4-16.4-7.3-3.4-3.2-4-10-3-14.3 3.2-1.2 6.4-2.3 9.6-3.4 3.8-1.4 7.5-4 8.6-8 1-4.4-1.2-9-4.2-12.2l-9.3-10c-2.6-2.5-1.6-6 .7-8.3 5-4 4.5-11 4-16.7-.1-3-2-6.7.1-9.3 2.5-3 6.7-4.6 10.3-5.7z" class="D"/><path d="M272.3 254.8c2 6.6 2.7 14 5.5 20.4 1 1 3-.1 4 1 2 1.4 2.8 3.4 2 5.8-.8.6-1.6 2-2.7 2-1-1.7-1-3.8-3-4-2.8-.3-4.7 1.7-7 3 .5-2 2.4-3.5 3.7-5l-.4-1c-2.7-7.5-5.2-14.8-5.6-23 .5-2.5 2.8-.3 3.5.8z"/><path d="M239 264.8c2.4.2 4.4.2 6 2.2 2.4 3 3 7.4 3.5 11 .4 10.8-.7 21.5-2.8 32-.2 1.2-.7 2.4-1.2 3.5 1-5.7-3-13.4-9.5-13-2-.2-3 1-4 2.7-5.5 3.2-8 10.3-9.7 16-.8 1-1.2 2-2 3 1-16 3-33.3 10-47.8 2-3.8 5.2-8.8 9.7-9.4z" class="B"/><path d="M274.4 277l.4 1c-1.2 1.5-3.2 3-3.7 5 2.2-1.3 4-3.3 7-3 2.3.3 2.2 2.4 3 4 1 0 2-1.4 2.7-2 .5 2.6.8 5 .5 7.8l-1.2 6c-1.4 2.7-2 6.5-4.4 8.6l-.1-4.3c-2.6 2.3-3 7.8-6 9.8a64 64 0 0 0-21.5 14.5c-2 1.8-3.7 4-6 5.5 2.8-7.5 4-15.7 6-23.3 4.8-8 10.4-15.6 17.4-21.7l.4-1c-1.3-.1-2.7.1-4 .5 2.2-3 6-5.4 9.3-7.3z" class="C"/><path d="M209.6 279.4c4 2.4 7 7.2 8.6 11.6a213 213 0 0 0-4.4 35.1c-5.6-11.6-11-22.7-18.6-33.2-.8-2.6.5-6.5 1.5-9 1.8-5 8.5-6.6 13-4.4z" class="B"/><path d="M176 283c5.2.3 10 5 13 9 10.5 14.8 18.3 32.2 24.8 49 .6 1.5.6 3 .8 4.6a87 87 0 0 0-17.3-19c-4.8-4-10-7-16-8-5-9-9.6-19.3-10.3-29.8 0-3 1.6-6.3 5-6z" class="C"/><path d="M283.2 295.8c1.7 2.6 4 5.3 5 8.2-2.4 3.6-5 6.4-9.6 4.4-.2-1.3-.1-2.7.2-4 2.3-2 3-5.8 4.4-8.6z" class="D"/><path d="M136 302l12.8.6c8.6 4 16.7 9.7 24 15.7v.6c-3.5 1.3-6.8 4.2-8.2 7.7-1 2.6-.5 5-.5 7.6-3-1-5.7-2.5-8.7-3.5-3-1.5-5.5-4.7-8-7-4.3-4.8-9.4-10.3-11.5-16.5-.7-1.8-.4-3.3.1-5z" class="B"/><path d="M231 303a12 12 0 0 0-.1 4c1.3-.6 2.6-2 4-2 2 0 3 1.4 3.7 3 3.5 8.3 2.3 18 .3 26.7-2 7-3.7 14.6-6.6 21.4-.5 1.3-1.4 1.8-2.5 2.6-3.6-.7-7-1.6-10.7-1-.7-11.2.7-22.4 3.2-33.3.5-2.8 2.4-5.4 2.4-8.2-1.3.8-2.4 1.8-3.5 3 1.7-5.8 4.2-13 9.7-16z" class="C"/><path d="M299 308c4.2-1 8.6-1.2 11.8 2 2.3 2.2 2 4.8 2.4 7.8-.4 7-5.7 13.3-10.4 18-9.2 1.5-18.2 4-27 7.2h-1c1.6-3.2 3-6.3 3-10l-10 10.6c-10.7 1.5-19.6 6-29.4 10 1.3-3.6 2.5-7.2 3.4-11 .5-1.7.7-3.7 2-5a109 109 0 0 1 21.2-18.8c3.6-2.6 8.2-5.8 13-5.7 3 .3 5 1.3 5.2 4.6 1.7-.3 3.4-1.6 4.3-3l-.4-2.8c4-1.6 7.8-2.8 11.8-4z" class="B"/><path d="M64.2 311.2c3.6-.1 7.3-.4 11-.6 2.5.6 5 1.8 7.4 3l18.2 18.7c2.6 2.7 6.3 4.2 9 6.8-3 2-7 2.8-9.4 6-2 2-2 4.3-2.5 6.8-5.8-11.7-13-23.4-20.3-34.3-.7-1.8-5.5-1-4.4 1.3l14 22v1c-5.2-1.4-10-3.5-14-7.5-1.8-.2-4 .2-3.3 2.5 5.5 6.6 13 8 20.6 10.7L98 364l-1 .4-20-2.8c-1.3-.2-2.5-.3-3.6-1C62 352 55.6 341.5 47 331c-1.8.4-2.7 2.3-1.8 4 2 3 4.3 6 6.5 9-6-1.7-12-5-17.7-8-2 .3-2.7 3-.8 4 6.6 4 14 7 21.3 9.7 1.2.5 2.3 1 3 2L66 360c-3.5.3-7.3-.8-10.8-1.2l-34.8-5v-21.2c8.2-2.2 16.4-4 24.6-6 3-.1 6 1.5 9 1.2 3.3-.3 6.6-.2 10-.7 1-1.5 2-3.2 2.7-5l-1.8-7c-.5-1.3-1-2.4-.7-4z" class="D"/><path d="M185.2 324.8l12 8a94 94 0 0 1 16.6 19.4c1 2 .6 4.7 1 7-1 1-2.3 1.6-3.6 2l-27-8.2a45 45 0 0 1-12.3-12.7c-2.6-4-4.6-10.4-1-14.4 3.6-4.4 10-3.7 14.5-1z" class="B"/><path d="M378.7 325l2.7 43c-.3 2.2-1.4 4.3-2 6.5l-45.8 131-34 89c-5.5.1-11-.1-16.4.1-.5-1 .4-2.5.6-3.6l8.3-24.8c.4-1.4 1-2.6.6-4-7-14-11.7-29.3-16.7-44a47 47 0 0 0 5.9-11.1h.8l13 36.4c1 2.8 4.3 1.3 5.2-.7 11-23.4 19.8-48 28.7-72.3l48-142.3c.4-1 .6-2.3 1.3-3z" class="D"/><path d="M125 327c11.6 2 23 6 34 10 2.4 1 5.4 1.8 7.5 3.5 2 4 5.2 7 7.7 10.6l-1 .2c-9-1-17.7-1-26 3l-1-.1c-9.7-3.6-19.7-8-28-14.3-2.8-2.4-6.3-4-7.4-7.6-.7-1.8 1-4 2.5-4.6 3.6-1.5 8.2-1 12-1z" class="C"/><path d="M317 340c3.5.3 8.4 1.4 10.4 4.6 1.8 3.3.3 8-2 11-4.6 5.3-11.3 8-17.6 10.5-2.2.8-4.5 2-7 2.3a68 68 0 0 0-21.2-5.3c2.5-2.7 3.8-5.7 5.4-9 .3-3.3-1.3-5.5-3.2-8l.4-.5A109 109 0 0 1 317 340zm-203 3.8c2 .7 3.8 2.4 5.7 3.4a147 147 0 0 0 20.2 9.7c1 .5 2.2.4 2.8 1.6a154 154 0 0 0-35.6 2.4c-1.5-1.3-3-2.5-4-4.2-1.7-2.7-1.7-6.5.6-8.8a18 18 0 0 1 10.2-4.1z" class="B"/><path d="M276 348.8c2.8.6 3.7 1.4 4.6 4.2-.7 3-3.6 5.7-6 7.5-8.4 5.8-19.2 8.3-29 11-1.8.6-3.4-.2-5-1-1-3.5-3-6-5.2-8.7v-.6l14.6-7.5c8-3 17.6-6.6 26.2-5z" class="C"/><path d="M198 361.2c3.2 1.2 6.8 2 9.8 3.6a13 13 0 0 0-2.9 7.1l-15 8a73 73 0 0 1-21.8-1.1c-6-.7-12.4-2-17.4-5.3-3.2-2.2-5.7-6.4-4.6-10.4 1.3-4 5-5.5 9-6.2 14.4-2.6 29.2.5 43 4.3z" class="B"/><path d="M20.3 358.2c1.8-.4 4 .1 5.7.3 7.6 1.2 15.3 2 23 3 3 .4 6 1 9 1-3.5 1.8-7.5 2.7-11.3 4l-26.2 5.3v-13.6z" class="D"/><path d="M141 362.6c.8 3 .1 6.3 2 9.3 3 5.5 8.6 7.3 14 9.8l-55.8-3c-2-.8-6-2.3-6-4.7.4-3.4 4.4-5.4 7.3-6.5 12-4.4 26-5 38.7-4.8zm88.8 1.8c5.2 1.7 6.5 9 3.5 13-4.8 4.6-14 6-19.3 1.6-1.7-1-3-2-3.7-4-2-4.5 1.6-9.3 5.8-10.8 4.3-1.4 9.5-1 13.8.4z" class="B"/><path d="M65 364l25.8 3.5c-1.6 1.8-4.5 2.4-6.6 3.7-9.2 4-18.2 9-28 11-1 .2-1.7.8-2.3 2 0 1.2 2 3 3.3 2.7 10-2.7 19.7-7.4 29-11.8 1.4-.6 3-2 4.5-1.8.1 2.3.6 4.3 2.3 6 .6 1 2.2 1.6 2.2 2.8l-25.4 19.6c-2.3 2.2 2 3.7 3.4 2.5 5.2-3.3 10-8 15-11 .1 5.5-2.8 11.6-6 16-1 1.6-5.3 3.8-3.2 5.8l3.2.6c5.3-5.6 8.6-14 10.2-21.3.6-2 .8-4.2 1.8-6a32 32 0 0 1 5-4.2c3.3.7 6.4 2 9.7 2.6-.1.6-.4 1-.8 1.5-3.5 3.3-6.2 7.2-6.3 12-.1 3 .8 5.4 1.8 8-3 4-8 6.8-12.2 9.3-5.4 3.5-12 5.6-18.3 7-3-.2-6-.8-9.2-1.2-2.4-1-4.7-2-7-3.2l-.2-.8 6-12c.4-4.8-5-8.6-8-11.7-2.4-2.5-5.4-2.6-8.6-2.4-8.8-.7-17-5.7-25.3-8.7-.8-2-.2-5-.3-7 .3-.5 1-.8 1.8-.8 15-1.8 29-7 43-12.4z" class="D"/><path d="M272 368.7l18 1.2c4 1 8.7 2.2 12 5 2.4 2 3.2 5.7 1.3 8.4-2.2 3-6.8 4-10.3 4.5a66 66 0 0 1-17 .2c-7.5-5.2-15.4-9.7-23.7-13.4a70 70 0 0 0 13.5-4c2-.7 4-2 6.2-2zm-32 6.8c8 1.8 16 5.3 23.2 9.4a54 54 0 0 1 16.7 13.3c1.6 2.2 3.2 5 2.5 8-1 2.8-3.3 5-6.4 5.5-7.2 1-12.6-2.3-18.5-6-10.2-5-18.2-12.6-26-20.8l.3-.7c3.7-1.8 6.7-4.8 8.2-8.7z" class="B"/><path d="M205 377h1a20 20 0 0 0 7.8 7.3v.5l-16.6 15.4c-4 3-9.3 5.8-14 7.3-3.3 1.2-7.2.1-10.7 0l-.8-2.3c-1 .1-1.8 1.4-2.5 2 0-2-.3-3.6.7-5.3.5 1 1 1.7 2 2.2.8-4.4 5-8.2 8.2-11 7.5-6.4 16-12.3 25.2-16z" class="C"/><path d="M309.2 377.2l17 5c-.2-1.7-2-3-3-4.3 4.2 1.7 11 3.8 13 8.2l-5-.8c1 1.5 3.4 1.7 3.8 3.7.8 3-1.4 5-4 6-5.2 1.7-10.5 2.6-16 2-4.3-2-8.4-5-13-6.5 2-1.6 4.3-2.5 5.6-5 1.7-2.7 1.4-5.4 1.5-8.4zm-127.4 8c-5.3 4.7-11.4 8.6-12 16.5-1 1.7-.7 3.4-.7 5.3-.4.6-.7 1.2-1 2 .7 2.6 3.7 3.3 4.8 5l-14 6.2-.1.6a61 61 0 0 0 2.7.7c-2.7 2.5-7.8 3.2-11.5 3.4l-3.3-.2c2.4-1.3 5.6-2.2 7.8-4.3-2.7.8-6 2-8.8.8-3-1.4-3.6-5.6-2.3-8.4 2.5-5.5 7-8 11.4-11.7a142 142 0 0 1 26.7-15.9zm37.4.8c2 .5 5.4-.5 7 .3a81 81 0 0 1-.3 23.6l-4 15c1.3-.4 2.5-1 3.7-2-.3 4-3 8.3-5.6 11.3-.5-1.7.2-3.5-.3-5.3-1.3 1.6-1 4-3.8 3.8-4.4 0-5.5-4.8-6.4-8.2-1.7-9.5.8-20.3 3.2-29.5.6-4 3.8-5.6 6.4-9z" class="B"/><path d="M381.3 386.2h.6v.8 207 .8c-25.3 0-51-.2-76.3.1l-.3-.6 32-80c7-21.4 14.5-42.7 21.7-64l20.5-58.3c.6-2 1.4-3.7 1.7-5.6z" fill="#fff"/><path d="M115.4 388.4c1.3-1 3-.4 4.7-.4a267 267 0 0 0 36 .3l-.5.5L133 400c-3.6 2-6.6 4.7-9 8-2 1-3.6 2.2-5.4 3.3-3-.5-6-1.2-8.5-3.2-2.4-2-4.4-4.7-3.8-8 .3-5 5.2-9 9.2-11.6z" class="B"/><path d="M18.6 389.2c5 2.5 10 4.8 15 7 5 3 11.6 1.2 17 3L57 406c-1.8 4.7-5.7 9-6 14 1 2.3 2.2 5.3 4.7 6.4 6 3.8 11.7 2.8 18.4 3.5l20.4-8.5c4.6-2.5 9.2-5.6 12.7-9.5a28 28 0 0 0 7.1 3.1c-1 1.3-2.4 2.4-3 4-2.3 2.6-4.4 5-3 8.8 1 3 3.6 3.7 6.6 3.2 3.5 1 7.6.3 11-.1 6 1 10.7-1 16-3-3.6 5.7-7.7 11-8.3 18-.3 4 1.3 7.5 4 10-3 5.5-2.6 11.6-.4 17.4 2 4.8 1.4 9.5 1.2 14.5 0 3.3 1.2 6.6 4.4 8 4.2.2 8.5.7 12.7.6-3.8 3.4-7.7 6.4-10.4 10.8-2.2 3.5-4 8.6-2.5 12.6.8 3 1.5 7 4.2 9 2.5 2 5.5-.1 7 3l4.7 20c1.5 4.4 4.8 5.4 8 8.3 2.6 1 5.8 3 8.5 1.6 3.4-1.4 6-5 8.7-7.4 2.8-2.3 3.4-5.3 7.3-6.2 4 1.2 7.8 2 12 2 2.2-1.2 4.6-2.2 6.8-3.5 6.6-8.2 12.4-18.4 14-29 .1-4.7-.1-9.3.7-14-.1-.7.3-1 1-1 3.3 5.3 5 12.7 10.3 16 7.6 3.6 15.4 7.6 24 7.5 4.3.1 8-1.7 11.2-4.4l15.3 41v1l-10 30.3-.5.5c-85.7 0-171.8.1-257.5 0V394c.1-1.6-.2-3.2.2-4.8z" fill="#fff"/><path d="M159.8 392.2a92 92 0 0 0-16.1 13.5c-4.3 5-7 11.3-3.3 17.4l-.4.7c-5.7 2-11.8 4.2-17.8 4.6-.1 1.8 2.6 2 4 2.6-3.5.4-7.6 1.2-11 .1 1.8-.8 3.6-1 5-2.6-3 .5-7.4.6-7.6-3.5.3-4.7 4.7-7.8 7.6-10.8-3 1.2-5.8 3.2-8.6 5 .7-1.6 2-2.7 3-4l4.3-4c1.8-1 3.5-2.3 5.4-3.3-.6 1.6-2.2 3.4-2.4 5 1.8-.7 3.3-2.3 5-3.4 9.2-6.5 19.5-11.6 29.7-16 1.2-.4 2.4-1 3.6-1.2z" class="C"/><path d="M231 392l.7.3a149 149 0 0 0 25.8 19.2c2 3.6 3.8 8.4 4.3 12.5.4 3.8-1 7.6-5 8.8-4 1.4-8.4-2-11.2-4.4-6.8-6-10.5-13.5-14.6-21.4.2-5 .4-10 0-15z" class="B"/><path d="M282 393c3-.3 6 .1 9-.2 1.7-.1 3.4-.7 5 .1 7.7 3.2 15.3 7 22 12.2l1 .1.3-2.7c4 2.4 10 8.8 7.7 13.8l-2.2-.8c-.5 1.6-.5 3.2-2 4.4-3 2.5-7.3 2.2-11 2.2-10-.6-20-4-29-8.2 4-3.5 5-9 3-14-1-2.6-3-4.5-4.3-6.8z" class="C"/><path d="M202 402c-3.5 16.4-9 31.6-8.8 49 1 4.5-5.3 8-6 11.8a26 26 0 0 0 4.4-1.5c-1.7 2-3 4-4.6 6-1 .5-1.7 1-2.5 2-1.5 2-4.2 3-6.5 4 1-1.7 2.8-4.5 2.5-6.4-1.6 2.7-4.4 4.6-7.2 2-3.2-4.3-1-9-.5-13.7a172 172 0 0 1 21.5-46.4c1.6-3 5-4 7.6-6.4zm2.4 8c.7 1-.2 2.8-.1 4a31 31 0 0 0 4.7 21c2 2 5.8 4 8.5 2.5 1.4-.6 1.2-2.3 2.5-2.8l.3 1a107 107 0 0 1-7.2 24.6c-1.4 2.6-3.3 6-6.2 7.3-3 .7-5.5-1.3-6.7-3.8-2.3-4.6-2.2-10.7-2.2-15.7-.2-13.3 3.2-25.2 6.3-38z" class="B"/><path d="M186 412c-.3 1.2-1 2.3-1.5 3.3l-10 19c-.5 1.2-1 2.2-2 3a104 104 0 0 1-20.5 14.6c-2.8 1.3-6 2.5-9 2-1.6-.4-2.8-1-3.2-3-.6-1.8-2-4-1.4-6 2.4-8 7.2-13.8 12-20.3 3.6-.3 8.8-1 11.5-3.4 6.8 1.3 11.2-2.8 17-5.6 2.3-1 4.7-3.3 7-3.7z" class="C"/><path d="M119.8 414.2c-3 3-7.3 6-7.6 10.8.3 4 4.6 4 7.6 3.5-1.4 1.5-3 1.8-5 2.6-3 .5-5.6-.1-6.6-3.2-1.5-3.7.6-6.2 3-8.8 2.8-1.6 5.6-3.6 8.6-5z"/><path d="M264.8 414.8c4 .8 7.8 2 12 1.5 4.7 4.7 8.8 10 12.6 15.5 1 3 1.8 6.2 2.7 9.3-.6 2.2-2.3 5.2-5 5-3.6.1-7.3-2-10.2-4-4-3-8.7-5.8-12.4-9.2 4.4-6 2.3-12 .4-18.2z" class="B"/><path d="M229.7 416.5c.7-.3 1-.1 1.2.6 3.8 6.5 8.6 13 14.7 17.4 2 4.8 1.8 11.4 2.4 16.6 1.3 0 2-2 2.8-3-.3 4 .7 9.8-1.6 13.4l-1.6-7.2c-.4 3.3.1 6.4-2 9.4-1.3 2-4.5 2-6.5 1.3-2.7-1.4-4.6-4.4-6-7l-7.3-18c-.3-1.3-1-2.7-.8-4l1.8-14c1-1.8 2.2-3.5 2.8-5.6z" class="C"/><path d="M253.3 437.5c2 .3 3.7-.2 5.6-.4l4 11.8c-3-4-5.5-8-9.5-11.3zm-1.3 7l1 .2a66 66 0 0 1 10.6 16.6c2.6 6.4 1.6 12.2 3 19 1 4.2 4 8 7 11 1.7 1.7 3.8 3.2 4 5.8 1.4 5.5-1.7 11.7-5 16-3 3.6-6 7.8-11.4 7.8-7.3.3-15.2-3.4-21.8-6.4-6.2-4-5-12.3-10.5-16.4-2.5-2.2-7.2.2-9.2 2-3 5.4-.8 13.5-2 19.5a48 48 0 0 1-12.2 22.4c-1 1-2.8 2.5-4.4 2.5l-11-1.6c-1.6 0-3 .5-4.3 1.4-4.8 3.3-7.7 9.4-12.7 12.4-2.5-.8-6-3.2-8-5-1.8-3-1.5-7.3-2.3-10.6L160 532c-1-4-4.3-7.5-8.7-7.5-2 0-2-2.6-2.4-4-1.5-6 2.3-12.2 6.6-16.3l9-6c1.6-1.2 3-4 .8-5.4-4.5-3-9-1.6-14-1.8-3-.3-5.6 1-7.3-2 .5-3.3 1-6.7 1.2-10-.2-5.7-5-10-3.7-16 .5-1.3.5-3.6 1.8-4.4 8 1 14.6-3.5 21-7.7 2-1.2 3.8-3.5 6-4a65 65 0 0 0-3 17.9c-5 2.2-10.2 3.6-15 6-2 1.3-2 3.5.1 4.8 4.8-2.5 10-4.3 15-6.5h1c2.3 3.2 6 7.7 10 4 2.2-1 5-2 6.5-4 .7-1 1.4-1.5 2.5-2-4.5 5.7-8.2 11.4-14.4 15.4-1 .7-2.3 1.2-2.3 2.5-.5 1.8 1.4 3.5 3 2.2 8.8-5.6 15.5-15.3 21-24l.6-.1c1 3.6 2.5 5.4 5.2 8-1.2 4.3-3 8.8-5.7 12.3l-5 7c-2 2.7-2.8 6.4-5 9-9.2 3.4-17.7 6-25 13-1.6 2-4 3.7-2.5 6.4 1.4-.1 2.6-.1 3.5-1.4 5.2-6 13.2-10.4 21.2-12.4v1c-4.3 11.4-7.2 23-9.6 34.8-.2 1-1 2.8-.1 3.7 1.2 1 3.2-.4 4-1.4 2.5-13.4 5.7-27.2 11.2-39.7 1.4-2 1.8-4.2 2.8-6.4a60 60 0 0 1 6.3 15.9 43 43 0 0 0-5.2 14c-.5 2.3-1 4.5-.8 7 .5 2 2.7 2 4 .6.5-5.2 1-12 4-16.4 1 4.6 2.2 9 2.8 13.7 0 1.8 1.3 2 2.8 2.7.7-.6 1.2-1.5 1.5-2.6-.8-7-3.4-13.8-5-20.6-2.6-6-4.7-12.4-7.4-18.4 1.7-4.2 6-7.7 7.7-12 1.4-2.7 2-6 3.3-8.6 2 0 4 0 6-1.2 1.5-.8 2.6-2.4 4-3a140 140 0 0 1-2.7 33.1c1 3 3 1.3 4.3-.3a281 281 0 0 0 2.8-39.6c1-4.7 3.3-9 4-14 .4.4.7.8 1 1.2 2 6 4.8 13 9.4 17.7 1 1.2 2.8 2 3.5 3.3a124 124 0 0 0 3.3 28c.4 1.3.7 2.5 2.3 2.5 1-.2 1.7-2.2 1.8-3a132 132 0 0 1-3.3-26l.4-1 1 .3 19.7 39.2c.7 1.5 1.8 1.6 3.3 1.2 1.2-1.5 1-3 .1-4.6l-19-36 .1-.6c2.5-2.2 2.7-4.8 2.8-8 2.3-3.6 1.3-9.3 1.6-13.4a14 14 0 0 1 1.3-3.4z" class="D"/></svg>