<svg xmlns="http://www.w3.org/2000/svg" viewBox="0 0 400 610" width="533.3" height="813.3" xmlns:v="https://vecta.io/nano"><style><![CDATA[.B{fill:#333}.C{fill:#ffe000}.D{fill:#d96038}.E{fill:#858585}]]></style><path d="M0 0h400v610H0V0z"/><path d="M18.5 15.4c3.5-.3 7-.1 10.5-.1h353v579.5H18.4V26l.1-10.6z" fill="#fff"/><path d="M220.6 33.4c.6 2 .1 4.6 0 6.8-2.7.7-4.6 1-7.4.1-.7-1.7-1.5-3.4-1.8-5 .3-4.3 7.4-5.5 9.3-1.8zm101-1.8c1.7-.7 4-.6 5.6.4 1.6 1.2 2 3.7 1.4 5.5-.6 3-5 3.7-7 2-2-2-3-6.5.1-8zm31 0c2-.5 4.7-.7 6.3.7 1.8 2 .4 4.8-.1 7-2 .4-4.5 1.4-6.5.5-3.2-1.3-3-7.3.3-8.3zm-274.2-1c2.7 2 5.4 3.3 5 7.2-1 5-9.4 4-9.7-1 .4-2.5 3.2-4.6 4.8-6.3zm171.3 3c3.5-1.2 7.5 0 7.2 4.3.3 4-4.5 5.5-7.3 3.7-2-2-3-6.5.1-8z" class="B"/><path d="M166.6 36.8l1.8 2a124 124 0 0 1-4.6 30.7 149 149 0 0 1 36.9-18.6l3.6 2a84 84 0 0 1-14.7 21.5c5.7-1 11.3-1.5 17-2.3 4.5-.6 8.7-1.5 13.3-.7l-.6 3.3L198 92c-12 7.3-25.7 12.4-40 12.3.5 1.6 1 3 1.2 4.7.5 14 .7 29.5 6.6 42.3 4 11.4 8 23 10.8 34.8l1.7-20.5 1.4-49.5c.1-1.3-.2-3.5.8-4.5 1.7-1 3.6-1 5.5-1l65.4 3.7c-.5-5.7-.2-11.3-1-17-.8-5-1-9.7.6-14.5 1-3 3.6-5.7 5.6-8.4 2.3-3 4.6-6.6 7.8-8.6 2.6-.1 5.8 1.5 7.5 3.5l9 9.4c4-.7 8-1.5 11.8-3.2 2-5 4-11.4 9-14.2 2.8-1.7 5.6-1.3 8.5 0 4.2 2 8.5 2 13 2.8L346.2 51c3.8-2 7.5 1.5 9.6 4.4 5 7 5.3 17.5 4 25.7-.7 4.8-3.8 7.4-6.6 11-2 3-4.6 5.5-6.7 8.4-1.8 2.3-1.7 6.5.7 8.5 2.6 2 6.8 1 9.5 2.5 2.5 2.2 2.8 5.7 1.6 8.6-1 4.7-3.4 8.8-7.2 11.8-7.5 4-15 6.5-21 12.8 3.7.2 7.5 0 11 .6 1.7.3 3.3 1 4.3 2.5 3 4.5 5.2 10 5 15.5 0 3-1.6 5.5-4 7.3-7.4 6-15.8 12-25 15-6.3 2.5-14.2-1.7-20-4-2 36-6.2 71.7-12.7 107 2.6.4 6.2 1.8 8.3-.2 2.8-2.2 5.4-5 7-8 1.8-3.3 1.5-7.2 2-11l4-19.8c1.2-4.6 4.3-8.2 8-11 3.2-2.2 6.8-5.2 10.7-5.4 2.7-.1 4.7 1.8 6.4 3.6 7.2 7.7 10.6 19.2 15.4 28.6 2 5.6 7 11.8 7 17.8-1.6 8.8-5 17.6-2 26.6l22.8.1c.4 1.8 1 3.5.6 5.3l-3.4 30.8c-.4 4-.6 7.6-2 11.3l-45.6 20.7c-.8 8.4-4.3 15.7-8.8 22.7 7-3 14-5.2 21.7-5 3.5.3 7 1.3 8.6 4.7 1.4 3 2.8 6.7 1.6 10-1.5 4.8-6 8.2-9.5 11.5 4.6.7 10.4 1.3 14 4.4 4 3 5 9 3 13.4-1.3 2.7-3.4 4.7-6 6.3-4.4 2.8-9 5-14 6.6a67 67 0 0 1-2.3 7.7c6.8 3 14.4 6 18.8 12.5 3.3 4.4 1 11.6-3.8 14-5.6 3-13.2 2.7-19.3 1.7 2 3.3 3.2 7 4 10.6.7 3.4-1 6.8-4 8.3-5.6 3-11.3 2.3-17.2 1A34 34 0 0 1 320 526c-.2 2.3-1 4.7-2.7 6.3-2.2 1.8-5.5 2-8.2 1.6a30 30 0 0 1-11.9-6c-.6 3.4-.8 6.5-3 9.3-2.4 3-6.6 3.8-10.2 3.7-3.5-.2-6-2-9-4-.3 6-1 13-3.5 18.6-1.3 2.7-3.5 6-6.7 6.5-4.5.6-9-2-11.3-5.7a54 54 0 0 1-6.7-17.3c-.4 6.5-1.8 13-5 18.8-1.6 3-3.7 5.2-7 6.2-6 2-13.4 4.2-19.6 2-5.8-2.2-12.2-7.4-18.5-8-5.6-.4-8.6 4.2-11.4 8.2-2.3 3-4.3 7.4-8.6 7.6-11-.2-23-4.2-34-2.7l-22 1.4c-3.5-.2-8-.5-10.5-3.3-4-3.6-8.2-8.7-7.2-14.5 1.8-6.8 7.2-13 11.2-18.8a76 76 0 0 0-6.8-9.6c-5.4-.1-11 .3-16.2-.2-2.8-1.3-4.6-4.7-6.2-7.3L59 517c-4.5-.4-8.6 0-12.5-2.7.5-2 .7-4 2.3-5.4 39.6-42.3 68-94 88-148.2-10 2.4-19.8 6-29.6 9.2-1.7.5-3.2 1-5 1l-13-2c-5.2-.6-10.4-2.2-14.7-5.3-2.5-1.7-4-4.4-5.8-6.8 4.5-9 13.7-16 20.7-23 2-2.2 2.4-5 2.5-7.7l-19.6 3a43 43 0 0 1-10.2-1.2c-2.6-1-5-3-7.4-4.6-2.6-2-4.5-5-3.3-8.2 2-7.2 7-12 13-16l10.4.7c2.2-4 2.4-8 1.7-12.4-5.3-3.3-12-5.6-15.5-11-3.3-4.7-5.6-10.2-7.4-15.7-1.3-4-2.3-8-1.7-12.4 1-6.4 1-13-.1-19.4-.5-3.8-.1-7.8 3-10.6 2-1.8 5.2-1.4 7.6-1a98 98 0 0 1 18.3 5.4c3 1.2 6.2 1.5 8.5 3.5C93.5 230 96 235 99 240c1.3 1.8 2.2 3.7 4.4 4.5 3 1.4 6 1.2 9.4 1.3 1.6-3.2 3.2-6.2 4.2-9.7 1-3.5 2.5-8 5.4-10.5 4.5-2.5 10-1 13.6 2.5 5.2 4.8 10 11 11.7 18 2 9-.2 18.7.7 27.5 4.7-.4 9.2-1.6 13.7-2.7l7-35.5c.4-2.7 1-5.6.6-8.2l-10-37.8C156 177.7 152 165.6 146 155c-3-5.5-7.4-9-11.7-13.2-5.3-5.4-11.3-10.3-16-16.2L107 134a69 69 0 0 0-19.3 30.6l-3 1.3c-4.7-5-5.3-13.5-5.5-20a31 31 0 0 1 9.9-22.7 117 117 0 0 1-39.6-5.7l-7.4-3-.4-3.4c8.4-3.6 17-6.8 25.6-9.3-7-4.6-14.4-9.8-20-16.2l2.3-2.6c10.4.6 21 .8 31.3 1.6-3.5-5-7-10.8-8-17l1-.8c7.2.8 14.2 2.8 21 5.4-1.8-7-3-14.4-2.8-21.7.1-2 2-2.6 3.7-1.6 4.8 3.4 9.3 7.4 14 11 3.7 2.6 6.6 6.2 9 10a50 50 0 0 1 4.1-15.8c2-4.4 4-8.6 7.4-12 6.2 5.6 8.2 15.6 9.8 23.4 5.4-8.3 10.8-16.3 18-23 2.5-2.2 5.3-5.7 8.7-6z"/><path d="M288.4 37.3c5.2-2 7 6.6 3.4 8.7-2.5 1-7 .3-7.3-3-.5-2.4 2-4.6 4-5.7zm-237 2c2-1 4.6-1 6.3.2 1.4 1.5 1.4 4.3.8 6.2-1 2.3-4 2.4-6 2-3.5-.8-3.8-6.4-1.2-8.3zM234 43c3 0 3.8 2.8 5 5l-1.6 4.5c-2 0-5.6 1-7-1-1.6-3-1-8.5 3.5-8.5zm73.4.4c2.6-1.8 8.4-1.3 8.7 2.7.7 4-3 6.3-6.6 5.5-3.5-.6-4-5.8-2-8zm-46 1c4.5-2.7 9 3.8 6.4 7.4-1.7 1.6-6 1.6-7.6 0-1.3-2-1-6 1.2-7.4z" class="B"/><path d="M163 44.4c-.7 9.2-2 18.8-5.2 27.5-1 3-4 4.7-6.2 6.8-7 5.5-12.6 12-17.6 19.3l3-15c4.8-15.2 14.6-28 26-38.6z" class="D"/><path d="M130 50.2c2.7 6.3 5.2 13 6.2 20 .4 2.4-1.2 5-2 7.2a67 67 0 0 0-4.7 25.7L125 93c-1.5-4.2-2-8.5-2.7-13-.4 4.2-.7 8.3-1 12.5l-.3-2-1.2-8.6-.2-8 1.7 3c1-8.6 3.3-17 7.3-24.6l1.3-2.5z" class="C"/><path d="M96.3 54.8c4.8 3 9.2 6.6 12.8 11a74 74 0 0 1 10.8 16.3l1.2 8.6a87 87 0 0 0-15.5-12.4c-2-1.4-5-2.6-5.8-5a58 58 0 0 1-3.5-18.5z" class="D"/><path d="M348 55.5c5 3.5 6.3 8.8 7 14.4.4 4 0 8.4-2 12-3.4 5.5-7.7 10.5-11.2 16a12 12 0 0 0 .5 13.7c2.8 3 7.3 3 11 3.6l-1 8.6a30 30 0 0 1-5.6 4c-6 3-13.2 6-18.4 10.6-2.5 2-5 6-4 9.3 4.4 3.2 11.7 2 17 3l4 8.4c.6 2.2 1 4.4-1 6-5 4.3-10.6 8.3-16.3 11.7-3.6 2-8.3 4.6-12.6 4-4.6-.7-9-2.4-13.5-3.8l.5-16.3c10.3.3 20.6 1 30.8 1l-.8-3c-1.8-.8-4-.8-6-1l-23.8-1.3v-20.5c12-3 23-7.6 34.2-12.4l.3-4.5c-11.6 4-22.6 9.7-34.6 12.8l-.7-13.5c2-1.7 4.2-3.2 6.6-4.3l25.5-11.8c-.5-1-1-2.3-1.4-3.3-7.7 2.3-15 6.6-22.3 9.8 10.4-11.5 20-23 31.8-33 1.4-1.3 3.3-2.7 4.2-4.5-.2-1.3-1-2.5-1.3-3.8C337 74.2 330 81.7 323 89c-4.7 4.7-9.2 9.5-13.6 14.6l3-28L309 74c-3.3 10.5-3 22.7-3.7 33.5-2 3.4-5 6.2-7.4 9.4l-15.7-1c2.6-7.8 5.3-15.6 7.2-23.6l-3.5-.8-7.5 24-4-.2-1.7-25-3-2.5c-.8 1.7-1.6 3-1.3 5l2.2 22.3-13.7-.8c-.3-5.4-.3-10.6-1.3-16-1-5.5-1-11.7 1.6-16.8 2.4-4 6-7.5 9.2-11.2 2.8 3.7 5.2 8.4 9 11.4 3.5 2.8 8 1.6 12 1 4.3-.6 8.6-2.3 10.4-6.6C299 73 301 67 305 65.7a61 61 0 0 0 19.8 2.7c8-3.7 15.4-9 23.4-13z" class="E"/><path d="M42.3 58.2c2-1 5.2-1 6.5 1 1 1.7 1 3.8.4 5.6-1.2 3.5-7.8 3.4-8.6-.4-.5-2-.3-5 1.7-6.3z" class="B"/><path d="M195.4 58.2c-9.2 13.7-20 26.8-33.2 37-8.6 6.7-18.5 11.8-28.8 15.2 6.6-15 18.3-26.3 31.4-35.7 9.8-6.4 19.7-12.6 30.6-16.5z" class="C"/><path d="M240.3 66.2c2-1.2 5.2-1 6.5 1 1 1.8 1 4.5-.1 6.3-1.2 1.8-3.7 2-5.6 1.4-3.3-1.5-3.8-6.8-.8-8.8z" class="B"/><path d="M78.6 72.2c5 1.2 10 3 15 5.3a82 82 0 0 1 31.5 25.7 99 99 0 0 0-18-4.2c-3-.5-6-.4-8.6-2.4C90 90 83 82 78.6 72.2zm132.6 3c-9.4 8-18.8 15-30.2 19.6-5.4 2.3-11 3.5-17 4.7L179 86c2.2-2.3 4-4.7 7.2-5.7a132 132 0 0 1 25-5z" class="D"/><path d="M230 82c4.8.7 5.2 9.4 0 9.7-3.8.7-4.2-2-5.8-4.5 1.3-2 2.5-6 5.8-5.2z" class="B"/><path d="M55.5 88L82 90.3c4.5-.3 7.4 5.3 10.5 8-4.8.2-9.5.7-14.3 1.5-2.4.3-4.4 1-6.6-.3a74 74 0 0 1-16.2-11.4zM99 103.8a72 72 0 0 1 26.5 5.3 85 85 0 0 1-24.7 8.4 117 117 0 0 1-50.5-4.4c8.5-4 17.5-6.5 26.8-7.5l22-1.8z" class="C"/><path d="M154.5 109.6c.3 11.6-.4 25 3.8 36 5.3 14.5 9.6 29.4 14 44.2 1 4 2.7 8 2 12l-1.8 14a270 270 0 0 0-18.4-57c-2.6-5.5-5.6-10.7-10-15-8.5-9-17.6-16-24.5-26.4 6.7-.3 13.3-.8 20-.4 2-1.8 4-4 6.4-5.4 2.6-1.3 5.8-1.7 8.6-2.3z" class="E"/><path d="M186.2 117l109 6.6c.3 9.5.8 19 .6 28.4a734 734 0 0 1-23.7 179.9 542 542 0 0 1-42.1 111.9 417 417 0 0 1-50.9 77l-122-10.5c22.6-25.4 42-53.6 57.8-83.7 24.4-46 41.3-96.6 52.8-147.4C179.3 226 186 171.7 186.2 117z" fill="#9260c7"/><path d="M116 120.8c-5.6 4.5-11.2 8.8-16 14.2-6 6.6-11 14-14.8 22.2-.8-4.8-2.5-10-1.5-15 1-5.7 4.3-11 8.2-15.4 2-2 3.6-3.7 6.3-4.2a79 79 0 0 1 17.8-1.9z" class="D"/><path d="M58.7 138.2c2.4 2 .7 5 .2 7.4-1.7.2-4.2 1.4-5.8.5-1.8-1.7-4-4.6-2-7 1.6-2 5.6-2 7.7-1zM44 154.7c4.5 1 5 9.2 0 9.7-4 .8-4.4-1.8-6-4.6 1.4-2.2 2.7-6 6-5.2zm6.4 14.7c1.7-1 4.6-1.2 6.4-.3 2.3 1.3 2.4 5 1.2 7-2 3.3-7 2.8-8.6-.5-.8-2-.8-4.8 1-6.2zm307.6 9.3c1.6.3 2.3 2.7 3.2 4l-1.6 4.6c-2.2.3-4.7 1.8-6.4-.4-1-1.4-3-4.4-1.3-6 1.5-2 3.7-3.2 6-2.2zm-262.6 2.7c3.6-1.6 7.7 3 6.8 6.6-.4 3.5-6 3.7-8 2-1.7-2-1.5-7.2 1.3-8.4zM42.2 191a7 7 0 0 1 4.5.3c3.7 2 2.5 9-1.8 9.4-3.5-.2-5-2.5-6-5.6.2-1.7 1.8-3.2 3-4zm24.4 3.2c.3 2.2 0 5-2.2 6-1.6.8-4-.3-5.7-.6-.4-1.8-1-3.8-1-5.7.6-4.4 8.5-4.3 9 .1zm57.4-.4l1.6 4c-1.4 2.4-2.5 4.6-5.6 5-4-.3-4.7-6-3-8.6 1.8-2.2 4.7-.7 7-.3zm211.4-.4c1.7-.7 4.3-.8 6 .3 1 1.2 1.6 2.7 2.3 4-1.6 2.2-2.4 5-5.6 5-4.8.3-6.4-7-2.6-9.3zM78.2 200c3.5-1.5 8-.7 7.6 4 .4 4.6-4.3 6-7.5 3.7-1.7-2-2.7-5.8-.1-7.6zm274 7.2c2-.6 4.5-.8 6.3.4 1.6 1.7 1.7 5.3.3 7.2-1.5 1.6-4.5 1.3-6.4.8-3.4-1-3.5-7-.2-8.3zm-20.7 2.3c2.3 2.6 1 7.8-2.6 8.3-1.5-.1-2.8-.5-4.2-.8-.4-2-1-4-1-6 .7-3.5 5.8-4 8-1.6zM108 211.2c1.4 1.5 1.4 5.3.1 7-1.5 1.6-5.6 1.6-7.2.2-2-2-.5-5 .2-7.4 2-.6 5-1.5 7 .3z" class="B"/><path d="M72.2 225.8c4.2 1.5 8.8 2.2 12.8 4.3 5.3 4 8.2 11.6 12.7 16.4 3 2.5 7.3 4.7 11.4 4.3 3.5-.3 7.5.2 9.3-3.4 2.8-6 3.8-12.5 6.8-18.3 3.6 1 6.8 1.6 9.5 4.4a29 29 0 0 1 8.7 18.5c.7 9-1.7 16.8 2 25.3 2.8.2 5.7.6 8.5.3 2.6-.4 5-1.4 7.5-2l-12.2 47.2L135 310c2-20.7-.3-40.8-2.5-61.6-2 1-3.5.7-3.4 3.5 0 9.8 1 19.6 1.2 29.4-3.2-5-6.2-10-9.5-15-1.2-2-3-2.7-5-3.7.1 1.8.1 3.5.7 5 2.6 6 6.6 11.2 10.7 16.4 1.5 2 3.4 4.2 3.6 6.8l.8 15.7-18.8-19c-14.6-15.5-27-33.2-40.2-50l-2.7 2.6L92 269.6l-18.6-9c-2.5-1.3-5-1.6-7.8-2 1.3 1.8 2.2 3.5 4.2 4.5l25.4 12.7c3.6 1.8 5.7 4.7 8.3 7.7 5.2 6 10.8 12 16.3 17.7L88 309l1.3 3 25.6-5.5 8.4-1.4c1.6 1 3 2.3 4.3 3.6 6.4 6.6 13.5 12.6 20.4 18.7l-2.2 7.3-9 3c-8-5.5-17.6-7-27-6-1 0-1.8 1-2 2.6 3.4 1.8 8 1 11.7 1.3 4.6.1 8.7 1.7 12.8 3.6L90 353.4c1.2.6 2.6 2.6 4 2l19.2-6 30.8-10-5.2 15.3c-10.4 2-20 6.4-30.4 9-6.7 2.4-13.3.1-20.5-.6-5.4-.5-9-3.5-13.7-6 5-8.4 14.4-14.4 21-21.8 2.5-3 1.7-6.8 1-10-.5-2-1.6-4-4-4-7 .6-14 2.7-21.2 3.4-6 .2-10.6-3-15-6.7 2.3-5 5-9.7 9-13.4 3.8.3 8.6 1 12.2-.5 4-2.6 4.8-8.6 4.8-13-.1-3-.4-7-3.3-8.4-3.2-2-6.6-3.3-9.5-5.5-6.2-4-9.2-12.2-11.4-18.8-2.2-6.7-.6-12.4-.8-19.2.2-5.4-1-11.5.5-16.7 5-.8 10.2 2 14.8 3.5z" class="E"/><path d="M354.4 227.5c2.2-.7 5-.3 6.4 1.7 1.5 2.4 1.3 6.7-2 7.6-2.2.6-5.7.7-6.7-2-.7-2.4-.5-6.4 2.3-7.4z" class="B"/><path d="M329.6 238c2 2.4 4.3 4.8 6.2 7.3 2.3 3 3.6 6.5 5 10l12.2 28c-2 7.2-4.2 15.3-3.3 23 .5 4.3 2.7 8.5 7 10 5.2 1.8 11.5.6 16.8-.4l-1.2 12-42.4 17.8c4.5-6.5 9.2-12.5 14.8-18.2l-1.6-3.5a141 141 0 0 0-17.9 21.4c-1.2 1.8-2.3 3-4.4 3.6l-25 8L318 320c2.4-4 5.5-7 8.3-10.7L344 286c1-1.3 2-2.8 2.8-4.3 0-1.6-1.6-1.6-2.7-2.4-5.2 6.8-11 13.4-16 20.4 2.7-13.8 1.4-29.2 1-43l-3.3-2c.5 15 1.6 31.3-1.8 46-1.3 6-4.7 10-7.7 15L301 340.3c-5.4-10-5-21-5.4-32l-3-2.5c-2.4 4.4-1 8.5-.7 13.3.6 9 2 17.4 7 25l-9.7 17-7.7-4.5L278 340c-1-4.2 1-8.8 2-13 2.7-11 5.3-22.2 7.4-33.4 4.7.4 9.5 1.6 13.4-1.7 4.8-4.2 9.3-10.2 9.3-17 .4-8.6 2.8-17.2 5.6-25.3 2.5-6.5 8-9.2 13.8-11.8z" class="E"/><path d="M41.4 281.4c1.7-1 4.5-1.2 6.2 0 1.6 1.3 1.4 4.4 1 6.2-1 2.6-4 2.4-6 2-3.4-.8-3.7-6.4-1-8z" class="B"/><path d="M371.8 332.6l-2.2 20.7-43.5 19.4c-2.6-1.6-4.8-3.3-8-3-6.5.5-10.5 4.4-15.3 8-3 2.4-6.2 2.7-9.8 3.6a64 64 0 0 0-.7-13.4c-.6-2.7.5-4.7 1.4-7 7.8-1.5 15.3-4 23-6.4a821 821 0 0 0 52.3-20.6l3-1.3z" class="E"/><path d="M43.4 339.5c5.5-1.6 7 6 4 9-1.7 1.2-5 .8-6.6-.4-2.5-2.6-1.3-8 2.5-8.6z" class="B"/><path d="M275 346.2l2.2 10.8c-2.8 1.8-5.2 4-7.5 6.4 2-5.6 3.6-11.4 5.3-17.2z" class="E"/><path d="M283.6 362.4c4 2.7 5 8 5 12.6-.4 19-6.8 36.3-15.4 53-2 3.4-5.7 6-8.5 8.7l-6.2.3c-.1-10 1.4-20 2.6-30 1.5-11.6 4-23.7 8.6-34.4 1.8-4 4-8 8.2-10 1.7-.8 4.2-1.5 5.8-.2z" class="C"/><path d="M57.5 368.5c4-1.4 7.3 5 5 8-2 1.5-6 1.4-8-.1-2.3-2.6-.7-7.4 3-8z" class="B"/><path d="M320.5 374.5c2.3 1 2.8 3 2.7 5.5-.5 8.3-5.2 14.7-10 21.2-1.7 2.3-3.4 3.8-6 5l-27 17.6c3.2-6.7 6-13.5 8-20.6 1-3.2 1.7-6.3 4-9 5.4-6.5 11.5-13 18.6-17.5 2.7-1.7 6.5-3.6 9.7-2.2z" class="D"/><path d="M41.3 382.3c3.4-1.7 7.2-.2 7.5 3.8.5 3.6-2 6.3-5.7 5-4-1.2-5.8-6.4-1.8-8.8z" class="B"/><path d="M297.3 382.3l-5.4 5.2 1-4.7 4.4-.5z" fill="#fff"/><path d="M93.5 387.5c1.7-1 4.4-1 6 .1 1.6 1 1.7 3.6 1.4 5.3-.6 4-7 4.4-8.6 1-.7-2-.7-5 1.2-6.3zm-24 10c1.6-1 4.3-.8 5.7.4 2 1.8 1.8 5.6-.3 7.3-2.7 2-7.8.7-8.2-3-.2-2 1-3.5 2.7-4.6z" class="B"/><path d="M336 400c2.8-.5 6.2-.6 8.6 1.3 2.8 2.4 3 6.4 1.2 9.5-2.5 4.4-6.8 8-11 11-17.5 12-36.8 19-57.3 24.5-2-4.2-4-6-8.2-8.4 14.8-12 31-24 48.6-32a77 77 0 0 1 18-5.8zm-79 0a190 190 0 0 0-2.9 22.3c-1.2-1.7-2.7-3.4-3.4-5.3 1-5 3.6-9.5 5.3-14.2l1-2.8z" class="C"/><path d="M55.8 405.4c3.3.2 3.6 2.6 5 5l-1.5 3.8c-2.2.4-5.8 2-7.2-.4-1.3-3-.8-8.8 3.7-8.3zm41.5 9.3c1.7 1.7 1.3 5.6-.1 7.4-1.4 1.7-4.3.3-6 0-.6-1.6-1.4-3.3-1.8-5 .7-3.3 5.6-4 8-2.3zm-57 1.5c2.2-.5 5.7-.5 6.4 2.2.6 2 .5 5.6-1.8 6.4-2 .7-6 .7-6.7-2-.7-2.2-.6-6 2-6.7z" class="B"/><path d="M248.2 422a27 27 0 0 1 5.3 7.7c.8 2.7.6 5.8.8 8.6l-6 4.3-7-5.8c2.4-5 4.4-10 7-15z" class="D"/><path d="M339 426.2c4.7.2 11 .8 14.5 4.3 2.8 3 1.8 7.4-1 10-4 4-11 5.8-16.2 7.6-7.5-5.7-15.8-6.8-24.7-8.4 7-3.3 14-6.4 20.4-10.7 2.3-1.4 4-3 7-2.7z" class="C"/><path d="M62.6 430.4c1.7 3 1 8.6-3.5 8.6-3.6-.1-4-3-5.8-5.4 1-1.3 2-3 3.5-4 1.7-1 4.5-.8 6 .7z" class="B"/><path d="M268 443c3 1 4 3.3 5.7 5.8-2.2 3.7-4 7-8 8.8-5.3 2.8-14.5 1-16-5.7-.5-4.7 2.5-8 6.6-10 3.7-2 8-.1 11.8 1z" class="C"/><path d="M40.2 444.2c1.8-.8 4.5-.7 6 .6 1.7 1.7 1.6 5 .4 7-1.4 2-4.3 2.6-6 .8-2-2-3.5-6.6-.4-8.3z" class="B"/><path d="M305 443.7c8.8.6 17.4 2 25.2 6.2 1.7 1 3.6 2 3.8 4.2 0 2.7-2 5.3-4 7-4 2.8-10 3.4-15 3.5-13.6.4-27-4.2-40.7-7l3.4-6.3 17-5.4c3.3-1.2 6.5-2.4 10.2-2.2z" class="D"/><path d="M237.2 445.3c2.7-.6 5.7-.2 8.4.2l-1 4L229 460c3-4.8 5.2-10.2 8.3-15z" class="C"/><path d="M53.4 454.4c1.8-1.2 4.3-1.2 6 0 2.2 2 2.7 6.3.1 8.2-2.4 1.3-6.3 1-7-2-.5-2-.7-4.7 1-6.2z" class="B"/><path d="M245.3 455.4l6.7 6.3-11 29.4c-6 12.4-13.2 26-24 35l-9.8-.7c-3.8-6.6-2-13 .4-19.7a108 108 0 0 1 30.2-43.7c2.5-2.2 4.7-4.6 7.3-6.7z" class="C"/><path d="M256.4 463.6c2.5-.2 5-.1 7.7-.2.3 16.2-.2 33.8-5.2 49.3-1.5 4.5-4 10.5-8.6 12.6-4.4 1.7-8.3-2-9.5-6-1.8-7-1.4-15 1.8-21.6 3.5-7.6 6.8-15.3 10-23 1.4-3.6 2.3-7.4 4-11z" class="D"/><path d="M275.8 462.7c12 3.6 24.7 6 37.2 5.8 7.3-.3 14.2-.8 20.6-4.7a67 67 0 0 1 14.2 7.4c2 1.4 4 3.4 4.5 5.8.3 2.8-1.6 5-4 6.2-4.3 2-9.8 1.4-14.3.7a158 158 0 0 1-42.5-13.4l-12.6-6.4-3-1.5z" class="C"/><path d="M269 464.5c8.5 15.2 17 31.3 21.4 48.2 1.4 6 3 13 1.4 19-1 3.8-4.4 5.7-8.2 4.6-4-1.3-8.8-4.5-8.4-9.4a368 368 0 0 0-5-46.3l-1.3-16.2z" class="D"/><path d="M275.2 467c3.3 1.8 6.5 3 9 6 11.3 13 24.6 28 30.4 44.5 1 3 3 8.2-.1 10.7-3.5 2.4-8.3-.1-11.3-2.2-2.7-2-6.3-4.3-6.8-8-3.4-17.7-12.8-35.2-21-51zm-49.2.5l-6 7.7 3-4.4a79 79 0 0 1 3-3.3z" class="C"/><path d="M43 474c3 .2 3.4 2.8 4.8 5l-1.5 4.5c-2 0-5.6 1-7-.7-1.7-3-1-9.4 3.7-8.7z" class="B"/><path d="M291.6 474.8l2.6 1.2 26 9.7c2 .6 4.6 1.2 6 2.8a27 27 0 0 1 5.2 7.9c.7 2 1.3 4.2-.4 5.8-4.7 4.3-12 3.2-17.3 1-2.3-1-3.4-3.2-4.8-5.2-5-8.2-11.2-15.8-17.5-23z" class="D"/><path d="M267.6 494.3c1.8 16.3 4.8 33 2.2 49.7-.7 4-1.6 8.5-4 12a5 5 0 0 1-8-.7c-5-6.5-6-16.7-7.4-24.6 4.6-2.4 7.8-5.5 10-10a84 84 0 0 0 7.1-26.2zm-60.8 1c-2.2 4-3.2 8.3-5 12.3-2.6 2.8-6 4.8-9 7l12-16 2.2-3.5zm28 17c.4 7 2.5 12.8 8 17.3-2.8 6-5.8 13-10.7 17.4-2.5 2.3-6.5 2.3-8.4-1-3-5.4-1.6-13-.7-18.8 4-4 7.5-8 10.4-13l1.3-2z" class="C"/><path d="M351 513.7c3-.4 5 2.6 6.2 5l-1.6 4c-2 .4-4.4 1.5-6.4.4-3.5-2-2.3-8.6 2-9.2z" class="B"/><path d="M200.6 515l1 7.7c.8 2.8 2.7 5.5 4.3 8a102 102 0 0 1-7.6 15.8l3 2.2c3.5-4.8 6-10 8.3-15.6 3-.3 5.8-.8 8.7-1.6-.3 5.5-1.3 12.8 1.7 17.7 2.2 3.8 6.8 5.4 11 4 4-1.2 7-5 9.7-8-1.6 4.7-3.5 10.6-7.5 14-4.8 3-11.5 4-16.6 1.4-7.8-3-13.4-9-22.4-7.2-7 1.4-12.6 9.4-16.3 15l-22-2.2c-5.7-.6-11.3-.2-17 0l-22.6 1c-2.5-2.2-5.8-4.7-7.2-8-.8-1.8-.7-3.3.1-5 2.7-5.6 7.7-10.3 10.3-16.2.4-1 .4-2 .1-3-1-5-5-8.7-8.4-12.2-4.7-.4-9.3-.3-14-.2-2.4 0-4-1.4-6-2.6l85.7 7.3c-3 1.8-6.2 4-9.8 4.5l-36 4 .5 3L162 536l-37.4 16.3c-2 1-4 2-2.4 4.5 3.6.4 7-1.4 10.3-2.6a309 309 0 0 0 49.1-25.2c-4.8 9.8-9.2 19.5-15.7 28.4 1.5.3 3 .8 4.5 1.2l14.6-29c1-2.2 2.2-4.2 4.2-5.8 4-3 8-6 11.6-9.2z" class="E"/><path d="M56.8 528l1.3 3.5-1.4 4.2c-1.7.3-3.5 1-5.2 1-3.5-1-4.4-6.4-1.8-8.7 2-1.6 5-.2 7 .1zm23 11c-.1 1.7-.6 3.3-1 5-1.8.4-3.7 1-5.6 1-3-1-4-5-2.5-7.5 2-3.5 8.7-2.6 9 1.6zm260.6 1.4c2.2-1 5.2 0 5.8 2.6.5 2 .6 5.4-1.7 6.5-3 1-7.4.5-8-3.5.6-2.2 2-4.4 4-5.6zm-299 6.6c3.4-2 6.6 1.5 6.3 5-.1 4-5 5.7-8 3.3-2.4-2.4-.7-6.6 1.7-8.2zm277.7 7.8c3.2 1 4 5.8 2 8.2-2.2 2-5 1-7.6.5a85 85 0 0 1-.8-3c-1.3-3.3 3.3-7 6.4-5.7zm-246.2 2.4c4 .5 5.2 7.4 1.7 9.3-1.8.6-4 .2-6 .1-.6-1.7-1.8-3.6-1.7-5.4 1-2 3.5-4.5 6-4zM52 562.7c2-.6 4.4.3 6.4.7a66 66 0 0 1-.1 7.7l-5.3 1c-4-1-5-8-1-9.5zm284.2 3.3c.7 1.7-.4 4-.7 5.7-2 .4-5 1.7-7 .6-2.3-1.3-2.4-5-1.3-7 1.7-3.4 7.7-3 8.8.7zm17.5-2.7c3.8 1 3.6 5.3 2.6 8.4-1.4 1.6-4.2 1.5-6 1-1.3-1.3-2.3-3-3.3-4.4 2-2.3 3-6.2 6.8-5zm-58.4 5c3-1 6.8-.3 7.6 3 .2 1.7-1 3.8-2.2 5-2 .6-5.5 1-7-1-1-2-1-6 1.5-7zm-208 1.3c1.6-.6 3.5-.5 5.2 0 2.7 1 3 4.7 1.8 7-1.2 2-4.3 2-6.3 1.6-3.7-.8-4-7-.7-8.5z" class="B"/></svg>