<svg xmlns="http://www.w3.org/2000/svg" viewBox="0 0 400 610" width="533.3" height="813.3" xmlns:v="https://vecta.io/nano"><style><![CDATA[.B{fill:#ffe000}.C{fill:#d96038}.D{fill:#858585}]]></style><path d="M0 0h400v610H0V0z"/><path d="M18.4 15H382v280.4l-14.6-6C362 287 357 285 351 286.6c-5.6 1.2-8 5.6-12 9.2-1.5 1.3-3.7 3.3-5.8 2.5l-13.2-4.3c.3-4.3 1.2-10-.8-14a19 19 0 0 0-20.6-4.5c-4.3 3-6.8 8.4-12 11-7.5 2-15.6 1.6-23 3-5 2.7-9 8.3-12 13-1.4 2.4-3.5 3.6-5.6 5.4-2 1.6-3.8 3.6-6 5-1.7 1-3.7 1.6-5.6 2.4 1.8-4.4 5.5-11.3 2.7-15.8-2-3.7-6-3-9.4-3 1.5-4.5 3-9 2.6-13.8-.7-5.3-5-9.4-10.5-9-6.3.5-11.7 6-16 10.3-.4-6-.8-12.3-6.5-15.7-3-2.3-5.8-2-9.4-1.2 1.2-4.6 1.6-9.4 3.2-14 6.2-5 13-9.2 19.3-14 4.2 3.8 9.3 9 15.4 8.5 7.8-1 12.2-6.7 18-11a31 31 0 0 1 24-7c6.6 1 13-.2 19.2-2.6 4.3-1.6 8.2-4.7 12-7 1.2-1 3-1.8 3.3-3.5.2-1.5-1-2.5-2-3.5-4.3-4.2-9-7.8-14-11-6-3.8-12.6-8.4-19.4-10.6-4.4-1.3-9-.1-13 1.6-5.7 2.5-12 3.6-18.2 3.4-3.2-.1-6.2 0-9.2 1-4 1.5-7.7 4.3-10.5 7.5-4.7 5.3-8.2 11-11.7 17.3-1.8 3.4-5.8 5.8-8.8 8.2 4-18.2 8-36.5 13.6-54.3 2.6-9 7.7-17.7 12.3-26 6.2-9.8 12-20 16.4-30.7a82 82 0 0 0 33.1 15.4l23 2 2-1.4v-2.7c-6.3-8-13.8-14.6-22-20.4 16-3 31.5-8.7 46.4-15.2 2.4-1 4.5-2.2 6.5-4l-2.3-3-37.7-2.4a56 56 0 0 0-7.7 0C287 83 293.6 76.5 300 70a25 25 0 0 0 4.8-6.5c-1.6-.7-3-1.4-4.7-1a146 146 0 0 0-28.9 6.3c3-5.2 5.6-10.4 7.2-16.2.5-1.8.3-3.5.2-5.3-6.2 1.4-11.6 4.2-17.2 7.3a89 89 0 0 0-23.9 19.5c1-8.4.7-17.2-1.3-25.4-.3-1.8-1.7-2.3-3-3.4-8.8 6.2-16.3 15-20.8 25-.8-4.7-1.7-9-4-13.4-3.8-7.2-7.5-14.5-11.2-21.8-.8-2-2.3-3-4-4l-2 1.7a129 129 0 0 0-3 36.8l-7.3-6.4L161 47h-3.3c.5 6.4 3 12.6 4.4 19l-37.4-18.3c-2-1-2.8.4-4.5 1L135 70c4 5.5 7 11 12 15.5L113 84l-3.2 2.6c1.3 1.3 2.6 2.5 4 3.5l27 17c4 2.5 8 4 12.4 5.8a118 118 0 0 0-22.2 12.3c-5 3.4-9 8-12.8 12.6l2 2 26.6-.1a63 63 0 0 0 33.5-15.4c1.8-1.6 3.4-3.4 5.2-5 2.2-.6 4.7-.6 7-1-.3 3.2-.5 6.3.2 9.5l3 22c.3 3 .4 6-.4 9l-12.8 50c-7-9.5-8.3-21-15-30.6-1.4-2-3-3.8-5.6-4l-18-.7c-4 .3-7.7-3-11.2-4.4-4.7-2.2-10.3-4.3-15.3-2-6 2.7-12 7.4-18.5 9.3l-28 5.8c-3.4.6-3.3 4.8-1.6 7a25 25 0 0 0 7.9 6.8c4.8 1.3 9.8 2 14.5 3.7 7.3 2 10.4 10 17.3 13.7 4 2.8 8 2 12.6 2.5 2.6.4 5.7 0 7.7 2.2 5.7 5.6 13.2 9.7 21.3 10 7.7.2 13.8-4.5 19-9.5 2.4 3.2 5.6 6.3 7.4 9.8l-16 69.6a156 156 0 0 0-7.3-17.4c-2.2-4-5.6-9-10-11-4.2-1.7-8.5.6-10.5 4.5-3.3 6.7-2.6 15.5-1.6 22.6-2 .5-5 .6-6.5 2.2-2.5 2-3.5 4.7-4.6 7.5-4.2-3-8.5-5.5-13.2-7.4-3.4-1.3-7-2.3-10.6-1.5-2.8.6-5.4 2-6.4 4.8-1.7 4.8-.7 10.5 1.8 14.8a88 88 0 0 0 14.3 17.8c-.5 2.3-1 4.7-1.2 7l-16.5-2c-7.5-.3-16.7.1-23 4.4-5.2 3.4-5 11-1.3 15.5 4.5 5.5 12.2 8.5 18.7 10.8-7.8 2.6-16.8 5-23.5 9.6-3.5 2.5-6.3 5.7-6.3 10.2 0 4 2.8 7.5 6.7 8.7 6.2 1.8 12.6 2.6 19 2.3-2 2-3.6 4.4-5.7 6.3-4 .7-9-.3-12.5 1.7-7 3.4-10 10.6-17.2 14-3.6.4-7.3-.6-11-.1-4 .6-8 2.4-10 6.2-3.8 7.4-4.7 15.8-3 24l7.8 6.4c2.5 2 4.7 3.7 5.7 6.7-4.5 5-12.7 9.5-15 16h4.2l5.4-5.7-6.4 11.3c-1.6 2.8-.5 7 1 9.6 4.3 4.5 11.6 6.4 17.6 7.5 4.8 1 9.6.3 14-1.8 3.4-1.5 6-3.7 10-3.7 5-.3 8.7 2.2 13.5.3.4 4 .8 8 2 11.8 1.5 6.8 6.8 12.8 11.3 18 4.8 4.7 8.6 10 12.6 15.4l8.3 13.7a105 105 0 0 1 16.3 34.3H18.4V15z" fill="#fff"/><path d="M194.7 39.7C203.6 55 210 71.2 211 89c.7 6-.8 12.2-1.5 18.3-1.6-.8-4-1.3-5-3-2.6-3.7-4.5-7.8-6-12-6.4-17-5.8-35-4-52.8z" class="B"/><path d="M232.5 51.6c.5 8.8 1.3 17.7-.2 26.4-.6 4-3 7-4.8 10.3a79 79 0 0 0-7.5 21l-5.3-.8a41 41 0 0 1-1.2-7.7c.7-5.3.6-10-.2-15.3.1-13.6 8.8-26 19.4-33.8zm-104 2a282 282 0 0 1 35.2 18.6c1.5 7 4.7 13 8.6 18.8-5-1.7-10-3-15.2-4-3-.6-4.8-3-7-5-8.3-8.5-15.7-18-21.6-28.3zm34.4-.1a130 130 0 0 1 24.6 21c2.8 3 2.7 6.6 3.8 10.4 1.5 6.8 4.5 13 7.4 19a135 135 0 0 1-9.4-5.3c-3.7-2.2-7.4-3.4-10-6.8-8.8-11-14.3-24.4-16.3-38.4z" class="C"/><path d="M273 53.6C269 65 262 75 254.5 84.5a82 82 0 0 1-28.7 21.5 72 72 0 0 1 16.7-30.5c8.4-9.6 19.2-16.2 30.5-22z" class="B"/><path d="M296 67.6L272 88c-5.2 2-11.3 1.8-16.7 3.3L264 80c1.6-2.2 2.7-4.4 5.5-5.5a125 125 0 0 1 26.5-7z" class="C"/><path d="M213 85.5a49 49 0 0 1 .2 15.3c-.6-2.2-1.3-4.5-1.7-6.7.3-3 1-5.7 1.5-8.5zm-94 3.2l34.4 2a110 110 0 0 1 40.3 17l-.7 6a77 77 0 0 1-39.8-6 141 141 0 0 1-34.1-19zm163 5l34 1c-24 10.2-51.2 18-77.5 16l-.8-3.5c-.6-.2-1-.5-1.7-.7 6-3.3 9.5-7.8 16-9.3a98 98 0 0 1 29.8-3.8z" class="B"/><path d="M199.3 108.7c5 1.6 9.8 3.6 14.8 5.3 3 1 5.2-.1 8-.8 4-1.2 8-1 12-1.2-2.3 14.5-11.7 26.8-19 39.2a115 115 0 0 0-12.7 29.3l-19 81.5c-1 3.7-1 8.2-3.2 11.4-2.5 3.6-5 7.2-6.8 11.3-3.5 7.2-4.8 14.8-7.3 22.4-.6-2.2-.8-4-.3-6 7.5-34.2 15.8-68.2 24.5-102l9-38.3c1.7-6.7.5-12.7 0-19.5-.2-4.4-1-8.7-1.8-13-1.3-6 .7-13 1.3-19.3z" class="D"/><path d="M262 115c2.5-.2 4.6-1 6.8.3a74 74 0 0 1 20.8 17.4l-19.7-3c-10.5-1-20.7-7.2-29-13.3a134 134 0 0 0 21.1-1.3z" class="B"/><path d="M163.8 116.2l15.4 2.8c-8 7-17.8 12.6-28.2 15l-24.7 2.6c7.5-9 17.5-14.8 28.4-19 3-1 5.8-2.2 9-1.4z" class="C"/><path d="M121 172c6.4-.4 13.5 5.4 19.3 7.4 6.8 1 14-.4 20.7.5 1.4.1 2.5 1.8 3.2 2.8 3.7 6 5.6 12.8 8.3 18.8 2.3 4.7 5.7 9 8.5 13.5l-2 7.3c-2.8-3.6-5.5-7.8-9-10.6-3.3-3-6.8-5.3-8-9.8l-5.2-17.6-3.4 1.6c.8 5 2.7 9.8 4 14.5-5-4-9.7-8-16-10.2-8.6-2.8-17.7-3.8-26.7-2.8-4.2.5-8.8-.1-12.3 2.4a17 17 0 0 0 7.3 1.7c11 0 21-.6 31.6 3a58 58 0 0 1-10.6 3c-4.3 1-8.3.8-11.5 4.3l3.4 1.8 22-5.8c1.8-.7 3.5 1.3 4.8 2.3l16.4 14.7c-3.3 3.3-6.5 6.3-11.2 7.5-7.4 2.2-15.3-2-21-6.5-6.5-6.2-17.8-2.7-24.7-8.3-4-3-5.6-8-10-10-5.4-2.8-11-3.3-16.7-5-3.3-1-5.6-3.2-8.2-5.3l23.3-4.6c8.7-1.6 16-8.6 23.7-10.6zm144 25c6.2 1.5 12 5.4 17.4 8.7a89 89 0 0 1 14 10.6c-6.8 4.2-14.3 8-22.3 8.8-6 .6-11-1.4-17 0a54 54 0 0 0-17.9 9.2c-4.2 3-9 7.8-14 8.5-4-.1-7.8-3.6-10.8-6 9.4-6.8 18.4-13 29.2-17.2 4.4-1.7 9.8-1.6 14.5-2 7-.5 14-.6 21-1.2 2 0 2.8-1.5 4.2-2.8l-2.2-2c-8 .6-15.7 1.5-23.5 2.3l9.5-7.8c1.2-1 1.6-2.4 2-3.8-1.2-.2-2.3 0-3.3.5a70 70 0 0 0-13.6 10.4c-1.8 1.8-4.6 1.7-7 2.3-6.4 1-12.3 5-18.2 7.7a26 26 0 0 1 8.9-11.7v-3.8c-5.2 1.2-8 5.2-10.5 9.6-1.5 3-2 6.3-3.8 9-2 1.8-4.3 3.2-6.5 4.6l-22.5 15c.6-2.3.8-5.2 2-7.3 2.6-3 6.3-5 9.3-7.7 4.2-3 6-8.5 9-13 3.6-5.3 7.6-11.8 13.8-14.2 6.6-3 14-.7 21.2-2.8 5.4-1.4 11.4-5.4 17-4z" class="D"/><path d="M193.5 271.5c3 1 4.7 3.6 5.3 6.5.7 4 1 8 0 12-1 2-2.3 3.6-3.6 5.3-7.8 10.3-13.3 21.4-19.3 32.8-1.3-4.8-3-9.5-5-14-1-2.4-.3-4.4.3-6.7a195 195 0 0 1 7.2-20.6 32 32 0 0 1 8.9-13c1.6-1.2 4-2.4 6-2z" class="C"/><path d="M142 274.5c2.5 1 4.5 3.4 6 5.5 4.6 6.4 7.3 14 9.7 21.4-1.8 1-3.8 1.7-5.4 3-1.5 1.4-2.5 3.6-3.5 5.4a45 45 0 0 0-11.9-11.1 59 59 0 0 1-1-18.7c.5-2.8 2.8-6 6-5.5zm83.2 6.5c1.5 4-.8 9.3-2 13.2-1 2.6-1.6 5.4-4 7l-17.6 14.6c-2.6-3.6-6.7-7.7-11.2-4l-.3-.7c6.5-11 14-22.7 24.6-30.2 3-2.2 8-3.5 10.4.3z" class="B"/><path d="M301 280c3-.3 6.7-.6 9.8.4 2 .6 3.4 2.8 4.8 4.2-.7 3.2-2 7.5-1 10.8 3.3 4.4 8.8 5.7 13.8 7.2 3 .8 6.6 2.3 9.7.7 5.2-2.5 7.7-8 12-11 4-2 9.7-.6 13.6 1l18 8v21.4c-17 2.5-34 3-51 2.3 3.2-2.5 6.7-6.7 11-6.7 4.8-.5 9.5-.4 14.2-2l20-6.4.2-4a76 76 0 0 1-31.9 8.3l12.4-8 5.7-3.3.2-3.6c-1.8.4-3.6.7-5.2 1.5-12.2 6.7-21.7 15.5-32.4 24l-19.5-1.6c6-4 11.2-9.2 18-12.4l-.1-2.8c-5 .2-8.3 3-12.2 5.6-4 2.5-7.5 6-11.5 8.6-5.4.7-11-.2-16.5.2a156 156 0 0 0 23.5-33.4l-3-2.6c-7.4 12.6-14.6 24.5-25 35-2.2 2.5-6 2.2-9 2.8 2.3-7.8 5.5-15 8.8-22.5-1.7.3-4.2-.6-5 1.5-3 5-5 10.5-7 16-.7-2-1-3.8-2.8-5-4.2-3-8.7-2.7-13.7-2.5 5-3.6 6.5-9.5 11-13.7 2-2 4-3.6 7-4l21.8-2.3c3.5-3.8 7-8 10.8-11.4z" class="D"/><path d="M230 301.2c1.5-.1 3.4 0 3.7 2 .5 3.5-1.5 7.5-3 10.5a126 126 0 0 1-12.8 17.2c-1.7 1.8-3 3.8-5.7 3.7-4.6.2-8.7 1.8-13 3.7 2-5.5 3.4-11 3.6-17a117 117 0 0 1 17.8-15.8c2.8-1.8 6-4 9.5-4.3z" class="B"/><path d="M100 302c5.2-.1 9.4 3 13.5 5.6 2.5 1.7 5.5 3.3 7.5 5.5 1 1.8 1.5 4 2.2 6a72 72 0 0 0 7.7 15.8c-6.7-2.2-13-4-20.2-2.6a95 95 0 0 1-13.1-15.8c-2-3-4-7.3-3-11 .6-2.4 3.3-3.3 5.5-3.4z" class="C"/><path d="M135.7 303.3a42 42 0 0 1 11.2 10.8c1.2 1.5 1.2 3 1.4 5a94 94 0 0 0 6.6 27.8l-12-7c-2.5-1.3-5-2-6.5-4.5a88 88 0 0 1-10-21.3c-1-3.3-1.7-8 .8-11 2.2-2.3 5.8-1.5 8.3-.1zm25.7 4.3c3.8 2.8 6 8 7.7 12.2a111 111 0 0 1 6.2 36.3l-7 .8c-2.3-2-5-4-7-6.2-1.8-2.7-2.7-6-4-9a61 61 0 0 1-3.6-29.8c.3-3.4 4.5-6.6 7.6-4.2z" class="B"/><path d="M189.8 312.7l-2 4.7a51 51 0 0 1 6.1-3.4c1.4 2.4 3.8 5 3.6 8-.2 6-1.8 12-4 17.5-1 2.7-3.3 4-5.5 5.5l-8.3 6.8c-.2-6-1.8-11.8-2.2-17.8 1-3.3 3-6.4 4.5-9.5l-4 1.7c3.2-5.6 5.4-11 11.8-13.5zM245 318l17.8.6c0 2 .5 4.8-.6 6.7-1.6 3-4 5.4-6.8 7.3-1.7 1.3-4.4 1.2-6.5 1.5a125 125 0 0 0-26.5 5.8l-3.3-4c2.7-3 5.3-5.8 7.7-9 1.7-2 3-4.2 5.6-5.5 4-2 8-3.7 12.7-3.5z" class="C"/><path d="M382 326.2l-.1 23c.1 2-2 3.3-3.3 4.5-3.4 2.8-8 6.5-12.6 6.6-6.4-1-12-3.8-19-3.5-3.4 3-5.4 7.4-8.3 11-4.7.7-9.8 1.2-14.2 3-4.7 2.3-9 6-13 9-2.2 1.8-6 1-8.7 1.3-5-.1-11.2.1-14.7-4.3-1.7-3.6-2-8-3-11.8-.6-2.3-1-5.5-3.3-7-3-2-6.5-3-9.8-4.3 3.5-4 5.7-8.6 3-13.8-3-5.3-9-5.3-14.3-6l3.4-4.3a122 122 0 0 1 19.8-2.9c5.3 16 11.3 34 21 48l1.4-3.7c-.3-1.8-1.3-3.7-2-5.3a219 219 0 0 1-6.3-13c7.6 5.6 14.8 11 24.2 13.6l1.3-3.2c-3.2-1.8-6.8-2.6-10-4.5-4.7-2.7-9.2-6.2-13.6-9.4-2.6-2-5-3.5-6.4-6.7-2.2-5.2-4-10.6-6-16l18.6 1.4c2.3.2 3.6 2.2 5 3.7 5.8 6.8 13 12.4 19.3 18.7 2 1.8 3.6 4.2 6.7 3.5 2.4-2.2-1.4-4-2.8-5.4-8-5.6-13.8-13-20.4-20a306 306 0 0 0 17.6.9c2.2.2 4.7-.1 6.5 1.4l10.3 8.8a73 73 0 0 0 25.2 11.8l3-2.3a30 30 0 0 0-7.4-3.5 65 65 0 0 1-26.4-15.9 197 197 0 0 0 38.8-3.1z" class="D"/><path d="M121.8 336.4c9.5 2.2 18.2 7.4 26.7 12a117 117 0 0 1 15.1 10.1 29 29 0 0 0-6.3 8.4c-8.5-2.6-18-4.3-25.8-8.6a60 60 0 0 1-19.7-14.3c-1.2-1.5-2.8-5.5-.4-6.7 3.2-2.5 6.8-1.8 10.4-1zm129.4 1.6c5.3-.5 12-.7 16.8 1.8 2 1 4.4 3.3 4 6-.7 2.5-3 4.5-5 6a73 73 0 0 1-14.5 7.3c-11-3.5-22.2-4-33.6-3.6 1.3-1.5 2.8-3 3.8-5 .8-2 1.2-4.5 1.7-6.7 9-2.5 18-4.6 27.2-5.6zm-38.2 1c3.3.2 6.5 3.5 5.6 7a18 18 0 0 1-5.2 7.6c-7 6.3-15.4 10-24.2 13.2-1.6-4.2-3.2-7.6-7-10.3 6.2-5 10.8-10.3 17.5-13.6 4-2 8.7-4.2 13.3-3.8zm-133 6.5c8.3-.4 16.8.5 25 2 1.7.4 3.4.5 4.8 1.8 3 2.8 5.7 5.6 9.4 7.6l14 7a241 241 0 0 0-37.8 4.6c-4.5 1.2-8.4-.7-12.7-2-4.8-1.7-10.6-4-14-8.2-2.4-2.6-2.5-7.5.6-9.6a20 20 0 0 1 10.5-3z" class="B"/><path d="M268.2 358.6c4 1 8 2 11.4 4.8 1 4.8 2 9.8 3.4 14.6.8 3.2 4 5 6.8 6.3 6.6 3 13.7 2 21 2.7l14.4-10.6c4.3-4.8 14-.8 18.4-5.6 2.6-2.5 3.8-6.5 5.5-9.7l16.8 4.5c6.2-.2 11.5-4.5 16-8.2v236.4H154a666 666 0 0 1-3.7-95.8c.1-9.7 1.2-19.4 2.4-29 8-2 10.5-9.5 13.2-16.3 2 8 4.4 15.3 10.2 21.3-3 8-5 15.8-3 24.3 1 5.6 5.4 10.2 10.2 13 3.6 2 8.4 1 11.5-1.6 2.6-2 4.2-4.6 7.7-5.2 3 2 5.2 5.4 7.2 8.3l12.4 18.6c2.3 3 5.2 5.5 9.2 5.8 6 .4 12-1.2 18-1.4 4.7 3.4 8.8 7.5 13.3 11 3 1 6.4 1.8 9.4 1 4-1 9-1.8 12.6-4.2 2.2-1.5 4.3-3.5 4.6-6.3a254 254 0 0 0 1.4-17.2c.2-2.6.4-5.2 2.2-7.3 3.7-4.6 9.4-9.8 10.7-15.6.7-5.5 0-11.3-1.7-16.5-.6-2.3-1.6-4-1-6.5 1.2-5.4 3.4-10 .8-15.5-2-5-7-6.3-11-9-1.8-1.2-4.6-2.6-4.3-5.3 2.2-3.7 5.8-5.7 7-10.3 1.2-3.8-.3-8.2-4-10.2-2.6-1.5-5.2-2.7-7.6-4.5-3.4-2.3-5.8-5.6-9-8-2.2-1.5-4.6-2.4-7.2-3.4-1-3.5-2.5-6.7-5-9.3a79 79 0 0 0-18.2-13.3c5.3-.4 11-1.4 16-3.5 3.4-1.5 6.4-4 7-8-.2-5.5-2.6-9-7-12.3 3-1 7-4.6 10.2-3z" fill="#fff"/><path d="M217 360c10.8 0 22.4 0 32.8 3 3.5 1 7.8 2.8 10 6 1.4 2.4.4 5.2-1.6 6.8a21 21 0 0 1-14 4l-20-1c-2 0-3-1.8-4.3-3-4.7-4.8-11.7-7.6-18-10 5-2 9.8-6.8 15.3-6.4zm-48.6 1.5c3-.8 6.4-1 9.6-1 2.6-.1 5 1.4 5.8 3.7.5 3.5.8 7-2 9.6-4 4-8.5 3.5-13.7 3.8-4.2.8-8.3-5-6.2-8.7 1.3-3 3.4-6.3 6.6-7.4z" class="B"/><path d="M121.5 368.8c5.4-.7 11-.2 16.6 0-5.5 2.2-11 4.2-16 7.5l-7.5 4.4a171 171 0 0 0-25.2 13.8c-2 1.3-4 2.6-6.4 2.8-5.6.5-11.4.6-17-.4-3.2-.7-7-2.3-7.8-6-.4-2 1-3.7 2.6-5A46 46 0 0 1 74 379c15.6-5.4 31.2-8 47.5-10.3zM149 371c2.7-.8 5 .1 7.5.8.8 3.6 2.4 6 4.7 8.8-5 3-10.2 5.6-15.5 8-7.3 3.4-16.5 7.4-24.7 6-4-.6-6-6-3.2-9 4.3-4.8 11-8 17-10L149 371z" class="C"/><path d="M192 371c3.3-1.3 7.5.3 10.8 1.2a26 26 0 0 1 15.6 11.3c2 3-2.4 5.8-4.6 7.2-4.3 1-9-.1-13.3-1.3-2.6-1-5.4-1.5-7-4l-7.7-11c1.8-1.7 3.6-3 6-3.4z" class="B"/><path d="M183 378.6c9.3 12.2 16.8 26 21.7 40.6 1.4 4.2 2.8 9.7 1.5 14-1.2 3.4-4.4 4.7-7.7 3.2-4.8-2.3-8.2-8-10.6-12.4-6.8-13.6-12.6-27.3-14.8-42.5 3.6-.5 6.7-1.3 10-3z" class="C"/><path d="M168.5 381.4c-2.8 8-5 15.5-10 22.2-2.8 4-6.6 9-11.4 10.7-2.2.6-5.7.8-6.8-1.7-2-4.7-.4-11 2-15.3.8-2 3.4-2.8 5.2-3.8 7.4-3.5 13.5-9 21-12z" class="B"/><path d="M224 384.2c7.8.3 13 4.3 19.5 8 4.7 3 10 6.2 13.6 10.4 2 2.3 3.5 5 3 8.3-1 2.8-3.8 3-6.3 3.3-7 .2-14.4-2-21-4.3-3.5-1.2-5.3-3.7-7.7-6.3a130 130 0 0 0-8.9-8.8c2-1 4.6-2 5.8-4 1-2 1.5-4.6 2-6.8z" class="C"/><path d="M111.7 387c.1 2-.2 4 .4 5.8 1.5 3.2 4.4 5.7 7.8 6.5 4.4 1 9.6-.2 14-1-10.5 6.2-21.6 13-33 17.3-8 1-16 .7-24 1 .5-3.2 1-6.2 3.4-8.7 8.3-9.3 20.8-15.4 31.6-21zm58.5 2.7a131 131 0 0 0 13.4 35.8c2.3 4.5 6.2 7.6 6.3 12.6l.8 19c-.2 4-.7 8.5-3 11.8-2 3-6.8 3.2-9.3.7-3.5-3.3-5.4-8.5-7-13-4.7-16-6.6-33-6.8-49.5-.5-6 4-11.5 5.4-17.3zm28.2 3.7l3.2 1c3.5 1 8.3.6 11 3.3l20.3 22.8c3 4.6 6.7 11 6 16.6-.7 4.7-5.2 7-9.7 6.4-6.7-1-12.6-6.6-17.8-10.6.8-13.6-6-28-12.8-39.3z" class="B"/><path d="M134 404l-12.3 21.5c-1.5 3-2.5 5.8-5 8-4.2 3.8-9 7-13.3 10.6l5.2-.8a58 58 0 0 1-11.8 7l5.6-5.5c-4 2-8.6 5-13.2 5.3-1.5 0-3.7 0-4.3-1.6-1.2-2.8.2-5.7 1.6-8.2 4.5-8 10.3-15.4 17-21.8l7.5-2c8-3.6 15.8-8 23.3-12.6z" class="C"/><path d="M134.7 411.4c2 4 4.5 7.3 9.3 8 5.3.2 9.4-4 13-7.3-5.7 13.7-12 26.7-21.3 38.5-3 3.5-6.5 7.5-10.7 9.4-2 1-4.7 1.3-6.4-.6-2.3-2.5-1.6-7.2-1-10.2 3-13.7 10-26 17.2-37.8z" class="B"/><path d="M72 413l1.5 6.4c1-.1 2-.1 3-.2 5.8 4 11.8 3 18.2 1.3-2.6 3-5 6.2-7.5 9.3-8-1-16 .3-24 1-2.3.4-4.5 0-6.2 2l1.8 2.7 25.8-1.6c-1 2-2 4.3-3.6 6-1.5 1.2-3.4 2-5.2 3l-17.6 9c-10.7-5-21.8-8.5-33.6-9.8 1-4.2 1.8-9 5.5-12 5.7-4 14.4 1.8 19.4-2.7 4.2-3.6 7.2-8 12-11 3.2-2.4 6.8-2.5 10.6-3z" class="D"/><path d="M160.8 414l2.2 24c.5 3 .6 5.7-.3 8.5-1.6 4.8-3 10.2-5.7 14.4-1.3 1.8-3 3.7-5.5 2.6-2.7-2.2-3-7.3-3.3-10.6-.2-5.2-1-11.4 1.8-16l10.8-23z" class="C"/><path d="M264.3 414c6 1.5 8.8 5.7 13 9.8 2.8 2.8 6.3 3.5 10 4.5.1 1.7.6 3.6.3 5.3-1.4 3.2-4.8 5.4-6.3 8.6-.8 2.7-.7 6 1.5 8 3.4 3.4 8.4 5.2 12.3 7.8 1 .8 2 1.5 2.2 3 1 6.5-2.4 12.4-1 19 1 6.6 4 12.5.5 19-2.6 5.5-10 9.3-10.5 15.5-.8 7-.6 14.4-2 21.4-.7 3-4.6 4.6-7.3 5.4-3.5 1-7.2 2-10.8 1.8-5.8-3.4-10.4-9.3-16.5-12.3-2.2-.7-4.8-.1-7 .1-5 .7-9.8.1-14.7-.2-4-6.3-8.3-12.5-12.4-18.8a40 40 0 0 0-9.2-10.8c-2.2-1.6-5-2.2-7.5-1.2-4 1.7-6.7 6.2-10.8 7.7-4.4-.5-8-5.7-10-9.2-2.3-6.6.2-15 2.5-21.3 2.4-.3 5.5-.2 7.4-1.7 3-2.2 5-6.4 6-10 2.3-8 1.8-17 1-25.3 2.6.8 5.3 2.2 8 1.6 2.8-.4 4.6-2.2 6.8-3.8l2 2-13 41.4c-.8 2.3-1 4.6-1 7l2.6-.3 14.7-45.5c3.4 2 6.8 4.3 10.6 5.3 2.7.7 5.6.3 8.4.7l1 1c-1.2 3.5-3.4 6.7-5 10a99 99 0 0 0-9.2 33c-.3 2 .5 3.5 1.3 5.3 3.4-6.4 3.3-14 5.8-20.7 2 6.4 2 13 1.7 19.5-.4 6.4-2.7 12-4 18.4l3.6-.1a73 73 0 0 0 4.9-29.3c0-5.8-2.2-10.5-4-16 2-5.4 4.7-10.5 7.5-15.6L246 471c1.5 4.7 3.7 9 5.5 13.7 1.5 3.8 0 8-.6 11.8-1 7.7-1.4 15.5-1.7 23.2l2 1.2 2-1 2-25.4c5.2 11.6 10 23.6 15.5 35 1.2 2.5 3 1.4 5.3 1.2L266 509l-12.7-30a105 105 0 0 1 20.6 16.1c2.2 2.2 4 4.8 6 7 1 1.2 3.4 1.2 4.8 1.7-.8-2-1.3-4-2.8-5.8-4.5-5.4-10-10-15.5-14.5a71 71 0 0 0-10.8-7.2c-1.5-1-3.5-2-4.6-3.4-1.4-2.4-2.3-5.2-3.3-7.8a116 116 0 0 0-9.6-19.3l20 8c3.5 1.6 5.6 4.2 8 7 5.3 6 11.6 10.8 17.6 16.4 1.7 1.5 3.4 3.3 5.4 4.4l3.8-.2c-7-7.7-15.2-14.3-22-22 5 2 9.7 5.3 14.8 6.7l2.5-2c-2-1.6-3.8-3-6-4l-40.4-17.3c.8-1.8 1.7-3.7 2-5.7.3-3-.8-6.5-1.6-9.4a112 112 0 0 1 24.7 6.7l8.3 3.3 2.3-3a104 104 0 0 0-37.1-11.2l-5-7.8c6.5 2 13.8 4.2 20.7 3.2 3.6-.5 5.6-3 8.3-5z" class="D"/><path d="M101.6 418.3l-7 2.4c-6.4 1.5-12.4 2.6-18.2-1.3 8.4-.5 16.8-.7 25.2-1z" class="B"/><path d="M115.4 440a60 60 0 0 0-2.4 14c0 3.4 1.2 6.6 1.3 10-.1 6.3-2 12.7-2.6 19a49 49 0 0 0 3.3 1.6 127 127 0 0 0 3.3-19.4c2.7-.1 5.7.1 8.2-.8 3-1 5.5-3.3 8-5-1 8-1 17-3.4 24.7-2 4-7 6.7-10 10l-10.7.6L99 482.5c-2.6-2.2-6.3-2.4-9-.4-4 3-6.4 8.5-10.2 11.8-1.7 1.4-3.8 2.5-5.7 3.6L62 495c-4 .5-7.5 3.7-11.2 5-5 2.3-10.7.8-15.8-.7-3-1-7-2.5-8.8-5.3-.8-4.2 3.5-8.6 5.4-12 2.7-4.3 3.6-10.5 7.8-13.2a292 292 0 0 1 40-22.7c.5 2 .7 4.3 1.7 6 1 1.2 2.5 2.2 3.8 3-1.2 2-2 4.7-4.4 5.6-4 1.8-8 3-12 5a62 62 0 0 0-16.1 12.8c-1.2 1.5-2.5 3-2.6 5l3.6.6a56 56 0 0 1 25.6-18.6l-12 22a48 48 0 0 0 3.8.1c3-2.6 4.8-6.7 6.8-10l11.6-23.2 7.3-4.2a58 58 0 0 0 11.8-7l7-3.3zM24 446.6c10.5.3 20.3 3.5 29.8 7.7l-15.8 10c-2-2.8-3.8-5.6-6.4-7.8-2-2-4.6-3.5-6.4-5.7l-1.3-4.2zm119.4 1c.3 6.6.1 12.7 4 18.3-5.7 42.4-2.7 85.4.6 128a859 859 0 0 1-15.2 0c-2-11.3-7-21-12.7-31-8-13.5-17-26.7-27.8-38.3a41 41 0 0 1-9.6-22.5c-.1-1.6-.5-3.2.6-4.5 2.6-3.3 5.6-6 8-9.5a225 225 0 0 0 3 23.5 18 18 0 0 0 5 9c7.7 8 17.5 14 26.8 20.2a29 29 0 0 0 6.8 3l1-7.6a636 636 0 0 1 1.9-48c.4-6.8 2.3-13.2 3-20 .6-4.7.6-9.4 1-14 .2-2.3 2-4.5 3-6.4z" class="D"/><path d="M97.2 487.7c2.8 3 4.7 6.7 7.5 9.6 1 1 2.7 2.4 4.2 2.3 4-.2 8-.6 12-1 3.8-.3 7-3 9.8-5.4l-2 43c-6.8-4.4-13.7-9-20-14.2-2.5-2-5-4.4-7-7-2-2.7-2.5-6.6-3-10l-1.8-17.5z" fill="#fff"/></svg>