<svg xmlns="http://www.w3.org/2000/svg" viewBox="0 0 400 610" width="533.3" height="813.3" xmlns:v="https://vecta.io/nano"><style><![CDATA[.B{fill:#d96038}.C{fill:#ffe000}.D{fill:#858585}.E{fill:#fff}]]></style><path d="M0 0h400v610H0V0z"/><path d="M18.5 15h79c-5 5.8-9.2 12-8.7 20a14 14 0 0 0 7.1 12.2c6.4 3.7 15 4.3 22 4l57-3c6.7-.5 13.4.1 20.2.3 4.7.2 10.3.5 14.3 3.3-4.8 2-8.8 4.8-10 10.2-1.5 5.2 2 9.7 6.2 12.2a38 38 0 0 0 19.4 4.1c5.2-.7 10.4-1.7 15.6-2.5.4 3.5.8 6.5 3.6 9a26 26 0 0 0 19.7 5.3l19.7-2.2a38 38 0 0 0 23.5 15.8c-3.2 3.5-6.4 6.8-8.5 11.2-2.6 4.8-3 9.8-3.7 15.2-.2 7 2.7 13.6 7.7 18.3 6.5 6.8 15.5 8.6 24.5 9.5-4.8 7.4-4 17.6 2 24 5.2 4.4 13 6.3 19.6 7.5a208 208 0 0 0 33.2 2.2v402.4c-13.7 0-27.4 0-41 0-1.5-.1-2.7.1-4-1-8-6.5-14.7-15-21.5-22.4l13.4.8c6.2.5 12.5-3 16-8.2 2.8-.5 5-1.3 7.2-3a145 145 0 0 0-6.2.7c.8-3.2 1.5-6.4.8-9.7-1.4-6.8-6-13.2-10.7-18.2-9.4-10-21-18.8-32.4-26.6-3.5-2.3-7-4.8-10.7-6.7a35 35 0 0 0 5.4-6l-7 4.8c-10-5.7-20.6-11.2-31.6-14.7 2.5-1.8 5-3 6.6-5.7-2.5 1.3-5 2.8-7.3 4.2-1.8 1-4.2-.3-6-.7-12.4-3.7-27.2-6.8-40-3.8-7.4 1.8-12 8-12 15.7-2.7-2-4.7-4.7-7.3-6.8-4-2.7-9-4.2-13.5-5.5l-37-8.8c4-4 9-8 14.5-9.6 4.6-1 9.4 1.7 13.7 3 3.3 1 6.4 2.5 9.8 3l19.2-.3c-4.5-.2-8.8-1-13-2-6.3-1-12-3.3-18-5.3-4.2-1.2-7.4-3.6-12-2.5-8.2 1-13.3 8.5-19.7 13.3l-27.3-1c-3-2.5-6.3-5-9.2-7.8-2-2-4.2-3.2-5.3-6L90 445.8l10.2-26.6c1.3-3.7 4-6 6.3-9 .1 2.8-.3 6.5 1.3 9 5 6.8 12 12.2 16.7 19.4 1.5 1 3.3 1.2 4.7-.1 3.2-2.6 4.6-6.7 7-10.2 2.3-3.6 4-7.8 3.3-12l-2.4-18a133 133 0 0 0 21.1 27.9c12 13.2 26 24 41.7 32.4 1.3.7 2.8 1 4.2 1.5 2.4-2.6 3.4-5.7 4.8-9 2-4.4 4-8.8 6-13.2 27.4 14.7 59.6 19 90.3 18 16.3-.4 32.4-2.2 48.2-6.4 1.3-.3 2.2-1.2 3.2-2a301 301 0 0 0-6-58.2c-5-22.4-12.3-45-23.2-65.2 4.8-4.4 7.2-11.3 6.6-17.8-.3-3-.1-8-3-10-2-1.7-4.5-2.3-7-1.2l-13 4.3-5.7-6.7c8.6-3.3 18.5-4.2 26-10.2 5.6-5 6.3-13.3 6-20.3-.3-6.4.1-14.8-4.2-20-4.2-2.4-11.3 0-16-.5-6-2.4-11.7-6.6-18-8.2-9.2-.8-17 5-24.7 9l-7-6.5c.3-4.6 1-9 1.8-13.7.4-2.2-.5-3.7-1.6-5.4-4 0-8.3-1-12.2-.2a50 50 0 0 0-18.6 10.2c-3.2 3.2-7.5 4.8-10.8 8-4.6-3-9.6-3.8-15-4.5 4-3.3 10.4-7.7 11-13.4 1.2-4.7-1.3-9.5-5.7-11.6-5.4-2.7-12.5-1.3-18.2-.3 2.6-6 5.5-11.7 8.3-17.4 3.3-6.4 6.2-12.4 11.8-17.3 2.7-2.2 6-3.7 9-5.2a59 59 0 0 0 19.6 13.7c7.6 3.2 15.2 5.7 23.5 6.5 1.6-.5 3.2-.7 3-2.8-2-4.3-5.3-8-8.5-11.7l31-.6 2-1.8c-.4-1.4-.4-2.8-1.8-3.6-8-5.7-16.6-10.5-25.8-14 5.5-2.7 12.8-5.3 16.4-10.3-9.3-6.5-22-7-33-6.7 2.6-2 5-4.2 7-6.8L273 111c1-1 .6-2.7.7-4-9.6-.6-19.5 2.2-28 7-2.6 1.4-4.3 3.5-6 5.8l-4 2.4h-.2c.7-3.8 2-7 1.8-11v-11c-.1-3 .5-5.8-1.3-8.5-3.4.3-5.8 2.2-8.4 4.3-5.5 5-9.7 11.2-12 18.3-1-9-5.8-15.3-9.4-23.3-1-1.6-1.2-3.7-3.3-4.2-1-.2-1.8.3-2 1.4l-6 17.7a46 46 0 0 0-5.3-7.2L176 83c-1.6-1.4-3.8-1.8-4.4.8l2.3 22.8c-5.6-4-12-8.4-18.8-10-2-.6-3 .4-4.7 1.2l10.4 21.4-21.7-1.6c-2.4-.6-3.5 2-2 3.2l20 16a67 67 0 0 0 37.6 10.5c.5 5.7.5 11-.3 16.6-.1 7.8-4.3 14.8-7.5 22-8 1.2-15.2 5.7-21.7 10.2a44 44 0 0 0 4.2-17c0-3-.2-5.8-2.3-8a10 10 0 0 0-10.6-2.5c-4.5 1.3-7.3 4.3-10.6 7.4a68 68 0 0 1 3.6-15.4c1.7-4.6 0-9.4-3-13-3.3-3.8-7.2-7.3-12.7-7-6.7-.2-12.5 3.2-19 3.5-2-3.2-1.6-6.8-.2-10.2a117 117 0 0 0 8.1-18.8c1-2.8 1-6.4-1.8-8-3.8-2.5-8.6-3.8-13-4.5l-14.4 1.3c-2.2-3-4.6-5.8-6-9.5-1.4-3.2-2.7-6.7-6.6-7.3-6.3-1.3-11.7-3.5-18-3-4 .2-8-.4-12 .4-3.3 1.7-4.6 6-5.4 9.4a124 124 0 0 0-1.2 31.5c.3 5 1.2 11 4.4 15 2.3 3 4.7 6 8.2 8 1.6 1 3.7 1.7 4.6 3.4 1 2.2 1.5 4.7 2 7-6 .3-11.5 1.7-17.2 2.8-4.7.6-8.5 5.5-11.2 9a37 37 0 0 0-6.6 15.6c.4 5.2 7 9.4 10.4 12.7-2.2 2.4-4.3 5-5 8.3-.7 4 .4 7.5 2 11-5.6-1.6-11.7-3-17.6-3l-.1-14.2V15z" class="E"/><path d="M103.4 18.5c3.2-.3 6.4 0 9.6-.1L330 20l47.6.5-.2 14.5c-3 4-7 7.5-10.6 10.8A47 47 0 0 1 339 58c-10.4.5-20.3-3.3-28.4-9.5-4.7-3.7-8.8-8-13.6-11.7-1.7 1.2-2.4 2-3.3 4-3 6.5-7.8 12.5-14.8 15-4.2 1-8.6 1-13 1.4-3 .5-5.7-.6-8.5-1.5-1-3.7-2-7.5-5.4-9.7-4.3-2.7-10.2-3-15-1.7-4 1-8.2 4.4-8.2 9 .3 2.7 1.8 6.6 5.2 6l.7-3c-.7-1.8-2.5-4.4-.7-6 3-2.7 8.2-3 12-2.3 6.3.7 9.4 9.3 6 14.2-1.5 2.2-3.7 4.6-6 5.8-7 .8-14 3-21 4-5.4.1-12.7-.1-17-3.6-1.5-2-3.4-5.2-.6-7 3.6-2.5 7.2-4 9-8.3-1.2-2.7-1.3-5.7-4.2-7.3a37 37 0 0 0-13.3-4.2h-21l-60 3.2c-5.6.1-12-.2-17.2-2.5-3-1.3-5.3-4-5.4-7.3-.2-6 3.8-12.3 8-16.5zm274 22.5l-.1 28.7a30 30 0 0 1-38.5-.4l-8.8-7c6.7.8 13.3.7 19.8-1.5 11.4-3.7 19.6-11.2 27.6-19.7zm-79.8 1.2A66 66 0 0 0 322.3 60C318 67.5 312 73.2 304 77c-3.7 2-7.7 2-12 3-2.7.7-5.5.1-8 .7a43 43 0 0 1-34.6 0c-4.3-3.2-1.5-7.4.6-11 3-3.4 6-5.7 7.2-10.3 3 1 5.7 2 9 1.6 5-.6 10-.4 14.8-1.4 6.6-2.8 12-9.4 15.5-15.4l1.4-2zm27 21.8a51 51 0 0 0 37 16.1c-4.5 9.5-13.7 15.7-23.7 18-3 .1-6-.2-9 .1-3.2.2-6.8 1-10 .3-3.5-1-7 .3-10.5-.7-8-2-13.4-7-18.8-12.6 3.8-1 7.7-1.5 11.5-2.7a44 44 0 0 0 23.5-18.2zm52.8 10.2V157c-6.8-6.2-15.5-7.8-24.5-7.7-6 0-11.2 2-17 3-1.6-.7-3-1.3-5-1.2-5.8 0-11.2-.3-16.6-2.7-6-2.8-11.2-7.7-12.5-14.5-1.5-6.4.4-12.8 4-18.2 3-4.6 7-7.3 11.2-11 1.3-1 2.2-2.2 4-2 5.6-.2 11.4-.7 17-.3a13 13 0 0 1 10.8 6.6c2.7 8.6-1 18.4-9 22.5-4 1.7-10.4 2-13.7-1.6-2.7-3-2.6-7 .1-10.2-1.7.3-3.5.1-4.7 1.5-2.8 3.7-1.4 9.4 2.2 12 5.2 4 12.6 4.8 18.5 1.8 9.3-5.2 14.2-16.7 10.6-27-1.6-4-4.8-6.3-8.5-8 5.5-2.6 10.8-5.4 15-9.8 3.4-3 4.7-7 7.3-10.7 3.6-1.8 7.5-3 11-5.4z" class="B"/><path d="M53.2 89.2c3.6-.4 7.2-.1 10.8-.2 5.7-.2 10.5 1.6 16.2 2.7 2.2 3.3 4.5 6.5 5.8 10.2 1 3 2.8 5 5.2 7 5.3-.5 10.6-1.8 15.8-1.8 4 1 8.4 2.2 11.7 4.8l-9.3 21.5c-1.8 4.6-1.2 11.2 2.6 14.7 1.6 1.6 3.7 2 6 1.6l15.3-3.4c1.6-.2 3-.7 4.3.3 3.7 2.4 6.5 6 7.5 10.5 0 2.2-1.4 4.3-2 6.3-2-2-4-4.2-7-5-4.4-.8-8.2 1.3-11 4.4a43 43 0 0 0-8.4 15.1c-1.2-3.6-2-8.2-4.6-11-1.6-2.7-1.8-6.3-5.2-7.4-3.8-1.2-6.6.8-9.5 3l-4.7-12.6 1.2-.5L106 120c1-2.2-.2-3.4-2-4.4l-11 24.5c-.7 1.7-1.6 3.4-2.6 5-6-15.7-14.5-28.4-22.8-43-1.5-2.4-2.7-5.4-4.8-7.3h-.8c-3.2 2.7-.2 5 1 7.6 6 10.5 12.2 20.7 17.8 31.4l-23-18.3-2 2.3a130 130 0 0 0 26.3 22.7c1.5 1 3 1.6 3.7 3.3 3.3 7 6 14 8.7 21.3 1 2.3-.6 5.3-1 7.6l-14-15.6c-1.4-2-4.7-3.5-6-.5 5.5 7 11.5 13.4 17.6 19.8 2.2 1.7 1 5.4 1 7.8a124 124 0 0 0-4.2-4.1c-2-2-3.2-4-6-4.2-3-.7-6.2 1.5-8 3.8-2 3-1.8 6-1.6 9.6-4.7-5.2-10.6-10.4-17.2-13-4.6-1.8-9.8-.1-13 3.6-2.5 4-1.5 8-.7 12.4a189 189 0 0 1-7.7-6.7c2-7.2 6-14.5 12.2-19a47 47 0 0 1 15.8-3.7c1.8-.2 4.2-.6 5.5-2 1.4-2 1.5-4.2.8-6.4-1.5-4.6-3.5-9-8-11.3-5.3-4-10-10-10.4-16.7-.8-11.2-.6-22.4 1.5-33.5.4-1.5.8-3 1.8-4.3z" class="D"/><path d="M175.3 90l2.5 2.3c6 6.3 11.8 13.3 16 21 .6 3.6.8 7.4 1.4 11l-13.5-12c-1.2-1-2.8-1.8-3.2-3.4-2-6-3-12.6-3-19z" class="B"/><path d="M202.6 93.2c6.3 10.5 9.8 22.5 9.7 34.8l-2 16.2a48 48 0 0 1-7.8-51z" class="C"/><path d="M233.5 98c.3 11.4-1.2 20.4-5.2 31 2.6-2.2 5-4.7 7.6-6.8l4-2.4-1.3 3 9-5a60 60 0 0 1 19.4-5.4c-5.8 7.7-12.7 14.6-20.2 20.6-1.8 1.6-4.5 2-6.7 2.6a71 71 0 0 0-17.4 7.8A51 51 0 0 1 235 127c-5 2-9.3 5-12.7 9.2-2.2 2.5-3.7 5.5-6 8-.7-4.6.6-8.7.7-13.3.2-3.8-.5-7.7.7-11.2 2.7-8.7 8.3-16.8 15.8-22z" class="B"/><path d="M157 102.4c19.3 8.7 36 22.7 46 41.6a70 70 0 0 1-22.6-10.3c-10.7-7.6-18.8-19-23.4-31.3z" class="C"/><path d="M334 113.5c1 .4 4 2 2.8 3.5-3.6 1-7 .7-10.4 2.7 1.3-4 3.4-6 7.6-6.2z"/><path d="M144.5 122c6.3.3 13 .5 19.2 2a78 78 0 0 0 21.3 17.6c-15.3-2-29.8-8.4-40.5-19.7z" class="C"/><path d="M200.5 148.2c4.6.8 6.6 3.8 9.7 6.7 6 .8 12 1.2 18 3.5-6 2.8-12.7 5.4-17 10.6-6 7.3-9.6 17-14.2 25-1-3.4-1.4-5.7-4.8-7.4 1.5-3.6 3.2-7 4.7-10.7 2.3-5 2.6-11.4 3.7-17 .8-3.6.4-7 0-10.7z" class="D"/><path d="M352 153c6.2-.1 13.7.5 19 4 3 2.3 6.7 5.8 6.5 10l-.1 18c-9-1-18-1.6-27-2.6-4.7-.8-9.6-2-14-3.8-4-1.6-6-6.4-6-10.4.1-4.3 3-8 4.7-11.8 5.7-1.5 11-3.3 16.7-3.2z" class="B"/><path d="M260 153.7c2-.6 3.8.3 5.6.7a100 100 0 0 1 23 10.5H259c-7.4-.7-15-2.6-22-4.8a332 332 0 0 0-.9-3c8 .3 16.2-1.2 23.8-3.4zm-128 9.5c3-1 6 1 7 3.8 2 4.4 2.2 10 1.5 14.7a202 202 0 0 0-19.2 32.5l-1.5-25c-.2-2-1.2-4.4-.2-6.2l5-11.2c1.5-3.2 4-7.2 7.5-8.5z" class="C"/><path d="M106 164c3 1.4 4 5.3 5.4 8 0-1.8 0-3.4.5-5.2 2.7 2.8 3.4 7.4 4.6 11l.1 1.5c-1.7-2-3.5-4.2-5-6.5 1.8 3.2 2.4 6.6 3 10a167 167 0 0 1 1.9 43c-.5 8.5-.7 17.4-3 25.7-1.4 1-4 .3-5.7.6-3.7-8.4-5-18.2-7-27-3.2-14.4-5.3-29.4-4.3-44.2.4-4.7 1-10 3.3-14.2 1.2-2.3 3.6-3.8 6.2-3z" class="B"/><path d="M162 173c2.6 1.4 3.3 4.3 3.2 7-.1 5.8-2.8 11.8-5 17.2a189 189 0 0 1-29.4 44.7l-9.7 10.6-3.2-.3c1.5-6 2.5-12 3-18 .4-3.7-.1-7.2 1.3-10.5 6-14 13.3-27.5 22.4-39.8a40 40 0 0 1 9.3-8.6c2.3-1.4 5.3-3 8-2zm-80 7.3c4.2 1 6.6 5.8 9.2 8.8-.1-3.2-1.6-5.8-3-8.7l4.2 4-.5 4.6 3 29c-5-8-11-15.4-17-23-1.3-3-1.2-7-.8-10.2.4-2.3 2-5.4 5-4.7z" class="C"/><path d="M53 181c5 1.6 9.6 5 13.3 8.7 11 10.7 20 23.8 28.3 36.7 1.6 2.4 2.6 4.6 3.3 7.4-8.8-10.3-18.6-20-29.6-28-6-4.4-12.6-8-20-9-1.6-4-3.7-9.3-2-13.5 1-3 4.3-2.7 6.8-2z" class="B"/><path d="M190 190.6c3 .5 2.8 4.2 2 6.5a37 37 0 0 1-7.5 11.5c-3.2 1.8-6.8 3-10 4.5-2-2-3.3-4.2-6.4-4-4.4.3-8.5 4-12.2 6 1.7-3.7 3.6-8 6.4-11A95 95 0 0 1 179 193c3.2-1.4 7.5-3.3 11-2.4zm-150 14h15c2 0 4.2 1.4 6 2.4 14.8 8.6 27 22 37.8 35.3a16 16 0 0 1 3.3 6.5c-6.7-4.8-14-8.7-21.4-12.4L43 220c-4-3.5-6.2-10.7-3-15.4zm173 3.8c1.7.5 3.8 1.6 4.3 3.5 1 3.6-1.4 7-3.7 9.5-3.2 3-7 6-10.8 8.2L185 232c-5-.2-10-2-15-2.7 2.6-3.7 4-7.4 5.6-11.5a108 108 0 0 1 24.3-8.8c4-1 8.8-1.5 13-.4z" class="C"/><path d="M170.4 216c.6 4.3-3 9-5.3 12.2-3-.5-6-1.6-9-2-1 .5-2 1.2-3 2-1 5-2.7 9.7-4.4 14.4-5.6 1-11 3-16.4 4.8l18-24.8c2.3-4 7.4-6.6 11.5-8.4 3-1.2 6.5-1.7 8.3 1.8zm-152 3.6c8.8.4 16.8 3 25 5.8 12.7 4.6 24.6 10.3 36.8 16.3l20 11c-7.3-2-15.5-4.5-23-3.6l-15 1.2c-4.5.5-8.2-1.5-12.3-3-10.7-4.3-22.2-9-31.3-16.2l.1-11.6z" class="B"/><path d="M264 221l-2 14c-.2 4.2 3.7 7 6.5 9.6 2 1.3 5.2 4 7.4 2.3 7-3.2 13.2-8 21-7.8 7-.3 13 6.6 20 7.8 4.7 0 9-1 13.8.2 2 8.6 2.6 17.3.5 26-.5 1.8-1 3.6-2.5 4.7-4.5 3-10 5-15.2 6.8-4 1.4-8 2-11.7 4l-19.6-17c4.7-.6 9.2-2 14-3 5.6 4 12.2 6 19 6.6 2.5.2 5.3.7 7.7-.5.5-1.6-1.5-2-2.7-2.6-6-1.2-14-1.7-19-5.5 7.8-2.8 15.6-5.8 23.5-8.4.3-2 .6-4.2-2.2-3.8L287.8 266c3-7.8 7.8-14.3 14.8-19-.4-1-1-2-1.5-2.7-4-.2-5.3 2.7-7.6 5.3-4.5 5.3-7.7 11.3-10.5 17.7l-5 1c-3-1.2-5.5-3.3-8.2-5-8.2-5.2-16.8-9.5-25.6-13.5 2.7-5.5 6.2-10 9.5-15.2 1-1.2 1.3-2.5 1.7-4-1.6.3-3 0-4 1.6-4 5.2-8.4 10-11 16-3.6-1.6-7.3-3-11-4.4l-.8-4c6.2-5 13-9.4 19.2-14.2 4.4-3.7 11-4.6 16.4-4.3z" class="D"/><path d="M159.5 233.2c20 2.3 39.6 7.5 58.7 13.7 31.2 10.5 61.3 26.6 83.6 51.3C321.5 320 333 348.8 340 377c5.7 21.4 9 43.3 9.5 65.4-20.7-2.8-41-7.5-60.8-14.2-29-10.5-57.5-25.7-79-48a165 165 0 0 1-26.6-41.4 237 237 0 0 1-18-59c-3-15.5-4.4-31-5.6-46.8zm55.5 2.2c4 .6 8.3 1.8 9.4 6.4-8-2.8-16-4.8-24.5-6.3a59 59 0 0 1 15.2-.1z" class="B"/><path d="M18.4 237c3.4 2.3 7 4.2 10.5 6-3.5-.5-6.8 0-10.2.7h-.2V237z" class="E"/><path d="M28.8 243l1.6 1a91 91 0 0 1-11.7-.3c3.4-.6 6.7-1.2 10.2-.7zm9.2 4c4.3 1.8 8.7 3.3 13 4.7-3.3 2.5-5.5 5-6.5 9L32 264c-2 .5-4.4-.7-6.4-1.2l2.3 2.7-2 .6c-2.6-.5-5-1.4-7.5-2.3v-17.3c6-1.2 13.8-2.5 19.5.5z" class="C"/><path d="M154.6 246c2 14 3 28 5.2 42 5.4 25.2 14 50.5 27.5 72.6a149 149 0 0 0 32 37c22.6 18.8 50.3 31.6 78.3 39.8 11.5 3.7 23 6.6 35 9-14.6 2.5-29.6 3-44.5 2.6-22.3-.6-44.6-4.8-64.8-14.3a131 131 0 0 1-58.4-54.5c-13-23-18.5-49-18.5-75.2-.1-20 3-39.7 8.3-59z" class="B"/><path d="M147.5 247.6l-3.4 17.7-16 .1c1-4-.2-6.7-2-10a105 105 0 0 1 21.5-7.7zM58 255.3l23-1a65 65 0 0 1 19.1 3.8c-3 4.7-3.5 7.5-2.7 13.2-9 1-18 1.6-27 2.5a31 31 0 0 1-15.1-2.1c-3.2-1.4-6-3.8-6.2-7.6-.7-5 4.2-9 8.8-8.7zm50.2 2c3-1 6.6-1 9.8-1 5.7 1 7.4 8.3 3.7 12.4-3 3.5-9.7 5.7-14.3 4.6-2.6-.3-4.5-3.2-5.7-5.3-1.3-4.4 2.6-9.2 6.4-10.8z" class="C"/><path d="M189 259.6a163 163 0 0 1 9.6.7l13.7 15.7c4-3 8-6 11.5-9.6 2.4 1 4.6 2.4 7 3.6-1.2 7.3-2.7 14.6-4 22l3.3 4c3.2-2.4 5.8-4.7 9.8-5.7 4-1 8-1 12-.3.5 7 2 13.3.3 20.3 4.2-4.5 8.7-9 12-14.2 3.2.6 6 1.2 8.3 3.8-1.6 3-1 6-.8 9.3.1 7 2 14 3.2 21.2 4.7-.2 9-1 13.6.3 7.3 2 14.8 7 17.8 14 3.7 10 .6 20.2 1 30.4 1 14.4 6.7 28.5 15.5 40 1.2 1.6 2.2 3.2 3 5-5.3-3.3-8.6-8-12.2-12.8-6.7-9.4-10.4-20.4-12.6-31.6-.7-3.3.5-7 .6-10.5.4-7.6-.5-16.2-5.6-22.3-4.5-5.3-12-6.4-18.6-5a3782 3782 0 0 1 8.9 40.7c1 2.8-2 6.3-4.2 8-4.4 1.3-10 .3-14.4-.2-5-.4-10-2.4-13.7-5.5-1.8-3-2.5-7-2.5-10.7 1.3-9.6 5.5-17.3 9-26 1.3-3.4 4.5-6.2 7-9-1.4-9-3.8-17.7-3.2-27-6.2 6-11.7 12.7-17.8 18.8-9.4 8.8-20.4 16.2-31.6 22.4-4.4 2-9.3 4.5-14.2 4.7 4.6-3.7 10.7-5.8 15-9.8l23-20-18 .8a47 47 0 0 1-15.9-3.8c.1-6-.1-12.2 1-18 1.2-5.8 2.5-11.5 4-17.2-8.7 4.6-20 10.4-30 9.3 9.8-4 18.5-10 27.8-15-2.5-4-5.3-7.3-7.4-11.3-1-2-2-4-3.2-5.8-2.6-1.4-5.4-2-8-3.3z"/><path d="M22.4 262.2c1-1.2 3.6.1 1.6 1-1.2.1-1.8-.3-1.6-1z" class="B"/><path d="M18.4 264c2.5 1 5 1.8 7.5 2.3a62 62 0 0 0-7.5 3.3V264z" class="E"/><path d="M44.5 265c.6 4 2 7 5.5 9a41 41 0 0 0 18.8 4.6c-5.3 3-10.8 3.6-16.8 5-10.8 2.2-22.5 4.3-33.6 3v-12.6c8-4.4 17.2-7.2 26-9.2z" class="B"/><path d="M126.2 269.6a100 100 0 0 1 15.7 10.4 377 377 0 0 0-1.2 21c-8.2-7.3-15.7-15.2-22-24.2 3.3-1.8 5.5-4 7.6-7.2zm9.8.4h7.2l-.6 4.8-6.7-4.8z" class="C"/><path d="M260.5 273.5c2.6 1.2 5.4 2.6 6.2 5.5-7.7 3-17.3 1.5-25-1 1.4-1.6 3-2.8 5-3.5 4-1.7 9.6-3 14-1z"/><path d="M100.7 275.3c3 2.3 6.3 2.7 10 3.2-3.5 11-7.3 22.8-13.4 32.8-3 4.7-7.2 10.2-12.5 12.4-4.7 2-8.3-5-7.8-8.7 1.3-14.5 10.4-26.8 19.2-37.8 1-1.3 2.7-3.2 4.5-2z" class="B"/><path d="M91 276c-6.5 8.2-12.3 16.2-15.8 26.2-.6 1.6-1 3.6-2.3 4.8-8 7.4-16.5 14.3-26 20-4.3 2.5-9 5.5-14 6-2 .2-4.7-.2-6-2-1.5-2-.4-5.3.6-7.4 2.5-5 6.4-9.6 10.2-13.8C48 299 60.5 290 73 282c2.4-1.5 4.6-3.6 7.2-4.6 3.6-.7 7.3-1 11-1.4z" class="C"/><path d="M221.6 277.3c-.4 2.2-.8 4.4-1.3 6.5l-3.3-3.2a57 57 0 0 1 4.5-3.4z" class="B"/><path d="M115 280.7l8.2 10c2.6 3 5.6 5.2 7 9 4.6 12.4 9.3 25.8 10.6 39 .4 5 .8 11.3-2 15.6-2.2 3.3-6.5 3.7-9.4 1-4.4-3.6-6.8-10-8.8-15.2-5.7-13.8-8.4-28.3-10.2-43-.4-2.2.6-4 1.3-6 1.4-3.5 2.2-7.2 3.4-10.8z" class="C"/><path d="M212.3 285.6l5.8 7.5c.4 2.6 0 5.2.3 7.8.8 2 2.7 3.5 4.4 4.4 1.5 1 3.6.1 5.3-.1l12.6 16c-6 .8-11.7-.4-17.6-1l-14.6-1.8c1.3-11 2.8-21.8 4-32.7z" class="B"/><path d="M56.2 287.3c-5.6 4.7-11.4 9.2-16.6 14.3-1.5 1.4-3 3.3-5 4C29.8 307 25 308 20 309c.8 1.5 3.6 1.5 5 2-2.2.2-4.4.5-6.7.8v-2h1l-1-1V298c3.4-2.2 7-5.6 11-6.3a136 136 0 0 0 26.7-4.4z" class="C"/><path d="M18.2 291.2l.7-.4.7.4v.8l-.7.5-.7-.4v-.8z" class="D"/><path d="M244.7 298l-.7 13.5c-2.8-3-6-5.8-8.2-9 3.3-1 6-2.4 9-4.4z" class="B"/><path d="M327 299.8c2.4 6.7 2.3 13.6-2.4 19.3-3.4-5.2-6.5-10.5-10.3-15.5 4.2-1.5 8.4-2.6 12.7-3.8z" class="D"/><path d="M106.8 303.2c.5 3 1.3 5.8.6 8.7a174 174 0 0 1-12.2 38.3c-2 4.3-4.7 8.6-8 12.2-2 2-4.4 4-7.3 3.4-3.4-1-4.5-4.6-5-7.7-1-9.7 1.6-20 4-29.3 4.8 1.5 8.6-.1 12-3.4a72 72 0 0 0 14.2-19.7l1.3-2.4zm29.8 1c1.4 1 2.6 2 4 3l.1 8c-2.2-3.4-3.3-7-4-11z" class="C"/><path d="M25 311h5.7c-3.5 4.4-7.5 9.4-9 15-1 3 .5 5.4 2 8-1.8 2.2-3.6 4.4-5.4 6.6v-29l6.7-.8z" class="E"/><path d="M72.5 313c-.2 4.8.4 8 2.7 12-1 3.6-1.2 7.4-4 10-3.7 3.6-7.8 7.4-12.6 9.4-3.6 1.4-8-1.5-7.4-5.5.5-4.4 1.6-10.7 5.7-13.2 5.5-4 10.5-8.5 15.6-13zm37 6.6v.1c1.8 5.3 2.7 10.8 4.5 16 1.2 4.4 3.7 7.6 2.7 12.4 1.5-.2 2.3.1 2.6 1.2-.8 2.4-1.3 4.7-3 6.5l.3-6c-1 3-1.8 7.3-4.8 8.8-1.6.8-2.6.3-3.7-1-2.2-2.7-2.8-6.7-3.6-10v-.1h0c0 2.4-.2 4.5-1 6.8a18 18 0 0 1-2-8.5c.4-1.3 1-2.2 2-3.2 1.3-7.7 4.7-15 6-22.8l.1-.4z" class="B"/><path d="M48 332c-1 4-2.3 8.8-.4 12.6 2 3.5 5.4 4.5 9 5a34 34 0 0 0-.9 13.6c.8 3 2.3 6.4 5.4 7.6 5 2.4 10.5-.4 15.6-1a29 29 0 0 0 8.3.2v3.3c-4 3.7-7.5 8.7-8.6 14-1.2 7.4.3 15.6 2 23 .6 2.8 2 5 3.6 7.3-1.2 3-2.4 5.8-3.5 8.7l-19.8-26.4L55 393l-12.5-27.6-12.2-28c6.7.4 12-2.4 17.6-5.5z" class="E"/><path d="M26 339.7c1.7 3.2 2.8 6.7 4.3 10l19.3 44.6a74 74 0 0 0 6.6 11.4 324 324 0 0 0 21.7 27.8c1.2-.7 3.6-1 4-2.6l5-11.8a22 22 0 0 0 8 1.6L85 446l4 8.7c-3.3-1.2-6.5-2.3-10-2.3-3.6.1-7.2 1-10.7 1.4l-25-40L19.8 363c-2-4-1.4-9.3-1.3-13.7 1.8-3.5 5-6.7 7.5-9.7zm45.7 1.3c-.7 8.4-2.7 15.8.5 24-2 .5-4 1.3-6 1-2.2-1.2-5.4-2-5.3-5.2a33 33 0 0 1 2-13.2c1.5-2 4.4-3 6.3-4.8 1-.7 1.8-1.3 2.6-2z" class="D"/><path d="M270.3 344.2c2.6 7.3 4 15.2 5.6 22.8 1 4.4 2.2 9 1.5 13.5-5.8-2.8-12-1.8-17.4-5.7.6-10.8 4-21.8 10.3-30.6z" class="B"/><path d="M101.6 346c-.2 3 .6 5.7 2 8.5l3.2 7.7c-8 9.4-14 20-17.8 31.8-1.2 4-2.3 7.8-2 12h2.8c2.3-11.2 6.8-21.6 13-31.2l-.8 19.4c1.4-.2 2.6-.6 4-1.2l2-24.2c.1-2.4 1.6-3.7 3-5.4a388 388 0 0 1 10.7 48.5c.2 2 1.6 2.2 3 3.2l1.8-2.3-11-50c-.7-2.3.5-4.7 1-7 2-1.8 2.4-4 3-6.5 2.7 5 6.5 11.3 12.5 12.8 3 1 5.3-.3 8-1.6 2.2 3.4 5 6 8 8.7l-19.4 7c-.3 4.6 2.8 9 4.4 13.4-2 2.5-1.8 5-1.2 8l2.8 19-2 7c-1 3-3.4 5.7-5.2 8.3L113 417c-2.3-3.4.7-9.3-1-13-1-2.7-4.7-1.7-6.8-1-3.4 3.3-5.8 7.6-9.2 11-3.4 2.2-8.2-.4-11.7-1.4-1.6-3.7-1.8-7.5-2.4-11.5-.7-4.2-1-8.5-.3-12.7 1.4-6 7.6-10 8.8-16.4.1-1.7-.3-3.5-.6-5.2 5.4-6 9-13.2 11.8-20.8z" class="D"/><path d="M104.5 347.7h0v.1c.8 3.3 1.4 7.3 3.6 10 1 1.3 2 1.8 3.7 1 3-1.5 3.7-6 4.8-8.8l-.3 6c-.4 2.3-1.7 4.7-1 7 4.3 16.5 7.8 33.3 11 50l-1.8 2.3c-1.5-1-2.8-1-3-3.2a388 388 0 0 0-10.7-48.5c-1.5 1.7-3 3-3 5.4-.7 8-1.3 16-2 24.2-1.3.6-2.5 1-4 1.2 0-6.5.7-13 .8-19.4-6.2 9.5-10.8 20-13 31.2H87c-.2-4.2 1-8 2-12 3.8-11.7 9.8-22.4 17.8-31.8-1.4-2.4-2.4-5-3.2-7.7.7-2.3 1-4.4 1-6.8z"/><path d="M146.8 354.6c1.3 3.8 2.4 7.6 4 11.3-2.2-3-4.7-5.3-6-9l2-2.4zm-128.4 19l19.4 40.5c2 4.6 5.2 8.8 8 13.2L63 454.8c-15 2.7-29.8 6.4-44.5 10v-91z" class="E"/><path d="M154.2 374.3c11.8 25 31 46 54.7 60.3l-7.8 17a176 176 0 0 1-39-29.8c-10.7-12.3-19-26.5-25.8-41.3 5.8-2.6 12-4 17.8-6.3z" class="B"/><path d="M77.2 459.3c6.3-1.4 12.5 2.6 17 6.5 4.7 4.5 10 9.4 16 12 2 1.2 3.5 3.2 5.2 4.8l47.6 9c2.6.2 4 3 5.6 5 3.6 4 6.6 8.7 10.4 12.7 6.2 3.7 13.6 6.2 19.3 10.7 2.6 4 4 9 6 13.2l-16-7c-2-1-4-1-6-1l-21-.5c-5-.1-10 .3-15-.2l-31-5c-2-.5-4-1-6-2-8-4.3-16-8-24-12-2-1-3.8-2-6-2l-50-3.6c-3-.2-2 1.7-2 3.6l52.6 3.7c8 3.6 16 8 23.7 12 9.8 6.3 23.5 5.6 34.7 7.6 1.8.3 3.3 2 4.6 3 3.4 3.3 7 6.2 10.6 9.4 1 1 2.3 2 3.7 2.4 6.6 2.6 13.4 4.6 20 7 3.7 1.4 6.7 4.5 9.5 7.2 7.3 7.4 14 14.8 19.3 23.8 3.3 5.5 7 10.5 12.3 14.2l-35.5-.1a27 27 0 0 0-4.5-5.5c-8.6-7.8-19-13.3-28.7-19.3-5.4-3.5-10.5-7.6-15.8-11-1.7-1-3.3-2.2-5.4-2.2-6.3-.1-12.6-.2-19 .4-2.5.2-5 .4-7.3-.5a111 111 0 0 1-29.1-18c-5.3-.2-10.6.2-16-.2a48 48 0 0 0-16-1.4c-5 1.5-10 3-14.6 5.4-1.4.6-2 3-.2 3.3 4-.6 8-2.2 12-3.4 2.8-.8 6-2.6 9-2 3.3.2 6.3 1.4 9.5 2.2 5 .8 10.5-.4 15.4.6 5.2 3.6 10.5 8 16.2 11 5 2.7 10.4 6.2 16 7 8 .1 16-1.3 24-1l19 13c9.7 6.7 22.4 12.5 30.2 21.5h-155l-.7-123.3 55.8-11zm50.8 17.2c6.5 1 13 1.2 19.3 3 11 3 22 5 32.8 8.2 4 1.2 7.6 2.7 10.8 5.3 18 14.2 37.4 30 58.3 39.6l39 18c4.5 3 6.7 7 10.2 10.8l29.4 32H262c-3.7-.1-7 .5-10.4-1l-11.3-5.7c-2.5-1.5-5.2-2.7-6.6-5.4-3.4-6.2-5.6-12.6-7.5-19.4-3-5-6.7-9.4-9.8-14.3-2-3-4.6-6-5.8-9.3-2.2-7-5.3-13.8-8.6-20.3-5-6-15-8-21-13-5.2-5.2-9.7-11-14.7-16.4-4-1.3-8-1.7-12-2.7a422 422 0 0 0-37.4-6.6l-2-2.4c4.5-.4 8.7-1.2 13.2-.5z" class="D"/><path d="M253 481.5c2 .4 4.3 1.7 6 .7l-13 7.8c-5.6 2.3-13 1-19 .1-8.7-1-17.4-.8-25 4.4l-1.3-1c0-7.6 4.7-14 12-15.7 12.8-3 27.6.2 40 3.8zm6.7 2.2a168 168 0 0 1 31.6 14.7l-13 9c-5.8 4-13 3-19.4 1.7-3.3-.7-5.6-3-9-3.2a27 27 0 0 0-22 8.3l-22.7-17.4c8.2-4 16.8-3.4 25.6-2.4 5.3.4 12.3.8 16.8-2.5l12-8zm33.3 16c3.7 2 7.2 4.4 10.7 6.7 11.4 7.8 23 16.5 32.4 26.6 4.6 5 9.3 11.4 10.7 18.2.7 3.4.1 6.5-.8 9.7l-9 1c-6-.7-12-3.3-18-3.3l-13.8-.5-12.5-13c10.5-3.8 21.5-1.6 32.3-2.6 3-.6 4.2-1.8 5.2-4.7-2.2 1-4.7 2.3-7.2 2.3l-19-.7c-5.2 0-10.2 1.4-15 3.5-6.7-4-13.8-6.7-21-9.7 10-6.2 20.3-4.4 31.3-8.8L313 515c-4.8 1.8-9.3 4.6-14.2 6l-20 4c-5.4 1.2-10.3 3.6-15 6.6a123 123 0 0 1-32.3-15.6 20 20 0 0 1 12.3-5.8c8-1 14.3 2 22 2.8 4 .4 9.6.4 13-2l14-11.5z" class="C"/><path d="M146.7 528c10 .1 20.2 1.4 30.3 1 4 .1 7.4-.7 10.8 1.2l18.2 8.7c3.2 8.6 10 16.4 15.2 24 4.8 6.2 4.5 16.4 9.5 22.5 4.5 3.2 9.7 5.3 14.3 8.4-8.2 0-16.4-.1-24.7 0l1-2.5c-10-5.6-14.4-20.2-22.5-28l-18.3-17.7c-7.6-5.2-15.6-4-23.6-8.4l-10.3-9.2z" class="D"/><path d="M308.7 562.2c8.8.2 17.5.7 26.3 2 3.6.7 6.5-.7 10-1.4-3.5 5-9.8 8.6-16 8.2l-13.4-.7-7-8.2z" class="C"/></svg>