<svg xmlns="http://www.w3.org/2000/svg" viewBox="0 0 400 610" width="533.3" height="813.3" xmlns:v="https://vecta.io/nano"><path d="M0 0h400v610H0V0z"/><path d="M18.5 15.4l2.4-.1h361v579.5H18.4V26l.1-10.6z" fill="#fff"/><path d="M214.2 82.2c3.6-.4 7.3-.2 11-.1 1.6 0 2.7 1 3.8 2 4 3.8 4.2 10.5 1.3 15-5.7 9-14 12.8-21.6 19.5-4.4 5.2-7.8 11.4-11.4 17.2l14.7-3.2c1.8-.4 2.8-1.6 4-2.8 4.6-4.7 8.8-10 14.5-13.5 3.4-2 7.6-4 11.7-4 3.3.2 6 2.2 7.4 5 1.7 3.6 3.3 7.2 2.3 11.3-.8 4-4.8 6.4-8.3 7.8-9.6 3.4-18.8 1.8-28.6 1.3-7 .6-14 2.3-20.8 3.5-3.8 7-7.4 14.2-10.6 21.5l2.8 7.5c3.5-1.7 7.5-3 10-6a81 81 0 0 1 16.1-15c3.3-2.2 7.5-4.4 11.5-4.5 3-.1 5.7 2.5 7.3 4.8 2.2 3.3 3.8 8 2.3 11.8-1 3.2-4.5 5.4-7.5 6.7-7.6 3.5-17 3.5-25.2 3.2-4.6-.5-8.6 2.6-12.6 4.4l5.4 19.2 29 6.2a48 48 0 0 1 8.4 3.2c-.7 1.8-1.3 3.5-2.7 5-7 8-14.4 15.6-23 22 1.6 11.8-.5 23-3 34.4-.3 1.7-1 3.3-2 4.7-3 .1-6.2-1.2-9-2.4a65 65 0 0 1-23.2-18.8l-9.3 8c-1 1-1 2.3-1 3.6-1.3 14.4-1.6 29-1 43.3l13.3-6c3.3-1.3 5.4-4.6 7.7-7a43 43 0 0 1 16.3-12.6c3-1 6.4-2 9.3-.5 6 3.2 8.2 11.4 5.8 17.5-1.5 2-4 3.6-6.4 4.6-8.8 3.7-17 2.6-26.2 2.8-3-.1-5.2 1-7.8 2.2l-12 5c1 2.7 2.5 5 4.2 7.3 4-.5 8-1 12 .1 11.8 3 23 11.3 34 17 2.3 1 5 1 7.5 1.2l21-.4c4.5.3 7.8-4 10.7-6.7 1.7-3.4 1.8-7.2 4.6-10.3 3.3-4.2 7.8-5.3 12.2-7.7 4-5 8.7-10.4 11-16.5-12.7 7.7-24 16.2-38.7 20.8-1.6.4-3 .2-4.8.2-.1-2.4-.1-5 .3-7.3l8-35.4c-8.6-6-16.3-13-23-21-1-1.3-2-2.7-2.3-4.4.6-1.3 1.6-2.3 3-2.8 13.3-4 26.2-5 40-6.7a94 94 0 0 1 13.1-27.7 42 42 0 0 1-11.1-10c-2-2.8-3-6.5-2.6-9.8.8-3.5 4-6.5 7-8.4 3.8-2.4 8.3-1 11.7 1.2a25 25 0 0 1 7.4 11.8l4 12c.8 3.3 1.3 6.4 4 9l11.7 10c3-13.3 4.8-27 5.8-40.5.1-1.7.1-2.6-1.2-3.8l-10.7-11.3c-4.7-5.5-11.2-7.2-16.8-12.2-4-3.6-9.2-8.8-9.5-14.6-.1-6 4.8-9.3 9.6-11.5 4-1.6 8 .4 10.6 3.4 6 6.7 7 15.6 8.3 24 .5 2.4.5 5.6 2.2 7.4 2.6 3 5.5 5.8 8 9 .3-10.8.1-21.6-.8-32.4-.2-3.5-2.5-6.6-4.2-9.6-4-6.5-8.6-14.6-8.7-22.4.3-3.6 1.8-9 5.6-10.4 3-1.3 6.8-1.8 10-1 4.6 1.4 7.3 5.8 7.8 10.4 1 9-2.4 17-4.8 25.5-.8 3-.4 5.6-.2 8.5a228 228 0 0 1 .5 25.6c2-3 4.4-5.6 6-8.6.7-5 .4-10 1.2-15 1.2-7.5 2.6-14.6 8.7-19.7 4 .3 8.2.3 12.2.8 3.8.8 6.3 5 6.6 8.8-.1 4.7-3 9.2-6 12.6-4.5 5.4-10.2 9-15.8 13.3-4 4.5-7.7 9.7-11.6 14.4-2 2.3-1.7 5-2 7.8l-4 33.4 11.3-7.2c1.7-1.2 3.5-2 4-4 2.3-6 3.7-12 7.2-17.7 3.2-5.3 6.8-10.4 13.4-11 5 0 10 4.4 11.7 9 1.3 5-1.5 10.7-5.3 13.8-7.3 6.2-17 9.4-25.8 12.5-4 2.2-7.3 5.3-11 7.8-2.3 1.8-5.2 3.4-7 5.7l-2.8 11.5c10.3.4 20.5 1 30.8 1.7l2.3 2.5a33 33 0 0 1-3.5 6.2 188 188 0 0 1-22 27 138 138 0 0 1 4.4 31l11.3-3c7.7-.8 16.4 1.3 21.8 7 3 3.2 6.4 7.4 7.2 11.8.4 6.3-.7 12.7-1 19-.2 6 4.4 12 6.2 17.5 2 6.8-.4 13-1.8 19.5-1 3.6 2 7 2.8 10.5 2.6 9.7-.7 19-5 27.7-4 7.3-7 15-11.5 22-6-3-10.7-8-17-11-7.5-4.3-15.2-1.3-23-4.8-6.3-2.8-10.2-8.3-12.3-14.7-1-3-1.5-7-3.5-9.8-5.6-1.7-11-2.8-16.2-5.7l-8 8.4c-2 2-4.5 3.4-6.4 5.5-2 2.7-2.6 6.5-3 9.8-.4 5.6-1.3 11.7-3.6 17-2.6 5.4-7.4 9-13 11-6 2.6-12.5 4.6-18.5 7.4-3.7 4-6.3 9.5-9.2 13.8-2.6 2.4-6.2 4-9.3 5.7l-29.4 14.6c-2 1-4 2.8-6.2 2.3-3-2.7-5-6.3-7.5-9.4-7-9.7-14.6-20-19-31.2-1.6-3.6-1.4-7.3-2-11-1-1.8-3-3.2-4.4-4.5-4.4-3.4-8-7.7-10.3-12.7-3.2-6.4-2.8-14.8-2-21.7-1.8 1.8-3.5 4.3-6 5.2-3.3 1.4-6.7 2.6-10 4-6.5 2.6-14.8 3.3-20.6 7.3a172 172 0 0 0-22.7 19.4c-1.4 1.4-3 2-5 2.8a105 105 0 0 1-16.3-24.5c-2.6-6.7-4.7-14.8-3-22 .6-3.3 2-6.3 3-9.4 1-9.3-3-19.8-.4-28.8 2.5-8.5 10.5-14 13.7-22.2l6-14c3-6.3 9-11 15.6-13.5 5-1.7 9.6-1 14.5.3V292l-11.6-13.3c-1.3-1.4-2.4-3-4.4-3.4-7.7-2-15.2-3.8-22-8-3-1.8-6-4.4-7.5-7.6-1.3-3-.3-6.4 1-9 1.7-3 4-6 7.5-6.8 5.2-1.2 10 1.4 13.4 5 5.5 5.8 9.2 13.6 12.3 21 2 5.6 7.6 9.2 11 14.4-.4-14-2.5-28-5-42-.4-1.8-.5-3.4-2-4.8a279 279 0 0 0-10.2-9.8c-1.6-1.6-3.5-1.4-5.6-1.8-7.2-1-15-2.6-21.4-6.4-3.5-2-6.8-5.2-8-9.2-1-3 .4-6 2-8.5 1.6-2.7 3.8-5.2 7-6.2 4.3-1 8.6.5 11.8 3.3 6.5 5.5 9.5 12.3 13.6 19.5 2.5 4.6 6.4 7.5 10 11.4-3.2-10.7-6-21.5-9.2-32.3-1-3.3-1.3-6.4-4-9-5.8-6-12-12.2-14.5-20.5-.8-3.7-.5-9.2 3-11.7 4-3 9-4.5 13.8-2.2 3.6 1.6 5.4 5.6 6.3 9 2.5 10.3.7 19.6.1 29.8l9.4 33.4c4 12.8 5.4 26.5 7 39.8.6-4.4.3-8.7.2-13-.3-9.3.4-19 6.2-26.7 4-.5 8-1.2 12-1.3 6 2.3 8.5 8.7 6.6 14.7-3.6 9.3-10.3 15-17.4 21.4-3.3 2.6-3 6-3.8 9.8-1 5.4-2.7 10.7-2.3 16 .2 5.5 0 11 0 16.4l10.8 5c6-1.7 12-3.2 18-4-5-2-10-4.4-13.7-8.7-2.8-3.4-2.2-8.6.4-12 2-2.6 4.8-5.5 8.3-6 4.4-.4 8.3 2 11.3 5 5.7 5.7 9.7 13.5 13.2 20.8a191 191 0 0 1 6.9 3.4c-.6-15.2-.4-30.5 1-45.7-5.5 3.2-11 6-17.2 8-1.8.6-3.7.5-5.6.4-.5-2-1-3.6-1-5.6.2-13 2.4-26 8-37.8-10-7.7-20.8-16.4-27.2-27.3l2-3c13.6-3.6 27.2-3.8 41-5.3 4-6.4 8.5-12.4 13.3-18.2-1.3-3-2-7.5-5-9-6-4-12.5-8.3-17.4-13.6-3-3.3-5.5-7-5.4-11.7 0-4 3-8 6.6-9.5a61 61 0 0 1 11.3 0c4.3 2 6.6 8.5 8.2 12.7 2.3 5.8 2 11.7 2.7 17.8.3 3.2 1.8 6.3 2.8 9.3 2.2-2 4.6-4 6.8-6 2-1.7 3-4.7 4-7 2-4.5 4.5-8.7 6.2-13.3.4-5.3-.2-10.7-.3-16 .1-2.7-1.6-4-3-6a69 69 0 0 1-10.8-17.1c-1.4-3.6-2.5-8-1.4-11.8 2.6-5.8 10.2-8.5 16-7 5 2 7.7 8 8 13 .5 8.5-2.8 17.6-3.8 26-.2 3.6.3 7.2.4 10.8 3-6 6.7-11.4 10.4-17a8 8 0 0 0 1.6-4.8c.4-8 1-16 4.2-23.2 1.2-2.5 3-5.4 5.6-6.6z"/><path d="M218.8 86.2c2.7.4 6 1 7.5 3.6 1.5 2.5-.2 5.6-1.6 7.7-4 5.5-9.8 10-15 14.2.5-7.2 1-16 4.8-22.4 1-1.3 2.4-3.8 4.3-3.2zm-32 3c3.4 2.7 4 6.7 3.6 10.7l-2.5 17c-4.5-6.5-10.3-15-10.6-23-.6-4.7 6-6.4 9.5-4.7zM309 105c1.6.1 3 .7 3.3 2.3 2.6 8.3-.1 17.5-2.8 25.5-4.2-7-10.5-17-9-25.5 2-2.4 5.7-2.5 8.5-2.3zm-64.8 13.5c1 2 2.3 4.2 2.8 6.5.2 3-2 4.6-4.3 5.6-6.8 2.6-15.3 2.2-22.4 1.7 4.5-5 9.8-10.5 16-13 2.7-1.2 5.2-.7 8-.7zm90.3 12c2.6.4 6 1.2 7.8 3 2 1.7.6 5.3-.4 7.2-3.5 6.2-10.2 11-16 15.3.2-7.3.4-16.3 4.4-22.7 1-1.2 2.3-3.5 4-3zM154.3 132c6.8 6.7 6.8 17 7.7 26-5.2-4.2-11.3-8.4-15.4-13.7-1.7-2.3-3.5-5.8-1.7-8.5 1.7-3 6.5-3 9.4-3.8zm128.7 4.3c3 1 5 3.5 6.5 6.4a63 63 0 0 1 4.3 18.8c-5.8-3.6-13-7.7-16.8-13.4-1.5-2.4-3-6.3-.4-8.5 1.7-1.5 4-3.2 6.3-3.3zm-57.8 14.5c1.7 1.5 3.3 4 4 6.2.3 3-3 5.5-5.4 6.6-6.4 3-14.4 2.5-21.3 2.4 4.3-5 9-10.7 14.6-14 2.2-1.3 5.8-2.6 8.2-1.2zm-160.2 8c3.5.6 7-.2 8.8 3.5 3.2 6.8 2 16 .8 23-6-6-11.5-12-14.2-20.4 1.2-2.4 2.3-4.5 4.6-6zM179.2 170l9.3 31.6c11.2 1 22 3.7 33 6.2L201 227c-2.7 2.7-1.6 5.6-1.6 9 .8 9-1 17.7-2.4 26.7a47 47 0 0 1-21.7-16 24 24 0 0 0-6-6.3c-10 9-20.4 17.3-33 22.3 1-13.2 3.7-26 9.5-38L139 219a135 135 0 0 1-20-17.9l33-3.6c1.6-.2 3.2-.4 4.8-1 1.4-.8 2.2-2.5 3-3.8a93 93 0 0 1 19.3-22.9zm167.6 13.5c3 .6 4 3.4 4.8 6 1 2.3-1 4.2-2.6 5.7-5.2 4.8-12.5 8-19 10.7 2-6.2 4.2-13.3 8.3-18.4 2.2-2.6 5-4.8 8.5-4zm-75.3 3c4.2 2.8 6 8.2 8 12.7-2 2-4 4-5.8 6-4.5-3-10.6-6.8-12.2-12.3-.6-4.5 6-10 10-6.3zM49 201c2.6-1.3 5.8.6 8 2.2a55 55 0 0 1 12.5 16.5c-6.5-1-13.8-2.2-19.6-5.4-2-1-4.4-3-5-5.2.2-3 1-7 4.2-8z" fill="#9260c7"/><path d="M159.3 205c2 7 2 14.3 3.3 21.4 1.4.7 3 1 4.6 1.6l4.3-20.5 2.7.7c.5 1.5 0 3.3-.2 4.8l-2.7 14.6 4.5-.2a48 48 0 0 1 9.5-16.1c.4 1.6 1 2.7 2 4-3 3.6-5.2 7.7-7 12 2.2.1 4.5.1 6.7.5 1.6 1.2 1.5 4.6-1 5-6 2-12.4 2.3-18.5 1.4-5-.7-9.4-3.6-13.4-6.5-1.8-1-1.2-3.2-1.5-5l5.6 1c-.4-5.8-1.7-11.3-2.8-17l4-1.8z"/><path d="M279.7 209.7c5.3 10.4 9.8 21 13.4 32 .6 2.7 3.7 2 5.8 2.3l29.7 1.3a219 219 0 0 1-21.2 25.1c-2.8 2.8-1.7 5.4-1.3 9 1.7 9.6 2.4 19 3.4 28.8L301 311c-6.8-4.4-14-9.5-19.2-15.6-2-2.3-3.6-5-5.8-7.2-1-1-2.2-1-3.5-.6-2 1-4 2.6-6 4-8.8 6.3-18.2 11.7-28.3 15.6l5.7-25.2c1-3.4 2.5-7 3-10.4-1.4-2.6-4.2-4.7-6.3-6.7l-16.7-15.3a152 152 0 0 1 33.5-5.9c3.4.1 5.3-2 6.4-5a109 109 0 0 1 16.3-28.7z" fill="#9260c7"/><path d="M293.2 224.3l8 7c-.7 2.4-1.4 4.8-2 7.2l-5.8-14.2z" fill="#fff"/><path d="M106 230c2.4-.6 5.7-.6 7.5 1.3 1.7 1.7 3.3 3 2.5 5.6-1.8 7.5-9.4 14-15 19 .1-6.2-.1-12.7 1-18.8.6-2.4 1.6-5.7 4-7zm-50 19c2.6-1 5.4.8 7.4 2.4 5 4.6 8.4 11.6 11.2 17.8-6.3-1.7-13.6-3.3-19-7-2.5-1.6-3.5-4-5-6.3 1.4-2.6 2.4-6 5.5-7z" fill="#9260c7"/><path d="M266.2 251.8c2.8 6.3 4 13.3 5.8 20l4.5.8c.4-6.5.1-13 .7-19.4-.1-1.8 2.8-2 4-2.7l-.7 22 4.3-.8c1.8-6.4 2.7-13.7 7.8-18.4l2.5 2a51 51 0 0 0-6.2 15.2c2.2-.6 4.7-2 7-2a44 44 0 0 1 3 2.5c-1.4 1.4-2.5 2.8-4.4 3.5a47 47 0 0 1-14.5 3.1c-6.7.7-13.7-2.4-18.8-6.6 1.2-2.5 3.6-1.8 6-2.5-1.2-5.3-3.3-10.3-4.5-15.6.2-2.4 2-3.2 3.5-1.2z"/><path d="M122 283c3.3.4 6 2.6 8 5a67 67 0 0 1 9.5 14.7c-7-.3-14-2.7-19.8-6.4-2-1.4-4.6-3.5-4-6.2.3-3.3 3.5-6 6.4-7zm80-.2c2.3 1 3.2 4.2 3.8 6.5 1 2.7-2.3 5-4.3 6.2-6.7 3-15.6 2.5-22.8 2.4 4.7-4.8 9.7-10.4 15.6-13.6 2.2-1.2 5.4-2.6 8-1.3z" fill="#9260c7"/><path d="M278 300.4l11 10.6-17.7-1.4 6.7-9.3z" fill="#fff"/><path d="M93.5 309.4l14.7 6-8 8c-7.4-2-14.8-2.8-21.7 1.2-4 2.5-8.4 6.2-10.2 10.8-1 2 .5 4.6 2.7 3 2.4-3.3 3.6-6.7 7.3-9 5.8-4 12-3.7 18.6-2.6-5.8 5.7-9.7 12.6-14 19.5-10 0-18.5 5.5-25.2 12.7-1.4 1.4-2 3.6-2.4 5.4 6.4-1.2 8-6.4 13.3-9.6 3.7-2.6 7.8-3.8 12.2-4.7l-10.3 22.7c-4 .7-7.6 1.4-10.5 4.4-3.4 3.4-7 8-8 12.8.2 2 2.3 1.4 3.8 1.6 1.3-3.6 2.4-7.6 5-10.4 2-2.4 5-3 7.7-4.2L61 402.3l2 2.7 2.7-2c1.8-8.5 4-17 7-25 2.3 1.3 6 2.4 7.2 5 2.8 5.2.2 10.2 2.5 15.7 3.5-4 2.7-11.2 1.7-16-1.3-5.4-5.5-6.6-10-8.7a203 203 0 0 1 10.7-23.3 17 17 0 0 1 13.7 11.6c2 5.4.7 11 2.7 16.3l3-3.3c-.5-8-1-16.7-7-22.7-2.8-3-6.4-4.5-10.3-5.6 4-6.8 8-13.5 14-18.8 7.3 1.5 13.8 4.5 18 10.7 4 6.3 3.8 13 3 20.2l1.7 2.2 3.6 23c-4.2 5-8.5 10.2-14.6 13-8.6 3.8-18 5.5-26.7 9.2a126 126 0 0 0-26.1 21.2C56 422 52 416.2 49 410c-2.3-4.6-3.7-9.6-3.4-14.8.7-7 4-13.8 3.5-21-.6-6-2.3-13-1.4-19 .4-3.4 3-6.6 4.7-9.4 3.7-6.2 8.7-10 10.7-17 2.6-7.8 5.4-14.7 12.4-19.6 5.6-1.6 12.6-2.6 18-.1zm51.2 1c4.6 1.8 7.4 5.2 10.4 8.8-12.5 4.6-24 12-29.3 24.7-1.2-3.6-2.2-7-4.8-9.8a38 38 0 0 0-16.2-9.7l7.8-7.8c1.8-1.8 3.3-3.6 6-4L132 310c4.3-1 8.5-1.4 12.7.4zm198.6 3.4c4 3 8 7 7.8 12.3-.4 5.4-2 10.5-1.7 16-.1 7.8 6 14 7 22-.1 5.3-2.4 11-3 16-.3 2 .7 3.4 1.4 5a26 26 0 0 1 2 14.8c-.6 5-3.3 9-5.5 13.3l-7.4 15.3c-5.4-4-10.6-7.5-17-9.6-4.4-1.4-9.4-.7-14-1.3-3.4-.1-6.3-3-8.7-5-4.2-4-4-9.8-6.2-14.8-1-2.4-2.4-5-5-6l-14.7-5.7a48 48 0 0 0 4.3-22c-.2-4.6-2.2-8.5-3-13 1-3.8 3.5-7.3 6.5-9.8 5.8-4.6 12.6-6.2 19.7-7.6l10.4 18a41 41 0 0 0-20 9c-3.2 2.7-5.2 6.5-6 10.6 0 1-.8 5.3 1.5 4 3-3 3.7-8 7-11 5.2-5 12-7 19-8.5l7 21c-5 2.5-9.8 4.8-13 9.8-2.5 4-2.5 7.8-3 12.3l3 1.3c1.6-1.6.8-5.2 1.4-7.4 1.4-6.3 7-9.6 12.5-12 2.3 9 3.5 18 5 27.2 1.4-1 2.7-1.7 4.3-2.2-1.5-8.7-3-17.3-5.2-26 3.4 1.2 9 2 11 5.2 1.7 3.3 2.4 7 4.2 10.5l3.2-3c-1.4-4.4-2.4-8.7-6-11.8-3.8-3.3-8.4-4.4-13.3-5a206 206 0 0 0-7-20.5c4-.1 7.8-1 11.4 1.3 4.2 2.3 5.6 6 8.5 9.6 1.4.8 2.8-.6 3.2-2a20 20 0 0 0-10.9-11.4c-4.4-1.8-9-1.4-13.8-1.4-3-6.4-6.3-12.5-10-18.4 3.7-.6 7.6-1.4 11.4-1.3 5 .2 9.5 3 12.4 7a14 14 0 0 0 6 5.2c-.1-1.8.1-3.7-1-5.3-3.2-5.8-9-9.5-15.5-10.5-5.6-1-10.6 1-16 1-4.4-2.7-7.6-7.5-11.6-10.8 10-1 18-5.4 27.3-8 6.6-1.7 14.3-1.2 19.8 3.3zm-78 3.7c5.6-1.8 12-.8 17.8-.7 2.4.3 5.7-.2 7.5 1.7l11.7 11.7c-6.6 1.7-12.8 3.4-18.2 8a33 33 0 0 0-7.3 9.3 35 35 0 0 0-11.6-10.4c-3.5-1.8-7-2.2-10.8-2.7-.1-3-.7-6.4.8-9 2-4 6-6.5 10-7.7zM175 325c10.3 3.5 18 9.4 27.3 15 2.2 1.4 4.5 1.6 7 2l-5.3 11a92 92 0 0 0-15-6c-9-2.5-19-2.8-27.8.4-3.3 1.2-5.6 3.3-8.3 5.5l-11 9.3 2 3c4.4-4.4 9.4-7.6 14.3-11.3 3.5-2.7 7.7-4.2 12-4.8 11-1.5 22.5 2.6 32 7.7l-9 19-11.4-.3 10 3.5c-2.7 6.4-5.2 13-7.7 19.5-7.5-2.2-15-3-22.2.4-5.3 2.8-11 7-13.6 12.5-1 1.2.7 2.7 1.4 3.7 4-6.3 10-10.8 16.7-13.6 5.7-2 10.7-.7 16.3.6l-6.8 21c-4-.1-7.8-.4-11.6 1.4-6 2.7-10.3 8.2-11.3 15 1.6 0 2.6-.1 3.5-1.6 2.2-3 3.5-6.4 6.8-8.4 3.6-2.3 7.3-2.2 11.4-2.5l-5 18.2c-.8 3.4-2 6.3-1.6 10l3.7-.5c2-9 4.4-18 7-27 4.8 1.4 9.3 3.4 12.5 7.3 3.4 5 2 11.4 1.8 17l3.7.4.3-12.2c-.7-4.7-3.7-9-7-12-2.8-2.5-6.7-3-10.2-4l6.7-21c4.2-.6 8-1 12.2.4 6.3 1.8 10.7 6.8 13.3 12.7 1.6 3.5 2 7.2 3.2 10.7l3.2 2c-.7-9.6-3.4-18.8-11-25.3-5.4-4.4-12.8-5-19.4-5l7.2-18.6a50 50 0 0 1 19.6 2.3c5 2 9.6 5.2 11.7 10.3 2 5 1.2 11 1 16.3 1.2-.7 3-1 3.8-2 1.4-7.8-.1-17.2-6.4-22.7-7.6-7-18-8-28-8.2 2.6-6 5.5-11.8 8.3-17.7 6.5-.5 12.7-1.2 19 .6 5.6 1.5 12.6 3.8 16.4 8.4 5.6 7.4 5.2 15.5 5 24.3l3.4-2c.3-6.4.4-12.4-2.2-18.4-2.5-6-7.3-10.2-13-13-8.2-4.2-17.3-4.8-26.3-4.7l5.7-11.5 18.4.4c9 .2 17.7-2 26.8-.3 5.2 1 9.3 5 12.6 9 4.6 5.6 5.8 13.4 4.5 20.4-1 5.5-2.4 11.6-5.7 16-4.8 5.8-11 10.4-15.6 16.4-4.7 7-3 18.3-6.4 25.7a25 25 0 0 1-12.3 9.7l-17 7c-5 3.5-8 10.6-11.5 15.4-2.5 3.4-7.3 4.4-11 6l-26.3 13-18.4-28c-2-3.7-4-7.2-4.5-11.4-.6-3.4-.5-6.6-2.5-9.6-3.4-5-8.8-7.8-12-13-3.2-4.5-3.5-10.2-3.5-15.5.1-7 4-12.5 5-19 .2-5.3-1.7-10.7-2.5-16-1.7-7.7-2-16.2 1-23.7 3-7.4 10.7-11.8 17.3-15.6 7.2-4 17.2-7 25.2-4z" fill="#858585"/><path d="M158.5 375.5c3.3-.6 6.8-.2 10-.2-3.8 1.4-7.5 3-10.8 5.5-3.5 2.6-5.5 6-8.7 8.8l-1.8-2.6c2.2-4.4 7-9 11.3-11.5z"/></svg>