<svg xmlns="http://www.w3.org/2000/svg" viewBox="0 0 400 610" width="533.3" height="813.3" xmlns:v="https://vecta.io/nano"><path d="M0 0h400v610H0V0z"/><path d="M18.5 15.4c3.5-.3 7-.1 10.5-.1h353v349H376c-.1-4.8.5-10-.5-14.7-1.6-6-7-9.6-11.4-13.6-2.2-1.8-2-4.3-2-6.8-.1-5-.7-10-1.4-15-1.2-7.6-6.4-14-13.3-17.3-8-3.7-17.6-4.3-26-4-12.6 1-22.4 9.4-30.6 18.3-9-.4-17.2-1.6-26 1.3a397 397 0 0 1-6.2-63.4c3.8 1.5 7.7 3 11.7 4.2-1.3 10 0 20.3 2 30 1 4.4 1.4 8.5 4.4 12 4.6-.5 7.7-3 11.3-5.8a96 96 0 0 0 18.5-20.6 76 76 0 0 0 27 15.1c2 .7 4 1.2 6 1 2.5-2.4 2-7.5 2.6-10.8 2-9.8 0-18.8-.4-28.7 11.2-7.7 18.7-18 26.6-28.7-1.6-1.4-3.2-2.8-5.2-3.7a69 69 0 0 0-34.1-4.4c-4.3-11.6-10.4-22.2-16.5-33-2.3-3.7-3-7.7-7.4-9.4a68 68 0 0 0-21.4 45.9 99 99 0 0 0-24.6 7.4l7.6-66.4c4.7-2.6 9.2-5.7 14-8 6.4-1 13 .3 19.6-.7 5.5-1 11.5-2.3 16-6 1.4-1 2.3-2.3 2.7-4 1-5 .4-11.3-3.4-15-3.3-3.4-9.2-3.4-13.4-2-6.3 2.3-11.7 8-16.3 12.6l-8.3 9.7c-2.8 2.3-6.3 3.8-9.4 5.7 1.5-6 2.5-12.6 4.7-18.5 5-6.8 11.7-12.5 16.4-19.5 2.7-4 5-9.2 4.3-14-1-3.8-4-6.3-7.4-8-3.2-1.5-7.5-2.5-10.8-1-4 2-6.3 6.4-7.4 10.6-2.3 9-.8 18.2-.7 27.3.1 3.8-1.2 7-2 11l-5 25-9.6-12.2c-2-2.6-2.2-5.6-3-8.7-1.5-7-3.6-14.7-7.5-20.8-2.5-4-6.3-7-11-8.2-3.6-.7-7.2 2-10 4.3-3 2.4-5 5.8-4 9.8 1 5.3 5.6 10 9.5 13.6 5.3 5 12.3 7.5 18.6 11.4 1.7 1.2 3 3 4.4 4.5l11 13.7-4.8 39.6-3.5-4c-3.3-3-2.6-8.2-3.8-12.4-1.7-8-3.8-18.8-10-24.7-5.3-5-12.5-2.8-17.4 1.5-3 3-4.2 7.8-2.7 11.7 1.7 5 6 9.5 10 13 4.4 4.3 11.3 6.3 16 10 4 4.3 7.3 9 11 13.6l-.5 8.5-11.2 6c-.3 1.4-1.3 3.3-1 4.7a33 33 0 0 0 11.7 12.3c.1 23 2 46 6.5 68.8-6.2 3.4-10.4 8.5-14 14.4-6.8 1-13.4 2.4-19.8 5-5 2-10 3-15.3 4.4-5.6 2-12-.1-18-1 2.3-1.6 4.6-2.8 7.4-3.5 8.3-2.2 16-3.8 23-9 3.3-2.6 6.5-6.4 6-11-.2-4.2-3-7.2-5.8-10-2-1.8-4-3.4-7-3-5.2.8-9.6 4-13 8-5.5 6.2-8.6 14.5-12 22-1 2.4-3.5 4.3-5.4 6h-5.2l-2.4-56.4 4.6-4.6c9.5 6.8 20.8 10.7 32.3 12 2.3.4 4.6-.8 5-3.2 2.2-10.6-1.8-22.8-3.5-33.3 8-9 14-19.3 19.4-30 1-2.2 2.3-4.5 3-7 .1-2.5-3-3.2-5-3.2l-35 2-15.3-28.8c-1-2.3-2.8-3.8-4.6-5.5-5.5 3.8-10 9.8-14 15l-7-32c1.6-4.6 4.5-8.8 6.5-13.2 1.8-3 2.8-7 6.2-8.6 6.2-3.7 12-7.6 17-13 3.3-3.6 6-8 6-13 .2-4-2-8.2-5.5-10.2-3-.6-6.3-.5-9.5-.7-1.8.1-3.6-.5-5 1-4 3.5-6 9.4-7.7 14.2-2.3 6.6-1.8 13.5-3 20-2 5-5 9.6-7.5 14.5l-6.5-24.3c-.7-2.4-1.6-5-1.8-7.4 1.4-4.2 3.5-8.2 5.2-12.3 2-4 2.6-8 6.4-10.6 8-6.4 16-12 20.5-21.7 2.7-6-.5-13.4-6.8-15.2a71 71 0 0 0-11.1-.7c-2.4 1-4.4 4.2-5.6 6.5-4.7 10-4.8 21.2-5.3 32-1.5 4.8-4.2 9.3-6.2 14l-8.3-25c-1.4-3.3-.6-6.3-.4-9.8.5-8 .5-16.5-1.8-24.2-1-2.8-2.5-6.2-5-8-4-1-8.7-1.3-13-1.5-4.7 1.7-8 6.6-7.7 11.5.3 3.6 1.8 7 3.7 10 4 6.5 9.3 11.8 15 17 1.2 1 2 2 2.4 3.5L139 116c.7 2.2 1 4.4 1.4 6.6 2 3.5 2.7 7.3 3.8 11l-9.2-6.6c-1.8-1.4-3.6-2.2-4.4-4.4-3.7-8.5-7.6-17.2-14.2-24-3.4-3.5-8.2-6-13.2-5.5-6 1.3-10.5 7.6-10.7 13.6.2 5 4 9.2 8 11.8 7.3 4.8 16.6 7 25 9 2.4.6 4.4 2.2 6.4 3.6l13 9.2c2 1.2 2 3.8 2.8 6 1 5.2 3.2 10.6 3 16 1.4 2.5 2 5.2 2.7 8l-14.6-3.7c-2-.6-4-.7-5.6-2.5-7-7.4-15.8-15.5-25.7-18.4-4.2-1-10-1.6-12.7 2.7-3.2 5.3-5.6 12-1.5 17.5 5 5 14 6 21 6 6 .2 12-1.3 18-1.5l22.6 6.4c1.7 7.8 3.7 15.6 5 23.5-2.7 6-6.3 11.6-8.7 17.8-11.7 2.3-23.4 3-34.2 7.3-2.5.7-4.2 2-6.2 3.6 3.2 9.5 8.4 18 16.2 24.6l13.4 11c-1 8.8 0 18 1 26.7.8 4.7.4 9 3.6 12.7 2.5-.5 4.8-1 7-2.4 7.6-4.5 14-10 20.6-16l2.2 51.3-12-.5c-2.6-6.3-6.4-12.2-11.7-16.7-2.8-2.3-6.7-5-10.5-4.7l-39 1.3 5.4-17.7c5-8 10-15.4 12-24.8.8-4 .5-8.3-2-11.7-4-6-14-6.3-19-1.6-4 4-4.4 9.7-4 15 .4 8.6 3.7 16 6.2 24 0 3-1.4 6.4-2 9.4l-14.3-36.3c-2-4-4.4-7.6-4.8-12-1.2-8.3-1.3-17.6-5-25.2-1.3-2.6-3.4-5.8-6.3-6.8-3.5-.2-8.8.1-12.3.6-6 2.7-7.5 10-5 15.8 3.2 7.4 10.8 13.3 17.2 17.8 2.3 1.8 5.6 3.2 7.4 5.5 5 8.6 8.7 17.7 12.3 27l-11.6-4.6c-2-.7-2.7-2.4-4-4a75 75 0 0 0-15.1-17.9c-3.5-2.8-8-5-12.6-4.2-7.8 1.7-13 12.4-8.3 19.2 2.8 4.6 8 6.6 13 8 8 2.5 16 2.8 24.3 3.8 5.8 2 11.3 4.8 17 7l3.6 10.5C82.3 309 70 305.3 59 307c-9.6 2.6-18.2 9.3-22.7 18-2.2 4.6-4 9.6-4.6 14.7 0 5.6.7 10.7-.6 16.3-1 2.7-2.8 5.2-4.2 7.8l-8.5.1V25l.1-9.6z" fill="#fff"/><path d="M125 50c5 9 5 18.5 4 28.4C123.7 73 117.5 67 114.4 60c-1.2-3-2-7 1.4-9 2.8-1 6.3-.7 9.3-.8zm38.2 16.4c3.3-.5 7-1 9.5 2 2.3 2.4 1 6.2-.5 8.8-3.6 6.3-10.2 11.5-16 16l1.4-16c.8-3.5 2.2-8.7 5.5-10.6zm113 24.6c3.3-.6 8.4-.7 11 2 1.2 2.7 0 6.4-1.2 9-3 6.3-8.5 12-13.2 17-.5-7-1.2-14 .2-21 .5-2.4 1.3-5.2 3.2-6.8zm-166.8 9.7c6.7 4.4 10.7 13.5 13.8 20.6-7.2-2.3-15.4-4.5-21.7-8.8-1.7-1.3-4-3-4-5.4.3-5.6 6.7-9.8 11.7-6.4zm68.6 6.6c3.4.2 8.5 1 9.8 5 .8 3-1.2 6.4-3 8.7-4.5 5.5-10.8 9.8-16.6 13.8 1-6.8 2-14.2 4.7-20.6 1-2.4 2.6-5.4 5-6.7zm50.8 7c3 .7 5 4 6.5 6.4 3 6 4.8 13 6.4 19.6-6.4-3.6-14-7.5-18.8-13.3-2-2.4-3.6-6.6-1-9 1.8-1.6 4.4-4 7-3.7zM309 123c3 1.2 4 5 5 7.7-2 2.8-3.4 5.4-6.7 6.7-6.8 3-15.2 2.8-22.6 3 4.3-5.3 9-11 14.7-15 2.6-1.8 6.3-3.4 9.5-2.6zm-208 28c3-1 7 .7 9.8 2.2 5.5 3 10.4 7.7 15 12-6.8.7-14.5 1.6-21.3.1-3-.7-6.6-2.3-8-5-.4-3.4.8-8 4.4-9zm128.8 16.2c3.3 1 5.4 4.2 7 7.2 3 6.2 4 13.7 5 20.4-6.2-4-13.4-8.5-18-14.5-1.8-2.4-3.7-6-1.4-8.8 1.8-2 4.6-4 7.4-4.3zm74.7 9.8c5.4 8.7 10.4 17.6 14.5 27 1.7 3.6 2.4 8 4.7 11.3 4.6 1 9.6.2 14.3.8 6.8 1 13.5 2.2 20.3 3.2a129 129 0 0 1-20.9 20c-1.4 1.2-3.8 2.5-3.7 4.5.1 7 1.5 14 1.8 21.2 0 4-.7 7.8-1.2 11.6-7-2.4-14.3-5.3-20-10-3-2.4-5.2-5.8-8.4-7.8-3.3.5-4.4 3.3-6 5.8-5.4 8.5-12 15.7-19.8 22a94 94 0 0 1-2.8-35.8c-2.3-2.3-4-3.6-7.3-4.6-8-2.5-15.4-6.2-21-12.6 12.3-7.3 25-13 39.4-14.3 1.2-2 2.4-3.8 2.5-6.2a66 66 0 0 1 14-35.9zm-127 12l15 29.4c.8 2.2 2.6 1.4 4.5 1.6l31.4-2c-4.5 9.6-9.3 19-16.8 26.6-2 2.3-4 4-3.4 7.3l4.5 28.4c-7.8-1.4-16.6-3.3-23.4-7.5-2.7-1.5-5.2-4.2-8-5-2 1-3.7 2.4-5.4 4L149 295c-2-10-2-20-2-30 .2-4-2.6-5.5-5.5-7.6-9.7-6.5-18-14.5-23-25.2a90 90 0 0 1 24.3-6.5c5-.6 9.3-.1 14-2.4 4-13 11-24.7 20.5-34.2z" fill="#9260c7"/><path d="M317.8 220.3l4 1.5a131 131 0 0 0-3.2 18.1c3.8-.7 4.5-.4 7.6 1.8-4.5 4-10 8.6-16 9a44 44 0 0 1-23.3-2.8 22 22 0 0 1 .6-3.7c2.7-.4 5.5-.4 8.2-.4-2.2-5.3-5.4-10-8-15l4-.5a61 61 0 0 1 8.5 15.7h5.4c-1.3-7-2.6-14-3.8-21.2h3.5a112 112 0 0 1 4.3 21.5 31 31 0 0 0 4.6-1.4c2-7.4 2.3-15.3 3.8-22.8zm-138 11.2l1.2 22 4.3-1.3c.5-5.6 1.2-11.5 3.4-16.7.8-2 2.4-3 4-4.5.7 6.6-2.5 13-3 19.6l8.3-4.2a43 43 0 0 1 1.3 4.4c-4.3 3.8-10 6.2-15.6 7.7-7.4 2-14.5.1-21.4-2.6-2.3-1-.4-4 .1-5.8l4.4 2c-2.2-6.5-5.5-12.5-7.3-19l4 .5a136 136 0 0 1 8.7 20.4l4.6.3c-.2-8-1.3-16-1.2-24 1.5.3 2.8 1 4.2 1.4z"/><path d="M63 232c2.5.8 4.2 3.7 5.3 6a74 74 0 0 1 4.8 22c-5.8-4-12.3-8.5-16.5-14.2-1.6-2.2-3.3-5.4-2.3-8.2 1.4-3.3 5.3-5.3 8.7-5.4zm40.2 30.4c2.4-.2 5.2-.1 7.4 1 2.3 2.3 3 6.4 2 9.4-1.6 7-5.6 14-9.5 20-3-8-4.8-16.2-3.8-24.7.4-2 1.2-5.6 3.7-5.8zM44 269.6c3.2-.4 6.5 1.6 9 3.5 5.2 4 9.3 10 13 15.4-7.2-.8-15.5-1.3-22-4.5-3.2-1.5-4.5-4.2-6.4-7 1.6-2.7 3.3-6.5 6.5-7.6z" fill="#9260c7"/><path d="M333.2 300.4c7 1 14 3 18.3 9 3.7 5 3 12.6 3.2 18.5 0 5.8 2 12 6.7 15.4 2.7 2.2 6.4 4.2 7 8 .7 5 .1 10.4.3 15.5 0 5 1 10 2.3 15 1.7 7.3 5.2 13.4 6 21 .5 4.3-.7 8-2 12-3.2 8.4-6.8 16.6-10.4 24.8l-27-10.3c-7-3.2-8.3-11-15.2-13.7-7.2-3-14.4-4-20-10-4.4-5.7-3.5-11.5-4.8-18-.5-4.4-5.2-5-8.5-6.6 1.4-6 2.6-12 2-18-.3-5.5-2-10.6-4.2-15.6 1.5-2.7 3-5.3 5-7.5 4-4 8.6-6 13.4-8.2l13.8 15.5c-4.2 1.8-8 3.3-11.5 6.5-6.7 5.8-8.3 16.7-6 25 .6 2.5 2.4 2.2 4.3 1.5 0-4.5-1.6-8.5-.6-13 .8-3.6 2.5-7.2 4.8-10 3-3.5 7.4-4.8 11.6-6.3l13 22.3c-4 2-7.8 4.2-10.6 8-4 5-5.4 11.7-4 18 .8 1.3 2 2.3 3.2 3.4 1-6.5.6-12.2 4-18 2.2-3.7 5.6-5.3 9.3-7.2 5 11 8.7 22.4 11 34.4l3.6 1.5c.2-2.4.2-4.7-.3-7-2.4-10.4-6-20-10-30 4 .7 8 1 11.2 3.7 3.7 3.3 4.3 8 7.8 11.2.8-1.3 2-2 1.6-3.7a21 21 0 0 0-9.9-13c-3.8-2-8-1.6-12.3-1.8-3.7-7.7-8-15-12.4-22.3 3.4.1 6.5-.3 9.7 1 5.7 2.4 9.5 6.7 13.2 11.5 1.6-.1 3.2-.2 4.8-.2-4-7.4-10-13.4-17.8-16.4-4-1.6-8.5-.4-12.6 0-4.2-6.2-9.4-11.5-14.7-16.8 5.5-1.6 11.8-2 17.5-1.7 7.3 1.2 12.4 7.7 16.6 13.3l4.3.3c-1-3-2.5-6-4.7-8.5-4.5-5.2-11-9.8-18-9.6-6.6.2-12.8.1-19 2.8l-10.4-10.3c5-5.5 10.5-10.5 17.5-13.5 6.5-3.2 13-2.6 20-1.8z" fill="#858585"/><path d="M214.8 306.3c3.8 1 6.6 5 7.2 8.8.2 2.6-2.6 5-4.6 6.3-6 4-14 6-21 8.2 3-6.4 6.5-13.4 11.3-18.7 1.8-2 4.3-4.2 7-4.6z" fill="#9260c7"/><path d="M58 315c5.6-.5 11.4.8 17 1.2 7.8.6 15 3 22.3 5.7-2.8 4-5 9-8.7 12.3-8.6 1.3-17.5.7-26.2 1.7-2 .3-4 1.8-5.5 3-3 2.3-6 4.6-8.8 7.3l3.7 2.3c4.5-4.8 9-9 15.6-11a34 34 0 0 1 19.4.3 325 325 0 0 0-15.1 24.4c-4.3-.3-8.4-.6-12.6.8-7.2 2.2-12.5 7-18 12-1.8 1.5-2 3.5-2.8 5.7 7.3-1.3 9.6-7.2 15.7-11 4.8-3.2 10.2-4 16-4.3-5 9.6-9.7 19.2-13.8 29.2-4.7.3-9 .6-13 3-3.8 2.4-7.6 5.8-10.4 9.4 1.3 1 2.3 1.8 4 1.2 3.2-2 5.4-5.3 8.8-7.2 3-1.7 6-2 9-2.7l-10 30.7 1.4 2.2 2.2-1.6c3-10.4 6.5-20.8 10.6-30.8 2.7 1.6 6.4 3.2 8.3 6 2.3 3.5 1.6 8.5 1.5 12.5l2.8 1.7c3.2-6 2.5-12.8-1.5-18-2.5-3.2-6-4.2-9.5-5.8A355 355 0 0 1 74.6 366c9.3-.2 20.2 5 23.2 14.3 2.4 6 .4 12.3 3.2 18 1-2 2.5-4 2.5-6.4a36 36 0 0 0-5.2-19.2c-5-7-13.3-10.6-22-10.3A402 402 0 0 1 91 338.9c5 .3 9.6.1 14.3 1.7a52 52 0 0 1 14.2 7c3.4 2.5 5.3 5.8 7.5 9.3a60 60 0 0 0-3.4 38L100 413c-7.7 6-19 7-27.2 12.8-5.2 3.4-8.2 8-13 12C53 443.4 45 448 37.6 452.5c-2.6-3.2-5-6.3-7.2-9.8a54 54 0 0 1-7.2-24.8c-.2-6 4.6-11.7 5.4-17.6 1.2-6.5-.7-12.2-2-18.4l11-22.3c3.4-8.6-.5-16.3 2.2-25C42.3 326 49 317.4 58 315zm224 2.2c3.7.3 9 .1 11.8 3 3 2.6 5.6 5.6 8.3 8.3-4 2-7.7 3.8-11 6.8-2.8 2.5-4.7 5.5-6.7 8.6a36 36 0 0 0-9-8.4c-7.2-4.5-14.8-5.7-23-7 7.4-8.5 18.3-12 29.4-11.3zm-148 4.2c3-.1 6-.6 8.6 1 5.6 3.2 8.7 8.2 12 13.6-5 1.4-9.6 3-14 5.7a47 47 0 0 0-11.2 11c-7.6-12-22.2-17.3-35.8-17.8l6.6-10c1.2-1.7 4-1.8 5.7-2l28-1.6zm128.8 15.8c7.2 2 13.8 6 17.5 12.5 4.7 8.3 4.7 19 2.3 28-1.8 7.7-5 15-7.3 22.5-2.3 7.8.2 16 1.3 24 .7 4.2-.7 7.8-2 11.6-1 2.8-2 6-3.5 8.4-3.3 5-7.8 9-11 14-3.7 6-3.6 13-7.2 18.8-1.8 3.2-5.5 5.4-8.4 7.6L219 504l-32.2-16.8c-8-4.7-10.3-13-17.5-18.5-4-3-9.2-4.8-13.5-7.5-7.5-4.4-13.7-12.2-15.4-21-1.3-8.2 1-18-1.8-26-2.8-8.6-8.2-15.8-9-25.2-.5-8.5-.1-17.6 2.7-25.7 2.4-7.2 7.2-13.5 14-17 7-3.7 14.8-3.7 22.7-4.4 5.3-.5 10 .8 15 1.7 6.3 1.2 12.8 1.8 19.3 2.6l2 11.8c-8.5-.4-16.7-.3-25 2.4a48 48 0 0 0-25.8 19.4c-3 4.4-6.2 10.2-6 15.7a61 61 0 0 0 3.6-.2c1.6-5.4 3.3-10.5 7-15 5.5-6.4 11.7-12.2 19.8-15.2 8.7-3.4 17.7-3.6 27-3l3.5 20.5a46 46 0 0 0-18 3.7c-9.6 4.3-16.7 11.8-22.8 20.2-3.5 5-7 10.2-7.7 16.4 1.4-.6 4-.5 4.7-2 2-3.8 3.4-7.8 6-11.3 4.6-6.7 10.4-13.4 17.7-17.3a48 48 0 0 1 20.7-5.6l3 26a47 47 0 0 0-15.4 3.7 55 55 0 0 0-24 24c-1.3 2-1 4.2-1 6.6 4.7-2.7 6.3-7.2 9.2-11.5 7-10.7 19-17.7 31.7-18.5l1.4 23.2c-4 .8-7.5 1.2-11 3.4-4.4 2.7-7 7.3-9 12a26 26 0 0 0-2 13.2c1.4-1.2 3-1.8 3.3-3.8 1.5-5.4 2.5-10.4 6.6-14.5 3.3-3.7 7.6-4.8 12.3-6 .4 8.2.3 16.3.2 24.5a16 16 0 0 0 1.7 8c1.2-2.2 2.5-4.2 2.6-7 .3-8.6-.1-17.3-.3-26 4.7 1 10.3 2.5 13.6 6.3 3.6 4.3 4 9.3 4.6 14.7l1.6 1 2.5-3c-.8-6.4-2.4-12.4-7-17-4.4-4-9.8-5.2-15.5-5.7l-1.6-23.3c8-.7 17.8.6 24.3 5.7 6 4.8 6.5 11 9.6 17.4l3.6-3c-2.3-8.2-5.8-15.5-13.4-20a43 43 0 0 0-24.4-4.2l-2.6-26c5.7-.8 11-1.6 16.8-.4a32 32 0 0 1 18.2 10.8c3.7 4.7 4.8 10 6.8 15.3 1.3-.6 2.4-1.6 3.8-2.3-2.6-7.4-5-14.3-11-19.6a40 40 0 0 0-21.7-9.1c-4.4-.4-8.8.8-13.2 1.6l-3.4-21c9.4-1.5 18.3-3 27.8-1.4 9.5 1.5 18.3 6.8 23 15.3 2.4 4.2 3.2 8.7 4.8 13.2.4 1.6 2.8 2 4 2.7-.5-11.8-6-23.2-16.5-29.3a47 47 0 0 0-27.7-6.6c-5.4.3-10.8 1.6-16 2.5l-2-12.3 21-6a59 59 0 0 1 34-2.6z" fill="#858585"/><path d="M18.4 364.3l8.5-.1c-2.3 4.2-5 8.5-6.5 13-2 6.6 1.8 11.5 1.6 18.8.2 4.5-2.2 7.4-3.7 11.5.5-14.4.1-29 .2-43.3zm357.6-.1h6.2V393c-1-3.8-2-7.6-3.8-11.3-2.5-5.2-2.3-11.8-2.4-17.5zm-89.2 24.3c1.4-.1 3 0 4.3.1.1 5.3-.2 11.4 2 16.3 2.7 5.8 8 9.8 13.7 12.3 5 2.3 10.3 2.7 14.6 6.5 3 2.5 4.5 6 7.4 8.5a31 31 0 0 0 10.2 6l20.6 7.3c2.3.8 4.8 2 7.3 2.3 1.5-1.2 2.4-3 3.3-4.6l12-26.6V595H18.4V446l-.2-14c2.8 10.2 9.5 19.4 16 27.6l4.2.7C47.6 454.8 56.8 450 65 443c3.7-3.2 6.3-6.8 10.3-9.6 6.8-4.7 14-6.7 21.6-9.5 4.4-1.4 8.2-5.3 12-8 6-4.3 11.3-9.5 17.3-13.8l6.6 19.3c1 7-.3 14.3.6 21.3a44 44 0 0 0 18.6 24.4c4.6 3.3 10 5.3 14.6 8.5 2.5 2.4 4.2 5.7 6.5 8.4 4 5 8.6 9 14.3 11.7L215 510c2.3 1.2 4.7 1.6 7 .1a201 201 0 0 0 22.2-15c5.3-4.2 10.8-9 14.4-14.6 3.8-6 3.6-12.7 7.4-18.6 3.6-5.3 8-10 11.6-15.4 3.5-5.6 5.8-12 6-18.7.5-7.6-2.6-15.4-2.2-23a103 103 0 0 1 5.3-16.6z" fill="#ffe000"/></svg>