<svg xmlns="http://www.w3.org/2000/svg" viewBox="0 0 400 610" width="533.3" height="813.3" xmlns:v="https://vecta.io/nano"><path d="M0 0h400v610H0V0z"/><path d="M18.5 15.4c3.5-.3 7-.1 10.5-.1h353v579.5H18.4V26l.1-10.6z" fill="#fff"/><path d="M285 77.8c5.3.1 9 4.2 10 9.2 1.3 6.8-.3 14.6-2 21.3-1 4.8-3 8.7-2.2 13.7 1.8 12.4 2.2 24.8 3.2 37.3L302 148c1.2-1.8 1.3-3.7 1.6-5.8 1-7.7 2.7-16 6.6-22.8 2-3.7 5.4-7 9.8-7.4 7-.4 14.3 5.7 13.8 13-.8 6.4-6 11.2-11 15-4.6 3.7-10 6-14.8 9.3-3.6 3.6-6.2 8.4-9.5 12.5-1.6 2.4-4.6 5.3-4.2 8.4.2 6 .5 12 .3 18 2-2 3.7-4.5 6.4-5 3.3 1.2 5 5.8 7 8.5l7.6-7.8c1-1 1-3 1.3-4.5a81 81 0 0 1 3.9-17.1c1.7-4.5 4.4-10 8.6-12.5 6-3 13 .5 16.3 5.8 2.4 4 1.7 8.8-1 12.7-4.4 6.6-11.8 11.6-18.6 15.4-3 1.8-6.8 3.2-9.2 5.7l-6.2 6.7a61 61 0 0 1 9.6 24.9c10.2.5 20.8 1 30.8 3.3 3 .6 4.6 1.7 6.6 3.8-.7 1.6-1.5 3.2-2.5 4.7a93 93 0 0 1-21.5 21.8l1.7 16.8c.6 5.2-.5 10.7-.8 16 4.5 1.7 8.7 4 12 7.5a39 39 0 0 1 8.9 17.6c1 10.2-1.8 20.6-1.3 31 3.5 7 8 13 9 21 .1 3.3-.8 6.7-1.2 10-.7 5.3-2.8 9.5-2.6 15a62 62 0 0 1-2 18.5c-.4 2.2-3 3.2-5 2.5-5-1.6-9-3.5-14.4-3-9 1-18.7 1.5-27-3-4.6-2.4-6.4-6.5-10.2-10-3-2.7-6.2-4.5-9.6-6.4.6 8.6-3 16.4-6.8 24-2.5 5-5.7 8.7-6.3 14.5-.6 6.6 1 13.4 1.6 20 .8 5-.5 10.2-4 14-8 9-15 17.4-19 29-1 2-1 5-3.8 5-4-.4-8-2-11.7-3a463 463 0 0 1-32.7-10.3c-3.7-1.4-8-2.6-11-5-6-5-8.3-13.3-14-19-4.2-2-9.8-1.7-14.4-2.5a31 31 0 0 1-15.6-7.4c-3.8-3.5-5.3-8.2-7.3-12.8-1.7-4.2-3.7-8-4.7-12.4l-1.7-6c-2-2.6-4.4-5-6.5-7.3-3.8 5-7.7 9.3-14 11-9.2 3-17 .6-26.3 1.2-1.7 0-3.2 1.2-4.6 2-5.8 3.7-12 6.8-18.2 9.7-3 1.4-6 3-9.4 3.7l-21 4.8L36 439c-.5-6.3.1-12.8.4-19 .7-6 1.3-12.3 3-18.2 3-9.4 1.7-20.5 3.2-30.3 2.3-9 8.4-15 13.3-22.5 2-3.6 2.6-8 4-12 3.5-10.6 11.2-19 20.8-24.6-6.3-1-13-3-17-8-2.2-2.6-3-6-1.6-9.2 1-2.6 2.6-5.4 4.8-7.3 3.3-2.8 8-2.3 11.8-.6 8.6 4.2 13.8 11 19.7 18.2 4.7-.5 8.7-.1 13.3 1a288 288 0 0 1-10.3-21c-1-2.8-4-4-6.5-5.4-3.8-2-7.7-5.3-12-6-8.2-2-16.3-4-23.6-8.3-3-2-6.5-4.5-8-8A14 14 0 0 1 64 240.8c3.7 0 7.4 2.8 9.8 5.4a79 79 0 0 1 12.7 20.4c1.4 4.3 7 6 10.5 8.4-5-11.7-8.4-24.3-12.8-36.3-2-4-5.7-7-8.2-10.7-4-5.4-8.2-12.2-8.5-19 0-4 1-8.7 4.6-11 4.5-2.4 10-3.2 14.5-.3 3 1.8 4.4 5 5 8.4a52 52 0 0 1-1.4 21.9c-.7 3.7-2 7-.6 10.6l9.3 26.7c5.7 14.5 11.8 29 19.5 42.6 1.4 2.7 4 3.6 6.3 5.5l14 12a48 48 0 0 1 14.9 1.9c8.7 2.8 15.8 8.7 20.8 16.3l6.3-.4c-1-14.6-2.5-29.2-4.2-43.8-5.8 6.5-12.2 12.7-19.2 17.8-3 2.2-6.3-.2-7.3-3.2-4-10.3-6.8-22-5.4-33-9-4.3-17.8-9-26-14.7-4.2-3-8-6-11-10.4 3.7-2.6 7.7-4.3 11.8-6.3a109 109 0 0 1 27.2-10.2l5-23-19-11.5c-8.2-2.8-16.2-4.5-23.7-9.2-3.8-2.3-7-5.6-7.8-10-1.4-5.3 2.6-11 6.8-13.6 4-2.7 9.8-.2 13.2 2.5 6.4 5.2 10.6 13.7 13.7 21.2 1 2.3 1.5 5 3.8 6.3 4.8 3.2 10 6 14.7 9 1-2.8 2.6-5.5 3.4-8.4-.1-2-.8-4.3-1.3-6.3-2.3-8-4.2-16-6.7-23.8-.5-1.8-2-2.4-3.3-3.4-5-3.3-10-6.7-15-10-1.7-1-3.4-2-5.4-2.5-8.4-2-17.2-4.7-24.2-10-3.8-3-6.6-7-6.8-11.8.6-7.2 8.5-13.2 15.6-11 5 1.5 8.7 6.6 11.4 10.6 3.7 5 5.2 10.6 8 16.2.8 2 2.4 2.7 4 3.8l13 8.7-1.6-2.8c-.4-2.3-1-4.6-1.7-6.8l-9.8-27.3c-1.2-3.2-4-5.2-6.2-7.7-4.7-5-9.3-10.8-11.7-17.2-1.5-4-2-9.6 1-13 4-4 9.5-6.6 15-4 5.3 2.2 7 8.3 7.5 13.5 1.2 8.5-.8 16.7-1.3 25L148 153l6.5-13c-.1-10.5-2.7-19.8.8-30.4 1.3-3.6 4.4-7.4 8.5-7.5 4.6 0 10 1.3 13 5.3 2.6 3.4 1.8 8.2.6 12-3 8.3-8.7 13.5-14.5 19.6-5.8 5.5-8.7 14-12.6 21 4 12 7 24.2 10.4 36.3 1.2-.5 2.5-1 3.7-1.4 2.4-4.3 5.4-8.4 7.5-13 .3-4.3-.4-8.6-.2-12.8.3-8.3 1-16.2 7-22.5h11.4c4 .5 8.2 4 8.4 8.3 0 3.6-1.4 7.2-3.2 10.3-4.2 7.5-10.6 12-16.3 18-3.5 4.8-6.4 10.2-9.6 15.2 8.2 8.5 15 18.4 22.4 27.6a193 193 0 0 1 24.6-7.7c4.2-.7 8-1.7 12 .2.1 1.8.1 3.6-.2 5.3-2.5 13.5-6.6 26.2-15 37.2 6.5 10.8 11.7 22.6 14 35.2.4 1.5-.5 3.3-1 4.8-4.7.6-8.8-.4-13.4-1-10-1.8-19.8-4.6-28.6-10l-3.2 4c2.3 16.3 4 32.6 5 49l9.5-.7c3-.4 5.4-2 7.7-3.6 7.3-5 12.7-12 20.3-16.7 3.5-2 8-4.6 12-4.4l12.4.3a32 32 0 0 1 7.2-12.3c6-6 14-9.2 22.4-9.7l2-10.7c-6.4 3.7-13.5 8-21 8.4-.5-2-1-4.2-.8-6.4.7-10.7 2-21.2 5-31.5-9.4-7.5-19-16-26-26 .4-1.3.7-2.6 1.3-4 2.6-1.3 5.6-2 8.3-2.8 10-3 19.3-5.7 29.8-5l7-13.4-22.3-15.7c-9.6-5.3-22.8-7-30-16-3.8-4-3.4-10 .3-14 4-4.2 10-7.3 15.4-3.6 8.5 5.8 13.2 18 16.6 27.2.8 2.6 3 3.5 5 5l18.3 12.3c1-2.2 2-4 1.8-6.5l-.4-32c-.1-1.4.1-3.2-1-4.2-3-3.3-6.5-6.3-9.7-9.5-2.6-2.4-4.5-5-8-6a94 94 0 0 1-19.4-8.7c-3.8-2.4-8-5.8-8.8-10.5-1.2-7.7 5.6-15 13.2-14.7 4 .7 7.5 4 9.8 7 5.4 7 7 15 10.6 22.3 4 4.8 8.6 9 12.6 13.5-.6-9.6-1.4-19.2-2.7-28.7-.2-2-1-3.7-2.3-5.3-4.5-6-8.7-13-10.7-20.4-1-4-1-8 .7-12 1.7-4.4 8-6 12-6z"/><path d="M288.3 84.6c3.4 8.7 1.2 18.4-1.5 27-3.6-5.3-7.4-11-9.3-17-.6-2.4-1.2-4.6 0-7 1-4.3 7.7-4.5 10.8-3zm-164.7 4.8l7.6 1.4c4 9 2.5 17.4 2 27-5.2-6-12.2-13.6-13.3-21.7-.6-3.2 1.4-4.8 3.6-6.6zm38.7 19c3-.4 6.6-.6 9 1.4 2 1.6 2.8 3.7 2 6.2-2.5 7.3-9 13.6-14.2 19-.7-8.3-1.8-19.5 3.3-26.8zM253 113c3-.7 5.4 1.7 7 3.7 4.2 5.2 6.7 12 9 18.3-6-2.2-12.6-4.6-17.8-8.5-2.6-2-4-4.6-5.5-7.4 2-2.7 3.4-5.5 7-6zm67 4c4.5.1 6.3 4 8.7 7-3.8 8.8-12.4 13.4-20 18.4 1-6.5 2.3-13.4 5.3-19.3 1.3-2.5 3-5 6-6zm-213 11.4c3 1 5 3.2 7 5.7a91 91 0 0 1 9.3 16.6c-7-2.2-14.8-4.7-20.4-9.4-1.7-1.6-3.7-3.6-3-6 .6-3.6 3.7-6 7.2-6.7zm77.2 22c3.6-.4 6.7 2.6 8.4 5.4 0 3.5-1.5 6.5-3.5 9.3-3.2 4.6-7.4 8.7-11.5 12.6a57 57 0 0 1 .9-20.2c.8-3 2.5-6.2 5.7-7zm147.8 4.3a78 78 0 0 1 6.8.6c1 1.8 2.7 3.7 3.2 5.7-.4 3-3 5.8-5 8-4.3 4-9.5 7-14.5 10 1.5-8 2.7-18.8 9.6-24.2zm-92 4c2.7-.6 5.3 1.5 7 3.4 4.8 5.4 7.7 13 10.2 19.6-7.2-2.6-17-5.7-21.6-12-3.2-4 .6-9.2 4.4-10.8zM114 177c2.6.4 4.8 2.7 6.4 4.6 4 5 7 11 9.6 17-6-1.7-12.4-3.4-17.6-6.8-2.4-1.6-5-3.8-6-6.6-.8-4.3 3-8.5 7.4-8zm187 14.7a73 73 0 0 1 12.8 29.4c.5 1.5.7 5.3 2.4 5.8 4.7 1 9.6 0 14.4.8l18 3L338 242c-3.8 3.7-8.2 6.7-11.7 10.6a100 100 0 0 1 2.2 31.8 66 66 0 0 1-19.4-9.5c-4-3-5.8-7-9.2-11l-17 11-18.4 11 6-32.4c-3.7-4.2-8.2-7-12.3-10.7a120 120 0 0 1-12.6-12.8c9.3-3 18.4-5.5 28.3-5 2 0 4.6.4 6.6-.3 1.8-1 2.8-3.6 3.6-5.4 4.2-9.7 9.5-19.6 16.6-27.6zM83.8 202.2c1.7 3.5 3.2 6.7 3 10.8l-2.6 17c-4.3-6-9.5-12.8-11-20-.2-1.8-1-5 .7-6 3-2.8 6.3-1.8 10-1.6zM165 204a83 83 0 0 1 21.1 26 18 18 0 0 0 2.4 3.7c2.2 1 5-.5 7-1.2 8.4-3.6 17-6.5 26-8-2 8.5-4.3 17-8.3 24.7-2 4-4.8 7.7-7.3 11.6 6 10.6 11.2 21.2 13.6 33.2-12.4-2.2-24-4-34.5-11.5l-3.3-.1a126 126 0 0 1-26.1 27 65 65 0 0 1-4-31c-1.8-2.2-3.5-3.8-6-5a280 280 0 0 1-28.2-16c10-4.8 19.4-9.5 30.6-11.3 2.6-.4 5-1.7 5.7-4.4 1.2-5.7 1.3-11.5 3-17.2a98 98 0 0 1 8.4-20.8z" fill="#9260c7"/><path d="M282.3 228.6l3.3-.2c2.8 6.3 3.8 13 5.8 19.4.4 2 2.7 2.3 4.2 3.4 1.4-7.5.4-16 3.5-23l2.6 2.3-1.8 20.2 4.2-.3a86 86 0 0 1 7.2-18.3l4 1.2L309 249l6.8-1.8 3 3.8a43 43 0 0 1-20.5 5 35 35 0 0 1-15.2-4.8c-1.7-1-2.5-2-2.2-4l6-1-4.4-17.5zM177 244.8l3 22.2a208 208 0 0 1 4.2-1.5c-.2-7 .1-13.8 3-20.3 1.2 1 3.5 1.6 2.8 3.6a61 61 0 0 0-2.1 14.6c3-1.6 5.4-3 8.8-2.6l.4 2a40 40 0 0 1-19.3 9.9c-5.3 1.3-11.3.1-16.3-1.7-.7-1.3-.7-2.7-.7-4.2l4.8-1.2-8.5-16.2 4.3.4 9 16.4c.8 1.7 3 1.6 4.7 2.3l-3-24.4 4.7.5z"/><path d="M64 246.2c2.5.5 5 2.4 6.6 4.2 4.5 5 7.6 11.3 10.3 17.2-6-1.5-12-3.2-17.6-6-2.5-1.3-5.4-3.2-6.5-5.8-1-4.5 2.4-9.7 7-9.7z" fill="#9260c7"/><path d="M298 272.4a42 42 0 0 0 19.6 15.2c-9 2.3-16 7.3-24.3 11a96 96 0 0 1-10.1-2.2l3-15.3 12-8.7z" fill="#fff"/><path d="M71.4 291.4c2.6-.7 5.8.7 8 2 5.4 3.4 9.8 9 13.7 14-6.7.7-13.8-.1-20.2-2.4-2.8-1.2-6-2.7-6-6.2.5-2.7 2-6.2 4.6-7.4z" fill="#9260c7"/><path d="M324 293c6.8-1.2 14 1.4 18.3 6.8 4 5 7 11.7 7 18.3-.2 7.7-2 15.3-1.7 23 .3 7.3 6.7 13.8 8.6 20 1.7 6.8-1 14.6-2.7 21-1 6.6-.7 13.5-1.3 20.2-7-.8-13.4-2.5-20.5-1.5-6 .5-13.7 1-18.4-3.8-3.7-3.8-7-7.7-11.4-10.7-3.3-2.5-7-3.8-10.8-5.4-2.8-1-3.5-3.8-4.8-6-2-4-4.8-8-5-12.6l-.1-16 1.2 6.6 3.4-1.2c.1-4-1-7.7-.8-11.6.1-6.3 2.5-12.5 7.2-16.7 3.2-3 7-4.3 10.8-6l9.5 12.4c-4 3-7.8 6-10 10.6a36 36 0 0 0-1.8 23.8c.5 2.3 2.3 2.8 4.2 1.7 0-2-.6-4-1-6a30 30 0 0 1 2-18c2-4 5-6.4 8.4-9 4.4 7 8.2 14.3 11.6 22-6.3 4.5-9.6 11.4-9.6 19 .2 4.8 1.2 10 3.7 14 1-.1 2-.5 3-1-1-6.3-3.8-11.4-2.2-18 1-4.4 3.6-7.2 7-10a135 135 0 0 1 7.3 22l2 6.2c.8 2 4.6 1.5 3.7-1-1.6-9.5-5.3-19.4-8.3-28.4 2 .6 4 1 5.8 2 5.3 3.5 6.4 9.6 12.6 12-1.2-6-4.7-11.4-9.8-14.8-3-2-6.5-2-10.2-2.6L319.4 332c4.4.6 8.5.8 12.4 3.2 3.6 2 5.8 5 8 8.3l3-2a24 24 0 0 0-11.5-10.9c-4.6-2.3-9.2-2-14.2-2l-10-13.2a54 54 0 0 1 18.9-2c6.5 1 7.4 8 14 9-2-6-6.7-12-13.2-13-8 0-15.2-.3-22.6 2.8l-7-8.5c9.4-3.6 16.4-9.2 26.6-11zm-50 10c4.8-1 9.3.7 14 1.5 1.7.4 3.6.5 5.2 1.2 2.8 2.2 4.8 5.4 7 8.2-5 2.5-9.5 4.8-13 9.3-4.5 5.5-5.5 12-6.2 18.8-2-9.6-7.5-18.2-16.3-22.8-2.8-1.5-6.5-1.2-9.6-1.5 2-3.4 3.5-6.5 6.6-9A33 33 0 0 1 274 303zm-173.7 9.3a21 21 0 0 1 13.2 2.3c8.3 3.6 14.4 12 21.5 17.8a95 95 0 0 0-19 10.3c-6.7-4.4-14-7-22-6-7.4 1-16 2.3-20.8 8.6 7.3 2 12-3.5 19-4.7 7.4-1.4 14 .8 20.5 4.3-7.4 5.7-14.2 12-20.5 18.7-4.6-1.8-9-3.2-14.2-2.6-6 .7-12.7 3.4-16.7 8 .7 1.3 2 2.2 3.4 1.6 4.3-2 7.5-5 12.4-5.6 4.3-.7 8 .4 12.2 1.7a273 273 0 0 0-16 20.2c-3-.8-6-2.3-9-.8-3.8 1.6-7 5-10 7.7 1.2.4 2.3 1 3.5 1.2 3.3-2.3 6-4.7 10-6l2.7 1.8c-7 10.4-14 21.3-19 33 1.2-.2 2.5-.3 3.7-.6 1.5-1.6 2.4-3.7 3.4-5.6 4.3-8.2 9.3-15.8 14.6-23.4l1.4 11c-.1 3.5-1.6 7-2.6 10.5l4.2-.4c1.4-3.3 2.8-6.4 3-10 .3-5-1.7-10.2-3.2-15L92.3 370c2.7 3.7 5.8 6.7 6.4 11.5 1 7.7-1.5 14-3.6 21.2-1 2.2 1 3 2 4.5a42 42 0 0 0 5.5-26.2c-1-5.5-4.4-9.4-7.4-14a185 185 0 0 1 20.2-18.4l5.2 11a37 37 0 0 1 0 14.7c-1 6.3-3.8 11.5-5.8 17.5l3.2 1a62 62 0 0 0 5.7-13.9c-.5 4.8-.6 9.6.4 14.3.8 3.5 2.7 7 4.3 10-2.5 3.4-5 6.6-8.7 8.7-4 2.3-8.2 2.4-12.7 2.3a85 85 0 0 0-16.6.8c-2.8.4-5 1.8-7.4 3.2a155 155 0 0 1-15.3 7.7c-7.8 3.7-16.8 5-25.2 7.4l3.5-30c2.8-9.3 2-20.2 3.3-29.7 1-6.2 6.4-12 9.8-17 4-5.6 6-12 7.8-18.4 1.3-4.6 4.8-8.3 8-11.8a50 50 0 0 1 25.4-13.7zm156 11.3c5 1.5 9.4 3.4 12.7 7.4 4 4.8 5.2 12 5.6 18 .4 6.3-1 13 1.6 18.8 2.4 6.8 6.6 13.2 8.2 20.2a43 43 0 0 1-7.4 24c-3.5 5.7-6.8 12-6 19 .7 6 1.7 12 2.5 18.2l-7.2 12c-2.6 4-6 7.3-8.8 11.2a79 79 0 0 0-7.7 14l-43-14c-2.2-.8-4.2-1.4-5.6-3.4l-12.6-16.6c-3-3.4-7.5-3.2-11.7-3.7a30 30 0 0 1-19.8-7.8c-4.4-4.6-5.7-10.5-7.7-16.3-1.4-4.3-2.3-8.8-4-13-2.5-5.5-9-8.6-12-13.8a28 28 0 0 1-3-18.2c2-13.8 14.7-24.8 28-27.7l41-3 4 8c-12.6 1.7-25.6 4.7-35.7 13-5.5 4.3-9 10.2-11.3 16.7a30 30 0 0 0-.3 20.7c3.4-5.2 1-10 2.4-15.7a36 36 0 0 1 12.7-19.1c9.4-7.2 22.6-10 34-11.4l7.6 14.8c-6.5 1.4-12.7 3.3-18.4 7a39 39 0 0 0-16.9 24.8 49 49 0 0 0 1.1 21l3-1c-.2-5.6-1-10.8-.1-16 1.2-8.4 5-17.2 11.5-22.8 6-5.2 13.7-7.4 21.3-9.3l7.3 18.4c-7 3.2-12.2 7.8-15.8 14.7-5 9.7-7.5 21-7.2 31.8 1.3-.7 3.8-.8 3.8-2.8 1.3-9.7 1.8-18.7 7-27.4 3-5.7 8-9.6 13.5-12.6a400 400 0 0 1 8.5 27c-4 2-7.5 4-9.7 8-3.7 6.7-6.3 14.8-5.6 22.5 1.3-.1 2.5-.4 3.8-.7.3-6.4 1.6-13.2 4.8-18.8 1.8-3.2 4.7-5 7.7-7l6 26.7c.5 2.8 1.4 5.2 2.7 7.7l3-3.3-7.7-33.3c3.5.3 6.6-.2 9.6 2 4.8 3.4 6.8 8.4 10.7 12.4l2.3-.3c-.8-5.8-5.6-11.3-10-15-4-3.4-8.7-3.3-13.8-3L227 401c4 .2 8 .2 11.8.8 4.8.7 9.3 3 13 6 4 3.2 6.4 7.5 10 11.2l2.6-2.5c-5-9.6-14-16.6-24.7-18.6-4.6-.6-9.3-.3-14-.3a462 462 0 0 0-7.6-18.6l14.6-2.7a32 32 0 0 1 22 8.6c4.8 4 8 8.8 12 13.4l1.7-4.5a91 91 0 0 0-8.2-9.4c-6.4-6.2-14.4-10.4-23.2-11.7-6.5-1.3-14 1.8-20.4 3l-8-15.5c4.3-2.7 8.8-6 13.6-7.8a39 39 0 0 1 16.5-2.6 25 25 0 0 1 15 7c4 3.6 6.3 8 9.8 12l2.4-3c-4-6.5-8-12.5-14.8-16.4-7.8-4.6-16.8-4.4-25.4-2.2-7 1.8-12.6 6-19 9.5l-4.3-8.4c10.6-5.7 16.6-16 27.4-21.2 8-3.6 17.6-5.5 26-2.6zm-106.5 9.8a38 38 0 0 1 16.8 10.9c-4.4.4-9.4.3-13.6 1.7-12.7 4.7-23.7 13.6-27.8 26.8a36 36 0 0 0-1.4-15.6c-1.5-4-3.6-7.5-5.5-11.2a87 87 0 0 1 24.6-12.2c2.3-.6 4.5-1 6.8-.4z" fill="#858585"/></svg>