<svg xmlns="http://www.w3.org/2000/svg" viewBox="0 0 400 610" width="533.3" height="813.3" xmlns:v="https://vecta.io/nano"><path d="M0 0h400v610H0V0z"/><path d="M19.5 14.3c3-.2 6.3-.1 9.5-.1h354V418v5l-5.4-47.3C371.4 335.5 360 295.3 341 259c-9.7-17.3-21.6-34.7-36.4-48 .7-4.5 1.5-9-.2-13.4a12 12 0 0 0-18.4-3.9c-4 4.6-3.6 10.5-3 16.3-11.3 10.6-20.6 23-28.6 36.2-11 18.8-20.5 38.7-27.6 59.4-17.6 51.2-23.4 107-23.5 160.8l-19-2.4c-3-22.8-7.8-45.7-18-66.4-2-4.4-4.6-8.5-6.5-13 1.3-5.7 4-10.3.3-16-3.6-4.3-12-6-16.3-2-3 3.2-3.8 8.5-4.4 12.6-21 10.8-37.2 27-52.5 44.5-25.8 30-45 65.6-59.7 102.2-2.8 7.3-6 14.6-8 22 .2-4.4.1-8.8.1-13.3V24l.1-9.7z" fill="#fff"/><path d="M290 197c2.8-.8 6.6-1 9 1 1.6 3.3 1.8 7.6 1 11.2-1.5 6.2-4 12-6.4 18a86 86 0 0 1-6.7-19c-.5-2.5-.3-4.5.4-6.8.6-1.6 1-3.8 2.8-4.2z" fill="#ffe700"/><g fill="#858585"><path d="M284.6 217c1.2 3.5 2.3 7 4 10.3 1.2 2.6 2.8 4.6 2.5 7.5l-1 18.3c-6.6-7.6-13-14.4-16.2-24.2 3.5-4.2 7-8.2 11-12zm18 0l11.3 12.5a89 89 0 0 1-17 24.6l-1-19c-.1-2 .1-3.3 1-5 2-4.3 4-8.6 5.7-13zm-32.3 16.4a100 100 0 0 0 19 26.7l-1.4 27.7a230 230 0 0 1-17-22L260.3 248l8.3-12.4 1.7-2.4zm47 .6a187 187 0 0 1 9.7 14.2 191 191 0 0 1-28.1 40l-1.2-26c-.2-2 1.4-3 2.6-4.6a98 98 0 0 0 17-23.4zm-59.7 18.7c8.6 14.2 17.4 27.7 28.7 40 2 1.8 1.3 4 1.3 6.3l-1 20.3a301 301 0 0 1-26-27c-5.2-6-9.4-12.3-14.2-18.5l11-21zm72.4 0a246 246 0 0 1 10.8 21l-8.5 11.4a242 242 0 0 1-31.9 34.9l-1-26a182 182 0 0 0 29.1-38.7 357 357 0 0 1 1.5-2.6zM244.4 278c4.4 5.8 8.2 12 13 17.5a260 260 0 0 0 29 30.3l-1 31.4c-20.3-16.2-34.7-36-50.7-56l9.6-23zm98.6.5a323 323 0 0 1 7.8 18.6c.7 2.3 2.2 3.8.3 6a313 313 0 0 1-49.6 54.2l-1-30.5c1.3-2 3.3-3.5 5-5a219 219 0 0 0 37.3-43.1zm-49.6 2l2 43.5 2 64 1 77-.3 103c.1 4.4-1 8.2 1.5 12.2 1.4-.5 2.8-1 4-1.8l19-14 21.8-17 20-16.2 14-12v3.5a593 593 0 0 1-75.8 69.4c-2.4 2.2-5 1.6-8 1.7-2.7-.2-5.2.5-7.4-1.4a536 536 0 0 1-89-83.8l86.8 70c1.3 1 2.8 1 4.3 1.3a25 25 0 0 0 .8-6l-.6-72 2.3-151 2.2-70.4zm-60.4 26c15.6 19.7 30.3 38.5 49.7 54.8 1 1 2.7 2 2.5 3.6l-.6 28.2a310 310 0 0 1-41.5-40.2l-17.3-23 7.2-23.5z"/><path d="M354.2 306.5a340 340 0 0 1 7.2 23.5l-17 22.5a305 305 0 0 1-42 40.7L302 364c2-2.6 5-4.5 7.3-6.7 10.4-9.6 19.8-20.2 29-31l16-19.8zm-130 29.2L239 355a337 337 0 0 0 43 42c1.2 1.2 2.7 1.8 2.6 3.7l-.4 27L249 394l-30-33.2 5-22.5.7-2.8zm138.8.1a569 569 0 0 1 5.6 25.2L303 428l-.4-28.3c1-1.5 2.8-2.7 4.3-4 13.2-10.5 25.4-22.8 36.6-35.4 7-7.6 13-16.6 19.4-24.7zM217.6 367c8.7 9.8 17 20 26 29.4l40.2 38-.2 25.3a334 334 0 0 1-48.4-46c-6.3-7.7-12.4-15.5-18.8-23.2-1-1.2-2.4-2.7-2-4.3l3-19.2zm152 .4l3 20.2c-7 8.7-14 17.5-21 26-14.8 16.7-30.6 32.2-48.3 45.8L303 434c24-20.2 46.2-43 66.5-66.8z"/></g><path d="M154.3 370.6c1.8 1.5 3.4 2.8 3 5.4-1.2 7.5-7 14.6-11.7 20.4-.5-6-1.5-12.4-1-18.4.3-2.3.5-5.4 2.3-7 2.2-1 5.7-2.5 7.5-.2z" fill="#ffe700"/><path d="M139.6 386c.2 5.3 1.6 10.4 2 15.6-1.6 6.2-4 12.2-6 18.3a112 112 0 0 1-8.6-25.7l12.5-8.2zm16.4 5l6.5 13a83 83 0 0 1-19.8 17.2c1.4-6 2.3-12 4-17.8 2-3.7 5.4-6.5 7.7-10l1.7-2.5zm57.5 3.3c20 25.2 42.4 50.7 68.8 69.5 2 1.2 1.3 3 1.5 5.2l-.1 19.4C265.3 477 249.3 461 235 445l-23.6-28 2.2-22.7zm160.2-.5l2.3 23-23 28c-14.7 16-31 32.2-49.3 43.8V465c15.5-11 29.6-24.2 42.5-38 10-10.5 18.5-22 27.6-33.2zM123 397.6l5 17.4c1.5 3.7 3.7 7 5.4 10.7 0 1.3-.6 2.7-1 4L126 449c-7-13-11-26.8-15.2-41 3.8-3.7 8-7.2 12-10.6zm41.5 11.4l5 15-33.7 28 5-22c.4-2 1-2.6 2.6-3.6a87 87 0 0 0 21.2-17.5zm-57.5 3c5.3 15.2 9 30 17 44l-6.8 21.4c-10.7-15-18.2-32.7-24.3-50a301 301 0 0 1 14.1-15.3zm103.8 11l20.7 25.4c15.4 17.4 32.3 33.5 52 46l.4 27c-19.6-11.4-37.3-27.3-52.7-43.7-6.4-7.6-12.3-15.6-18.6-23.4-1.6-2-3.3-3.6-3-6.4l1.2-25zm165.7.2l1.2 28c-7 9-14.2 17.6-21.3 26.3a243 243 0 0 1-53 44l.2-26.7c19.8-12.8 36.5-28.6 52.3-46l20.5-25.8zM171.2 429a252 252 0 0 1 4.6 20.7l-9.5 8c-2-1.8-3.8-3.7-6.4-5-6-3.3-14.2 2.7-15 9-.7 3.5.6 6.2 2 9.2l-18 10 5.3-23c13-7.3 24-17 34.6-27.2l2-2zm-81.7 2.2c1.8 5.5 3.4 11.4 5.8 16.6L115 484l-8.2 26.8c-8.6-12.7-16.2-26.2-22.5-40.2L75.6 449a223 223 0 0 1 12-15.6l2-2.4zm41.5 19L113 526l-17 67.7h-8.3L131 450.3zM72.2 454l8.8 20 20 36c1.4 2 3 4 4 6.2 0 1.2-.4 2.5-.7 3.6l-6.8 23c-10.8-15-19.8-31-27.4-48l-9.6-22.3 10-16.2 1.8-2.6zm104.5.7l1.3 9.7-7.2.2-1.8-3 7.8-6.7z" fill="#858585"/><path d="M159.8 458.2c7 5 9.4 16.2 13 23.8-6.6-3-13.5-6-19-10.7-2-1.8-4.3-4.3-4-7.2.1-5 5.7-9.3 10.2-6z" fill="#ffe700"/><path d="M209.3 458l9.5 12.4c1.6 2 1.2 5.3 1.5 7.8a340 340 0 0 1 .1 44l-21-18.4-1-31c3.2-.1 8.7 1.8 10.6-1.7 1-4 .3-8.7.5-13zm168.7-.2V509c-.1 1.4.3 3-1 4l-12 10.5.4-46.5c.1-2-.1-3.6 1.3-5l11-14zM174 471l19.5 1.3.5 26.6-13-11.6c-1.7-1.4-2-3.3-2.7-5.3l-4-11zm-23.4 3.6l6.2 4.6V493c0 1.5-1 2-2 2.7l-33.5 19L128 487l22.7-12.4zM57.2 478c6 13.5 11.6 27 18.8 40a229 229 0 0 0 19.7 30.7l-7.2 25a571 571 0 0 1-41.8-75.8l9-17.4 1.5-2.7zm167.8.3c5.6 6.6 12 12.6 18.2 18.6 1 1 .7 2.8.8 4l-1.4 40-17.7-15c1-15.8 1.5-31.7.2-47.5zm135.2 2l-.5 46c.2 2.4-1.4 3.3-3 4.8l-12 10-1-43.6 14.4-14.7 2-2zM161.7 482c4.2 2.3 9 3.8 13 6.3 4.7 5 9 10.5 13.4 15.6-8.8-1-17.6-1.5-26.4-2.5V482zm-5 18c-.4 7.2.7 14.2 1 21.3.1 1.3-1 1.7-2 2.5a245 245 0 0 1-42.6 23.6l6.8-27.2a212 212 0 0 0 36.8-20.2zm91.8 2l13.7 11.2.1 43.7-14.7-11.7 1-43zm90.4-.6l.5 43.5c-5 4.3-10.4 8.3-15.6 12.4a309 309 0 0 1 2-45.3 224 224 0 0 0 13-10.7zM43.8 504l11.8 24.3c9.5 17.3 19.4 35 31.3 51l-4 14.5c-2.7 0-5.5.3-8-.2-17-22.6-27.4-47-38.7-72.6l6.4-14.5 1.2-2.6zm118.2 2.2c9.8 1.8 19.6 1.5 29.6 2.2 6 6.7 11.4 13.8 17.6 20.4l-45.4-2.5-1.8-20zm159 9.6c-.7 15.2-2.5 30-1.6 45.2L303 573.3l.3-46.2a230 230 0 0 0 17.6-11.4zm-54 .7l17 10.6.8 46.2-17.6-13.3-.1-43.5zM33.8 527L48 559a325 325 0 0 0 20.7 35H19.4v-17c0-4.7-.4-9 1-13.5a582 582 0 0 1 12.1-33.8l1-2.7zm124.7.5c.7 6.5 1.8 13 2.8 19.5l-56 31.4 6.5-25.6a267 267 0 0 0 46.8-25.2zm219.5 2v19l-12-6.2 12-12.8zM164.5 531l49.5 3 15.5 15.8-62-1-3-17.6zm198.3 14.6l15.2 8.7v16c-10.6-2.2-20.3-6.4-30.2-10.6 5-4.6 9.8-9.6 15-14.2zm-200.5 6.2l3.4 16a253 253 0 0 1-32.5 21.4c-3.4 1.8-7.2 4.8-11.2 4.5h-20.8l2.4-9a475 475 0 0 0 58.7-32.8zm6 1.6l62.7 1c1.6.1 3-.1 4.3 1.2 6.7 6 13.3 12.4 20.2 18.2-28 1.7-54.8 0-82.7-1l-4.6-19.5zm176 9.8c3.7 1.3 7 3.5 10.6 5A161 161 0 0 0 378 575v19c-4.4 0-8.4-1-12.5-2.5a278 278 0 0 1-36.8-14.8l15.6-13.4zm-177.5 9L171 588c.6 2 .3 3.8.3 5.7h-37a258 258 0 0 0 32.6-21.5zm7.2 5.4c28.7 1.6 58 3 86.8.5l19.4 15.5H178.7l-4.6-16zm151 2.3c4.8 2 9.4 5 14.3 7l19 7H307c6-4.5 12-9.3 17.8-14z" fill="#858585"/></svg>