<svg xmlns="http://www.w3.org/2000/svg" viewBox="0 0 400 610" width="533.3" height="813.3" xmlns:v="https://vecta.io/nano"><path d="M0 0h400v610H0V0z"/><path d="M20.5 16.3c3.2-.2 6.4-.1 9.5-.1h354V248v7c-9.5-15.4-20.8-31-34.8-42.6 1-5.7 2.5-10.7 1.8-16.6-.5-4.2-3-8.3-7-10-6-2.2-13.6-.8-16.7 5.3-3 5.7-1.2 14 .2 20-16.7 15.2-29.2 33.6-40 53.3a352 352 0 0 0-30.3 74.2c-8.6-7-16.4-14.2-25.7-20.4C220.2 310.7 208 304 195 299c-1.2-5.3-2.8-10.2-7-14-4 .1-8-1-12-.2-3 1.6-6 4.7-6.7 8-.7 5.2 1.7 9.8 4.2 14a206 206 0 0 0-12 42.1l-3 25.8C153 325.2 141 274.2 119 229a465 465 0 0 0-15.2-27.8c-9-14-18-27-30.3-38.3.5-5.4 1.3-10.3-1-15.5-3.4-8.8-19-9.3-22.5-.3-2.2 4.7-1.8 10-1 15-11.3 10.6-20.6 22.8-28.7 36l.1-181.7z" fill="#fff"/><path d="M66.8 148.3c2 3.6 3 7.7 1.8 11.7a111 111 0 0 1-7.5 20.8 84 84 0 0 1-5.7-15.3c-1.6-5.7-2-11.5 0-17 2.7-3.2 8.5-3 11.4-.1z" fill="#ffe700"/><path d="M51.5 171l6 13.7c1.5 2.7 1 5.4 1 8.4L57 210.6A85 85 0 0 1 45 196c-2.6-3.7-4.2-7.8-6-12l9.3-10.7c1-1 2-1.8 3-2.4zm19.7 0a78 78 0 0 1 12.6 13.9 100 100 0 0 1-18.7 25.9L64 188l7-17.2zm-36 18c1.5 1.8 2.3 4 3.5 6a174 174 0 0 0 17.8 23.7L55 249c-12-13-22-28.6-31-44l11.2-16zm52.4.4A237 237 0 0 1 98.4 205c-9 15.3-18.7 31-31.3 43.8L65.7 219c2-3.2 5.3-5.6 7.6-8.6 5.8-6.4 10.3-13.4 14.4-21z" fill="#858585"/><path d="M345.5 195c1 10.3-3.2 20.8-7 30-2-3.6-3-7.6-4.4-11.4-1.7-5.3-3.5-11.3-3-17 .3-1.8.3-3.6 1.8-4.8 3.5-3 11.2-2 12.4 3z" fill="#ffe700"/><path d="M21.6 211.3c10.3 16.2 19.3 32 33 45.7l-1 28.8a267 267 0 0 1-32.2-34.2c-1-1.4-1-3-1-4.6v-33c.3-1-.7-3.2 1.2-2.7zm80.2-.6c4.3 7.2 8.3 14.7 11.8 22.4-1 2.4-2.6 4.5-4 6.6a246 246 0 0 1-34.9 40.1l-6.2 5.3-1-27c-.2-1.7 1.3-3 2.3-4A193 193 0 0 0 96.7 219c1.7-2.7 3-5.5 5-8zM330 219l5.6 14-1 30.7c-4.7-6-9.4-11.4-13.3-18-2-3.5-3.5-7.4-5.5-11a111 111 0 0 1 14.2-15.8zm16.6 0c4.4 3.2 7.8 7.8 11.5 11.8 1.2 1.7 3.7 3.2 2.3 5.5a91 91 0 0 1-18 26.7l-1.2-28c-.2-3 1-5.2 2-8l3.3-8zm-230 20a396 396 0 0 1 10.7 26 1804 1804 0 0 1-20.4 25l-37 37.4-1-35.2a251 251 0 0 0 41.6-44.6l6-8.6zm195.4.8c4.3 10.2 11.6 19 19 27.2 1.2 1.5 3.3 3 3 5l-1.2 29.5c-13-12.7-22.7-30-32-45.4l11-16.2zm53 .2c4 5 7.5 10.6 11 16a283 283 0 0 1-23.3 35.6c-2.7 3.4-5.3 6.8-8.5 9.7L343 274c.1-2-.5-3.6 1-5a105 105 0 0 0 21-29zm-303.5 1.6h0v.4c0 12.7 1 25.3 1.3 38l1.7 53.7 1 29.3c.3 5.7-.2 11.3.4 17 .5 20.2.7 40.7 1 61 .1 2.3-.2 4.6-.6 6.8 1.2 5.2.5 11 .7 16.2-.2 5.2.6 11-.6 16 .5 2.3.8 4.6.7 7l-1 86c-.1 2 .5 3.3 1.3 5 1.2-.3 2.6-.4 3.7-1l22-15 24.5-19.5 17-15c3.6-2.7 6.4-6.2 10-9 13.7-12.3 26-26 39-39L214 446l9.2-10.6a387 387 0 0 1-37.5 52.4A577 577 0 0 1 66.9 595c-2.8 1.8-8.2 1.6-10.6-.8L20.7 566l-.1-11.6L51 576.6c1.4 1 3 1.3 4.6 1.6.8-1.6 1.4-3 1.3-5L56 445a5018 5018 0 0 1 4.6-194l.8-9.4zm-41 16.6c10 12.7 21.4 23.7 33 34.7l-1 34c-10.5-8-19.7-18-28.8-27.6-1.2-1.5-3.4-3.2-3.2-5.3v-35.8zm277.4 3.2L319 294l11.2 12.8c1.2 1.3 2.5 2.3 2.3 4.3l-1 27c-18.5-15.3-33-33.8-46-53.8l10.8-20.7a74 74 0 0 1 1.5-2zm81.4.4c2.6 3.4 5.5 7.8 5 12.2-.2 7 .3 14-.3 21a224 224 0 0 1-35.5 40.4c-.8.6-1.4 1.5-2.5 1.4l-1.2-27.8c14-13.8 25-30 34.6-47zm-250.2 9c2 3.7 3 8 4.3 12 1.3 4.7 3.2 9.4 4 14.2l-31.6 39.7C95 348 83.7 359 71.2 368.3l-1-33.4c15.8-13.4 29.6-28.7 43-44.4l15.7-19.7zM338.5 286l.6 20 2.6 75 2.4 115-.7 99.7h-10l-.8-53.7c-.3-5 .5-10-.1-15l3.5-173 2-46.8c-.2-7 .4-14 .7-21z" fill="#858585"/><path d="M182 289c3.2.4 5.4 3.8 6.5 6.6 2.7 7.2 2.6 15.8 2.6 23.4-5.2-4.8-10.2-10-14-16-1.8-3-3.5-7.2-2-10.6 1.7-1.7 4.5-3 7-3.3z" fill="#ffe700"/><path d="M282.8 290.2c4.7 6.5 8.6 13 13.8 19.2a324 324 0 0 0 26.7 28.3c2.5 2.5 5.4 4.7 7.7 7.4.3 2 .1 4 .1 6l-1 27.8c-1 .1-1.7-.8-2.5-1.4L295.2 345c-5.3-6-10-12.7-15-19l-8-10.6 10.5-25zM20.4 304L52 334l-.5 34.6a274 274 0 0 1-29.8-27.3c-1-1-1.3-1.8-1.3-3.3v-34zm119 0l5.6 24c.2 1.5 1 3.3-.2 4.6L80 401l-8 6.6-.7-31.5c-.2-1.2 1.2-2 2-2.7l34.4-31.6c8.8-9.4 16.6-19.4 24.6-29.4l7-8.4zm244.6 0c.4 11 0 22 .2 33-.1 2.5.5 4.7-1.5 6.6a277 277 0 0 1-35.6 35.4l-1-34.3 6.4-6.2a266 266 0 0 0 31.4-34.7zm-188 2.8c5.2 2 10.2 4.6 15 7.3a79 79 0 0 1-5.6 27.7c-.6 0-1-.3-1.2-.8l-6-12.2c-1-2-2.4-4.3-2.4-6.7V307zm-17.7 7.2c2.6 1.5 4.6 4 6.8 6 2.3 2.2 5 4 6 7l7 19c-8.6-4.4-18.2-9-24.8-16l5-16.2zm37.7 3c5 3.2 10.6 6 15 10-2.4 16.2-5 32.6-10.4 48L210 353c-.6-1.5-2-3.4-1-5 4-10 6.7-20.3 7.2-31zm54 5l22.5 27.4a278 278 0 0 0 37.3 36.8l-1 33.7a309 309 0 0 1-47.9-47l-19.2-25 8.3-26zm-34.4 8c6.6 4.4 12.6 9.8 18.7 15l-10.5 36.8-19 3-1.7-3.7a167 167 0 0 0 8.8-27c2-8 2.4-16 3.6-24zm-63.6 5.8c8.7 7.4 18.5 12.8 29 17.4l9.6 26.3c-15-6.5-29-16.8-42.3-26.6l3.8-17zm-25 2.6l3.4 22.6c-1 2-2.6 3.7-4 5.3l-20 25c-16 18.5-34 36.7-54 50.8l-.1-27.7c24.5-20 46.6-44 67.5-67.7 2.4-2.7 4.6-5.6 7.3-8zM20.4 348a379 379 0 0 0 30.9 27l-.4 33.2c-9.6-7.6-18.6-16-27.5-24.6-1.2-1.3-3-2.6-3-4.6l-.1-31zm363.6 2.3V387c-11 11.7-23 23-36 32.6l-.7-33.7c10.7-8.3 20.5-18 29.6-28 2.4-2.5 4.5-5.3 7-7.6zm-124 5.2c6 6.8 11.2 14.5 17 21.5 15.8 18.3 33 35.2 52 50l-.5 32.6C304.7 440 284.8 418 264.2 395c2.5-3 5-6 6.4-9.6 1-3.4 1.3-7.2-1-10.2-3-4-7.8-6.5-13-6.7.8-4.4 1.8-9 3-13zm-92.8 4.3c4.4 2.3 8 6 12.3 8.6a254 254 0 0 0 24.4 13.7c3.4 1.7 7 3 10 5-8.3 3.4-17.2 5-25 9.4-8-3-14.5-8.3-21.7-12.8-1-.8-2.4-1.3-2-2.8l2-21.2zm-15.8 9.2c1 7.3 1.6 14.7 2.3 22 .1 1.8.5 3.3-1 4.8L128 426c-16.7 18-35 35.5-55.5 49v-25.7c1-1.3 2.5-2.2 3.7-3 21-15.7 39.2-34 56-54l12.5-15.5 6.7-7.8z" fill="#858585"/><path d="M260 375.6c3 .5 5.6 2.3 6 5.4.4 3.8-2.3 7.7-4.7 10.4-5.2 5.6-12 10-18.4 13.8 1.3-6.7 2.8-13.7 5.2-20 1.3-3.3 3-7 5.7-9.3 1.4-1.8 4.3-.5 6.2-.3z" fill="#ffe700"/><g fill="#858585"><path d="M20.4 388c5.2 4.4 9.8 9.4 15 13.8L51 415l-.2 27.8c-10-7.2-19-15.2-28-23.6-1.2-1.3-2.5-2.2-2.3-4.2v-27zm144.6.7l18.3 10.6-18.3 11v-21.5zm76.4 0l-3 14.3c-.3 2-.3 4.4-1 6.4-1.5 2.4-3.5 4.5-5.3 6.7l-22.6 26.7c2-16 1.5-33 5.4-48.6 8.7-2.4 17.5-4.4 26.5-5.4zm142.6 5.8V427l-25.8 24.2c-3.2 2.7-6 5.5-9.6 7.8l-.4-32c2.4-2.8 5.8-4.8 8.5-7.3l27.2-25.2zM209 396l-4.3 50c0 2.8-3 5-4.6 7l-16.5 17.6 2-60.7c.3-1.8-.5-4 1.6-4.7A157 157 0 0 1 209 396zm53.5 5.2a941 941 0 0 0 11.9 13.4l49.3 47.7 4.4 3.8c.5 1.5.3 3.3.3 5l-.3 24-12.4-9.8C296 468.5 278 449.5 262 429c.5-9.2 1-18.5.4-27.7zm-108 .8l1 17.4c.5 4 .2 7.6.2 11.5l-1 68c.2 2.4-1.4 3.3-3 5l-13.3 12.8.3-94.8c.1-1.7 1.7-3.2 2.7-4.5l13-15.4zm101.5 1a297 297 0 0 1-1 34l-35 13 20-34c1-1.8 1.6-3.5 3.4-4.7L256 403zm-76 6.7l-1.5 65.4c0 1.8-1.4 2.8-2.4 4l-16 16.2 1-72.3c.1-1.8.1-2.2 1.6-3 5.7-3.4 11.4-7 17.2-10.2zM20.4 424.3a302 302 0 0 0 30.2 25.1l.1 26.5a224 224 0 0 1-27.3-21.2c-1.4-1.4-3.2-2.4-3-4.6v-25.7zm112.8 4l-.6 70.8c-.1 7.4.7 14.7.7 22-1.6 2.3-4 4-6 6l-9.4 7.8-.8-88c-.3-2.7 2-3.8 3.5-5.6l13-13.2zM384 434c.2 9.4 0 18.8.1 28 .3 2.8-1.8 4-3.4 5.7L349 495v-29c2.3-2.4 5-4.3 7.5-6.5L384 434z"/><path d="M261.6 437c3.4 3.7 6.4 7.8 9.8 11.5A336 336 0 0 0 327 501c1.3 1 .8 2.7 1 4v22l-7.8-5c-22.8-15.5-43-36.4-61.2-57l2.7-28zm-7 5.2L252 463l-47 16-7.5 2.4c5-7 10.4-13.7 15.3-20.8 1.8-2.7 4.7-3.3 7.5-4.5l34.4-14zM112 449.8l-.7 55.2c-.1 11.7.6 23.4.7 35-5.3 5-11.4 9.5-17.3 14L93 498v-31.7c6.7-5 12.7-11 19-16.5zM20.4 459c9.5 8.3 19.4 16 30.2 22.3V569c-3-1.5-5.5-3.7-8.2-5.7L23 549c-1.4-1.2-3-1.8-2.6-4v-86zM251 469.3c-1 8-2.8 15.7-4.3 23.5-23.4 8.4-49 12-73.4 17 5.7-6.2 11.2-12.6 16.5-19 1.8-2.5 4.6-2.7 7.4-3.6l53.8-18zm-163.3 1.5L88 511l1.4 47c-6 4-12 8.5-18.3 12.2l1.3-88c-.1-1.3 1.3-1.8 2-2.5 4.5-2.7 8.7-6 13-8.8zm170 1.2l9.2 10c18.3 19 38.6 38 61 52l.1 23.8-21.7-14.2a438 438 0 0 1-53.7-45.7c2-8.6 3.8-17.3 5.2-26zm126.4-.2c.2 8 0 16 .1 24.2-.1 2.2.5 4-1.5 5.6a215 215 0 0 1-33.4 25.2c.3-8.5-.1-17 .1-25.5a350 350 0 0 0 34.8-29.5zM245 499l-5.8 22.6c-.4 1.5-2 1.3-3.2 1.8a427 427 0 0 1-86 10.6l16-16.2c1.2-1.3 2.3-2.3 4-2.6 11.7-2 23.6-3.4 35.2-6a333 333 0 0 0 40-10.3zm6 5c8 7.6 15.8 15.5 24.3 22.6a321 321 0 0 0 52.4 37.6 960 960 0 0 1 .2 24c-4.2-1.7-8.2-4-12.2-6a369 369 0 0 1-54.1-37c-6.3-4.8-11.6-10.5-17.7-15.6l7-25.6zm133 3.7V534l-35 24v-23.7l25-18.3 10-8.3zm-146.7 21l-7 20.6-94.2 8c-4 .4-8 .8-12.2 1 5.7-5.4 12-10.4 17.5-16 1.3-1 2.3-2.5 4.2-2.5 31-1.2 61.5-4 91.8-11zm5 6.4c4.5 3.6 8.5 8 13 11.6 22 18 45.8 35 71.7 47.3.6.4 1 1 1.3 1.8h-110a560 560 0 0 0 14.8-34 390 390 0 0 0 38.1 28.1c2.6 1.6 5 3.5 8 4.7 2-.1 3.8-3 2-4.6-1.4-1.2-3.2-2.2-4.8-3.2-14.5-9-27.7-19.6-41.2-30l7.3-21.6zm141.7 6v26c.1 1.8-1.6 2.4-2.8 3.2l-32.3 18v-24c12-7 23.8-14.6 34.8-23.2zm-155.7 14c-2.2 6-4.4 12.3-7.3 18-.7.2-1.3.4-2 .5l-84 8.8-44 1.7a539 539 0 0 0 23.5-18.3c2-1.7 4-1.5 6.3-1.7l107.4-9zm-208 17.3l25.2 20 3.7 3.3h-29V572zM384 575v21c-11.6-.1-23.3.1-35-.1-.6-.6-.3-1.2 1-1.8a303 303 0 0 0 34.1-19zm-165.7 4.6l-7.5 16h-136c3.6-2.5 7.6-6.8 12.2-6.4l49-1.8 82.3-8z"/></g></svg>