<svg xmlns="http://www.w3.org/2000/svg" viewBox="0 0 400 610" width="533.3" height="813.3" xmlns:v="https://vecta.io/nano"><style><![CDATA[.B{fill:#fff}.C{fill:#858585}.D{fill:#ffe700}]]></style><path d="M0 0h400v610H0V0z"/><path d="M18.4 15.5l.3-.2.2-.1h58.7C85 52 100.8 87 123.7 117l-21.8 9.7c-1.3.6-2.4 1-3.8 1a59 59 0 0 0-26 5.3c-9.6 5-16 15.2-16.3 26-.4 12.2 4 24.3 7.3 36l7.6 25.8c.8 3.3 1.8 6.8 1.5 10.2l-3 36c-1 12 4.8 24 12 33 9.5 12.5 23.3 22 37.4 28.6 2 1 4.3 1.6 6 3 4.8 6 11 11 17.6 15.4 2 1.3 4.6 2.3 5.5 4.6L161 380c6.4 12.5 13.8 24.5 21.8 36l-8.6 33.2-11.6 44.2-13.7.6c-3 1.5-5.5 4-8.3 6-1.5 1.2-3.8 2.3-4.4 4.2-.1 1.7 1.8 4.2 3.7 3.3 3.7-2.4 6.8-5.5 10.3-8 2.8-.5 5.8-.5 8.7-.8l-21.6 19c-1.3 1-1.4 2-.5 4 1.5.1 3.6.6 4.6-.7L161 504c2.6-2 4.3-4.5 7.8-5.3 3 1.6 6 1 9.2 1.4 2.7.1 5.4.5 8 .2 1.4-1.3.7-4.3-1-5-5-.7-10.3-.1-15-1.4l16-61 2.3-10 10.5 12.3L200 518l-24 3-14 11.2c-1.4 2.2 1 3.5 2.2 5 3.7-3.6 7.6-7.4 12-10 5.6-1.4 11.5-2 17.2-3-5 3.6-10.8 6.6-15.2 11l-10.5 9.6c-1.4 2.3.5 6 3.4 4.3 4.3-4 8.2-8.5 12.6-12.4l12.5-8.5-12.4 23c1 1 2.3 1.8 3.4 2.5 1.4-.6 2-2.4 2.8-3.6l15.4-27c6 .7 11.8 2 17.8 2.5 3 0 3.3-3 1.6-5l-18.2-2.5-1.2-82c-.1-2-.2-4-2-5.3a132 132 0 0 1-13.4-15.7l10.6-49c9.2.7 18.5.3 27.7-.4l2 11.6c-.7 3.4-1.8 6.4-.8 10 1.6.3 3.7.7 5-.4 5.8-4 8.7-9.3 12.3-15-.3 3-1.7 6.6-1.2 9.6.3 2.3 2.8 2 4.5 2.8 6.5-4 11-10 13.7-17 .8 4.7 1.3 9.5 1.5 14.2-.1 1.6.7 2.4 1.8 3.5l4-.6a46 46 0 0 0 9.4-17.1c.4 2.7.7 5.2 1.8 7.7 1.3-.3 3.3-.1 4.4-1 6.6-6.2 12-14.2 12.3-23.6-.1-8-1-16-4.7-23.2-3.4-6.7-9.6-12-16.7-14.4-1.4-.5-2.5-1.4-3.7-2.2l-20-15c-4.3-3.8-7.4-8.5-11.5-12.6A181 181 0 0 0 229 270c-9.5-7-20.5-13-32-16-2-.6-4-.7-6-.4l-49 4.3-26-7a33 33 0 0 1-14.2-5.9c-.1-13 1-27.4-4.4-39.5a208 208 0 0 1-8.8-24.6c-.2-1.2 1.2-2.7 2.3-3l11.8-5c7.5-5 11.4-12.5 14.3-20.7l21.3-17.4a336 336 0 0 0 60.9 52.2c14 9.5 28.7 18 43.8 25.2 34.6 16.5 71.8 26.8 109.8 31.4l6 9.6a220 220 0 0 0-39.3 63.8c-15.4 38.2-22.8 80-26.2 121a223 223 0 0 0-43.1-12.2c-2.4-5-6-10.6-11.5-12.3-4.5-1.3-8.5.7-12 3.6-3.4 2.6-5.4 6.8-4.3 11 1.5 6.5 6.2 11 11 15.4-.6 11 0 21.6.8 32.6a252 252 0 0 0 11.2 59.1 173 173 0 0 0 32.2 59.6H91.5a228 228 0 0 0 36.8-95.9 238 238 0 0 0 1.3-66.9c1-2.7 3.5-5 4.8-7.5 3-5 4.2-10.4 2-16-1.3-2.6-3.8-4.6-6.5-5.6l-11.7.6c-4.6 3-6.5 10.3-7.6 15.4l-25.5 10.3a251 251 0 0 0-35.9-84.6l-24.8-30-3.7-.7c-1.3 1-2 2.2-2.2 4l-.2 23.4-.1-29.4V16v-.4z" class="B"/><path d="M85.3 16.8H383V231l-6.8 5c-.6-5.2-2-10.8-6-14.4-2.5-2.5-5.8-3.3-9.2-2.4-4 1-7.6 1.3-10 5-2 3.8-1.8 8-1 12-16.5-1.8-33-5.6-49-9.7a336 336 0 0 1-87.2-37.5c-26.3-15.8-50-35.7-70.6-58.4l44.2-34c2.3-1.8 4.6-2.7 5.6-5.6 0-1.5-1.4-3.7-3.2-3.6L130 114c-2.8-3-4.8-6.6-7.2-9.8-18.2-26.3-31-56.2-37.3-87.5z" fill="#e61f19"/><path d="M164.5 106l-47.3 37.4c-.3-3-.6-5.7-2.4-8.2-1.6-2.2-3.8-3.2-5.8-4.8l55.5-24.4z" class="B"/><path d="M90 134a39 39 0 0 1-8.9 17.1c-5.3 4.3-12.2 4.3-19.2 7 .1-6.5 3.4-12.6 8.3-16.8C76 137.2 83 134.8 90 134z" fill="#da8e55"/><path d="M90 134l13-.4c2 .3 3.4 2.3 5 3.5 3 2.3 5 6 4.3 10-1.8 2.4-2 5.2-3.2 8-3.2 7.3-9.2 13.7-17 16.3-2.2 1-4.7 1-6.8 2-2.5 2-3.5 5.5-5 8.3-2.2 3.6.7 8.8 2 12.4 3.5 7.4 7.5 14 8.7 22.2l1 31c-.4 2.5-.5 5-2 7-3.5 5.7-9.2 10.5-14.4 14.8l3-40.8c-.4-6-2.4-12-4-17.8L65 180a114 114 0 0 1-3-21.9c7-2.6 13.8-2.5 19.2-7a39 39 0 0 0 8.9-17.1z" class="B"/><path d="M92 145.2c3.2 1.3 7 4.5 5.2 8.3-1.7 3.4-5.7 2.2-8.6 1.8-1-1.7-2.6-3.2-1.8-5.3 1.2-2.2 2.7-4.2 5.3-4.8z"/><path d="M365 224c2.4.8 4.2 3.6 4.7 6 2 9 0 18.6-.4 28-1.2-.4-1.7-1.8-2.5-2.8-4.3-6.2-9.2-13-11.4-20.3-.5-2.6-1.5-5.8.7-7.8 2.2-2 5.8-3.5 9-3z" class="D"/><path d="M382.4 240.3L381 592c-9.3.1-18.6-.1-28 .1l1-3c-4.4-5.6-10-10.3-14.5-15.7a546 546 0 0 1-66.5-89.2l6.4 8.3c3.7 4 7 8 10.8 12l39.5 40.5 13 11c2.7 3 6.3 5 9.2 7.8 2 1.6 4 4.4 7 4 .6-1.4 1.2-2.6 1-4l1-46a476 476 0 0 1 .8-30c-.1-8.4.2-17.2.7-25.6-.1-10.3.6-21 1-31.4.7-11.5.4-23.5 1.4-35-.3-6.7.4-13.4.5-20l1-31c.5-2.4.4-4.5.2-7l2.4-72c2.4.6 3-.1 4.8-1.4l2.7-18.6c-.2-1.8 2.4-3 3.6-4l2.4-1.7z" class="C"/><path d="M101 253.4c1.8.4 3.4 1.5 5 2.2 10 4 21 6.4 31.4 8.4-1 2.3-1.6 4.6-3 6.6-1 3.8-2.7 7.4-3 11.4-1.6 11 3.3 22.6 11.7 30 8.2 8 19.2 13.4 29.7 17.5 7 3 14.7 4.7 22 6.6 5.3.8 10.4 3.4 15 6 6.5 4.3 12.3 9.4 16 16.5-25 2-50.3-.7-72.7-12.7l-21.7-17.2c-2-1.5-3.4-3.4-6-4.3a95 95 0 0 1-32.1-20.8c-7-6.2-12.8-14-16.4-22.6-.6-1.2.6-2.7 1-4 5.3-10 12-19.4 23-23.7z" class="B"/><path d="M362.8 258.3l1.5 2c-.8 6.6-.6 13.3-1 20-2.8-4.5-4.5-9.4-6.6-14.2 1.5-2.8 4-5.2 6-7.6z" class="C"/><path d="M191 260c3.3-.5 7 .8 10 1.8 7.4 2.7 14.5 6.8 20.7 11.7-4.5 6.2-11.8 6-18.7 5.3-5-1-10.8-1.6-14.8-5.2l-16-12.2L191 260zm-26 2.7a408 408 0 0 0 32 23.2l-3 3-15 2c-1.7.2-3.3.6-5 .2-4.3-1-8.7-1.6-13-2.5-3-.5-5.2-3-8-5a149 149 0 0 1-13.2-12l3.3-7.5 21.8-1.7z" class="B"/><path d="M352.8 271l9 16.3c.6 1 1.5 2.4 1.4 3.7l-.4 12.5-13.2-22c-.7-1-1.4-2-1.7-3.4l5-7z" class="C"/><path d="M226 276.7c6.8 5 13 10.5 17.8 17.4a25 25 0 0 1-22 1.1c-6.5-3-12.3-7.6-18.7-11 8.6 1.6 17.4-.4 23-7.6zm-88.2.5c8.7 8.8 18.6 16.7 29.2 23-.2 2.7-.8 4.3-3.4 5.3a35 35 0 0 1-19.5-.5c-8-7-8.7-17.8-6.3-27.8z" class="B"/><path d="M344.2 283.8c1 1 1.7 2.4 2.4 3.6l15 25c1 1.7.8 3.5.8 5.4l-.5 16.4A215 215 0 0 1 344 308l-6-13c1.7-4 4.2-7.4 6.3-11z" class="C"/><path d="M201.5 289c7.3 4.4 14.4 9 22 13.2-2 5.2-7.5 6.5-12.5 7.2l-13.7.6-26-13.3c7 1.3 14.6 1.4 21.3-1 3.6-1.6 7-3 9-6.7zm46.2 8.8c3.7 3.5 8.2 6.4 11.8 10-1.7 1.2-3.2 2.3-5.4 2.3-7.3.5-13.5-5-20.3-7.8 5-.5 9.6-2 14-4.4z" class="B"/><path d="M334.2 301h.5L340 312c5.8 11.3 13.6 21 21.4 31l-.5 18.7c-12-15.4-23.6-32-32-49.7l5.4-11z" class="C"/><path d="M171.8 303.3l2.6 1.4a195 195 0 0 0 30 14c-1 2.6-3.8 4.2-6 5.7-6 3-14 2.8-20.6 1.4-7-2.2-13.8-5-20-9-2.8-1.7-5.2-3.8-8-5.5 3.3 1.2 7.4.3 11 0 5-.7 9.4-3 10.8-8zm56.4 1.7l15.4 8.5c3 2 5.5 4.4 5.2 8.4-3.3.3-6.5.6-9.8.6-10.5-.6-19.4-4.6-29-7 6.7-.6 15.3-4 18.3-10.6z" class="B"/><path d="M264 311l10 7a29 29 0 0 1 10.3 6.7c6 6.3 8 15.8 7.8 24.3-.2 5.6-2.5 10.6-5.8 15-2-6.3-5-12.3-5.6-18.8a56 56 0 0 0-18.9-32.1l2.2-2.2zm-11 4.2c3.2-.5 5.5 2 7.8 4a54 54 0 0 1 12.9 19.9c.8 4.8 3.5 10.3 1.8 15-.3 5.6-1.6 12-4.6 16.8l-4-18c-2-3.6-1.7-7.5-2.8-11.4a41 41 0 0 0-10.9-18.5l1-3c-.5-1.5-1.6-3-1.5-4.7zm73 3.8l.6.4L334 333l22.8 33c1.2 1.6 2.8 3 3.6 4.8l-.6 19.7c-15.5-17.2-27.6-38.5-39-58.5l5-13.2z" class="C"/><path d="M209.2 320.4l26.6 8c2.3.5 6.3 3.6 4.7 6.3-2 2.7-6.5 3-9.6 3l-25.2-4.3c-3.2-1.4-6.6-1-10-2.2 3.3-1 6.4-1.8 9-4 2.4-1.7 3.2-4 4.2-6.6z" class="B"/><path d="M25.4 325.6a149 149 0 0 1 16.1 19.5A104 104 0 0 1 24 374.8l1.3-49.3zm225.3 1.4a42 42 0 0 1 10.1 23c-.7 8-1.6 15.8-7.5 22a58 58 0 0 0-2.8-18.1c-1-5.8-2.8-9.7-6.7-14 2-4 2.8-6.7 1-11 2-.8 4-1 6-2zm68 12l6.2 10.2 34.8 48.8-.6 20.6a213 213 0 0 1-31-39.6l-13.7-25 4.3-15zm-102.8 1c8 1 15 3 22.8 2.2 3.3 3.8 7.5 9.5 6 14.8a31 31 0 0 1-8 17.8c-1-4.8-1.5-10-3-14.7-3.6-3-5-6.8-7.5-10.5a62 62 0 0 0-10.4-9.7zM45 350l6 9c.6 1 1.8 2.3 1 3.6L42 382a176 176 0 0 1-18.9 26.6L24 383c8.6-8.4 15.3-19 19.8-30l1.3-3z" class="C"/><path d="M157 355.3c11.4 5.4 24 8.5 36.7 9.8l-9 42.2-17.3-29.7-9-19-1.5-3.2z" class="B"/><path d="M312.3 361.5c5.5 9 10 18.5 16 27.2 9 13.5 19 26 30.6 37l-1 30a212 212 0 0 1-30.7-41L308 381l4.3-19.5zm-257 5.5a117 117 0 0 1 8 15.8L49 407l-26.7 34.3c.1-6.7.4-13.5.5-20.2.1-1.3-.2-3.5 1-4.4a174 174 0 0 0 20.7-28.3c4.4-6.6 7.3-14.2 11-21.2zm10.6 21.4l6.7 18.6-16.7 26.8a214 214 0 0 1-34.5 38.5L22 449c12-12 21.5-25.2 31-39l12.8-21.6zm240.5.4l20 35c9 14.3 19 27.7 31.5 39l-.7 21.6c-10.2-8-19-18.5-26.7-28.7l-26-39.8c-.6-1.2-1.8-2.5-1.5-4l3.6-23.2z" class="C"/><path d="M125 407.3c2.4.6 6.6 1.6 7.5 4.2.7 3.5-1 7.4-2.7 10.4-4 6.7-10 12.5-15.6 18 .1-8.4 0-17.7 2.7-25.8 1.4-3.7 3.5-7.2 8-6.8z" class="D"/><path d="M74.8 414l5 19.3c.5 1.5-1 2.7-1.5 4-7.2 10.8-13.6 22.3-21.8 32.3a142 142 0 0 1-35.9 33.5l.6-21c.2-1.2-.3-3.3 1-4l15.3-13.8c15.2-15.4 25.5-32.7 37.6-50.3z" class="C"/><path d="M238 418.7c3.6 1.7 5.8 5.3 7.4 8.7a83 83 0 0 1 5.7 21.6 75 75 0 0 1-19.8-15.5c-2.4-3-4.2-6.7-2.7-10.7 1.8-3.7 6-3 9.4-4z" class="D"/><path d="M301.5 421c6.7 9.6 11.7 20.6 18.6 30a173 173 0 0 0 33.5 37.4c1 1 2.6 1.6 3.2 2.7l-.6 22c-1.8-1-3.5-2-5-3.4-3.6-3.4-7.4-6-10.2-9.8-4.8-3.4-9-8.7-13-13-2-2-3.2-4.7-5.4-6.7-9.3-11.2-15.7-24.2-23-37.3l2-22.2zm-195 6.5l3.2-1-.5 13.6c0 2-1.2 3.3-2 5l-10.8 17.4-1-30.8 11.2-4.2zm146.6 5.3l12.7 3c.3 9.4-.6 18.7-1.4 28l-7-10.2a156 156 0 0 0-4.2-21zM90 434l1 37-8.3 13.7c-1.3 2-2.3 4.3-4 6l.8-46.2a72 72 0 0 1 4.6-7.4c1.6-1.4 4-2 6-3zm33.2 4.4h.2l.5 16.4-16.5 12.8L115 449c.7-1.7 1.2-4 2.7-5.3 2-1.7 3.8-3.4 5.5-5.2zm147.8-1l14.6 5c-.7 13.8-3.6 28-5.8 41.7a208 208 0 0 1-10.2-13c-.8-1-1-2-1-3.3 1-10.2 2.8-20.2 2.3-30.5zm20 7.3l4.4 1.8L303 460c-.6 14.4-4 30-6.2 44.2l-12-13.5 6-46zm-50.8 3.8c2.8 1.5 5.3 3.6 8 5 2 1.2 4 2 5 4l6 11.2-19.2-5v-15.4zm-166.4 4.8l-.5 45.7c-1.5 3.3-4 6.3-5.8 9.4-1.6 2-2.7 4.8-4.7 6.5l-.6-43c-.3-2 1.5-3.5 2.6-5 3.4-4.2 5.8-9 9-13.4zm31.7 5.2l.1.2.1.2c-2.8 7.3-6.6 14-9.8 21-8 16-16.8 31.6-26 47l-17 27a3106 3106 0 0 1-25 38H18a481 481 0 0 1 .2-8.5h3c2.5-2.6 4.5-5.6 7-8.4a964 964 0 0 0 39.5-56.4l37.8-59.8.1-.2zm18.5 3.2l-.7 15.6a224 224 0 0 1-32 22.6l9-17.7c.8-1.6 1.3-3 2.8-4l21-16.4zm183.7 6.2l12 17c-1 12.3-4.2 24.2-6.8 36.3-3.6-4-8-7.8-11.2-12l5-27c1-4.6.8-9.3 1-14zm-67.2 1.3l19 5.2c1.2.4 2.8.5 3.8 1.3 2.4 4 4.6 8.3 7 12.5l-28.3-5c-1-4.5-1-9.4-1.4-14zM57 476.8l.5 41.2c-.1 2.7.6 5-1.2 7.4l-31.6 44.3a76 76 0 0 1-6.2 7.4l2-67.7a160 160 0 0 0 36.6-32.5zm66 8l-2.3 18.2c-3.2 3-7.5 5.3-11.2 7.8-11 7-22.2 13.5-34.5 18 3-5.5 6.3-10.8 9.3-16.3 1-1.8 2-4 4-5a236 236 0 0 0 34.7-22.7zm119.3 3.8l31 5.3 9 15c-12.4-.6-25.5-1.7-37.4-5.5-1.5-4.5-1.8-10-2.6-14.7zm82 2.2L336 503l-5 35.7-13.5-12.8c2-12 6-23.2 6.8-35.3zm16.7 17l9.5 8.2c.1 4.6-.2 9.4-.5 14l-5 21.7-9.7-8.7 4.2-21c1-4.6 1-9.5 1.5-14.3zm-95.3 1a164 164 0 0 0 40.2 5.3c3 4 5.5 8 8.5 12l-45.2-3.8c-1.7-4.4-2.5-9-3.5-13.7zM119.4 511l-3.5 15c-.3 3-3.8 3.4-6 5a257 257 0 0 1-49.6 21.3l11-17c17.8-5 32.7-14.3 48.2-24zm236 11c.5 4 .1 8 0 12l-.8 26.2a69 69 0 0 1-5-4.2c1.7-11.3 5.2-22.5 5.7-34zm-105 6l48.2 4.2 10.2 13.4-53.7-3.6-4.7-14zm-137.3 7l-7 19.2c-.4 1.4-2 1.6-3 2l-58.4 20 9-14.2c1-1.5 1.5-3.2 3.6-3.5 19.8-5 38-13.6 55.7-23.5zm144 12.5l56.3 3.7 13 15.5-61.7-3c-2.6-4.2-4.5-8.8-6.5-13.3l-1.2-3zm-154.8 14.7c-5 10.2-10.6 20-17 29.4l-.6.3H34.4l6.3-9.3 58-19 4-1.3zm165.5 7l63.7 3L350 592h-65.8c-6-7-11.5-14.7-16.2-22.7z" class="C"/></svg>