<svg xmlns="http://www.w3.org/2000/svg" viewBox="0 0 400 610" width="533.3" height="813.3" xmlns:v="https://vecta.io/nano"><style><![CDATA[.B{fill:#858585}.C{fill:#333}.D{fill:#e61f19}.E{fill:#ffe700}]]></style><path d="M0 0h400v610H0V0z"/><path d="M20.5 15.3l363.6-.1c.1 3 .1 6 .1 8.8v302c-.2 2.7 1 5-1.5 7-1.3-18.3-3.7-36.6-6.7-54.7-7-41-18.8-82-38-119.2-11.5-23.3-26.3-46.8-46-64l-.2-.7c2-6.8 3.5-15.2-.5-21.6-2.4-4-6.8-5.2-11.3-5-6-.2-11.2 5-12.5 10.6-1 5.7.4 11.2 1.5 16.7-16.4 14-29.2 33-39.5 52l1-61c.3-2.5-1.7-5.7-4.5-5.5l-117 1.3c-1.6.1-3.8 0-4.2 2a606 606 0 0 0-3.1 85.2l7 83.5 10 58.6-17.3-22.6c-3.5-4.4-8.2-8-12.3-11.8 1.6-6 2.8-12.2 1.2-18.2-1-3-2.4-6.2-5-7.7-3-1.8-7-1.7-10.2-1.4-3.7.4-7.5 2-9 5.7-2.4 6.2-1.3 14 .5 20-2.5 3-5.6 5.3-8.2 8C43 299 30.8 318 20.4 337l.1-321.8z" fill="#fff"/><path d="M312.2 23c-.6 1.2-1.2 2.4-2 3.5-2.3 1.6-5.6 2.6-7.4-.3-1-2-1.3-6 .7-7.5 3.6-2 7.7.5 8.7 4.3zm-182.7-3.3c3-1 7.7-1 7.8 3.3.5 4.2-2.2 6.3-6.2 5.6-4.4-.5-5.5-7-1.6-8.8zm-58 .7C75 19 80 20 79.5 25c-.1 4.3-5 5.2-8.2 3.7-2.7-1.6-2.7-6.8.1-8.3zm201 0c1.4-.8 3.8-.8 5.2 0 2 1.4 2.3 4.6 1.7 6.8-1 3-5 3.6-7.4 2-2.8-2-2.3-7 .5-8.7zm78.8 2.6c1 2-.2 3.6-.7 5.6-1.7.7-3.4 2-5.4 1.2-3.6-1-4.5-5.6-2.6-8.4 2-2.4 8-2 8.7 1.5zM42 21c2.6-1.3 6.4-.1 7.2 3 .6 2.3.4 5.3-2.2 6.2-2 .8-5.8 1-6.7-1.6-.6-2.2-.7-6.3 1.6-7.5zm131.4.4c2.4-1.6 6.4-1 7.2 2 .5 2 .6 4.8-.8 6.3-1.8 1.4-5.4 1.4-7.2-.2-1.8-2-1.5-6.4.8-8zM236 21c2.3-1 6-.8 7 2 .7 2.2 1 6.4-1.8 7.3-2 .6-6 .7-6.8-1.8-.8-2.2-.7-6.2 1.7-7.5zM94 22.2c2-.4 5-.6 6.7 1 1.5 1.5 1.4 4.2.7 6-1.5 3.7-8.4 4-9.4-.3-.5-2.4-.7-5.7 2-6.8zm276.7 1c1.8 3 1.3 4.6 0 7.5-2 .7-3.4 2-5.6 1-3.2-1-4-5.3-2.5-8 1.7-2.4 6-2.3 8-.5zM323 24.6c3.5.6 5.4 2 6.3 5.4l-1.6 3.6c-2.6.6-5 2.4-7-.1-1.4-2.6-1.2-8 2.4-9zm-109.6 1.8c3.6-1.3 8 0 7.7 4.6.3 4.7-6.7 7.3-9 3-.7-2-1-6.3 1.3-7.5zM290 31c3-1 6 2.2 6.6 5l-1.2 3.4c-2 1-3.8 2-6.3 1-4.2-1.3-3.3-8.7 1-9.5zm-140.7 2.3c3.8-1.7 7.3.4 7 4.7.3 4-3.4 6-7 4.5-3.6-1.7-3.4-7.2-.2-9.2zm100 1c4.2-1.2 6.7 1.5 6.4 5.6-.1 4-5 4.2-7.7 3-3-1.7-2-7.5 1.3-8.5zm-133.4.8c1.8-.6 4.4-.6 5.8 1 1.2 1.5 1.4 4 1 5.8-.8 4-8 4-9 .1-.5-2.5-.3-5.7 2.3-7zm-56.5 1.4C62 35.8 66 36 67 39c1 3.7-1 7.3-5 7.3-5.2.4-6.8-7.8-2.5-9.8zm133.8.7c3.5-1.4 7.4.7 7.4 4.7.5 4.6-6.5 7-8.8 3-1-2.2-1-6.6 1.5-7.8zm-113 8C85 41 90.5 51 86 54c-2.3 1.2-7 1-8-2-1.2-2.3 1.2-4.8 2.5-6.6zm270.2.4c2-1 5.4-1 7 .6 1.3 2 1.2 5.4-.1 7.3-2.4 3-8.2 1.8-9-2-.5-2-.3-4.8 2-6zM336 48c.6 1.3 1 2.7 1.4 4-1 1.7-1.2 4-3.4 4.5-2.2.2-5.3.1-6.3-2.3-.8-2-.6-5 1-6.5 2.3-2 5-1.3 7.4.3zm-99.8 5.2c2-1 4.6-1 6.6 0 2.3 1.2 2.6 5 1.3 7s-4 2-6.2 1.8c-4-.2-4.3-6.8-1.8-8.7zM43.5 57.7c2.5-1 6 0 7 2.8.7 2.2.6 5.2-1.7 6.3-2.2 1-6 1-7.4-1.2-1.4-2.5-.8-6.7 2-8zm55.7-.5c2.3-1 5.8-1 7 1.7.8 2 1 5-.6 6.6S101 67 99 66c-3.4-1.7-3-7.3.2-9zm-36 2c2-.8 4.5-.8 6.4.3 2 1.3 2 4.4 1.3 6.4-1.4 3.4-6.8 4-8.8 1-1.5-2-1.4-6.3 1-7.6zm301 9c3.4-2.4 6.8 1.3 6.5 4.7 0 4.3-5.2 6-8.3 3.5-2.2-3-1.7-6.5 1.8-8.2z" class="C"/><path d="M284.5 73.6c3.6 1 3.3 6.4 4 9.4-.4 8.5-4 17-7.7 24.8l-.8.3-7-22c-.7-3.5.4-7.3 1.3-10.6 2.2-3 7-2.8 10.2-1.8z" class="E"/><path d="M41.4 81.4c2-.5 4.6-.5 6.3 1 1.7 1.7 1.7 5.5-.2 7-2.2 1.6-6.5 1.8-8-.8-1.2-2.3-1-6.4 2-7.2z" class="C"/><path d="M223.8 87.3l-1.3 29.7c.1 30.4 1.6 60.8 5 91a769 769 0 0 0 22.5 115c16.7 60 42 118 80.6 167.4l6.6 8.6-20.2.8-53.5 2.4-52.6 2.3a405 405 0 0 1-34.8-53.5c-23.8-43.7-40-91.4-50.3-140-11.3-52.6-16.7-106.2-17-160 0-19-.2-38 1.4-57 .2-1.8.1-4 1-5.6l112.5-1.2z" class="D"/><path d="M51.5 91.7c2-.6 5.2-.5 6.7 1.2 2.3 3.5.4 8.6-4 8.6-5.5.6-7-8.2-2.5-9.8zm314 1l2 3.4c-1 1.7-1.4 4.3-3.5 4.8-2.3 1.2-5 .8-6-1.6-.7-2-1-5 .6-6.8 2.5-1.8 4.5-.7 7 .3zm-29 1c3.8-.8 6.2.7 7 4.5-.7 1.6-.7 4.3-2.7 4.6-2.4 1-4.7 1.5-6.2-1.2-1-2.3-1.2-7 1.8-8z" class="C"/><path d="M271.8 102c1.8 5 4.8 10 6.3 15l-1.4 31c-9-8.2-14-19-19.8-29.2 1.5-3 4-5.3 6-7.8 2.8-3 5.5-6.6 8.8-9zm17.2 0c2 1 3.5 3.3 5 4.8 3.4 4 7.4 7.7 10 12a106 106 0 0 1-20 28.9l-1-31.8 5.8-14z" class="B"/><path d="M153.2 109c-.4 5.7-1.2 11.4-1.4 17 5-.8 9.8-1.5 14.8-2.3 1.6-.2 3.5-.7 5-.3 1.7.6 1.5 3 1.3 4.4l-21.6 3.7c-1.6 9.8-1 20 .5 29.8 2.6-1 4.8-2.3 7.3-3.4 2-5.3 3.5-11 5.6-16.2 2-3 4.4-1.2 5.4 1.4-1 4.2-3.2 8-4 12.4 6.6.2 13.2.8 19.8 1 2.6 0 5 2 7.2 3.2 4.6 3.3 8.6 8.3 8.2 14.3-.4 9-5 17.8-11.3 24L176 214c-1.8 2-2.7 4.4-4.8 6.2-1.5 1.6-4.5 4.2-3.8 6.6 1.4 3 4.8 3 7.7 3.5 2.6-.3 3.7 4.6 1 5.2-3.4.3-7.5-.1-10.2-2.2-2.4-2-4.2-5-3.5-8.2.6-3.6 2.7-7 4.8-10 1.4-2 4-2.5 5.4-4.5l15.8-19.2c3.4-4.8 7.8-11.2 7.2-17.3-.2-6-5-11-10.4-12.6l-22 .7-6 13c-.7 1.7-1.8 2.8-1 4.8 2 6 4.8 11.6 8.2 16.8.7 1 1.4 2 1.7 3.4 0 2-3.4 3.7-4.7 1.7-4-5.3-6.6-11-9.3-17-2 1.7-3.2 4.2-5 6-3 3-7.3 6.6-12 6-2.2-.3-5.4-1.3-5.8-4-1.7-5 .7-9.4 3.4-13.4 3.8-5.4 8.8-10.5 14-14.5-1-8-2-16-1.6-24 .1-2.8.7-5.4.5-8.2L129 132c-2.5-.7-1.8-2.7-1.8-4.7 5.8-1.6 12.7.8 18.8-.3l1.7-18.2c1-2.8 4.8-2.5 5.5.2z"/><path d="M52 115c3.6-2 8 .7 7.6 5 .5 4.7-6.5 6.2-9 3-1-2.2-1-6.5 1.2-8zm300.4 1.7c2.7 1.3 2 5.7 1.4 8-2 .5-4.3 2-6.4 1-2.7-1.2-3-4.7-2-7 1.2-2.7 4.5-3.5 7-1.8zM73 120.2c3.8-1 7.4.3 7 4.8 0 4.7-5.5 7-8.6 3.4-1.4-2.2-1.6-7.4 1.5-8.2z" class="C"/><path d="M253 123.6c2 2.2 2.6 5.5 4.3 8a127 127 0 0 0 17.2 21.8c1 1 2 2 1.8 3.5l-1.3 29.3a9 9 0 0 1-1.8-1.5 527 527 0 0 1-16.9-21.1c-5.7-7-9.5-15.3-14.4-23 3-6 7.3-11.7 11.2-17.3zm55.3.6c1 .5 1.7 2 2.5 3l8.6 13.7a258 258 0 0 1-29.6 42.7c-1.2 1.3-2 2.6-3.6 3.5L285 155c9.3-9.3 17.6-19 23.5-30.8z" class="B"/><path d="M45.3 128.3c2.3-.8 5.2.1 6 2.6.5 2 .7 5.7-1.6 6.8-2.3.7-6 1.3-6.7-1.8-1.8-3.2-.6-5.8 2.3-7.6zm318 9.4c2 1 3 2.7 4 4.4-1 3.6-4.4 5.8-8 4.5-2.4-1-2.3-4.4-2-6.5.6-2.6 3.6-4.2 6-2.4z" class="C"/><path d="M238.8 146c10.4 16 18.8 31.7 33 45.2 1.4 1.6 3.4 2.3 3 4.7l-1 28-1.4-.6a243 243 0 0 1-40.4-46.6c-1-1.7-.7-4-1-6-.1-3.3-.7-6.7-.4-10 1.6-4.2 4.2-8 6.2-12 .6-1 1-2.3 2-2.8zm83.4 0h.6a300 300 0 0 1 11 21c.4 1.2 1.4 2 .4 3-5 7-9.3 14.6-15 21l-26.6 28.4c-1.7 1.4-3.2 3.4-5.2 4.3l-1-26c.1-1.6-.6-3.6.8-4.7a198 198 0 0 0 35-47.3z" class="B"/><path d="M43.2 152.2c2.4-.6 5.4-.7 7 1.6 1 2 1 5-.7 6.7-2 2-6 2.2-7.8-.3-1.6-2.4-1.5-6.6 1.5-8zm24 9c2.5-1.3 6.3-.6 6.7 2.7.6 3.4-.7 7.5-4.8 6.8-4.5-.2-6.6-8-1.8-9.4zm298 2c3.2-1 8-.6 8.3 3.7 1 5.4-6.4 7-9.4 3.8-1.2-2-1.3-6.4 1-7.5z" class="C"/><path d="M154.3 167c2-.1-.8 4.6-1.4 2 .1-1 .6-1.6 1.4-2zm-6 5.3l1.4 5.7c-2.5 4.2-5.5 9.2-9.6 12-2 1.4-4 1.5-6.2 1-.2-5.8 5.2-11.4 9.2-15 1.6-1.2 3.3-3.5 5.2-3.8z" class="D"/><path d="M338 176c2.6 5.2 4.7 10.7 7 16l3.5 10-19 24.5-35.3 36.7c-1.6 1.3-3 3-5 4l-1.3-32c.1-1.4-.5-3.4.8-4.3 17.2-15.5 33.5-32 46.6-51.3.8-1 1.5-2.6 2.6-3.4zm-57.5 8.2l5 201c-1.2 1.6-4.8 1.8-6.7 2.4-1.3-3.5-3.4-6.8-3.2-10.6.7-46.3 1.7-92.7 3-139l1.8-53.8z" class="B"/><path d="M55.5 187.7c4-1.4 8 1 7.6 5.4-.3 4-5.4 4-8.3 3.3-3-1.2-2.3-7.7.7-8.6z" class="C"/><path d="M232.4 188c12.6 15.8 25.5 30.8 41 44l-.7 36c-11.3-8.7-21.2-19.4-30.8-30-1.2-1.6-3.3-3.2-4-5l-5.6-44.8zM351 209c3 8.8 6 18 8.2 27-6.6 8-13 16.4-19.6 24.6a372 372 0 0 1-47.7 47.3l-2 1-.6-31c.1-1.5-.5-3.6 1-4.6 21.7-17.4 40.2-38.8 57.2-60.8 1-1 2-3.4 3.4-3.7z" class="B"/><path d="M44.3 231.3c2-.8 5-.8 6.3 1 1 1.7 1.2 4 .7 5.8-1 3.6-7.4 3.7-8.8.3-.7-2.3-.6-6 1.8-7.2z" class="C"/><path d="M361 242.3l6.3 27.8c-.6 1.6-2 3-3 4.2l-70 72c-1 1-2 2-3.5 2.3l-.5-32.3a402 402 0 0 0 54-52l13.3-17.7c1-1.4 2-3.3 3.5-4.2zM240 244c1 .7 2 1.5 2.7 2.5l29.8 28.6-.8 35a239 239 0 0 1-22-19.3c-1.3-1.2-1.5-2.7-2-4.3L240 244z" class="B"/><path d="M166.4 247.4c6.3-.5 13.2-.2 19.6-.2 6.5 2.2 10.8 9 10.7 15.8 0 9.3-5.8 18-12.4 24.2-2.7 2-7.4 5.6-10.8 3.4.1-1-.7-3.2.6-3.6 4.4-2.6 8.4-5.4 11.3-9.7 3.4-5 7-10.8 5.3-17-1.2-5.5-7.7-11.7-13.6-10.4-1.3 7.6-3 17-8 23-2 3-5.6 2.3-9 2.8-3-1-6-3.2-5.5-6.7.2-8.4 5.4-16.6 12-21.6z"/><path d="M170.6 252.2c-.3 6-1.6 13.2-5.6 17.8-1 1.4-2.3 1-3.8 1l-1.3-3c.6-6.7 4.6-13 10.7-16z" class="D"/><path d="M84.2 257.5c2.2 11-1.6 22.2-6 32.3A55 55 0 0 1 70 264c.5-2.8.6-7 3.4-8.7 3.4-2.3 8.8-1.7 10.8 2.2z" class="E"/><path d="M368.8 278l3.5 22c.2 1 0 1.8-.7 2.6l-24 29C332 349.7 314.8 367 296 382c-1.5 1.2-2.8 2-4.8 2l-.3-24c.1-1.4-.4-3.3 1-4.2a587 587 0 0 0 54.6-52.3c7.5-8.4 14.7-17.3 22.4-25.5zM69 283.6c2 3.5 3 7.8 4.8 11.5 1.4 3 .7 5.7.6 9l-1 27.8-1-.3c-8-9.3-15.3-19-19.6-30.5A148 148 0 0 1 69 283.6zm18 .1c6 5.2 11 11.3 16 17.4-4 10-10.5 19.2-17.3 27.4-1 1.3-2 2.4-3.3 3.5L81 296c2.3-4 3.7-8.5 6-12.4zm163.3 14.7c6.6 6.3 13.8 12 21 17.6.3 11-.4 22-.4 33a34 34 0 0 1-8.2-6.7c-5-14.4-8.5-29.4-12.3-44z" class="B"/><path d="M180 301.5c5.3.1 4 6 7 8.3L200 307c1.6-.3 3 1.7 3.5 3-3.6 3.8-10.4 4.4-15.3 5 2.8 7 5.2 14.3 7 21.8 7.3 1 17.3.2 23.5 4.4 3.4 2 2.6 6 2 9.3-1.5 4.7-6 7.4-10.5 8.4-2.7.5-3.4-3-1.6-4.5 2.2-1.6 4.7-2.4 6-5 .7-1.6 1.2-4-1-4.8-5-2.3-11.2-3-16.7-2.8.2 2.4 1 4.8 1 7.2-.3 2-.7 4.3-1.7 6-3.7 4-8.4 3-13.2 2.8-5.5-.2-11.6-2.5-14.5-7.5-.8-2.8-1.3-6.6 1.5-8.4 5.2-4 13.5-4.5 19.8-5.2-1.7-6.8-4-13.5-6.7-20-.5-1.4-2-2.4-2.2-4-.3-3-2.2-5-3-8 .2-1.4 1-2.5 1.8-3.5z"/><path d="M49 307c6.2 12.4 14.7 23 24 33l-1.4 34c-2.6-2-4.6-4.6-6.6-7-6-7.3-12-14.8-17.3-22.6l-11-20.4 10-14.6c.7-.8 1.4-2.3 2.5-2.5zm58 0c.6.3 1 .8 1.5 1.5l10.5 15.7c-.8 2.3-2.2 4.2-3.4 6.4a214 214 0 0 1-30.1 41.9l-1.4 1-1.4-33.6c7.4-8 14.3-16 20-25.4 1.6-2.5 2.8-5.2 4.4-7.6zm266.4 2l2.8 31-19.4 22c-4-.7-7.6-1.5-11.2.6-6 3.8-8.3 9.5-11.7 15.3a166 166 0 0 0-27.9 2.9c14.4-12 28-25.3 40.3-39.5L369 314c1.4-1.6 2.7-3.7 4.4-5zm-250.8 21a51 51 0 0 1 2.2 6.9l6.8 24a247 247 0 0 1-43.5 50c-.7.7-1.5 1.2-2.4 1.7l-1-31.8a215 215 0 0 0 35.1-46.3c1-1.6 1.7-3.2 3-4.6zm-89.6.3a47 47 0 0 1 2.7 4 230 230 0 0 0 33.5 45.5c.8 1 2.2 1.7 2 3.2L70 413a272 272 0 0 1-36-37.9l-12.4-17.6c-1.5-2-1-4.2-.1-6.2l11.7-21z" class="B"/><path d="M383 340h.8l-.4 10.8-.4-10.8z" fill="#fff"/><path d="M180 343.4c3.6-.7 7.3-1.2 11-1 .4 2.8 2.2 6.4.5 9-4.3.8-8.2 2-12.6.5-2.6-.6-4-2.4-5.8-4.2 1.4-2.7 4-3.5 7-4.2z" class="D"/><path d="M377 348l1 30c.1.8-.2 1.6-1 2.2l-22.5 22.5c-1 1-1.6 2-3.2 2L350 393c6-3.8 13.2-9.8 14.5-17.3 1-4.2-1-7.4-3.3-10.7 5.3-5.7 10-12 15.6-17.5zm-298.4 5.2c-.7 9.2 1 18.6.1 27.8l.6 4 1 30a45 45 0 0 0 .3 9l2.2 81a45 45 0 0 0 .2 9c.2 13 .8 26 .5 39 .7 10.3.3 20.8.6 31 .2 2-.3 4-.5 6 .3 1.7 1 3 .4 5-4.2-.1-8.4 0-12.6-.1.6-3.3.3-6.4.1-9.7.3-11.2-.1-23 .6-34l.1-28c.6-18.8.5-37.8 1.5-56.5 0-14.3.8-27.6 1.2-42 0-2.6 1-4.8.4-7.5.3-15 1.4-32 2-47 .4-5.6.1-11.4 1.4-16.8zm188 .3c1.3.2 2.6 2.3 3.6 3.2.6 3 .1 6.5.2 9.6-.7-3.2-2.3-6.2-3.3-9.3-.2-.8-1.5-3-.5-3.5zM20.4 366c3.7 4.2 6.4 9.3 10 13.6A350 350 0 0 0 67 419c.8 1 2.5 1.8 2.3 3l-1 38c-2.3-1.7-4.4-3.8-6.5-5.6a379 379 0 0 1-40.3-43.7c-1.5-1.7-1-3.4-1-5.5v-39z" class="B"/><path d="M353 367c3.5.7 5.6 5 7 8-1 4.4-4.2 7.6-7.7 10.3-5.6 4.3-12 7.5-18.7 10 1-4.8 3-9.4 4.8-14 2-4.6 5-9.7 9-13 1.5-1 3.6-2.2 5.5-1.6z" class="E"/><path d="M133.7 368c3.2 10 6.8 20 10.4 30-9 12.2-18.8 24-29 35.2-8.7 9.4-17.8 18.8-28 26.8L86 421a297 297 0 0 0 47.6-53z" class="B"/><path d="M210 372c2.2-.7 3 .3 4 2l-10.3 23c7.8-2.4 15.7-5.4 24-3.8 2.7 1.3 5 3.6 7.3 5.6 1.7 3.6-.2 8.3-1.4 11.8-2 2.4-4.4 4.4-7 6-6.3 4.3-15 5.3-22.4 7.7-.5.5-.5 1.2 0 2L223 461c3.2 6 8 12 14.3 14.6l17.6 1.2c3.2-2.6 4.3-7.8 5.3-11.7 2.8-10.6 2.2-22 2.4-33.2.2-2.6-.6-6 1.6-7.8 1.4-.2 2.6 0 3.6 1 .4 3 0 6 0 8.8-.5 12 .3 23-3 34.8-1.3 4.8-3.4 9.6-8 12.3l-18 .2c-1.4-.1-3.4.3-4.7-.6-6.5-4-12-9.5-15.8-16.2l-20-36c-1-2-2.5-4-3.3-6.4.7-1 1.5-1.7 2.3-2.4 7.7-2 16.6-2.4 23.4-6.5 4-2 8.8-5.7 9.6-10.2-1.2-2-3-4.6-5.6-4-4.6.4-9.2.7-13.7 1.4l-12.8 5c-1.3.5-2.8.2-4 .2l-.3-2.5 11-23c-5.6.8-10.3 2.5-16 1.7-2-.8-2.2-4.8 0-5.4 3 .1 5.7 1.2 8.7 1 4.7-.4 8.3-2.6 12-5z"/><g class="B"><path d="M330.8 385.3l-4 13.4L306 421c-1.2 1.2-2.3 3-3.8 3.6a150 150 0 0 1 1.3-25.4c.8-3.7 2-7.2 3-10.8a144 144 0 0 1 24.4-3zM378 388c.4 10.7.1 21.5.2 32.2L350 445a15 15 0 0 1 .2-4.7c1.2-9 1.4-18 1.8-27 9-8 17-17.3 26-25.2zm-77.3 1.3c-.1 3-1.4 5.6-2 8.5a129 129 0 0 0-2.3 27.1c-3.6-5.7-6.2-12-9.2-18.2l-5.2-12.5 18.7-5zm43 7.7c.3 8.3 1 16.5.4 24.8a93 93 0 0 1-34.1 8.3l21.6-27.7 12-5.4zm-197 7l11.3 26-17.3 22.7a406 406 0 0 1-47.3 46.7c-1.7 1.4-3.2 2.8-5 3.7l-.6-37L109 447a469 469 0 0 0 35.5-40.5c.7-.7 1.4-2 2.4-2.2zM20.4 418c2.6 2.3 4.6 5.2 7 7.8C39.7 440.2 53 454.3 68 466l-.7 37.7a399 399 0 0 1-45.6-43.4c-1-1-1.3-1.7-1.3-3.3v-39zm357.8 10c.3 9.4 0 18.8.1 28 .1 1-.3 1.7-1 2.3L341 486l7.6-33.4c7.5-6.4 16-12 23-19 2.2-2 4-4.2 6.5-5.8zm-34.5 0a250 250 0 0 1-2.3 20.4c-.1 1.2-2 1.5-3 2l-23.5 7-11.6-19.6c.6-.6 1.2-1.2 2-1.7 11.8-.8 23.3-2.3 34.4-6.6 1.3-.7 2.7-1.2 4-1.5z"/><path d="M160.6 435c2.3 5.7 5.8 10 6.7 16 .7 4.2 2 8.4 2.3 12.6L89 546l-.7-35a374 374 0 0 0 52-50.5c7.2-8 13-17.3 20.2-25.3zm179.8 20.4A325 325 0 0 1 335 480c-.5 1.3-.4 3.2-2 3.7l-15-21.3 18.4-5.8c1.3-.6 2.6-1 4-1zm38 10V497c.2 1.5-1.3 2.2-2.2 3l-54 39 12.5-32.8c4.6-1 9.2 1 12.5-2.5-.1-5-4.4-6.5-6-10.7l35-26.4c.8-.8 1.6-1.2 2.6-1.4zm-358 1.6l2.4 2.2L67 511l-.4 34.7c-3-2-5.2-4.4-8-6.6l-36.2-34.8c-1-1.2-2.2-2-2-3.6v-34zm150.6 4l3.8 25-25.3 31.7a429 429 0 0 1-54.6 52.4l-6 4v-29c-.3-1.8 2-2.8 3-4A604 604 0 0 0 167 475c1.2-1.3 2.3-3.5 4-4zm9.2 0l18 26.8c1.2 1.8 3 3.3 3 5.6l2.4 21.5c.2 1.6 1 3.4.5 5l-15 17a6 6 0 0 1-2.5 2 680 680 0 0 0-6.2-64.2c-.5-4.4-1-9.4 0-13.8zm-4.4 32.5l3 33.4c-.8 1.7-2.4 3-3.5 4.4L144 575l-21.3 19.7-33.5.1c.1-1.2-.4-3 .8-3.8 15.7-11.8 30.4-25 44-39 14.5-14.8 27-31 40-47 .5-.6 1-1 1.7-1.5zm202.4 2.5c.3 10 0 20 .2 30 0 1.8 0 2.7-1.5 3.8l-65.2 46.8c-1.4 1-3.5 2-2.3 4 1.2.6 2.4 1 3.6 1.5a541 541 0 0 0 60.9-42.3c1.4-1 2.7-2.2 4.3-3l-.1 46h-84a534 534 0 0 0 22.7-43c.6-1.5 2.7-2.3 4-3l27-18 30.3-23z"/><path d="M326.7 506.5L322 519l-29 6a31 31 0 0 1-6 .8l-56.2 3.4c1.5-2.7 4-5 5.8-7.5 3.4-3.8 6.5-8.4 10.2-11.8 26.4-1.4 53.4-2.3 79.8-3.4zM20.4 510l44 41.6c1 1 2.4 1.7 2.2 3.3l-.4 29c-1.8-1.2-3.6-2.4-5.3-3.8-14-10.5-26.7-22.6-39-35-.8-1-1.7-1.7-1.7-3v-32zm209 .5l8.8-.5c-3 4.6-7 8.6-10.2 13l-35.3 42.6c-1.7 2.2-3.3 4.4-5.3 6.4l-.3-15c1-1.6 2.5-3 3.7-4.3l35-38.7a28 28 0 0 1 3.4-3.5zm-22 .5c4.6.3 9.2-.4 13.8-.2-1.4 2.6-4 4.5-5.8 6.8-2.2 2-4 4.8-6.5 6.5l-1.8-12.3.2-.8zm112.2 14l-11 25c-1 1.5-1 3.4-3 3.6l-32 6-71.4 3.6c.5-1.7 2-3 3.2-4.5l19.6-23.5a319 319 0 0 0 51.7-2.7c14.4-1.7 28.6-4.7 42.8-7.5zm-140.3 20l1.2 34-12 12.5c-1.3 1-2.8 3.3-4.6 3-10.7 0-21.4-.1-32 0 1.7-2 3.6-3.6 5.5-5.4a534 534 0 0 0 36.2-37.8c2-2 3.6-4.7 6-6.5zm-159 6.2a389 389 0 0 0 44.9 39.5c1.4 1 .8 2.7.7 4-11-.2-22.6.3-33.5-.2C29 592 26 589 23 586.2c-.8-1-2.5-2-2.4-3.3v-31.7zm283.8 7.8c-.8 2.5-2 4.7-3.3 7l-16.2 28.8c-32.2.2-64.5-.1-96.7.1-.6-3.2-.2-6.6-.4-9.8.1-1.7-.4-4.3.8-5.6L197 569l78-4 29.2-6zM181 587.5v7.3h-7.7c2.6-2.3 4.8-5.5 7.7-7.3zm-160.6 3.7c1.4 1 2.8 2 3.8 3.7l-3.7-.2v-3.5z"/></g></svg>