<svg xmlns="http://www.w3.org/2000/svg" viewBox="0 0 400 610" width="533.3" height="813.3" xmlns:v="https://vecta.io/nano"><path d="M0 0h400v610H0V0z"/><path d="M19.5 15.4l63.4-.2c-6.8 9.4-10 20-11.5 31.4-9-7-18.2-14-29-18.3a62 62 0 0 0-23.1-3.5l.1-9.4z" fill="#fff"/><path d="M92 15.4c5-.4 10.3 0 15.4-.1L90 92 19.4 44.4l.1-13a58 58 0 0 1 19.3 2.9c11.6 4.3 22.5 11 31 20 1.5 1.2 2.8 3.3 5 2.8 2.5-3 2.8-7.8 3.6-11.6 1.7-10 4-19.5 10.4-27.8 1-1 1.7-2.3 3.3-2.4zm31.4-.1c3.8 12.7 2.6 26.5-4.2 38-1.2 2-2.8 4.3-3.3 6.6.4 1.3 1 2.5 1.5 3.8 6.3-2 12.7-4.4 19.4-4.8l16.2-1.3c6-.6 12.2 1.3 18.2 2.3l31.8 5c-8 11.2-17.3 23-28.4 31.5-7.6 6-16.6 8.7-26 9.8-7 .8-13.7.1-20.6.4-1.5.1-3 1.5-4.3 2.2 3.6 5.7 9.2 9.2 12.3 15a37 37 0 0 1 4.3 13.4c1 10.5.1 21.4-.1 32l-12.5-5.2a57 57 0 0 1-18-14c-5.2-6.8-5.3-14-7.3-22-.6-2.6-4-4.2-6-2-.6 2.5-.5 5.2-.5 7.7a68 68 0 0 1-3.9 24.9c-1.7 4.3-4.7 7-7.7 10.3L58 198c-4.7-10-9-21.8-7.5-32.8 1.8-14 6.7-27.4 14-39.3l-1.4-3a16 16 0 0 0-7 2.5c-7 4.8-14.4 8.7-23 10.2-4.8.8-9.3 0-14-1V122l68.3-23-25 75.6c-.7 3-1.3 6-.5 9 2-1 2.4-2 3-4l12-40c4.3-13.5 9.7-26.6 14.7-40a359 359 0 0 1 34.1 49.5c1.8 3 3.2 6.8 5.7 9.4l3.7-.7A379 379 0 0 0 94.3 97L185 76c1.4-.4 2.5-1 3.7-2-.2-1-.8-1.7-1.7-2.3-3.6.3-7.3 1.6-10.8 2.5L94 93l16.8-77.6c4.2-.3 8.5-.1 12.7-.1z" fill="#d96038"/><path d="M130.5 15.2H293l-4.4 28.6c-2 8.7-2.8 17.4-3.8 26.2-.5 3.4-.2 6.8.1 10.2-2.2-7-5.4-13.6-9.2-19.7-5-8.8-16-14.3-24.6-19.4-5-3-9-6.6-14.5-8-1 1.6-1.8 3-2 4.8-1.3 9.7-1.6 19.3-2.2 29a82 82 0 0 0 .5 12.8c.6 5.3 3.7 10 6.5 14.4L221 95c-4 .2-7.6 2-11 4l-18 11c-1.7 1-3.6 1.6-5.5 2.3l-.4 3.8c7.5 8 17 14 25.7 20.3l7.4 4.6c3.4 1.3 7.3 1.4 10.8 1.7-5.7 4.4-11.8 10.4-13.8 17.5-2.5 11.3-2.7 22.4-2.6 34 .2 7-1.2 14-.1 20.8 5-.2 9.2-3.7 13.5-6 11.3-5.8 21.2-13.2 32-20 5.7-3.4 10.4-8.8 15.4-13.3 1.6 7.3 4.7 13.6 10.2 18.7-1.2 18.8 2.7 37.2 9.7 54.6l3.6 2.2c3.6-2.6 6-6.2 8.8-9.4l21.2-22.5 2.8 1.4 3.7-.8c1-3 .8-6 1.6-8.8 4-5.4 9.8-10.3 12-17a151 151 0 0 0 5.8-32.8c5 4.8 10.8 9.7 17.5 11.8 4 1.3 7.8 1 12 1v244l-16 .3c-3 0-5.6 1.3-8.2 2.5-7.6 3.8-14.2 9.4-20.2 15.3-1.3-9.7-3.4-20-10.2-27.3L296 373c-1.4-2-4.8-2.5-6.5-.8L283 399a114 114 0 0 0-5.3 30c-1.2 9.3.4 18.4 2 27.6l-25.6-1c-4-.2-8-.6-12 .4a192 192 0 0 0-34.4 12.1 60 60 0 0 0-11.1-12.4c-9.4-8.2-20-13-30.7-19l-5 1.7-6.6 19a101 101 0 0 0-8.1 37.8 62 62 0 0 0 1.2 11.8l-19.3-1.6a24 24 0 0 0-8.2.4c-8 2-16 6-23.5 9.7a57 57 0 0 0-10.1 6.6c2 6.2 7.7 9.6 11.8 15 6 8 14.4 17 24.5 18.6l14.3 3.4a65 65 0 0 0-11.7 18.1c-2 5.5-2 11.8-2 17.6H19.4V348.4c14 3 27.7.5 40.8-5a156 156 0 0 0 2.5 24c1.6 12.5 11 23.6 19.8 32l18 14h3.6a23 23 0 0 0 2.1-6.5c1.2-6.6 5.4-12.3 8.5-18.2 3.2-6 6.2-13 7.3-19.8a48 48 0 0 0-5.5-27.5L131 346c6.8 1.6 14.8 3.3 21.6.5a83 83 0 0 0 17.2-9.8c6.8-4.5 12.8-10.5 19.2-16 3-3 6.4-4.6 7.8-8.8-3-4.3-8.8-6.7-13-9.8-9.4-6.5-18.6-14-29.7-18.4a72 72 0 0 0-27.7-3.4l10.5-16.8a37 37 0 0 0 4.6-11.5 136 136 0 0 0 2-41.2c-.6-5.5.5-10.4-2.5-15.3-4.8 1.3-8.3 4.2-12.4 6.7L94 225c-9.2 6.3-14.6 15.6-18 26l-15-17a48 48 0 0 0-11.6-9.4 194 194 0 0 0-30-14.3v-69c11.2 2.4 23-.4 32.8-6a98 98 0 0 0-8.5 34.7c.2 9 2.5 18 6 26.2 2 4.2 3.6 8 7 11.4 1.7-1 3.4-1.6 4.8-3 5.3-5.7 10-12.2 15.8-17.3 6.8-6.3 13-13 18.5-20.6 3.7-5.5 4.7-11.7 5.6-18 4 5.3 7.4 12 13 15.4a108 108 0 0 0 29 13.7c1.5-1 3-1.7 4.3-2.7-1.7-14.7 1.7-28.8-1.5-44a49 49 0 0 0-9.6-17.6 64 64 0 0 0 43.2-12c12.8-10 23.4-24 32.8-37l-.1-4.5c-7-1.5-14-2.3-21-3.5L160 50.8c-11.3-1.2-22.8-.3-33.6 3 5.8-12 7.5-25.7 4.2-38.6zm170.3 0H383V60c-7.8 1.6-16.3 1.8-23.8 4.7l-3.5-2.7-17.4 1c-4.7-9.2-11.5-16.3-18-24.4a753 753 0 0 0-19.6-23.3z" fill="#fff"/><path d="M299 22.8l2 2.4 24.4 29.6c5.8 7 10 15.2 11.7 24.2.8 3.5 1 7.4 2.4 10.8 1.2.5 2.4.7 3.8.8 2.3-1.3 3.7-4.2 5.2-6.2 3-4.7 6.6-8.8 11-12 6.2-4.8 16-4.3 23.7-6v12.2c-17 12-31.6 26.2-47.3 39.6l-17.2-39c-3.8-9-6-18.6-9.4-27.7-.6-2-2.4-2.3-4-3.4 0 3.5.5 6.4 1.7 9.6 2.6 7 4.6 14.5 7.5 21.5l17.5 41-66 10c-5 .7-9.6.6-14.3 3l3 3 32-4 45.3-8a437 437 0 0 1-28.9 95.8l3 2.4 4.6-10c11.5-28.3 19.6-58 25.8-87.8 15.2 9.4 30.8 18 46.4 26.6V168l-4-.1c-5.8.2-11-4-15.6-7.2-4-2.8-6.6-6.7-10.2-10-1.4-1.4-3-1.2-4.8-.6-1 4.4-1 9-1.6 13.6l-3.6 23.3c-1 3.7-2.7 7-5 10-6.4 8.4-14 16-21.3 23.7l-18.7 20a163 163 0 0 1-6.4-27.5 70 70 0 0 1 2.9-34.7l7.4-17.7c1.8-3.5 4.5-6.6 6-10.2 1-1.8-.3-4-2.3-4.3-2-.3-4.5 1-6.5 1.6a50 50 0 0 1-23.5 3c-8-.5-16-4.8-23.2-8l-22-10c8.6-5.5 17-11 26.4-15 9.6-4.7 20.2-7.3 31-8 3.7-.3 8.2 1 11.7-.3 1.7-2.2.2-3.8-.5-6-3.7-8-7-17-8-25.8-.7-5.7.7-11.2 1.4-17l5.5-34.8.7-3.4z" fill="#858585"/><path d="M240.7 42.6c8.8 4.8 18.4 10 25.6 17 7.5 7.7 11 19.5 15 29.2 1.4 3 3.2 3.7 6.5 3l4.5 11.5-16 2.5-16.6-29.7-9.4-15.8-3.3 1.7c8.7 14.6 17.3 29.3 25.3 44.3-8.5 1.3-15.7 5-23.4 8.5-13.2-3-26.4-2.7-39.8-3l-1 3c5.4 1.4 11.3 1 17 1.3a102 102 0 0 1 17.7 1.5c-8.2 4.5-16.2 10-23.4 16-8.7-5-16.4-11.5-23.6-18.5 7-4.2 14-9 21.3-12.4 5-2.3 9.6-1.4 15-1.6H249l2-3.2c-1.6-2-3.4-4-5.2-6-3.8-4.2-6-9.6-6.6-15.2-1.3-11.2.6-23.2 1.5-34.4z" fill="#ffe000"/><path d="M19.4 49c23.4 14 46.6 29 68 46l-68 23.7v-13c7.8-4 16-8.2 24.8-9.7 3.4-.6 7-.5 10.2-1.3 1.5-1.6 1-3.4.6-5.3-3.3-1.3-7-1.7-10.5-2.6a86 86 0 0 1-25.1-10.8V49z" fill="#d96038"/><path d="M341.3 69.6a851 851 0 0 1 11.3-.5l-8.7 9.8-2.6-9.3z" fill="#ffe000"/><path d="M19.4 83.4C25 86.4 30.8 89 37 91A74 74 0 0 0 19.4 97V83.4z" fill="#fff"/><path d="M383 83.6V103l-17 9.2c.4 1.7.7 4 2.4 5 2 1 4.5 1.5 6.6 2.3 3 1 5.3 2.4 8 4V147l-25.8-14.4-19.3-11.4 18.6-16.7 26.5-21z" fill="#858585"/><path d="M383 110.8v-.1 5.2l-5-2.5 4.7-2.6z" fill="#fff"/><path d="M238.8 144.7l18 8-23.3 27.8c-2.2 3.4-5 7.7-5 11.8l2.4.3c1.8-3.5 3-7 5.4-10.2l24.6-28c5 1.6 9.6 3.4 15 3l21.4-1.8-12 29.6c-2.2-4-4.2-7.8-5-12.4-.7-3.8-.3-7.7-1-11.4-1.4-1.8-3.7-2.7-5.3-.6-1.2 2.6-1.7 5.4-3 8-2.6 5.3-7.4 9.6-12.4 12.7l-39 24.4 1-28c.5-5.8 1-12 3-17.5 3-6.7 9.2-12.2 15.5-15.8z" fill="#ffe000"/><path d="M136 204.7c1.3 15 2.4 29-.4 43.8-1.5 8.3-6.6 16-11 23.2-3.3 5.4-8.5 9-11.2 14.8 3 1.7 5 2.4 8.6 1.7 12-2 25.3-1.6 36 4.6 10.4 6 20 13.7 29.6 20.8a198 198 0 0 1-29.9 23.2c-3.5 2-7.8 4.4-12 4.5-3.4-.2-7-1.3-10.2-2l-17.5-4.6c-3-1-6.2-2.7-9.5-3.2-1.8-.5-3.3 2-4.6 3 3.6 5.6 7.5 10.2 9.5 16.7 2 7 3 15.6.4 22.8-3.7 11-11.4 19.6-14.4 31L77 383c-3.2-4.2-6-8.7-7.3-14-2-9-3-18-3-27a17 17 0 0 0-1.8-7.1c-6.3.3-10.6 4-16.5 5.7a50 50 0 0 1-29.1 1v-16l36.6-5.2 23-7.2c2.4 10.6 5.3 21.2 7 32l6 34c.6 3.6 1 6.6 4 9 1.6-5.6-.3-10.3-1.2-16l-11.7-59 84.3 3.3-1.4-4-51-2.6-31-.7 27-51 14.4-29.7c1.2-2.8 3-5 1.8-8.3-3 .7-3.6 3-5 5.3l-41.7 81.2c-7-13.5-15.3-25.8-24-38.2l-26.3-34-2.8 3 19 23.3a460 460 0 0 1 31.6 49c-18.8 6.6-38.7 11-58.7 12.2v-18.5l29.5-.7c2.6.4 3.6-4 1.7-5-4.2-2.6-9-4.4-13.3-6.8-6.7-3.5-12.8-8.8-16.5-15.5-1.5-2.6-1.4-5.3-1.4-8.2v-50.2c10.8 4.7 22.2 10 31.5 17.3a129 129 0 0 1 22 24c1.5 2.4 3.8 3.3 6 4.5 3-4.5 3.4-9.5 5.2-14.5 1.8-5 4.7-9.7 8.5-13.5 3-3 6.7-5.3 10.3-7.7l33-22.2z" fill="#858585"/><path d="M19.4 284.8c3.8 4.2 8 7.6 13 10.5l-13 1v-11.6z" fill="#fff"/><path d="M295 381.2l27.4 30.6a39 39 0 0 1 9.2 23.3c.4 3.8.1 7.8 1 11.5 1.4.8 3 1.2 4.6 1 2.5-1.4 4.3-4 6.2-6.2a54 54 0 0 1 17.1-13.9c6.5-3.7 15.4-2.3 22.8-2.8v19L321.7 482a554 554 0 0 0-18-70.8c-1.8-5.8-3-11.4-5.7-17l-2 3c0 3 1.4 6.5 2.2 9.5l15.6 56.3a241 241 0 0 1 4.2 20.3l-51-2.5-20-.4-31.8 2.6c.4 1.2.8 2.3 1.2 3.4 2.2.3 4.4.1 6.6-.1l24-2c6.4-.6 12.6.1 19 .3l51 2.5-35.2 77.4 2.7 2.3c2.7-4.2 4.6-8.7 6.6-13.2l29.7-64.8c11.8 14 25 27.6 35.3 43l6.6 10.6c.4.8 2.5 2.2 2.8.7 1.6-1.6-.5-4-1-5.5-11.2-18.7-26.8-35.4-40.6-52.3 20-12 40-24.2 59.5-37v25l-12.5 7c-5 2.3-10.5 3.5-15.4 6.2 1.8 3.2 4 6 6.4 8.8 3.4 4 6.2 8.6 8.8 13.3a31 31 0 0 1 3.6 9.2c1.6 9 1.3 18 .2 27-.6 4 .1 8 .8 12-10-2-21.3-4.8-29.5-11.4-5.8-4.7-8.7-11.3-11-18.2-1.3-4.3-1.6-8.8-3-13-.6-2.2-5.2-2.4-5.6 0l-5.4 16c-4.4 11-10.6 22.6-19.8 30.2-7.8 6.7-16 13-25 18.2a131 131 0 0 1-3.2-33.8c.3-5 2.2-10 4-14.6 2.7-7 5.2-13.6 9-20 1.2-2.3 3-4.6 2.4-7.3-2.8-1-5-1-7.5.3-9 4.6-19 8-29.5 8.3-7 .3-13.6-1.5-19.7-5-12.3-7.2-23.8-17.3-35-26.3l33-14c6.3-2.2 13-4.6 19.7-4.3 11.3.5 22.7 1.2 34 1.8 2.4-.1 5.4.2 5.8-3-1-3.7-3.2-6.8-4-10.6-1.5-7.7-1.3-15.5-.6-23.2a101 101 0 0 1 5.1-25.5c2.2-6.7 3.7-13.5 5.4-20.3z" fill="#d96038"/><path d="M166.6 444c13.2 7 25.6 14.5 34.8 26.8l-12.6 6.3c-2.6 1-2.3 5 0 6.3l20 15.8a49 49 0 0 1-2.6 7.8l.6 3.6c4.3-.2 8-2 12-3.6a73 73 0 0 0 21.6 10.8c13 2.7 24.8-1 37-5-4 6.8-7.3 14-9.4 21.6-.8 2.5-1.3 5.8-3 7.8-2.8 3.2-6 6-9.4 8.6-2 1.5-4.7 3.3-7.3 3.3l-14 .1c-6.2.4-11-3.5-17-2.2-.4 2.5-.1 4.3.8 6.6 2 5.5 3 11 4.4 16.8.4 2.2 1 4.2.3 6.5-1.3 4.6-3.8 9-5.8 13.3h-27.7c-1.6-4.4-2.8-9-3.2-13.7-.4-3.5-.1-7.3-1-10.7-.8-1.5-3.5-3.4-4.8-1.4-1.5 1.4-2.6 3.6-3.6 5.4l-9.6 15.5c-1.8 2.2-3.7 4.6-6.7 5l-17.4.1a139 139 0 0 1 21-28.1C172 557 181.2 548 190 539c5.8 17.4 10.8 35.2 13.6 53.3l2.8 1.8 1.8-2-15.2-55.3 30-4.8 38.8-4.6 2.5-2.6-3.3-1c-4.6 0-9.3 1-14 1.5l-34 4.2c-7 1.2-14 2.6-21 4a705 705 0 0 0-8.2-40.4l-7-26.7c-.7-3-1.7-5.8-3.4-8.3l-3 2.7c3.4 11.6 7.7 23 10 34.8l8 38.3c-19.2-2-38.3-3.3-57.5-5-6.3-.5-12.7-1.3-19-1.4l.3 3 74.3 6.4c-5.2 5.3-10.4 10.6-15.6 16-7.5 7.5-14.3 15.8-21 24-4.4 5.6-8.8 11.3-11.4 18l-8.8-.1a41 41 0 0 1 3.2-18.9 40 40 0 0 1 20.4-19.8c-.2-2 .3-4-1.3-5.3-2.7-.8-6 .8-8.8 1.2-14 3-29-3.4-37-15-3-4.8-7-9-11-13 8.5-5.2 18.2-10.5 28-12.3 8.7-1 17.6-.5 26 2 2.4.7 4.8.8 7.3.8.8-5.2-3-8.4-3.3-13.4a71 71 0 0 1 2.6-29.1c2.5-10 7.2-18.6 10.8-28z" fill="#ffe000"/><g fill="#fff"><path d="M383 481.6v78.8a21 21 0 0 1-2.7-11.4c.3-13 2.6-24-.6-36.7-3.5-8.2-9-15.8-14.6-22.7a105 105 0 0 0 18.1-8z"/><path d="M328 529.4a46 46 0 0 0 16.8 23.9c9.5 6.7 22 9.4 33.4 10.2 2.3.2 3.3-1.6 5-3 .4 11.4.1 22.8.2 34H224c2.2-4.6 5-9.6 5.7-14.7a58 58 0 0 0-3.8-20.2 46 46 0 0 0 24.4.3c6.4-1.7 11-5.5 16-9.8 0 8.5.7 17 2.5 25.2 1.2 5 1.8 9.7 5 14 13.8-11.2 29.4-19.3 41-33 6-8 10.3-17.5 13.6-27zm-149 54.2c.6 3.8 1.5 7.5 2.6 11.2a337 337 0 0 0-10.5 0 99 99 0 0 0 8-11.2z"/></g></svg>