<svg xmlns="http://www.w3.org/2000/svg" viewBox="0 0 400 610" width="533.3" height="813.3" xmlns:v="https://vecta.io/nano"><path d="M0 0h400v610H0V0z"/><path d="M20.8 15.5l-2.4 37 .1-34.5c-.2-1.7 1.2-1.6 2.3-2.5z" fill="#fff"/><path d="M27.7 16.2h22.8c-.6 3-1 5.8-1.5 8.7-2.5 22.5-4.8 44-1.8 66.8.4 2 1.2 3.7 2 5.6l2-2.4a241 241 0 0 1-1-38l4.6-40.7L57 16l47 49c-6.3.1-12.6-.3-19 .1-2 .1-2.5 1.4-3.6 2.7a164 164 0 0 1-11.4-20c-1.5.5-4 .6-4.8 2-.2 4.6 1 9.2 1.2 13.8.2 6.3.8 12.8.1 19-.7 12-8 23.8-13.4 34.3A221 221 0 0 1 34 99.8a29 29 0 0 1-7-10.1c-1.5-4-1.8-8-2.3-12-.6-5.4-1.6-10.5-.8-16 2-15.2 2.7-30.4 4-45.7zm35 0h92.6c-3 3.7-6 7.3-10.2 9.8-4 2.3-8.2 2.7-12.6 3.6-6 1-11.4 2.5-17.5 2.4-3.7.1-7.8-.3-11.4.6-.3 1.7-1 4.5 1 5.4 4.6 2.5 9.3 3.2 13.3 7a42 42 0 0 1 11.5 20c-6.4-.2-13 .5-19.4-.3-2.5-1.5-4.5-4.2-6.6-6.2L62.7 16.2z" fill="#d96038"/><path d="M278.7 16.2c-3.3 4.6-5.8 9.6-7.4 15a99 99 0 0 0-5.6 37.5c1 .7 2.2 1.5 3.4 2 3.3 0 6.7-1 10-1.6 16-2.8 34-6.4 48.3-14.7a82 82 0 0 0 29.3-38.3H382v165l-18.8-7.6c-2.7-1-5.2-2.4-8.2-2.4-8-.2-16.3 2.4-24 4.7a202 202 0 0 0 12.2-29.6 92 92 0 0 0-1.8-40.9l-4-17.3c-.6-2-2-2-3.8-2-1.7.6-3.2 2-4.5 3.3L313 106l-16 14c-10.6 8.2-16 22-19 34.8-5.5-7.8-12-16-20-21.2-12.8-7.6-26.5-9.5-41-10.4-2 .4-2 3-2 4.5l.5 14.2c-.2 11 .7 23 5.4 33 5 10 13.8 16 23.6 21l-16.8 6.8c-5.4 2.4-9.7 6-13.8 10.2a875 875 0 0 1-9.6-141.9c0-2-.5-3.6-1-5.4-4.5-.7-8.8-.4-13.3-.5h-53.3c-2.5-10.4-8.3-19.8-16.7-26.4l23.3-4.6c8.8-3.3 15-10.2 20.5-17.7l115-.1z" fill="#fff"/><path d="M287.3 16.5c2-.4 4-.3 5.8-.3h25.8C311 26.5 302 35.8 292 44c-2 1.6-3.4 3.5-5 5.4l4.3 1.3c9.5-8 18.6-17 26.4-26.8 2-2.4 3.6-5 6-7.2 1.7-.5 3.6-.4 5.3-.5l21.3.1a106 106 0 0 1-20.1 27.8c-5.8 5.4-13 8.7-20.4 11.4-12 4.2-25 6.5-37.5 8.2a110 110 0 0 1 3.3-24.3c1.6-7 4.2-13.7 8.4-19.6 1-1.2 2-2.6 3.3-3.4z" fill="#858585"/><path d="M228 23.4c3 .8 4.5 3 6.3 5.4-2.2 3-5 6-9 3.7-2.5-2.4-1.6-8.8 2.6-9zm22.3.8c4.8-3.2 10 4.7 6 8.2-1.8 1.3-6 1.6-7.2-.6-1-2.2-1-6 1-7.6zM175 30c-.2 1.6-.6 3.3-1 5-1.8.3-4 1.3-5.8.8-2.5-1-2.6-5-2-7.3 1.5-4 8.7-2.4 8.7 1.7zm31.5-.5c1.8-1 4.3-1 6.2-.2 2.4 1 2.6 4 2 6.2-1.2 3.5-7.2 4.3-9 1-.8-2-1-5.6 1-7zM191.8 37c.8 1 1.4 2.2 2 3.3l-1.6 4.7c-1.7.3-4 1.3-5.6.4-2.3-1-2.4-4.4-2-6.5.5-3.3 5-3.5 7-2zm43.7 5.6c2-.7 6-1 6.8 1.4.6 2 .4 4.7-1 6.3-2.3 2-6.7.8-7.6-2.2-.6-2-.5-4.5 1.8-5.5zm117 3a8 8 0 0 1 5.7.3c3 1.5 2.7 6.6-.3 8-2.2 1-6 1-7-1.7-.8-2-.8-5.7 1.7-6.5zM218 47c.8 3 .6 5-.1 7.8a17 17 0 0 1-7.2.5l-1.7-5 1.6-3.4c2.6-1.4 4.7-.6 7.4 0zm16 13.2c2.3 1.3 4.4 2 5 5 .8 3-1 5.4-4 5.4-3.2.2-6-2-5.5-5.4 1-2 2.8-3.4 4.5-4.8z" fill="#333"/><path d="M73 67l8.6 10.5c1 1.2.7 3 .8 4.4a1644 1644 0 0 0 6.9 122.5l8 69.5c-10.5 11.4-16.2 28-13.8 43.4-8-2.7-16-4.4-24.4-3.5-8.8.6-16.4 4-24 8-5.4 2.7-11 4.4-16.5 7V102l-.2-21.5c.7 9 4.4 17.3 10.6 23.7a339 339 0 0 0 25.3 22.7c3.2-3.4 5.2-7.4 7.4-11.4a117 117 0 0 0 10.1-22.7c2-8.5 2-17 1.3-25.7z" fill="#fff"/><path d="M348 68.7c1.7-.5 4-.6 5.6.6 1.6 1.5 1.4 4.4 1 6.3-.8 3-4.8 3.4-7 1.8-1-1.3-2-3-3-4.4 1-1.4 2-3 3.3-4.3z" fill="#333"/><path d="M88.7 71.7h109a1019 1019 0 0 0 20 206.3 607 607 0 0 0 29.7 102.6c13 32.6 29.3 63.4 51.4 90.8l-140 4c-12-24.4-21.3-50-29-76-14-48.2-22.8-98.7-29-148.5a1498 1498 0 0 1-12-179.1z" fill="#9260c7"/><path d="M221.3 83.3c2.3-1 5-.3 6.2 2 1 2.3.8 6-2 7-2 .6-5.4.6-6.3-1.7-.8-2.2-.6-6.5 2-7.4zm26 1c2-.4 5-.2 6 2 1 2.3.5 6-2.3 6.7-2.2.5-5.5.4-6.2-2.3-.6-2.4-.5-6 2.5-6.5zm107.4 4c1.8-.5 5-.3 5.7 2 .6 2 .5 4.7-1 6-2.4 2-7 .7-7.8-2.6-.7-2.5 1.2-4.2 3-5.6z" fill="#333"/><path d="M333.2 96c4 14.7 6.2 29.7 4.8 45-.2 2.5-1 4.8-1.7 7.2A201 201 0 0 1 323 178c-1.5 2.4-1.6 5-1.5 7.7 3 .1 5.8-.1 8.7-1.5 5.7-2.7 11.8-3.8 18-4.7 3.6-.5 7.4-1.8 11-.4 8 2.7 15.2 6.8 23 9.6 0 5 .3 9.8-.1 14.6-.2 2.3-2.5 4.3-3.8 6a49 49 0 0 1-15.5 12.5c-4.6 1.6-9.8 1.6-14.6 2.3l-18 2c-3 .5-2.4 5 .2 5.7 4 1 8.3.7 11.7 3.5 4 3 5.3 8.2 6 13 1.4 10 2 20.3 1.8 30.5-8-.3-17.2-.8-24.5-4.7-4-2-6.5-5.3-9.3-8.7-4-5-8.5-10-12.5-15.3-1.7.1-3.3.3-5 .6-.5 4.6 1.2 9 .7 13.5-.7 5.5-1.3 10.6-5 15-6.3 7.8-15.7 13-23 20-6-9-12.6-20-12.5-31 .4-9.7 6.4-19 12-26.6l-1.5-3c-6 .2-8.5 4.4-13.4 7.2-5 3-11.2 5.3-17 6.2-6.5.8-13.3-1.6-19.3-3.7l-1.5-9.5c23.2-11.7 48.4-19.8 73.2-27.4L275 273c-1 4-2.3 8-2.7 12 1.7 1 2.4 2 4 .4 1.4-3.2 2-7 2.8-10.3L294 213l18.8 24.3c9 10.7 17.7 21.2 28.2 30.6l2.7-2.4-31.4-35.6c-5.3-6.4-10-13.2-15.2-19.8l74-8.6-.1-4-75.5 9.3 14.3-47.2 15-41-2.7-3.4c-3.2 6-5 12.2-7.5 18.4l-10.2 28-12.2 41.8c-9.5-13.3-20.6-25.7-32-37.4l-22.7-21.4c-1.8-1.7-3-.7-5-.1l7 7.2 51 56.2a405 405 0 0 0-73.3 26.7l-2-13.5a53 53 0 0 1 14.4-12.4A82 82 0 0 1 252 201c3-.3 4.8-2 7-3.8-5-5.6-11.5-6.4-17.7-10.5-9.3-5.7-16.3-14.8-18-25.7-1.7-10.2-.7-20.8-1.7-31.2 12 1.6 25.5 4 35.5 11.2a80 80 0 0 1 18.4 21.6c1 1.7 2 3.4 3.5 5 1 .1 2 0 3-.1 2-2 2-5.7 2.4-8.4 1.3-11.8 6.7-24 15.8-31.7 10.4-9.6 20.7-19.3 30.8-29l2-2z" fill="#d96038"/><path d="M49.7 140.3c2.3 1.3 2.4 4.7 1.4 7-1.4 3-6.2 3.4-8 .6-1.3-2 0-5 .4-7.2 1.8-.2 4.4-1.2 6-.3zm8.3 21.4c1.5.3 3 1 4.5 1.6.3 2 1.6 4.6.3 6.4-2.4 3.3-9.2 1.7-9-2.7-.2-2.5 2.5-4 4.4-5.2zM48 175c4.5 1 4 8 0 9.5-1.5 0-3-.4-4.6-.7l-2.6-5c2.2-2 3.5-4.7 7-3.7zm18 17c2 1.4 1.8 5 1 7-1.5 2-5.7 2-7.5.7-2-2-1-4.7 0-7 2-.7 4.6-2 6.7-.5zm-21.7 11.3c2-1 5.2-1 7 .5 1.5 1.8 1.4 4.8.2 6.8-2 3-7.7 2.2-8.7-1.5-.5-2-.4-4.7 1.6-5.8z" fill="#333"/><path d="M382 214.8v234.6c-5.2-3.7-11.5-8.7-18-8.7l-15.6-1c2.4-3.4 5.3-6.8 6.4-10.8a47 47 0 0 0 1-18.8c-.8-5.8-.6-11-2.6-16.2-5.2.5-10 3.4-15 5.5-7.4 3.5-14.8 5.2-22 9-2.4 1.4-4.4 4-6.2 6-1.6-6.7-3.5-14-7-20-4.5-6.8-11.5-11.7-18.6-15.4-7.2-3.7-13.6-7.8-22-8-.6 4.8.3 9.5.2 14.2-.1 4.2-.7 8.2-1.2 12.3-20-44.8-32.2-93-40.6-141.3 5.3 1.4 11 2.7 16.5 2.5 6.5-.5 13-3.6 18.8-6.5-1.2 4.4-3 8.7-3.8 13-.8 7.2 1.3 15 4.2 21.5a100 100 0 0 0 12.1 20.2c1 1.6 2.8 0 3.8-.7l21.4-17.6c4.5-3.6 8.7-8 10.4-13.6l1.4-11.7c5.4 5.6 10.4 13.6 17.5 16.7 8.2 3.8 18 5 27 5.5 2.4 0 4.5.5 6.4-1.2 1-2.6.4-5.6.3-8.3-.7-11-.7-22.8-3-33.7-.8-4.3-3.3-7.4-6-10.7l15.8-3c7-2.5 13.4-8.5 18.6-13.8z" fill="#fff"/><path d="M66.5 224.5c3.7-1 7 1.5 6.4 5.4-.5 3.7-4.2 5.3-7.4 3.6-3.6-2-3.3-8 1-9zm-23 4c2-.8 4.7.2 5.7 2.3 1 2.5.8 6.3-2.4 7-3.5.7-6-1.6-7-4.8.6-1.8 2-3.5 3.7-4.6zm6.7 17.5c2-1 5.4-1 6.7 1 1 1.7.8 4 .2 5.7-1 2.7-5.5 3.2-7.2 1.2-1.4-2.4-2.5-6 .3-8zm24 11.2c3.6-1.7 7.7.6 7.2 4.8-.2 4.4-5.7 6.2-8.4 2.8-1.2-2-1.3-6.4 1.2-7.6zm-13 12.8c2.5-.7 5.4-.1 6 2.8.5 2 .6 5.5-1.8 6.4-2 .7-5.5.7-6.6-1.4-1-2.4-.7-7 2.3-7.8z" fill="#333"/><path d="M98.5 282.7L106 327c1 4.6 2 8.8 1.8 13.5l-.6 11.4c-10.4-7-22.3-10.2-34.5-12.5l-27.2-3-.2 4c15 2.3 31.8 3.3 46.2 8.3a66 66 0 0 1 14.2 6.9c-6.4 5.7-11.5 12-15 20l18-16.6c1.8 3 3.6 6 5.3 9.3 2.5 4.6 3.4 10.3 4.7 15.4l15.7 51.7c-2.7-2.3-6.7-4.5-8.3-7.7-1.3-6-.4-11.6-3.4-17a78 78 0 0 1-5.5 3.4c-2-6-3.7-11.5-4-17.7-.3-3-.1-6.3-1-9.2-.8-2.4-4.6-2.8-5.6-.4-2.8 5-4.5 10.5-7.7 15.3-4 6-9.5 11.3-15.2 16-10 7.6-22.7 12.6-34.3 17.4.8-8.5-.7-16.6-.8-25-.1-6.4 1.5-12.8 5.4-18 4.6-6.2 10-12.2 16.7-16.3l8.8-6.2-3.4-3c-4.4-.2-8.6.5-13-.7-6.7-1.8-13.5-4.5-19-8.8-7.6-6-13.5-15-18.7-23a184 184 0 0 1 26.8-11.9c6.3-2.3 14.2-.5 21-.4 6 .1 10.4 3 15.7 5.7 1-2.2 2.2-4 2-6.4-.4-5-1.6-10-1-15 .8-8.6 4.5-16 8.8-23.3z" fill="#858585"/><path d="M46.2 287a20 20 0 0 1 5.2 1.8c.3 1.6 1 3.3.8 5-1.2 3-5.6 4-8 2-3-2.4-1.8-8 2-8.8zm17.2.3c2-.8 5 .5 5.8 2.7 1 2.5.4 5.8-2.2 7-3.5 2-8-2.4-7-6 .4-1.7 2-3 3.5-3.8zM357 298.7c2.8 1.4 5.2 2 5.7 5.5.3 3.7-4 4.3-6.8 3.8-3-.3-3.4-3.3-2.7-5.7 1-1.5 2.5-2.6 3.8-3.6zm-52 10.8c5.7-.4 6 10.6 0 10-3.4.1-3.6-2.3-5.2-4.6 1.3-2 2.2-5.6 5.3-5.3zm34 2.5c3.7-1.7 8.4.4 7.8 5-.2 4.6-7 6-9.2 2.3-1-2-1-6 1.4-7.2zm-17 5.8c2-.8 3.8-.1 5.6.8 1 2.3.5 5 .5 7.6-2 .3-5 1.8-6.8.6-1.2-1.5-2-3.3-3-5 1-1.4 2.2-3 3.7-4zm-30 10l1.4 3.5-1.3 4.3c-2 .2-5 2-6.6-.1-1.5-1.8-1.6-5.3-.5-7.4 1.5-2.3 5-.6 7-.3zm55.2 3.4c2-.7 4.5-1 6.4.2 1.7 1.4 1.5 4.4 1 6.4-.8 2.8-4 3-6.5 2.3-3.5-1-4.2-7.3-.8-9z" fill="#333"/><path d="M18.4 334c4.3 7.3 8 14.5 14 20.8C37 360 42.4 365.2 48.8 368l14.8 4c-6.8 5.8-13.5 12.5-18 20.3-5.7 10.6-3 23-2.5 34.5.6 5.8-2 10.5-.1 16.2 2 .1 4 .4 6-.4 12.6-4.6 25.2-10.2 36-18 9-6.2 16.3-15 22.4-24.2a98 98 0 0 0 4.6 17.4l-33.2 25.5c-3.8 3-7.6 5.5-10.6 9.4A70 70 0 0 0 55 483.9c-5-4.2-10-8-16-11a66 66 0 0 0-20.7-5.9V334z" fill="#fff"/><path d="M309.5 335.6c2.2-.6 5-.2 6.3 1.8 1.5 2.4 1.3 6.6-2 7.5-2 .6-6 .7-6.8-2-.7-2.4-.5-6.4 2.4-7.3zm20 6c2-1 5.2-1.4 7 0 1.7 1.5 1.4 4.8.7 6.7-1 2.4-4 2.6-6 2-3.5-1-4.3-6.6-1.6-8.6zm-219.3 8.2c1.3-.7 2 4.2.6 4-1.2-.7-1.4-3-.6-4zm240.8 7c1.8-.1 3.8.5 5.5 1 .4 2 1.5 4.5.5 6.4-1.3 2.2-5 2-7 1.2-3.6-1.3-3-8 1-8.5zm-43.7 1.7c2.2-1 5.8-.8 7 1.8 1 3 .4 7.2-3.4 7.6-4.6 1.3-8.6-7.5-3.5-9.3zm24.4 1c3 1.7 2.7 7-.7 8-2 .3-4 .1-6-.1-.3-2-1.5-4.8-.6-6.8 1.3-2.5 5-2.5 7.3-1.2zM342 375c3 0 4.4 2.6 5.8 5l-1.6 4c-2.3.5-5 1.6-7 0-3-2.7-1.4-8.5 2.8-9z" fill="#333"/><path d="M90 376c-7 7.5-13.5 14.5-18.3 23.6a62 62 0 0 0-4.7 12.7l-4.3-1.6c4-14.7 15.7-25.6 27.3-34.7z"/><path d="M268.7 378.3c9.5 4.5 19 9 26.3 16.7a34 34 0 0 1 8 20c1 6.5-.4 12.4 1.7 18.8 1.4-.7 3.7-1 4.7-2.3 2-3.6 2.4-8 4.5-11.5 1.6-2.8 3.8-5 6.8-6.2l27.7-11.7c.6 8 2.4 17.7.1 25.6-2.3 6.7-7.3 10.6-13.2 14-2.6 1.4-2.6 4-1.3 6.5 5.7-.4 11.2-2 17-1.6 5.2.3 10.6-.1 15.7 1 5.7 2.2 10.7 7 15.4 11v13.4l-30-6.2-48-3.7c13.2-12.3 27.2-26.5 35.3-42.8l-1.3-2.4-2.6.4c-7.7 16.5-22 30.4-34.7 43-2.2-17-6.7-34-14-49.6-1.5-3-2.8-6.6-5-9.2-1.3-.3-2.6-.4-4-.4 2 5.4 5 10.3 7 15.6a197 197 0 0 1 11.6 42c-9.7-13.3-18.3-27-26-41.8-1.5-3-3.6-6.2-4.3-9.6-.1-2.6.8-5.3 1.3-7.8 1.5-6.8 1.8-13.8 1.3-20.8z" fill="#858585"/><path d="M118.4 421.2l1.7 29c.4 6-.2 12-.6 18-.2 3.3-.5 6.6-1.8 9.7-2.6 6.5-6.2 12.8-11 18l-4.3 5.2a8 8 0 0 0 1.7 3.9c3.5-.3 7-2 10.5-3 5.7-2 11.3-2.6 17.3-3.7 4.5-.7 8.5-2 13-1.2 12.5 2 25 4 37.5 6a261 261 0 0 1-21.1 25.3c-5.8 5.7-13.3 13.5-22 14-5.5.5-11 1-16.5 1.5-4.3.4-8.6-.1-13 .5-1.2.1-2 1.2-2.8 2.2-.4 2.8 2 5 3.4 7 4.3 5 8.2 10.3 10.7 16.5 1 3 2 6 1.2 9l-4.4 17c-10.7 0-21.4 0-32 0-5.8-5.4-8.4-12.2-11.7-19.2-2.8-6-3.2-12-8.7-16.4-3.6 3.6-4 8-6 12.6-2.2 6-6 11.8-11.5 15.5-4.4 2.8-10 4-15 5-5 1-9.8 2-14.8 3l-.1-28c.1-2-.1-4.3.5-6.2 1-2.3 3-4.4 4.6-6.3C28 550 33 544.8 39 541c3-1.8 5.5-3.8 8-6.2-2-1.3-3.3-2.7-5.8-2.7a53 53 0 0 1-22.6-5.1v-34.4c18.3 10.6 38.7 21.8 53.8 36.8L40 560c-7.3 7.8-15.2 16.3-19.7 26a206 206 0 0 0 4.3.2c3.3-5.8 7.3-11 11.7-16l18.3-19.7L74.3 533l13.5 22c5.6 11 10.6 22 14 34 .8 1.7.6 3.7 2.8 4 1-2 1.2-3.2.6-5.6-3-11-8-21.7-12.8-32-3.8-8.4-9.5-15.8-14.4-23.8l18-3 54-11.7c2.4-.7 4.7-1.2 6.5-3-.5-.7-1-1.3-1.7-2-4.8.5-9.4 2.5-14 3.5-20.8 5.3-42.2 8.8-63.4 11.6a205 205 0 0 1 9.9-35.1c5.5-14.8 13.4-29.2 20.5-43.6.5-1 1-2.2 1.3-3.3-1-.8-1.7-1.5-2.7-2-3.6 6.5-6.7 13.3-10 20-10 19.6-18 40.7-22.5 62.4-9-8.8-19.6-16.2-30.5-22.6l-24.7-15.2v-14a63 63 0 0 1 28.9 12c4 3 6.4 7 9.2 11l4.5-3.4c1-7 1.4-14.8 3.8-21.4a41 41 0 0 1 12.7-19.2L116 423l2.5-2z" fill="#d96038"/><path d="M126 436.8c2.7 2 5.4 4 8.3 6 1.6 1.2 3.3 2 4 4l14.3 33c2.8 3.5 7.3 2 11.3 2.2l55.2-1.4c5.6 2.3 10.3 5.3 16.7 5.5 7.3-.3 14.6-1 22-1.2-4.8 6.2-10.2 12.2-14.6 18.7-8 13.5-10.3 31.3-11 46.8-.3 2.6.5 4 1.7 6.2 6-.6 11.3-3.3 17-5.2l27-9c5-2.3 11-5 14.4-9.5a94 94 0 0 0 9.2-15.4l3.7 12c2 4.3 5.2 8 8.3 11.7 9.8 11 21.3 18.8 33.5 26.6l4.4-.8c.1-4.6-1-8.8.7-13.3 3-9.2 6.7-18 6.7-28a56 56 0 0 0-3.2-16.7c-2-5.5-5.2-10.2-8.6-15 12.5 2.6 22.8-1.3 35-3.2v105.7H124.8l4.8-19.7c-1-9-7.3-18-12.5-25.4L140 549c7.3-.1 14.6-5.4 20-10 11.2-10 20.8-22.5 29.3-34.7 1-1.6 2.4-3.3 2.4-5.3-.8-1.8-1.8-2.3-3.7-2.6l-23-2.6-23-3.8c-8.7-.4-18 2-26 4.5L124 478c1.3-2.6 2.2-5.3 2.5-8.2 1.2-10.8.2-22.3-.4-33.2z" fill="#fff"/><path d="M303.2 466.3l38 2.6c6.6.6 13.5.5 20 2 7 1.6 13.8 3.6 21 4.8v7.5c-4.4.8-8.8 1.7-13.2 2.6-6.4 1.3-13.4.8-20 1-4.7.2-8.7-1.4-13-2.8l-2.6 3.8c3.3 5.8 8.7 9.4 12 15.3 4.6 7.8 7.7 17.2 6.7 26.3-.6 6.8-3.6 12.2-5.2 18.7l-2.4 10.2a169 169 0 0 1-25.7-21.6c-3.5-3.8-6.4-8-8.2-13a49 49 0 0 1-4.2-20.3c0-1.7.3-3.7-.2-5.3-.8-1.6-3.3-1.6-5-1.5-2.2 4.5-2.5 10-4.4 14.6-2.2 5.4-5 10.8-8.4 15.7-2.6 3.8-6.5 5.6-10.4 7.6a250 250 0 0 1-39.4 13.9c1.3-12 2.8-24.8 7.4-35.8 3-7.3 8-12 12.8-18.2l13-15 18-.5-21.2 32.6-19 22 2.6 2.6L270 516c9-11.8 17.2-24.6 24.3-37.8l11.7-.3a368 368 0 0 1 21.2 39.8l10 26.2c1.4-1 3.3-1 3-3-.2-1.4-.6-2.7-1-4a292 292 0 0 0-26.4-55.7l-7.5-12.3-2-2.7z" fill="#858585"/><path d="M236.7 479.5a80 80 0 0 1 15 0 75 75 0 0 1-15 0zm-23.4 38.7c3.4-2 8 .5 7.5 4.7-.1 4-5.4 6.2-8 3.3-1.5-2-1.7-6.4.6-8zm-18 14.2c2-.5 4.8-.6 6.2 1 1.2 1.8 1 5-.1 7-2 2.7-7.6 2-8.6-1.5-.8-2.5-.4-5.8 2.5-6.5z" fill="#333"/><path d="M18.4 533.8l14 3.7c-5.3 4-10 8.5-14 13.7v-17.3z" fill="#fff"/><path d="M187 543.4c5.4.3 6 9.8.2 10-3.5.5-3.8-2.2-5.5-4.5 1.3-2 2.4-5.7 5.3-5.4zm106 8.6c1.6.3 3.2 1 4.7 1.7.1 2.3.1 4.6 0 7-2.3.5-5.4 2-7.5.2-2.7-2.6-1.3-8.6 2.8-8.8zm-125.5 1.6c2.5-.6 5.4-.2 6.2 2.6.5 2 .7 5.7-1.8 6.6-2 .7-6 .7-6.7-2-.7-2.4-.5-6.5 2.4-7.4zm44.3 3.4c1.5 1 2.3 3 3.2 4.5l-1.5 3.7-3.8 1.3-3.6-1.3c-.3-1.6-1-3.3-1-5 1-2.3 4-4.6 6.6-3.2zm57.2 3.5c4.8-.1 6.4 6.8 2.8 9.3-1.7.7-4 .4-5.8.6l-1.7-5c1.3-2 2.2-4 4.7-5zM148 562c1.5.4 3 1 4.5 1.7.1 2 .5 4-.1 6-1.7 3.5-8.6 3-8.7-1.5.1-2.6 1.6-5.6 4.3-6zm160.5 1.7c2-.6 4.7-.8 6.3.5 1.5 1.6 1.4 4.4.5 6.3-1.3 2.3-5 2.3-7 1.2-3-1.4-3-6.8.2-8zm-121.5.8c5.3.4 5.8 9.8.1 10-3.2.2-4-2.3-5.6-4.5 1.3-2 2.5-5.8 5.5-5.4z" fill="#333"/><path d="M66.3 575L78 595.8c-10 0-19.8-.2-29.6.1 7.2-3.7 12.6-10 16.2-17l.3-.7 1.4-3z" fill="#fff"/></svg>