<svg xmlns="http://www.w3.org/2000/svg" viewBox="0 0 400 610" width="533.3" height="813.3" xmlns:v="https://vecta.io/nano"><style><![CDATA[.B{fill:#fcce00}.C{fill:#fff}.D{fill:#d96038}.E{fill:#858585}]]></style><path d="M0 0h400v610H0V0z"/><path d="M18.5 15.4l56.4-.1c.6 7.2 1.2 15.3 4 22 1.7 4.4 6.2 7.2 10 9.7l-16 5.8C63.5 59.3 59.4 70.4 57 81a89 89 0 0 0 1.3 2.8c6.4-.1 12.2 1.6 18.2 3.4 7 1.3 14.4 2 21.5 3.2 4-.5 8-2.5 12-3.7-.4 4.2-1 8 .1 12.3 2 9 8.4 16.4 16.6 20.3 4-8.2 10.4-13.7 16.2-20.5 3.7-4.5 3-10.7 2.3-16 3.7 1.3 7.3 3 11 3.8 3.6.8 7 .2 10.6.5 4 2 7.5 4.2 12 5-3 3.8-6.4 7.4-9.2 11.4-3.4 6-5.3 13-7.5 19.5-1.6 4.8-3.8 8.8-4.4 14 2.4.8 4.7 1.5 7.4 1l33-5c8.6-3.6 13-10.7 17.2-18.6l6.3 15c2 4.4 6.2 7 10.2 9.4l-.3 29a38 38 0 0 0 2.9 12c-5.2.7-10 2-14.7 4.6l-20.3 12.7c-2 1.5-4.5 1.8-3.8 4.8 1 1.4 2.8 2.3 4.3 3.2l26 15c4.3 2.3 8.5 1.3 12.8-.3-.4 6-1.2 11.7 0 17.7 1.3 6.6 4.6 13 8 18.7 1 2 2.3 3.3 4 4.6 8.3-4 16-8.3 22-15.7 4.7-5.2 7-11.4 9.6-17.7 3.5 3.3 7.2 6 12 7.4 1.5 8 4 15.5 7 22.8.8 2 2.2 3.3 3.5 5l3.7-3.6c4-4.7 9.6-7.5 14.3-11.7 4.6-4 9.4-6.6 12.2-11.8l7.6-12c3 3.3 5.4 7.8 9.6 9.3 6.2 2.6 13.4 3.2 20 3.2 2 .1 3-1 4-2.4-.2-3.2-2-6.5-2-9.8l-.8-12c-.3-5-4.7-9.2-7-13.3 6.7.4 11.2-4.8 15.8-8.8v85.5c-3 3.6-4 7.6-6 11.8l-41.6 103.3c-8 22.6-12.3 45-21.8 67.3-5 11.3-10.5 22.3-17.4 32.6-5 8-11 15-16 23l-7.7 13-9.4-.3L265 513c.6-4.6 4-8.7 6.3-12.8l28.2-48c1-2.4 2.2-4.6 2-7.2-.3-9.3-4-19-6.5-28-1-3.8-2-8-1.6-12 1-4 3-7.5 4.6-11 4.7-9 10.3-17.8 15.3-26.7 2-4.4 2.5-9.4 3.4-14 1.4-8 1.4-15.8 1.3-23.8 3.7-4 7.5-8.2 10.7-12.7 1.3-2 3.3-4.8 2-7.3-1.4-3-4.7-5.6-7.4-7.5-8-5-16.6-9.3-25.5-12.4-21.5-8.5-45.5-16-68.8-16-22 .4-42.7 7.7-63.5 14-3.3 1-6 2.3-9.5 1.4-5-1-8-4.2-11.4-7.5L136 272a28 28 0 0 1-3.7-25.9c1-3 2.5-6.8 5-9l20.2-17.8 24.2-25c2-3.5 2.3-8 4.3-11.5 3.3-6 .3-12.6-1.2-18.7-1.5-3.4-3.3-8.6-6.7-10.4-5.3 0-10.7 3.2-15.8 4.6l-29.7 7.3c-6.7 1.2-13.4 3-20 5-3.4-7-7.4-13.6-10.4-20.6l2.4-28.2c.5-2.6-2.4-4.3-4.4-5-3.4-1.4-6.7-1-10 .2l-2 6.8c-2.3-5.4-4.2-11-6.7-16.3-1.8-3-5.2-3-8.3-2-3 1-7.3 3-7.5 6.5-.2 6.3 1.3 12.8 2 19-2.8 2.8-4 6-5 9.8-4-3.7-8.4-8.6-13.7-10.4-5.8-.8-11.3 7.8-8.2 12.7 3.4 7 8 13.3 12 19.7l-13.7 7.8c-.7.3-1.2.7-1.5 1.4-.4 3.8 1 8 3.2 11 1.4 2 3.6 2.4 6 2 6.8-.8 13.4-2 20-3.8l15.3 9.4c-7-.4-14.5-.5-21 2.6-1.7.8-3 2.2-2 4 2 4.6 4 9.8 7.7 13.4 3 3 6.4 5 10.2 6.8-2 3.6-4 7.6-5 11.6-1.7 7.5-2.2 15-2 22.8l.6 52-.6 21c-.2 12.7 2.5 26 10.4 36.3 2.3 3 5.5 4.6 6 8.2l12.7 58.8c1 4.3.7 8.4.8 12.8l.6 69c.1 2.2-.7 4-1.6 6l-8.2 19c-3.2 1-6.6 1-10 1.5l-62.6 10.2V26l.1-10.6z" class="C"/><path d="M81.5 15.2l26.5.1c4 .1 7 3.4 9.3 6.3 3.7 4.5 5 10 9.8 13.5 4-3.8 6.2-8.8 10.6-12.3 4-3.4 8.6-7.3 14.2-7.4h21.3l-6.5 17.5c-1 3-2 5.6-4.4 7.6-6.2 5-13.3 6-20.2 9-.4 1.5-1 4 1 4.6 2.2.5 4.6.5 7 .6 1 4 2.5 7.8 4 11.6-8.6-3.4-16.5-8-24-13.4 9-9 17.5-18 28.7-24.3-1-1-2-1.8-2.8-2.8-1.5.6-2.8 1.4-4.2 2.3a182 182 0 0 0-24.7 21.7 122 122 0 0 0-32.7-30.6c-1.3 1-3 1-2.8 3 1.4 1.4 3 2.7 4.7 3.8C107 33 116.3 42.2 124 52.4A84 84 0 0 1 97 65.9c-5.3 1.5-10.5 1.8-15.8 3l.8 4a83 83 0 0 0 43.3-16.2l-1 30c-.3 4-2.2 7 .8 10.5 1.6-3 2.8-6.3 3.3-9.7 1.6-10 1-21 .4-31a94 94 0 0 0 27 14.2l5.6 10.2c-4-.2-7.6-1-11-2.7-4.6-1.8-6.5-5.8-11.8-5.7-1.6 9 2.6 15.7-1 23.3-4 5.2-9 10-13 15.2-4-4.6-8-9-8.4-15.5-.2-5.8-.7-12 3.8-16.3l-.5-4h-4.6c-4.4 4.6-11 10-17.8 9.7-10.8-2-21.5-4.2-32-7 2.2-7.2 5-14.6 11.6-19 7.8-4.4 17.4-6.2 26.2-7l3.2-3.8c-1.8-2.8-4.2-3-7.2-3.6-6-1.4-11.7-4.7-14.3-10.6-2.3-5.6-2.3-12.3-3-18.3z" class="D"/><path d="M120 15.2h16.4c-3.8 2.6-6.7 5.5-9.4 9.2l-7-9zm59.8 0h47.5l-19.8 19.3c-3.2 3.7-4.4 8.2-5 13C195 44 186 44 178 44.7c-7 .6-12.7 4-19.3 5.6 4.7-4 13-7.5 14.5-14l6.7-21zm58 0h54.5L288 46c-1.2 5.8 1 11 2.2 16.7-3.8-1.7-6.3-4.7-9.5-7.2-4.8-3.7-10.3-7-16.5-7.4-6.5-.7-12.4 1-18.3 3.4.2-2.7.8-5.8.1-8.4a423 423 0 0 0-8-27.8zm72.4 0h72v25a258 258 0 0 1-28.1 1.8c-7-.6-13.7 5.4-19 9.4-.7-5.7-1.7-11.2-4.2-16.4-1.2-2.7-3.5-4.4-5.6-6.4l-15-13.6z" class="C"/><path d="M298.7 15.3c8.8 6.3 18.8 13 25.2 21.8 5.3 7.3 4.7 15.5 5.3 24 0 2.2 2 4.5 4.3 3.5 3-3 5-7 8.3-9.7 3.3-2.8 7.4-5.4 11.7-6a120 120 0 0 1 26-.6c-2 8-4 16.3-7.3 23.8-2 4.7-5.7 8.6-10.4 10.7-2.8 1.2-6.3 1-9 1.8-1 1-1.6 2.3-2.4 3.5 3 2 6.4 2.6 9.6 4 3.6 2.3 6.5 5.6 9.2 8.8 3.4 4 5 8.6 6.5 13.5-9 .3-19.3 1-27.7-2.3-3.8-1.4-5.3-4.4-8-7-1.3-2-3.8-.6-5.2.5-1 3.6 2 6.3 3 9.6 1 3.7 2 8 2 11.8-.7 5.7-5.6 11-9.2 15.4-4-2-8-3.6-11-6.8-2.3-2.4-3.5-5.7-4-9-.2-3.5 1.8-7 1.5-10.6-.7-1.4-2.6-2.3-4-3.3-1.8 2.4-3.3 5-4.8 7.6-1.6 2.6-3.3 5.4-6.5 6a79 79 0 0 1-17.2 1.2c.3-3.8-.3-8.5 2.6-11.5a68 68 0 0 1 12.8-10.7c.5-1.2 1-2.4 1.6-3.6-1.4-1-2.7-2.7-4.6-2.4-5 .4-10 1.2-15 .7-5.2-.3-10-2-14.8-3.7a41 41 0 0 0 19-9.2c10.6 2 21.3 3 32 4.8l-9.6 11.4-10.8 11.8 3.6 1.2 19.5-22 4 29 3.8-.4c-1-10-1-20.5-3.7-30 7.6 2.6 15.4 5 22.7 8.4 3 1.4 5.8 3.3 9 4.6 2 .2 1.7-1.4 2.4-2.8A161 161 0 0 0 326 89.5c12-10 23.3-20.3 38-26 0-1 0-2 .2-3.2-4 .4-7.5 1.8-11 3.8-10.8 6-20.7 14-30 22a275 275 0 0 0-16.2-53.6c-.8.7-1.6 1.5-2.2 2.3-.1 1.7.7 3.4 1.2 5a234 234 0 0 1 13.5 48.4c-10.2.7-19.7-1.5-29.4-4.3l7-6.4 3.8-1c.6-2.4.7-5-.7-7-5-7.6-7.2-17-5.5-26l4-28.5z" class="D"/><path d="M231.8 19.8l6.5 21c.7 2.4 1.5 4.7 1.4 7.2-.1 4.2-1.8 7.6-3.4 11.3 1 1 1.7 2.2 2.8 3 7.7-2 13.3-7.6 22-7.8 7.7-.6 13.6 3.4 18.8 8.6 3.7 3.7 8 6.5 12.2 9.6-5.6 5-11.2 10.7-17.7 14.5-4.5 2.7-10.2 2.2-15.3 2.5-4.5.3-9-.6-13.6-.2-3 .8-1.6 4-1 6 3.5 7.3 8.4 14 9 22.5l.7 23a138 138 0 0 1-19.7-8.6c-2.6-1.4-5-2.8-6.7-5.3-5-7.6-7-15.7-9.2-24.4-1.8.1-5-.7-6 1.2-2.2 4-3.4 8.4-5.8 12.2-2.8 4.7-6.4 9.5-11.8 11-9.2 2.8-19.5 3.3-29 4 2-6.4 3.7-13 6.6-19.2 3.7-7.6 9.3-13 15-19 2-2.2 2-3.7.4-6-2.6-.8-5.4-.8-8-1.2-4.7-.7-9.2-2.6-12-6.6-4.4-6-7.2-13.7-10-20.7 6.5-3.3 13.6-5.4 20.8-6.7 9.5-1.2 19.5-.3 27.5 5.4 2-1.3 3-2.2 2.8-4.7-.2-5.7 1.2-11.3 5-15.7l17.4-16.7z" class="E"/><path d="M230.6 37.6a99 99 0 0 0-8.3 36.9 141 141 0 0 1 41.2-2.7c2 .2 3.4 1.2 5 2.3l-2.8 2c-14.5-3.2-27.6-.1-42 2.6l12.6 26c2 4.3 4.6 8 4.6 13-4.7-1.3-5.2-5.4-7.3-9.2L220 80.2 184.3 119l-2.5-2.4c3-4.7 7-8 11-12L201 96c5.6-5.5 10.2-11.8 15.5-17.7L191 73a121 121 0 0 1-18.4-8.1l2.6-2.2c3 .7 6 2.2 8.8 3.3a106 106 0 0 0 34.5 8.8 104 104 0 0 1 7.1-35.4c.8-2.4 3-1.5 5-2z"/><path d="M382 66v48.3a34 34 0 0 0-5.5-14.9c-3-4.6-7-7.7-11-11.4 3-2.5 6.3-4.7 9.2-7.4 3-3 5-7.6 6.4-11.6l1-3zM253 95.7l3.6.8c2.8 2.3 6 5.5 9.5 6.3l21.4 4.5c-2.6 2.3-5.3 4-7 7.3-3 6-2.4 12.7-1.8 19l2.8 2.2 22.5-3c2.5-.2 3.8-2 5.7-3.5.3 2.6.4 5 1.8 7.3 3.5 6 10.2 9.4 16.3 12.3l-2.6 6.3c-5.4-3.6-10-8.2-15.3-12-3.5-2.5-7.6-3.3-11.8-3.6-7.3-.2-14.6 1-21.8 1.4l-2 2.7 1 14.3-3.5-5.6c-2.8-3.5-7-5.6-10-9-1-9.2-.8-18.6-1.6-27.8a69 69 0 0 0-7-20z" class="C"/><path d="M75.5 111.7l8.3 19.5c.8 2.2 2.4 3.3 4 4.6l3.6-2.3 4.2-11.6c2.2 1.5 2.4 1.4 2 4L95 151.4c3.3 7.8 6.7 16 11.6 23 1 1.4 2.5 3.5 4.3 4 2.7-.4 5.2-1.8 7.7-2.6 9.4-3 19.7-3.6 29-7l27.8-8.7c2.6 5.3 4.6 10.5 5 16.5-1 3.6-2.5 7-3.3 10.5-1 4.4-4.5 6.5-7.4 9.7-8.7 8.7-16.7 18-26.2 25.8-4.6 3.8-9 8.3-14 11.3-3.2 6.6-5.5 13.6-5.8 21-.3 6.8 1.8 13.8 5.8 19.3 2.8 3.5 6 6.6 9 10l9.2 8.8c4.3 2.7 10.2 3.6 15 2l20.2-6c14.3-4.8 29.6-8.6 44.8-9.2 22-.1 45 6.5 65.4 14.6l17.2 7.8c5.2 2 9.3 5.6 13.8 8.8l-8.2 9c-1.5.3-3.3.5-4.7 1.3-.7 3.8-.3 7.8-.4 11.6a127 127 0 0 1-2.1 25.2c-.5 3-1.3 5.5-3 8L290 395c-1.7 3.7-3.3 7-3.2 11 0 10 4.5 17.8 6 27.5 1 6 3.5 11 .5 16.7-9.8 20.3-23 39.3-34.8 58.6l-10 1 16-31.3a196 196 0 0 0 10.1-24c.7-2.4 1.6-5 1.4-7.5-.4-3-1.4-6-2.2-8.7l-9.6-36.3c-1.3-5.3-4.5-9.2-7.7-13.4L244 372c-2.5-3.5-4.7-7-5.4-11.3-.8-5.5-2-10.8-.8-16.3.5-3 2-5.6 2.7-8.6.2-1.8-2-3.7-3.3-4.6-2.7.8-3 3.6-4 5.8-3.3 9.4-3 20.6.6 29.8-21.7 7-44.2 14.5-67 17.3 1-4.4 2.5-8.8 2.8-13.3-.5-4-6.2-3.8-6.6.1l-14.3 60.8c-1 4-1.4 8-1.7 12l-.6 67.5-11.8 1.2.4-18.6-2-51.5c-.6-6.4-.3-13-2.2-19-1.4-4.8-1.8-9.6-2.6-14.5-1.5-9.6-3.3-19.3-5.6-28.7-2-8.2-4.5-16-9-23.5l-4.7-1.3-2 2.6c3.4 5.6 5.7 11 7.7 17.3a68 68 0 0 1-28-17.7c-7.8-9.4-10.5-21.7-10-33.6l1.8-30-1-38.5 6.7-2.7c-.2-1.6.8-3.7-1-4.5-2 .7-4 1.8-6 2.7V244c4.5-1.5 9-3 13.3-5-.7-.7-2-3-3-2.7-3.5 1-6.8 2.5-10 3.8l.8-7.3 12.3-3.7c1.4-.5 3-1 4-2-.3-1-.7-2.2-1-3.3-4.6 1.3-9.3 2.8-14 4.2a150 150 0 0 1 4.3-9c4-.2 7.7-.3 11.4-2a41 41 0 0 0 9.9-7.2c1.7-1.2.4-3 .3-4.8H100c-2.8 2.4-5.7 5.5-9.3 6.6-5 1.6-10.5.3-15-2.6-4-2.7-6.5-6.5-9-10.6l34.6 1.3c.3-2 .5-4 .8-6-6.7-1-11-5.2-16.5-8.6-5-3.2-10-6.8-15.3-9.7-2-1.2-4-.4-6.2-.1-6 1.3-12.3 2-18.4 3.2a107 107 0 0 1-1.3-3.4l15.6-8.7c.4-1.8 1.2-3 .1-4.7-4.5-7.3-10-14-13.8-21.6l2.3-3.5c5 4 9.2 8.5 13.5 13 1.7 2 3.8 2 6.3 2.6.8-4.8.5-9.8 1.3-14.6.8-.3 1.7-.6 2.6-1l3 23c.2 2.4 1.8 3.7 3.4 5.3L103 190c1.8 2 3.7 1.2 6 1-.3-1.6-.4-3.5-1-5-1-1.6-2.5-3-3.8-4.2l-19-19c-1-1-2.6-2.4-3-4l-3.3-23c-.4-2.5-2.6-3.7-4.3-5.2l-2.2-17 3.2-2.3z" class="B"/><path d="M345 117.8c11.2 4.3 22.6 4.3 34.4 3.3l2.7-3.4V171c-4.8-4-9.5-8.3-15.6-10.4-2.3-.8-5-.1-7.4.1.6-1.6 1.5-3 1.8-4.8 1.2-7.6.2-14.7-.6-22.3l-3.4-2.8a43 43 0 0 0-12.9 3.4c1.2-2.8 2.4-5.3 2.3-8.4-.2-2.7-.8-5.4-1.2-8z" class="C"/><path d="M354.2 138c.5 7 1.6 14-1.7 20.5-1.7 3.8-5.2 6.6-6.7 10.4-.5 2.6 3.2 2 5 2.6 4.2-3 10.3-6.3 15.4-3.7 6 3 11.2 8 16.4 12.2-3.6 3-7.2 5.8-11 8.7-2.2 1.7-4 3.4-7 4-2.3.6-5-.2-7.3-.6-.6 1.3-1.4 2.5-2 3.8 1.4 3 4.6 5 6.5 8 2 3.3 5 7 5.2 11 .5 5 .2 10 .2 14.8-4.5-.4-10-.7-14-3.3-5-3.8-6.7-9.3-10.4-13.8-2.5-1.2-5 .4-5.4 3.2a36 36 0 0 1-13.2 21.7L306 252.8c-2.5-7.2-5.4-15-5.8-22.8.1-4.8 1-10 2.5-14.5 1.6-4.4 6.3-7 5-12.2-.8-.4-2.3-1.5-3.2-.7-4 2.3-7 5.2-11.3 6.8-5 2-10.6 3-15.3-.3-6.6-4.3-11.5-11-17.7-16 5.6-3.4 12-7.8 18.7-7.8 7.4.1 15 1.2 22.3 1.3 2.5 0 3.8-3 1.6-4.5-5-4.5-14.2-7-18.5-13.5-4-5.8-2.7-15-3-21.8l19.5 1.5c2.8.3 5.4.1 7.7 2 4.7 3.6 9.2 7.5 13.7 11.3 2 1.6 4 2.5 6.3 3.5 3-5 2.6-10.5 6.2-15.3 4.7-6 12-10.4 19.4-11.8z" class="D"/><path d="M238.3 142c7.5 2 14 6.7 21.4 8.8 4 2.4 7 6.7 9 10.6 2.5 4 1.8 8.8 4.8 12.5l5.2-2.4 6 6.6-8.7 1c-4.2.5-8.2 2.3-12.2 3.8l-12.8-26c-3.4-.6-2.5 2-1.8 4l11 24c-3.8 2.8-8.7 4-9.7 9.2l-25.6 5c.5 1 1 2 1.7 3 9.4-1.4 18.7-2.8 28-5l6.2 5.6c-2.6 9.6-5.2 19.4-5.3 29.5-.2 2 1 2.8 2 4 1-.8 1.7-1.6 2.6-2.4.4-9.2 2.3-18 4.4-27 4 4.2 8.4 7.8 13.8 10-2.2 6-3.4 12.3-6.5 18-4 8.2-11.8 13.7-19.5 18-3.8-6.5-8-14.2-8-22 .4-6.5.5-12.6 4-18.3-1.4-1.5-2-3.2-4.5-2.6-3.5 1.2-6.2 4.3-10 5-3 .7-5.7-.3-8.2-1.8l-20.4-12 15-9.7a46 46 0 0 1 16.6-5.2c2.3-.2 3.8-1.6 5.6-3-1.7-4.4-3.5-8.5-4.2-13.2-1.4-9-.4-19-.2-28z" class="B"/><path d="M347.5 153.4L338 171l-6.4 14.8A45 45 0 0 1 342 182l21-3.2c1.8 0 3 .8 4.7 1.5l-2.2 2.4c-11.7 1-23 2.3-33.7 7.4 10.6 5.4 18.4 14 24.4 24.2l-1.6 2.6c-4.3-3.5-6.4-8.4-10.2-12.3-4.4-5-9-8.5-15-11.4a96 96 0 0 1-14.8 39.9l-4.3.6c2-5.2 5.4-9.6 7.5-14.7a88 88 0 0 0 7-26.6l-45.7 4.8 1-3.7c5.5-.7 11 .1 16.5-.6l27.5-4a45 45 0 0 0-10.5-13.7c-5.3-5-11.7-8.3-17.5-12.6-.7-.5-2.3-2.4-.7-2.7 2.2-1.7 3.4.1 5.4 1l15 11c4.3 4 7.7 8.7 10.7 13.7a245 245 0 0 1 15.2-30.3c1-2.4 3-1.8 5.3-1.7zM136 178c5.7-.3 11.4-.4 17-.6l2 3.6-1.8 1.4a100 100 0 0 0-16.9.6c-5.5 2.3-7.2 7.2-9.5 12.2-.8 2.2-3.4 2-5 .8-.6-3.3 1.5-7 3-10 2.3-3.7 6-8 10.8-8zm9.6 6.5c1.3 1.6 2 3.7 3 5.5a16 16 0 0 1-6 6.6l-5-2.8c-.4-2-1.2-4-1-5.8.4-3.8 6.2-6.2 9-3.5z"/><path d="M296 215l-2.7 12.3c-4-3.3-8.4-5-10.7-9.7L296 215z" class="B"/><path d="M237.3 287c7.3-1.5 16 1.3 23 3l-1.8 3-22.8-2.7a45 45 0 0 1 1.6-3.2zm-27 .8c1 1.3 1.3 3 1.8 4.4l-19 3.8-1.4-3 18.8-5.3z"/><path d="M380.8 293.2L382 322v102c.1 4-1.5 7.4-3 11.2l-9.5 24.5-8 18.2c-3-4.3-7-7.6-10-11.8.4-17.3 1.6-34.8 2-52.2l1-56c0-4.6 2.3-8.8 4-13.2l22-51.6z" class="B"/><path d="M281 297c4.7 2 10.8 2.7 14.5 6.3l-3.3 2c-4-1.6-8.7-2.6-12.5-4.7-1.5-1-.8-4.6 1.3-3.5zm-70.3 1.5l2 3a70 70 0 0 1-14.7 3.7c-2.7-1.2-1-1.7-.2-3.5 4.2-1.3 8.7-2 13-3.2zm28.3.2c5-.3 10 .3 14.8.5l2 2-2 2.7c-5-.6-10.2-.8-15.2-1.6.2-1.2.1-2.4.5-3.5zm-67 2.5l-.4 4L152 308l-1.5-2.5a90 90 0 0 1 21.3-4.2zm69 6a57 57 0 0 1 10.8 1.3c1.7.3 2 1 2.8 2.6-1 1-2.3 1.4-3.6 1.2-4.2-.3-8.3-1-12.4-1.7.6-1.4.6-3.2 2.4-3.3zm39 .1c3.7.6 7.4 2.6 11 4v2.2l-2.8.7-9-4 1-2.8zm-70 5c-3.4 3.4-9 3.5-13.5 4a33 33 0 0 1-.6-3.4c4.4-.6 10-2.6 14-.6zm-41.3 2l.3 3.2-14 1.5c-2 .1-3-3-.7-3.4 4.6-1 9.6-1 14.3-1.2zm109.6 1c4-.1 8.6 2.3 11.6 4.8-1 2-1.5 2.8-4 2a36 36 0 0 1-8.7-4c.2-1 .5-2 1-2.8zm-37 2.8c2.6-.1 7.6-1.3 9 1.6-2.4 2.3-6.2 1.4-9.2 1.3l.3-3zm-30.3 2.5l-2.2 4c-2.8.4-5.5.5-8.3-.1l1.5-3.3 9-.5zm-53.7 5.5l7.7-.2 2.6 1.8-2 2c-3.8.4-7 1-10.6-1l2.4-2.7zm122 1.2c2.6-.4 6 .5 7.7 2.8-.1 1.4-.7 2.2-2 2.3-2.4-.2-4.7-1.2-7-2.2l1.2-3zm-117.2 9.6l2.3 2.5c-2.8 2-5.6 1.6-8.8 1.6a156 156 0 0 1 .1-3.8l6.4-.3z"/><path d="M350.8 365l-1.2 56-1.8 42c-3-3.2-6.3-6.3-9.4-9.4l-3.5.1 2.5-45.5c.1-5.4 2-10 3.7-15l9-25 1-2.8zm-256.4 7.8c7 4 14 7.2 22 10 1.8 8 4 16 5 24.3.3 10-1.2 20-1 30l1.2 75c-4.5-.5-9-1-13.7-1l.5-14-1-62c-.2-6-1.7-11.3-3-17L94.7 373zm142.3-.2c5 7.8 11.2 14.6 16.8 22 2.2 2.8 4 5.7 5 9.2L269 445c1 3.6-.1 6.6-1.2 10-3.3 9.6-8.2 19-13 28l-14 26.8-8.7-1.4 18.2-34.8c2-4.6 4.3-9.3 3.5-14.5l-4.6-35c-.7-3.7-1-7.8-2-11.4-1.7-3-4.5-5.5-6.8-8.2-7.2-8.4-14-17.2-20.5-26.2l16.6-5.6z" class="B"/><path d="M214 380.2C222 392 231.5 402.6 240 414c1.2 1.5 1.3 3.8 1.7 5.6l5.6 37.5c.4 3 .4 6-.6 8.8-5.2 15.4-13.2 28-21 42-2.7 4.8-6.2 9-9.3 13.7-1.6 2-2.6 5.2-5.6 4.8l-56.3 3L153 512l-.2-60 2-17.2L165 391a245 245 0 0 0 48.8-10.9z" class="C"/><path d="M333.6 415.6c-1.2 13.4-1.4 27-2.8 40.4-.2 2.7-1.8 4.4-3.3 6.5-3 4-5.3 8.2-7.5 12.5-2.8 5.5-4 11.8-4.7 18-.2 7.8 3 16.4 5 24-4.3.5-8.6.7-13 1 1.4-12 3-23.8 3.3-36-.1-6.5 4-10.7 6.3-17l16.6-49.2z" class="B"/><path d="M126.4 444l1 15c1.4 12 .1 24 1.3 36 .7 6.7-.1 13.2-1 19.8L127 470c.3-8.7-1-17.4-.7-26z" class="E"/><path d="M382 446.3V488c-5.8 3.2-11 7.4-16 12l1-8.8c.2-3-1.4-5 0-7.7L381 449l1-2.7z" class="C"/><path d="M337 460.8L356 481c2 2.6 4.4 5.6 4.8 9 .4 7.7-2.2 15.2-.1 22.7 1.6-.6 3.3-1 4.8-2 2.4-2 4.2-4.6 6.4-6.8a61 61 0 0 1 10.2-8.4v19.3c-11.6 7.6-23 15.6-34.5 23.3a122 122 0 0 1-3.7-16 115 115 0 0 1-2.7-22.1c-.2-5.7.6-11.2.2-17l-3.5.7-.7 15.3a131 131 0 0 0 6.4 40l-46.7 3.2c0 1 0 2 0 3.2l47.4-2a252 252 0 0 1-9.9 47.5l3 2.6c1.4-3.3 2.4-6.7 3.3-10.2 3.3-12.8 6-25.6 7.4-38.7 11 8.5 21.8 17 34 23.7v17.3c-8-2-13.6-7-19.3-12.5-1.7-1.5-4.3-2.7-5.4.2-1 3.5.6 8 .7 11.6.4 3.5-.8 6.5-2 9.7h-32c-.6-3.5-1.6-7.2-1-10.8l2.3-12.5c.3-2 .8-4 .2-6-2.5-2.3-6.2-1-9.4-1-9.7.3-19.7-3.8-28-8.4-7.4-4-15-7.4-23-10.7l34.3-19.3c2.2-1 4.3-2 6.8-2l21.6-1c.4-5.4-1.8-9.5-3-14.6-1.7-6.7-3.5-13-1.8-20 1.7-10.4 8-19.6 14.4-27.7z" class="D"/><path d="M307 484.4l-3.6 33.4c-6 1.4-11.3 4.4-16.7 7.4 1.8-6.7 2-15 6.5-20a205 205 0 0 0 13.8-20.7zm-76.4 28c2.7-.1 5.5.4 8.2.7-3.2 3.8-5 8.4-8.2 12-3 .7-6.2.7-9.3 1l9.3-13.8zm27.4.3l-3 13.3h-17c2.3-3 4.4-6.4 6.7-9.5.7-.8 1.4-2 2.6-2.3 3.4-1 7.2-1 10.8-1.5zm-151.6 3c5-.5 10 .2 15 .4l-2 15.8-20.2 2.5 7.2-18.7zm28 .6c3.8-1.3 8.3-.6 12.2-.7a3453 3453 0 0 1 1.7 14.2l-20.5 1c2.2-4.8 4-10 6.5-14.6zm150 1.2l-2.4 10-5.2 3.2 5.8-10.2 1.8-3z" class="B"/><path d="M382 519.5v44c-11.4-6.6-21.8-14.5-32.6-22l32.6-22z" class="D"/><path d="M268.4 533.5c-1 1.4-1.7 2.8-2.8 4-3 2.7-7.6 4-10.4 6.8-.6 1.4-.3 3 .1 4.6 1.3 1 2.7 1.7 4 2.5l-18.6 43.5c-72.3 0-144.6 0-216.8 0L22.6 552a1508 1508 0 0 1 85.2-12.2c53.3-6 107-8.2 160.6-6.4z" class="E"/><path d="M266 553l13 5.8c-2.3 11-7.4 21.3-9.6 32.5l-20.2.5 17-38.7zm17.2 7.8a302 302 0 0 1 11.6 5.6l-6 24.5-15 .3 8.6-27.6.8-2.8zm15.4 7.2l9.2 2.4-4.2 20.2-10.3.2c1.7-7.6 4-15 5.4-22.8zm13.4 3l4.3.3-8.4 19.4 4-19.6z" class="B"/><path d="M365 584l10.2 5.8c2.7 1.4 5.5 2.5 7.7 4.8l-19.5.3c1-3.6 1.4-7.2 1.6-11zm-48.7 5l.8 5.8-3 .1 2.3-6z" class="E"/></svg>