<svg xmlns="http://www.w3.org/2000/svg" viewBox="0 0 400 610" width="533.3" height="813.3" xmlns:v="https://vecta.io/nano"><path d="M0 0h400v610H0V0z"/><path d="M18.5 14.4c3-.3 6.3-.1 9.5-.1h196.8c1.5 10 2.4 20 4.6 29.7 3.2 13.7 10.7 25.6 20.7 35.4l-17 1a56 56 0 0 0-24.4 8.1 115 115 0 0 0-20.9 19.1c-2.8 3.2-5.8 5.8-7 10 9.8 6.4 20.5 9.5 31.2 13.4 4 1.3 8.2 1.3 12.2 1.8 3.4.3 6.7 1.2 10 .1 6.8-2 13.5-4.4 20-7.3a71 71 0 0 0-9.2 35.2c-.3 14.5 1.3 29 4.4 43 1 4.2 1.4 8 4 11.7 2.2-.6 4.2-1.2 6-2.7l33.6-30.4c6.6-7.6 9-17.8 10.6-27.5 3.8 7 7.4 14.2 12 20.8 2.6 3.8 6 7 10.4 8.7 9.5 4 21 4.8 31 5.8 1-1 2-2 2.8-3.4l-3-23c-.8-8.6-2-19-7.3-26-2-3-4-6.3-6.2-9.5l18-.2c7.3-1.4 14.4-4.4 21-7.5v249.7l-14.6 2c-11.4 3-21.3 9-30 17L332 369c-2-4.4-5.4-8-8.4-11.6l-28-33.5-4-.2c-2 .6-1.5 2.6-2 4.2-1 6.8-3.2 12.8-5.3 19.3-3.6 11.3-7.3 24-6.5 35.8l2 32.7a121 121 0 0 0-20.4 8.8 145 145 0 0 0-40.9 31.1c-1 1.4-2.4 2.5-2.5 4.3 1.5 3.8 5.8 4.3 9 5.8l31.6 12.3c10.3-.3 20.7-1.3 31-1.8-2.2 6.7-3.4 13.7-3.7 20.7-1 17.5 3.8 35.6 8.5 52.3l3 2c3.7-2.4 6-5.8 9-8.8 4.2-4.5 9-8.2 13.3-12.7l16.4-17.6a41 41 0 0 0 10.1-27.3l20.5 10.3c5.3 2.5 11.2 2 17.3 2.6v96c-69.2 0-138.3 0-207.5 0 2.2-8.2 4-16.3 3.8-24.8v-23.7c6.3 2.5 12.7 5 19.6 4.7 5.4-.2 10-2.3 15.3-3.8l40-12.8c2.2-.6 3.5-2.2 5.2-3.6-1.6-2-3.4-4-5.6-5.5l-40.5-30.5c-8.7-6.7-19.2-10-30-11.6l7-10c7-9.6 12.3-20.4 14.2-32 2-12.6 2-25.3 2-38a18 18 0 0 0-1.4-8.7c-1.7.2-3.3.4-5 1-7.8 3-15.5 7-23.5 9.4a112 112 0 0 0-29.4 14.6c-12.7 8.8-22.4 21.2-28.4 35.3-7.3-5-15-9.8-23-13.7-12-5-25-8-37.8-9L41 430c-2.4-.4-3.7 3.8-2.5 5.5 3.2 6.5 2.6 13 4 19.7 1.8 9 4.3 18.6 9 26.5a54 54 0 0 0 26.6 20.6c-11.6 5.3-23.3 11.6-33.3 19.6-10.2 8.7-19 19.2-26.4 30.4v-157c11.3-2.2 23.6-4.7 34-9.8a78 78 0 0 0 27.1-29.3c11.8 8 24.7 14.5 38 19.5 17 6.2 35.6 9 53.5 10 3.8.1 7.8.6 11.6.2a38 38 0 0 0 2.3-2.7c-3-4-7.5-6.3-11-10-10.8-11.5-19-26.5-27-40-5.2-8.8-14-14-23-18a74 74 0 0 0 27-21.3c2 .4 4.2.7 6.4.8.4-3.2-.4-6.2-.5-9.4l8-15.3c1.8-4.2 4.8-7.2 4-12-4-1.6-8.2-1.3-12.6-1.3.1-6 .7-11.8-.6-17.5-1.8-8.5-6-16.2-10.5-23.6l26.8 4.2c5 1 10.5-1 15.3-2.4a162 162 0 0 0 40.9-23c1.6-1 2.7-2.6 3.8-4.2-1.6-1.5-3-3-5.2-3.7-7.2-2.7-14-6.4-20.5-10.5l-25.5-14.5c-10.7-5.8-22.2-6.6-34.2-6.2 3.6-6.7 6.6-13.6 8-21 1.3-6.4 1.2-12.4 1.3-19l1-46c0-1.5.1-3.2-.4-4.6-1-1.2-2.2-1.6-3.7-2-2 1.7-3.8 3.8-6 5.6-6.2 5.4-13 9-20 13a178 178 0 0 0-23.4 17.6c-2.8 2.6-5.3 5.5-7 9C91.3 118.2 88 129.4 86 141c-10-6-21.3-13.7-33-14.7a192 192 0 0 0-34.6-.7l.1-111.3z" fill="#fff"/><path d="M231.7 14.2H248c5.3-.2 10 2.8 15 4.7 6 2.7 13 4 17.3 9.6 7.6 9 9.7 19.2 14.8 29.4 1 2 2.5 2.8 4.7 3 2.2-2 1.8-4.3 2-7 .1-9.4 1-20 5.8-28.4 2.5-4.7 6.8-7 11-10 2.6-1.8 5.3-1.4 8.3-1.5h25.5l1 29.8c-.1 6.7-2.6 13.4-7 18.4-3 3.3-7.7 5-10.6 8.4-1 1.2-1 3 .1 4.2 2 1.3 4.6 1.8 6.8 2.4a98 98 0 0 1 26.8 11c4.7 2.8 8.6 7 12.5 10.7v13.5c-6.2 3.4-12.2 6.6-19 8.3-4.8 1.3-10 .3-15 .1-3.8-.4-7.7.1-11-2.2-3.2-2-6-3.8-10-4l-1.7 3.3c6 8.7 16.8 17.2 20.8 27.4 3.8 12 3.7 25.6 5.3 38-7.7-1.3-16.3-2.5-23.4-5.7-4.7-2.2-8-6-11-10-4.2-6.4-7.6-13.3-10.8-20.2-2.2-4.7-3-9.3-7.5-12.6-1.5 2-3.4 3.2-3 6 1 11.2.5 22.5-5.8 32.3-8.3 13-22 23.4-33.6 33.6a215 215 0 0 1-5.4-47.8c-.5-8.7 2.6-17 5.6-25 2.4-6.4 6.3-11.7 10-17.2-1.4-1-3-3.8-5-2.8-4.2 1.6-7.8 4.5-12 6.3-7.2 3.3-15.2 6.6-23.2 7.3-13.2.1-24.8-7.6-36.7-12.2C197 108 203.7 99.6 212 94c12.5-8 29.7-8 44-8 2.5.1 4-1.6 5.8-3-6-6.5-12.5-12-17-19.8-9.6-15-10.7-31.8-13-49z" fill="#d96038"/><path d="M269 14.2h40.4c-2.8 2.5-5.5 4.7-7.4 8-3.6 6.2-4.7 13-5.7 20-3.5-7-7.6-14.7-13-20.5C280 18 276 17 272 15.2l-2.7-1zm90.3 0H382V90c-4-3.6-8-8-13-10a151 151 0 0 0-22.7-7.8c7.6-7.3 13-16.3 13.8-27 .3-10.2-.5-20.6-1-30.8z" fill="#fff"/><path d="M335.4 16.6c1.6-.5 3.3-.6 5-1l-41.6 76.8 28.6 3c14.6 2.4 29.4 4.2 44 7l-2 3.6-38-6-32.8-3.7c11 18 21 37.7 34 54.4 3.3 4.3 7 8 9.8 12.6-1.5.1-3 .3-4.4.4l-11.4-15c-11.7-15.8-20.8-32.4-30.7-49.5-8.7 23.4-18.7 45.6-24.2 70-1 5-1.3 10-3.6 14.6l-2.6-3c3.7-28.7 16.3-57.8 26.6-84.8-23 2.8-45.7 7.3-68 13.6-5 1-9 3.5-14 1.4 2.5-3.6 6-3.5 9.8-4.5l71.6-14.4c-13.8-22-30.8-43-47-63.7C243 27 242 25 241 23h3.6l50 67.5 36-65.8c1.5-2.7 2.8-5.7 4.7-8z"/><path d="M149.8 74l-.7 49a62 62 0 0 1-8.6 29.6c-1.2 2-2.5 4.2-3.3 6.5.3 1.6 1 3 2.7 3.2 5.7.4 11.3-.7 17-.4 9.4.4 19.2 2.8 27 8.2 12 7.3 24.4 15.7 37.4 21l-35.2 19.5c-4.4 1.6-9.5 3.4-14.2 2.6l-20-2.7c-5.5-.8-10.6-3.7-16-4.6-2.2-.3-2.3 1.5-2.7 3 .7 3.7 4 7 6 10 7.3 9.8 11.5 21.8 10.5 34.2l.7 33.4c-10.6-5-22-10-31.2-17.6a30 30 0 0 1-7.4-8.5L96 233c-1.2-1.4-3.2-4.2-5-2.3-3.7 3.7-7 7.7-11 11-7.3 6.2-15 12-24.8 13.4-10.2 2.2-20 4.3-30.6 4.8l17.8-40.7a89 89 0 0 1 24.1-23.9c2.2-1.6 4-3.6 6-5.6-1.4-1-2.2-2.5-4-2.8-10.4-2.2-23.5-3.7-31.5-11.5-6-6.6-8.4-17.4-10.2-26-1.7-6-4-11.7-6-17.6 11-.7 23.2-1 34 1.4 7.4 1.6 14 5 20.5 8.8 5 2.8 9 6.3 14.6 8 1.3-2.3 2.2-4.4 2.4-7a93 93 0 0 1 8.5-27.5c2-4.2 4-8.2 7.4-11.6 7.3-7.6 17-13.7 25.7-19.4L149.8 74z" fill="#ffe000"/><path d="M138.4 90.3c1.8-1.6 2 .1 3.3 1.2-15.6 31.3-30.5 64.4-38.5 98.6 32.5-2 66-1 98.4.1l2 2-2.7 2.6-97.4-1.4 16.8 37.3 19 36c-.4 1.3-.7 2.6-1 3.8-1.4-1.2-2.8-2.2-3.8-3.8-14-22.7-24-46.7-33.7-71.5-20.3 17-44 33.6-60.4 54.2l-4 .6c.4-2.6 1-4 2.8-5.8l33.5-32.5L98 192c-18.2-18.4-41.4-33.4-63-47.7v-2l2.7-.8L100 188c4-18 10.8-36 17.8-53.2 4.7-12.5 11-24.3 16.5-36.5 1.3-2.6 2.3-5.7 4-8z"/><path d="M18.3 144.5c2.5 10.7 5 22.8 11 32 7 9 19.5 13 30 15.7-7.8 5.8-15 12.2-21 20l-7-4.2-4 .7-1 2.2a132 132 0 0 1 1 16c0 3 .3 6-.8 8.8-3 7.5-6.4 15.2-8.6 23 .3-7 .1-13.8.1-20.7l-.1-93.5z" fill="#fff"/><path d="M34 217.4c1.6-.5 1.8 2.4.1 2-.8-.7-.8-1.3-.1-2z" fill="#858585"/><path d="M91.4 238.8l14.7 24.8a79 79 0 0 0-14 9.5 75 75 0 0 0-9.7-25.6c3-2.8 6-6 9-8.7z" fill="#fff"/><path d="M77.4 251.8a59 59 0 0 1 6 13c2 6.3 1.8 12.8 4.3 19 3.3-1.7 6.2-3.8 9-6a74 74 0 0 1 13.5-8.4 84 84 0 0 0 16.4 12.2l-46.3 30c-6.5-16.8-14.6-33-23-49a74 74 0 0 0 20.3-10.5zm78.6 11.4h5l-5.3 10.7c.1-3.6.2-7 .2-10.7zm-103 .1l8.6 17c5.4 11 10.8 22 14.7 33.7a1153 1153 0 0 0-58 59v-31c0-2.6-.1-5 1.7-7 4.4-5.5 9.6-10.5 15-15 3.5-2.8 6.7-5.5 11-7a46 46 0 0 0 10-4.4c-3-7-8.2-12.4-12-19.2-4.4-7.5-7.2-15.7-9.2-24l18-2.3z" fill="#858585"/><path d="M18.3 267.5c3.4.3 6.7-.3 10-.8 3 14.2 9.4 27.3 18 39-11.3 4.7-19.8 12.5-28 21.4l-.1-59.6z" fill="#fff"/><path d="M130.2 283.6l15 7a61 61 0 0 1-27.6 19.9c-2.5 1-5.2 1.5-7.6 2.7-.7 1.8-.8 3.8 1 5 2.7 1.6 6.3 2 9.3 3a36 36 0 0 1 15.7 9.2c6 5.4 9 13.6 13.7 20.3 6.6 10 13.5 20 21.5 28.8-17.3-2-35.7-4.4-52.2-10.2-8.6-3.3-17-6.3-24.8-11.2-5.6-3.4-10.2-8-16-11-2.3 2.5-4 5.2-5.8 8-6 10.2-14.4 19.6-25.2 24.7-9 4.2-19 6.5-28.5 8.6v-10.2c4-3.4 7.3-7.2 11-11L79 316.4c8.3 8 16 16 25 23a270 270 0 0 0 29 20c4.5 2.6 8.3 5.7 13.5 6.8l-.6-4.3A251 251 0 0 1 99 331l-17-17 44-28 4.2-2.4zm165 50.6l27.5 33.2c5.8 7 7.8 15.8 8.5 24.6.3 2.4.2 5.3 1.3 7.4a10 10 0 0 0 3.5.8c2.5-1.4 4.4-3.7 6.4-5.7 6-6.3 13.4-11.3 21.5-14.5 6-2.4 11.8-2.4 18-3v16a1224 1224 0 0 0-58.2 49.2c-10.4-29.4-17.2-59.5-24.5-89.7l-3.4 1c-.1 3.8 1 7 2 10.6l7.5 30.4 15 49.4-84.2 12c.7 1 1.2 2.3 1.5 3.5 4.4-.2 8.8-1 13-1.6l69.5-9.2c-4 20-7 41-14.6 60-1.8 5-5.4 8-4.2 13.4 2.3-1.8 4.2-3.6 5.4-6.2 5.6-10.8 8.6-23.7 11.4-35.5l6-31.5 57.6 29.3v13c-5.5-.4-10.8-1-15.8-3.4-6.6-3-13-4.8-19-9-2.7-2-5.6-2.8-9-3.4-.5 4.6-.2 9-.6 13.7a42 42 0 0 1-5.7 16.3c-2.4 4-6.3 7.2-9.5 10.5l-25.5 25.5c-4.2-15.5-8-33-6-49 1-8 4-14.8 6.3-22.4l-5.2-2.8a53 53 0 0 1-34.7 4.5c-11-2.8-22.2-8.2-32.7-12.4a153 153 0 0 1 28.1-23c8.4-5 17.6-10.6 27.2-12.8 2-.5 4.3-1 6-2 1.6-1.4 1-4.2.8-6a238 238 0 0 1-2.2-35c0-9 2.4-18.5 5.4-27 2.2-6 3.5-12.5 5.2-18.7zm86.8 63.5v31c-5 3.5-9.8 5-13.3 10 4 3.4 8.6 5.4 13.3 7.5v27.4l-55.3-29 55.3-47.2z" fill="#858585"/><path d="M199 402.6l-2.4 40c-.6 3.7-1.7 7-3.8 10.3l-16.4 26.6c-1.7 2.3-2.5 5-3 7.7 6 3 12 1.6 18 3.6a63 63 0 0 1 21.4 10.7c11.8 8.7 23 18.2 34.7 27.3a4303 4303 0 0 0-35.1 10.7c-4.7 1.4-9.3 3.5-14.2 3-4.5-.4-9-.4-13.5-1.3-4.6-1.6-7.8-5-13-5-.8 7.8.3 15 .2 23 0 6.7.3 13.4-.7 20-.7 5-2 10-3.5 14.8-2.8 0-5.6.1-8.5.1l1.3-1.6-17.3-63.4-6.3-17 75 12.2c6.3 1 12.7 2.4 19 2.7-1-1.2-1.7-3.6-3.3-4-3-1-6.4-1.2-9.6-1.7l-80.5-12.5c7.3-12.7 14.6-25.5 22-38.2 9.7-16.7 18.4-34 28-50.7a37 37 0 0 1-3.2-2.2L133.3 507 86 468l-25.6-22c-1 1-2.3 1.5-2.8 3 2.8 3 6.3 5.5 9.4 8l63 52.4-32.8 17a1078 1078 0 0 0-59.5 33.5c-3.7 2-7.4 4-10.2 7.5l3.4 1.3c32.3-21 68-38.7 102-56.5l8.2 21.6c4.6 13 8 26.7 11 40.3l4 20H143c-8.8-11.7-13-27.4-14.5-41.7-.2-3.3-1.6-6-3.3-8.7l-23.8 16c-9.3 5.2-19.3 10-29.7 12a326 326 0 0 1-53.3 7.1c.4-6-1.5-13 2.4-17.8a169 169 0 0 1 26.5-32.6 103 103 0 0 1 27.5-17.5c4.6-2.2 9.5-3 14.2-4.8 1.6-1 3.3-4 1.8-5.6-2.2-1.3-5-2-7.4-2.8a50 50 0 0 1-24.4-16.6c-3-4-4.7-8.3-6.2-13-3.3-10.2-5-21-7.2-31.6a110 110 0 0 1 45 8.9 132 132 0 0 1 17.5 9.6c4 2.7 7 6.4 11 9.5 5.2-4.8 6-10.8 9.7-16.6 4.8-8 11-15 18-21 6.5-5.8 14.6-10 22.6-13.4 5.8-2.4 12-3.8 18-6l11.8-4.6z" fill="#d96038"/><path d="M382.2 436.3c.4 1 .2 3.7-1.5 3-1-1.2 0-3 1.5-3zM122 554.6c1.8 9.4 3.4 18.8 6.7 28 1.5 4.2 3.8 7.6 6.3 11.3H18.4v-8c21.3-1.3 43.2-4.3 63.7-10.6 14.2-5 27.5-12.2 40-20.7z" fill="#fff"/></svg>