<svg xmlns="http://www.w3.org/2000/svg" viewBox="0 0 400 610" width="533.3" height="813.3" xmlns:v="https://vecta.io/nano"><style><![CDATA[.B{fill:#d96038}.C{fill:#fff}.D{fill:#ffcdde}.E{fill:#858585}]]></style><path d="M0 0h400v610H0V0z"/><path d="M19.5 16.4l46.7-.1C68 19.6 70 22.7 73 25a67 67 0 0 0 22.8 9.5c1.2.4 2.3.6 3.2 1.5l9.7 10.4c-2.3 4-1.7 8.4-2.2 13-3.7 1.6-7.7 3-11.2 5-1.3.7-1.2 2.8-1 4 .8 7.4 2.7 14.7 6 21.4L92 84.2c1-9.4 2.3-18 .4-27.4-.7-1.3-2-1.6-3.2-1.7H78.6l-6-9.5c-1.7-1.6-4-1.3-6-.7-6.7 2-13.2 5.8-19 9.5-5.3-4.5-11.7-7-18.5-8.2-2-.3-4.6-1-6.5.3-1.6 3.3-2 7-3 10.6.3-13.5-.1-27 .2-40.6z" class="C"/><path d="M72.6 16.3l20.6-.1 3 12.4c-8.7-3-16.8-6-23.7-12.3z" class="B"/><path d="M99.6 16.2h83.7l-.7 5L173 25c-1.8.8-2.5 2.8-2 4.7 2.6 8.3 7.3 15 13 21.6l-4 8.8c.2-4.4 1-9.6-.4-13.8-4-1.4-9-.7-13.2-1l-6-10c-1.5-1.7-3.8-.5-5.4.4-6.7 3.8-12.7 9.6-18.6 14.6l-19.8-4.3c-3.3-3-6-6.6-9.2-9.8-2-2.4-4.7-4.2-5-7.6a136 136 0 0 0-2.7-12.8z" class="C"/><path d="M191.5 16.2c6 0 12 2.8 17.6 3.5 2.5.6 4-2 5.7-3.4l32.3-.1c1 6.2.1 12.2.3 18.4 5 1.8 10 2 15 4a36 36 0 0 1 7.6 4.5c-1.5 3-3.7 6.3-4.2 9.7 1 3 2.7 6 4.2 8.7L256 68c-1.7 1-2.3 1.7-2.4 3.8 0 6.3.8 12.5.7 19-4 .1-8.2-.5-12 .7-2.6 2.5-4.3 6-6.4 9-3.6-2.3-7-4.4-10-7.5-2.3-2.4-3.7-5.2-5.4-8-7.8 2-15.3 4.5-23.5 4.5-1-3.5-1.7-7.2-3.2-10.4-2-3.5-7.3-4-10.8-5a57 57 0 0 1 3.8-12c1.4-3.3 3.4-6.5 4.3-10 .7-2.8-1.3-4.5-2.7-6.6a77 77 0 0 1-9-14.5c3-1.5 7-2.6 9.2-5 1.8-2.7 1.7-6.6 2.6-9.6z" class="B"/><path d="M254.4 16.3c2.8-.2 5.7-.1 8.5-.1l-1.2 5.8c.2 2 1.5 2.6 3.2 3 6.8 1 14.5 1.3 21-1 4.3-1.5 7.4-4.5 10.5-7.6H383v579.5c-100 0-199.8 0-299.6 0l50.8-74.5c4.2-6.2 6.8-14 9.7-20.8 2 2.4 3 8 7 6.7 3.4-1.3 6.5-3.4 9.7-5L171 509c1 .6 2.5-.8 3.4-1.4a54 54 0 0 0 14.7-17.1 48 48 0 0 0 24.2-.1l3-3.7-1.5-12c3 4.5 6 8.8 9.5 12.8l-7.2 16.7c-.5 2-1.3 4-.3 6 3.5 2 7.4 3 11 4.3 1 4 1.4 8 3 11.8 1 2 3.4 1.5 5.2 1.4 7.7-1 15.2-4.4 22-8 7 5.7 14.7 10.2 22.8 14l4.2-2.5c2-2.6 3.5-5.7 5.2-8.5 2.6 0 5.8-.8 8.3-.1 5 3 10 7 14.8 10.2 3 1.8 3.2 4.6 4.5 7.5a53 53 0 0 0 11.6 18.4c4 3.6 9.6 5.7 14.7 3.7 4.3-1.7 7-5.7 9.5-9.5 2-3.4 2.6-7.4.6-11-2.7-5.5-9-8-14.4-9.7-6.3-2-12.3-1.6-19-2.5-1.6-.2-3-1.4-4.4-2.2l-12.5-9c1-8 2.8-15.3 1.4-23.3 6.2-2 11-5.7 16-9.8a52 52 0 0 0 6.7 18.8c3 4.8 7.6 8 13 10 7.3 3 15 2.7 22.4.7 2.2-5 .6-9.5-1-14.4-3-9-11-15.4-20-17.8 5.5-5.2 7-13.5 8.3-20.6l17.6-2.2 3-3.7-1.5-11 6.5-6.6c1.2-1.3 2-3.4 1-5-4.3-7-10.4-13-17.7-17 4-7.8 7-17 3-25.5l-9.8-3-4.5-11.8c-.5-2-2.8-2.3-4.4-1.7-8 2.4-15.6 6.7-22.6 11.3l-17-10.5c-2.2-1.4-4.6-.7-5.8 1.6-1.6 3-2.8 6.4-4.2 9.7-4.4.3-9.8-1-13.6 1.3l-11.2-2.8-9.6-24.2-5-.7-8.8 4.4-10.7-6c-1.8-.8-3.2.3-4.6 1.4-5.4 4.8-10 10.4-14 16.4l-15-.6c-4.3.7-8.3 1.5-11.3 4.8l1.6 11.8c-3.6 3-7.2 5.2-9.7 9.4a50 50 0 0 0 6.3 10.2 59 59 0 0 0-13.5 6.1c-2-2-4-4-5.6-6.4-.8-4-.8-8.4-1.6-12.5-1.8-10.2-4.7-21.4-4.6-32 .6-12.8 3.3-25.8 6.4-38.2l11.3-39.5-.5 9.8c.1 1.8-.6 3 1.2 4.2 7.4 4 16 5.6 24.2 5.8 2 7 5.5 13.2 10.6 18.4 1.3 1.6 3.5 1.5 5.5 2l9.7-6.7c5 1.6 8.5 4.5 14 3 5-6 6.6-13 8-20.6l17.7-2.2c1-2 2-4 2.2-6.2 1 7.2 6 12.3 4 19-1.8 9.2-3.4 17.7-1 27 1 3.5 2.8 6.6 6.5 8 5.5 2 10.6-.3 15.7-2.2 3.5-1.4 6.3-4 7.2-7.8 1.3-5-.6-9.6-3.4-13.6a82 82 0 0 0-17.4-16.7c-2.3-1.6-2.6-4-3.5-6.5l-6.5-20.2c1.3 2 2 6.3 4.7 6.8 4.2-.5 8.3-1.6 12.5-2.4l7.3 8 4.6 1c6.7-3.7 10.8-9.5 15.2-15.5l12.6 3.8c-.1 10.6 4.3 22.6 13 29 7.6 5.6 17 7 26.3 5.2.7-1 1.5-2 2.2-3-.2-9.4-2.4-18.4-9.4-25.2-6.6-5.8-15-7.3-23.5-7.3l2-9c3.3-1.2 6.7-2.2 9.8-3.7 1-1 1.8-2.4 2.7-3.5a47 47 0 0 0-9.5-23.6c5-4 9.4-8.5 12.5-14 1.2-2.4 3-4.6 1.5-7.3-2-2.7-4.5-4.8-6.8-7.2v-7.3l11-2.7c1.7-4 0-9.7.1-14 3.2-3 7.6-6 9.6-10-1.8-7-8.6-13.3-14-18l6.8-17c-1-1.2-1.7-2.7-3-3.7-3-1.5-6.5-2.4-9.7-3.5l-2.2-9.8c-.4-1.4-1-2.6-2.7-2.6a43 43 0 0 0-24.5 6.4c-5.6-5.6-9.6-11.8-17-15.5-4.7.8-7.3 4-10.8 6.8-5-.4-10-1.7-14.8-1.3-1.5.1-2 1.7-2 3-1.3 8.2-1.5 16.4-1.4 24.6l-19.8 12c.5 4.5 4.4 8.3 6.7 12.2-1.3 2.6-2.7 5-4 7.7-1 1.8-.2 4-.1 6 6.7 3.3 13.4 5.7 20.7 7.3-1 5-1.8 9.7-2.2 14.8l-14.2 6.2-.1-2.7c1.5-3.8 4.2-7 5.7-11-6-7.4-14.4-12-23.6-14 .7-3 2-6.2 2-9.3-.4-4.8-1.2-9.6-2.7-14.2-4-1.8-8-2-12.2-2.8-3-2.6-5-6.4-7.6-9.4l-5.2-.8a90 90 0 0 0-18.3 16.2c-7-2-14.4-4.4-21.8-5.2-1.7.8-2.7 2-3.2 3.8l-2 9.5c-3.4 1-7.2 1.8-10.3 3.5-2 1.6-1.4 4.2-1 6.3 2 7.2 6.4 14 10.4 20.2-3 4.7-5.6 9.3-7.4 14.5a32 32 0 0 0-17.4-14.9c-9-2.6-19 0-26.8 4.8-1.3 1-3.2 1.5-2.7 3.6 3.5 9 10.8 17.3 20.3 20a30 30 0 0 0 20.8-1.2c2-.5 3.2-2.3 4.8-.1-3.5 6.7-7.6 13-11.2 19.8L135 290.6a445 445 0 0 0-13.6-44.1A131 131 0 0 0 112 226c-6-10.3-13.7-19.3-21.6-28.3a322 322 0 0 1 17.6-62.6c.5-1 .8-2.4 2-2.4l15.4-1.6c3.3 4.2 6 8.7 9.6 12.7 1.2 1.5 3 1.5 5 2l9-6 12 3.8a43 43 0 0 0 8.4-25.6c7.5-.2 16-1.7 21.8-6.7 3-3 .7-9.2 2-13 1-2 2.8-1.8 4.7-2.2l19.7-3c4.5 6.7 10.7 11.4 17.6 15.4l4.5-.7 6.6-9.6c5.4-.3 10 1.2 14.6-2 .8-7.3.7-14 0-21.4 10.6-5 21.8-9 33-12 8 .8 15.6 4 24 3.7 5.6 0 12.5-1.8 15.4-7C337 52.2 334 43 328 38c-3.6-3-8.8-2.2-12.8-.5-8 3.5-13.2 9.5-19 15.8-1.7 1.8-3.6 4.2-6 5l-11.5 4-5.3-9.2 5.2-11.2c-1-1.5-1.8-3-3-4a39 39 0 0 0-21.1-9 44 44 0 0 0 0-12.2z" class="C"/><path d="M268.8 16.2l18.6.1c-3 1.6-6 3.2-9.4 3.7-3.3.6-6.5.2-9.8-.1l.6-3.7z" class="E"/><path d="M226.7 22.2c2-.4 4 1 4.4 2.8-1 4.3-3 8.5-4.6 12.6 2.7 1 5.2 1.6 7.4 3.5 3 2.3 4.7 5.5 6.2 8.8l11-.1c.8 2 2.8 4-.1 5.5-3.6 1-7.6.4-11.3.5-1.7 3.6-3.6 6.4-6.6 9l6 15.6c-2 1-3.4 1.5-5.6 1.6l-5.3-15c-2.7-.1-5.8 0-8.3-1-2.2-.8-4-2.5-5.7-4-3.5 3.3-6.6 7.4-10.5 10-3.3.8-4.5-3.5-2.5-5.6 3-3.5 6.8-6.3 10-9.6-.6-4-.6-7.3 1-11.2a62 62 0 0 1-14.5-5.8c-1.7-.7-1.7-3-2.3-4.4l5-.8c4.5 2.5 9.3 4 14 6l-.6 3 5.5-4.7c1.5-6 4.6-11.4 7-17z"/><path d="M325 43c2.6 3 4 7.2 4.2 11 .2 3.6-3.7 5.6-6.7 6.3a54 54 0 0 1-23.6-2.5c4.6-5 9.6-10.8 15.6-14.4 3-1.8 7.6-3 10.5-.6z" class="B"/><path d="M157 43.3c1.8 3 3 6.5 5.5 9.2 3.5.6 7.2.2 10.7.3l-.5 21.3 2.4 1c.6 1.5.3 4.2 2.2 4.5 3.3 1.4 7 2.2 10.2 4 1.2 2 1.6 4.3 2.3 6.4-1.5 2-3.4 3.8-4.3 6-1 3.2.1 7 .2 10.2-3.3 1.7-6.7 3.2-10.3 4-3.4.7-6.8.3-10.2.7-1 .2-2.5 1-2.6 2.2-.4 3.6-.2 7.3-.8 11-.6 4-2 7.3-3.7 10.8l-9-3-9.4 6c-3-4.4-5.8-9-9-13.3-1-1-2-2.7-3.6-2.3-2.5.6-4.6 2.2-7 3-4 1.4-8 1-12 1-.3-3.2-.3-6.4-1-9.5-.6-2-2.8-3.2-4.2-4.4 3-3 7.8-5.8 8.8-10-1-2.7-3-4.8-5-7l2.7-4.6c-4-6.6-6.2-13.4-7.3-21 3-1.5 6.2-2.7 9-4.6 3-2.3 2.8-7.4 3.6-10.8a52 52 0 0 1 19.1 3.2c2.4 1.2 4.5 1 7 .6 4.8-5.6 10-10.7 16.2-14.8z" class="D"/><path d="M223.2 44.2c2.8.1 6 .6 8.3 2.3 2 1.4.7 4.2 1 6.3l2 2.5c-1.5 2-2.7 4.2-5.3 5-2.7.8-5.8 0-8.5-.1-1.6-2.8-4.5-5.7-3.5-9.2.7-3.2 2.3-6.5 6-6.8zM27.6 53a35 35 0 0 1 9.5 3c4 1.8 6.6 4.7 10 7.3 6.6-4.8 13.3-8.7 21.3-10.6 2.3 3 4.3 6.6 7.2 8.8 3 1.3 6.7.7 10 .8 1 7-.1 13.7-.7 20.7-.3 3 .3 5.6 2.8 7.5l15.4 12c-2.5 2.4-6 4.6-7.6 7.8-.6 3 .6 6.7 1 9.8L75 122.7c-2 8-6.2 14.5-10 21.6-3.3-2-7-5.2-10.8-5.7-3 .1-6.2 1.3-9 2a29 29 0 0 1-6.5-18.7c-1.5-1-2.7-2.2-4.6-2.5-4.7-.7-9.6-.7-14.4-1.2L20 86l-.2-19.7c1.6-1 3.6-1.6 4.6-3.4 1.6-3 2-6.7 3.5-10z" class="B"/><path d="M152.4 61.4c2 .2 4-.1 4 2.7-.5 4.6-2.5 9-3.6 13.6l-1.5.8 4.3 5.7c4.6 1.3 9.2 2.3 13.7 3.8 1.8.5 2.6 1.8 3.7 3-1.4 1-2.8 1.8-4 2.8l-12-2.6c-.5 2.4-1 5-2.2 7.2-2 2.8-4.7 4.2-7.6 5.8-.3 4.7 1 9.3.6 14-1.8.5-4 1.8-5-.6-1-4.2-1.3-8.6-1.7-12.8-3-1-5.7-2.4-8.5-3.7l-12.6 7c-1 .4-3 2-4 1-1.7-.6-2.6-3.7-.7-4.6 4.4-3 9.2-5.5 13.8-8.4l-1.3-7c0-2.5 1.3-4.7 2.4-7-3.4-3.3-9.2-6-10.7-10.6l5.3-1.8 9.5 8.3c4.2-1.7 8-3 12.5-1.5L150 65c.5-1.5.8-3 2.3-3.6zm-84.7 8.4l4.5 2.5c-2 5.2-5.2 9.7-7.8 14.6a30 30 0 0 1 2.1 11.4c6 .5 12.4.3 18 2 .8 1.8-.4 5-2.6 5a84 84 0 0 1-14-1.5c-1.2-.1-2-1.7-2.7-2.5l-3.7 5.2A104 104 0 0 1 61 122c.1 2.8-3.8 4.2-5.5 2-.4-5.3.3-10.7.5-16-3 .4-6 1-9 .7-3.4-.8-5.5-4-7.5-6.5-4 .4-7.4 2.6-11.2 3.4-1.4-1-2-3-2.6-4.4a30 30 0 0 1 11.6-4.7 45 45 0 0 1 2.9-10.4L33 76c-1-1.5-1-3-1.4-4.8L37 71l8.8 11.8c5-.4 9.6-1.2 14.5.5L67.8 70z"/><path d="M144 82.8c3.4.5 5 3 7.4 5.2-.2 4-1.8 7-4.8 9.5-2.4 1-5.7.3-8.2-.1-3.5-.6-4-4.7-4.7-7.5-.4-3.4 2.8-5.5 5.3-7 1.6-1.2 3.3-.3 5-.1z" class="D"/><path d="M47.3 88.3c2.2-.8 4.6-1 7-1C57.6 88.8 61 91 61 95c.4 3-2.4 5.4-4 7.6l-7.4 1.4-3.6-3V98l-2.5-2c.8-3 1-6.2 4-7.8z" class="B"/><path d="M28.3 127.5H31l1.3 3.5c-1.4-1-2.8-2.3-4-3.5z" class="C"/><path d="M306.4 126.7c2.8 1.4 5.4 3 7.6 5.2 3.5 3.5 5 8 9 11 4.6-1.6 8.5-4.5 13-6 3-1 6.4-1.7 9.6-2.4l3.3 11c2.8 1 5.6 2 8.4 3-2.2 5.7-4.6 11.3-6.7 17 4.7 5 10 9.2 14 15l-7.8 7.3c-.6 3.8.3 8 .4 11.8l-21.4-.7c-3.8 1.8-7.5 1.2-11.5 1.4l-9-13.6 6.8-1.7c2.7-1.2 4.5-3.4 6.4-5.5 5.2 3 10.4 6.5 16 8.4.6-2.5 2-5-.4-6.8-4.5-2.8-9.4-5-14-7.5a38 38 0 0 0-1.6-9.2l9.3-6.5c.8-.6 1.3-1.4 1.4-2.2-.4-2.6-2.6-2.2-4.6-3l-9.8 7.3c-5.6-2.5-11-2.4-16.8-.7-1.4-4.3-2.5-8.7-4.2-13-2.8-2-5.8.3-5.2 3.4 1.3 4.5 3.4 8.8 5 13.2l-2.2 6.6L287 174c-2.6 1-2.5 4.8.1 6 5-.7 10-3 14.8-4.3 1 3.6 2.2 5.4 5 8l-7.2 5.3c-3.8-1.3-7.6-3.5-11.6-4-1.8.7-2.7 3.6-3.8 5a82 82 0 0 1-15.3-5.6l4.5-9.5c-2-3-4-6-6-8.8 6.3-4 14-6.5 19-11.7-.3-4.6-1-9.5-.5-14l1-9.4 9.7 2.3c3.4-2 6.3-4.4 9.4-6.6z" class="D"/><path d="M95.8 128l5.7-.6a38 38 0 0 1-1.5 7.6l-4.2-7zm-4.8.3l7 11.5-7 21.3a71 71 0 0 1-9.9-14l-4 1.8c3.2 6.5 8 11.4 12 17.3-.8 7-3.3 13.8-4.4 20.7l-14.3-17.3L68 172a28 28 0 0 0 3.7 5.3l12 16c-.2 2.5-.8 5.4 0 7.8 1.4 2.7 3.8 5 5.8 7.3 9.6 10.8 19 22.4 24 36.2 6.7 18 11.6 36.7 17 55 .6 2 2.3 5 4.7 4 2.4-2 3.7-5.2 5.3-7.8l34.2-58c1.3.8 2.6 1.5 3.7 2.4 1.2 3.2 1.3 6.7 2.6 10 1 1.7 2.6 3 4 4.5l-1 1-7.8-10.3-5 .8 11.2 14.5c-1.7 6-5.6 10.5-9.2 15.5-3-3.5-5.7-7.4-9-10.8-1-1.2-3.3-1.2-4 .5.8 2 2.4 4 3.8 5.8l10.3 13-7 23.8c-2.7-3.6-5.8-7-8.3-11-2.2-3.3-3-7.4-5.5-10.5-1.5-1.6-4.8-.1-3.7 2.3a100 100 0 0 0 16 24.7l-6 25.6a129 129 0 0 1-14.5-23.6l-4.5-9.5c-1.7-1.4-4.4.5-3.4 2.5 5.8 13 11.4 25.3 21.5 35.7-1 7.7-3 16-2.3 23.6 1 11.6 2 23 4.5 34.4l-3-1.3c-4 .8-7.2 4.8-11 6-4.5.2-9.4-1.6-13.8-1-3.4 1.7-3 5.3-3.6 8.5l-17.4-2.6c4.5-3.4 9.6-7 13-11.4 1.4-3.4-3-7.2-4.8-9.6h29.3l2-2.2-2.2-3h-31.8c.6-3.6 3.4-9.4.2-12.3-6-4-15-4.3-21.8-4.5l-.5-3 51-3.6 1.8-3.4H142l-46.8 3.4c-.8-4-1.5-7.8-3.6-11.4-.8-1.6-2.8-1.7-4.3-2.4-1-21.6-3.4-43-6-64.5L79 271c-1.2-5-4.7-9.3-7.2-13.6L19.5 172c1.7-1.3 3.3-2.3 4.2-4.3l9.7-20.2-2.6 1-2-2-9 18.8v-35.6a368 368 0 0 1 38.4 37.7c1.2 1 2.4 2.8 4 2.7 2.7-.5 4-2.8 5-5a218 218 0 0 1 18.1-33.9c1.4-2.4 3.5-2 6-2.6z" class="E"/><path d="M127 137.6c7.7 5.2 14.2 11.4 16.8 20.6 2.7 10.3-.7 21-7.2 29.2l-3.7.8a31 31 0 0 1-18.1-24.2 41 41 0 0 1 7.1-24.3c.8-1.8 3.5-1.6 5-2.2z"/><path d="M125.6 145.2c5.2 3.4 10.8 8.5 12.6 14.6 2 7.8-.7 15-5.2 21.2a31 31 0 0 1-11.7-15.1c-2-7.5.5-14.4 4.3-20.7z" class="E"/><path d="M49.4 147.5l4.5-1 11 6c-1.3 2.3-2.4 4.7-3.6 7l-11.8-12.2z" class="C"/><path d="M223.6 162c2.3 2.8 4 6.4 7 8.7 3 1.5 6.7 1.6 10 2.3 1 4.4 2.8 8 1.4 12.7-.5 3-2.6 8.2 0 10.7 3.3 1.6 7.3 1.7 10.6 3.3 3.5 1.6 6.7 4 10 6.3-1.5 3-3.8 6-4.4 9.2.1 2.2 1.2 4.4 2 6.4-2.6 2-4.3 3.6-5.6 6.6l-9.6 2.7c-2 1.5-1.2 4.2-1.2 6.2.5 5.3.4 10.3-.2 15.6-3.5-.5-7.5-1.7-11-1.2-3 2.6-5.4 6.2-8 9.3-3-2.5-6.3-5-9-8-2.2-2.7-3.5-6-5.7-8.6-7.6-.1-15.2 2-22.8 2.8-1.2-4-1.8-9-4.4-12.3-2.3-2-6-2.7-8.7-3.8 2.2-7.4 5.4-14 9.3-20.5 1.7-2.7-.2-4.6-1.3-7l-8.8-15.7c3-1 6.3-1.7 9-3.3 3-2.4 2.7-8 3.4-11.2 6.2 1.6 12.3 3.8 18.5 5.3 2.6 1 4-2 5.7-3.4 4-4.8 8.8-9 14-12.8z" class="B"/><path d="M49.8 161.8c-.4 2.4-.8 4.6-2.4 6.6L37 184l-3.5.7c.2-1.7-.2-3.7 1-5 2.3-3.4 5-6.4 7.3-9.8 2.5-3.4 3.3-7 8-7.8z"/><path d="M314.4 163.5c6-1.6 12.4 5.6 9.3 11.3-1 3.5-3.8 6.3-7.6 6-3-1-6.4-1.8-7.7-5.2-2-5 .7-10.7 6-12z" class="D"/><path d="M63.4 181c1.6.1 2.3.4 3.3 1.7-2.4 8-7.4 13.3-12 20-2.7 3.7-4 7.4-9 8.6.1-2-.2-3.8 1-5.6 3.5-5 7.5-9.8 11-15 2.2-3 3.4-6.7 5.5-9.8zm157.6.8c1.6.4 3 1.2 4.4 2l-6.2 13.6c3.5 1.5 7 3 9.6 6 1.8 2 2.4 4.5 3.2 7l11.5 1.4c1.3 2-.7 4-1.4 6l-10.7-.8c-1.5 4-3.2 5.8-6.6 8.2 1.2 5.5 2.4 11 4 16.4-1.8.5-4.8 2.3-5.7-.5-1.8-4.6-2.6-9.5-4-14.2-2.5-.2-5.3-.2-7.7-1-2.3-1-4.3-3.2-6.2-5l-9.4 7.8-5.4-.2c.7-1.6 1.2-3 2.5-4.3l10-8.8a21 21 0 0 1 2-10.8c-6-2.4-12-3.8-16-9.3 1.6-1.6 2-3.7 4.7-2.6 4.6 2 8.6 5.3 13.3 7.4l.3 2 5.4-3.2a123 123 0 0 1 8.5-16.8z"/><path d="M19.4 185.6l46.5 76.6c2.2 3.7 5 7.5 6.3 11.6 1.3 4.3 2 8.8 2.7 13.2 2.7 18.4 3.8 36.5 5.2 55l.5 11.4c-5 .3-9-5-13.5-6.8-1 .4-2 1-2.8 1.7a50 50 0 0 0-13.4 19.3c-8-1-15.5-3-23.6-1.4-2.5 3.6-3 7.5-4 11.7l-3.7 2.4V185.6z" class="C"/><path d="M309.2 191l8.2 12.4c1 1.5 2 3.3 3.6 4.4 2.3.2 4.6-.1 7-.3l17.8-1c.1 4.3-.4 9 .4 13 1.7 2.5 4.2 4.5 6.3 6.6-2.4 4.4-4.6 8.5-8.7 11.5-2 1.6-4.8 3-6 5.3-.3 3.2 2.7 6.2 4 9 2.2 4.4 3.5 9.2 5.3 13.7-3 1.2-6.8 2-9.3 4.2-1.8 2.7-2.2 6.6-3 9.8-5.8-2-11.8-5.7-18-6.2-2.4 2.4-4 5.8-6 8.4-2.3 3-5 5-8 7.4-2.5-2.6-5.3-7.3-9-7.8-3.3 0-6.7 1.2-10 2L282 274c-.8-4 .7-8.6 1.3-12.8-3-1.7-6-3-9-4.5-4.3-2.2-7.7-5.3-11.2-8.5 1.8-3.2 4.5-6.5 5.2-10 0-3.6-3-7.2-4.4-10.4a74 74 0 0 1 15.9-8c2-.8 4.5-1.4 6-3 1.8-1.8 1.5-4.2 2-6.7.5-5.7 2-11 3.3-16.7 3 1.2 6 3.2 9 3.5 3.4-.4 6.5-3.7 9.3-5.7z" class="B"/><path d="M74.2 202.8c1.3 1 2.3 2 3.4 3.2-4.4 7-10 13.3-15.2 19.7l-4-1.5c2.7-4.2 6-8 9.2-11.8 2.5-3 4.3-6.6 6.8-9.6z"/><path d="M219 203.5c3 .6 4.3 3.4 6 5.8l-1 3 1 2.6-.7 2.7c-1.8 1.2-3.7 2.5-5.7 3.3-5-.2-7.3-3.3-10-7 .7-3.3 1.2-6.8 4-9 1.8-1.2 4.3-1.5 6.4-1.2z" class="B"/><path d="M298 209.8c1.6-.2 3-.2 4.7 0l6.5 15-1 2 5.4 1A76 76 0 0 1 326 222c1.5-.5 3.2-1.2 4.7-1 1 1.2 1.7 2.6 2.5 4l-13.5 6.2c1.5 2.5 3 4.7 3.4 7.7.6 3.7-.5 6.7-1.7 10.2 2.4 3 6.2 6 7.7 9.7-1 1.3-2 2.3-3.2 3.5-3-2.6-5.6-5.5-8-8.6-4 1.6-6.7 1.8-11 1.3l-5.8 12.2c-.8 1.4-1.4 3-3.2 3.3-1.2-.4-3.6-1-3.7-2.4 1.4-5 4.4-9.5 6.5-14-2-2-4.2-4-5.3-6.5-1-2.2-1-5-1-7.4-4.7-.1-9.6.4-14.3-.3-2-.8-2.3-4 .1-4.5 5-.7 10.3-.2 15.4-.3 3-4.6 5.6-6 11-7.6l-3.8-1c-1.6-5.5-4-11-4.7-16.5z"/><path d="M139 212.8c7-1.6 15 1.3 19.7 6.7 2.3 2.6 3.6 5.5 5.2 8.5-6 3-13 4.7-19.7 3.2-7-2.4-11.3-8.4-15-14.4 3.2-1.6 6.3-3.2 10-4z" class="E"/><path d="M94 220.4l2 .8c.8 3.2-1.4 4.4-3.2 6.4L75 244.4l-2.8-2.6c4.8-5.4 10-10.3 15.2-15.5 2-2 4.2-4.4 6.6-6z"/><path d="M306.2 233.2a10 10 0 0 1 9.9 4.7c1.6 2 .8 4 .7 6.3-2.3 1.8-4 4-6 6.2l-7-1.5c-1.2-2-2.6-3.8-3.4-6-.7-4 1.5-8.6 5.5-9.8z" class="B"/><path d="M251.5 237.3c2.6.8 5 2 7.5 3-1.3 2.2-3 4.4-4 6.8-.5 2.6 1.3 4.5 2.6 6.5-1.3 2.7-3 5.4-4 8.3 2.5 3.4 6.2 5 9.3 8.2l9 9c-2.3 2.2-5.7 4.2-7 7-.5 3.4.3 7 .5 10.5-5.4.6-11 1-16.3 1.7-2.4.1-2.5 3-3 4.8-.8 5.7-2.7 11-5 16.2-3.5-1.2-7.6-4-11.4-3.7-3.2 1.6-6.2 4-9.2 6-2-2.4-4-4.6-5.5-7.4-2-3.8-2.2-7.8-3.7-12.2l-23.7-3.8c.2-3.6 1-7.4.4-11-1.3-3.3-5.8-5.2-8.5-7.4L195 262c.2-1 .4-1.7.6-2.6-.6-2-1.2-4.2-1.7-6.3l11.6-1c3 3.3 5.8 7 8.8 10-2.5 3.4-3.5 6.8-4.5 11-3.6 2.4-8.5 3.3-12 6-1.8 1.4-.1 3.3.8 4.7 4.6-.4 9-3.4 13.3-5 3.2 4.2 6.4 7.5 12.2 6.7l.1 16.5c.3 3.4 6 3.8 6.3.2.1-5.7-.4-11.5-.6-17.3a21 21 0 0 0 7.4-4.9l11.7 4.3 3.7-3.2c-3-4-9.2-4.3-13.5-7-.1-2.2-.1-4.6-.8-6.7-1-3-3-5.2-5-7.6 3-2 7 .3 10.3.7 2.6 1 4.4-.8 5.4-3 2.6-6 1.8-13.6 2-20z" class="D"/><path d="M112 251c.1 2.7-2.6 4-4.5 5.5-7.2 4.7-15.2 8.5-23.6 10.5l-.1-3.2c6.5-3.7 14-5 20-10 2.7-1.7 4.6-5.2 8-2.8z"/><path d="M262.7 257.8a79 79 0 0 0 12.9 7.3l-1 4.8a64 64 0 0 0-12.8-10.1l1-2z" class="C"/><path d="M231 264.7c1.3 2.7 2.4 5.3 2 8.3-.3 2.6-2 4.6-3.2 6.7-1.6 0-3.2 0-4.8 0-2.8.3-5-2.2-7.3-3.6-.3-2-1-4-.7-6 .6-1.4 1.4-2.7 2.2-4 2 1 5.2 3.7 7.7 3 1.5-1.3 2.7-2.8 4-4.2z" class="D"/><path d="M118 286.5c1 1 1.2 2.2 1 3.5-4.2 1.5-9 1.7-13.3 2.5l-17.4 2c-.3-1.4-.6-2.7-.6-4.2 5-1 10.2-.8 15.2-1.8 5-.7 10-2.3 15-2z"/><path d="M338.4 290.6c7-.2 14.2-.3 20 4 6 5 8.4 12 9.5 19.5-3.6.3-7.4.8-11-.1-4.5-1-8.5-4.2-11.7-7.4-4.3-4.5-5.5-10.2-7-16z" class="E"/><path d="M47.8 295.6l12.5 9c5 4.5 6.8 10.8 7.2 17.3.2 8-2.7 14.5-6.3 21.3l-3.7 1.6a38 38 0 0 1-17.9-16.6c-2.5-5-2.6-10.5-2-16 .6-5.2 3.5-10.2 6-14.6.6-1.4 2.7-1.4 4-2z"/><path d="M48 302.3c5 3 10.3 7.5 12.7 13 2.8 8.3.2 15.4-3 23-5.8-4.4-12.8-9.5-14-17.2-1.5-6.8.3-13.3 4.4-18.8z" class="E"/><path d="M127.4 312.5c.5 1 1 1.8 1.5 2.6-2.3 2.8-7.6 2.4-11 3-9 1.5-17.5 2-26.7 1.6v-3.4c12.2-.4 24-2.2 36-4z"/><path d="M283.7 316.2c5.7 4.8 12.7 10.6 15.8 17.5 1 3 2 6.6-1 8.7-4 3.4-9.6 2-14.4 2.3-1.4-3-2.8-5.5-3-8.7-1-6.4 1.4-13.5 2.7-19.8z" class="B"/><path d="M141.3 336c.1 1.5-.2 3-.5 4.3l-36.2 2.8c-4 .3-8.2 1-12.2.4-.3-1-.4-2.3-.1-3.5 3.2-.8 6.6-1 9.8-1.2l39.3-3z"/><path d="M67 356c3.2 1.6 6.5 4.5 10 5 3.3 0 6.5-1.3 9.7-2l3 15.5c.7 2.2 2 3 4.2 3.4l17.7 2.3c-.7 3.5-2.6 7.6-2 11 1.6 3.3 5.3 5.8 7.8 8.6-3 3.2-6.2 6.6-10 8.8-2.4 1.4-5.3 2-7.5 3.7-1.3 2.5-.4 6-.3 9 .6 5-.5 9.6-1.2 14.6-4 .6-10-.3-13 3-1.6 2.3-2.7 5-4 7.3-6-2.4-12-5.2-16.7-9.7-1.3-1-3-3.2-4.8-3-7 3-14.2 6.4-21.6 8.4-.8-2.8-1.4-5.7-2.5-8.4-1.5-4-7.3-4.2-10.7-5.7a71 71 0 0 1 8.5-17.6c-1-2-2-3.7-3.3-5.3-4.3-5-7.6-10.3-11-16 3.2-2.3 7.5-4 10-7.3 1.2-2.8 1.7-6 2.4-8.8 3.4-.3 6.7-.6 10-.1 4.4.5 8 2.5 12.5 3.5 1.5-2.2 2.6-4.4 3.6-7a38 38 0 0 1 9-13.2z" class="D"/><path d="M235.2 366.8c3 1.6 5.7 4 8.8 5 3.7.6 7.8-2.3 11-3.6l6.5 14.3c1 3 1.7 6.2 3 9 1.7 1 4 1.5 6 2 5.6 1.4 11.2 3 16.7 4.6l-4.5 9.6 6 8.7L276 424c-2.2 1-4.2 2.2-6.2 3.7 1.8 8 1.3 16-.1 24-4-.2-8-1-11.8-.6-2.8 1-5 4-7.3 6a25 25 0 0 1-11.8-9.7c-1.7-2.2-3.4-6.3-6.7-5.8-2.5.8-4.6 2.6-7 3.7-4.4 2.4-9 3-14 3.7-1-3.2-1.4-7.6-3.7-10.2-2.4-2-5.8-2.7-8.6-3.8l5.5-11.5c.7-1.7 1.5-3.3.8-5-1-2.4-3.6-4-5.5-5.7-3.3-2.5-6-5.6-8.3-9 2.8-2.7 6.8-5.2 8.5-8.7.5-3.6-.6-7.6-1-11 7.5.4 14.8.3 22 1.3 4-6.8 8-13.3 14.4-18z" class="B"/><path d="M76.3 376c1 4.2-1.2 9.2-2.6 13a26 26 0 0 1 6.7 6.8L98 393c1 1 2.8 4.8 0 5l-16.3 3-.5 6.6c-.7 2.8-2.8 5-4.7 7 2.3 4 4.5 8 7 11.8-1.5 1.5-2 3.5-4.6 2.7-3-3.7-5.2-8-8-11.8-4.8.6-8.3-.4-12.5-2.6L50.2 426l-4.6-.8-.3-2.2c3.2-4.3 6-9 9-13.3l-1.3-6c-4.7-3.5-11.4-6-14.7-10.8 1.7-1.2 3.2-4 5.6-3 3.4 2 6.5 4.6 9.7 7 2-2.7 3.7-5.2 6.6-6.8 2.2-1.3 4.8-1.5 7.3-2 1-4.3 1.7-8.7 3-13 1.2-1.6 5.3-2 5.8.7zm165.7 6.6c1.5.1 4.2-.1 5 1.5.2 5.3-1 10.5-1 15.8a26 26 0 0 1 6.6 8.7l16.8-5.2c2 1.2 2.8 3 1.3 5-2.8 1.4-6 2-9 3-3.2 1-5.7 2.4-9 .5l-.8 6.3c2.6 5.6 4.2 11.3 6 17.2-1.8.6-3.7 3-5.4 1-2.3-4-3.3-9-4.8-13.3-3 2-5.8 3.8-9.7 3.5-3.5.1-6.3-1.3-9.2-3l-6.6 6.6-4.7-.1c.2-1.4-.2-3 .8-4 2-2.3 4.6-4.3 7-6.5-.8-3.8-1.2-7.6-1-11.5-4.6-2.7-9.6-4.8-14-7.8-.3-1.8 0-3 1.2-4.4 5.3.7 10 4.8 15 7 2-1.5 4-3.6 6.3-4.4 2.3-.7 4.8-.7 7.2-1 .6-5 .5-10.3 2-15.2z"/><path d="M304.2 383c6.4 3 12.5 9.3 19.6 10.2 6-4.8 13-7.2 20-10.4l4 9.6c3 2.3 6.8 3.5 10 5-.3 4-.5 7.7-1.7 11.5-1 3.5-3 6.7-4.6 10.2 3.2 3 7 5.4 10.2 8.3l8.5 7.4c-2.3 2.4-5 4.6-7 7.3-.8 3.4.2 7.5.4 11-5.5.7-11.2.8-16.6 1.8-2.3.4-2.3 3.4-2.8 5-1 5.4-2.6 10.3-5.2 15l-8.5-3.5c-3.2.1-5 2-7.6 3.5l-6-7.3c1-3.5 2.5-7 3-10.8-1-1.6-2-3-3.6-4a42 42 0 0 0-19-4.3l-3.2-13.2c-.8-2.3-2.2-5-4.5-6-3 .4-6 1.5-9.2 2.3a24 24 0 0 1 7-5.7c4-2.5 8.4-3.6 11-8-1.8-4-4.8-7.2-6.5-11.2 1-3.4 3-6.5 4-9.8l-1-3.5c2-.6 4.7-1.2 6-3 1.5-2.4 2.4-5.2 3.7-7.6zM68 394c2 .2 5 2 6.2 3.7.8 2 1.2 4 1.7 6-1.5 2.4-2.4 6-5.3 7-2 1-3.4 1.3-5.5.5-5-1.2-7.6-8-5.2-12.2 1.8-2.5 5-5 8-5z" class="D"/><path d="M19.3 402l6 7.2-6 14.8a504 504 0 0 0 0-22z" class="C"/><path d="M243.4 405.6c1.3 1.6 2.7 3.4 3.4 5.3-.2 2-1 4.2-2 6-1.3 1.7-3.3 3-5 4.2l-4.4-1.2c-1.4-2.7-2.8-3.2-5.6-4.2-.4-4.2 1-8.8 4.8-11.2 2.7-1.8 6.8-1.5 9 1z" class="B"/><path d="M338.4 402.4c.1 1.6 1 3.5-.1 4.8l-8.3 8.4a20 20 0 0 1 7.6 15.5c3.4 1.7 7 2.8 10.5 4 1.8.4 1.4 1.7 2 3l-3.2 2.6-12.3-5c-2 2.3-4.3 4.6-6.8 6.7.1 5.2.6 10.5.5 15.7.8 3.4-6.2 3-5.7-.1l-.1-14.8c-5.7-1-8.8-3.2-12.6-7.5-4 1.4-7.8 3.5-12 4.5-2.6.3-4-1.5-3-4 4-2.8 9-4.2 13.3-6.4.7-4.5 1-8.6 4.3-12l-10-9.8c-1-2.4.8-3 2.3-4.4l13.5 12 4.8-.7c2.6-4 6.5-7 10-10 1.6-1.6 3.6-1.7 5.6-2.3z"/><path d="M158 410.7c2.5 1.2 5 2.6 6.8 4.6 3.6 3.4 5.5 8 9 11.6l10.7-5.3 11.8-3.5c.2 1.2.6 2 0 3.2-2 4.8-4.8 9.3-5.5 14.8-.2 1.7.2 3.5 1.8 4.4 3.3 1.7 7 2.7 10.3 4.3l-1.3 4.3c1.5 2.3 3 4.7 4.8 6.7 2.7 1.4 5 2.6 7 5-1.4 1.3-2.7 2.7-4 4.2l2 3.7c-1.4 1.5-3.6 3.3-3.8 5.4-.1 3.3.4 6.7.6 10l-17.2-1.3c-2 0-4-.6-5.6 1-2 2-3.2 4.8-5 7-2.8 3.5-6 6.8-8.8 10.3-3.8-2.2-7.3-4.6-11.5-6l-9 3.8c-3.4-7-6.2-14-7.4-21.5-1.8-1.3-3.4-2.7-5.7-3l-18.4-5.4 4.6-9.8-6-9.3a54 54 0 0 1 13.8-7.2c2.2-.6 3.4-2 4.8-3.8A90 90 0 0 1 138 415c4 .2 8.4 1 12.5.5 2.6-1.3 5-3.3 7.4-5z" class="D"/><path d="M106.5 416c7.6 1.2 15.3 2.3 23 3.6l-.2 15.3-11 6.3c-3.6 2.6-8.4-.3-12.3-1l.8-24z" class="E"/><path d="M328.5 421.5c2.4 1.8 2.6 4.7 2.6 7.5-.3 3-2 5-4 7.3-2.6-.1-5.4.1-8-.3-1.5-.8-2.7-2-4-3l.1-2.5c-.5-1-1-2.2-1.2-3.3 1-2.3 3-4.3 4.8-6.2 3-.4 7.3-1.6 9.6.6z" class="D"/><path d="M154 429c3.6 3.3 3.8 9.4 5.2 14 5.7-2 11.4-2.2 16.8 1 3.3-2.5 6.5-5 9.7-7.7l4.6 2.8c-.1 1.5-1 2.3-2.2 3.2l-8.3 6c1.5 3.5 2 6.2 2 10l15.4 8.8c-.2 2.5-2.5 2.6-4.3 3.7l-13.5-7.5-5.5 4.7c-2 1.4-4.8 1.7-7 2.2-.4 4.7-.7 9.2-1.7 13.8l-5.3.4c0-5.2 1-10.3 1-15.5-3.2-3-6.4-5-8-9.3-4.2 1.7-9.3 4-14 3.6-2.6-.2-3-3.2-1.8-5l15.5-5 2.3-5.3c-1.4-5-3.3-10-4.6-15-1-2.2 2.5-2.8 3.7-3.8z"/><path d="M19.4 433l10.3 3.2c1 4.3 1.3 9.2 3.3 13.2 9.3.2 18-4 26-8l5.7 4L49.5 462c-6.2-2.8-11.6-6-18.5-7.2-1.4-.1-3.3 0-4 1.5-1.5 3.5-2.2 7.3-3.3 11l-4.4 1v-35z" class="C"/><path d="M286.6 437.8l3.2 15.8c.5 1.5.7 2 2.3 2.2 6.4 1.2 13 2 19.4 3.2l-2.3 12.4 7.5 7.4c-2.7 3-5.3 6-8.8 8-3 1.6-6.5 2.4-9.7 3.6l.7 10.7c.3 4.5-.7 9-1.3 13.6-4 .4-8.7-.1-12.3 1.6-2.3 2.6-3.6 6.3-5.2 9.4l-17-11.7c-2.4-1.7-5-2.6-7.7-1.4l-18.6 7.3c-.6-3-.7-6.5-2-9.3-2-3-7-4-10.4-5.3 2.2-5.6 4.7-11 7.4-16.4 1.6-2.6-1-5-2.5-7-4.2-4.5-7.5-9.6-10.7-14.8l7.5-4c4.6-2 4.4-8.6 6-12.7 4 4 7 8 12 11 2.7 1.7 6 3.3 9.2 2.8 3-1.3 5.4-3.8 8-5.8l8.6 1-1.4 5.3c-7 1-12 4.8-14.6 11.4-3-2-5.7-4-8.6-5.8-1.4-1-2.7-2-4.5-2-.8 1.2-1.5 2.5-2 4 4.2 4.2 9.8 7.5 15 10.4 1.5 4.3 4.5 7.4 8.4 9.7 2 1 4.7 1 7 1.4 3.2 4.6 5.4 10 9 14 2 .2 3.2-1 4.7-2.2l-8.2-13 6-6.3c1.3-1.8 1.7-4.4 2.2-6.5l14.4-2c3.2-.8 1.3-6.8-1.8-6.2-4.6.3-9 1.5-13.7 2.3-2.2-3.2-4.5-5.7-7.5-8 3-8.5 3.5-17.2 4.7-26l8-2z" class="B"/><path d="M91.4 443.8c6.8-2.4 12.5-.2 18.8 2.3 0 5.6 3.3 9 5.8 13.7a168 168 0 0 0-5.4 11.2c7.4 6 16.8 8 25.8 10.8l3.3 9.3-7.3 18.5c-2.3 5-5.4 9-8.4 13.6l-43.4 64.6c-2 2.6-3.5 5.7-5.8 8-3.2.5-6.6.2-9.8.2-15 0-30 0-44.8 0v-47.6c12 16.7 28 32.5 47 41l4-2.5c-1.8-1.6-3.6-3-5.8-4-10.5-5.3-20-13.5-28-22L21 542.4l23.3 2.3c3 6.6 7.6 12.3 13.3 17 1.7 1.6 3.8 1 6 1.3l4.2-4.8A95 95 0 0 0 85.4 569l.8-3.2c-.5-1.3-2-2-3.2-2.7-4.6-2.6-9-5-12.7-9 4.4.5 9.4 3 13.7 3 3.8-3 4.7-9.5 5.6-14l5.3 3 4.2-2.3c-3-2.2-6-4-9-5.7l.5-4.4c4.8-1.4 9.7-2.5 14.5-3.8 2.2-.5 3.3-2 4.8-3.5l-2-7 10.5 7 2.7-3.2c-4.4-3-9-6-13.4-9 2-2.6 5-5.2 6-8.4.6-2-.3-3.4-1.5-4.7-5.5-5.6-12-10-19.3-13l3-13.8L131 494c2.2 1.4 5.8 1.4 5.6-2-2.5-2.4-6-4-9-5.5l-28-14.8c-1.3-.7-2.7-1.4-3.8-2.3-1.5-1.8-2-4.6-3.6-6.3-3-1.4-6.5-1.8-9.6-2.6L78 453l3.6 1.5 5-2 4.7-8.6z" class="E"/><path d="M167 447.2c5-.6 9.7 5 9 9.8-.8 2.7-2.7 5.4-5.4 6.4-2.5 1.2-5.7-.1-8.3-.4-1.6-2-3.8-4.2-3.7-7-.1-4.5 3.6-9.6 8.5-8.8z" class="D"/><path d="M223.4 454.2l-3.2 3.3-2-2 5.3-1.2z" class="C"/><path d="M72 456.8c2 3 3.4 6.6 6 9.2 2.8 1.8 6.5 2.3 9.7 3.3.4 3.6.8 7 .1 10.7-.5 3.8-2 7.2-3 11 .1 1 .5 1.8 1.2 2.2 2.7 1.7 5.8 2.8 8.4 4.5L105 505c-2 3-4.6 5.8-5.7 9 0 3 1.3 6.2 2 9L85 527c-2.6.4-1.8 3.7-2.2 5.6a57 57 0 0 1-2.8 16L70 547c-3.6 1.6-6.5 5.5-9.6 8-3.4-3.7-7.2-7.2-9.4-11.8-1-2-1.8-4.2-3.2-5.8-2-.8-4.6-.7-6.8-.7H24.5c-.2-3.4-.2-7-1-10.2-.7-2-2.7-3.3-4-4.7V510c-.1-5.3 8.7-9.2 7-14.5-3-6.7-6.4-13-7.3-20.4l8.5-.7c2.3-3.4 3.7-7.2 5-11 6 1.7 12 4 17.3 7.6 2.3-.7 4.3-1.3 6-3a50 50 0 0 1 16.2-11zm193 14.4c2.7.8 4.7 1.4 7.6.6 1.8 2.3 3.8 4 3.8 7.2.3 3.5-2.3 5.7-4.2 8.3l-5 .1c-4 .3-7.6-3.7-8-7.4-.2-4 2.4-7.4 6-9z" class="B"/><path d="M69.7 477c.1 1.4 1 3.5.1 4.8-2 3.4-4.6 6.4-7 9.6 3.4 1.6 6.5 3 8.8 6.2 2 2.6 2.4 5.4 3 8.5 3.6 1 7.4 1.6 11 2.8.8 1.7 1 3.7-.8 5-3.8.2-7.7-1-11.4-1.8-2.3 3.4-4.6 5.6-8 7.8.5 4.7 1.7 9.4 1.6 14-.6 1.8-2.2 5-4.2 2.8-1.5-5-2-10.6-3-16-2-.4-4.5-.7-6.5-1.7-2.4-1.3-4.3-3.8-6-5.8L33.7 521c-1.3-2-3.4-3.3-1.5-5.8 3.7-3.3 8.5-5.3 12.6-8 .2-7.4 5-13.2 11.6-16l7.3-11.4c1.2-2.2 3.8-2 6-2.8z"/><path d="M329.7 479.7c2 .4 4 1.2 6 1.8-3.4 0-6.7.2-10 .5l4-2.2z" class="C"/><path d="M39.4 484.6c3.8 2.4 8 4.7 11.3 7.8 1.2 2.8-3 3-4.8 4a72 72 0 0 1-12.6-10.7c1.7-2.4 3.6-2.5 6.2-1.2zm214.8 3.4c2 .2 3.2 1.5 4.8 2.7-2.6 5.2-6 9.8-10 14l-5.7-2.2L254 488z"/><path d="M328.2 488c4.4-.4 8.4-1 12.8-.1 5.3 1 10 4.5 13.2 8.7 3 4 3.7 8.2 4.8 13-6.7.8-14.2 1.2-20-2.6-5.4-4.5-8.5-12.4-10.8-19z" class="E"/><path d="M61 497.2c3.6.7 5.4 3.7 7.4 6.4l-1.8 2.2c.2 3 .2 5.3-2.3 7.4-4.8 3.6-12.7-.2-13.2-6-1-5.6 4.3-11 10-9.8z" class="B"/><path d="M196 505.5c3 10.2 5.2 20.8.3 30.8-4.5 9-13.3 14-23 15.6l-3-1.4c-5.2-11-4.7-24.5 3.6-33.7 5.4-5.8 14.3-10.4 22.2-11.4z"/><path d="M191.4 512.3c.8 3.8 2 7.8 2.2 11.7 0 5.6-2.5 11.2-6.4 15-3.5 3.5-7.8 5-12.4 6.4-1.2-6.7-3-14 .2-20.6 3.5-6.6 9.8-9.8 16.4-12.6z" class="E"/><path d="M322.4 535c7 1 15.4 1.4 22 4.6 2.8 1.2 4 3.6 5.4 6l-3.4 6.6c-2 2.2-5 3.8-7.4 5.5-7.8-4.3-11.5-12-15.2-19.7l-1.4-3z" class="B"/></svg>