<svg xmlns="http://www.w3.org/2000/svg" viewBox="0 0 400 610" width="533.3" height="813.3" xmlns:v="https://vecta.io/nano"><style><![CDATA[.B{fill:#343333}.C{fill:#d96038}.D{fill:#ffcdde}.E{fill:#fff}.F{fill:#858585}]]></style><path d="M0 0h400v610H0V0z"/><path d="M19.5 15.4l52.5-.1a44 44 0 0 0-2 14.8 32 32 0 0 0 5.7 14.1c4 5.8 10.2 9 17 10.5l-5.5 1c-1.3 1.5-.8 3.8-1 5.6l-2-2.6c-7.7 0-15.2 1-22.5 3.4-4.2-6.5-9-12.3-15.8-16.5-3.5.7-6.8 3-10 4.7l-13-3c-3 1.3-3 4.6-4 7.3.7-13-.1-26.2.4-39.3zm66.5-.2l104 .1a141 141 0 0 1-1 1.6c-3.2 0-6.5-.2-9.7.2-2 .4-2.8 2-2.7 4 .1 8 2.5 16.2 5 23.7C176.8 50.3 171 55 167 61.2l-5-1c-3.7-8.7-5.4-16.8-12-24-4 0-8 3.6-11.8 5.2-4-2.2-7.7-5.7-12.4-5.7-6 5.3-11 11-14.2 18.3H98c1.4-3.5 2.6-7 3-10.8a31 31 0 0 0-4.6-18.9 28 28 0 0 0-10-9z" class="E"/><path d="M198.3 15.2a6 6 0 0 1 3.6.8c5.4 2.8 9.2 6.8 15.4 8 5.3-4 12.2-9 19-9l3 7.3c2.3 2.6 6.5 3.6 9.6 5-.2 8-1.7 13.4-5.7 20.3 2.2 4.6 6.5 5 9.8 8.3l7.7 7.8c-2.3 2.4-6 5-7 8.5.1 3 .8 6 1.3 9l-14.8.8a4 4 0 0 0-3.9 3.3c-.7 3.5-1.2 7-2 10.4H206c-1-3.2-1.7-6.5-2.8-9.8-5.3-1.3-10.7-2-16-3-2-.3-3-1.6-4.5-2.7 1.3-3 2.8-5.7 4-8.6.8-1.7-.2-3.3-.6-5a87 87 0 0 0-11.8-3.9L185 50c1.7-1.5 2.5-3.4 3.5-5.4-2.4-6.8-4.6-13.5-5.3-20.8h9c3-2.3 4.2-5.6 6.3-8.6z" class="D"/><path d="M213.2 15a13 13 0 0 1 4.7 0c-.5 1-1.2 1.5-2 2-1.4.2-2.2-.7-2.7-2zm30.8.3l139-.1V285c-8.2-.6-16 .1-23 5-6.6 4.5-10.4 11.6-11.3 19.5-.2 2-1.5 5.8.7 7 12.3 5 26.5-.1 33.7-11v165.3a31 31 0 0 0-9.1-6.8c-2.4-1.2-5.3-1-8-1.4l-10.2-.7c-2.4 0-5 1.3-7.2 1l-8.2-1c3.5-5.7 4.8-11.8 6.3-18.2 5-.4 10.4-.2 15-1.7 2-.5 3.2-2 4.7-3.3l-2.3-10.4c3-3 6.4-5.8 8.6-9.7-3.8-8.2-10.6-13-17.7-18.2 3-6.8 5.3-13.5 5-21-3-3-6.7-4.5-10.6-6.2L346 366c2.6-1.7 6-3.4 7.8-6 1.3-3.3-1-8-1.6-11.3l5-9.3c1-1.7.3-3.4.2-5.3a61 61 0 0 0-21.9-10.6l-.7-12.4c-.5-3.5-1.8-7-3-10.3-3-.3-5.8.2-8.7.8l5-19.2c.6-3.7 4.7-6 7.2-8.7 5.6-4.8 10-10.5 12.5-17.5 1-3.2 1.5-6.5-.5-9.5-2.8-4.4-8-6-12.8-7-4.6-1-11 .5-13.3 5-3 5.3-2.4 12.8-1.5 18.6.7 5.4 3 10.5 4 15.8l-6.2 22.5c-2.8-3.3-5-6.3-9.4-7.4-6.7 5.2-11.7 12-16 19l-11.3-1.3 4.2-33 6.4-71a998 998 0 0 0 1.4-108c0-3-2-4.3-5-4.2h-46.4l1-7 15.3-2c1.6-.4 3.3 0 4-2 .5-3.8-.3-7.8-.4-11.6 2.8-3 5.7-6 8-9.6-4.3-7.7-9.8-13.4-17.6-17.7 2.8-7.2 4.3-14 4.3-22-2.8-3.5-6.6-4-10.4-6l-1.6-3z" class="E"/><path d="M283.5 16.5c4.7-1 9.8-1.3 14.5-.7 1.5.1 2 2 2 3.2 0 7.5-1.7 15.6-6 21.8-3.8 5.6-9.6 8.2-16 10-4.6 1.5-9.8 1-14.4-.1-.7-3-.5-6.5-.4-9.6.2-5.5 2.4-10.2 5.3-14.7 3-5.2 9.5-8.4 15.2-9.8z"/><path d="M77.2 17.4c6.8 2.6 13.2 6 16.4 13 1.8 6.3.6 13-.4 19.3-3.2-1.6-6.6-3.3-9.4-5.5-3.4-2.6-5.8-6.7-7.2-10.7-1.7-5-.2-11 .6-16zm216.6 3.4c-.5 7.2-1.4 13.8-7 19-5.2 5-11.5 6-18.4 6.5.4-6 .7-12.2 4.8-17.2 5.5-6 12.8-7.8 20.7-8.3z" class="F"/><path d="M340.4 25.5c2.2-.6 5-.4 6.3 1.8 1 2 1 5.3-.3 7-1.6 1.5-4.7 1.5-6.6.8-4.2-1.4-3.4-8.7.7-9.7z" class="B"/><path d="M231.3 32c.2 1.5 1 2.7-.2 4-2.4 3-5.2 5.7-7.8 8.5 4.5 4 7.4 8.7 7 15l11.6 5c.3 1.4.3 2.8-.1 4-1.5.5-2.8.6-4.3.1l-9.6-3.8c-2 2.3-4 4-6.7 5.6-.1 5.2.3 10.4-.2 15.5 0 2-4 3-4.4.7-1-5-.6-10.3-1-15.4-5.2-1-8.2-3.4-11.4-7.4-4 1.6-8.4 4.5-12.8 5-1-1-1.5-2.3-2-3.6 4-2.8 8.8-4.8 13-7.2 0-4.7 1.4-7.4 4-11L196 37.2c.4-1.8.1-3.3 2.2-4 2-1.2 3 1.4 4.2 2.6 2.6 3.6 6 5.7 9.3 8.8l5-.7c2.7-3.3 5.6-6.4 8.6-9.5 1.6-1.8 3.7-1.7 6-2.2z"/><path d="M323.5 34.5c2-.6 5-.5 6 2 .7 2 .8 5.5-1 7-3 1.5-8 .6-8.2-3.4.2-2 1.8-4.2 3.3-5.5zm40.2 1c.1 2.2 1 5.7-.7 7.4-1.7 1.4-4.6 1.3-6.6.6-3.3-1.2-3.6-6-.7-8 2.6-2.5 5-.6 8 0z" class="B"/><path d="M127.5 42.6c3.3 2 6.7 4.8 10.4 5.6 3.2 0 6.4-2.7 9.2-4.2 4 6.5 7 13.2 8.4 20.7 2 1.4 4 2.4 6.5 2.6 5.7.6 11 2.2 16.4 4-1.2 3-3 6.3-3.4 9.7.8 3.3 4 6 6.2 8.5-5.6 3.7-10.8 6.4-17.4 7.7-.1 8.6.5 17.2.4 25.8H152l-5.7 5.7-2.6-1.3c-.7-1.2-1.4-2.5-2.4-3.6-1.4-.6-3-1-4.4-1.3-2-2.3-3.6-5.5-6-7.3-2.6-1.6-4.7.5-7 1.8-3.7 2.7-8 4.2-12.2 5.5l-7.2-9c-2.3-2-5.8-2.7-8.6-4a43 43 0 0 1 4.2-10.5c.6-1.3 2-3 1.4-4.5-.6-3-3.5-4.5-5.7-6.3a47 47 0 0 1-8.2-8.5c2.5-2.4 7-5.2 7.5-9 .1-3.3-.7-6.7-1.2-10a57 57 0 0 1 19-.1c2.6.5 3.5-2.2 4.7-4 2.6-5.2 6.2-9.6 9.8-14z" class="C"/><path d="M212 49.8c2-.3 4.2-.2 6.2-.3 1.7 1.3 3.8 2.5 5 4.2 2.3 3.5.5 8.4-3 10.3-2 .6-4.2.7-6.2 1l-4.6-4c-.5-2-1.2-3.8-1.5-5.8.7-2 2-4.3 4-5.4z" class="D"/><path d="M45.2 53.2c6 4 9.4 9 11.3 15.8 1.2.6 2.4 1.2 3.7 1.6 2.6-.3 5-2 7.7-2.8 4.2-1 8.6-1.4 12.8-2l2 8.3-3.7 4.8c1.8 4 4 7.2 7 10.6-1 2-3.4 5-3 7.5 1.3 3 4.6 5.3 6 8.4-.5 3.5-1.3 6.8-1 10.3l-3.7 2.7-6-1.3c-3.2 3.6-3.5 7.8-4.4 12.3l-11-3.6c-4.7 5.8-9.8 10.8-16 15-3-2.2-5.7-5.5-9.2-6.7-3-.6-6.8 1.5-9.8 2.4-1.4-4.5-3-9-3.5-13.7-.4-2.7-.4-5.6-1-8.3-1-1.5-2.8-2.5-4.2-3.6l-.1-9.7a64 64 0 0 0 13.2-1.4c1.6-.4 3-.7 4.4-2 .2-1 .2-2.2-.1-3.4-2.3-1-4.4-.3-6.8 0L19.4 96l.1-15.4c1.7-1.7 3.3-2.8 3.3-5.4a106 106 0 0 1 3.3-19.8l9 1.8c3.6 1 7-2.5 10.2-4z" class="C"/><path d="M346.5 53.5c2.3-.8 5-.4 6.3 1.7 1.4 2.2 1.4 6-1 7.6a7 7 0 0 1-7.2-.5c-2.4-2.4-1.6-7.7 2-8.8z" class="B"/><path d="M139.5 58.5c1 5.2-.1 11-.1 16.2 2.8 2.4 4.7 4.7 6.4 8 5.5-2.2 11-4 16.6-6L164 81c-1 1.5-2.6 2.3-4.3 2.8-4 1.3-8 2.3-12 3.6l-1.2-2-1 7a753 753 0 0 0 6.4 14.2c-1 1.3-2 2.7-3.2 3.8-1.2-.5-2-1-2.6-2.3-1.7-3.5-2.8-7-4.2-10.7-1.8 1.2-4 2.7-6 3.2-4 0-8-1.3-12-2-3.2 3.2-6 6-10.6 7-.2-1.6-1-3.4.1-4.7 2-2.5 4.5-4.4 7-6.4a25 25 0 0 1-1.2-12.5l-.5 2c-4.3-2.2-9.3-3.7-13.2-6.5-1.7-2.3-.3-4.5 2.5-4.6 4.6 1.4 9 4 13.3 6 1.8-1.6 3.6-3.6 5.8-4.6 2-.8 4.5-1 6.7-1.3.3-4.6 0-9.4 1-14 1.4-1.2 3-1 4.6-.5zm160.3-.5c9.6 2.2 16.3 10 21 18l-1.4 4.3c-5 2.8-9.7 5.2-15.4 6-6.3.8-13-.8-18.4-4a35 35 0 0 1-11.9-14.2c-1-1.4.1-3 1.4-4 7-4.7 16.3-8 24.7-6.2z"/><path d="M364.2 58.3c2-.5 4.7-.5 6 1.5 1.2 2 1.4 4.8.2 6.7-1.8 1.8-5.3 1.5-7.5.7-3.7-1.6-2.3-8 1.4-8.8z" class="B"/><path d="M296.8 63.4c8.3 1.4 13.4 7 18 13.5-6.6 2.8-13 5.2-20.3 3.4-6.7-2-10.7-7-14.3-12.6 5.3-3 10.3-5.5 16.5-4.3z" class="F"/><path d="M41.2 72.7c1.3 4 1.5 8 2 12 3.2-1 6.2-2 9.6-1.5 3.3.4 5.5 2.2 8 4 2.5-1.5 5-3 7.4-4.8l5.3 1C72 88.3 68 89.8 64 92.2c.4 3.5.4 6.7-.1 10.2l12.2 10c-1.2 1.5-2.5 2.5-4 3.5l-11.5-9c-1.8 1.3-3.8 3-6 3.8-2.3.7-5 .5-7.5.5l-2.7 11.7c-2.5.7-4 3-6 0-.2-5 2-10.4 3-15.4-1.4-2-3-3.8-3.5-6-1-4 0-7.6 1-11.5-1.3-6-2.8-12.2-2.6-18.2 2 .1 4.2-1 5 1.4z"/><path d="M130.3 79.3a13 13 0 0 1 7.6.9c3.3 2.4 1.7 8 1.6 11.4-1.6 1-3.2 2.3-5 3-1.6.3-3.2.3-4.8.4l-1.6-4.2-3.5.2c-1.3-4.8.8-10 5.6-11.7z" class="C"/><path d="M363.4 80.4c2-1 5-1 7 .1 1.8 1.5 1.7 5 1 7-1 2.2-4.3 2-6.3 1.8-4-.5-4.8-7-1.5-8.8z" class="B"/><path d="M53.7 89.3c1.2 1 2 2.6 2.7 4l2.8 1.5c-.8 3.8-2 8-5.6 10-4.8 2.7-11.2-2.5-10.7-7.7a8 8 0 0 1 10.8-7.7z" class="C"/><path d="M189.2 92c2.8-.4 6 .1 8.8.2l1 3.5h-15l5.3-3.6zm-95.4 3.2l-.8 3-3-3c2-1 1.8-.8 3.7.1z" class="E"/><path d="M353.4 95.4c2.5-.8 5.8-.5 6.8 2.3.7 2 .8 5-.7 6.7-1.7 1.3-4.4 1.3-6.4.7-4.2-1.3-3.6-8.5.4-9.7zm-42.2 3.8c2-.8 4.6-1 6.5 0 2.3 1.2 2 4.7 1.2 6.7-1 2.6-4.5 2.8-6.8 2-3.4-1-4.5-7-1-8.7zm21.2 3c3.8-1.3 7 2 6.6 5.7.1 4.7-6.4 5.6-9.3 3.3-2.4-2.6-.4-7.8 2.7-9z" class="B"/><path d="M170.8 102.7H286c.2 13 .8 26.2.6 39.3L279 273l-22 125c-11.4 45.4-27 90.7-50.5 131.4l-130-4.2C94.2 496 109 465 120.8 432.8A748 748 0 0 0 156.3 298c10-55.5 15.2-111.6 15-168l-.7-27.3z" fill="red"/><path d="M347.4 115.4c2.3-.4 4.8 0 6 2.3 1 2.5.5 6-2.5 7-2 .5-5 .4-6.4-1.2-2.7-2.5.2-7.2 3-8.2z" class="B"/><path d="M99.5 119.4c4.6 4.8 8.7 10.4 13.6 14.8 2-.1 4-.7 6-1.2 5.4-1.7 11.3-2.3 17-3l1 10.3c1.8 3 5.5 5 8 7.2-1.2 3-2.2 5.8-4 8.5-2.3 3.4-5.5 6.4-8.3 9.5l6 7.6c2.6 3.7 4.6 8 6.8 12-2.5 1.2-5.4 2-7.6 3.8-2 2.8-2 7.4-2.8 10.8-6-1-11.8-2-17.6-3.7-2 2.8-3.2 6-4.6 9-1.5 3.3-3.8 5.6-6.2 8.2-2.8-2-5.6-4.4-8.8-5.4-3.5-.1-7 1.6-10.5 2.5-3-6.4-3.5-12.8-3.2-19.8-3-1.7-6.3-2.8-9.6-4-4-1.5-7.7-3.8-11.4-6 1.2-3.3 3-6.7 3.5-10.2-.5-3.2-3.7-6.2-5.5-8.8 4-3.6 8-7 12.6-9.6 2.8-1.5 5.4-3 7.7-5.4-1.4-7.3.3-14 1.3-21.3a125 125 0 0 0 11.1 1.5l5.7-7.2z" class="C"/><path d="M364.5 122.6c2-.5 4.6-.6 6.2.8 1.5 1.5 1.4 4.4 1 6.3-1 4.3-8 4-9.6.3-1-2.7-.8-6.4 2.5-7.3zm-237.3.4l.7-.4.7.4v.8l-.7.4-.7-.4v-.8zm200.8 2c1.7 2 1.6 6-.2 8-2 2-4.8.5-7 .2-.6-1.8-2-4-2-5.8 1-3.7 6.6-4.6 9-2.3z" class="B"/><path d="M19.2 129.7a40 40 0 0 0 5.3 13.7c3.6 1.4 8.6-1.5 12.2-2.3 4 2.8 7 6 11.7 7.2a53 53 0 0 0 17.5-14.8l7.8 2.5-.1 7.8a81 81 0 0 0-11.1 6.8c-4 3-7.7 5.8-10 10.2 2 3.4 4.3 6.5 6.6 9.6l-3.8 11c3 6.5 12 9.6 18 12.6-3 2.7-6.4 1.8-10.2 2.3-2 .4-4.5-.1-4.5 2.7-.2 8.3 1.6 16.3 4.8 24-6.8 6-11.7 13.4-16 21.3 2 4.4 5.6 6 9 8.7-.2 4-1 8.2-.4 12.2 7.7 4.4 16 6 24.8 6 1.7 7.5 5.6 14 10.6 19.7 1.6-.1 3.2-.1 4.8-.3 3.2-1.4 6-3.6 9-5.4l5.6 2.3c-3 7.7-5.7 15.8-9.2 23.2-7.6 6.2-15 11.2-20 20-2 3.5-3 7.7-1 11.4 2 3.4 5.8 6 9.5 7.3l14.2-.6c1.7-2.3 3.2-4.6 3.8-7.5 2-8.7.3-16.4-.8-25-.7-3.6 1-6.2 2.2-9.5L116 290c1-2.3 3-3.5 4.3-5.7 3-4.7 4-10.7 5-16l16.4-2.8c1.5-.3 2.7-1 3-2.6.1-3.5-.8-7.2-1.2-10.7l8-9c-3.6-8.2-10-14-17.8-18.3a57 57 0 0 0 5-18.5c4-3 3-7 4-11.5 4-2.8 8.6-4 10.7-8.4-2.6-8-6-15.2-12-21a38 38 0 0 0 10.2-19.4c-.4-4.5-6.5-7-9.2-10.4 2-.1 4.6.7 6.3-.7 2.3-1.5 4.3-3.4 6.5-5l9.2.5-5.5 101.7-10.6 74-22.8 92.4c-14 44-32.4 87-56.8 126.4-1 1.8-2 3.8-2.5 5.8 4.8 2.2 9.6 1.6 14.7 1.8l28 .8-2.5 8c-4.3 2-9.6 3-12.8 6.4 3 8.4 6.7 16.4 12 23.6-3.4 5.6-7 11.5-9 17.7-1 4.5 3 4.4 6 6l-83.4-.1V135l-.2-5.2z" class="E"/><path d="M95.8 138.6c2.2 4.8 5 9 7.8 13.5l-1.6 2.3h-4c-2.2-4.4-5.4-8.6-7-13.3.1-2.8 2.5-3 4.6-2.5zm101.2 2c4.3-.1 8.6 1.3 13 1 6-.3 12-1.4 18-.7-.2 5.6-2 10.3-3.5 15.6l-8.3 29.3h30.3a122 122 0 0 0 2.4-17.9c0-2 1-3 2.2-4.4l3.4 3.5a119 119 0 0 1-2.4 18.8l15 .5c2 .1 4 .1 5.8 1 1 1.5.6 3 0 4.4-7.3.8-14.7-.5-22-.4-2.7 7.8-6.2 14.7-11.5 21l-5 .7c.5-2.7 1-5 2.8-7a57 57 0 0 0 7.8-14.7h-30l-6.6 13.8c-1 2-2 4-3.6 5.5-2 1.6-5.2 1.6-7.3.1-4.5-3-7.3-8.6-8.2-13.8-.3-2.7-.5-5.2 2-7 5-3.6 13-3.7 19-4.3l11.2-38.5c-8 .1-16 .3-24.2-1.2-.6-1.3-1.3-2.5-1.7-4a11 11 0 0 1 1.8-1.6z"/><path d="M123.6 144.8c1 1.3 2.2 2.3 2 4-2.7 3.4-7.3 5.6-11 8 2 2.5 4.3 5.2 5 8.3.6 2.8-.5 5.7-1.2 8.3 3 2.4 6 4.6 8.7 7.3-.4 1-1 2-1.6 3-1.5.2-2.6 0-3.8-.8l-7.5-6-3.8 3.8-10.4-.4 5 .6-3.6 13.8-4.4 1.8c-.5-1.8-1.4-3.2-.8-5l3.5-11.2c-2-1.4-4-3-5.7-4.7-1.5-2-2-4.6-2.8-7L78 170.3c-2-1.2-1.6-3-.6-4.8 5-1.5 10.2-1.7 15.2-2.6 2-3.2 4-6.4 7.6-8 2.5-.7 5.4-.3 8-.2 4.6-4 10.3-6.7 15.4-10z"/><path d="M350.4 147.4c2-1 5-1 6.6.6 1.5 2.3 2.3 5 .4 7.4-2 1.5-5.8 1.5-7.6-.2-1.4-2-1.5-6.2.6-7.7zm-10 1c2.4 1.8.5 5 .1 7.4l-5.6 1c-3-1-3.4-5-2.6-7.7 1-2.8 6-2.4 8-1zm-18 5.7c.2 2.4.2 4.8.1 7.2-1.8.7-3.7 1.6-5.6 2-4-1-5-7-2-9.5 2.2-1.8 5.2-.1 7.7.3z" class="B"/><path d="M102.4 160.4c2-.5 4.2-.5 6.2-.6l4.6 5c.7 1.5.8 3.4 1 5l-3.4 1-.2 3c-2 1-4.4 3-6.6 2-2.4-1-4.3-3.4-5.7-5.6-2-3.8.5-8.4 4-10z" class="C"/><path d="M361.2 173c3.3-1.4 8.6-.6 8.6 4 .7 5-5.7 6.8-8.8 4-1.7-2.2-2.6-6.3.3-8zm-29.2 2.3c5.5-.5 6 11.2 0 10.5-3.4.4-4-2.8-5.6-5 1.4-1.8 3-5.6 5.7-5.5z" class="B"/><path d="M208.4 191.4c-2 4.5-3.3 9.2-5.6 13.5-.6 1-2 1.4-3 .3-3.6-2.7-4.8-6.4-6-10.6 4.7-1.3 9.5-2.3 14.3-3.2z" fill="red"/><path d="M77.4 200.5c.5 4 1.6 7.6 2.8 11.4-.5 1.4-2.3 3.2-.8 4.6l9 9.2c-2 3.7-3.2 7.6-4 11.8-3.7 1.6-7.8 2.7-11.2 4.8-2 1.2-.5 3.7-.5 5.5 5-1 9-3.2 13.5-5.2 1.3 1.7 2.5 3.8 4.4 4.8 2.4 1.3 4.8 1.2 7.4 1.4.1 5.3-.3 10.8.2 16 .5 2.5 4.8 2.8 5.2.1.5-5.4.1-10.8.2-16.2 2.8-1.3 4.7-2.7 6.8-5 4.2 1.7 8.6 3 13 4l.6-4.7c-3-2.5-8-2.3-11.5-4.4-.5-6.6-2.2-10-7-14.6l5.3-5c4.4-3.8 7.4-9.3 10.2-14.3l10.6 1.5-1.7 10c-1.3 4-4 7.2-4.5 11.6 3 2.6 6.7 4.3 9.6 7 2.8 2.5 5.5 5 8.2 7.7l-7 7 .7 10.5c-5 .4-10.2.8-15.2 1.5-1.2.3-2.4.3-2.6 1.8-1.2 6.3-2 12.3-6.2 17.5l-8.4-3.5c-4 1.5-7 4-10.2 6.5-2.8-3.6-5.4-7-6.7-11.3l-2-7.7c-7.7-.4-15-.6-22.6-3.2-.1-4.2.5-9-.6-13-2-2-4.8-3.2-7-4.7A62 62 0 0 1 65.9 230c2-2.3 5-4.2 4-7.7l-4-19.6c4-.3 7.8-.6 11.5-2z" class="D"/><path d="M343 205c.8 3.6-1 7.4-5 7.3-3 .6-4-3.7-5.4-5.7l2.2-3c1.8-3 7.6-2.2 8.3 1.4zm14.4.5c1.6-.3 4-.5 5 1 1.4 2 2.5 4.6 1 7-2.4 3.2-9 2-9.6-2.4-.3-2.7 1-5 3.7-5.5z" class="B"/><path d="M96.7 214.5c2 1.4 3.6 3 5.4 4.4l-2.7 4-5.6.4-5.3-5.4 8.2-3.5zm4.3 13.2c2.4 2.2 4.6 4 5.3 7.5.7 3-1.4 5.6-3 8l-6.6.7-5-3-1.3-7.3 4.2-4c2-1 4.3-1.3 6.4-1.7z" class="D"/><path d="M368 227.4c2.8 1.4 4.3 3 6 5.6l-2.3 4-4.7 1c-2.3-.4-3-3-3.6-5 0-2.7 2.6-4 4.5-5.6z" class="B"/><path d="M224.3 233.3c1.2.1 3.2.6 3.5 2 .3 2.5-.4 5-.8 7.6l16 3.3c3 .3 2.2 5.7-1 5-5.5-.4-11-1.6-16.2-2.5l-4.8 25.8c6 2.2 12 4.3 18 6.5 3 1.2 6 2.6 7 6 .6 2.4-.4 4.3-2.7 5-4 1-8.6 1-12.6.1-.6-1.8-1-3.5 1-4.7 2.2-.6 4.6-.6 6.8-.8l-18.7-7.4-7 7.3c-3.2 2.6-8 4-12 2.5-3-1.3-5-5.2-5.6-8.3-.7-3.2.4-5.7 1.6-8.6H216l5.6-32.3c.5-2.4.6-5 2.6-6.7z"/><path d="M341.3 247.7c2.8 2.3 2 5.6 1 8.5-2.5 6.7-8.6 12.2-13.8 17a47 47 0 0 1-3.1-22c.4-1.8 1-4 3-4.6 4.6-1.2 9-2.4 13 1z" class="C"/><path d="M74.4 272.4l2.8 2c.8 4.6 1.8 9 1 13.6-.4 4.8-2.5 9-5.3 13-4.7 7.2-13.7 11-22 12.4-1.7.2-4 .4-4.3-1.8-2.5-10.7-1.2-23.8 7.4-31.5 5.7-5 13.3-6 20.3-7.7z"/><path d="M200.4 276.6l13 1.5c-2.8 3-5.6 7-10.4 6-2-1.7-2.2-5-2.8-7.4z" fill="red"/><path d="M72.4 278.5c.7 6.5 1.3 12.5-2.7 18-4.4 6.5-11.2 8.3-18.4 10 .1-7-.6-14.4 4.4-20 4.3-5.3 10.2-7 16.7-8.2z" class="F"/><path d="M181 285.8c2.2 2.4 3.8 5 4.6 8.2 1.4 5.7 3 11 2.3 17l-4 29-6 27c-1.7 6.5.5 13.3 4.8 18.3 2 2.4 5 3.8 8.3 3.7 6.7-.3 13.4-4.4 18.7-8.3a91 91 0 0 0 25.6-33.2c1.2.7 3.2 1.3 4 2.5.4 1.3-.6 3-1 4-4 8.2-9.3 15.8-15.4 22.6-6 7-13.7 12.4-22.2 15.8-6.3 2.4-14.2 3.4-19.8-1.3a27 27 0 0 1-9-24.3c.6-3.8 2-7 3.3-10.7 2.3-7 3.5-14 4.4-21.2 1-8.5 2.8-17.5 2.6-26-.4-7-2.4-14-4.4-20.6l3.4-2.6z"/><path d="M382.5 290.4c-1.4 6.6-2.8 13.3-8.3 17.8-6.2 4.6-13.4 5-20.7 3.4.8-3.4 1.4-7 3.2-10 2.2-3.6 5.8-6.5 9.4-8.5 5.2-3 10.6-2.7 16.3-2.7z" class="F"/><path d="M309.6 302.5c2.5 2.3 5 6.6 8.6 7.3 2.8 0 5.6-1 8.3-1.7 1.2 6.5 1.3 13.3 2.8 19.6 2.7 1.8 6 2.6 9 4a69 69 0 0 1 12 6.3l-4.4 7c-2.4 3.4.2 8.5 1 12.2-3.7 2.5-7.3 4.7-11.8 5.4-3.4.8-7 .3-9 3.6-.2 4 1 8 1 11.8-.1 3.3-.7 6.5-1 9.7-2.6-.2-5.2-.5-7.8-.6-4.5-1-7 4.2-9.6 7-4.2-4.2-8-9-12.5-13-3 .6-5.7 2.3-8.4 3.6a51 51 0 0 1-10.5 3.3l-2.3-8.4c-.8-2.2-3-3-5-4.3l10-56c4.7.3 9.4 1 14 .7 2 0 3-2.2 4.2-3.5 3.3-5 6.8-9.8 11.4-13.7zm-208 14.5c1 7.4 3.2 14.5 1.3 22-.5 2.2-1.6 5.2-4 6-4.7 1.3-10-1-13-4.8-1.8-2.2-.5-5.4.6-7.6 3.4-6.2 9.6-11 15-15.4z" class="C"/><path d="M308.7 318.8l4 1.6c-1.3 6-1 12-2.3 18l3.4 2.6 14.5.6c2.2.1 3 1.7 4.6 3l-4 3.3-11-1.2c-.1 3.3 0 6.3-1.4 9.4-1.2 3-3.4 4.8-5.7 7l3 10.4-4.8 2.5a107 107 0 0 1-4-12.6c-3.4-.1-6.5-.5-9.6-1.8-4 2.6-7.5 5.8-11.5 8-1 .6-2 .7-3 .1-.4-1.7-1-3.3.6-4.7 3.2-3 7-5.2 10.4-7.8a21 21 0 0 1-.1-14.4l-11.8-6.3c-.5-1.8 1.2-3.7 2-5.2l13.7 7 10.7-1a58 58 0 0 1 .3-14.4c.3-1.7 1.4-3 2.5-4.2z"/><path d="M43.2 333.2c3.8-2 8.3.4 8 5 .5 5-6.8 6.4-9.6 3.3-1.6-2.3-1-6.6 1.4-8z" class="B"/><path d="M305.5 342c1.8 1.6 4 3.2 5.3 5.2.8 1.6 1 3.5 1.4 5.2l-3.5 3.8-2.7.2c-1.7.7-3.8 2.6-5.7 1.4-4.7-2-7-9-3.3-12.8 2-2.7 5.6-2.3 8.5-3z" class="C"/><path d="M34.4 356.3c2-1 5.2-1.2 7.2.1 1.6 1.5 1.6 4.5 1 6.4-1 4.4-8.3 4-9.7.1-.8-2-.7-5.3 1.4-6.6zm258 2c.5.5.5.5 0 0zm-238 10.2c1.4-.5 3-.5 4.4-.1 4 1 4 8.3 0 9.3-2 .5-5.4.4-6.3-2-.7-2.2-.8-6.2 2-7.2z" class="B"/><path d="M339.8 368.3c1.3 3 2.2 6.8 4.2 9.7 2.4 2.2 6.2 3 9.2 4l-1 7.8c-1.2 4.8-4 8.6-5.7 13.3 7.2 3.8 12.3 9.5 18 15l-7 8.3 1.4 8.6c-5.4.6-11 .8-16.2 1.7-2.8.5-2.5 4-3 6.2-.3 4.6-2 9-4 13-4-1.2-7.8-2.8-12.2-2.7-2.6-6-5.3-11.4-9.6-16.2l-4.2-.6-5.3 3.5-20.6-3.5.3-12.4-7.3-5 13.3-16c3-3.5.3-7.7-.6-11.5l5-2.5 12 12.5 3.8-.7c-2.3 4-3.6 7.6-4.3 12-4 1.8-8 3-11.8 5-1 2 .1 3.5.7 5.5l12.6-5.6c2 2.2 4 5 7 6 1.5.5 3.2.4 4.8.6.2 5.3.1 10.7.8 16-.1 2.6 5.3 3 5.2.3.5-5.6.1-11.4.2-17 2.4-1.3 4.4-3 6.4-4.7l11 4 4-2.5c-2.5-4.5-8.7-3.5-13-6.4-.1-2.6.1-5.4-1-7.8-1-3-3.4-5-5.5-7l7-7.4c1.2-1.3 1-2.7 1.4-4.4l-3-1a52 52 0 0 0 1.4-16.1l6-2.2z" class="D"/><path d="M72.2 380.2c2.2-1.7 5-.1 7.3.3.4 2 1.8 4.3.4 6.3-1.8 2.7-7 3-9 .4-1-2.2-1.4-5.8 1.3-7z" class="B"/><path d="M268.3 382c1 3.5 1.6 7 2.4 10.6 4 2.6 7.5 2 12 1.5l1.2 4.5a81 81 0 0 0-15.5 21.3c2.4 3.6 5.8 5.5 9.3 8-.2 4.2-1 8.6-.5 12.8 2 1.4 4.3 2 6.5 3a109 109 0 0 0-8.2 13.6c-7.6 1-14.7.7-21.7 3.5-1.6.4-2 2.6-2 4 .6 3.6 1.8 7 2.7 10.6-3 3-6.3 6-8.6 9.7 3.8 7 9.8 11 16.2 15.5l-2.8 9-2.7.1-11.2-16.8h-5a586 586 0 0 1-7.7 6.3l-2.5-1c17-37.3 28.7-76.3 38-116.2z" class="E"/><path d="M39.2 385.2c4.4-1.4 7.6 1.3 7.2 6-.3 4-4 4.8-7.3 4-4.5-1-4-8.5.1-9.8z" class="B"/><path d="M318 394l5.7.6-3.2 4c-2.3.2-4.6.3-7 0l4.5-4.5z" class="D"/><path d="M91.4 398.4c2.3-.7 5-.3 6 2 .8 2 1 5-.3 6.8-1.8 2-6.5 2-8-.5-1.5-2.6-.8-7 2.3-8.3zm-38.2 5.8c2-1 5-.6 6.7 1 1.7 1.8 1.5 5 .2 7-2 2.7-7.4 3-8.3-.8-.6-2-.7-6 1.5-7z" class="B"/><path d="M315.4 404.5c2.3-.5 4.6-.6 7-1 2 2 4.4 3 5 6 1.6 4.3-1 10-6.3 9.4-3.5.3-5.5-1.7-8.3-3.3-.4-2-1-3.8-1-5.7.8-2 2.2-4 3.8-5.5z" class="D"/><path d="M39.2 420c2.2-.7 4.7-.5 6.2 1.5 1.7 2.4 1.6 7-1.6 8.2-2.2.8-5.6.5-7-1.6-1.6-2.7-.7-7 2.4-8zm36.4 1.4c1.7 2 .1 5.3-.4 7.7-2 .4-4.6 1.7-6.5.2-1.3-1.3-2.3-3.3-2.7-5.2.3-4.5 7-5.8 9.6-2.7z" class="B"/><path d="M188 430c5.4 2 11.2 4.4 14.7 9.3 5 6.4 4.6 16 2.2 23.4-4 11.3-15 19.6-25.3 24.7-5 2.2-10.7 5-16.3 5.4-3-.1-2.8-4.7-.4-5.2 3.6-1.2 7.3-1.7 10.8-3.2 8.3-3.2 14.8-8.8 21-15 4-4.3 6.4-9.6 6.3-15.5.2-5.4-1.5-10.6-5.7-14-4.5-4-10-4.4-15.5-6-3 6-7.3 11.7-11.6 17-3.6 4.2-8 8.8-13 11-2.7 1-6.6 2-9-.1-3.7-3-4.4-8.2-2.5-12.4 4-8.3 11.6-14.6 20-18 8-3 16.3-4.4 24.4-1.5z"/><path d="M52.4 436.4c2-1 4.3-.8 6.2-.1 3.5 1.4 3.2 8-.6 9-2.4.6-6.3.7-7-2.3-.5-2-.6-5.4 1.5-6.5z" class="B"/><path d="M173 435c-4.4 7-9.6 14.6-16.2 19.7-2.5 2-5.4 2.5-8.5 3 .3-4 .3-7.5 2.8-10.7 5.5-7 13.3-10.5 21.8-12z" fill="red"/><path d="M77.5 442.7c2-1 5.4-1 6.6 1 1 2 1 4.5.1 6.4-1.2 2.6-4.8 2.8-7 1.7-3-2-2.7-7.4.4-9.2z" class="B"/><path d="M311 444.2c3.3 5.5 6.4 11 8.8 17 1 2.8 3 5 6 5.5l18.6 2-3 9c2 3.3 4.5 6 7.2 8.6l-14.7 11c-2 1.4-1 3.7-.8 5.7l2.4 18.7c-3.4.1-7.2-.3-10.5.5-3 1.3-5.5 4.5-8 6.7-3-1.2-6-2.4-8.6-4.5-3.2-2.6-6-6-9-8.8-2.7 1.7-5 3.7-7.7 5.5-3.8 2.7-8 4-12.3 5.5-1.3-2.7-2.3-5.8-4.2-8-2.5-2.3-6.8-3-10-4 .7-4.6 2.2-8.8 3.8-13 1-3-.5-5.5-3-6.7a44 44 0 0 1-11.8-9.3c2.3-2.7 5.2-5.3 7-8.5 0-3.5-1.2-7-2-10.6l9.5-2.4c3.5-.4 7.3.2 11 .5 3.3-6.6 6.3-13.2 11-19 3.8 1.2 8 3.6 12 3.4 3-1 5.6-3 8.2-4.7z" class="C"/><path d="M43.4 452.4c2.4-1.2 6-.5 7.2 2 1 2 1.2 5-1 6.3-2 1-4.5 1.2-6.5.4-3.4-1.5-2.6-7 .3-8.7z" class="B"/><path d="M304.6 459.7l.8 15.7a23 23 0 0 1 7.4 7.8c5.3-4 10-6 16.4-7.5l1 5.2-15.4 6.5-1.5-3.5.2 8.7c2.6 5 6 10 7.8 15.5-1.2 2-3.6 2.7-5.4 1-2.4-3.2-3.7-7.2-5.4-10.8-1.7 1-3.6 2.4-5.6 3-3.6.5-7.4-.4-11-.1-3.5 2.4-6 6-10 7.7l-2.7-2.8 7.4-8.6a58 58 0 0 1-2.2-10.7l-13.8-5.3c-2-1.2-.5-3 .4-4.4 5 .4 10 3 15 4.4 2-2 4-4.3 6.6-5.5 1.8-.7 4-.5 6-.7-.1-4.5-1-9.3-.3-13.8.3-2.3 2.7-1.2 4.4-1.5z"/><path d="M350.8 468.7c6.6 0 13.4-1 20-.4 6 2.3 10.5 9.2 12.8 15l-20.2.4c-6.2-2.4-10-9.2-12.5-15z" class="F"/><path d="M75.7 473c-.5 1.6-1.2 3-2 4.6l-3.5 1.3-3.7-1.3c-.5-1.8-1.2-3.8-1-5.7 1-5.2 10.2-4.2 10.3 1zm-42.3 1.4c2-1.8 5.3-.1 7.7.4.1 2.2.8 5-.3 7-1 2-3.5 2.5-5.6 2-3.8-1-4.6-7-1.8-9.3z" class="B"/><path d="M304 481l4.5 5.2-.8 5.5c-1.4 2-3.8 3.4-5.7 5l-4-.6c-2-1.5-4.7-3-6-5.3-1.3-3.2.5-6.5 2.8-8.6 2.2-2.3 6-1 9-1z" class="C"/><path d="M287 483.2h.8l.4.7-.4.7h-.8l-.4-.7.4-.7z" class="B"/><path d="M357.3 487.2c1.5.4 3 1.5 4.6 1.6l21.2-1v65.5a49 49 0 0 0-12.6-5.1l1.3-10.2a73 73 0 0 0-1.2-12.3c-3.7-2.5-7.7-3-12-4-2.7-3.5-5-8.5-8.7-11-3 .3-5.7 2.3-8.2 3.8l-2-13c6.2-4.4 12.3-8.7 17.6-14.2z" class="E"/><path d="M56.3 495.3c2-1 4.6-1 6.6-.2 2.8 1.2 3 5.2 1.6 7.5-1.7 2.8-5.6 3.2-7.8.8-1.8-2-3-6-.4-8zm-18 2c3-1.6 7-.8 8 2.7 1 4-1.7 7.8-6 7-4.6-.6-6-7.3-2-9.6z" class="B"/><path d="M242 501c4.2 4.4 7.6 9.4 10.8 14.5.8 1.7 3 1.3 4.5 1.7 1 1 1.8 2.5 3 3.4 3 1.6 6.7 2 9.4 3.6 2.2 3 3.2 6.8 5.5 9.7 2.7.7 6-.4 9-.7-1.5 2.8-3 5.6-5 8-2.7 3.5-6.3 6.3-9.6 9.2a85 85 0 0 1 10.8 20.7c-3 1-6.2 1.7-8.8 3.4-2.4 2.4-3 6.8-4 10-5.7-1.5-11.2-3.6-17-5.2-2.3 1.8-3.5 5-5.2 7.3-2 3-5 5.4-7.8 7.7-2.4-2.2-4.8-5.5-7.8-6.7-3.6-.5-7.7 1-11.2 1.8-1-4.2-2-8-2-12.5.1-2.7.8-5.3 1-8-1.3-2-4.4-3.2-6.5-4.4-4.5-2.2-8.3-5.4-12-8.7l4.8-9.3a83 83 0 0 1-5.1-10.2c3.5-.4 8 .5 11.2-1 2.7-3 3.8-6.5 7.7-8.5 3.4-2 3-5.2 3.7-8.7.6-4.5 3.4-8.8 5.4-13 2.5.7 5.8 2.4 8.3 1 2.4-1.4 4.4-3.6 6.7-5.3z" class="C"/><path d="M236.3 519.3l5.2 11.3c1 1.8-.2 3.7-.6 5.5l5.6 1c5-3.8 11.3-6 17-8.8.4 1.5 2.4 3.6 1 5-3.6 2.6-8 4-12 6 1.3 1.8 3 3.8 3.6 6 .8 3.6-.2 7.3-1 11a113 113 0 0 0 7.8 8.4l-2.7 4a162 162 0 0 1-10.1-9l-4.3 3.3c-3.3-.7-6.7-1.4-10-1.8l5 1.6c-2.2 4.7-3.7 10-6.5 14.5-1.6-.3-3.2-.8-4.7-1.2l5.6-14.8c-4-3.7-6.2-7-6.4-12.7l-13 .3c-2.7-.3-2.3-4.7.2-5 4.8-.8 9.7-.5 14.6-1 2.3-3 4.6-5 8-6.8-2.3-4.7-5.2-9.7-6.3-14.8-.2-2.8 3.2-3.8 4.7-1.8z"/><path d="M348 519c2.3 3 4 7 6.8 9.2 2.8 1.2 6.3 1.4 9.3 2 .3 3.6 1 7 .2 10.5-.8 4-1.8 7.8-1.2 12 2.8 1.5 5.7 2.6 8.7 3.7 4.2 1.5 7.7 4 11.2 6.7l-4.8 7.3c-.7 3.5 1.6 7.6 2.7 11a656 656 0 0 1-10.7 3.1c-2 .6-4.2 1.2-5.7 2.7-.5 2.5-.4 5.3-.4 8-5 0-9.7-.1-14.6.1-.7-6-2.7-11.6-4-17.4 2-2 4-4.2 5.4-6.8 4.3 1 8.8 1.8 13.2 1.8.7-1.8 1.2-3.6-.4-5-3-.6-6-.6-8.8-1-1-.2-2.5-.2-2.8-1.4-1.3-3.2-2-6.2-4.4-8.8-1.6-1.8-3.6-2.6-5.7-3.7l6.5-12-3.8-2.6c-3.5 4.5-6 9.7-9 14.6l-5.2 1.8c-3.5-2.6-7.2-4.8-11-7-1.7-1-3.4-1-5.3-1 0 1.4-.1 2.8.1 4 3.5 3 8 5.3 11.8 8a20 20 0 0 0-1.4 11.7c-4 3-8.3 5.4-12 9 1.6 1 3.2 2 5 2.8l9.3-7.2c1.6 1.4 3.3 3 5.2 3.8 2.5 1 5.4 1 8 1.3l3.3 15H308c-.4-2.4-.5-5-1.5-7.2-2.2-2.6-6.3-3.7-9.3-5a103 103 0 0 1 9.1-17.3c1-1.7 2.8-3.8 1.4-5.7a137 137 0 0 1-9.1-18.2l8-3c1.6-1 2.5-3.5 3.5-5.2 2.8 1.2 5.8 2.8 9 3.2 2-1.2 3.5-3 5.2-4.7l4 2c5-.5 7-4.5 11.5-5.6 2.8-3.2 5-6.7 8.5-9.3z" class="D"/><path d="M299.3 524.7l4.8 4.5-.6 3c-4 1.2-8 2-12 3.6-1 2.3-.3 4.4.3 6.8 2 6.4 5.5 12.5 9 18.3a67 67 0 0 0-10.7 21.3c-.4 1.6-.7 3 .1 4.4 3.4 2 7 3.2 10.5 5l.5 3.3c-17.6 0-35 0-52.7 0 1.8-2.4 3.3-5 4.8-7.5l16.8 5c4.4-3 4.5-7.3 6-12l9-3.6 2-3.6a39 39 0 0 0-9.1-21.7c4.8-6 10.2-11 12.7-18.5l-.7-2.6c2.3-1.3 4.6-2.7 6.8-4.3l2-1.5z" class="E"/><path d="M45.4 526.5c2-.8 5-1 6.4.7 1.5 2.2 2.4 5 .6 7.2-1.6 1.5-4.7 1.4-6.6.8-3.6-1-3.7-7.4-.3-8.8z" class="B"/><path d="M141 534.4l28.4.7 2 10.5a64 64 0 0 1 18.9 4.6c-1 3.2-2.2 6.4-2.8 9.7 1 3.7 4.2 7 6.3 10a33 33 0 0 1-17.5 9.5c-1 5-1 10.2-1.7 15.3h-59.2c-3-3.4-7-5-11-6.7 2.7-5 6-10 8.5-15.2 1.3-2.8-.4-4.5-2-6.8-3.6-5-6.8-10-9.4-15.7 3.8-1.7 7.5-3.4 11-5.4a1267 1267 0 0 1 2.9-8.7c3 .1 6 .1 9 1 3.2 1 6 2.7 9.2 3.8 2.2.7 3.5-.5 5.2-1.7l2-5z" class="D"/><path d="M176.5 535.3l14.4.4a115 115 0 0 0 4.4 9 49 49 0 0 0-18.3-5l-.5-4.5z" class="E"/><path d="M247.5 542.5c3 2 3 6 3.5 9l-3.7 2-.7 3.8c-3.2-.3-8.4-.3-10.6-3-2-3.4-2.3-8.3 1.4-10.6 3-2.8 6.7-2.3 10-1z" class="C"/><path d="M152.5 542c1.6-.1 3 .1 4.7.3.6 5.2-1.4 9.4-3.6 14 2.6 2 4 3.8 5.6 6.6l15-1.2c1.4-.2 2.7.2 3.7 1.3-.1 1-.2 2-.5 3-1 1-3 1-4.2 1.3-4.2.4-8.3.7-12.5 1-.4 2.2-.7 4.5-1.8 6.5-1.2 2.2-3.3 3.7-5 5.3l6.3 12-4 2.3c-1.8-1-2.4-2.5-3.3-4l-4-8.2a17 17 0 0 1-11.6-3.5c-3 3.3-5.8 7.4-9.3 10.3-2.4 1-4-.4-4.2-2.8 3.2-4 7-7.6 10.4-11.3-.6-2.5-1-5-1.3-7.5l-10.3-7.6c-1.3-1-1.4-2.6-2-4l5-1 9 7.2c3.8-5 7.4-7.5 14-7.3 2.2-4 3-8 4.3-12.4z"/><path d="M336 558c2.4-.3 5.4.1 7.3 1.6 1.4 2 2 4.3 2.5 6.5.7 3.5-3 6.8-6 7.6-2.8.8-5.4-.8-8-1.8l-.4-2.6c-1-1.3-2.7-1.8-2-3.7 1.4-3 2.8-7.2 6.6-7.7z" class="D"/><path d="M35.2 559.2c2-1 4.6.2 6.6.7.4 2.3 2 5 .1 7-1.8 2-5.4 2-7.6 1-2.8-2-2.3-7.3 1-8.6z" class="B"/><path d="M67.2 559.6c8-1.5 15.7.5 23 4-1.2 5.8-2.7 11.2-6.5 16a28 28 0 0 1-26.4 9.7c-4-.8-9-1.7-12.5-4.3a37 37 0 0 1 5.7-13.5c4-5.8 9.5-11 16.7-12z"/><path d="M148.8 560c2.7 1.7 5.5 3.6 6 7 .7 2.8-2.4 5.6-3.8 7.8l-6 1.2c-2-1-4-2.3-5.2-3.8-2.6-3.2-1.3-8.2 2-10.3 2.2-1 4.7-1.4 7-1.7z" class="D"/><path d="M84.3 566.4c-2 4-3.6 8-6.7 11.2-2 2-4.2 4.3-7.5 4.3l-18 .6c2.7-5.7 6.4-13.3 12.7-15.7 6.4-1 13-.1 19.6-.4z" class="F"/><path d="M202.4 568.2c2.8 1.8 5.7 3.2 8.7 4.6-2.5 7.6-.3 14.8 2 22h-30.8l.3-10.3c8-2.8 15.3-7.2 20-14.4l-.3-2zM383 587.5v7.2h-12v-3.3l12-4z" class="E"/><path d="M228.5 594.8c-.7.6-1.4.6-2.3.1.2-1.4 2.7-2 2.3-.1z" class="B"/></svg>