<svg xmlns="http://www.w3.org/2000/svg" viewBox="0 0 400 610" width="533.3" height="813.3" xmlns:v="https://vecta.io/nano"><style><![CDATA[.B{fill:#d96038}.C{fill:#fff}.D{fill:#ffcdde}.E{fill:#858585}.F{fill:#fff000}]]></style><path d="M0 0h400v610H0V0z"/><path d="M18.5 14.4c3.5-.3 7-.1 10.5-.1h353V324c-79 5-158-4-235-21.4l-128.8-38V24l.1-9.6z" class="C"/><path d="M59 23c4.8 5.2 7 12.8 9.4 19.4C69.3 45 70 48 72 50c3.6 3.5 7.3 6.8 11 10.3l2.8-8.5c7.5-3.2 15-2 22.3.5 2.3-5.6 5.4-10.2 9.7-14.5 1.8-1.7 3.7-4 6-4.7 3.3 1.7 6.3 4.3 9.3 6.5l10.8-2.2c1.8.2 2.7 2 3.4 3.4 2 4.4 2.6 9.5 3.4 14.3 8.3.4 16.3 1.2 22.4 7.5 3.2-1 6.5-4.7 10-4 5.7 2.7 8 8 11.4 13 6-4.7 13-7.5 20.5-8.4l.2-1.3a35 35 0 0 1-16.6-5.3c-4.4-3-8.6-6.6-10.2-12-2.4-7.5-2.6-16.6 1.8-23.3 5.4 1 10.6 2 15.3 5.2 6.7 3.6 11 10.3 12 17.8 1-2.4 2-4 4-5.7l11 2.4c2.8-2.4 5.6-6 9.2-7.2 5.5 2 9.4 8.8 13 13.2 6.5-2.6 12.8-3.8 19.8-4l3.4 5.6c1.8.1 4-.4 5.6.7l6.3 4.6 6-1c-.1-11 6.2-19 13.8-26.3 4.8 1 7 5.4 9.5 9a27 27 0 0 1 3.6 19.9c1.5-1 3-2.2 5-2.3a258 258 0 0 1 27.1-1.2c.7 2-.1 4.2-.7 6.2-2 6.4-5.4 12.4-11 16.4-4 3-9.5 4-14.2 5l-2.5 7.5c2 2.4 4.5 4.6 6.2 7.3 1 1.8.1 3.3-1.3 4.5-3.4 3-7 5.6-10.3 8.5 1 5 2.6 9.8 3.3 14.8.5 2.4-1 3.8-2.6 5.2-2.8 1-6 1-9 1.7-1.4 3.3-2.3 7-4.3 10.2-2 1.2-3.7 0-6-.4l3.6 3c3.5-.5 7-1.2 10.5-1.4 1.5.7 2.6 2 3 3.5l1.4 10.8c2-3.6 4.8-6.8 6.5-10.6.8-10 .4-21 6-30 2.8-4.7 8.2-6.7 13.4-5 4.2 1.5 8.7 5.2 11 9 1.6 2.7 1.5 5.7.2 8.5-2 4.4-5.8 8.3-9.5 11.3-4.5 3.8-10.8 5-15.4 8.5-3.2 4-5.7 8.7-8.7 13 6.4 2.3 12.4 3.7 17 9l-4 11.3 6.2 8.6c.8 1.4.5 3-.6 4a54 54 0 0 1-18.4 11.2c-.2 4.5-.6 9-1.7 13.3 3 4.3 6 9 9.2 13.2 1.2 1.7 3 2.2 5 3 6.7 2.5 13.8 6 19 11 3.6 3.6 5.5 8.6 4 13.6-1.3 4-4.8 6.6-8.2 8.6-3.4 2-7.8 3-11.6 1.6-4-2-6.6-6.7-8-10.8-2.4-7-2.4-14-3-21.3-2.2-4.3-5.7-8-8.4-12.2-1.3 1-2.6 2.2-4 3-3.4.2-7-.3-10.3-.5-2.6 3.6-3.6 9-8.5 9.8l1.6 6.4c6.2 2.3 12.7 4.7 18.3 8.2 1.8 1 3 2.7 4.2 4.4l-5.6 10.4 4.5 9.4c5.7 1 11 3.5 14.7 8 6.3 7 8 17.6 7 26.6.2 1.5-2.8 1.3-3.8 1.3-6.6-.4-13.7-2.2-19-6-6.8-5.3-10.6-13.5-10.8-22l-7.4 3.2c-.2 7.7-1 15.5-3.7 22.8-.6 1.3-1 2.8-3 2.4l-12.3-2.2c-3 1.5-6.6 5-10 4-7-2.7-11.6-9-15-15.4-7.5 3.5-15.4 5.8-23.7 4.3-2.3-3-1.8-8.2-2.6-11.8-3-1.7-6-3-8.8-5-1-1-1.7-2.8-1.3-4.3 1-5 4.4-9.7 7.2-13.7-4.7-4.7-10-10.5-10.8-17.4-.2-4.4 6.5-6.3 9.5-8.4V231c.1-1.3.1-2.5 1-3.5 8-2 15.3-.2 23.2 1l3.6-3.6c-1.2-1-2.6-1.2-2.7-3l-.8-10.5c-3.2-1.7-7-2.7-10-5-1.5-1.6 0-3.6.3-5.4-3.7 0-7.5-.1-11.2-.4 1.3 2.2 1.8 4.6 1 7-1.3 2.3-3 4.4-4.4 6.5l2 8-1.5 3.6-13.4 4c-.2 6.2-1.3 14-5.3 19-3.4.2-7-.8-10.4-1.3-3.6 3-5.8 6.4-10.8 7l-2.8-2.7c1.3 2.8 1.8 7 4.8 8.4 4.7 3 9 6.4 11.5 11.6 3.6 7 3 15 .2 22.2-1.2 2.8-2.3 6.3-4.7 8.2-7.7-3-15.4-8.5-19-16-2.8-5.8-2.5-11.7-2.2-18-2.2 3.2-3 9.7-7 11a34 34 0 0 1-20.9-5.8 45 45 0 0 1-16.3 15.6c-1.4-.4-3-.6-4.2-1.3-2.4-2.4-4.4-5-6.6-7.7-3.3.2-8.4 2.3-11.3.4-3.5-4.8-2-13-2.3-18.7-5.6-1.8-12-3.8-16.6-7.3-1.6-1-2.2-2.2-2.4-4.2 1-3.2 2.7-6.3 4-9.4-2-3.6-4-7.2-5.6-11 1.4-2 2.7-3.7 4.7-5a60 60 0 0 1 15.8-7.2c1.3-8.3 3.6-15.7 7-23.4-3.5 1.8-5 5-7.5 8-2.7 3-5.6 6.5-9 8.6-4.3 1-8.8-4-12.5-5.5-3.4 3.4-5.4 8-8 12.2l-5.5 10c-1 7-.3 14-1.7 21-1 4.6-2.7 9.5-6.3 12.7-4.6.6-10 0-14.6-.5-4.2-2-8-6.8-8-11.7-.1-3.2 1.7-6 3.6-8.2 4.6-5.4 10.2-9.2 16.4-12.6 2.4-1.5 5.3-2.7 6.7-5.3 2.4-4 4.7-8.4 7.2-12.5-5.7-7-9-16-11-24.6-8-1.5-15.6-4-23-7.4l-.5-4.4c1-3 2.7-5.7 4-8.5-2-3.3-5-6.7-6.3-10.5A68 68 0 0 1 56.7 143a141 141 0 0 1 .9-20c.3-1.7.3-3.7 1.4-5.2 4.7-1.2 10 1 14.8.6 2.3-1.6 4.4-3.4 6.7-5-1.2-.7-3-1-4-2.3-.3-1.4.7-3 1-4.3L84.5 91 82 87.7l1.7 2.8c-6.3 5.6-14 9.3-22.6 8.8C53 99 46 94 41 88c-1.7-2.4-4.2-5-5-8 6.2-5 14.6-9 22.8-8.7 6 .2 11.3 3 15.8 6.7a31 31 0 0 1-3.9-9c1.5-2.4 5-3.6 7.4-5l-9-8.3c-1.7-1.4-3-3-5.2-3.3a87 87 0 0 1-14.8-3.7c-4.4-1.6-9.3-4-12-8-2.6-3.5-2.4-8.3-.3-12 2-3.7 5-7.2 9-9 4.6-2 9.8-.2 13 3.4z"/><path d="M50 24.4c3.5.5 6 3 7.8 5.8 3 5 4.8 11.2 6.4 16.8-5.8-1-12.2-2-17.4-4.8-2.5-1.3-5.3-3.3-6.2-6-.4-3 .8-5.6 2.8-7.7 1.7-1.8 4-4 6.7-4z" class="B"/><path d="M193 26.8c5.5.6 11.4 3.8 15 8 4.6 6.2 4.6 13.5 3.8 20.8-6-2.2-13.5-4.8-17-10.7a24 24 0 0 1-1.8-18.2zm118.2 6.5c3.7 4.8 7 9.4 7.4 15.7.2 7.6-4 13.8-9.5 18.5-4-5.7-7.4-11.3-6.6-18.5.7-6.6 4.5-11 8.7-15.7z" class="E"/><path d="M124.2 41.6c2.6 1.6 5 4.2 8 5 3 .1 6.2-1 9.2-1.8 1.5 5.4 2.4 11.2 4.3 16.5 6.5 1 12.6.1 18.8 3l-2 10.6c1 3.3 5 6 7.3 8.4l-7.2 6.2c-2.6 1.7-5.3 2-8 3.2-1 .3-2 1-2 2.3.1 3.6 1 7.2.8 11l-1.8 10c-3.4.4-7.7.1-10.8 1.7-2.2 2.3-3.3 5.7-4.8 8.5-4.6-3-9.3-6-13.8-9.3-1.6-1-3.3-2.3-5-3-2.3-.5-5 1-7 2-4.5 2.3-9.2 3.6-14 4.8l-1.4-8.4c-3.3-2-6.7-3.7-10.2-5.2C86.3 101 90 96 92 90c-.7-2.4-3-4.4-4.6-6.3A63 63 0 0 1 79 72.1l10.3-7 1.3-8.2c2.5-.1 5-.3 7.5-.2 5 .2 9.2 2.6 14.2 3.2 3.7-6.8 6-13.3 12-18.4zm118 .1l10.2 13.8c6.5-1.7 12-5.4 18.8-6 .6 3 .7 6.5 2 9.4 2.2 3 7 4.2 10.4 5.8-1.3 3.2-2.6 6.6-4.3 9.6-1.7 2.8-4.2 5-6 7.7 1 3 2.7 5.7 4 8.7 1.7 3.7 3.2 7.5 4.8 11.2-3.2 1.8-7 3.2-9.6 5.6-1 3-1 6.7-1.3 10l-22.3-2.8c-1.7 1-3 2.5-4.5 4-3.8 4-7.8 7.8-11.7 11.8-1.7-2.5-3.4-5.5-5.8-7.4-3.3-.2-6.6.4-9.8.7a74 74 0 0 1 .1-17.8c-2-2-3.6-3.6-6.3-4.5-5.3-2-9.7-5.3-14-9 2-2.6 5-5.3 6-8.4 0-3.2-1.4-6.3-1.6-9.5 6.4-5.2 13-4.4 20.7-6a46 46 0 0 1 3.1-22c2.7.7 5.4 1.4 8 2l9.2-6.6z" class="B"/><path d="M281 55.3c.8-.5 3.4.2 2.7 1.4-.8.6-3.3-.3-2.7-1.4z" class="D"/><path d="M331 57c6-.5 12.2-.4 18.3-.6-2 4.3-3.7 8.3-7 11.7-2 2-4 4-7 3.8-5.3.2-10.6 0-16 0 1.3-3.8 2.5-7.5 5.2-10.6 1.7-1.8 4-4.2 6.6-4.3z" class="E"/><path d="M127.4 59.4c1.4-2 4.3-.1 4.3 1.7 0 3.3-1 6.6-2 9.8a75 75 0 0 1 7.4 7.5c5.3-.7 10.4-1.7 15.8-1.4-.3 1.4.3 4-1.3 4.7-4.3 1.3-9 1.4-13.4 2-1 5.2-4.3 8.2-7.8 11.7l7.5 13-4 1.7-8.6-12.6c-3.2-.6-6.2-1-8.8-3.2a20 20 0 0 1-6-8.3l-11.3-7.4c-1.6-1-1.6-2.7-2-4.4l4.7-.8 9 6.6c1.4-2.4 2.7-5 5-7 2.6-2 5.7-2.7 9-3.5.8-3.3 1-7 2.4-10.2zM240 61c2 3 2 7.3 2.7 10.7a84 84 0 0 1 7.8 3l9-6c1.7-1 3.2-2.3 5.4-2l3.2 3.6c-4.4 3.6-9.2 6.4-14 9.3a23 23 0 0 1-.4 12.5l11.7 8.3-1 2.4-3.5.7a262 262 0 0 0-11-7.3 18 18 0 0 1-10.6 3.4c-.4 4.4-.3 10-2.5 13.8-2 2-4 1.5-5-1 .2-5 2.7-10 3-15-1.5-1.8-3.4-3.3-5-5L216.2 90l-1.8-4c4.8-1.2 9.3-.2 14 .7.5-3.2.6-6.8 2.5-9.6 1.5-2.3 4.7-3.5 7-4.8L235.5 62c.6-2.4 3-2.7 4.6-1z"/><path d="M290.2 60.4l7-.6c1.7 3 3.3 5.7 4 9l1.8 8.8 19 2.4c-.7 2.6-1.8 5.2-2 8 .4 3 3.5 5.5 5.3 7.7-4.5 3.3-9.3 5.2-12.2 10 2.6 4.8 4.5 9.6 5 15l-9.2 2.5-4 8.5c-4-1.5-7.7-2.8-10.8-6-2-1.7-4.2-4.2-7-2.4-4.7 2.7-9.3 5.2-14.6 6.4l-3.8-6.3 6.5.8c3.6-4 2.8-8 3.3-13 4-2 8-3.7 11-7.2a80 80 0 0 0-8.3-21.9 51 51 0 0 0 9.7-19.7l-1-2zM182 65.2a32 32 0 0 1 9 13.8l4.8 1.7c-1.7 4.7-5.6 8.3-7 13 4.8 7 13.8 11.3 21.5 14.2-.8 6 0 11.5.8 17.4a25 25 0 0 0-9.3-7.5c-4.3 1-7 3.8-10.3 6.3l-10.4-2.5c-1.8-.4-3.6.3-4.2 2-1.2 3.3-1.6 7-2.3 10.4l-7.5 2a57 57 0 0 1-3.2-16.3c0-3.2-2.4-4.5-4.5-6.5a48 48 0 0 0 .4-15.6 39 39 0 0 0 17.4-13.1c1.3-5-4.6-8.3-7.3-11.5l1-4c4.6.3 7.7-2 11.4-4z" class="D"/><path d="M121.6 75.6c2.6 1 4.2 1.3 7 .8 1.7 2 3.7 4 4 6.6a8 8 0 0 1-7.5 7.9c-4.5.3-9-3-8.7-8 .1-3.8 2.6-5.4 5.3-7.4z" class="B"/><path d="M62.8 77.4c6.7 1.5 11 6 14.4 11.6-6 3.4-12 5.8-19 4.4C51.7 92 47.7 87 43.7 82c6-3.6 12-6.2 19-4.7z" class="E"/><path d="M238.3 78.5c3-1 6-1.5 8.4.8 4.7 3 2.8 10.7-1.2 13.3-4.6 3.3-11.3-1.3-11.4-6.5-.3-3.4 1.2-6 4.2-7.5z" class="B"/><path d="M112 91c1.5.6 2.4 1.8 3.4 3-1.2 3-3.2 5.5-5 8.4-1 1.4-2 3.4-3.6 4.3-2 .6-3.2-.1-4.5-1.6 3-4.8 6.8-9.2 10-14z"/><path d="M342 114.3c4.4-.5 9.6 2.2 11.4 6.4 1.2 2.8-.8 6-2.5 8.2-4.4 5-11.3 8.2-17.3 11 .2-6.7.5-14.6 3.5-20.8 1-2 2.5-4.5 5-4.6z" class="B"/><path d="M82.5 120.3c5 1.4 6.7 5.2 10.2 8.5 1.6 2.3 3.2 4.6 5.2 6.5 4.4-1.8 8-4.4 12.6-5.8 2.8-1 5.6-1.5 8.4-2 .7 2.7 1.2 5.6 2.3 8.2 1.7 2.7 5.8 4 8.6 5.3l-6.2 14.6c3.6 5.3 8.6 9.8 13 14.5l-8 7.5c.6 3.4 1 6.8 1.2 10.2l-17-.6c-1.7.1-3.6-.4-5 1-1.4 1.7-2.2 3.7-3.4 5.6-2.3 4-5.4 7.2-8.7 10.4-3-2-5.7-4.3-9-5.6-3.4-.2-7 2.2-10 3.5a78 78 0 0 1-6.8-20.5c-6.8-3.8-15-5.3-22.3-8l4-8.7c-1.2-3-3.5-5.6-5.3-8.2l13-7c2-1 3.2-2.7 4.7-4.3a68 68 0 0 1 .6-21l9 2c3-1.8 5.6-4 8.6-6z" class="D"/><path d="M157 121.2a87 87 0 0 0 4.3 18.6c.5 1.5 1.3 2.7 2.7 3.5 3.3-.2 6.7-1.5 10-2.3v6.7a44 44 0 0 0-9.5 4.7c-3 2-6.8 3.5-9.4 6 .6 3.4 3 6.5 4.4 9.5l-2.6 7.7-9.5 2.8-.5 1.6c.2 7.8 5.6 15.2 6.7 22.4-5.8-4.5-10.7-11-17-14.5l-.5-7.6c3-2.7 8-5.2 9-9.3-2-6.6-8.7-12-13.7-16.5l6.4-14c1.2-1.8-.5-4-2-5-3-1.4-6-2.3-9-3.4l-1-4.3c3.5 2 7.4 4.2 11.3 5 4.2-.5 5.8-6.3 8-9.4l10-.8 2.2-1.5zm95-.2c.3 1.8.4 3.6 1 5.4 3.3 1 7 1 10.4 1.3 2 2.8 4 7.8 7 9.4a44 44 0 0 0 19.4-6.6l5.5 4.3a53 53 0 0 0-15.6 16.4 37 37 0 0 0-20.1-4.5c-3.8 1-4.8 7-6.4 10L250 158c1.6-3.6 4-7.2 5-11-.5-1.3-1.2-2.6-2-4l-9-3.4-1.7-8.6c3.3-3.3 6-7 9.4-10.3z" class="C"/><path d="M201 125.6c1.8 1.4 3.6 2.8 5.2 4.4 3.6 3.4 5.5 8 8.8 11.6l13.2-5.2 4 2c1.6-.5 3-1.3 4.6-2 .6 2.2 1 5 2.3 7 2.4 2.2 5.8 3.3 8.7 4.7-2.3 5.2-6 10.2-7.3 15.7 3.8 5 8.8 9 12.2 14.6-2.6 2.3-6.7 4.5-8 8-.3 3 .2 6.2.4 9.2l-17-1.2c-2 .1-4.3-.7-5.5 1.5-3.5 5.3-7.2 10.2-12 14.3-3-1.5-5.5-4-8.6-5.6-3.4-.7-7.5 2-10.6 3.2l-5-16.4c-.8-3-1.4-6-4.6-7.5l-18-5.8 4.6-8.4-4.7-9.3a56 56 0 0 1 14.6-6.9c2.8-.7 2.2-3.8 2.4-6-.1-6.2.4-12 1.3-18 3.2.6 6.6 1.8 9.8 1.7 3.3-1 6.2-3.4 9.2-5z" class="B"/><path d="M224.5 130c-1.2 1-2.3 1.5-3.5 1.2-.2-2 2.3-2.7 3.5-1.2z" class="C"/><path d="M76 138.2l4.4-.4 4.6 12c2.6-.7 5.3-1.5 8-1.3 2.8.3 5 1.5 7.4 2.7a31 31 0 0 0 7.9-6.2l4.3-.7c.2 1.2.3 2.4.3 3.6-2.3 3-6.2 5.4-9.4 7.6a54 54 0 0 1 1.3 8.2l10 5.4c1.8 1 3.6 2 4.7 3.8-.2 1.6-.7 2.6-1.8 3.8-5-1.5-9.6-5-14.2-7.5a16 16 0 0 1-11.9 6.6l-1 10.6-3.6 3c-3-4.2-1-10-1.2-15-3.2-2.5-6-4.7-7.3-8.8-5 1.7-9.3 4-14.6 4.2L63 165c4.7-2.4 10-3.8 15.2-5.4l2.2-5.7c-1.5-5-5.5-10.7-4.4-16z"/><path d="M297 141.8c2.3 2 4.3 4.8 7 6.3 3 .7 6.2-.1 9.2-.2l2.5 17.2a48 48 0 0 1 17.9 4.9l-3.3 10c1 3.4 4.5 6.3 6.6 9-4.8 3.2-9.3 6.4-15 8-1.6.7-4.2.7-4 3a50 50 0 0 1-3.3 19.6c-3-.2-6.4-.7-9.5-.4-3.6.5-5.5 5.6-7.8 8-1.5-2-2.6-4-3.6-6.2-.7-1.3-1.2-3.2-2.7-3.7-1.5.1-3 .2-4.4.4-2.5-2-4.8-4.6-7.6-6-2.7.4-5.3 1.3-8 1.8-4.4.7-8.3 2.7-12.6 3.8v-9a47 47 0 0 0-9.4-6.6l8.3-13.7c1.2-1.7.6-3.2.6-5 .7-1.4 2.3-3.4 1.8-5-1.3-5-5.4-9.5-8.7-13.4 2.6-1.3 5.6-2.3 7.8-4.2 1.4-2.3 2-5 3-7.6 3 .1 6 .1 9 1 4.2 1.3 8 3.7 12.2 4.7 2.4-3 3.7-6.8 6.4-9.5l7.6-7.5z" class="D"/><path d="M198 144c2 3.3 2.5 7.7 3.6 11.3 2.7-.4 5.8-1 8.5-.6 2.6.4 4.8 1.5 7.2 2.6l8-6h3.5l1.7 3c-3.3 3-6.7 5.7-10.3 8.2l1 8.3 10.4 5.7c1.5 1 3.2 1.7 3.5 3.7-.5 2-.8 3.6-3.2 3.4-4.7-2-8.7-5.7-13-8.4-3.8 4-6.3 5.4-11.8 6.4l-1.4 10.5-4 3c-2.4-4.5-.1-10.2.2-15-3.8-2.8-6-5.2-7.8-9.6l-14 3.8c-.2-1.7-1.5-4-.2-5.2 4.4-2 9.6-2.2 14.3-3.4 1-2 2-4.2 3-6.3-1.2-5-3.2-9.7-3.6-14.7 1.7-1 3-2 4.7-.3z"/><path d="M87.4 155.4c3-1.3 8.6-1.5 10.4 2 2.8 3.4 1 8-1.4 11.2-2.7 3-6.2.7-9.5.3-4.2-3.7-4.5-10.2.4-13.4z" class="D"/><path d="M214.7 163.4c2.2 3.2 0 7-1 10.2l-6 2c-2-.8-4.3-1.2-5.8-2.5-2.8-3.7-2.2-9.7 1.8-12.3 3.6-1.4 9-1.2 11 2.7z" class="B"/><path d="M298 160.2c2.2-.5 4.4.2 4.2 3-1 3-2.7 6-4 9 2.2 1.5 4.4 2.6 5.6 5a15 15 0 0 1-.9 15.9c-1.4 2-3.8 3.2-5.7 4.4 1.7 3.8 3.8 7.5 4.8 11.5-1 1.4-3.8 3.2-5 1.2-2.4-3.7-3.7-8-5.7-12-3.5-1.2-6.7-2.2-9-5.2-1.8-2.8-2.4-6-3-9l-2.6-.1-10.8-9.6 1-3.8c1.7.3 3.3.1 4.7 1.4l8.6 8c2.4-5.8 7.6-8 13.4-9l2.7-7.6c.5-1 1-2.8 2-2.8z"/><path d="M295 177.3c2.7.2 5 3 5.3 5.7-.1 2.6-1.3 5.3-2 7.8-3.5 1.3-7.8 2.6-11-.1-3.4-3-3.5-10.2.7-12.7 2-1.4 4.8-1 7-.7zm-137.2 5.2a108 108 0 0 0 20.7 7.9l3.4 11.3-.3 2-2.7-1.4c-6.3.3-12.7 1.4-19 2 .4-1.5 2-3.7 1-5-2.5-5.2-5.6-10-7.7-15.5 1.5-.4 3-.8 4.4-1z" class="D"/><path d="M280.4 190a13 13 0 0 1 1.3 3.9l-8.2 8.5c-1.2 1-2.7 2.8-4.5 2-.7-1-1.5-1.8-2.2-2.7 3.4-2.7 6-6 8.7-9.2 1.2-1.4 3-1.7 4.8-2.4z"/><path d="M128 195.2c1 2-3.2 2.3-3.6.7.5-1 2.7-1.5 3.6-.7z" class="E"/><path d="M136.5 196.2c5.4 3 10 8 13.6 12.7 1 1 2.3 3 3.8 2.6 7-1 14-2.5 21.3-3.4-.2 3-.5 6-.7 9 2.7 2.8 5.7 5 8.8 7L172.5 240c3.7 6.7 6.2 13.8 8.8 21-3.2.8-6.8 1-9.7 2.6-2 2.5-3.2 5.6-4.6 8.4-4-.5-7.6-.8-11.2-2.6-3-1.4-5.6-3.5-8.7-4.4-2.3 1-3.5 3.3-5 5.2-2.8 4.2-7 7.7-11 11-2-2.5-4-5.8-6.8-7.6-3-1-7 0-10.2.1-.1-5 .2-10-.1-14.7-.2-1.6-.5-3-2.3-3.4-5.7-1.2-11-2.8-16-6 1.3-3 3-6.2 4-9.5-1-3.3-3.4-6.2-5.2-9 2.8-1.7 5.6-3.6 8.6-4.8 3-1.2 5.8-1.6 8.8-2.4.7-.1 1.2-.5 1.6-1.3 1-2.5 1-5.4 1.4-8 .6-4.5 2.3-8.4 4-12.6 3.2.4 6.7 1.4 10 1 3-1 5.2-4.7 7.7-6.7z" class="B"/><path d="M182.4 202.7c1.7 3.8 3.3 9 6.6 11.7 3.8-.7 7.5-2.5 11.2-3.8 3 2 5.7 4.7 9 6.4 1 .4 1.8.4 2.8-.1 5.7-3 8.7-8.3 13-12.5-1.5 2.6-3.8 5-4.8 7.7-.3 3 1 6 1.8 8.7l-13.7 3.4-2.5 17c-3-.2-6.6-1-9.5-.1-2.3 1.4-4.2 3.8-6 5.6a40 40 0 0 1-8.2-8.9l10-15.7c-3.2-3-6.8-5-10.5-7l1-12z" class="D"/><path d="M135.7 212.2c2 3.8 3 8.4 4.6 12.5 4.2 1 6.7 2.5 9.8 5.5 3-3.4 6.6-6.3 10-9.2h4.4c-.2 2-.1 3.5-1.8 5-3 3-6 7.6-10.5 8.2l.6 5.3 12.5 13c-1.4.8-2.8 2-4.4 2.4-4-2.2-7-6.4-10.3-9.5-1.8 2-3.6 4.4-6 5.5-2.4.8-5.2.7-7.7 1l-4.5 9.6c-1.6.3-3 .6-4.7 1-.8-4 2.3-8.7 3.7-12.4-2.4-2.5-4-5-5.7-8l-13.4-.6c-1.2-1.8-2-3.6-2.6-5.6 5.2.2 10.3.5 15.5.7 1-2.4 2-5.3 3.6-7.2 1.6-1.6 4-2.7 6-3.8-1.3-3.6-3.5-7.3-4-11.2.6-2.6 2-3.6 4.5-2z"/><path d="M269.3 221c3.2 1.8 6.2 6 9.8 6.4 3-.6 6-2 9-3.2l5.2 23a129 129 0 0 1 20.5 8c-1.6 3-4.3 6.2-4.7 9.5 1 2.8 2.6 5.5 4 8l-13.8 5.4c-2.2 1-4.3 1.7-4.3 4.5-.4 6.8-1.2 13.3-2.8 20-3.8-.5-8-1.7-11.8-1.3-2.6 1-5 2.6-7.4 4-3.3-3-6.2-6.3-8.3-10.3-1.3-2-3-5.8-5.8-6-2.6.7-5 2.2-7.5 3-4 1.7-8.2 2-12.5 2.5-.5-3-.7-6.2-1.7-9-2-2.7-5.8-4.3-8.6-6 2-5 5.5-9.2 8-14-.5-2.6-3.2-4.7-4.8-6.6-2.8-2.8-4.8-6.2-6.7-9.6 2.7-2 7.3-3.7 8.6-7 .8-3 .4-6.5.5-9.6 4 0 8.2-.2 12 1 2.2.6 4.4 1.7 6.7 2 1.3 0 2.6-1.5 3.5-2.3l12.8-12.4zM136 230.8c2.3 0 4.7-.1 7 .4 4.4 1.7 5 8 3 11.5-3 3.2-9 4.5-12.5 1-3.5-4.2-2.6-10.7 2.7-13zm-70.3.2a48 48 0 0 1-1.5 20c-.7 2-2 4.8-4 5.5-3-.1-6.2-.5-9-1.6-2.6-1-4.5-3-4.5-6 .3-2.8 2.2-5.3 4-7.3a65 65 0 0 1 15-10.7z" class="B"/><path d="M278.6 239c-.3 4.2-1.6 8.4-2.6 12.5 3.8 2.7 5.8 4.8 7 9.5l13-2.4c2.5.6 3 3.3 1.6 5.2-4.8 1.6-10 2-15 2.8l-3 6.6c.4 4.4 2.6 8.6 2.8 13-.5 2.5-3.2 3.8-5 1.6-1.7-3.5-1.7-8-2.5-11.8-3 .4-6.2 1-9 .4-2.3-.6-4.4-2.5-6.3-4-3.8 1.7-6.6 4.5-10 6.8-2.5.5-3.4-.6-4-2.8 2.3-4 7.3-6.4 11-8.5-.2-2.5-.2-5.2-.7-7.6-4.7-4.6-11.4-6.3-14.6-12.2 2-.2 5-1.6 7-.3 3.7 2.3 7 5.2 10.8 7.5 3.6-3.6 6.2-4.6 11.2-5.2l2.2-11c.6-2.8 4.8-1.8 5.8.2z"/><path d="M335 237.8c8 3.7 17.6 7 21.4 16l-5.4 7c-2 1.7-5.5 2.7-8 1.4-3-1.5-4.5-4.5-5.5-7.5-1.7-5.3-2-11.4-2.4-17zm-68.6 18.5c3.5-2.4 9.3 1 11 4.2 2.7 5.6-4.8 12-10 10-3-1.5-5.8-4-5.5-7.6-.1-3 2.3-5 4.6-6.7z" class="B"/><path d="M188 264.4c4.3 3.5 8.6 7 10 12.6 2 6.5-1 12-2.5 18.3-6-3.5-11.7-8-14-14.6-1-4.2-1.2-9.4 1-13.3 1.8-1.2 3.8-2 5.7-3zM19.5 271a797 797 0 0 0 83.3 26.2A1030 1030 0 0 0 217 321a813 813 0 0 0 163.9 8.3v8c-73 4.3-145.3-3-217-17.4a650 650 0 0 1-51-12c-31.6-8.3-63-17.8-93.6-29.6V271zM331 285c5.8 5.4 6.4 12.6 6.7 20-7.2-1.4-13.8-3-18.6-9-4.2-4.7-4.5-10.3-4.6-16.3 6-2 12 1.5 16.6 5.4z" class="E"/><path d="M18.4 283.6L47 294.3c.4 4.4.1 8.8.2 13.2l-28.8-10.8v-13z" class="C"/><path d="M52.7 296l19.6 6v30.4c-6.6-2-13-4-19.6-6V296z" class="F"/><path d="M19.5 303.5l3 1a650 650 0 0 0 24.7 8.6c.2 5.8-.4 11.7.3 17.4 2.2 2 5.8 2.4 8.5 3.3 7.4 2 13.7 5 21.2 5.4.7-5.5.5-11 .5-16.5l38.6 10.3c.2 5.4-.4 11 .3 16.4L140 356c2 .4 6 1.8 6.5-1.3.6-4.7.1-9.6.2-14.4l38.6 8.2c.1 5.5-.5 11 .4 16.5 3.7 1.3 7.7 1.8 11.5 2.7 6.3 1.2 11.8 3.4 18.4 3 .3-5.7.2-11.3.2-17a706 706 0 0 0 38.6 5.1c.3 4.6-1 10.4.8 14.7 3 .6 6 .8 8.8 1l21.2 1.7a151 151 0 0 0 .1-14.7c12.5.8 25 1.5 37.7 1.8V377c2.3 1.3 5.5 1 8 1.3 7.7.3 15.6 2 23.2 1.2.4-5.4.3-10.8.1-16.2l26.6-1V467c-97.4-3-194-16-288.2-41.7-24.3-6.7-48.8-13.8-72.3-22.8l-1-99z" fill="#9260c7"/><path d="M77.7 303.8l2.8.8 35.7 9.6v14l-38.6-11v-13.4z" class="C"/><path d="M121.7 315.6a391 391 0 0 0 19.6 4.7V351l-19.6-4.8v-30.5z" class="F"/><path d="M146.7 321.7l38.6 7.8v14c-13-2.4-25.7-5.2-38.6-8v-14z" class="C"/><path d="M190.7 330.4l19.7 3.3.6 32-20.3-5.4v-30z" class="F"/><path d="M215.8 334.5l38.6 4.8v14l-38.6-5v-14z" class="C"/><path d="M259.6 340l20 1.8.6 29.4-21-2 .5-29.2z" class="F"/><path d="M285 342h.7c12.5 1 25 1.3 37.6 1.8l-.2 14-37.8-1.7-.2-14zm97 .8v13.6l-28 1.3-.2-13.8 28-1z" class="C"/><path d="M328.8 344h19.7l.6 30-20.3-.7V344z" class="F"/><path d="M20.5 408.3l3 1.2c10.3 3.8 20.7 7.3 31 10.5.4 1 1.2 1.3 2.2 1h1c.4 1 1 1.4 2.2 1h1c.5 1 1.3 1.3 2.3 1 6 1.4 12 3.2 18 5 6.3 2.5 12.6 3.5 19.2 5.3 10 2.3 19.7 5 29.8 6.7l15.5 3.4a1214 1214 0 0 0 235.1 28.4v85c-99.8-4-199-18.4-295.4-44-21.6-5.8-43.3-11.8-64.3-19.4l-.8-84.8z" class="B"/><path d="M54.7 420c1-.3 1.8.1 2.2 1-1 .3-1.8 0-2.2-1zm3.3 1c1-.3 1.8.1 2.2 1-1 .3-1.8-.1-2.2-1zm3 1c1-.3 1.8 0 2.3 1-1 .4-1.8.1-2.3-1z" class="E"/><path d="M81.4 427.8l3.4.8c15 4 30.3 7.6 45.5 11.2-10-1.6-20-4.4-29.8-6.7l-19.2-5.3z" class="D"/><path d="M21.4 499.5c3.2.7 6.3 2 9.4 3L73 515a1350 1350 0 0 0 133.8 29.3 1414 1414 0 0 0 174.1 17.9v32.3c-119.6 0-239 0-358.7 0l-.8-95z" class="E"/></svg>