<svg xmlns="http://www.w3.org/2000/svg" viewBox="0 0 401 610" width="534.7" height="813.3" xmlns:v="https://vecta.io/nano"><style><![CDATA[.B{fill:#d96038}.C{fill:#858585}.D{fill:#fff}.E{fill:#ffcdde}]]></style><path d="M0 0h401v610H0V0z"/><path d="M20.5 15.4c3.5-.3 7-.1 10.5-.1h353V82l-34.3 26.2c-6-3.6-12.6-4.5-19.6-4.6-1.5-5.7-2.6-13-6.2-17.7-3.6-.7-7.7 1.5-11.2 2.4l-8.2-6c-1.5-1-2.3 0-3.5.8-4 3-6.6 6.7-9.4 10.7l-17-15.7c.5-8 .8-16 0-24l-3.3-2.8H262c-2.2-3-4-7-7-9.5-7.5 1-15 5.6-21.5 9.4a38 38 0 0 0-22.1-8c-2.6 3-2.8 8-4.2 11.5-3.3 1.3-7.2 2-10.2 4-3.6 2-1 8-.5 11-2.7-2-6.5-3.2-7.5-6.8-2.6-6.7-5.4-13.4-10.2-19-2.8-3.2-6.4-5.8-10.7-6.2-4-.3-7.7 2-10.4 4.5-3.4 3.2-5.8 7.6-5.2 12.4.5 4.3 3.4 7.5 7.2 9.3 7.7 4 17 4.5 25.5 5 2 .1 3.5 1.3 5.2 2.4l10.5 8a84 84 0 0 0-12.5 14c2.6 3 5.4 5.7 8.2 8.5l-1.4 10 2 2.8 22 2.7c1.5 7.3 4.5 13.5 9 19.6 4-.3 8-1.2 12-2 5 2.4 8 6 14 5.5l5-8.5 5.8 7c-2.7 6.6-7 13-8.3 20l-3 1.5a37 37 0 0 0-16.5-13.3c-3.5-1.2-7 3.5-9.7 5.3l-12-1.2c-1.8.1-2.2 1.5-2.7 3-2.2 7.6-2 15-2 23-6.3 3-12.6 6.5-17.7 11.3l5.7 10.3-4 10.3 2.7 3.6-30 26.2-30-31.2 11.3 1c1.4 0 3.3-1 3.3-2.7.4-3.7.1-7.5.1-11.2l8.4-5c1.3-8-5.5-15-10.4-20.5l6.8-13c1-1.8.3-4-1.2-5.2-2.6-1.5-5.5-2.6-8.2-3.8-.8-3.5-.4-8.4-2.5-11.4-4.5-1.6-10.4-.5-15 0l-1.2-5.3 12-10.2c1.5-1.2 2.3-2.7 3.2-4.4l-8.4-8.8c.6-4 3-9 1.5-13-8.5-1.5-17.2-1.2-25.6-2.8 4.7-3.2 9.5-5.5 13.4-10 8.4-9.4 8.2-24.8.4-34.5-.8-.6-1.6-.8-2.4-.6-8.2 2-14.8 8.2-18.2 16-2 4.6-2 9.3-1.3 14.2-1.7-2-3.7-5.5-6.5-5.6-3.4 1.6-6.3 4.2-9.4 6.4L77 73.6c-1.8-.4-3.2.7-4.3 2-4.3 5-7.2 11.7-9.4 18-6.5 1-13 1-18.8 3.8-1.8.8-3.5 1.4-4 3.6.4 3.8 2.3 7.6 3.4 11.3-2.2 3-5.3 5.6-6.6 9 .2 2.3 2 4.4 3.5 6 3.6 3.5 8.7 6 13.2 8.4l-1.8 6-31.7-20.4.1-106z" class="D"/><path d="M322 39.3c4 0 7.8-.5 10.4 3 0 4.3-.1 8.4-1.5 12.5-2 6.2-6.7 11.4-12.3 14.6C312.4 73 305 74 298 73.4c-1-.6-2.7-2-2.5-3.3.3-8 3-16.3 8.2-22.3a26 26 0 0 1 18.2-8.5z"/><path d="M167 43.4c2.8.5 5 2.6 6.8 4.7 3.8 4.5 6.6 10 9.2 15.4-6.3-.2-13-.3-19-2.7-2.4-1-5-2.4-6-5-1.2-2.4.3-5 1.6-7 1.6-2.5 4-5.3 7.3-5.3z" class="B"/><path d="M327 45.2c-1 6.4-2 12.2-7.2 16.6-5.2 5-11.6 6.2-18.5 6.4 1-7 2-13.4 8-18 5-4.5 11.2-5.3 17.8-5z" class="C"/><path d="M252 48.6l7 9.4h10c.2 6.7-1 13.3-1.2 20-.3 2.8 1.6 4.3 3.4 6L284 95l-6.7 6 .7 10.8-15 .6c-1.6.2-3.7.5-4.5 2.2-1.3 3-1.8 6.2-3 9-1.3 3.7-3.4 7-5.5 10.2-2.7-1.8-5.4-4-8.5-5.2-3.2-.2-6.6 1.2-9.7 2-2-3-4-5.7-5-9-1.2-3.3-1.7-7-2.5-10.3l-22.3-1.3 1-6c1.2-4.3-4-7.6-6.5-10.5 2.7-3.2 5.4-5.8 8.7-8.3 2-1.7 4.6-3.8 3-6.8l-6.2-14.7c3-1 7-1 9.7-3 2.7-2.4 2.8-7.3 3.8-10.6l9.5 3.4c3 1.7 5.3 4 8.3 5.5 3-1 6-3 9-4.8a84 84 0 0 1 10-5.3z" class="B"/><path d="M121.6 51.8c2.7 6 4 12.2 3 18.7a33 33 0 0 1-13.1 13.7c-2.7-5.8-5-11.2-3-17.8 1.6-7.4 7.2-11 13.2-14.6z" class="C"/><path d="M252 65.3c1.7.5 3 1.3 4.6 2L249 80.7c1.3 3 2.5 5.8 2 9-.2 3.4-1.8 6-3.7 8.8-.4 4.8-.6 9.7-1.4 14.5-.1 1.2-.7 2-1.8 2.7-1.2-.7-2.4-1.6-3.6-2.5l.7-11.6c-2-.1-4.6.3-6.6-.4-3-1.7-5.5-4.3-8-6.5-4 .8-7.5 2.4-11.4 3.2-.7-1.5-1.4-2.7-.6-4.4 3-1.5 6.8-2 10-2.8.2-4.2 1-7 3-10.7-2.7-4-7.5-8-8.7-12.8l4.8-.8 8.5 10.2a41 41 0 0 1 13.3.5c2-4 3.7-8.4 6.5-12z"/><path d="M96 78c3.6 5 7 10 9.7 15.3 1.2 2.4 3.3 5 6.3 4.8l18.2.6c-.7 3.2-2.2 6.7-2 10 1.2 2.8 4.4 4.7 6.5 6.8-4.7 4.6-10.7 8.5-14.3 14l2.4 8-3 1.4c-4.4-5.6-8-11.5-14-15.5l-3 .2.5-4.7c4.3-2.7 9-5 13.2-7.5 0-2 0-3.3-2-4.3-4.6.7-8.8 3.5-12.7 6-3-3.6-5-5-9.3-6.7-.5-4-.3-8.4-1.5-12.2-1.3-1-3.3-.7-4.8-1 .1 4.5.8 8.8 1.5 13.2-5 2-8 4.3-10.6 9l-13.6-4c-3-.3-3 2.7-2.5 4.7 5 2.2 10.7 3.2 16 5 .8 2.6 1.7 5.2 2.8 7.7-2.4 3-5.2 5.7-7 9-.4 1.8 1.5 2.5 2.5 3.7l2.3-1.4a173 173 0 0 0-.7 10.7l-7.5 3c-1.2-1.2-2.3-3.2-4-3.7-2.6-.7-5.3-1-8-1.4a48 48 0 0 1 3.4-15.8c-4.6-4.7-10.8-7.8-16-11.7 2-2.5 4.3-5 5.8-7.7-.5-3.7-2-7.4-3-11 4-1.2 8-2.7 12-3 2.7-.1 5.5.3 8.3.5 1.6-4 2.4-8 4.2-11.8 1.3-3 3-5.6 4.8-8.3 4 1.5 7.6 3.2 12 3.6l7-5.6z" class="E"/><path d="M242.7 83.3c2.4 1.6 3.2 3.8 2.7 6.7-.8 2-2.2 3.8-3.4 5.6l-6.3.7c-2.5-2.4-4.7-4.7-5-8.3-.1-2.7 1.4-4.5 3-6.5 3.4 0 6.3-.5 9 2z" class="B"/><path d="M251 90.8l15.5 1.8c2 .2 1.8 4.8-.5 4.7-5.2.1-10.5-1.5-15.7-2.2l.7-4.4z"/><path d="M304 90.2c2 1.5 4.4 4 7 4.6 3.3.2 6.7-.7 10-1.2 1.5 5.3 2.2 11 4.3 16 6 1.7 12.3 2.2 18.4 3.3-.7 3.2-2 6.7-1.7 10 1.3 3 4.4 5.6 6.5 8.2-2.4 2.6-5 5.5-8 7.2-2.5 1.4-5.4 2-8 3.2-1 2.2-.6 5.2-.5 7.5a84 84 0 0 1-.3 14.8c-3.4.1-7-.3-10.4.4-3 1.6-4.6 6-6.3 9-5.2-3.4-10.2-7-15.5-10.4-2.8-1.7-5.5-.7-8.2.4a133 133 0 0 1-15.7 5.5c-.6-2.8-.6-6.3-2.2-8.8-2.3-2.2-5.8-3.3-8.7-4.7l4.5-11c1.3-2.7 3-4.8 1.5-8-2.3-4.2-5.7-8-8.5-12l1.8-4.7 21-3-.6-10 7 2 3.5-7c1.8-3.7 4.3-6.7 7-9.6l2-2z" class="B"/><path d="M381.8 92.3l-.4 26.7c-.1 1.7.1 4-.7 5.5-2 2.6-4.8 4.6-7.2 7l-35.3 32 .6-6.7 2.8-1.4a104 104 0 0 1-3.4-9.2 41 41 0 0 0 15.1-9.8c1.2 1.7 1 4.8 3.8 4.2 2.4-1.7-.1-5.4-.5-7.7l.4-2.3a39 39 0 0 1-5.5-11.3l-3-.7c3.8-4 8.4-7 12.7-10.3 7-5.2 13.7-10.7 20.6-16z" class="C"/><path d="M368.4 104.6l6 21.2-3 3.2c-3-7.4-4.3-15.5-6-23.3l3-1.2zm-57.7 2.7c1.8 3.5 0 8.3-.7 12 3 2 5 4.4 6.7 7.5l14.4-2 1.3 2-2 2.7-12.4 1.8c-1.4 5.5-3 8-7.4 11.7l7 12c-1.2 1.8-3 3.6-5 1.5-3-3.4-4.7-8-7-11.8-3.7-.5-6.7-1.3-9.8-3.4-1.6 4-3.8 8.2-7 11.2-1.3 1.2-3.6 1.2-5.2 1.6l-.7-2.8c2.5-3 4.4-6 6.5-9.3 1-1.6 2.5-2.3 4-3.2l-2.4-5c-5.3-2-9.7-6.3-13.8-10l4-2.5 10 6.8c1.2-2.3 2.5-5 4.4-6.8 2.4-2 6-2.6 9-3.3 1-3.3 1.4-7 2.7-10 1-1.3 2.4-.8 3.7-.6z"/><path d="M88.8 112.4c2.3.6 5.8.5 7 2.8 1.6 2 3 4 2 6.8-.7 2.7-3.5 4-5.6 5.5-2.4-.6-5.5-.8-7.6-2.2-3-2.8-2-6-1.6-9.5 2-1.2 3.7-2.3 5.7-3.4z" class="E"/><path d="M302 123.5l3 2 3-1.2c2.3 2.4 4 4.3 3.5 8 0 5.2-4.7 7.8-9.5 6.8-4.7-.7-6.6-5.3-5.7-9.7.5-3.2 3-4 5.5-5.7z" class="B"/><path d="M184.4 126.6c4 1.5 8.8 3 12 5.8 4.4 3.7 8.2 8.8 9.4 14.6A34 34 0 0 1 203 168c-.8 1.6-1.6 3.3-3.8 2.7-4.8-1.4-9.4-4.3-13-7.7-4.4-4-6.2-9.4-7.6-15-1.4-7.2 1.8-15.3 6-21z"/><path d="M384 130v50.5c-9.6-1.5-19.5-1.2-29.2-2a42 42 0 0 0-12 13.4c-1.8 3.2-2 5.7-1.5 9.3l7.3 2.4c-8 1-16 .7-23.8 1l-8.2-12.4a3931 3931 0 0 1 67.4-62.3z" class="D"/><path d="M23 130.4l26.7 17.4-4.7 16.5c-7-6-14.4-11.7-22-17.2v-16.7z" class="C"/><path d="M104.8 130.3l8.4 9.4 4.8 7.7 8.6-3.5c4.2-1.2 8.6-1.5 13-2.2.6 2.7.6 6 2 8.5 2 2.3 5.3 3.8 8 5.4l-8.2 15a79 79 0 0 1 12.3 14.4c-2.6 2-6 3.8-8 6.5-1.3 3-.7 7-.8 10.3l-20.4-2.6c-5.2 4.7-9.6 10.3-14.4 15.4-2.8-2.2-5.7-5.5-9.2-6.5-3.2-.2-6.6 1.6-9.6 2.4-2.6-6.6-4.4-13.3-4.8-20.5-6.3-4.4-14-5.6-20.6-9.5l4.3-9.6-4.4-8c4.4-2.2 9-4 13.6-5.5 2-.8 4.4-1 4.3-3.6.4-7 .5-13.7 2.7-20.3 3.7.5 7.7 1.6 11.4 1 2.5-1 4.7-3 7-4.5z" class="B"/><path d="M186.4 132c6.5 3.2 12 7.4 13.8 14.8 1.7 6 .6 11.5-1.6 17-5.7-3-10.8-6-13.5-12-2.3-6.6-1.3-13.4 1.3-19.8z" class="C"/><path d="M100.6 148.4c1.8 4 2.5 8.4 3.7 12.5 2.6-1 5-2 7.8-1.8 3 .2 5.5 1.6 8.3 3 2.7-1.6 5.3-3.4 8.2-4.5 2-.7 5 .8 3.6 3.3-2 2.6-5.2 4.5-8 6.2.5 3.6.4 6.8-.2 10.4l12.5 8.3-4.5 3-11.2-6.8c-4 2.5-8 3.2-12.7 3.4-.7 4-1 8.2-2.5 12-2 .6-3.7 2.4-5-.4.3-4.8 1.7-9.6 2.3-14.4a32 32 0 0 1-4.8-8.1c-4.7 1.2-9.4 1.8-14.2 2.6l-3.7-2.8c1-1 2.3-2.2 3.6-2.5a55 55 0 0 1 14.2-1.8l2-4.2a86 86 0 0 1-3.6-17.2l4-.2z"/><path d="M20.4 153.6A338 338 0 0 1 58 185a105 105 0 0 0-9.3 5.5c-6.3-4.6-13.8-7.5-21.6-8-.8.4-1.5 1-2 1.5-2 3.7-.8 9-4.3 12l-.3-42.3z" class="D"/><path d="M236.6 153.8c5.4 3.3 9.6 7.4 12.2 13.3l2.7 1.5c6.2-1.7 9.6-6.8 16.6-5.2 1 3.8 1.2 8 3 11.6 3.5 2 9-1.2 12.6-1.6-1.7 4.3-3.8 8.4-5.6 12.7-.8 1.7-.2 3.7-.1 5.6a41 41 0 0 1 8.7 7.2c-1 4.7-.8 9-4.8 12.3l1 4-10 4.4c-3 1.2-6.3.5-9.4.4-1.6 2-3.2 4.2-4.6 6.3-3.4-2.3-6-4.7-10.3-4.6-3 3-5.7 6-8.2 9.2-3 1-6 2.4-8.7 3.8-3.2-5.6-5.7-11.4-7-17.8-.5-1.5-.3-3.5-2.2-4l-20.2-5.7 4.8-8.7-6-8.8a146 146 0 0 1 12.5-6.9c2-1 3.4-2.5 5-4-1-7-.5-13.3.6-20.3 3.6.1 7.8 1 11.3.2 2.5-1.2 4.5-3.3 6.8-4.8z" class="E"/><path d="M51.4 154.5l10.8 2.4c-1.5 1.2-4 2-4.3 4.2.6 3.8 3 7.3 4.6 10.7l-3 5.4L48 167l3.4-12.4z" class="C"/><path d="M112 164.5c2.8 0 3.4 2 5 4l1.8 1 1 2.6c-1.6 2.8-3 7.7-6.6 8.2-4 1-6.8-1.7-8.4-5-3.5-4.6 2.2-11.7 7.4-10.8z" class="B"/><path d="M295.2 168.5c5.5 5 7.4 12 13.4 16l1.4-2.5-5-7c3.8 2.2 7.8 5 12 6 3.8-.6 5-7.3 7.4-10 2-.5 4-.5 6-.7l-16 15c-4 3-8.5 5-12.2 8.7-4.7-1.8-8.3-4.3-13.5-2.4l-4-3.7 6.3-15.3-1-2.4 5-1.7z" class="C"/><path d="M230.2 172.3c1-.5 2-1 3-1.3 2.2 4 3.7 8.5 5.4 12.8 2.5-1 4.7-2.2 7.4-2 2.5.2 5 1.8 7 3 5-2.5 7-7.5 12.7-6.8a7 7 0 0 1 .8 2.9c-2.8 3-6.3 5.5-9.6 8l1 8.4c4.4 2.4 9.4 4.2 13.5 7 2 1.8.2 3.4-.4 5.5l-14.5-7.6c-3.7 4.2-6.2 5.8-11.8 6.6l-1 11-3.3 2.4c-.7-1-2-2-2-3.4 0-3.8.6-7.6 1-11.3-3.5-2.6-5.7-5-7.6-9.2-5 1.4-9.5 3-14.5 3.7l-.7-4.4 14.8-4 2.4-6-3.2-9.6c-.6-2-1.3-3.8-.6-6z"/><path d="M384 182.4v412.3c-14.4 0-28.7 0-43 0-1.4 0-3 0-4.4-.3-1.8-1.6-3.2-3.6-4.6-5.5-12.8-17-23.3-34.7-34-53l-38-60c-16-20.2-30.4-40.6-38.5-65.5-2-6-3.8-12-3.6-18.5l2.5-71c.1-1.7.1-3.2.8-4.8 1.7-.7 3.6-1 5.4-1.6 6-1.6 11.3-4.2 16.8-6.8 2 2 5.7 3.8 6.3 6.8l5.2 16.8c.6 2 1.5 4.5 1.2 6.7-1 7-3.3 13-3.2 20 .1 4.6.8 9.6 4.2 13 3 2.7 7 3.2 10.7 2.4 4-1 8.6-2 11-5.6 2.6-3.3 2.3-8 1-11.6-2.8-7.2-8-12.3-14-17-1.8-1.7-4.5-3.4-5.2-5.8l-5.2-16.7c2.7 1.4 5.6 3 8.6 3.8 1.4.2 3-.1 3.6-1.5 1.6-2.7 3-5.6 4.3-8.4 3.8-.8 9.5-.2 12.3-3 1.7-6.4 2.7-13.5 2-20l8.5-2.2 6.7 7.3 4.3.7c6-3.4 10.4-8.6 14.5-14l12.2 4.6c1.3.4 3 1.2 4.5.6 1.3-.4 1.7-2 2-3l2.5-8.8c3.3-1.3 6.8-2.2 10-3.8.5-.7.7-1.5.7-2.4-.3-7.7-3.2-14.7-7.2-21.2a42 42 0 0 0 12.6-17.8c-2-3.3-4.7-6-7.4-9 0-4.4 1.5-9.7-.3-14 4.7-.3 9.3-.1 14-.2 3 .1 6-2 8.3-3.6 5.3-3.8 8.6-9.3 10.8-15.3l1-2.6z" class="D"/><path d="M359 184c6.3-.5 12.7-.1 19-.2-2.3 4.3-4.4 8.6-8.3 11.8-2 1.5-4 3-6.5 2.8l-16.3-1.2c2-6 5.6-11.7 12.2-13.2z" class="C"/><path d="M243.4 187.5c5-1.5 9 3 9.8 7.6-1.3 4-3 7.3-7.2 8.6l-2.3-1.7H241c-1.5-1.8-3.7-3.7-3.8-6.2-.5-3.7 3-7.4 6-8.5z" class="E"/><path d="M67 188.7c2.3 2.7 4 6.2 6.6 8.6 2 1 4.8.3 7 .4L83 208c.7 4-.6 8-.1 12 .7 2 2.8 3.5 4.4 4.8l12 9.4c-2.4 2.4-5 4.6-7 7.3-.4 3 .6 6.4 1 9.4-5.7.6-11.5.6-17.2 1.5-2 .3-2.7 2.6-3.5 4.3-2 6-4.8 11.3-7.5 17-2.5-1.7-5-3.6-7.8-5-3-2-7.4.8-10.5 1.7-2.2-3-4.2-6-5.3-9.7l-2.2-9.7c-7.2-.6-14.3-1.4-21.5-2v-21.7c2-2 4.4-3.6 5.7-6.2-1-3.8-3.6-7-5-11-.8-2.3-1-4.6-1-7 3-1 6.5-1.5 9-3.3 2-2.6 2.7-6.7 3.8-9.8l10.3 3.4c2.7 1.3 5 3.6 7.4 5.6 6-4 12-8 19-10zm244.5 6.6c3.3 5.2 6 11 9.7 15.8 2.2.4 4.6 0 6.8-.1 5.5-.6 10.8-.4 16.3-.4l-.7 9.6c2.2 2.6 4.6 5 7 7.5-2 3.6-3.8 7-7 9.7-2 2-4.8 3.4-6.5 5.6-.1 3.4 2.5 6 4 8.8 2.4 3.8 3.6 8 4.7 12.2-3 1.2-7 2-9.4 4.3-1.7 2.3-2 5.8-2.8 8.5-5-1.8-9.7-4.3-14.7-5.6-1.8-.5-3 1.4-4 2.4l-10 12c-2-2.3-4.2-5.2-6.8-6.8-3.5-1-7.7.7-11.2 1.3-.6-3.4-1.4-6.8-1.7-10.2-.2-3 1-6.4 1.7-9.3a44 44 0 0 0-7.7-4.7c-4.2-2-7.6-5.2-11-8.3l5.5-9.3-5-9a72 72 0 0 1 17.6-8.1c3.5-1 3.7-4 4.3-7.2l3.5-16c2.5 1.2 5.2 2.6 8 3.2 2.6.1 5.2-2.4 7.2-4l2.4-2z" class="B"/><path d="M67 204.8c1.5.5 2.8 1.2 4.3 1.8-2.4 4.5-4.8 9-7 13.6 1.2 3.5 1.8 6.8 2 10.5 5.2.4 10.7.1 15.8 1.2.5.7 1 1.4 1.4 2.2-1 1.3-2 2.4-3.3 3.5-5.2-1-10-1.5-15.2-3l-2.7 3.5-1 13c-.3 2.2-2 3.6-3.4 5.3-.6-1.3-2-2.7-2-4.2 0-4 .7-8 1.2-11.8-3 .1-6.5.8-9.5 0-2.6-1.2-4.6-4-6.5-5.8l-5.6 2.3a102 102 0 0 0-3.2-5.8 337 337 0 0 1 7.1-1c.6-3.2.8-6.8 3-9.4a20 20 0 0 1 6.9-5c4-1.4 7.4.1 11 1.4l6.6-12.2z"/><path d="M126.6 207.4c9.5 8 18.2 17 27 26 4.7 4.7 8 9.7 13.3 13.7l36.6-32 9.3 2.6-2.3 1.3 9.5 10c2.7 3 4.2 6.4 6.3 10-4-.6-10-1.7-13.5.6-1.5 3-2 6.5-2.7 9.7l-16.2-13.7-2.7 2.4c5 4.8 10.4 9.2 15.7 13.8-2.6 1.6-5.7 3-8 5.2-1 2.3.2 4 1.2 6 3.3 5.8 7.7 11 12 16L190 266c-3.8-2.5-7.4-5.3-11.2-7.8-2-1.4-4.2-1.2-6.5-1.5 1 1.8 1.4 3.6 3.3 4.6l34.8 20.4c-2 4.8-4 9.5-5.5 14.4-1 2.2.5 3.4 1.4 5.3a135 135 0 0 1-33.1-11.4l-10.2-4.3c-1 .6-2 1.3-3 2l15.6 7.8a101 101 0 0 0 31.3 9.6l2-2-1.7-2 9 2.8c1 6-2.5 10.4-2.4 16.2l-1.5 61c-.1 7.4-.8 14.2.5 21.5a100 100 0 0 0 7.9 25c9 19.5 21.3 37.7 34.6 54.5 11 13 20 28 28.5 42.5 4 7 7.7 14.2 12 21l32.7 50c-23.4.1-47-.1-70.3.1 17.2-5.8 33.8-13.3 49-23.4l-2.7-2.4c-15.2 8.4-30.8 16-47 22.3-2.2 1-4.2 2-6.2 3.3l-45.6.1c-9-36.6-19.8-74.3-36-108.4 7.8-.7 15.2-3 22.8-4.6l51-12-1.6-3.8a292 292 0 0 1-47.6 11.8l-2-9.3 7-8.2-1-5.7 31.2-2c-.1-1-.1-2.2-.3-3.3l-33.3 1.8c-3-4-6.2-7.3-10-10.6 1.2-3.7 2.2-7.4 3-11.2 6-.3 12-.3 18-.7 2-.1 3-1.2 4.6-2-7-2.3-15-.6-22.2-.8-.2-2.8.7-7.7-2-9.4-3.8-1-8.2-.4-12-.5-2-3.3-3.4-7.7-6.3-10.2-5.2.3-9.5 3-14 5.5a51 51 0 0 0-9.9-10.7l2-2.7 1-58 6-54c1.4-4.8-2.7-7.7-5.2-11l-30.3-36c3.5-8 7.2-16 9.7-24.6l-3.4-.5c-2.6 7.5-5.6 14.7-9 21.8l-17.4-20.2c4 .5 6 3.2 9 5.2 1.5 1 3.7 1 5.4.3 6.3-3.3 10.3-8.2 14.8-13.4z" class="C"/><path d="M301.8 211.6c5.6 3.8 6 10 8.5 15.8l-2 1.7 6 1a56 56 0 0 1 14.7-6.7c2-.6 3 2 3 3.5-3.4 2.7-8 4-11.8 5.8 1.8 3.3 3.6 6.6 3.5 10.5-.2 2.3-1.4 4.7-2.3 6.8 3 2.5 5.8 5 8 8.2l-5 2.2-6.6-6.6c-3.3 1-6.5 1.4-10 1.6-2.3 4.4-4 9.2-6.7 13.4-2-.5-3.4 0-3.5-2.6 1-4.4 3.6-8.5 5.5-12.6-1.6-1.8-3.4-3.7-4.5-6-1-2-1-4.6-1.2-6.8-4.5-.1-9.3.4-13.8-.3-2.3-1-1.4-4.7 1-4.8 4.5-.5 9-.1 13.6-.2 2.4-2.4 4.8-4.4 7.6-6.2-1.7-4.2-3.7-8.4-5-12.7-.8-2 .5-3.2 1-5z"/><path d="M214.5 218l3.3.6 1.2 4-4.5-4.5z" class="C"/><path d="M55.2 220.5c2 1.8 5.5 3.5 5.7 6.5.6 3-1.3 5.5-3.6 7.4-3.8 1.5-7 1-10.3-1.2 0-1 .1-2.2.1-3.3l-2.4-1.7c1-2 2-5.2 4-6.4 2-.8 4.3-1 6.4-1.3z" class="B"/><path d="M142 229l3.8-.2c-.8 4.2-1.6 8.7-3.7 12.5L138 249c-1.4 2.4-2.4 4.8-5 6.3l-1.7-2c1.8-5.7 6.3-10.7 8.4-16.3 1-2.6 1.5-5.3 2.6-7.8z"/><path d="M250.5 229.4c2.7 1.7 5.3 4.2 8.4 5.2l4.7-.5 2.4 4c-2 4.3-4.5 7.7-5 12.5 2.7 2.8 5.3 5.6 8.5 7.8 3.3 2.4 7 4 10.5 5.7-6 .3-12 1.4-18 2-2-2.5-4-4.2-6.6-6 .8-4 2.8-8.7 2.3-12.8-1-.3-2-.5-2.8-.7-2.7 3-3 8.4-4.4 12.3-3.2.8-6.3 1.4-9 3.6-1.5 1.3-2.5 3.2-3.6 4.8-3.6-2-7-4.8-11-6.4-2.2.7-3.2 3.8-1 5 3.4 2.7 7.6 4.4 11 7.3 1 1.7 1.3 3.8 2 5.7l-6.6 9c-1 1.5-2.2 2.8-2 4.7.8 1 2 1.7 3 2.5l9-12c3.8 2 6.6 2.5 11 2.5l8.7 11.7c1-1 2.6-2 2.8-3.5-1.3-4-4-7.4-6-11 1.5-1.6 3.5-3.4 4.3-5.5.7-2 .7-4.2 1-6.3l14.5-2.5a59 59 0 0 0 2 12.3l-1.3 2 1 8.4c.4 3.5-.6 7.4-1 11-3.5.7-7.8.6-11 2.5-2 2-3 5.2-4.6 7.7a61 61 0 0 1-16.5-10.3c-2.2-2-5.2-1.4-7.6-.1l-15.2 6.4c-1-3.3-1.3-8-4-10.5-2.5-1.4-5.5-2-8.2-3.2 1.8-6 4.8-11.2 7.6-16.7-3.8-6.3-8.6-12-13-18l9.4-6.6 2-8.8c4-.1 8.2-.1 12.2 1 3 1 6 1.7 9 2 2-3.6 3-7.6 5.4-11 1.7-2.7 3.8-5 6-7z" class="E"/><path d="M314.8 235.3l3.5 5.5-1 3.4c-1.7 1.7-3.4 3.7-5.5 5-1.8.1-3.7-.1-5.6-.2l-4.2-5c.8-2.8.8-6.8 3.5-8.5 2.4-2.2 6.4-.5 9.3-.2z" class="B"/><path d="M107.2 236c14 15.4 27 31.6 39.7 48.2-6.3 29.5-6.7 61-7.3 91h-6.8c-2-3.3-3.7-7.6-6.7-10.2-6.4.6-12.7 5.5-17.8 9l-35.8-15.5L51 352l-30.6-7.2v-88.8l14 1.7c1.6 7.8 5.5 14.3 10.6 20.3 3.6-.8 7-2 10.4-3 1.2 1 2.8 1.8 3.7 3 .8 4.3.6 8.8 1 13.2.1 3.5 1 7.2-.6 10.4-3.3 7.3-7 15.5-7.4 23.6-.4 5 2.2 10.3 7 12 5.7 2 13 .8 17.4-3.4 3.8-3.4 3-9.6 1.8-14-2.3-8.4-8-13.6-12-20.8-1.2-5.6-1-11.5-1.8-17.2 2-.7 4-.7 5.5-2.6 4.4-5.8 7-13.3 9.5-20l18.7-2c1.6-.1 2.2-1.2 3.3-2-1-3.7-1.5-7.5-2-11.3a151 151 0 0 0 7.8-7.4z" class="D"/><path d="M157.5 248c1-.2 2-.3 3-.3-.1 3-1.2 5.8-2.2 8.6L151 276c-1.4-.6-2.6-1.4-3.5-2.7C149 268 152 263 154 258c1.4-3.3 2.2-6.7 3.6-10z"/><path d="M257.7 270.2c1 3.2-.7 5.5-2.6 7.8-1.7 1.4-4 2.2-6 3.2-2.7-1.8-5.4-2.7-6.3-6.2-1.2-3.2.4-6.2 2.7-8.4 3.4-3.7 11.3-1.6 12.2 3.6z" class="E"/><path d="M89.2 269c2.5-.3 5.4 1 7.7 2 5.2 2.4 10.3 5.7 14 10A27 27 0 0 1 115 302c-.5 2.8-1 6.3-3 8.6-9.4-1.3-20-6.4-24-15.6-3.7-6.5-3.2-14-1.7-21 .4-2 1.2-3.8 3-5z"/><path d="M92.2 275c6.6 2.5 14.8 6.5 16.8 14 1.8 5.3.8 10-.2 15.4-4.2-1.6-8.6-3.3-12-6.2-3.2-2.7-5.2-6.8-6.2-10.7-1-4 .3-8.7 1.6-12.5z" class="C"/><path d="M295.2 299l.8-.5c9-.4 20.5 1.8 25.8 9.8 5.2 7 7 17.4 5.4 26-6.6.6-14-.5-20-3.6-6.3-3.4-9.8-9.5-12-16-1.6-5-1.3-10.5-.2-15.5z"/><path d="M299.3 303.5c6.3.4 12 2 16.6 6.6 5.3 5 6 11.5 6.5 18.5-6.8-1-13.4-2.4-18.3-7.7-4-5-4.5-11.2-4.8-17.4z" class="C"/><path d="M63.3 304.3c4 5.2 8.2 11.2 10 17.5.8 2.6 1 6.4-1.2 8.3-2.4 1.8-6.2 2-9 2-2-.1-4.6-.4-5-3-2-7 1.8-15.5 4.3-22l1.2-3z" class="B"/><path d="M171 319.4l34 6 .3 2.4-2 1.2-47-8.2.3-3.7c4.8.3 9.8 1.4 14.5 2.3z"/><path d="M260.7 341c5.5 4.8 13.4 11.3 14.6 19 .7 3-1.7 5-4 6.4-3 2.2-6.7 1.4-10 .8-1.8-.3-2.5-3-3-4.4-1.4-7 .3-15 2.2-21.7z" class="B"/><path d="M151.6 342c8.2 1.3 16 3 24.2 3.6l26 2.2 2 3.4c-5.5 1-10.5-.1-16-.5-7.5-.7-15.2-1-22.5-2.4a429 429 0 0 1-15.1-3.1l1.2-3.2z"/><path d="M20.6 351.4c2 .1 4.3.6 6.4 1 20.6 4.2 41 11.6 60.5 19.2l-4 5.2-1.2-4.6-3 .6.5 3.6c-2 .7-6 .8-7 3-1 3-.4 6.4-.5 9.5l-7.7-4.3-1.7-20-3-.5c-.8 6 .5 12.2.6 18.2l-16.8-8.7-1.7-15.8-4.2.1 1.6 13.7-18.7-9 .1-11z" class="C"/><path d="M20.4 370.3l21.3 11 30.7 16.4c1.4.8 2.2 2.8 3 4-7 3.6-13.3 8-17 15.2l4 9.8-3 11.6-8-5.2c-3.3-2.3-7.4-3.8-11-5.4l-6.2 11c-3.7.1-7.6-.4-11.2.5-.8 1.5-.8 3-.8 4.7a85 85 0 0 0 4 21l-6 7V370.3z" class="D"/><path d="M153.8 371.3L183 374l21.4 2.7-3.4 3c-3.6.2-7.3-.6-11-1l-37.8-4.4 1.6-3z"/><path d="M123.4 372.5l5.4 8.7 10.8.8c-.1 6.8-1 13-4.7 19 1.4 2 3 3.8 5 5.4 4 3.3 6.5 7.2 9.8 11.2-2.2 2.8-5 5.5-6.4 8.7-.2 3 1 6.4 1.7 9.4-7.3 1.8-15.2 2.5-22.3 5-3.5 6-6 13-9 19-3-1.6-6-4.2-9.4-4.5-2.8.4-5.5 2-8 3-2-5-3.5-10-5.6-14.7-1-2.3-3-3.7-5.4-4.2-6-1.2-11.8-2-17.7-3 1-3 2.2-6 2.5-9.3-.3-3.3-2.6-6.6-4-9.7 2.6-2.7 5-5.3 8.2-7 3-1.6 6-2.8 9-4.4a52 52 0 0 0-2.5-8.3c-1.7-4.4-1.8-8.8-2-13.5 3.2-.7 7.2-.7 10-2.4 2-2 3.4-4.7 5-7a56 56 0 0 1 11.9 7.3l4.6.1c3.4-3 7-6 11-8l2.5-1.4z" class="B"/><path d="M122.3 389.4c1.6 1 3.2 1.4 3.6 3.4-2.3 4.2-5.8 7.8-8.6 11.6a19 19 0 0 1 3.3 13.1l13.3 4-1 3.8c-5 .7-10-2.5-15-2.7-3 1.2-5.8 3-8.8 4.3l2.3 15.2-4.2 2.4a51 51 0 0 1-2.8-18.5l-4-1.2c-4.8 1-9.6 1.7-14.5 2.6l-4-2.7c3-4 9.4-3.7 14-5-.5-3-1.3-6-1-9 .4-2.6 2-4.8 3.3-7-1.5-3-3-6-4.7-9l1.3-2.3h3.6l5.2 8.4a52 52 0 0 1 9.7.3l9-12zm32 11.2L203 402c2 .1 4 .1 5.7 1.3l-1 3-36.6-1.6-16.7-1v-3z"/><path d="M105.3 405.3c2 .3 5.2.1 6.8 1.5 1.7 1.6 2.4 4.2 3.4 6.3l-2 5.7c-3.5 1.4-6.8 4.2-10.4 1-4-3-3-6.4-3-10.6l4.3-.8.8-3.2zm59.7 8c1.8 2.6 3.3 6 5.8 8 3.3 1.5 7.5 1.2 11 1.6-.2 3.8-.3 7.8-1.6 11.4-1 2.6-2.4 5-3 7.7 1.6 3.5 5.4 6.2 8.2 8.7a34 34 0 0 1 6.6 8c-2.5 2.5-5.7 5-7.5 8 0 3.2 1.6 6.4 2.6 9.4-6 1.2-12.2 2.2-18.3 3.5-2.6.7-5 .8-6.2 3.6l-7.6 17c-2.4-1.6-5-4-8-4.7-3.2.1-6.6 2-9.6 3.4l-5-14c-.6-1.6-.7-3.4-2.8-3.7l-20.4-4.3 2-9.4 5.5-1.4a89 89 0 0 0 10-20l13.3-1.8c-1.5 3-3.5 6.3-4 9.6-.1 2.4 1 5 1.6 7.2-5.2 1-9.8.8-14.4 3.5 1.4 1 2.8 2 4.3 2.6a59 59 0 0 0 13.8-2.5c2.7 1.4 5.2 3.2 8.4 2.7 3.8-.1 6.2-2.2 9-4.3l15 3.5 1.8-4.4c-4.2-2-8.6-3-13.2-4 0-2.3.3-4.8-.2-7s-2-4.2-3.2-6c3.5-4.4 7-8.3 9.3-13.5l-4.5-.5c-3.4 3-6 7-8.7 10.6a82 82 0 0 1-4.8-1c2.4-5 .1-8.6-1-13.4l7-8c2-3 5-4.4 8.2-6.2z" class="B"/><path d="M44 436.2c5.8 3 11.3 8.3 17.8 9.5l4-3c6.2 2 12.5 3 19 3.5 1.7 5 3.2 10.2 5.3 15a94 94 0 0 0-3.6 7.5l17 14.8c-2.2 2.4-6 5-6.6 8.3.1 2.6.8 5.3 1.2 7.8-5.2.5-10.6.5-15.7 1.6-2.5.8-2.2 3.5-2.7 5.6a33 33 0 0 1-4.1 12.8c-3.5-1-7.8-3.3-11.4-2.6-2.7 1.4-5 3.5-7.6 5.2-2.4-3.3-5-6.8-6.4-10.7-.7-2.2-1.2-4.5-2-6.7-7.2-1.5-14.5-2.7-21.7-4l.4-9c-.4-3.7-5.2-5.5-7.8-7.6l12.4-15c1.2-1.7 3-3.7 2-6a71 71 0 0 1-4.4-18h8.4a56 56 0 0 0 6.4-9.3z" class="E"/><path d="M149 446.3c2.8-.2 6.7 2.4 7.6 5 .5 2.2.7 5.5-.8 7.4-1.8 1.7-4.3 3-6.7 3.4-3.5-.1-6.6-2.7-7.3-6.2-.2-1.8 0-3.7.2-5.6l2.6-1c1.3-1 2.7-3.2 4.5-3z" class="B"/><path d="M76 455.7l-9 9.8c2.2 2 4.2 4 5.4 7 1 2.5 1 5 1.3 7.7 3.8 1.6 7.8 2.2 11.5 4 .3 2.3-1.4 3.3-2.5 5l-11.2-4c-2 1.8-4 3.3-6.5 4.7L66 503c-.1 1.5.2 2.7-1.3 3.5-1.7 1-4.2.5-4.5-1.6-.5-5-.1-10.3-.2-15.4l-2.7.2-8.2-6.2c-4.2 1.7-8.3 3.6-12.6 5.2-.5-1.4-1.7-3-1-4.3.4-1 1.8-1.6 2.8-2l9-3.6c.3-4.5 1-7.7 3.8-11.3l-8.6-8c-1-1-2-2.3-1-3.7a36 36 0 0 1 2.9-1.6c3.8 4 8 7.2 11.5 11.2l5-.7c3.2-3.7 6.4-7.4 10-10.7 1.8-2 3.6.7 5 1.7z"/><path d="M101.8 462.6l3 5-1.6 5.4c-2.8-2.4-5.7-4.7-8.7-7l7.3-3.4z" class="D"/><path d="M146.2 468.3l5-.8a222 222 0 0 1 1.6 15l-3 2-2.4-.8c-.3-5-1.5-10.2-1.4-15.4z"/><path d="M60 469.4c2.4-.3 4.3 1.3 6 2.7 1.8 1.3 2 4.2 3 6l-4 6.2c-3.2-.2-6 .6-8.7-1.6-2.7-1.6-3-4.2-4-7 2-3 4-6 7.8-6.5z" class="E"/><path d="M111.8 484.2c4.8.6 9.6 2 14.3 3l7 18.8c.4 1 1 1.3 1.6 1.3 4-1 7.5-3.2 11.3-4.6l7.4 5.3 4.7-.7a68 68 0 0 0 6.9-11.7 619 619 0 0 1 32.8 99.4c-59.2 0-118.4 0-177.5 0v-89c7 4.2 14.7 5.4 22.7 5.5 2 7.2 6.3 13 10.8 18.7h4.8c2.7-2 5.3-4 8-6l9.7 3.8c2 1 3-1 4-2.4 3.4-5.4 5-11.3 6.4-17.5L100 506c1.4-.2 3-.3 4.3-1 1-3.8-.5-8-1-12l8.4-9z" class="D"/><path d="M255 489.7c-.7 3-3.5 3.3-6 4.5a277 277 0 0 1-64.6 15l-.4-3 65-16.2c2.2-.7 4-1.4 6-.2zM114.2 508c3.2-.6 6.6.1 9.8.4 7 .7 12.8 5.2 17 10.5 5 6.2 5.8 15.4 5 23-.1 1.6-1.4 2.6-3 2.5-9.5-.4-20.7-4-26.2-12.5a30 30 0 0 1-2.7-24zm155.4 2.2c1 2.7-1.7 3.8-3.6 4.8-22.8 9.6-46.2 16.6-70 23-1-1.3-3.5-2-1.8-3.6a36 36 0 0 1 7-2.3l55.8-17.4c4.2-1.4 8.4-4 12.8-4.5z"/><path d="M118.2 513.2c6.8.4 13.4 2.2 17.8 7.8 4.4 5.2 4.8 11.2 5 17.7-6.6-1-12.6-2.4-17.4-7.3-4.8-5-5.8-11.5-5.4-18.2z" class="C"/><path d="M275.5 531.5c1.7-.5 5.8-1.7 4.7 1.5-2.4 1.8-5.3 3-8 4.2C258 544 243 549.2 228 555l-24.8 9c0-1.2.1-2.3.2-3.5 4-2.2 8.6-3.4 13-5l59.2-23.8zm16 20l.1 4-24 12.3a268 268 0 0 1-50.6 17.4c-3.6 1-5.3 1-8.6-1 4.4-3.3 9-3 14.2-4.6 18.7-4.8 36.8-12 53.8-21 5-2.5 9.6-5.4 15-7z"/></svg>