<svg xmlns="http://www.w3.org/2000/svg" viewBox="0 0 400 610" width="533.3" height="813.3" xmlns:v="https://vecta.io/nano"><path d="M0 0h400v610H0V0z"/><path d="M19.5 14.3H383V149c-7-10.4-17-18-28-23.7.7-.8 1.7-1.2 2.6-1.8a50 50 0 0 0 19.9-20.1c.8-1.3.4-3.4.3-5-5-1.4-9 1-13.8 2 .8-2 1.6-3.8 2.6-5.6-1-2-3.2-3.3-5.6-3l-23 1c-10 .1-20.4 2.7-30 4.7C296 92 283 87 270 84.5c-11.8-2-23.4-3-35-.2-8.3-7.7-18.3-13-29-16.7 9-7 16-15.6 19-26.7-.1-1-.3-2-.6-3l-4.5-.6c-3 1-5.8 3-8.8 4.5.6-3 2-5 .1-7.8a14 14 0 0 0-3-.7c-9.4 1.5-18.6 3.8-28 5.4a141 141 0 0 0-25.2 8.5l-33-7c-16.3-1.8-33 .4-48 7-2.3.6-1.2 2.3-1.5 4l1.5 1.6a38 38 0 0 0-18.8 10.7c-1 1.7-2 3.3-.4 5 1.6 1.2 4 .5 5.7.1C73.7 65 87 66.2 100 70c7.2 1.3 13.5 4.3 20 7.4L98 88c-6-.2-12-2-18-2-4-.1-7.6 2-10.5 4.7-3 3-4.3 6.4-5.8 10-5.7 5.4-9.5 13-11.7 20.3-.4 2-1.7 5.6.7 6.8 5 0 7.2-3.4 11.3-5.6 4-2.2 8.2-5.4 13-5 4.5-.1 8.5 1 13-.1 5.2-1 8.7-4.2 13-7 7-4.3 13.3-9 20.7-12.4 4.3-2 9.4-4.7 14.2-4.3l28 2.3c1.5.1 3 .2 4.5.7 9 3.3 18 6.5 27 9.8a129 129 0 0 1 30.7 18.4c-5.6-.7-11.3 2.4-14.8 6.6-2.2 2.4-3 5.4-5.6 7.3a39 39 0 0 0-10.1 14c-1.4 3.4-4 5.6-3 9.5l4.3.8c5.4-3 11-6 17-7.7 3-1 5.8 1.2 9 1l17-1.3c11-7.3 23-10 35.5-13.2 2-.3 4.6-1.8 6.5-.8 10 3.8 20.3 6 31 7.5l20.5 11.2a118 118 0 0 1 28.5 20.5c5 5 9 10.5 12.2 16.8.6 1.5 2.5 2.2 3.8 3l3.3-2v152c-21.6-15.4-45-28-70-37.3a291 291 0 0 0-56.1-15.9A323 323 0 0 0 177 293c-28.8 2-57.2 8.2-84 18.6-23 8.3-45 19.4-65 33-2.7 1.8-5.4 3.8-8.2 5.4v-336z" fill="#fff"/><path d="M203.7 40.4c-2 2-4.7 4-5.8 6.6-.6 1.4.1 4.4 2 4.2l15-3.4L204 59c-2.8 3-6.7 4.7-9.6 7.7-3 .1-5.7-.1-8.6.1a39 39 0 0 0-23.4 11.9V82c1.5-.4 3-.3 4-1.4A42 42 0 0 1 186 70.4c2.8-.4 5.7-.1 8.6-.1L196 72c10.8 2.6 21.5 6.5 29 15 .7 1.5.5 3 2 4.2a107 107 0 0 0-15.1 4.8c-2.3 1.2-5.4 2-6.8 4.4l.8 2.8c-3-2-6.5-3-9.8-4.6-7.6-3.4-15.6-7-23.7-9-11.4-1.2-23.3-.6-34.5-3-3.6-.2-7.5 1-11 2.3a125 125 0 0 0-24 12.7 44 44 0 0 0 3-9.5l20.7-9.6c2.5-1.3 5-2 6.7-4.4l3.5-8.4c4-7 10.2-11.4 17-15 16-8.4 32.4-10.6 49.7-14.6zM124 47a115 115 0 0 1 21.8 4.4c.3.5.1 1-.7 1.5a41 41 0 0 0-17.5 20.8c-9.8-4-20-9.5-30.5-11.5l-22-3c6.5-.1 13-.7 19.5-1.2 2.2-.2 2.7-1.7 3.8-3.3-1-1-1.8-2.3-2.8-3.3-2.2-1-4.5-1.6-6.7-2.4l35.2-2zm118 43c19.4-2.3 38.5 3 56.2 10.5-.8 1-2.3 1.4-3.4 2-7 4.2-13.2 10-17.2 17.3a107 107 0 0 0-24.3-14.2 120 120 0 0 0-17.3-6.4c3.8 0 7.5.7 11.2.5 2-.2 2.7-1.6 3.8-3l-2.2-3.5c-2.2-1.2-4.6-2-6.8-3.3z" fill="#fcce00"/><path d="M77.3 93.4L97 94c3.2.3 6-.7 9-1.7-.6 3.3-1.7 6.5-3 9.5-3.7 2.3-7 5.2-10.5 7.7-6.2 3.8-15.2-.7-22 2-3.4 1.3-6.3 3.3-9.6 5 2-4.4 4.5-8 8-11.4 2.7-4 3.3-9.5 8.5-11.5z" fill="#d96038"/><path d="M80.2 98.2c3-.8 5.5 4.2 3.4 6.4-1.8 1-4.2 1-5.4-1-1-2.2-.1-4.4 2-5.6z"/><path d="M357.3 98.7c-2 1.6-4.3 2.7-6.2 4.4-1.5 1.5-1.4 4.8.8 5.5 4.8-.1 9.5-1 14.3-1.2-2 4-6 7-9.6 9.3-3.7 2.5-8 3.6-11.7 6.2-3.3-.2-6.6-.7-10-1a41 41 0 0 0-22.6 7.5c-1.3.8-2.6 2-1.6 3.6 3.7.6 5.4-2 8.7-3.4a38 38 0 0 1 24.4-2.7c2.3 2.5 5.4 3 8.4 4.6C363 137 372 145 376 156.7c-3-.7-3.2 1.3-4.8 3 1.5 3.5 3.5 6.6 4.6 10.3a52 52 0 0 1 2.2 16.7c-14.3-18.6-33-30.6-53.3-41.5l-8.7-3.7-22-5c-3-.7-6-2-9-3-6-.7-12.5 1-18.2 3l-19 7.7c1.7-3.3 3.7-6.4 5.2-9.7l26.4-8.3c2.7-1 3-3.3 4.5-5.5 6.3-9.6 17-14.6 27.7-17.5 15.3-4.3 29.7-3.7 45.4-5zM208.7 104a669 669 0 0 1 22.9 1.4c3.3 6.2 5 13 6 19.8a103 103 0 0 0-21.2-16.6c-2.5-1.7-5.4-2.8-7.7-4.6z" fill="#fcce00"/><path d="M248.6 111c7.4 2.6 14 7.5 20.6 12-7.2 2.2-14.5 4.2-21.7 6.4-1.2.2-2.7 1.2-3.5-.2l-1.8-12.4 4 .6 2.3-2.8c.4-1 .5-2.2.3-3.5z" fill="#fff"/><path d="M225 132c4.4.6 8.4.4 12.2 2.8 5.4 2.6 10.5 1.7 16 .1-1.5 3.4-3.5 6.5-5.2 9.8l-9 4.3c-3.6.5-7.3.4-11 .7-3.5.3-6.6-1-10-1l-13.2 4.4a25 25 0 0 1 9.5-10.6c3.2-4.3 4.7-9.2 10.7-10.3z" fill="#d96038"/><path d="M226.3 137.3c4-1.2 3.6 2.6 3 5.2-.2 3-3.4 2-5.3 1.2-1.8-2-.2-5.7 2-6.4zm-18.3 31c1.6 1 3.4 1.5 3.7 3.6l-1.2 5c3.7-1.6 7.7-5 11.8-5 1.2.7 3 2.7 2.8 4.3a50 50 0 0 1-18.6 26.7 86 86 0 0 1 23.8 10.2 50 50 0 0 1 20.3 25c1.3 3.5 2 7.4 1.5 11-1.4 2.3-4 2-6 .3a249 249 0 0 1 3.3 16.8c-.5 2-.4 3.7-2.3 5l-4.3-1.6c-9.2-12.7-25.2-21-39.7-26.4l-27.2-8.7c-1.6-.5-3-1-4.8-1l-28-.6c-1.6 0-3.4-.2-5 .3-6.2 2-11.6 5.6-17 9-7 4.2-14.4 8-19.8 14.3-5.3 4.8-15.3 3.8-22 4-5.6 3.7-11 7.7-16.5 11.4-1.2 1-3.2.4-4.7.5l-2-3.3a66 66 0 0 1 2.7-10c2-6.3 7.8-11.3 9.7-17.7 1.7-4.5 4.5-8.8 8.7-11.2a118 118 0 0 1 23-.1c8-2.8 15.7-7.6 23-11.8-9.5-3.5-21-8.3-31.2-7l-35.2 2c-1-2-2-3.5-.7-5.6a58 58 0 0 1 19-11.6l-2.7-3c.6-1 1-2.8 2.2-3.4 6.3-3.7 12.7-4.3 19.5-6.3a87 87 0 0 1 31-2.6 181 181 0 0 1 29.8 5.1c16.3-8.3 35.5-12.5 53-17.7z"/><path d="M203.3 176l-5 6.3c-1.3 1.7-.1 5.7 2.6 4.5 4.7-1.2 9.3-2.7 14-4a60 60 0 0 1-18.9 19.9c-3.6.5-7.6 0-11 1a38 38 0 0 0-20.7 14l1.7 2.3c1.4-.3 2.5-1.8 3.5-2.7 6.8-7 16.4-11.4 26.3-10.6 5.3 2 11 2.4 16.4 4.7 9 3.3 17 8.6 21.4 17.5l-2.7.6-1.5 3c7.2 7 10.3 15.8 12.7 25.3a113 113 0 0 0-30-18.5c-11.7-5.4-24-8.3-36-12.2-1.7-.5-3.3-1-5-1h-23c-4 0-8-1.2-12-.1a71 71 0 0 0-20 10.6 176 176 0 0 0-10.1 6.8 67 67 0 0 0 3.5-11c8-3.7 15.5-8 23-12.5 1.2-.8 3-2 3.2-3.6a27 27 0 0 1 4.5-10.8c3-4.6 8.2-7.8 12.7-11.3 13.6-9 30.2-13.2 45.6-17.4l4.8-1.4zM119 187c9.5.4 19 1.2 28.2 3.5a23 23 0 0 1-3.6 3c-7 4.8-11.7 12-14.4 20l-26-9c-9-1.5-18.2-1.2-27.2-2a37 37 0 0 1 17-2.5c1.7.1 3.2.4 4.8 0a128 128 0 0 1 1.4-3.9c-2.3-2.7-7-3-10.2-4.4.5-.4 1-.7 2-1a103 103 0 0 1 28.2-3.7z" fill="#fcce00"/><path d="M109.5 233c-1 3.7-2 7.4-3.5 11-3.6 2.4-6.6 5.5-10.2 8-6 2.7-13.8 1.7-20.2 3-4 1.3-6.6 3.6-10 6 1-2.8 2.2-5.7 3.8-8.2C71 250 73.5 249 74 246c1.2-4 2.6-8.4 6.8-10.3 5.2-1.2 11 1 16 1 4.2.4 8.6-2.3 12.5-3.8z" fill="#d96038"/><path d="M82.4 241.4c3.6-1.4 6.8 3 5 6-1.2 1.4-3.7 1-5.2.3-.2-2-1.4-4.7.1-6.4z"/><path d="M192 299c3.6-.1 6.7 1 10 2l34 12 52 23a259 259 0 0 0-80.3-36.4c1.4-.4 2.7-.5 4-.5a294 294 0 0 1 51.9 6.2c22 4.4 42.7 12 63.2 20.7a303 303 0 0 1 55.8 32.4c.4 5 .1 10 .2 15-4.4-1.3-8.8-2.7-13.2-4-2.2-.7-4.6-1.7-7-1.6-4.4.2-9-.1-13.3 1 11.2.5 22.5 3.3 33.3 6.2v40c-18 1-35.7 3.3-53 8.4-2.2-1.4-4.4-3-6.6-4.3-17-9.7-35.2-16.8-54.7-19a141 141 0 0 0-42.6-.9c-6.8 1-13.4 2.7-20.2 4 10.8-7.4 22.5-13.6 34.6-18.4a63 63 0 0 1 17.5.5l27.6 3.6c6.5.7 13 3 19.3 4.6 13 3.7 24.7 9 37.3 13.8-.7-1.4-2.2-2-3.5-2.8-7.2-4-14-8-21.8-11-10-4-21-7.6-31.8-8.3l-31-3c-3-.3-6 .5-9 1 9-3.6 18.4-6.4 28-9 6-1.6 12.5-2.3 18.5-4l-22.2.8c-10 2.5-19.5 6-29 10-6-2.6-11.8-3.6-18-5.3-3.2-.8-6.6-2-10-2l-62-2.3c-3.4-.1-6.6-.5-10 .1-22.5 3.3-45.3 10-65.3 21a209 209 0 0 0-18 12.1c-1.6 1-2.6 3.4-4.7 3l-19-.2-13.5 2v-50.2c3.6-2.8 7.3-5.4 11.2-7.8a14 14 0 0 1 5.1-1.9v-1l.8.6c8.6-1 16.8-3 25.5-3.3 17.5-1 34.3 1.4 51.5 4.5 13.6 2.6 27.2 6.2 40.4 10.6 9 3 17.5 6.7 26.3 9.8-.5-.6-1-1-1.7-1.4l-17.7-8.3a237 237 0 0 0-52.8-15.5l-28-3.3c-14.7-.3-29.3.6-43.2 5.4a276 276 0 0 1 43.9-23.2c3.5-1.2 7.6-1.4 11.4-1.6l35 4c11.7.8 23.6 4.8 35 8.2 12 3.6 23.5 8.6 35.4 11.7l-37.8-16.5c-9-2.6-18.2-5.6-27.5-6.2l-37-3.7c-1.5-.2-3-.1-4.4 0 11.5-4.7 23.3-8.4 35.4-11.5 3.7-1 7-2 11-1.4a220 220 0 0 1 57.9 14.5c19.5 7 38.2 15.3 57 24l4.2 1.7c-6.4-4.7-13.8-8.3-20.6-12.3-13.2-7.2-27.4-13-41.3-18.8a317 317 0 0 0-31.2-8.6c-6-1.4-12-2-17.8-3.3 15.5-2.8 31-4.5 47-5z" fill="#858585"/><path d="M344.5 367.7c.7.2 1.3.5 2 .8l-7.4-.2-44 1.3c4-1 8-1.2 12-1.7 12.5-1.2 25-1 37.4-.3z"/><g fill="#858585"><path d="M137.4 374.5c2.5-.4 5-1 7.6-1l61 2.4c3.2.1 6.3.1 9.5.7l21 4c.5.1 1 .3 1.3.8-6.8 2.7-13.3 6.3-19.7 9.8a139 139 0 0 0-43.5 36.5L169 436c2.8-2.6 5-7 8.4-8.7 7.8-1.8 15.6-4.4 23.6-5l32-3 12-.7c14 .8 28.7 2.6 42 7.3l17 5.6-6.2 2.2-47.6 25.4-12 9c-3 2.5-6 4.5-8.5 7.6a253 253 0 0 0-54.6 11.7c-1.7-2-3.5-4-6-5.2-7.5-4-14.2-8.8-22.4-11.6a183 183 0 0 0-68-12.3A167 167 0 0 0 19 469.7V410c30-1.5 61 1.5 89.4 12a196 196 0 0 1 57.2 29.7c9.4 7 17.7 14.8 26.5 22.5 2 1.7 3.7 3.8 5.5 5.7-.5-1.8-2.2-3.4-3.3-5-6.6-8-14-14.3-21.7-21.3-18.3-16.3-39.8-28.2-63-36.3a212 212 0 0 0-55.7-10.6l.1-.7c7.4-5 15.7-9 23.7-13 19.3-9 39.3-15 59.7-18.6zM264 403a159 159 0 0 1 29 6c12 3.7 23.2 9.3 35 14l-.4 1c-7.7 2-15.2 4.8-22.7 7.4a211 211 0 0 0-30-12c-10.7-3-21.7-4.6-33-4.6-17.6-.6-35.4 1.4-52 7l-10.4 3.3c3-3.7 7.2-6.5 10.7-10l13-10c6-1.3 12-1.7 18-2.7 14.5-2.4 28.6-1.3 43 .6zm119 13.4V484c-.2 1.2.4 3.5-.5 4.4L361 491a223 223 0 0 0-31.2 8.4A122 122 0 0 0 299 485a177 177 0 0 0-68-9l.4-1 24.4-15.5C278 445.2 302 436 327 428a245 245 0 0 1 44-9.7c4-.5 8-1.3 12.2-2zm-238.4 57a169 169 0 0 1 29.8 14.6c-3.4 2-7 3-10.6 4.7-3.3 1.3-6.3 3.3-9.7 4.5a22 22 0 0 0-6.3-3.1l-21.4-7.5a144 144 0 0 0-51.6-6.2 187 187 0 0 0-54.1 10.3l-1.4.3v-18.6c9.5-2.7 19-5.4 28.7-7 32.6-5 65.4-3.6 96.5 8zm93.4 6.2a185 185 0 0 1 61.1 8.1c10.7 2.5 20.2 7.3 30 12a261 261 0 0 0-45 20.7c-5.2-3-11.2-3.4-17-5a189 189 0 0 0-66-6 151 151 0 0 0-58.7 14.9c-7.3 3.4-15.4 7-21.2 12.8a214 214 0 0 0-63.8 10.4c-9.4 2.4-18 6.6-26.5 11l.3.3c8.3-3.3 17-5.6 25.6-8.3C80 543 104.5 540 129 541c25.6.5 51 5.6 75 15 8.2 2.7 16 6 24.2 9-2.4-1.8-5.3-2.8-8-4.2l-24-11A223 223 0 0 0 123 537l17-9c19.2-8.4 40-13.5 61-14.5l61 3.3 21.3 4.5c-29.6 18-55 42.7-72.6 72.5h-50.2c-4.5-2.8-8.8-6-13.4-8.5A167 167 0 0 0 60 563.1l-21 1.7a58 58 0 0 0-19.7 5.1l.2-76c15-5 31-7.6 46.5-9a182 182 0 0 1 53 3.5c11.6 2.3 23 6 34.4 9.5a138 138 0 0 0-36 27.6 39 39 0 0 0-5.4 7.4l27.4-22.5a180 180 0 0 1 62.7-25.7c12-2.3 23.7-4.7 36-5zm145 10.6v43.4l-18.4 1c-22 3.2-43.2 10.4-62.4 21.4a155 155 0 0 0-46.5 37.5l-41.8.1c19.6-31 48.6-56.6 80.6-74.4a241 241 0 0 1 56.1-22.9c10.7-3 21.6-4.6 32.5-6.3z"/><path d="M383 536v57.6H259.8a165 165 0 0 1 36.3-29.7l32-16.2a179 179 0 0 1 55-11.8zm-274 37.3a162 162 0 0 1 45.3 20.4c-45 .1-89.7-.1-134.6.1l-.1-24c5.5-.2 11-1.3 16.5-2 24.4-3.8 49.2-1.3 73 5.3z"/></g></svg>