<svg xmlns="http://www.w3.org/2000/svg" viewBox="0 0 400 610" width="533.3" height="813.3" xmlns:v="https://vecta.io/nano"><path d="M0 0h400v610H0V0z"/><path d="M19.4 16.3l363.5-.1c.2 2.6.1 5.2.1 7.8v319 7.4c-3.4-2-6.6-4.4-10-6.6-20-13.2-41.6-23.8-64-31.8a294 294 0 0 0-102-19.1c-33.5-.6-67 4-99 14l-47.6 19.4c-14.4 7-27.8 15.5-41 24.6V16.3z" fill="#d96038"/><path d="M200 46c20.6 5 39.3 16 54 31 14.5 14 25.5 31.5 30.7 51a127 127 0 0 1 .6 60.4 110 110 0 0 1-30.5 53.2 113 113 0 0 1-54.7 31.1c-18 4.3-37.4 4.6-55.5.5-17.4-3.5-34-12-47.4-23.5a121 121 0 0 1-35.7-48.1 120 120 0 0 1-5.1-67.7 111 111 0 0 1 31.2-55.7c6.5-6.6 13.4-12.7 21-18 9.5-6.3 20-11 31-14 19.7-5 40.7-5.3 60.5-.6z"/><path d="M191 51c17.7 2.8 34.5 10.3 48.5 21.5 17.7 14 31.7 33.3 38 55.2 5 18 5.6 37.3 2 55.5a104 104 0 0 1-28.6 53.1c-12.4 13.2-27.8 23.3-45.2 28.5a121 121 0 0 1-50.9 3.9 102 102 0 0 1-50.6-20.9c-7-5.6-13.4-12-19.2-18.8a104 104 0 0 1-23-48.3c-4.5-25-1.2-51 11.2-73 11-19.2 27.3-35.7 46.8-46a114 114 0 0 1 70.9-10.4z" fill="#fff"/><g fill="#858585"><path d="M212 299.5h.3l33.7 3.2c28.5 4 56 12.7 82 24.3a299 299 0 0 1 54.6 31.4c1 1.8.3 4.6.4 6.6l-27-.4a86 86 0 0 0-33.2 11.2c-2.6 1.6-5.2 2.6-7.3 5-3-.4-5.8-1.8-8.7-2.5-22.5-7-46.4-10-70-8.6l-7.2-6.3a136 136 0 0 0-31-20l-39.2-17c-9-3-18.2-4.8-27.4-6.6-2-.4-4-.5-6.2-.4l30 9.8 63 30c4.4 3 9.2 5.5 13.7 8.2 1 .7 2.8 1.2 3.2 2.4-8.6.4-17.2 1.5-25.7 3-1 .2-1.8.2-2.6-.2l-24.8-14.3c-16.8-7.8-34.2-14.6-52-20a200 200 0 0 0-56.6-6c-5.2.1-9.8 1.4-15 2.2a330 330 0 0 1 53.5-22 291 291 0 0 1 77.5-13c4.2-.1 8-.2 12 .8a230 230 0 0 1 39 13.3 202 202 0 0 1 35.8 21.2c8.6 6.2 16.4 13.6 25 20-3.4-5.5-9-9.8-13.7-14a193 193 0 0 0-41.8-29.2 165 165 0 0 0-34.6-12h-.2.3zm-85.8 42.2a324 324 0 0 1 56.5 20.7c7.8 4 16.2 6.8 24 10.8l-1.4.6-26.7 7.8c-17.5 6.3-34.4 13.6-47.3 27.3 1.6-.5 2.8-1.5 4.2-2.5a175 175 0 0 1 59.7-25.9 193 193 0 0 1 48.9-6.7 228 228 0 0 1 33 1.7 204 204 0 0 1 69.6 23l31 18c1.8 1.2 3 2.8 5.3 3.4.3 6 .1 12.3.1 18.4l-39-1c-4-.1-8-.4-12 .1a117 117 0 0 0-46.1 15.9l-11 6.7c-24.8-2-49.5-1-74 3-2-1-3.2-3.6-5-5l-14.8-11.3c-.4-.8-.1-1.2 1-1.4l28-8.4c6-2 12.6-2.4 19-3.4 6.8-1 13.4-2.3 20.2-3-5-1.6-10.8-2-16-1l-20 2.7c-12.3 2.3-22.7 7.5-34 12.8-11.3-8.5-23.5-15.2-36.3-21a191 191 0 0 1 89.2-31.4 217 217 0 0 0 25.1-2.2c-8.6-.8-17.4-1.7-26-1-12 .8-24.2 2.8-36 6a148 148 0 0 0-43.2 20.6c-3.6 2.5-7.2 4.4-10 8a143 143 0 0 0-54-10.4 147 147 0 0 0-31 4.6c-13.6 3.5-26 10-37.6 18v-70c0-2-.2-4.3.3-6.3l14-3a220 220 0 0 1 50 .2c17.3.7 33.8 5 50 10.6l20 6-.4-.7-18.5-8.4A201 201 0 0 0 84 352.6l-49 1.8c-4 0-8.2 1.8-12.2 2.6 1-1.4 2.7-2.3 4-3.2 8.8-6 18-11.6 27.4-16.6 23.7-4.2 48.8-1 72 4.4z"/><path d="M383 367.2c.4 17.2-.1 34.6.3 51.8-1-.3-2-.2-3-1-8.4-7.7-18-13.5-27.6-19.6a218 218 0 0 0-35.4-16.7c-.3-.7 0-1.2 1-1.4 4-1.4 7.8-3 11.5-4.6 8-3.7 17-5.7 25.5-7.4 9-1.5 18.6-1.5 27.8-1z"/></g><path d="M228 409c5.4-.4 10.6.4 16 .3-8 2.3-16.7 2.6-25 4-16.6 3.2-32.8 8.3-48.2 15.4-3 1.3-5.7 3.3-8.8 4 3-2.2 6-4.6 9-6.7a109 109 0 0 1 27.8-11.4c9.3-2.6 19.3-5.3 29-5.7z"/><g fill="#858585"><path d="M114 419.5c22 4.2 43 13.6 61.6 26l19.8 14.3c1.4 1 3.3 2 4.2 3.5-3.5.6-7 1.6-10.6 2-5-1-10-2.3-15-3.2-3-.3-4-3-6.4-4.5a175 175 0 0 0-34.7-16.1c-21.5-7-45.6-9.6-68-4.7a165 165 0 0 0-45.6 17.2c.1-4.8-.1-9.6.1-14.4 6-3.7 12-7.5 18.4-10.6a121 121 0 0 1 29-9.1 124 124 0 0 1 47.1-.3z"/><path d="M92 438.2c24.8.3 48.8 7.5 70.5 19.3l6.3 3.2c-3.3-.2-6.4-1-9.7-1.3a382 382 0 0 0-90-2.4c-11 1-22.5 2.4-33 6.3-1.8.7-3.6 1.3-5 2.4l34-5.7c38.5-2.2 78-.4 115.8 7.4a260 260 0 0 0-30 10.4 255 255 0 0 0-64.4 37.6c-1.2 1-2 1.3-3.5 1.3L51 519c-9.5 1-19 3.5-28 7-1 .4-2.4 1-3.6 1l.1-70.2c22-11.2 47.5-19.3 72.5-18.5zm290.8 3.2a20 20 0 0 1 .3 3.6l-.1 43.4-3.2-1.3c-14.2-7-29-11.4-44-16l-54-10.7c-1.2-.3-3.7.1-4.3-1l13-5.7a146 146 0 0 1 45.3-12.9 134 134 0 0 1 46.8.6zm-139 21c5 .5 10 .1 15.2.3a342 342 0 0 1 123.6 27.7c.5.6.6 1.5.5 2.5v74 9l-29.3-25.5a527 527 0 0 0-122.4-71.6l-33-11.3c13.5-2 28.2-4.4 42-4.4l25.6 11.4a441 441 0 0 1 53.9 29.1l47.7 34.3c2 1.4 3.7 3 5.8 4-4.8-5.2-10-10-15-15-10-8.8-21-16.7-32-24a356 356 0 0 0-67.4-34.5l-15-5.7-.2-.1h.3zM187 470c3.4-1 7.2.6 10.5 1.4 26.2 6.7 51.4 18 75.2 30.7 28 15 54.8 32.7 80 52l30 25v16.7H283c-2.2 0-4.4.1-6.6-.1l-10-9c-28.6-25.3-61.4-47.2-98-59.2a243 243 0 0 0-62.5-12.1l-15 .8c1-1.8 3.4-3 5-4.2 27.3-19.7 58.3-34 91-41.8z"/></g><path d="M160 478.8l.4-.3c4.7.4 9 1.5 13.7 2.3l18 4c20.4 5.7 40 13.7 58.8 23.4l42 24 53.8 40.2c1.5 1.4 3.6 2.8 4.4 4.7-9-5.5-17.2-12.2-25.7-18.4a985 985 0 0 0-52.8-34.2c-20.8-12.4-43.2-22.3-65.8-31l-27.3-8.8-20.7-4.5 1-1z"/><path d="M82 519l-15.6 15.6c-1.5 2-3.6 4-4.5 6.3l22-19.6c1.6-1.3 2.5-2.8 4.8-2.6a225 225 0 0 1 77 12.3 260 260 0 0 1 52 25.2l53 39.7H162c-1.2-.1-3 .3-4-.7a161 161 0 0 0-48-30c-24.2-9.5-51.2-12.6-77-10.7L19.4 557v-28.2a265 265 0 0 1 62.7-9.7zm-45 38a199 199 0 0 1 70.9 11.1 164 164 0 0 1 38.7 22.3c2.2 1.8 4.6 3.3 6.5 5.4-44.6-.1-89 .1-133.7-.1v-37.3L37 557z" fill="#858585"/></svg>