<svg xmlns="http://www.w3.org/2000/svg" viewBox="0 0 400 610" width="533.3" height="813.3" xmlns:v="https://vecta.io/nano"><path d="M0 0h400v610H0V0z"/><path d="M19.4 15.3H383V332c-7.2-5.2-14.5-10.2-22-15a325 325 0 0 0-81-35.1 298 298 0 0 0-74-10.2c-38-.7-75.7 5.3-111.2 19-26.8 10-52.6 23.6-75.4 41V15.3z" fill="#fff"/><path d="M207 278.3a279 279 0 0 1 84.5 14.2l-46.6.5c-16.3 2.7-32.5 6.6-47.7 13.3-5.3 1.8-10 4.6-14.6 7.6-8.3-2.4-16.3-6-24.7-8a320 320 0 0 0-50-8.3c-4.4-.5-9 .2-13.3.1 35.7-14.2 74-20.4 112.3-19.6zm71 17c8 .1 16.6-1.3 25 .8 28.6 10.4 56.3 25 80.2 44 .1 3 0 6.2 0 9.3l-30-9.8a278 278 0 0 0-44.2-6.6c-1.4-.2-3.2.1-4.5-.6-3-2.4-5.4-5.2-8.8-7.2l-26.2-15.8C262 305 254 302 245.8 299c-2-.6-3.7-1.2-5.7-1.3l.2 1 40 21 22 13c-11.4-.5-22.8-.2-34.2.8-2.8-1.6-4.8-4-7.6-5.7l-14.5-8.5c-10.7-6.8-23.5-11-35.7-14.4a349 349 0 0 1 29-6.8c7.7-2 16-1.3 24-2 3.5.2 8-1.2 11 .8l16.5 8.6c8.3 4.7 16.3 10.4 24.7 14.8-2.2-3-4.6-6.5-7.8-8.6-9-6.4-19-12.3-29.4-16.2zm-189.7 5c3-1.3 6.3-.5 9.7-.5 11.7.2 23.4 2.4 34.8 4.6l27.7 7L216 331c6.8 2.6 14 4.4 20.5 7.3L191.2 351a189 189 0 0 0-26.3 11.7 196 196 0 0 0-27.4 16.6c-1 .6-2 2-3.4 2l-16-3c-27.3-3-55.2-3.8-82.2 2.3l-16.4 4 .1-45c4-3.4 8.4-6.3 12.7-9.3 1-.7 2.3-1.7 3.7-2l26 3.2 25 3.7 51.4 11c-3.4-2.6-8.6-3.4-12.6-5l-40-10-36-4.2c-4.4-.8-8.4.2-13 .4 4.5-3.7 10-6.3 15-9.4l10-5 26 3.4 35.8 6.3c17 3.3 33.7 9.2 50.5 13.5a238 238 0 0 0-56.3-19l-41-5c-4.6-.6-9.4.2-14 0a279 279 0 0 1 25.4-11.7zm119.7 5.2c2.4.6 4.6 2.4 7 3.6l28.6 13.4 22.5 11.2a219 219 0 0 0-26.2 4c-1 .3-1.8.3-2.7.2l-43.4-19.6c-3.3-1.5-7.2-2.3-10.3-4a475 475 0 0 1 24.6-8.6zM353 343l30 8.4c.4 16.4.1 33.2.2 49.6-.1 3.2.3 6.6-.2 9.7l-14.2-6.4a180 180 0 0 0-62.7-12 168 168 0 0 0-42 5.8 189 189 0 0 0-40.8 15.7L217 410l-28-13 52.4-19.7 52.8-9c1.5-.3 3-.3 4.4-1-6-.4-11.5.2-17.4.3-14 .2-28.4 3.4-42 6.7-13.2 2.7-26.2 8-38.2 14.2-4.7 2-8.8 5-12.8 8.2-15.7-6.6-32.3-11-49-14.6 0-.7.3-1 .8-1.3A272 272 0 0 1 243 340c36.4-6.5 74-5.8 110 2.7z" fill="#868686"/><path d="M297 351l18.8.7c2.2.1 4.5 1 6.5 2-12.4.1-25-.3-37.3.4a219 219 0 0 0-43.5 6.5c-19.7 4-38.7 10.3-56.7 19.2-6.5 2-12 6.3-18.3 8.7.6-.7 1.3-1.3 2-1.8 9.4-6 18.5-12 28.8-16.3 18.4-8.3 37.5-12.6 57.2-16.6 14-2.4 28.3-3.5 42.5-2.7z"/><g fill="#868686"><path d="M130.5 385L114 401.2c7-4.7 13-11 20-15.6l37.6 8.8c17.2 5.4 34 12.8 50.6 19.4l-.2.7c-4.6 2.4-8.8 5.4-13 8.2l-15.6 12.5c-24-11.4-49.5-19-75.8-23a227 227 0 0 0-56.5-1.9c-14 1.2-27.8 4.3-41.5 7.5v-31c5-1.7 10.6-2.4 15.7-3.8 31.2-5.7 64.2-4 95.3 1.5zm236 21.3l16.4 7v71.2c-35.3-19.4-74.6-31.2-115-31.2l-38 3c-2.3-1-4.2-3.4-6.4-4.6-9.6-5.7-20-10.5-29.7-16 11.7-7 23.2-15 35.6-21a187 187 0 0 1 60.5-17.3c26-3.2 51.7 1 76.5 9zm-246.3 10.5a363 363 0 0 1 81.1 24.9l27.4 14.6a212 212 0 0 0-33.5 8.7c-8.6-5-18.3-7.7-27.4-11.7A263 263 0 0 0 55 435.7c-12 .6-23.8 3-35.6 5.2V421l19-4.6a249 249 0 0 1 81.7.2zM103 441c22.7 3.3 44.6 7.7 66 16l25.3 8.3a357 357 0 0 0-33.4 14.6c-8.4-3.2-17.3-5-26-7.7-19.5-5.6-39-7.5-59-9.6a221 221 0 0 0-46 1.4c-3.6.4-7 1.7-10.5 2v-23a285 285 0 0 1 83.5-2.2z"/><path d="M285.5 457.7a257 257 0 0 1 71 16.8L383 487v20c-15-3-30-4-45-4.5-29.4-1-58.6 3-87 10.6a499 499 0 0 0-35.5 11.3c-2.7.8-5.6 3-8.3 1.6a258 258 0 0 0-139.3-9.5L41 524c-5 2-10 4.5-14 8a150 150 0 0 1 30.3-10.5 263 263 0 0 1 145.7 7.2l-.2.8L156 554a186 186 0 0 0-35.8-12c-24.6-6.7-50.4-7.6-75.5-3.4-8.5 1.2-16.8 3.8-25 6.2l.1-76.2c14.3-2.3 29-2.7 43.5-2.7 12.2 0 24 1.7 36 2.8 11.8 1.6 23.5 3 35 6 8.3 2.5 17 3.2 25.6 5l.3 1c-5.2 2.4-9.6 5.6-14.5 8.7-6 4.4-12.8 9.4-17.5 15.4l37.3-23.6c37-19 79-26.4 120.3-23.5zm63.5 47.8l34 3a13 13 0 0 1 .2 2.4v83.8h-53c-1.4.1-2-.8-3.2-1.5a458 458 0 0 0-62.3-41c17.3-1.7 34.3-5.3 51.5-7.5l36-3.3 13.2-2c-6.2.1-12.5-.7-18.7-.2L316 541c-12.7.8-25.4 3.5-38 6-5.2 1-10 3-15 4.5-7.2-4-14.4-7.6-21.7-11.4l17.2-5.4L294 528c4.6-.8 9.4-2 14-2l62-2.3-17-2a210 210 0 0 0-48.2 1l-39.8 7.5a123 123 0 0 0-25.8 9L218 530c-1-.5-2.4-.7-3-1.6l51-15.7c27.3-6 55.2-9 83.2-7.2zM209 531c7 2.3 14 5.4 21 8.3 18.5 8.2 36.6 17.7 54 28 14.6 8.4 28.2 18.5 42.3 27.6-37.6-.1-75.3 0-113-.1L190 575c-8.5-6.8-17.7-12.6-27.3-17.7-1-.7-2.6-1-3.4-2L209 531zm-57 25.3c-17.3 11-34 23-49 36.7-1 .7-1.8 2-3 1.8H19.5v-48.4l26.6-5c36-4.8 73 .6 106 15zm3.2 1.7a164 164 0 0 1 29 16c9.3 6.3 17.8 13.7 26.5 21-36 0-72-.1-108 .1 16.4-13.8 34-26 52.5-37z"/></g></svg>