<svg xmlns="http://www.w3.org/2000/svg" viewBox="0 0 400 610" width="533.3" height="813.3" xmlns:v="https://vecta.io/nano"><path d="M0 0h400v610H0V0z"/><path d="M19.5 15.3l1.5-.1h362V352c-23-16.7-48.2-30.4-75-40-36-14-74.4-20-113-19.2-27 .4-54 4.2-80 12-9.5 2.7-18.6 6.3-27.8 9.7a290 290 0 0 0-67.7 37.3l-.1-12.7V15.3z" fill="#fff"/><g fill="#858585"><path d="M222 299.8c4.8.3 9.5.4 14 2a391 391 0 0 1 39.4 15.6c4.8 2.3 9.6 4.4 14.4 6.6l31.4 16.6c5.4 3 10.7 7.6 16.7 9.6-1.2-1.7-3-2.6-4.5-3.8-9.2-6.6-18.2-13.3-28.3-18.7-17.5-9.6-36.2-18.8-55.4-24.3 2.4-.1 4.7.5 7 1 20 3.6 39.4 10 58.2 17.5 24 9.7 47.3 22.4 68 38.2v101.2c-1.3-.5-2-1.6-2.7-2.6-7-9.5-15-18.3-23-26.8-36.8-35.4-81.6-62.2-130.3-77.8a364 364 0 0 0-83-16.1l-6-.1-66 3.8c-11 1.4-23.3 5.5-33 11.2l34-8.7c36.4-6 74-4.6 110.2 2.5l15.3 3c-1.8.4-3.5.8-5.4 1a146 146 0 0 0-45.7 13.8L128 377c2.4-.2 4.3-1.4 6.5-2.4 7-3 13.5-6.7 20.5-9.5a229 229 0 0 1 29-9.2l19-3.6a12 12 0 0 1 6.5.3l31.6 10.3c-4.2 0-8-.6-12 0l-34.5 5a195 195 0 0 0-48.4 21.1c15-4.5 28.4-11.4 43.4-15.2 9.4-2.3 19-5 28.5-6.6 7.6-1.5 15.3-2 23-3 3.6-.6 6.4 1.3 9.6 2.6L281 381c1.3.7 2.3 2 3.7 2.5 4 1.4 7.3 3.7 11 6 18.2 11 35 23.7 51.3 37.5l-27.8-12c-29.6-12.7-63.7-15-95.2-9.5-15.3 2.3-30.2 6.7-44.5 12.5-1 .5-2.4-.2-3.5-.6-7.6-2.8-16-4.4-23.7-6.6-.5-.6-.2-1 .8-1.5 19.3-9.6 40.2-17 61.5-20.3l43.5-4c8.2-1 16.4-1 24.7-1.2l-.1-1.3c-6.2-.3-12.5-2-18.6-1.3l-48 3c-14.3 2.5-28.4 7-42 12.2-9 3.2-17 8.3-25 13.4a219 219 0 0 0-67-4.8 175 175 0 0 0-62.6 15.1l.1-60.2a299 299 0 0 1 78.3-42c5-1 10.2-.6 15.2-.8l43 3c8.2 1 16.5.8 24.5 2.5 19 3.5 37.8 8.3 56 15.2 7.5 2.4 15 6 22.6 7-1-.8-2.3-1.5-3.5-2-26.3-11.7-53-21-81.5-25.2l-61-3c-2.7.1-5.3.5-8 .5a291 291 0 0 1 59.9-13.5c3.7-.3 7.5 1 11 1.3a464 464 0 0 1 58.4 16L263 330l46 21.7c-4.4-3.3-9.3-6-14-9-16.6-10.7-34.2-18-52.5-25.4-19.3-7.8-39-12.8-59.5-16.5-2.3-.4-4.5-.5-6.8-.5 3.3-.5 6.5-1 9.8-1l36 .4z"/><path d="M145 411.6c10.8 1.6 21 4.4 31.8 6.6-1.5 1.7-4.3 2.3-6.2 3.4a226 226 0 0 0-64.5 44.5c2-.5 3.4-1.7 5-3 7.3-5.4 14.4-11.3 21.8-16.7l37.3 3.4a415 415 0 0 1 87 23c2.4 1 4.8 1.7 7 3L235 481c-2.5.7-4.6-.3-7-1l-45-11c-22.6-3.6-45.6-4.6-68.5-2.8a308 308 0 0 0-52.5 8.7 126 126 0 0 0-33 14c2.7-.3 4.8-1.5 7.3-2.5a181 181 0 0 1 30.8-10 320 320 0 0 1 127.9-1.3l29.5 7.4.4 1c-12.8 3.4-25 8-37.3 13a255 255 0 0 0-33 16c-1.3.7-3 2-4.5 1.6a219 219 0 0 0-79.5 3.5c-18 4-35.3 11.7-51 21l.1-116a193 193 0 0 1 52.4-13.3 272 272 0 0 1 73.1 2.2zm79-3l49-1.2 6 .2c15.5 1.8 30.6 5.4 45 11.2 8.7 3 17 7.2 25.3 10.7 2.5 1.3 4.6 3.5 6.6 5.4l27 28c.2 6.7.1 13.5.1 20.2-33.3-7.5-68-11.2-102-9-3 0-7 1.2-10-.3-32.3-13.7-66.2-23-101-26.8l-26-1.8c-3.5-.3-6.7.6-10.2.7 1.8-2.2 5-3.3 7.3-5l22.8-12c4.8-3 10.5-5 15.7-7.5L197 415c8.7 1 17.4 4 25.8 6l45.3 14c-.4-.7-1-1.3-1.6-1.6-6.7-4-13.7-6.3-21-9-5-1.7-9.6-4-14.6-5.3l-18.5-3.8-11.4-1.7c7.5-1.8 15.3-4.2 23-5z"/></g><path d="M164 429h15a350 350 0 0 1 88.4 24.6c3.2 1.6 7 2.8 9.7 5.2-16.2-3.6-31-10.6-47-14.7l-56-12.6c-2.8-1-7.8-.4-9.8-2.4z"/><path d="M284 477.6a326 326 0 0 1 37.9-.2c2.8.8 5 3.7 7.5 5.2l44 29c3 2 6.5 3.4 9.6 5.4v45.3L348 537a525 525 0 0 0-86.7-45.2l-21.3-8 30-4.7c1.7-.2 3 0 4.4.7 28.3 12 55.4 26 81 43L378 537a98 98 0 0 0-12.1-9.7l-25.3-17.7c-19-12-38.8-22.3-59.3-31.3l.3-.1c.8-.3 1.6-.4 2.5-.5zm42-.1l18 1.7c13 2 26 3.8 39 6v30.6l-.8-.1c-6-5.8-12.7-10.5-19.3-15.6l-11.7-8.3-25.7-14.2h.3zm-91 8.5c37 12.3 72 29.3 105.3 49.8L383 564v30.8H279c-2.8-.1-5 .6-7.4-1.3-14-9.6-29.3-18.3-45-25-.8-.4-1.6-1-2.4-1.6-4-3.7-9.5-6-14.2-8.7-14-8-27.7-15-43-19.7-11-3.7-22.5-6-34-7.5l16.3-10.8c1.2-.6 2.5-1.7 4-1.4a242 242 0 0 1 39 10.6c11.5 4 22.4 10 33.3 15.5l52 31.7 2.5 1.3c-8.2-7-17.3-13.2-26.2-19.4l-51.2-29c-14.3-6.3-29.5-11.7-45-14.3l25.6-12.8c1.4-.1 2.8 1 4 1.4l37.3 17.7 32.2 18.8c3.4 2 6.8 4.3 10.5 5.7-2.8-3.4-6.7-6.2-10-9.2l-22.8-14.2c-11-6.8-23.5-11.4-35.2-16.8-4.4-2-9-2.7-13.6-3.8l.4-1 25.2-9.5a70 70 0 0 0 8.4 4.8L246 510c4 2 8 3.7 12 5-5.6-5.8-13.8-9.4-20.8-13.3l-24.4-10c3.5-2.3 8.3-2.8 12.2-4 3-.6 7-2.6 10-1.5zm-89 31.5c-6.4 4.2-12.6 8.5-19 12.8a172 172 0 0 0-51.5 5c-4.5 1-9 2.8-13.3 4a110 110 0 0 0-42.8 24.3v-22.4c7-5 15.3-8.5 23.3-11.6 14.6-6.2 30.5-9.8 46.3-11.5a247 247 0 0 1 56.9-.6zm-24 16.7c-15.7 12.5-30.3 26.3-43.3 41.6a201 201 0 0 0-14.9 19c-14.8-.1-29.6.1-44.4-.1v-28.3c7.3-6 15.2-11 23.7-15.2a158 158 0 0 1 79-17zm6 .5a177 177 0 0 1 33.5 5.8A245 245 0 0 1 217 564l1 1c-14-4.6-27.5-8.8-42-10a143 143 0 0 0-47 3.5 119 119 0 0 0-55 27.2c1-1.8 2.5-3.2 4-4.7a294 294 0 0 1 50-46.3zm31 23.3a162 162 0 0 1 64 12.8 266 266 0 0 1 44.9 23.9H68c6-7 13.4-11.8 21-17 9.2-6 19.5-10.2 30-13.3a142 142 0 0 1 40.1-6.5z" fill="#858585"/></svg>