<svg xmlns="http://www.w3.org/2000/svg" viewBox="0 0 400 610" width="533.3" height="813.3" xmlns:v="https://vecta.io/nano"><style><![CDATA[.B{fill:#d96038}.C{fill:#858585}.D{fill:#ffe700}]]></style><path d="M0 0h400v610H0V0z"/><path d="M18.5 15.4c3.5-.3 7-.1 10.5-.1h353v579.5H162.6a176 176 0 0 1 21.1-22l23.7-18.4c5.4-3 11.2-3.8 16.2-7.8 3-2.6 5.5-6 8-9 4.6-5.2 6.7-11.3 12-16l26.6-22.4L307 472c3.5-2.8 7.2-7.3 6.7-12l-1.2-23-.6-89.7 6 4c6.6 3.8 16.7 2 21.2-4.2 2.6-3.4 5-6.5 5-11-.3-5.5-1.6-11.2-6-15-3.3-2.6-7.7-4.2-12-4.5-5.3-.2-10 2.6-14 6.2l.4-6c4.6-2.5 8.8-5 11.6-9.6 4.3-6.6 5.2-15.8 1.5-23-2.8-5.4-9.2-8.5-14.3-11.3l-.5-74.4c2.7-.4 5.3-1 7.7-2 5.8-2.4 10-8.4 10.5-14.6-.1-5.5-1.6-11.5-6-15-3.6-3-7.8-4.4-12.5-4.8l-.7-97c-.1-3.5-.3-7.4-3-10-3.8-3.2-9-3.7-13.5-2.3-1.6.6-3 1.6-3.5 3.2-1.5 3.6-1.3 8.2-1.3 12l-.1 122 .2 14c-2.7-10.7-13.2-16.8-23.8-17-7 0-14 4.2-17.8 10.2-3.7 6-5.2 13.5-3.5 20.3 2 5.8 6.2 11.4 12 14 3.7.8 7.7.7 11.5 1.2 2.7.2 5.7 1 8.2-.3 6.6-3 12.2-8.2 13.6-15.5l-.3 32c-7-3.5-14-6.2-21.7-4-10 2.5-16.5 11.6-20.7 20.3-3.6-.2-7.3-.5-11 .2-6.5 1.5-12.4 5.2-15.4 11.4-3 6.3-4.6 13.5-1.6 20a38 38 0 0 0 12.4 14.1c.3 3 .5 5.8 2 8.5 4.5 9 15.6 13.8 25.4 12.6 4.7-.5 8.3-3 12.2-5.3 2 2.6 4 5 6.5 6.7 3.4 2.3 7.2 3 11.2 4l-2 88.8c-.6 5.6-.2 12-4.5 16.5a43 43 0 0 1-15.7 10.3l-21.7 8.8.3-5a37 37 0 0 0 9.3-6.9c6.8-7.3 8.3-19.2 2.2-27.4-5-7.3-13-10-21.2-12-2-6.5-4.5-12.5-9.3-17.4-7.2-7.8-19.5-11-29.5-7a39 39 0 0 0-18 20c-5.2.5-10.6.6-15.8 1.4-7.2 2.2-11 8.4-12.7 15.3-4.8-8.3-9.4-16.4-11.5-26 3.6-2.5 7-5.5 9.6-9 2.8-4.6 2.3-9.2 1-14.2 2.7-2.6 5.3-5.2 7.2-8.5 4.7-8.2 4.4-19.8-2.5-26.8-4.7-4.7-11.2-5.7-17.4-7l-.3-7.8c5 5.2 11.2 9.4 18.6 9.2 7.2.3 13.7-3.7 18.2-9 7-9 6.5-22.8-1.3-31a25 25 0 0 0-21.8-7.1c-6 1.4-10.7 5-14.3 9.8l-1.3-88c0-4.5-.7-8.4-3.4-12-3.5.5-6.6.3-9.3 2.8-3.2 2.6-7 6.4-8 10.5l-2 105.4a41 41 0 0 0-10-2.4c-7.8-1-15.8 3-21 8.7a45 45 0 0 0-8.3 18.7c-6.4 1-12.4 3.4-17 8-7.3 7-7.7 19.7-3 28.2 3.7 6.6 9.8 9 16.3 12a21 21 0 0 0 4.7 9.1c6.4 6.8 17.2 8.2 26 5.6 5-1.4 8.4-4.6 11.8-8.3l3.4 3c.6 5.5 1.3 11 2.5 16.4 1.2 5.6 4 11.2 6.6 16.2 4.5 8.2 9.7 16 15.3 23.5l-24.6-9c.8-5.3.1-10.3-2-15-5-9.8-16.8-16-27.7-12.5-6.5 1.6-10.5 6.2-13.8 11.8l-17-6.2-2 4.5 17 6.2c-1.5 6.4-.7 12.6 2.2 18.5 4.8 9 16 13.3 25.7 10.5 7.2-1.5 12.6-6.4 16-12.7l30.3 11.3c1.7.6 2.7 1.8 3.8 3.2l28 32.3-69 41a137 137 0 0 0-20.3 14.7A487 487 0 0 0 41 594.8c-7.5 0-15 0-22.6 0V26l.1-10.6z" fill="#fff"/><path d="M296.5 58.4c1.8-.1 4.6-.3 6 1.2 1 1.8 1 4.3 1.2 6.4l.6 97c-4.3 2.3-6.7 4.8-9.2 9V66c0-2.6.4-5.2 1.4-7.6z" class="C"/><path d="M307.5 167.6a13 13 0 0 1 15.7 8.4c.6 3 .5 6.7-.5 9.8-1.7 3.8-5.3 7.2-9.7 7.4-5.7 1-11-2.6-14-7.2-3.7-7.3.6-16.4 8.4-18.4z" class="B"/><path d="M295 189l1.8 2.3c2 2.6 4.8 4.4 7.6 6l.5 66.6-.3 8c-3.2-3.4-3-7.4-5.4-11.4-1.7-3.5-4.6-5.7-4.4-9.7v-62z" class="C"/><path d="M262 193.2a94 94 0 0 1 11.1 1.1c2.6.3 5 2.6 7.2 4l-7.8 5c-2.4 2.2-4 5-5.8 7.6-3.2-6-7.3-10.5-12.4-14.7 2.3-1.2 5-3.2 7.7-3zm-10.5 6.4a40 40 0 0 1 11.9 14c2.4 4.6 3.2 9.4 4.5 14.4-5.5-1-11-.3-15-4.8-6.3-6.4-6-16.3-1.3-23.6z" class="B"/><path d="M126.4 201.4l.7 20.6 1 71c.2 12.7.8 25.4.8 38-3.5-5-6.8-10-11.7-14V291c.1-27.5.2-55 2-82.6l7.2-7z" class="C"/><path d="M282.7 202c1.8 6 2.6 11.7-.4 17.4-2 4.5-6 7-10.2 9.3l-3.7-13.5c2.2-3.2 4.4-6.7 7.3-9.4 2-2 4.5-2.7 7-3.8zM271 250.5c6.5 0 13.8 2.3 18.2 7.3 4.6 5.4 6.7 11.6 8.7 18.3 6.4 2.8 13 2.7 18.5 7.5 4.3 3.5 6 9 4.5 14.3-1.6 5.8-5.8 9.3-10.5 12.6-2.7-3.2-5.5-6.2-9-8.4-1.2-3.6-2.7-7-4.4-10.3 1.8-3.2 5.4-6 6-9.7l-2.8-.3c-2.2 2-4 4.5-5.8 6.8l-8.5-7c1.3-2.3 2.6-4.3 3.7-6.7-1-1.3-2-1.7-3.5-1a29 29 0 0 0-3.5 6.3c-5.5-2-10-2.3-16-1.7l-1.6-10-2.6 1.7c0 3 .6 6 1 9a49 49 0 0 0-10 5.5l-4.2-7-4 .1 5.3 10-5.3 8c-5.3 1.8-9.3 4.7-13 9-5-4.3-9.7-9.2-9-16.4 1-5.7 3.6-12 9-15 5-2.8 12-1 17.4-1.6 2.7-3.7 4-8.3 7-12 3.5-5 8-8.8 14.5-9z" class="B"/><path d="M265 268.4l1.6 10L269 294l-3 .6-2.3-15.4-1-9 2.6-1.7zm21 5.4c1.4-.5 2.6-.1 3.5 1-1 2.4-2.4 4.4-3.7 6.7-2.7 5-3.4 11.3-6.6 16l-2.2-.7c.7-5.7 3.7-11.3 5.5-16.8l3.5-6.3zm-36.7 3.7l4.2 7c1.4 2.5 3 5 4 7.5l-3.3 2-3.7-6.5-5.3-10 4-.1z"/><path d="M266.6 278.4c5.8-.6 10.4-.3 16 1.7-2 5.5-4.8 11-5.5 16.8l2.2.7c3.2-4.7 4-11 6.6-16a72 72 0 0 1 8.5 7.1c-1.5 2.4-5.3 5.2-3.2 8.2 2.7.6 4.3-3.3 5.7-5 1.7 3.3 3.2 6.7 4.4 10.3-6-2.5-12.6-3-18.8-1-3.7 1.2-6.3 3.6-9.2 6-2.7-3.7-5.3-7-9.5-9a31 31 0 0 0-18.6-2.7l5.3-8c1.2 2 2.4 4.3 3.7 6.5l3.3-2c-1-2.6-2.6-5-4-7.5a49 49 0 0 1 10-5.5l2.3 15.4 3-.6-2.3-15.6z" class="D"/><path d="M300 282c1 0 2 .1 2.8.3-.6 3.6-4.3 6.5-6 9.7-1.5 1.7-3 5.6-5.7 5-2-3 1.7-5.8 3.2-8.2l5.8-6.8z"/><path d="M153 290c6.2-.1 11.2 3 15.7 7a37 37 0 0 0-14.4 10.8c-2.8-6-6.4-10.3-11.3-14.7 3.3-1.6 6.2-3.2 10-3z" class="B"/><path d="M50 291.6c2.7.4 5.7.2 8.2 1.2 5 2.7 7.7 8.8 8.6 14.2.5 8.4-5 16.8-13.5 18.6a122 122 0 0 1-13.1-1.2c-3.5-1-6.4-4.7-8-7.8-2.7-5-2.6-11.4-.1-16.3a22 22 0 0 1 8.6-8.2c2.6-1.6 6.2-.5 9-.4z"/><path d="M43.4 296.5c3.4-.5 7-.1 10.5.3 3.6.3 6.2 4 7 7.3 1 6.4-1.3 14.2-8 16.3a31 31 0 0 1-11.4-1c-8.7-5-7-19.3 2-23zm97-.5a43 43 0 0 1 8.9 11.5c3.2 6 4.2 12.4 5.3 19-3.8-.6-7.2-.8-10.5-3-5-3.3-9-8.5-8.6-14.7-.1-5 2.2-9 4.8-13zm30 4.8c2.3 6.4 2 13.2-2 18.8-2.4 3.7-6 5-10 6.5l-2.5-13.8c3.5-5.7 8-9.6 14.4-11.5zm77 .8a19 19 0 0 1 20.2 9.7c1.3 2.7.5 7.6-1.4 10a16 16 0 0 1-16.1 4.5c-4.7-1.4-10-4.3-12-9-1.7-3.6-1-8 1.3-11 2-2 5-3.3 8-4zm37.7 5.6c6.6-2 14-.1 18.4 5.3 2.6 3 3.6 8.5.7 11.8-2 2.3-4.7 4.3-7.5 5.5-4.7 2-10 1-14.6-1-2.5-1-5.3-3-6.6-5.4-2-4.3-1-10 2.7-13 2-1.6 4.5-2.5 7-3zm-168.5 18c2.8 3.5 4.8 7.7 7 11.5 6.3.4 13 .5 19 2.4 6 2 9.8 7.4 9.3 14 0 6-2.6 10.5-6.7 14.7a31 31 0 0 0-10.7-5.4 65 65 0 0 0-7.3-9.6l4-10.7-3.8.5-3.8 7-8.8-4.2 1.3-7.4-2.5-1.8a26 26 0 0 0-3.4 8.5 57 57 0 0 0-15 2.2l-4.2-9-2 3 3 7.2a82 82 0 0 0-7.7 6.8l-7.2-6.3-3.2 2 8.4 7.8-4.2 9.8c-4.8 2.7-7.7 6-10 11-3-1.3-6-2.4-8.4-4.8-3-3-4.6-7.2-4.7-11.5-.1-4.7 1-9.4 4.6-12.6 4-3.5 10.8-3.6 15-5.8 2.6-1.6 2.8-4 3.3-6.6 1-6.7 4.7-13.8 10.6-17.6 8.8-5.6 21.6-3 28.3 4.8zm203.5-2c6.3-2.3 14.3 0 17.6 6 2.2 4.5 1.6 11.6-3 14.3-3.2 2-6.6 4.8-10.6 4.2-5.6-.3-9.3-5.3-10.6-10.3-1.4-5.7 1-12 6.8-14.3z" class="B"/><path d="M305.4 332.8L306 436c-.1 8 1.4 16 1 24-.4 5-4.4 7.3-8 10l-56.5 44.5c-8 7-12.7 15.6-19.2 23.8-3.3 4.3-9 6.3-13.8 8.2a60 60 0 0 0-13.3 7.7c-15.3 11.2-29 24.2-41 39l-28.8-.2c4-6.4 8.7-12.3 13.4-18.2a78 78 0 0 1 25.8-21.2l33-15a28 28 0 0 0 6.6-4.4L240 506l27.3-22.6c4-3 6.6-7.5 9.7-11.3 3.4-4.5 7.6-9 10-14a63 63 0 0 0 4.9-20.8l2-46c.5-18 .6-35.8.8-53.7a47 47 0 0 0 8.6-3.2l2.4-1.3z" class="C"/><path d="M113.7 336.2l2.5 1.8c-.4 2.5-1 5-1.3 7.4l-2 15.5-4 1.8 1.6-18a26 26 0 0 1 3.4-8.5zm-22.5 1.5l4.2 9 6 14.6-3.6 1-6-14-3-7.2 2.3-3.4zm40 4.3c-1 3.8-2.5 7.2-4 10.7l-2 5-4 .4a44 44 0 0 1 2-8.3c1-2.4 2.5-4.8 3.8-7l3.8-.5z"/><path d="M110.3 344.6l-1.6 18 4-1.8 2-15.5 8.8 4.2a44 44 0 0 0-2 8.3l4-.4 2-5a65 65 0 0 1 7.3 9.6c-3.7-.6-7.8-1-11.6-.3-6.4 1.7-11 6-15.2 11-3-3-6.2-5.4-10.3-6.4-6.4-1.6-13.5-1-19.5 1.7l4.2-9.8c2 2 4 4 6 5.7l2.8-2-7-7a82 82 0 0 1 7.7-6.8l6 14 3.6-1-6-14.6a57 57 0 0 1 15-2.2z" class="D"/><path d="M77 348.8l7.2 6.3 7 7-2.8 2c-2.2-1.7-4-3.8-6-5.7l-8.4-7.8 3.2-2z"/><path d="M124.5 368.5c4-1 8-.7 11.8 1.2 2.3 1.3 5 2.5 6 5.3 1.8 4.7.3 10.3-4 13.3-3.2 2.2-7 4-11 3.6-3.4-.3-7-.5-10.3-1.8-4.8-2.2-6-8.6-4-13s7-7.2 11.5-8.5zm-38 4c7-1.4 13.8 1.3 18 7 1.8 4 1.3 9-2 12-5.4 5.6-15.6 5.6-22 2.2-5-2.3-7.6-8.5-5.3-13.6 2-4.2 7.2-6.7 11.5-7.6z" class="B"/><path d="M261.5 373.6c2-.8 4.3-1.4 6.6-1 8 1.3 15.4 7 16.7 15.5.1 4-.4 8-2.2 11.6-3 6-10 9.6-16.6 9.6-7 0-13.4-4.7-16-11-1.5-4-1.8-9-.5-13 2-5.5 6.6-9.7 12-11.6zm83.7 2c12-2.6 26 5.4 27.4 18.3.5 2.3 1.3 4.8 1 7.2-.6 4-3 8-5.2 11.3-4 6.4-11.8 10.5-19.4 10a26 26 0 0 1-12.2-3.9 26 26 0 0 1-9.9-14.3c-1-6.4-.1-14 3.8-19.3 3.5-5 9-7.7 14.6-9.2z"/><path d="M263.2 378.3c6.7-2 14 2.2 15.6 9a13 13 0 0 1-13.8 16.5c-6.3-.7-11.3-6.4-12-12.6-.4-6 4.7-11 10-12.7zm96.6 5c4.6 2.6 6 6.7 8 11.3l-13.8 2c-4.8-4.7-9.7-8.3-11.6-15 6-1 11.8-1.5 17.3 2zm-20.6-.4c1 2.8 1.5 5.4 3 8 2 3 4.7 5.3 7.3 7.6-6 2.6-10.5 6-15 10.7-1.7-3.6-3.5-6.8-3.4-11 .2-6.2 3.4-11.2 8-15.2zM206 390.6a24 24 0 0 1 15.8 8.6c2.8 3.5 5 7.3 6.4 11.6.7 2 1.4 4.7 3.3 5.7 4 2 9.6 2.2 13.5 4.6 3.2 2 6 5 7.4 8.5a17 17 0 0 1-1.8 14.1c-2 3.3-4.8 5.2-7.7 7.4a27 27 0 0 0-9.8-8.8l-5-10c2.2-3 4.7-5.4 7.6-7.6v-3.2l-2.6.7c-2.4 2.2-4.6 4.8-6.7 7.3a62 62 0 0 0-8.6-7.5l3-6.7c-.6-1-1.2-2-2-3l-5 7.8a48 48 0 0 0-14.9-1.7c-.4-2.7-.7-5.4-1.5-8-.4-1.5-2.3-1.2-3.5-1.6l1.2 10.4a60 60 0 0 0-10 5.2l-4.3-7.2-3.7-.7c.2 4 3.4 6.7 5.4 10a73 73 0 0 0-6.3 8.9c-4.8 1.8-8.4 4.3-12 8-2.6-2.2-5-4-6.8-7.2-2.3-4-2.7-9-2-13.2 1.2-4.8 5.2-9 10-10.8 5-2 11.2.4 16-.8 3.2-5.4 5-11 9.7-15.5a18 18 0 0 1 15-5.5z" class="B"/><path d="M120 397l11.4 1c2.8 11.7 8.3 22 14.8 31.8 3 4.6 5 9.3 8.5 13.4 2 2.6 4.7 4.7 6.7 7.4 1.4 2.4 1.8 5.4 3 8 1.5 3.2 3.8 6.2 6.5 8.5 3.7 3 8 3.2 11.2 6.8l17.7 18.3c-5.3 3.7-9 4.8-15.5 5l-30-34.7a250 250 0 0 1-29.3-42.7c-3.8-7.2-4-14.8-5-22.8z" class="C"/><path d="M368.5 398.3c-.6 3.7-.7 7-3 10.2-3.7 5-9.2 8.7-15.6 8.3-5 0-8.7-2.2-12.7-5 2.4-2.5 4.8-5 7.8-6.8 7.2-4.7 15-6 23.4-6.8z" class="B"/><path d="M194 408.8c1.2.4 3 .1 3.5 1.6.8 2.6 1 5.4 1.5 8l1.8 12.7c.2 1.5-1 3-1.6 4.4-3.5-4-2.8-11-4-16.3l-1.2-10.4zm25 3.5l2 3c-.7 2.3-2 4.5-3 6.7-2.5 5.3-4.3 11-7 16-1-1.3-3.3-1.7-2.5-3.7 1.5-4.8 3.6-9.5 5.5-14.2 1.5-2.7 3.3-5.3 5-7.8zm-41.8 4.2l3.7.7 4.3 7.2c1.3 2.2 2.7 4.4 3.7 6.7-.6 1-1.4 1.6-2 2.4l-4.2-7c-2-3.4-5.2-6-5.4-10z"/><path d="M199 418.4a48 48 0 0 1 14.9 1.7c-2 4.7-4 9.4-5.5 14.2-.8 2 1.4 2.5 2.5 3.7 2.7-5.2 4.5-10.8 7-16a62 62 0 0 1 8.6 7.5l-4.7 5.4 2.6 2a53 53 0 0 0 3.9-4.7l5 10A26 26 0 0 0 215 441c-4 1.3-6.8 3.6-10 6-3-3.8-6-7.3-10.6-9.4a30 30 0 0 0-18.1-2.1l6.3-9 4.2 7 2-2.4c-1-2.3-2.4-4.5-3.7-6.7a60 60 0 0 1 10-5.2c1.3 5 .5 12.2 4 16.3.5-1.3 1.8-3 1.6-4.4l-1.8-12.7z" class="D"/><path d="M92.5 419.7c-3 6.4-3.3 11.4-2 18.3a58 58 0 0 0-18.9-2.6c1.4-4.4 3-8.4 6.7-11.3 4.2-3.5 9-4 14.3-4.5zm3.7 1c3.3 1 6 3 8.2 5.7 4.7 6 4.7 14 1.5 20.7-4-2.6-7.7-5.3-11.7-7.8-1-6.4-2-13 2-18.6z" class="B"/><path d="M233.2 422l2.6-.7v3.2c-3 2.2-5.5 4.6-7.6 7.6a53 53 0 0 1-3.9 4.7l-2.6-2 4.7-5.4c2.2-2.5 4.3-5 6.8-7.3z"/><path d="M87 441a75 75 0 0 1 16.7 9.1 18 18 0 0 1-24.7 2.8c-4.6-3.4-6.4-8.2-7.8-13.5a32 32 0 0 1 15.7 1.6zm93.2.3c7.6-1 16.4 2.7 19.3 10.2 2 5-.6 12-6.5 12.4-5 .3-11.8 2.4-16-.8-2.7-1.7-5.6-4-7-7-1.8-3.6-.8-8.3 2-11 2.2-2 5.3-3.3 8.2-3.7zm38.3 5.4c7-1.4 16.4 1.4 19 8.8 2 6.8-4.2 13.2-10.5 14.5a25 25 0 0 1-14-2c-3.7-1.5-7-5.7-6.6-9.8 1-6.5 6-10.5 12-11.6z" class="B"/><path d="M286.6 447a50 50 0 0 1-7 16.4c-4.3 6.4-10 11.2-15 17.2-3.8 4-8.7 7.3-13 11C240.3 501 228 509 217 519.2l-17.4 14.5-22 10L151 558a117 117 0 0 0-22.7 24.4c-2.5 3.4-4.7 7-6.8 10.7H87.7l19.8-21.3a176 176 0 0 1 28.2-22.8c9-5.8 18.7-8 28.4-12.6a223 223 0 0 0 53.8-34.2c5-4.5 8.6-9.8 14.5-13.5 8.8-5.7 18.4-10.3 27.4-15.6 4.5-3 8-7.6 10.8-12.2 1.2-2 2-3.7 4-5 3.3-2 6.6-3.8 9.5-6.4l2.5-2zm-19 11.5a39 39 0 0 1-13 13.2c-8.7 4.8-17.8 9.4-26 15-5.7 3.8-9.2 9-14.4 13.5-15.2 13-33 23.6-51.3 31.8-8.8 4-17.6 5.8-26 11-21.5 13-37.8 32.2-55.4 49.7-10 .1-20-.1-30-.1l18-19C80.8 562 93 550 107 542l71-42.2c1.8 1.5 3.4 3.8 6 3.7a28 28 0 0 0 23.3-10.4c1.8-2.3-2.2-5.3-3.5-7 8-3.5 16-8.8 24.5-10.2 5.6-1 8.6-5 13.8-7l22.7-9.3 3-1.2z" class="C"/><path d="M201.8 467a31 31 0 0 0 10.4 7.9l-13.8 6.4c-3-3-6-6-9-9 4.5-1 8.4-3 12.4-5.3z" fill="#fff"/><path d="M122.5 469.7c6.3-2 14.5-1.7 19.3 3.4 5.6 5 7 14 4 20.7-2.3 6.2-8.4 10.2-15 10.5-8.2 1-17.3-5.3-19-13.4-1.4-4.8-.1-9.6 2.4-13.8 2-3.4 4.5-6 8.2-7.5z"/><path d="M127.5 473.5c5-.5 11 2 13.4 6.6 3.8 6.8.8 16.5-7 18.7a33 33 0 0 1-11.7-1.9c-3-1.7-5-5.5-5.5-9-1.3-6.6 5-13 11-14.6z" class="B"/><path d="M287 501.6c3.5.6 7.2-.2 9.8 2.6 3.5 3.2 7 8 7.2 12.8.5 5.2-2.4 10.6-5.5 14.6-2.3 2.4-6 5.5-9.6 4.6l-12-2c-6.7-2.7-10-11.4-9.2-18 .6-6.3 5-11 10.4-14 2.6-1.5 6-.5 9-.4z"/><path d="M292 506.8c2.4 2.3 5.2 4.7 6.2 8 1 3.4.4 7.4-1 10.6-2 3.5-6 6.5-10.3 5.7-3.2-.4-7.7-.4-10-3-4.8-5-5.4-13.5-.3-18.4 3.6-4.2 10.5-2.5 15.4-3z" class="B"/></svg>