<svg xmlns="http://www.w3.org/2000/svg" viewBox="0 0 400 610" width="533.3" height="813.3" xmlns:v="https://vecta.io/nano"><style><![CDATA[.B{fill:#d96038}.C{fill:#858585}.D{fill:#fff000}]]></style><path d="M0 0h400v610H0V0z"/><path d="M18.5 15.3c2.8-.2 5.7-.1 8.5-.1h355v472.5c-22.5-20.5-47-39.4-74-53.7l-52.5-29 48.6-57c5.7-6.2 10.8-12.7 15.2-19.8 2.6 4.5 6.4 8.2 11.2 10.3 5.6 2.4 12 3 18 1.6 5.7-1.7 11-5.7 13.7-11 2-4 4.3-8.6 3.8-13-1-5.8-1.8-11.6-6-16-5.7-6.3-14-8.6-22.2-8.2 3-7.7 5.3-15.4 5.4-23.8l.5-49.4c8-4 14-13.3 11-22.4-1.6-6.3-4.6-10-10.2-13L346 135c-.1-6 .1-13-2.6-18.4-2.5-2-5.2-3-8.2-1.5-6.3 3.2-12.6 10.5-11.7 18l-1.7 45c-.3 3.6-.1 7.4-.8 11-1.7 4-4.2 7.2-4 12-.2 4 2 7.2 3 11l-3 44a82 82 0 0 1-8.7 34l-16.5 26.4-2.7-113.4c-.1-1.8-.3-3.6-.6-5.4-1.4-.2-2.8-.6-4.2-.4-5.7 1.4-10.6 5.2-14 9.8-2 2.8-1.5 5.8-1.7 9l-.7 34.3c-2-6.7-6.3-12.2-12.7-15.2-4.7-1-9 .4-13-2.3l-2 1c-6.3-1.3-11.8 2.7-15.6 7.4-3.2 4.5-5.6 10-5.4 15.7.2 7 3 14 8.5 18.7 2 1.6 4.2 3.4 7 3.5l17 1c7.6-1.6 12.7-8 15.8-14.7l-2 82-30.6 33.4c.7-3 .8-5.5.4-8.5 3.7-2.6 7.2-5.2 9.6-9.2 3.6-5.7 4.3-12.7 3.2-19.2-1-6-5.3-10.5-10.4-13.4-6-3-12.3-4.8-19-5-2-7.5-7.2-13.2-13-18-7.6-5.6-18-8.4-27-5-4 1.5-7 4.3-10 7 .1-1.8.5-2.2 1.8-3.3 4.2-3.4 7.7-7.4 9.6-12.5 2.8-8 2-17.2-4-23.5-6.8-6.5-15.7-9.3-25-9.2a38 38 0 0 0-14.9-19.9l-19-141.6c-.8-4.5.2-9.2-2.7-12.7-2-2.6-3-5.5-6.5-6.6-4-1.4-10-.8-13 2.4-4.4 4.6-2.5 13-3 19l5 55.8c-4.3-.1-9-1-13.2-.6-7.5 2.8-13.3 9.7-15.5 17.3-2.7 10.3 2 23.2 12 27.7 3.6 1 7.5 1 11.2 1.4 3.5.2 7 1.4 10.4 0l4.3 38C98 247 93 255.2 90.4 264.2c-10.5-.1-20.8 5.4-25 15.3-3.5 7.2-2.4 15.8 1.8 22.4a35 35 0 0 0 14.6 12.3c.6 8.2 6.4 14.6 14 17.3 7 3 13.8 2.4 20.7 0 2 16.5 3.7 32.4 10.3 48 5.6 14 15.2 24.6 25.8 35.2 9 7.4 18.8 14 28.3 20.5l-15.5 15.3a34 34 0 0 0-19.3-16.2c-6.3-2.4-13.4-2.4-19.5.7-9 4.7-14.5 12.6-18.4 21.7-5-.4-10-.1-14.6 2.3-5 2-9.3 5.3-11.8 10.3-3.3 7.5-4.2 16 0 23.4 3 6 8 9.2 13.3 12.8.1 3.7.8 6.4 2.4 9.8-6.5 5.5-13 12-20.7 16-7.3 2-16.3-.5-23.5-2.5 4.4.2 8.8.5 13.2.6 3.6.2 7.4-2 9.8-4.5 4.4-5 6.4-12.2 4.8-18.5-1.6-5-5.5-10.2-10.5-12l-13.8-1.3c-6.7 1.8-11.5 8-13 14.5a21 21 0 0 0 9.2 21.2c-8.4-3.4-16.7-6-24.7-10.3-3.4-1.7-6.3-4-9.8-5.5V24l.1-8.7z" fill="#fff"/><path d="M100.2 87.2c3-.6 6.6.6 8.3 3.3 1 2.7 1 5.7 1.4 8.5l18.6 139.8a37 37 0 0 0-16.4-.1l-4.3-38.8c1-2.3 3.5-4 4.7-6.3 3.2-6 4.8-13 2.7-19.8-1.6-6.7-6.2-11.8-12-15.2L98.7 112l-.5-20c.3-1.8.3-3.8 2-4.8zm238 34a52 52 0 0 1 1 16.7l-1.6 44.8c-3.5-.3-6.7-1-10.2 0L330 136c.3-3-.4-6 1.5-8.5 1.8-2.8 3.6-4.8 6.7-6.2z" class="C"/><path d="M87 162.5l12 1c3 .1 5 2.5 7 4.3-6.5 2.6-10.5 7.3-14.2 13-3.4-6-7.4-11-13-15.2 2.5-1.5 5-3.5 8-3.2zM76.2 169c10.3 6.6 15.2 18.2 17.5 29.7-3.5-.4-7-.5-10.5-1.2a15 15 0 0 1-9.6-10.3c-2-6.2-1.5-13 2.6-18.2zm32.8 2.6c4 7.6 1.3 15.5-3 22.2-2 2.6-5 3.8-8 5a66 66 0 0 0-4-13.8c3.3-6.4 7.5-12 15-13.5zm221.2 16.7c2-1 4.5-.6 6.8-.5 3 .3 5.7-.1 8 2.3 5.4 4.5 6 12 3 18-1.8 2.2-4.7 4.5-7.2 5.8-3 .2-6.5-.6-9.6-1-3-.4-5.5-3.2-7.2-5.6-2-2.7-1.8-6.7-1.4-10 .6-4.2 4-7.2 7.6-9z" class="B"/><path d="M282 205l2.7 120c-.1 2 1 3 2 4.5 1.4-.5 2.8-1 4-1.6 1.7-1.7 3-4 4.2-5.8l15-22c5.8-8.3 9.7-18 11.7-28 1.8-8.7 2-17 2.4-26l1.5-28.7c3.7 1 7.4 1 11.2 1.2l-.5 51.6c.1 5.2-1.7 9.5-4.4 13.8-11.6 19-26.2 36.5-40.4 53.6l-52 59-7-4L270 352c1.2-1.3 1.6-2.3 1.6-4 .2-45 2.2-90 3.4-135-.3-4 4.2-6 6.8-8z" class="C"/><path d="M240.4 238.4a43 43 0 0 1-3.3 24.7l-6 9.6c-6-6-9.4-15-5.6-23 2.4-6 7.8-12 14.7-11.3zm4.6.6c3.7.4 7.3 0 10.4 2.5 5.2 3.8 7 10.4 7.7 16.4-6.7-3-13-2.6-19.8-.2 1.8-6.3 2.5-12.3 1.8-18.8zm-113 9a33 33 0 0 1 11.5 12.5c1.2 2.2 1 6.4 3.6 7.4 4.8 1.2 10 .8 15 2 3.8 1.3 7.7 3.6 10 7 2.5 3.6 2.4 8.7 1.6 12.8-1 5.3-4.5 9-8.7 12.3-3.2-3-6.5-5.8-10.6-7.5a49 49 0 0 0-6.2-10.2l5-9.5c-1-.8-1.7-2.8-3-2-2.3 2-3.5 5.6-5.2 8.2-3.2-2.6-6.2-4.5-10-6 .4-2.7 3-6.5 1.2-9l-2.4.4-2.3 7.7c-5.7-.8-11-.4-16.6 1-.8-2.7-1.5-5.5-2.6-8-.8-2-2.4-1-4-.7.2 3.7 1.6 6.7 2.6 10.3a41 41 0 0 0-8.5 5.8l-6.4-6.7c-2 .4-4.5-.7-4 2.3l7.6 7.7c-2.5 3.5-3.6 8-6.3 11.2-5 2.3-8.4 5-10.6 10.2a27 27 0 0 1-8.5-6.1c-6.3-7.4-5.4-20 3-25.7 5.3-4 11.5-3.3 17.7-4.3 2-1.4 2-5 3-7 2.3-8 7.3-14.8 15-18 6.3-2.5 13.4-1.2 19 2.2zm120 12.2c3.5.2 6.8 1.2 10 2.3-1.8 5.7-6.4 10.8-12 13-5 .4-10-.8-14.8-1L242 262c3.3-.8 6.6-2 10-1.8z" class="B"/><path d="M108 266.2c1.6-.4 3.2-1.4 4 .7 1 2.6 1.7 5.4 2.6 8l4.5 15c-.2 2.2-3 2.5-4 .7l-4.5-14.3c-1-3.6-2.5-6.6-2.6-10.3zm28-.2c2 2.5-.7 6.2-1.2 9l-3.6 16.4c-1.5.7-2.7 1.3-4.4 1a93 93 0 0 1 4.5-18.2l2.3-7.7 2.4-.4zm14 6.8c1.4-.6 2.2 1.3 3 2l-5 9.5c-1 1.7-1.7 3.4-2.8 5a13 13 0 0 1-3.6.8c-1-3.7 1.6-6 3-9 1.7-2.6 2.8-6.2 5.2-8.2z"/><path d="M131.3 274c-2.2 6-3.5 12-4.5 18.2 1.7.4 3-.2 4.4-1l3.6-16.4c3.8 1.5 6.8 3.4 10 6-1.5 3.2-4 5.4-3 9a13 13 0 0 0 3.6-.8c1-1.5 2-3.3 2.8-5a49 49 0 0 1 6.2 10.2c-9.8-2.6-23.3 0-29.3 9-7.6-9-21.2-12.4-31.8-6.8 2.7-3.3 3.8-7.7 6.3-11.2 2.6 2.4 4.4 6.6 8.3 6.4l.6-2c-1.8-2.7-4-5-6.2-7.6a41 41 0 0 1 8.5-5.8c1.6 4.7 2.8 9.6 4.5 14.3 1 2 3.7 1.6 4-.7-1.2-5-3-10-4.5-15 5.6-1.3 10.8-1.7 16.6-1z" class="D"/><path d="M96 275.6l6.4 6.7c2 2.5 4.4 5 6.2 7.6l-.6 2c-4 .2-5.7-4-8.3-6.4-2.4-2.7-5-5-7.6-7.7-.6-3 2-2 4-2.3z"/><path d="M342.4 298.3c-2.6 6-2.3 12-1 18.3-6.5-2.4-12.6-3-19.5-2.2 1.5-7 5-12.7 11.6-15.8 3-1.8 5.6-.6 8.8-.4zm4.6.7c1.6.1 3.2.2 4.5 1.3 4 3 7.5 6.6 8.6 11.5 1 4.7.3 9.3-1.8 13.6a66 66 0 0 0-12-6.6c-1-6.5-3-13.7.7-19.7zm-192.2 3.2c3 1.4 5 4.6 6.5 7.6 1 1.8.2 4.3-.5 6-2 5-6.7 8-11.6 9.6-2.7 1-6-.4-8.7-.8-4.8-1-9-2-11.6-6.6-1.4-5.5.8-10.5 5.3-13.7 6-5 13.8-5 20.6-2zm-56.4-.7c5.4-1.7 11.2-.6 16.2 2 3.4 1.8 6 4.8 6.6 8.6.4 3 1 5.6-1.2 8-4.6 6.6-14 8.2-21 5-3.2-1.4-6.6-3.6-8.5-6.6-2-2.8-1.6-6.7-.7-9.8 1.3-3.6 5.2-6 8.7-7.3zM205 316c4 4 5 8.6 7.6 13.4.7 1.2 1.4 2.6 3 3 4.6 1 9.6.7 14 2 5 1.7 9.5 4.6 11 10 1.3 5 1 11-1.8 15.4-1.8 3-4.4 5.2-7.2 7.2-3-3.8-6.2-6.3-10.7-8a76 76 0 0 0-5.9-10l4.8-8.4c1.3-1.6-.5-2.4-1.2-3.7-3 2-4.4 5.8-6.4 8.7a40 40 0 0 0-9.3-6.3l2-7.2c-1-1.3-2-1.8-3-1.6a35 35 0 0 0-3.3 7.5 47 47 0 0 0-16.3.6c-.8-2.8-1.3-5.7-2.5-8.3-1.2-1.4-3.5-1-3.7.8.5 3 1.7 6 2.5 9-3.5 1.6-6.4 3.6-9.2 6l-6.3-6.5-3.8.1c1.3 4 4.6 7 6.8 10.4a47 47 0 0 0-4.2 8.1c-2.6 2-5.3 2.8-7.6 5-2 2-3.3 4.3-4.7 6.8-4.7-3.2-9-5.8-11.2-11.4-1.8-4.4-.8-8.4.4-12.8 1.4-4.5 5-7.8 9-10 4.4-2.4 11-.4 15.3-2.7 3.3-8.4 6-16.8 14-22 9-5.7 21-2.2 27.8 5z" class="B"/><path d="M316.6 312.2c-.3 3 .4 6.7-1.3 9-5 8.6-11.2 16.7-18 24.2L249.7 402a229 229 0 0 1-6.5-3.6c25-27.7 51-56.4 73.4-86.3z" class="C"/><path d="M322 318.7c12.7-1.8 23.7 3.6 34 10.3-2.2 2-4.4 4-7.2 5-3 1.4-6.8.3-10 .1-3-.5-6.6 0-9-2-4-3.2-7.3-8.2-8-13.3z" class="B"/><path d="M124.7 324.4c1.7 1.8 3.5 4 5.7 5.2 2.7 1.4 5.8 2.2 8.7 3-2.6 3.2-5.3 5.7-6.6 9.8-2.3 8-2.7 16.6 2.3 23.7 2.5 4 6.3 6.3 10 9.2a71 71 0 0 0 24.6 27.4c11.6 8 24.3 14.3 36.2 21.8 12 7.8 24.6 14.6 36.6 22.4l44 29 34 24 22.5 18.5c12.5 10.8 25.6 22.2 36 35 1 1.3 2.5 3 2.2 4.5l-1 22c-13.4-14-27.3-27.8-42-40.7-19-17.7-39.2-35.7-61-50l-103.3-67.8-20-16a123 123 0 0 1-16.4-20.6c-10-17.6-12-38-14.4-57.7l1.8-2.6z" class="C"/><path d="M179.8 330.2c1.2 2.6 1.7 5.6 2.5 8.3l4 15.4c-1.4 1.8-1.7.7-3.4 0-1.3-4.7-2.8-9.4-4.2-14-.8-3-2-6-2.5-9 .2-2 2.5-2.2 3.7-.8zm22.2.3c1-.2 2 .3 3 1.6-.7 2.4-1.4 4.8-2 7.3-1.7 5.5-2.8 11.2-4.7 16.6-.7 2.3-4 1.3-3.7-1 1-5.7 2.7-11.4 4.2-17l3.3-7.5zm16.5 6.5c.7 1.4 2.5 2 1.2 3.8L215 349l-3 5.6-3.8-1.5c.8-2.8 2.4-5.2 4-7.6 2-3 3.5-6.7 6.4-8.7z"/><path d="M182.3 338.5c5.5-1 10.7-1.4 16.3-.6l-4.2 17c-.2 2.3 3 3.2 3.7 1 2-5.4 3-11 4.7-16.6a40 40 0 0 1 9.3 6.3c-1.6 2.4-3.2 4.8-4 7.6l3.8 1.5 3-5.6 6 10c-10.6-3.3-22.7 0-29.4 9-2.4-4-5.5-7-10-8.7-6.2-2-13.4-2-19.8-.8l.1-.3a47 47 0 0 1 4.2-8.1l3.2 4.5 4 .7c.2-3.4-2.2-6.5-4-9.2 2.8-2.6 5.7-4.6 9.3-6l4.2 14c1.7.7 2 1.8 3.4 0-1-5.2-2.7-10.3-4-15.4z" class="D"/><path d="M73.5 340.5c9.2-2.7 20.8.6 26.3 8.7 6.4 8.4 6.8 21.4.4 30-4 5-10.5 9.2-17.2 9.3-5 .1-9.6-.2-14-2.4-6.8-3.4-12.3-10.4-13-18-.4-6.4.3-12.7 4-18 3.2-4.4 8.3-8 13.5-9.5zm85.8-.8l3.8-.1a55 55 0 0 1 6.3 6.5c1.8 2.7 4.3 5.8 4 9.2l-4-.7-3.2-4.5c-2.2-3.4-5.5-6.5-6.8-10.4z"/><path d="M77.8 344.8c5.5 0 10.6.7 15 4.5 5 3.8 6.6 9 6.8 15-4.7-.4-9.4-1-14.2-1-4.8-5.2-8.4-11-7.5-18.5zm-4.8 1c-.2 7 2.8 12.8 7 18.2-6.5 1.2-12.5 3-18 7-1.5-6-1.3-13 2.7-18.2 2.2-3 5.2-5 8.4-7zm93.5 18.8c4.2-.8 8.2-1.2 12.2.7 3.8 2 8 4.4 9 9 2.2 5.7-2.5 12.7-8 14.4-7.5 3-16.5.2-21.8-5.6-2.8-3.4-3-7.7-1.6-11.7 1.8-4 6-5.8 10-6.7zm40 1c5-2 11.6-1.7 15.8 2 3.4 2.8 7 6.6 5.8 11.4-.6 4.2-4 6.5-7.3 8.8-5.7 3.8-13.7 3.2-19.6 0-4-2.2-7-7-6-11.7 1.5-5 6.8-8.6 11.4-10.4zM99 368.5c-2 9.5-12.6 16.2-22 15-5.8-1-9.5-4.6-13-9a38 38 0 0 1 9.7-4.8 54 54 0 0 1 25.2-1z" class="B"/><path d="M295 377.2c4 .4 7.3-.5 10.5 2.3 9.3 6 11 21 2.5 28.6-2.5 2.3-6.3 5.3-10 4.8l-12.6-.6c-4.5-3.4-8.6-7.8-10-13.4-1.2-7.7 1.5-16.8 9-20.5 3.5-2 6.8-1.2 10.7-1z"/><path d="M289 381.8c3.2-.2 8.3.1 11.5.7 7 3 9 12 5.4 18.4-2.2 2.3-4.7 4.3-7 6.4-3.6 0-7.3.3-11-.1a14 14 0 0 1-6.1-6.1c-1-3-1.2-6.2-.8-9.2.5-4.5 4-8.4 8-10z" class="B"/><path d="M193 390c4 4.6 11 6.3 17 7 4.3.6 7.7-1.3 11.7-2l86.8 46.3c14 8 27 17.6 39.7 27.3l34 28V514L304 460l-39.5-25.5-29.3-17.7-45-26.7c1-1 1.7-1 2.6.1zm-6 3c21.6 13.7 43.8 26.3 65.8 39.2 15.6 8.7 30 19.4 45.2 28.7l83.8 58.5a340 340 0 0 1-.7 30.8c-13.4-16.7-31.5-31-48.2-44-15.2-13.7-32.8-25.6-49.8-37.2-7-5-14.2-9-21.3-13.6l-59-37-31-18a46 46 0 0 1-6.6-4.9c4.3.8 8.3 1.6 12.7 1 3.3-.5 6-2 9-3.2z" class="C"/><path d="M154.8 447.2c4.7 4.7 7 10.5 8 17 5.6 2.2 12 2.8 17.5 5.4 3.6 1.8 7 4.7 8.4 8.6 2 5.8.5 12.5-3.4 17.2-2 2.3-4.2 3.8-6.6 5.5-2.8-3.8-5.8-6.4-10.2-8.3-1.2-4-3-7.5-5.3-11 2.4-3.6 5.4-6.4 6-10.6l-2.4-.5c-2.6 2-4.6 5-6.5 7.6-2.7-2.7-5.4-4.7-8.7-6.6a192 192 0 0 1 3.3-7.3c-1.4-.6-2.3-1.7-4-.7-1.3 2-2.2 4.4-3.2 6.6-5.6-1.6-10.8-1.6-16.6-.6L130 461c-1.7-.8-2.8-2.5-4 0 .3 3.2 1.2 6.3 1.8 9.4a42 42 0 0 0-9.8 5.7c-2-3-3.8-6-6-8.7l-3.5 2.2 6.3 9.7a42 42 0 0 0-5.3 8.4A24 24 0 0 0 96.8 498c-5-3.6-9.6-7.6-10.8-14-1-7.3 2.2-15.5 9-19 5.4-3.6 11.8-1 17.8-2.2.6-.4 1-1 1.2-1.8a36 36 0 0 1 11.9-18.2c8.8-7 22-3.3 29 4.4z" class="B"/><path d="M187 439a104 104 0 0 1 6 4c-5.7 5.7-11.2 11.7-17 17.4-2.8-.5-5.6-1-8.3-2L187 439zm10 6.5l9.2 6-15.4 17a56 56 0 0 0-9.9-6.7l16-16.4z" class="C"/><path d="M211.7 455.2l60 38.2a337 337 0 0 1 39 30c21.8 19 41.7 39.2 62.5 59.5l9 8.4v3.5H18.4v-31a140 140 0 0 0 32.4 12.7c9.8 2.2 21.2 3.3 31 .3 9.3-3.6 18-10.2 25.6-16.4l37-33.8c8.5 4 19 4 27.3-.6 6.5-3.7 10.8-11 9.4-18.5 6-3.8 11.7-9.2 14-16.3a25 25 0 0 0-.7-17l17.2-19z" fill="#fff"/><path d="M130 461c.7 2.7 1.2 5.5 1.8 8.3l2.8 14c-.1 1.6-2.2 3.8-3.4 1.7-1.7-4.6-2.2-9.7-3.4-14.5L126 461c1.3-2.5 2.3-.8 4 0zm21.4 2.3c1.6-1 2.4.1 4 .7l-3.3 7.3-5 15.6c-1.7.6-2.7 2-4.5.7-.7-2 .3-3.5 1-5.4l4.8-12.3c1-2.2 1.8-4.6 3.2-6.6zm-39.4 4c2.2 2.8 4 5.8 6 8.7 1.7 3 4 5 4 8.5-4.4 1.7-5-2.5-7-5.2l-6.2-9.7 3.5-2.2z"/><path d="M131.6 469.3c5.8-1 11-1 16.6.6-1.6 4-3.2 8.2-4.8 12.3-.6 2-1.7 3.4-1 5.4 1.7 1.2 2.8-.1 4.5-.7l5-15.6c3.3 2 6 4 8.7 6.6-1.5 2.3-3 4.6-4.3 7 1 1.8 1.5 1.7 3.4 2l3.7-5.5c2.5 3.6 4 7 5.3 11-4.3-1.7-8.8-2.7-13.4-2a32 32 0 0 0-15.8 8.2c-6.4-10-18.8-13.6-30-11a42 42 0 0 1 5.3-8.4c2 2.7 2.7 7 7 5.2.3-3.6-2.2-5.6-4-8.5a42 42 0 0 1 9.8-5.7c1.2 4.8 1.7 10 3.4 14.5 1.2 2 3.4-.1 3.4-1.7-.7-4.7-2-9.2-2.8-14z" class="D"/><path d="M167 470.4l2.4.5c-.8 4.3-3.8 7-6 10.6l-3.7 5.5c-1.8-.2-2.4-.1-3.4-2 1.3-2.4 2.8-4.7 4.3-7 1.8-2.7 4-5.5 6.5-7.6z"/><path d="M111.4 494.5c5.6-1 12.5-.6 17.3 2.8 4.7 3 7.4 8.3 5.4 14-1.7 2.8-3.8 7-7.3 7.6-4.5 1.4-9.4.5-14-.7-5.3-1.6-10-6.5-11-12-.3-6 4.3-10 9.5-11.5zm43 3.2c7-2 13.7 1.5 18 6.7 1.6 2.3 2.7 5 1.8 7.8-1.2 3.4-3.7 6.6-7 8-4.3 2-9 3.3-13.8 2-4.4-1.3-9-3.2-11-8-1.6-3.5-1.4-7 .7-10 2.4-4 7-5.5 11.2-6.6z" class="B"/><path d="M227.5 497.6c5-1 10.7-1.6 15.7.3A26 26 0 0 1 254 506c3.5 4.3 4.6 10.6 5 16-.3 7-3.7 14.4-9.5 18.5-8.6 6.7-21.4 6.8-30 .2-6.4-5-10.2-13.5-10-21.6.4-6.2 3.6-11.3 7.7-15.7 2.8-3 6.3-4.8 10.2-5.7z"/><path d="M56.4 498.4c3-1.2 6.6-.2 9.6-.2 4.6-.4 8 4.7 9.3 8.5 1.6 3.8.1 7-1 10.5a12 12 0 0 1-7.3 6.9c-3 0-6-.5-9-1-4-.1-6.8-4.5-8.5-7.7-3-6.5.6-14.2 7-17zm178.2 3a40 40 0 0 1-2 13.3c-2.3 7.2-7.7 13.6-12.5 19.4-6.8-7.6-7-20.3.6-27.4 3.8-3.7 8.5-5.2 13.8-5.3zm4 .3c6 2 11.8 5.8 13.8 12 1.6 3.7 1.2 7.3.8 11.2-6.2-3.7-11.4-4.6-18.7-3.7a42 42 0 0 0 4-19.5z" class="B"/><path d="M102 520a29 29 0 0 0 10.8 5.4L85 549.2c-2.7 2-5.3 3.6-8.6 4.2-12 2.2-24.2-1.2-35.4-5.4a102 102 0 0 1-21.9-10l2-16.4c12.2 6.4 24.3 12 37.8 15.3 7.4 1.6 16.3 2.4 23-1.7 7-4.2 13.5-10 20-15zm35.4-.8l2 3c-5.4 5.7-11 11-16.7 16.4L90 566c-4 2.6-9 5.5-14 6-6.7.8-13.5 0-20.2-1.3a121 121 0 0 1-37.4-15.2 148 148 0 0 1 .4-12.5c14.7 7.5 29.5 14 46.2 15 7 .4 15.2-.6 21.3-4.6 12-7.7 21.6-17.5 32-27 7 .6 11.5-1.2 16.8-5.4l2.4-1.8z" class="C"/><path d="M232.5 525.6c7-1.5 13.2-.5 19.2 3.4-2.5 4.5-5.4 8.4-10.3 10.4-6 2.8-12.4 1-17.7-2.6l9-11z" class="B"/></svg>