<svg xmlns="http://www.w3.org/2000/svg" viewBox="0 0 400 610" width="533.3" height="813.3" xmlns:v="https://vecta.io/nano"><style><![CDATA[.B{fill:#343333}.C{fill:#d96038}.D{fill:#858585}.E{fill:#ffe700}]]></style><path d="M0 0h400v610H0V0z"/><path d="M18.5 15.4c3.5-.3 7-.1 10.5-.1h274.8l-9 80.8c-.2 3-.8 6-.6 9 .7 11.7 2.8 23.3 5.4 34.6-4 .3-7.7.8-11.2 2.8-7 4-12 10.5-16 17.4l-2 .2L259 74c-.4-3.5-2.2-7-5-9-2.6-1.6-6-2.6-9.2-2.5-1.6.1-3.5 1-4 2.7-1.5 5.3-.6 11.5-.4 17l7.8 82.7c-3.7 4.6-6.3 10.3-7.3 16.2-1.2 8.3 4.4 16.2 10 22 2.8 2 2 7 3 10.3l-37 22c-5-40.2-7.6-80.8-4.7-121.3.3-2.3-.4-4.3-1-6.4-6.7-.7-13.6-.2-20.3-.2l-97 .6c-2.4.1-2.7.8-3 3-4 36.3-3.7 72.7-1.3 109l7.7 70.4c-4.4-1.8-8.7-3.6-13.5-1.7-6.2 3-12 6.8-17.8 10.2-3.5 2-6 4.8-7.4 8.5-1.7 4.7.2 10.7 1.7 15.3l11.2 29.8A956 956 0 0 0 126 464c27.2 47 60 93 99 130.8-4.7 0-9.4 0-14 0-2-.1-4 .2-6-.8-6.8-3.3-13.3-7.4-20-11l-56.4-36c2.3-3 4.4-6 5.2-10 .7-3.2 0-6-.5-9 4.3-4 8-8.3 9.6-14 2.4-8.5.1-20-8-24.6-6.6-3.6-14.7-5-22-5-4.7-8.4-10.5-15.6-20-18.5-8.4-2.3-19-2-25.8 4-6.5 6-10 14.3-12.2 22.8-3.2-2-6-4.5-9-6.8l-27-21.2V25l.1-9.6z" fill="#fff"/><path d="M310.6 15.4c5.4-.5 11-.1 16.3-.2a653 653 0 0 0-9.2 60.9c-1.2 13.4-1.8 27.4-.2 40.8.8 8 4 16 6 23.8l8.3 29-1.4-1c-1.4-6.2-3-12-7-17a33 33 0 0 0-16.3-10.8 291 291 0 0 1-5.8-33c-.6-4.4.1-8.6.3-13l7.4-69 1.8-10.6z" class="D"/><path d="M333.8 15.4l48.3-.1V309l-2-1.3-5.3 2.7c-6.4-9-16.2-12-26.7-13a45 45 0 0 0-8.7-14.7c-8.2-9-23.7-12.3-34.2-5.5a45 45 0 0 0-15.7 21.4c-5.5.4-10.8 1.4-15.6 4.3-5.6 3.3-9.2 9-10.5 15.2-1.5 9.2 2.4 19 10 24.5 2 1.6 4.6 2.7 6.6 4.4 1.2 4 2 7.6 5.2 10.7 5 5.6 11.4 7.4 18.4 8.6L258 401.7c-15.7-39.2-26.8-80-34.2-121.7l18.3-13.6c5.6 7.3 15.6 12.4 24.8 10.6 5-.5 9.5-2.6 12.7-6.4 3.7-4.7 7.2-9.4 7.3-15.7-.2-6-1.6-12-5.4-17l14.5-10.3c3 3 6 5.6 10.2 7a25 25 0 0 0 27-7.5c2.5-3 3.4-6.5 3.8-10.2 7-3 13-7 15.5-14.4 1.5-5 3-10.8.8-15.8-2.5-6.3-8.7-10.4-13.8-14.5-1.4-3.2-1.8-7-3-10.2-1.5-5.5-4.3-11.2-4.8-17 4.3-8 9.5-15.7 14-23.8l15.3 1c8-1.2 13.4-9.4 12.8-17.2-.1-7.4-4.5-13.2-10.4-17.2a471 471 0 0 0 15.6-36.2c-1.3-.8-2.4-1.7-4-1.7-2 2.7-3 6-4 9.2l-13 29c-3.6 0-8-1-11 1-4 2.5-8.5 6.7-9.3 11.6-1 6.5.3 13 4.6 18L329.7 139l-3.4-12c-2.7-8.5-3-18-3.2-27 0-25.7 4-51.8 9-77 .5-2.6 1-5 1.7-7.6z" fill="#fff"/><path d="M84.4 28.4c4.3-.8 6.8 5 4 8-2 1.6-6 1.5-7.6-.5-1-2.6.7-6.8 3.6-7.5zm162 1.3c3.5 2.7 1.7 9.7-3.3 9.2-4.3-.2-4.5-6-3-8.8 2-.7 4.2-1.6 6.2-.3zm35.7 1.6c4 1 4 7.5.4 9-1.7 1-4-.1-5.8-.5l-1.7-5c1.8-2.7 3.6-4.4 7-3.5zm-117.8 2c2-.5 5-.6 6.3 1.2 1 2 1 5-.4 6.6-1.4 1.4-4.2 1.2-6 .8-3.8-1-4-7.7.1-8.5zm184.6 1c2 2 .6 4.5.1 6.8-2 .4-5.4 2-7 .2-1.6-2-2.6-5.7-.2-7.5 1.8-1 5.5-1 7 .5zM109 36c1 3 .7 4.6-.2 7.6-2.2 0-6 1-7.3-1-1.2-2-1-6.5 1.4-7.8 2-1.3 4.2.6 6 1.3zm153-1.7c3 .6 4.4 2.8 6 5.2l-2.3 4.3c-2.2-.1-5.8 1-7-1.3-1.3-3-.7-8 3.3-8.2zm-128.7 3a8 8 0 0 1 5.3 0c2 1.2 1.7 4.5 1 6.4-1 3-5.4 3-7.4 1s-2-6.2 1-7.2z" class="B"/><path d="M199.5 37.5C210.3 33.7 223.2 40 228 50c2.4 6 3.2 13.5.5 19.4-2.3 5.4-6 10-11.5 12.4a25 25 0 0 1-32.2-10.5c-2.4-6.3-3.5-13.3-.8-19.6 2.4-7.2 8.5-12 15.6-14.3z"/><path d="M51.4 39.4c2-1 4.6-.3 5.4 1.8.7 2 .8 4.6-.5 6.2-2.6 2.5-8 1.4-9-2.4.4-2.3 2-4.4 4-5.6z" class="B"/><path d="M206.2 41.7a41 41 0 0 1-3 16.5c-2.5 6.2-6.8 10.5-11.2 15.3-2.6-4.3-5-8.3-4.7-13.5-.1-5.2 2.7-9.8 6.2-13.4 3.6-3.4 8-4.2 12.6-5zm4 .3c5 2 9.3 5 12 9.5 2.4 4 2.5 8.3 2.7 13-3.3-1.5-6.4-3-10-3.6-3-.4-6 .1-8.8.5a52 52 0 0 0 4-19.2z" class="C"/><path d="M75 46.6l1.3 3.4-1.3 4.2c-2 .3-5 2-6.5.1C67 52.6 67 49 68 47c1.5-2.5 5-.7 7.2-.3zm78.3 2.6c1.6-.7 4-.7 5.5 0 2 1 2 4 1.7 5.8-.4 3.5-6.2 3.7-8 1.7-1.3-2-1.4-6.2 1-7.5zm120 2c3.7-1.6 8 .5 7.7 4.8.2 4.7-7 6.3-9.3 2.5-1-2.2-.8-6 1.6-7.3zm82.3 1.3c3.5-1.5 7.6.3 7.7 4.5.4 5-6.7 6.7-9.3 3-1-2.2-.8-6.2 1.6-7.4zM119 53c2 .4 2.5 2.5 3.6 4l-1.5 4.2-4.3 1.6c-3-1.4-3.5-2.8-4.4-5.8 1.2-3 3-5 6.6-4zm-21 4.2c2.3-1 5.8-.8 6.8 2 .6 2 .8 4.6-.5 6.3-1.5 1.5-4.4 1.3-6.3.7-3.6-1.2-3.2-7.5.1-9zm35.4 2.2c1.6-1 4.7-1 6.4-.3 2 1.3 2 4.8 1.2 6.8-1 2.3-4.6 2-6.6 1.5-3.3-.8-3.7-6.3-1-8zm205 2.2c2-.7 5-.6 6.3 1.6.8 1.8 1 4.6-.4 6-1.6 1.4-4.5 1.2-6.4.8-1.2-1.5-2-3.3-2.5-5 .5-1.6 1.4-3 3-3.4z" class="B"/><path d="M204.5 65.4c6.8-.6 13.5-.7 19.3 3.3-2 3.3-4.4 6.2-8 8-6.4 3.5-13.7 3-20.2.1 2.8-4 5.5-8 9-11.4z" class="C"/><path d="M77.3 67.8c2 2 .5 4.8 0 7.2l-3.6 1.5c-3-1.3-5-3.2-5-6.5.8-3.6 6.2-4.6 8.6-2.2z" class="B"/><path d="M246.7 69.6l3.2.7c3.4 2.5 2.7 6.5 3.3 10.2 3.3 26.6 6.4 53.2 10.5 79.7l-9.6.6-5.7-64.8c-.7-8.8-1.6-17.5-1.7-26.4z" class="D"/><path d="M47.2 72.2c2-.8 5-.2 5.8 2 .8 2 .5 4.4-.8 6-1.6 2-5 2-6.7.3-2-2.3-1.3-7.2 1.7-8.3zM96 75c4.4 0 6 5.6 3.6 8.6-1.3 1.3-3.6 1.4-5.3 1-1.5-1-2.5-3-3.6-4.5 1.5-2 3-4.5 5.4-5.2zm31 7c1.5.6 2 2.6 3 4l-1.6 4.5c-1.7.3-3.6 1.3-5.3.8-1.6-1.3-2.5-3.4-3-5.3.6-2.8 4.2-5.4 7-4zM52.2 92.2c1.7-1 4-.8 5.7-.2 3 1.7 2.7 8-1 8.5-2 .4-4.6.3-5.6-1.8-.7-2-.8-5 1-6.6z" class="B"/><path d="M349.4 93.4c3-1 6.5-.7 9.6-.7 4.2-.2 7.6 3.7 8.7 7.4a21 21 0 0 1-.3 11.4c-1.4 2.7-4.5 5.3-7.4 6-3.3.3-6.7 0-10-.6-4-1-6-4.4-6.8-8-2-5.4 1.2-12.8 6.2-15.4z" class="C"/><path d="M69 113c3.6-1.7 8.8 3 6.8 7-1.4 3-7 3.6-8.2.3-.8-2-.7-5.8 1.4-7.2z" class="B"/><path d="M205.3 114c-2.5 68 3.5 136 19.5 202.2a571 571 0 0 0 36.7 108.4 415 415 0 0 0 53.7 87.2l-122.3 4.6-15-21c-35.5-53.4-57-115-69-177.7-13-66.4-18-135.4-11.8-203l108.5-.7z" fill="red"/><path d="M50 122.7c3 1.4 5.3 3 6 6.3-.6 4.3-7.7 5.5-9.5 1.6-1.2-3.3 1-5.8 3.5-7.8z" class="B"/><path d="M133.4 133c1.4-.3 3 .2 4.4.4l-1.5 17.4 18.8-2.7 1.6 1.7-2 4a102 102 0 0 1-19 3.2 117 117 0 0 0 .6 28.8l7.2-3.7c2-5.5 3.4-11.5 6-16.8 2-1.3 4 .5 3.8 2.5-.6 4-2 7.8-3.2 11.7 7 .4 14 .1 20.8.8 3.8 1 7.2 4 9.7 7 3.4 4.3 3.6 9.6 2.5 14.8-1.6 6.5-5 12.5-9.4 17.5L160 236c-2.7 3.2-6.3 6-8.4 9.6-1.2 1.7-.1 4.4 1.7 5.2 3.5 1.5 6.6.5 8.7 4.4l-2 1c-4.8 2.8-12-.2-13.4-5.7-1.4-3.8.3-7 2.6-10.2L170 216c4-5 8.6-11.4 9.2-18 .5-4-2-6.8-4.7-9.3-2-1.7-4.3-4-7.3-3.7l-20.4 1.2c-1.7 5.4-5 10.3-6.5 15.6 1.7 7.8 6.2 13.5 9.5 20.3.3 3.4-2.7 2.3-5 2.4a109 109 0 0 1-8.5-16.9c-2.8 3.8-5.4 7.6-9.5 10-2.7 1.7-6.2 2.4-9.3 1.5-2.3-1-3.8-2.8-3.6-5.3-.1-5.7 3.3-9.5 6.3-14 3-4.4 7-7.8 11.3-11-1.6-10.6-2.3-21.2-.8-32-5.7 0-11.4 0-17 .1-1.2-2-1.4-3-1-5.4l18.8-.2 2-18.6z"/><path d="M60.8 147.2c.5 2.3 2 4.8.2 6.8-1.5 1.6-4.8 1.5-6.7.6-2-1.4-2-5.3-.8-7.2 2-2.5 4.8-.8 7.3-.3z" class="B"/><path d="M319 157c3.7 5 3.2 12 5.7 17.2 3 1 6.3 1.6 9.3 2.7 4.7 1.5 8.8 4.4 11.3 8.7 3 5.2 2.7 12-1 16.8a26 26 0 0 1-9.6 7.6 37 37 0 0 0-8.2-8.6c-1-4-2.4-7.7-4.2-11.3 2-2.7 4.3-5 6.7-7.4l-2-3.5a58 58 0 0 0-7.3 6.8 64 64 0 0 0-7.7-7.2c1.4-2.5 3-4.7 4-7.3a52 52 0 0 0-4.1.1l-3.2 5.6a45 45 0 0 0-15.8-2.5l-1-9.2-3-.2c0 3.3.3 6.5.6 9.8a88 88 0 0 0-10 4.2l-4.5-7.5-3.7.2c-.1 4 3.2 6.4 5 9.7-3.3 3-5.4 6.4-7.3 10.4l-6 .5c-2.7 1.2-5 4-7 6.2-4-4-7.8-7.7-8.6-13.5-.6-8.6 5-17.6 13.6-19.5 4.6-.5 9.4.8 14 1.2 6-6.6 10-16 18.5-19 9-3 20 1.5 25.3 9.4z" class="C"/><path d="M289 165a69 69 0 0 1 2.9.2c.5 3 .8 6.2 1 9.2L294 189l-3 2.4-1.6-16.4c-.3-3.3-.6-6.5-.6-9.8z"/><path d="M51.4 167.6c1.3 2-.1 5-.6 7-2.4.5-4 .6-6.5.1l-2-5c.1-4.3 7-5.5 9-2.3z" class="B"/><path d="M316 171.4c-1 2.7-2.5 5-4 7.3-2.8 5.3-5 11-7.7 16.4-1.3-.7-3.3-1-2.3-3l6.6-15c1-2 2.2-3.7 3.3-5.6a52 52 0 0 1 4.1-.1zm-44.7.4l3.7-.2 4.5 7.5 5 8c-1.3.6-2.4 2-4 1.2-1.6-2.2-2.6-4.7-4-7-2-3.3-5.2-5.7-5-9.7z"/><path d="M289.5 175l1.6 16.4 3-2.4-1.3-14.4a45 45 0 0 1 15.8 2.5l-6.6 15c-1 2 1 2.3 2.3 3 2.7-5.4 5-11 7.7-16.4l7.7 7.2c-2.3 2.7-4.4 5.3-4.6 9 4-.6 5-2 7.2-5 1.8 3.7 3 7.4 4.2 11.3-5.4-3-11.5-4-17.5-3a30 30 0 0 0-11.9 5.6c-3.4-6-8-10.8-15-12.3-4.3-.2-8.7.2-13 .3 2-4 4-7.4 7.3-10.4 1.5 2.2 2.5 4.8 4 7 1.5 1 2.6-.6 4-1.2l-5-8a88 88 0 0 1 10-4.2z" class="E"/><path d="M61.4 178.4c2-1.5 4.3-.2 6.5.3l1.5 3.6c-1 2.4-1.2 4.4-4.3 5-5 1.5-6.5-6.2-3.7-9z" class="B"/><path d="M327 179l2 3.5c-2.4 2.3-4.7 4.7-6.7 7.4-2.2 3-3.2 4.3-7.2 5 .3-3.7 2.3-6.3 4.6-9a58 58 0 0 1 7.3-6.8z"/><path d="M43 189c3-.7 6.2.3 6.3 4 .4 4-3 6.7-6.7 5.3-2.3-.5-2.6-3.5-3.6-5.3 1.2-1.5 2-3.3 4-3.8z" class="B"/><path d="M140 190.2c0 1.3-.4 4.6-2.4 3.5-1.2-2 .8-3 2.4-3.5zm-7.4 4.4c.5 2 1.2 4.4 1.3 6.6-.5 2.5-2.5 4.8-4 7-2 2.5-4.7 5.6-8 6.4-1.3-.2-2.7-.5-4-1 2.6-8.3 8.6-13.2 14.6-19z" fill="red"/><path d="M266.3 198.3a59 59 0 0 1 13.7-.7c5 1.2 9.6 5.4 11.3 10 1.7 4.8-.6 11-5.8 12.4a83 83 0 0 1-11.6.7c-4 .2-7-2.6-9.6-5.3-2-2.4-4.4-5.3-4-8.6.4-3.5 2.6-7.3 6-8.7z" class="C"/><path d="M55.5 201.6c2.4-.7 5.4-.1 6 2.6.5 2 .7 5-1.6 6-2 .5-5.5.8-6.8-1.3-.8-2.4-.6-6.3 2.3-7.2z" class="B"/><path d="M307.5 205.5c7-2 14.8-.1 19.8 5.2 2.5 2.7 3.7 6.4 2.4 10-1 3-3.5 4.5-6 6-5.6 3.4-13 3.8-18.6 0-2.8-2-6.3-4.4-6.8-8-1.2-6 3.4-12 9-13.3z" class="C"/><path d="M257.4 218.3c4 4 7.6 7.8 13.6 8.5l16.4-.5-11 7.6a26 26 0 0 0-24.3-1.8c-5.2 2.3-8.6 7-11 12-2.3 5.3-2 10.4-1.4 16l-17 12.8-4.5-30.5 39.3-24z" class="D"/><path d="M354.4 219.5c1.4-1.4 4.7-1.2 6.5-.5 2 1.4 1.8 4 1.4 6-.5 4-7.6 4.3-8.6.5-.5-1.8-.7-4.6.8-6zm-300.7 4.7c.5 2.2 1.6 4.6.3 6.8-1 2-4 2.2-5.8 1.6-3.7-1-4.6-7-1.4-9 2.2-1.2 4.7-.1 7 .4z" class="B"/><path d="M263 234.8a37 37 0 0 1-.9 11.4c-2.3 8.2-7.4 14-12.6 20.6-2.7-3.6-4.8-7.3-5.2-11.8-.6-6.3 2.7-12.3 7.6-16 3.3-2.7 7-3.3 11.2-4.2zm4.3.2c4.3 2 9.2 4.6 12 8.7 2.7 4.2 3 9.2 3 14-2.7-1.4-5.3-3-8.4-3.5-3.5-.7-7.3-.3-10.8-.1 3-6.5 4.2-12 4.3-19z" class="C"/><path d="M354.3 239.3c2-.7 5.2-1 6.4 1 .8 2 .7 4.8-.7 6.5-1.7 1.8-5 1.3-6.6-.2-2-2-2-6.2 1-7.3zM47 247l4.2 2.2c.7 2.5.7 4 .1 6.5l-3.7 1.3-3.4-1.3c-.5-1.5-2.5-3.6-1.2-5 1-1.4 2.8-2.5 4.2-3.7zm297.3 5.8c1 1.8-.3 4.2-.7 6-2.2.5-4.7 1.6-6.8.4-2.4-1.3-2.4-5.3-1-7.4 2-3 7-2.3 8.5 1zm-277 .4c1.7-.7 4-.8 5.5.2 2 1.4 2 4.6 1.4 6.6-1 2.7-4.7 3-7 2-3.5-1.5-3.2-7 .1-8.7z" class="B"/><path d="M280.8 261.8c-3 4-5.7 7.6-10.5 9.5-6 2.3-12.3 1.3-17.7-2l8.3-10.7c7-1.2 13.8-.6 20 3.3z" class="C"/><path d="M152 268.4c6-.4 12-.3 18-.6 3.2 2.8 6.2 5.4 7.8 9.4 2.5 6.5 1 13.6-2 19.5-3 6.6-8.7 12-15.8 14.3-2.6.6-3.6-1.7-3.4-4 3-1.7 6-2.8 8.5-5 4.2-3.4 6.8-8.6 8.5-13.6 1.8-5 .2-11-4-14.3-2.5-2.3-6.5-3-9.7-4-1 5-1.5 10-3 14.8-1.2 4-3.7 7-6.4 10.3-2.7.1-5.8.8-8.4.1-2.7-1.6-3.7-5.7-3.6-8.6.5-5.5 3.5-11 7.2-15 1.6-1.6 3.5-3.6 6-3.6z"/><path d="M352.2 272.2c1.7-.6 3.8-.6 5.5.1 2.5 1.3 2.6 4.7 1.5 7-1.5 3-7.2 3.5-8-.2-.6-2-.7-5.3 1.2-6.7z" class="B"/><path d="M154.7 272.2a55 55 0 0 1-3.5 14c-1 3-3 4.3-5.6 5.8l-2-5a25 25 0 0 1 8.4-13l2.7-2z" fill="red"/><path d="M57.6 276.2c.1 1.8.4 3.7 0 5.5-1 2.5-4 3-6.4 2-3-1.4-3.4-6.4-.5-8 2-1.2 4.8.2 6.8.6z" class="B"/><path d="M319 280.3c6.4.8 13 3.7 17 8.6 3.2 3.6 4.4 8.3 6.7 12.3.6 1 1.2 2 2.4 2.4 5.3 1.6 11 1.3 16.3 3.8 3.7 1.8 7 4.6 8.3 8.7a20 20 0 0 1-1.4 13.3c-1.6 3.3-4.2 5.5-7 7.8-3.4-3-6.8-5.8-11-7.5-1.7-3.5-3.6-6.8-5.6-10 2-3.7 4.4-6.8 4.7-11.3-4 .4-6 4.8-8 7.7-3-2.2-5.8-4-9-5.8 1-2.7 2.2-5.3 2.7-8.2H332c-1 2.4-2 4.8-2.8 7.3-5.5-1-10.4-1-16 0-1-3.2-1.8-6.4-3-9.4l-2.8 1.8c-.2 3 1 6.2 1.8 9a75 75 0 0 0-8.1 5.9c-2.4-2.7-5.3-5-8-7.3l-1.7 3 7.4 7.2-6 10c-5 2.6-8.8 6-11.5 11-2.8-1.8-5.5-3.4-7.7-6-6.2-7.3-5.2-20 3-25.5 5-3.6 12.4-2.2 17.7-4.2 2.7-7 5-13.4 10-19 3.7-4 9-6 14.4-5.3z" class="C"/><path d="M87 295.6c3.8-.2 8.3.7 11.2 3.3 1 1.8 1.2 4 1.5 6l6.6 33.6c-10.7-12-19.7-25.3-29.4-38.2 3.3-1.6 6.6-4 10-5z" class="D"/><path d="M307.4 301.6l2.8-1.7c1.3 3 2.2 6.2 3 9.4l4.3 16-3.8 1-4.6-15.5c-.7-3-2-6-1.8-9z"/><path d="M73 302c10 12.8 19 27 30 39 2.7 3 5.5 5.5 6.3 9.7l14 47.4-16.2-19-37.2-50.7c-2.6-4.6-4.2-10.2-5-15.3-.7-5 4.6-8.6 8.4-11z" class="D"/><path d="M332 302h3.4c-.5 3-1.6 5.5-2.7 8.2-2.4 5.5-2.6 12-5.6 17.2-1 .3-1.7-.3-2-1.6.8-5.6 2.7-11 4-16.6.8-2.5 1.7-5 2.8-7.3z"/><path d="M313.3 309.3c5.5-1 10.4-.8 16 0-1.4 5.5-3.4 11-4 16.6.3 1.4 1 2 2 1.6 3-5 3.3-11.7 5.6-17.2 3.2 1.7 6 3.6 9 5.8-1.3 2.4-2.4 5-3.5 7.5 1.2.5 2 1.5 3.3 1 1.4-1.4 2.3-3.2 3.3-5 2 3.3 4 6.6 5.6 10-10.3-2.6-21.4-.3-28 8.5-2.5-3.2-5-6-8.8-7.8-6.4-2.8-14-3.2-20.7-1 2-3.4 4-6.6 6-10l4 5c.8 1.2 3.2.8 4.5 1-1.7-3.2-3.7-6.2-6-9a75 75 0 0 1 8.1-5.9l4.6 15.5 3.8-1-4.3-16z" class="E"/><path d="M349.6 308.4c-.3 4.4-2.7 7.5-4.7 11.3-1 1.6-2 3.5-3.3 5-1.3.6-2-.4-3.3-1 1-2.5 2-5 3.5-7.5 2-3 4-7.3 8-7.7zm-56.6.8l8 7.3a54 54 0 0 1 6 9c-1.3-.2-3.7.1-4.5-1l-4-5c-2.4-2.5-5-4.8-7.4-7.2l1.8-3zm-127.4 12c1.6 2 2.6 4.7 3.7 7l15-3 1.7 4.6c-4.5 2-10 2.3-14.7 3.5a130 130 0 0 1 7 21.2c5.4.4 11 .4 16.4 1.6 3 .8 6.5 2.2 7.6 5.3 1 3.4.6 8.2-2.3 10.6-2.5 2-5.6 3.2-8.3 4.7l-2.4-3.7c2.4-1.7 5.3-3.2 7.2-5.5 1-2 1.8-5-1-6-5-1.4-10.6-1-15.7-1.6.5 3.3 1.7 6.8.5 10-1 4.2-6.4 5.6-10.2 5.4-4.5-.6-9-2-13.2-3.2-3-1-4.8-3.2-5.3-6.3.5-3.6 3-6.8 6.4-8.2 4.6-2 10.3-2.6 15.3-3.3-3.3-8.2-6.5-16.5-10-24.7-.7-2-1.6-3.8-2-5.8 1-1.7 2.4-3 4.4-2.8z"/><path d="M376.8 323.8c.1 3.4.2 7 .3 10.3l-13.7 10c2.6-3.8 6.7-5.6 9.3-9.4 2.5-3.2 3.3-7 4-11z" class="D"/><path d="M295.5 335.5a22 22 0 0 1 18.4 2.7c5 3.3 7 11 3.3 16-4 4.5-10.3 6-16 5-4-.7-8.8-2.4-11.2-5.8-2.6-3.6-3.3-8.6-1-12.5 1.6-2.3 4.2-4 6.7-5.2zm42 .1c7.3-2 16.8.5 20 8 2 6.6-2.4 12.2-8.3 14.6-5.2 2.6-9.8 1-15 .1-6-1-10.4-8.3-7.6-14 2.2-4.2 6.6-7.4 11-8.8z" class="C"/><path d="M382 337.6v244.2l-60.8-64 4-1.4c-.5-2-1-3.6-2.4-5-21.2-25.2-38.8-53.5-53-83l18-15c-1.5 6-1 12 1.6 17.6 2.7 6 9 10.6 15.2 12.7 10 3 21-1 26.5-9.7 3-5.2 4.4-11.5 3.5-17.4-1.3-6.7-5.2-13.4-11.5-16.4-4.8-2.6-9.8-4-15.3-3 12.4-9.3 24.3-19.5 36.5-29 2-1.6 4.5-2 7-3 3.3-1.4 6-4 8.3-6.7 2-2.5 3.2-5.2 6-7l16.5-13z" fill="#fff"/><path d="M74.7 342.6l32 42.8 18.6 21.4c2.7 3.2 3.8 7 5.3 10.7a444 444 0 0 0 30.5 62.8c-13-13-25.6-26-38.4-38.8-2.2-2.2-4.3-4.5-5.8-7.2a888 888 0 0 1-41-88.8l-1-3z" class="D"/><path d="M51.4 350.5c1.2 2 .1 4.7-.3 6.8-2 .4-3.7 1.5-5.7.4-2-1-4-4-2.7-6.2 1.2-3.3 7-4 8.7-1z" class="B"/><path d="M174.4 360.4l1.5 8c-2.5.6-5.2 1.6-7.8 1.6-4.4-.5-8.6-2-12-5 5-4.2 12-3.7 18.3-4.5z" fill="red"/><path d="M323.8 360.4a45 45 0 0 0 11.7 5.9l-68.7 55.2-6-13.2c21-15.8 42-32 63-48z" class="D"/><path d="M54.5 367.6c2-1 4.8-1 6.4.5 1.4 1.6 1.2 4.5.6 6.4-1.3 3.4-7.7 3-8.4-.6-.5-2-.6-5.2 1.4-6.3zm299 14c2.8-1.4 6.6-.7 7.3 2.7 2 5-5.3 7.6-8.4 4.5-1.7-2-.8-5.6 1-7.2zM46.2 388c3.5-2.2 7 1.3 6.5 4.8-.2 4-5 5.6-8 3.2-2.3-2.2-1-6.4 1.4-8z" class="B"/><path d="M195.6 388.2c.3 2 .6 4-.4 6l-9 19c6-2 11.4-3.8 17.7-4a18 18 0 0 1 10.5 2.6c2.3 1.5 2.6 5 2.5 7.4-.4 3.6-1.3 7.3-4 9.8-4 3.5-8.4 6.4-13.6 7.4l-13.6 3 19.7 36.3c2.8 5 6.2 9.7 11.3 12.7 2.3 1.4 5.7 1 8.3 1.3 3.5 0 7.2.6 10.7 0 3-1.8 4.2-6.6 5-9.8A136 136 0 0 0 243 447l.1-7c2-.7 3.7-1.3 5.3.3.5 5.8-.2 11.8-.2 17.6a82 82 0 0 1-4.6 28.7c-1.3 3.5-3.4 6.3-6.2 8.8-7-1-14.2-.6-21.2-1.8a41 41 0 0 1-17.8-19.1l-17.3-31.8a30 30 0 0 1-2.7-6.8c10.6-4 21-2.7 29.5-10 3-2.4 3-5.5 4-9l-2.7-2.7L196 416c-5.5 1-10.4 3-15.3 5.7-1-.6-3.3-.8-3.6-2 .4-2 1.4-3.7 2.2-5.5l8.8-17c-5 .5-11.2 2.2-15.8.3-1.7-.8-1.3-2.6-1-4 4.3-.5 8.3 1 12.7-.4 4.5-1.3 7-4.6 11.4-5z"/><path d="M348 397c2.8 1.2 4.4 3 6.2 5.3-1 1.6-1.7 3.6-3 4.8-2 1.2-3.8.2-5.8-.2-.4-2-1.6-4.2-.7-6 .6-1.6 2-2.7 3.3-3.8z" class="B"/><path d="M311.4 401.2a44 44 0 0 1-2.6 14.6 56 56 0 0 1-11.6 17.3l-3.6-7c-2.4-7-.8-15 4.7-20 3.7-3.6 8.2-4.3 13-5.2zm4 .3c3.8 1.5 7.2 3 9.7 6.4 3.8 4.7 4.3 10 4.5 16-6.5-3-11-4-18.3-3.3a56 56 0 0 0 4.1-19.1z" class="C"/><path d="M77 407.2c3.4.5 6.8.1 9.5 2.3 7.3 5.3 9 16.3 5.2 24.2-2.7 4.6-8.3 8.4-13.7 7.7l-11.4-1c-8-3.7-10.5-12.8-9-21 1.4-5 5-10 10-12.2 2.8-1.3 6.6-.3 9.6-.1z"/><path d="M71.2 411.4c3.3-.1 7.8.6 11 1.6 5.4 2.2 7.6 8 6.4 13.6-.5 4.3-4 6.3-7 8.8-2 2-5.8 1-8.4 1-5-.1-8.7-3.8-10-8.4-2.3-6.4 1.6-14.5 8-16.6z" class="C"/><path d="M354.4 415.4c1.7-1.4 4.6-1.3 6.5-.4 1.8 1.2 1.8 4 1.3 6-.8 2.6-4 3-6.2 2.3-3-.8-3.4-5.8-1.6-8z" class="B"/><path d="M328.2 428c-3 4-5.6 8-10.6 9.7-6 2.6-11.7.7-17.2-2.2 3.2-3.4 6-7.4 9.4-10.5 6.4-1.5 13-1 18.4 3z" class="C"/><path d="M348.5 432.5c2-.6 4.5-.6 5.8 1.2a7 7 0 0 1 .5 6.1c-1.6 2-5.3 1.8-7.4 1-3.3-1.6-2-7.2 1-8.2z" class="B"/><path d="M125.7 450.5L166 491c5.5 5.4 8.6 11.5 13.2 17.7 3.4 4.5 6.5 9.5 10.4 13.6 1.8 1 5 .4 7.2.6l25.8 29.4 35.4 42.6c-8 0-16 0-24 0-16.5-15.3-31.5-31.8-45.6-49.3l-63-95z" class="D"/><path d="M339 451c2.8.3 6.2-.1 8.6 1.5 6 3.4 9.3 11 8.8 17.6-.5 6.3-5 11-10 14.2-3 2-6.5.7-9.8.6-2.7-.3-5.6-.3-8.2-1-4.7-2.3-7-6.7-8.4-11.5-2.7-7 1.5-15.8 7.5-19.8 3.8-2.6 7.4-1.5 11.6-1.5z"/><path d="M332.2 456.3c3.5-.8 7.4-.7 11-.2 3.3 1.3 6.5 4.8 7.7 8.2 1.6 6-1.6 13.7-8 15.6-3.7.6-8 .7-11.7 0-9.4-4.5-8.6-19.7 1-23.5zm-235.4 19c4.4 3 6.6 7.3 9.4 11.7 1 1.4 2 3.5 4 3.7 7 1.3 16.5.2 22.4 5 5 4 5 10.2 4 16-1 4.4-3.5 7.3-6.4 10.6a30 30 0 0 0-11.6-6l-6.7-8.7 4.4-11.5-4.3 1c-1.6 2-2.6 4.8-3.6 7.2l-9.3-5 1.3-7-2.6-2-3.4 8.2c-5.3.1-10 .7-15.2 2.4-1-2.6-1.8-5.8-3.6-8-.7-.4-1.5-.5-2.5-.4-1.4 3 1.6 7 2.5 10a51 51 0 0 0-8.2 7.2c-3-3-5-6.8-9.8-6.7-.7 4.7 4.7 7.5 7.4 11a72 72 0 0 0-3.4 9.2c-2 1-4.2 2.4-6 4-2 2.2-3.4 5.3-4.8 8-3-1.6-5.7-3-8.2-5.4-6.2-5.6-7-16.8-2-23.4 4.5-5.2 12.8-7 19.3-7.7a39 39 0 0 1 9.5-21.5c6.7-7.6 19.5-7.3 27.2-1.4z" class="C"/><path d="M18.4 473l28 21.4-7.4 3.7-19.6-15.6c-1.5-2.3-.6-6.8-.8-9.6z" class="D"/><path d="M18.4 489.5l16.6 13c-4.7 7.5-5.4 17-1.6 25.2 3.3 6.7 10.8 11.2 17.4 14 3.3 12 17 18 28.4 15.6 6-1 11-4.4 14.5-9.5L99 551c4.2 1.7 7.8 4.8 11.6 7.3l56 36.4h-148V489.5z" fill="#fff"/><path d="M97.7 490c1 .7 1.7 1.3 2.6 2-.4 2.4-1 4.7-1.3 7l-2.2 16-3.2 1.5c-1.2-6 .2-12.4.7-18.4l3.4-8.2zM73 492c1-.1 1.8 0 2.5.4 1.8 2.2 2.5 5.4 3.6 8l6 16c-1.3-.1-2.6-.3-3.8-.6l-6-13.7c-1-3-4-7-2.5-10zm43.2 3.8l-4.4 11.5-2.8 5.8c-1.4.2-3.2-.3-3-2 .4-2.4 1.6-4.7 2.5-7 1-2.4 2-5 3.6-7.2 1.4-.5 2.8-.8 4.3-1z"/><path d="M94.4 498c-.6 6-2 12.5-.7 18.4l3.2-1.5c.7-5.3 1.3-10.7 2.2-16 3.3 1.5 6.3 3 9.3 5-1 2.3-2 4.6-2.5 7-.1 1.7 1.7 2.2 3 2 1.3-1.6 2-3.8 2.8-5.7l6.7 8.8c-6.5-1-13.4-.1-19 3.3-3.4 2-5.6 5-7.7 8.3-2.3-2.3-4.4-4.5-7.4-5.8-7.3-3.2-15.5-2.6-22.6.8 1-3 2-6.2 3.4-9.2 1.8 1.7 4.4 5.2 7.2 3.7 1.2-3-3.3-5.7-4.8-7.8a51 51 0 0 1 8.2-7.2c2 4.5 3.6 9.3 6 13.7l3.8.6-6-16c5-1.7 10-2.3 15.2-2.4z" class="E"/><path d="M354.4 499.3c1.3-1.3 4-.8 5.4-.1 1.7 1.4 1.6 4.6 1 6.6-1 2.6-5 2.2-7 1.3-3-2-2.3-6 .5-7.7z" class="B"/><path d="M57.6 502.6c4.7 0 6.7 3.8 9.8 6.8 1.5 2 6 5 4.8 7.8-2.8 1.5-5.4-2-7.2-3.7-2.7-3.3-8-6-7.4-11z"/><path d="M335.2 507.2c2-1 5.3-1 6.8 1 1 1.7 1 4.2.2 6-1.2 2.5-4.7 2.6-6.8 1.5-3-1.6-3.4-7-.1-8.5z" class="B"/><path d="M291 518.8l21-1 68.3 71.8c1.4 1.4 1.7 3 2.3 5h-29L334 569l-43-50.3zm-5.4.4a1686 1686 0 0 1 44.7 51.6l18.8 24h-25l-58.8-75c6.7-.2 13.5-.8 20.2-.7zm-24 .8l57.5 74.7h-52c-1.7-.2-3.2.2-4.4-1.3l-60.7-71 25.4-1L263 562l23.5 28.5c1.4 1.6 3.5 3.3 4.7.5-1.6-3.2-4-6-6.3-9l-52.3-61 29-1z" class="D"/><path d="M351.4 522.3c2-1.2 5-1 6.4 1 1 1.6 1 4 .3 5.7-1 2.4-3.8 3-6 2-3.2-1.5-3.7-6.8-.7-8.7z" class="B"/><path d="M107.2 523.2a55 55 0 0 1 11.8.3c4.3.4 7.2 4.3 8.2 8.3 1.2 3.5-.8 7.7-3.8 9.6a49 49 0 0 1-9.5 4.9c-3.3.4-6.7 0-10-.2-4-.1-7.2-4.6-8.3-8-1-7 5.2-13.4 11.6-14.8zm-37.7 3.5c7.5-1.8 16 1.3 19.3 8.5 1.7 5.2-2 12.6-7.3 14.3-5.5 2.5-12 2-17.3-.8-4.4-2.5-7.7-7-6.7-12.3 1-5.7 7-8.4 12-9.7z" class="C"/><path d="M123 551c3.5 2 6.8 4.5 10.2 6.8l60 37c-6-.4-13.5 1.5-18.5-2.2L125 561c-4-2.6-7.6-5.4-11.7-7.8 3.3-.4 6.5-1.3 9.7-2.2z" class="D"/></svg>