<svg xmlns="http://www.w3.org/2000/svg" viewBox="0 0 400 610" width="533.3" height="813.3" xmlns:v="https://vecta.io/nano"><style><![CDATA[.B{fill:#d96038}.C{fill:#858585}.D{fill:#ffe700}]]></style><path d="M0 0h400v610H0V0z"/><path d="M177.5 15.2h48.3c-2.6 13-1.7 26.7 2.8 39.3a55 55 0 0 0 27.4 31.4 50 50 0 0 0 25.9 4.8c-1 4.2-2.5 7.8-1.4 12 1.4 6.4 7 11.3 12.4 14.7-5.5 8.5-3.2 20.8 3.7 28 5.8 6.2 15 9 23.2 10.6a99 99 0 0 0 27.2 1.4l35-3v80c-1.4-3.8-2.8-7.7-5.2-11-5.4 2.3-9.8 7-14.4 10.7-.6-4.2-1.5-8.2-4.2-11.5-5.7-7-13.6-10.2-22.2-12-2-9.2-6.2-17.4-14.6-22.2-7-4-16.5-6.8-24.3-3.2-6 2.8-11 8-15 12.8-7.2-4.3-14-9-20.5-14.3 2-2.3 4-4.2 5-7.2a30 30 0 0 0 .8-9.6c-.2-4.3-2.8-7.7-5.6-10.8-2.8-3.2-7.8-4.2-11.8-4.7-6.2-.8-11.6 2.6-15.7 7l-22.8-28c-2-3-4.5-2-7.6-2.4-.8 1.2-1.7 2.5-2.2 4-.1 2 1.6 4 2.7 5.6l23 27.7a37 37 0 0 0-10.5 1.4c-4.5 2-8.2 5.7-10 10.3-2 4.8-1.2 10.5 1 15 3.8 7.6 14.2 12.7 22.3 9 6.6-2 9.8-7.5 12.5-13.5 3.2 1 6 1 9.2 1 7.6 6 15.4 12 23.5 17.2-4.4.4-9 .7-13.2 1.7-11.4 5-17 20.3-11.4 31.6 2.5 5.7 7 9.7 12 13 .4 8.5 5.2 15.4 13 19 8.8 4.5 20 4.6 27.4-3 2.2 3 4.7 5 7.8 7l-23.2 16.7c-4.2-1.8-10-2.4-13-6a249 249 0 0 0-25.2-21.8c-24-18.6-50.3-37.8-78.3-50-7.6-12.7-16.6-26.4-28.3-35.5-7-5.7-15.7-9.3-25-9.3-14.8-.1-28.2 5.8-40.4 14-3.7 3-9.2 2.5-13.8 4.3-7 2.3-15.3 6.3-19.5 12.7 1.6 1.4 3 3 5 4 6.8 2.7 13.6 4.4 20 7.8 7.6 3.8 15.8 9.5 19.8 17.2 4.8 9.7 7 21 10.6 31.4 4.3 12.5 8.3 26.4 15.4 37.5 4.6 7.4 10.2 14.4 17 20 14.8 12.2 32.5 19.2 51.2 22.7l-7 9-10 1c-3.2 1.2-6 3.4-9 5L148 362c-.5.4-1 1-1 1.7-1 4.7-1.7 9.5-2.6 14.2l-28.4-1c-2.6.2-5.5.3-7.8 1.3-2.4 1-3.4 4.4-4.3 6.7-2.6 7.8-4 16-5.5 24.2-.5 2.2.2 3.4 1.7 5 4 4 9.6 6.7 14.6 9.3l95.6 48.5 47 25c8.8 5 17.8 13.5 20.2 23.6 2 8.2-1 15.3-4.6 22.4-5-2-9.2-4.3-13.6-7.8 2-1.5 3.8-2.6 5-4.7 3.3-4.8 3.6-10.8 2.6-16.4-1.4-8.2-10-14-18-14-6.7-.2-12.8 4.3-16 9.8-2.5 4.4-2.5 9-2 14L209 514c1.7-5.2 2.3-10.5.7-15.8-2-6.8-7.7-12.5-14.8-13.6l-16.5-2.3c-3.5-5.5-7.4-10.4-13-14a32 32 0 0 0-24-3.8 27 27 0 0 0-15.8 13.5 23 23 0 0 0-6.8-12.1 21 21 0 0 0-17.1-3.7c-4.4-8.2-8.4-16.6-12-25.2-1.3-3.3-3.4-6.7-4-10.2.1-3.4.7-7 1.2-10.3l-3-2.5c-1.4 2-1.3 4.3-1.6 6.5l-8.3-25c1-3.3 3.4-6.3 5-9.4l-2-3.2a45 45 0 0 0-4.9 7L61.5 343c-.5-2.7-.7-5.5-1.6-8-1.4-1.7-5-2.4-6.4-.4-1.3 1.6-.8 3.6-.7 5.5l4.2 24c-2.7-1.2-5.5-2.5-8.3-3.3-1.3.7-1.7 2-1.4 3.6 3.3 2 7 3 10.6 4.2a344 344 0 0 0 34 92.6l-19.6-19.5-6-7c-1-3.5-.3-7.5-1-11-.5-2-3-1-4.2-.1-.2 2 .1 4 .2 5.8L45 407l-15.7-24.4c-1.6-2.2-3.3-4.5-6.4-4-2 1.3-3 3-2.2 5.3 2 4 4.8 7.3 7 11l22 32c-3 .4-5.6-.2-7.7 2.4l1.8 2.6 9-1c11 13.8 23 27 36.6 38.4l-31-11.2-1-8.3c0-1.7-2.7-1.2-4-1.6l.8 8.3L29 444c-2.2-1-4.5-2.7-6.8-1-2 1-2 4.7.1 5.8 13 8.2 26.8 14.4 41 20-3.4 1.4-6.8 1.3-8 5.5 4.4 1.7 9.2-2.2 13.5-3.4l19.8 6.3c-1.5 8 2.6 14.2 8.4 19 2.8 2.2 6 2.5 9.4 3-8.2 7-10.4 19-6 28.8 3.7 7.7 11 12.4 19 15l2.3 5-14 3.4L90 540c1.8-4.2 2.8-8.5 1.8-13-1.6-6.2-5.6-11.8-12-13.6-4.3 0-8.7.6-13 1-2.6.2-4.3 1.7-6.5 3L48 506c-1.3 1.8-3.4 2.3-2.2 5l11.5 10.7a95 95 0 0 0-1.4 3.5c-4 9 2.6 21 12 23.6l12-.5c2.5 0 4.8-2.3 6.8-3.6l13 8.3-39.4 10c-1.6-5.6-4-12-9.6-14.8-3.5-2-8-.7-11.8-.6-2.7.4-6.2.1-8.4 2a22 22 0 0 0-6.8 9c-2 6.2.1 12.2 3.2 17.6 2.5 2.7 5.7 5 9.2 6.2 3 .1 6-.4 9-.6 3-.4 6-.1 8.4-2.4 3.6-2.8 4.6-6.5 6.5-10.4 3.3-1.3 7-2 10.4-2.8 18.2-4.7 36.5-9.3 54.7-14 6.2 5 14.5 7 22.3 5 6-1.5 10.6-5.4 14.6-10 5.3 4.4 10.8 3.2 17.2 4 2.7.2 5.2.7 7.8-.3 8.3-2.8 14.3-10 15.5-18.8l30 15c-1 6.4-.1 12.6 4.5 17.4 6.2 6.8 16.6 7.2 24.4 3a74 74 0 0 1 6.4 10.2c3 5.6 4.4 11.3 6.5 17.3-85.2 0-170.4 0-255.6 0V172.5c12.8.8 25.4 1 37.8-3.3 8-2.7 16.2-8 21-15.2 3.2-5 3.3-10.2 3.2-15.8 9 1.4 18 .7 25.8-4 6-3.6 11.3-7.5 13.4-14.5 1.7-5 .5-9.3-.3-14.2a31 31 0 0 0 8.6-18.6 48 48 0 0 0 22.4-5.3C160.3 77 169 69.6 174 60a63 63 0 0 0 6.3-26.9l-3-17.7z" fill="#fff"/><g class="B"><path d="M20.3 18.7H172c1 7.2 2.6 13.7 1.6 21-1.4 10.3-5 20.6-13.2 27.5-6.7 5.7-15.2 10.3-24 11.2L122 81c-3.7-1.7-7.6-3.5-10-7-2.2-3.6-2.2-8.7-1-12.7a11 11 0 0 1 17.5-4c2.2 2 1.8 6-.2 8.3-1.7 1.2-3.7 1.8-5.5 2.7 1.5 1 2.5 3 4.5 2.3 7.4-1.7 8.4-12.7 3-17-3.6-3-7.6-3.3-12-3.7-3.2-4-6.7-7.2-11.5-9-6.5-2.2-14.2-3.6-21-2-3.7.8-6.7 3.2-10.2 4.5-6.3.8-14-.7-20.4 1a52 52 0 0 0-20.7 10.2c-3.3 2.8-5.6 6-8 9.6l4.5.2a41 41 0 0 1 21.6-15c7.2-2.5 14-2 21.4-2.4-.3 4.8.6 9 4.2 12.3 7.3 6.6 18 8.2 27.5 6.7.6 3.8 1 7.2 3.6 10.3 3.4 4.4 8 6.5 13 8.5a25 25 0 0 1-7.8 15c-2-2-4.2-4-6.7-5.3-2.7-1.4-6-2-9-3-2-3.5-3.6-6.8-6.8-9.3-4-3-8.4-4.2-13.3-4.8-4.5-.5-9.5-1-14 .2-3.3 1-5.8 3.8-8.2 6C53.2 81.2 50 79 46 78c-5.3-1.7-11-.8-16.3-.1-2.3.2-3 1.7-4.5 3.2 8 1 18.6-1.4 25.5 3.2 4 2.4 5 6 6.6 10.3-2.2 4.2-4.8 7.3-9.3 9-7.5 3.6-14.3 1.5-22-.3a32 32 0 0 1-.1 4.4c7.6-.4 15-.7 22.7-1.2 5.3-.2 8.4-4.8 11.2-8.7 3 2.3 6 5 10 6 3.8.8 7.8 1 11.7 1.6.6 5 1.7 9.7 6.5 12.5a33 33 0 0 0 11.7-.6c2.6-2 3.3-5.6 2.4-8.6-1-1-2-1.2-3.4-.6-.5 1.8-.1 4.5-1.3 6-2.6.4-5.8.6-8.3-.4-3.3-2-3.6-6-3-9.4.4-5 6-8.2 10.6-8.7 6.7-1.2 13.8 4 15.4 10.4 1 3.6 2 7.5.6 11.2-2 5.6-8 9.3-13 12-9 4.5-18.6 3-27.7-.2-5-2.4-9.5-5-15.2-2.8-6.6 2.4-7.5 12.3-3 17 1.8 2 4.2 2 6.7 2.5-1.2-3.3-4-5.6-5.5-8.7-.5-1.8.5-4.4 1.7-5.7C60 128 67 130 70 133c2.8 3.8 5 9 3 13.5-2 6.2-8 10.4-13 13.4-11.4 6-25.7 6.6-38.3 6L20.4 19zm211.7.1l145.7.6v130.3c-6.4.1-9.5-4-14.7-6.6a59 59 0 0 0-21.8-5.8c-11.4-.6-22.5 3.4-32.3 8.8-3.2-2-6.2-3.5-8.5-6.5a20 20 0 0 1-4.3-12.8c.3-3 2.7-5.6 4.3-8 3.8.7 8 1.7 12 1.4a21 21 0 0 0 15.8-9.5c2.2-3.4 2-7 2.4-10.8 4-1.2 7.7-2.3 12-1.2 3 .8 6 3 6.4 6.4.2 3.5-1.6 7-4 9.4-2.3 2-6.4 1.8-9.4 2l-.6 3.7c2.4.1 5 .3 7.4-.1 2.4-.5 4.7-2.2 6.8-3.5l3.7 5c6.5.1 13.2.8 19.7.5 3.6-3 4.5-8.8 3.8-13-.7-6.4-6.4-11.6-12.2-13.7-5.2-1.5-9.2 1-13.4 3.4-2.2-1.7-4.5-4-7.4-4.3-4.5-.7-9.5 1.3-14 2.3-2.3-3.3-4.6-7.6-8.6-9-5-1.7-11.2.4-15 3.8-5 4.5-2 13.5 4.6 14.4 2.5.5 4-1 6.2-2-2.6-1.5-6.8-2-8.8-4.2C306 95 310 92 314 91.2c6-1.6 11 4.4 12 9.8 1.5 6.8-4.7 12.7-10.8 14.4-5.2 1.4-12.2 1.6-16.8-1.8-4-2.7-9.4-6-11-10.8-1.7-5.5.6-9.8 3-14.6 2.6-1 5.4-1.8 7.7-3.2 3.7-2.4 5.6-6.2 7.5-10 4.2 1.4 8 3 12.5 3 3.3-.1 6.2-1.3 9.2-2.5C333.8 78 340 80.2 347 78c6-1.7 9.7-6.8 11.4-12.6 1.5-5.6.4-10.7-.2-16.3a487 487 0 0 1 13.7-10.2c1.6-1.6 4-2 2.3-4.7-2.2-.2-3.6.4-5.3 1.7-6.6 4.7-12.3 9.8-19.8 13.2-18.4 8.7-42.4 8-58.8-5C283 39 279.6 31.8 274 25.3c-.5-.8-2.8-1.8-3-.3-1.4 2.4.2 4 1.3 6a70 70 0 0 0 16 16.6c-3.5.3-7.2.4-10.6 1.2-3.3 1-6 4.2-7.6 7.3-1.5 3-3 6.6-2.5 10 .5 1.7 2.2 3 3.4 4.4 2.4 2.2 4.8 4.8 8.3 4 3.2-1 7-2 7.8-5.7l-12.7.1c-2.2-.5-3.2-3.5-3-5.6.7-5 4.7-10.4 10-11.4 3-.6 6-1 8.8-1 6 1 11.4 5.4 12.6 11.5 1.3 6.7-1 14.8-6.2 19.3C290.7 86 283.8 84 277 84c-8.7.2-17-3-24-7.7-11-8-19-19.7-21.3-33.2-1.7-8-1-16 .2-24zM87 43c10-1.6 20.6.6 27.8 8a23 23 0 0 0-7.5 8.3c-1.7 3.2-5 3.4-8.3 3.5-6-.2-12.3-2.2-17.2-5.8-2.7-2-3.5-5-4.6-8 3-2.7 5.6-5.4 9.8-6zm267 8c.8 4.3 2 8.4 1 12.7-1.4 5-5.6 10-11 10.7-4.6.8-8.6-.5-13-1.8 2.3-2.4 4.8-4.7 6.2-7.7 1.3-2.6 1-5.7 1-8.5a101 101 0 0 0 15.7-5.4z"/><path d="M304.2 55.4c10 2.8 20 3 30.3 2-.4 3-.3 5.6-2.2 8-3.4 4.5-8.4 8.3-14.3 8.4-4.2.3-7.8-1-11.7-2.3a36 36 0 0 0-2-16zM77 81.5a32 32 0 0 1 12.3 4.2c2.6 1.8 4.2 4 6 6.6-2.5 1-5.3 1.8-7.5 3.4-2.2 1.7-4 4.4-5.4 6.7-3.7-.3-7.2-.5-10.7-2-4-1.7-8.6-3.2-10.8-7.2-2.4-3.6-.3-9.2 3.5-10.8 4-1.8 8.5-1.5 12.6-1zm287.3 18.3c3.7 2 7.6 5.8 8 10.2.5 3-.6 5.7-1.8 8.4H355l-4.2-4a23 23 0 0 0 1.7-12.2c3.8-2 7.4-4.3 11.8-2.4zM348 142a49 49 0 0 1 18.7 7.8L338 151c-8.2.4-16-1-24-3a56 56 0 0 1 34-6zm-96.4 14.6c3 .6 6 3 8.4 4.8-4 2-7 4.2-10 7.7-1.8-4-4-7.7-7-11.2 3-.8 5.6-2 8.6-1.4zm-12.4 4c6.5 6 7.8 13.8 8.8 22.3-3.5-1-7-1.3-9.4-4.6-4.4-5-3.2-12.6.6-17.7zm22.8 5c.3 4 .8 7.6-1.3 11.2-2 3.4-5.3 5-8.6 6.7-.3-3.2-1.3-7-.8-10 2.4-4.2 6.2-6.5 10.7-8zm-31.8 6.7a21 21 0 0 0 7.2 12.4c-.7 2.7-1.4 5.3-3.2 7.6a13 13 0 0 1-12.9 4.5c-3-1-6-3.3-8-5.8-3.5-6-2.7-13.6 3-17.8 4-3.4 9.4-1.4 14-1z"/></g><path d="M119 176.5c10.6.6 20 8 27.2 15.3 8 8 13.2 17.3 19.5 26.5 2 3.3 6.6 4.4 10 6 22.6 11 44 24.8 63.8 40.2l24.2 21c-11 1-21.6-.7-32-4.2-7-2.4-12.2-6.5-18.2-10.6l2.4 4-19 2.5c-5.7.8-11-.4-16.6-1.5l-1.5 3.6c4.3 2.7 10 3.3 15 3.3l25.5-2.8a47 47 0 0 0 14.2 7.4c-9.3 3.3-18.7 5.8-28.6 6.3-8 .5-16.3-2-24.4-3-.6 1.6-2.3 3-1.2 5 2.4 1.7 5.7 2.2 8.5 2.8 14.4 3 30.2-.1 44-4.5 4.8-1.3 9.3-4.4 14.3-3.6a97 97 0 0 0 15.2.3 100 100 0 0 1-13.2 8.8 100 100 0 0 1-42.3 11.2c-14.6.8-30-1.7-42.8-8.7-11.2-5.8-21.7-14-27.7-25.3a39 39 0 0 1-4-28.4C133 242.4 138 238 143 235c5.3-3 12-4 17.7-5-.5-2-.1-4.6-3-4.6a45 45 0 0 0-19.3 6.3c-6 3.3-10.4 8.8-12.6 15.4.5-6.3-.3-12.7-.2-19-.1-10 .6-19.8-3.7-29-1.8-4-4.8-6.5-8-9.2a17 17 0 0 0-12.8-4.8c-4.7 0-9.3-.1-14 1 9.5-6 20.4-10 31.7-9.4z" fill="#80b368"/><path d="M101.3 185c-4.7 1.7-7 5.8-8.8 10.3-.7 3 .4 6.7 2 9.2 2.6 3.7 8.5 4.2 12.6 4.7 2.3-.3 5.4-2.3 6.7-4.2 1.3-2.4 2-5.2 2.5-7.8.5-2.8-1-5-2.4-7.4 3.3 2.7 6.3 5.2 8 9.2 4.3 9.3 3.6 19.2 3.7 29-.1 6.3.7 12.7.2 19-1.7 8.7-1.2 17.6 2 26 5 12.4 14.8 22.8 26 30a93 93 0 0 0 33.3 12.3 185 185 0 0 0 32.5 6.8l15 1.2-5.7 1.5c-1 .6-1.4 2.2-2 3.2 1 .8 2.2 1.7 3.3 2.5l.2 7a134 134 0 0 1-37.9-.9 126 126 0 0 1-43.2-14.1c-6.5-3.7-12.8-7.6-18-13a72 72 0 0 1-14.6-21.4 158 158 0 0 1-10.9-28.9c-2.8-10.5-6-21-10-31-2.3-5.7-6.8-10-11.5-13.7-8.4-6.6-19-11-28.8-15 5.4-3 11-5 17-6.6 5.4-1.3 9.7-4.3 14.6-7 4.6-1 9.2-1 14-1z" class="D"/><path d="M101.3 185a17 17 0 0 1 12.8 4.8c1.4 2.3 2.8 4.6 2.4 7.4-.5 2.7-1.2 5.4-2.5 7.8-1.3 2-4.4 4-6.7 4.2-4-.5-10-1-12.6-4.7-1.7-2.5-2.8-6.2-2-9.2 1.7-4.5 4-8.6 8.8-10.3z"/><path d="M302.2 190.5c10-1.3 20.3 4.5 24.6 13.7 1.8 3.8 2.3 8.8 5 12 4 2 8.7 2.5 13 4 5 1.8 9.6 5.4 10.8 10.8 1 5 .6 10.5-2.4 14.8-2 3-4.7 4.6-7.6 6.6a27 27 0 0 0-10.7-9.5l-4.4-9.8c2.3-3 5-5.4 7.6-7.8v-2.8l-2.6.7c-2.5 2-4.7 4.5-7 6.7-2.7-2.8-5.4-5.3-8.6-7.6 1.3-2.8 5-6.6 1.4-9.2-2.8 1-4 5-5.3 7.4-5.2-1.4-10-2-15.5-1.8l-1.6-9.5a60 60 0 0 0-3.3 1c-.3 3 .4 6.2 1 9l-9.4 4.7-5-6.7c-1.8.3-3.3-.8-4.2 1.4 1.6 3 4 5.6 6 8.3-2.5 3-4.7 6-6.7 9.4-5 2-9 4.4-12 9-3-2.7-5.8-5.2-7.6-9-2.4-4.6-1.8-10.7-.1-15.4 2-5 6.8-8 11.8-9 4.6-1.2 9-.4 13.4.5l6.4-12a21 21 0 0 1 13.4-10.2zm-194.2.7c1.2 2 3.5 4.4 3.4 6.8.4 3-3.3 4.4-5.2 6l-5.8-.7c-2-3.3-3.6-6.6-1.2-10.4 2-3 6-1.7 8.8-1.8z" class="B"/><path d="M295.4 210.5l3.3-1 1.6 9.5 2.2 14.8-3 2.5c-2-5.4-2-11-3.2-16.7l-1-9zm25.6 3c3.7 2.6-.1 6.4-1.4 9.2L314 236c-1 1.7-3 4-4.3 1 1.3-5.6 3.8-11 6-16.2 1.3-2.5 2.5-6.3 5.3-7.4zm-39 4.2l5 6.8c1.7 2.5 3.7 5 5 7.8-.4 2-.4 2.6-2.7 2-2-2-3.7-4.7-5.4-7l-6-8.3c.8-2 2.3-1 4.2-1.4z"/><path d="M300.3 219c5.4-.1 10.3.4 15.5 1.8-2.3 5.3-4.7 10.7-6 16.3 1.3 2.8 3.3.7 4.3-1 2-4.4 3.5-9 5.7-13.4 3 2.3 6 4.8 8.6 7.6-2 2-3.8 4-5 6.5l4 .4 3-3.7a244 244 0 0 1 4.4 9.8 26 26 0 0 0-18.5-.8c-3.8 1.3-6.8 3.6-9.8 6.2-2.6-3.8-5.5-7-9.7-9-6-2.8-13.2-4.3-19.7-2.7l6.7-9.4c1.8 2.3 3.3 5 5.4 7 2.4.5 2.4 0 2.7-2-1.2-2.8-3.2-5.3-5-7.8l9.4-4.7c1 5.8 1.3 11.3 3.2 16.7l3-2.5-2.2-14.8z" class="D"/><path d="M335.4 223.5l2.6-.7v2.8c-2.8 2.4-5.4 5-7.6 7.8l-3 3.7-4-.4c1-2.6 3-4.6 5-6.5l7-6.7z"/><path d="M374.8 233.2l1.4 2.7-29.7 25.8-.1-3.4c3-1.8 6.3-3.4 9-6 3.2-3 4.7-7 8.2-9.8l11.3-9.3zm3 7l1.2 3.5a1245 1245 0 0 1-71 58.7l-6-1.6 25-19c3.3-2.6 7-4.4 10.5-6.5 4.7-3 7-7.2 11.4-10.6l26.5-22.4 2.4-2.2z" class="C"/><path d="M195.5 243.4c2.3 3.5 3.5 7.7 5.8 11.3 3.5 5.7 7.6 11 12 16l-8.3-4.5c-7.8-.8-17.8 2.4-24.8-2 1.5-1.8 1.8-4.7 4.7-3.8 5.2 1 10 1 15.2.6a60 60 0 0 1-9.3-17.1c1.6-.4 3.2-1.8 4.7-.5z"/><path d="M275.4 244.6c4-.8 8.5-.8 12.7-.8 6-.1 11.6 5.2 13.5 10.7.7 4-1 10-5.7 11a65 65 0 0 1-14 1c-5.7-1-11.6-6.4-12-12.4-.5-4.3 1.3-8 5.4-9.5zm44.8 3.4c7.7-2.2 15 2 19.2 8.4 1.6 4.7.1 10-4 12.8-4.5 3-11 4.2-16 2.6-4.3-1.4-9-3.7-10.7-8.3-1.5-3.3 0-7.4 2.2-10 2.5-2.7 6.2-4.4 9.6-5.4z" class="B"/><path d="M382 249.4v318l-13.7-53a109 109 0 0 0-13.8-26.8c5.3-.4 10.2-2.3 14-6.2 4.4-4.6 5-11.3 4-17.3-.8-4.2-3-8.8-7-11-5-3-10.2-3-15.7-2.3 2.6-7 3-14.3-1.3-20.6-5.3-7.7-13.6-10.8-22.4-12.8-2-8-5.3-15.5-12-21-6.8-5.5-16.6-8.8-25.2-6.2-5 1.4-8.2 4.7-12 7.7-4.3 3.5-7 8-9.6 12.8-6.3-.6-12.4-.5-18.2 2.6 4.8-7.7 3.8-17.8-2.8-24-4.6-5-11.3-5.3-17.5-4.2-5 1-8.7 4.5-11.5 8.3-3 4.2-3 9-2.6 13.8-6.6-3-13.3-5.3-20-8 15.2-9 30.5-18 44-29.3 4.8-4.2 10-9 13-15 1-1.7 1.7-3.5 3.4-4.7l20-14.8c20 12.2 43.2 20.6 66.8 22.8 2.5-2.4 4.8-5 6.4-8 2-3.4 2.6-7 4.6-10.4 1.4-2.4 2.8-5 2.6-8-.5-2.7-1.6-5.4-2.5-8l2-4.8c-1-2.7-1-5.3-3.2-7.3-2-2-5-4.4-8-4.5-9.2-.6-18.3-1.5-27.4-3.2l65.5-55z" fill="#fff"/><path d="M318 278.8c2 .1 4 .2 6 .4l-24.2 18-3.8-2.3 22-16z" class="C"/><path d="M270 292c6.2 4 13 5.3 20 7.8a92 92 0 0 1-28.7 16.7c-8.5 3.5-17 4.8-26 6.7a110 110 0 0 1-15.1-1.2 185 185 0 0 1-32.5-6.8c23.7 2.6 48-2.3 68.8-13.7 5-2.7 9.2-6.2 13.7-9.4zm24.2 13.5c5.3 1.2 10.3 3.3 15.8 4l25.2 3.4c3.4.5 7 .7 10.3 1.7 3 1.5 2.5 4.2 3 7-20.8-1.5-40.8-4.3-60.5-11.6l4-3 2.3-1.6zm-12 8.5l11 3.8c17.8 6 36.4 8.7 55 9.4 1 4 1 6-1 9.8l-26.4-4a167 167 0 0 1-44-15.9l5.5-3zm-10.8 6.2c15 8.2 31 14 47.4 18 8.6 1.6 17.4 2.4 26 3.7-1.3 3.8-2.8 6.8-5.5 9.7l-30.4-8c-14.8-5-29.2-12.7-41.6-22.2l4-1.3z" fill="#80b368"/><g class="C"><path d="M258.5 325l-21 12.5v-5.3c6.4-4.6 13.6-5 21-7.2zm7.8 4.6c1.2.4 2.3 1 3.5 1.5l-19.4 14.2c-3 2-3.7 5-5.3 7.8-2 3.8-5.3 6.8-8.4 9.6-14.8 13-33 23.3-50.5 32.6-2.4 1-3.2 4-1.8 6.2 3 2.2 7 3.2 10.2 4.8l27 12c5.7 3 12 4.8 17.8 7.6a60 60 0 0 0-1.8 11l-61.2-25.6c-4.5-1.4-9.2-1.3-13.7-2-2.6-.4-3.4-3.5-4.6-5.4l38.6-25c11.4-5.8 22-14 32.2-21.8 10.3-8.5 21.4-16 32-24 1.7-1.2 3.4-2.6 5.2-3.4z"/><path d="M252 333.7L203 370c-3.4 2.4-7 4.3-10.5 6.5l-37 23.4c-.4 4.3-1 8 2.3 11.5 3 3.5 9 2 13.4 2.7 11.5 2 23 7.6 33.6 12.3l34 15c3 6.5 7 12 13 16l1.3 7.5c-5.5-3.8-11-7.3-17.4-9.7l-58.8-24-14.2-5.8-31.7-15.3c-1.8-1-3.7-1.8-5.2-3 .3-3 1-6.4 3.8-7.8 4.7-2.6 9.6-1.8 14.7-1.8 2.7.1 5.4-1.6 7.7-2.8 15.7-9 30.7-19.2 46-29l54.3-32z"/></g><path d="M189.6 342.5l9.4 1-14 13.5v8.6c-3.5-.8-7.4-2.2-11-1.8a284 284 0 0 0-13 1.5c-4.3-.1-7.2 5-10.2 7.6l.7-7.3 14-8c2.7-1.7 6.5-1.2 9.6-1.5 1.7-.2 4 0 5.2-1.5 3.4-3.8 6-8 9.4-11.8z" fill="#fff"/><path d="M224.8 345l-34.5 20.6V360l22.5-13.3c3.6-2.2 8-1.4 12-1.7zm-42 25.4l-34.3 21c-3.4 2.3-6.7 1.5-10.5 2-4.7.2-10 1.7-13.5 5-2.6 3-2.7 8.2-1.7 11.8 1.6 1.7 4.3 2.6 6.3 3.7 15.3 7 30 15.3 45.7 21.2l60.4 24.5c9.3 3.8 18 10 26.2 15.8l21.4 15.6c5 4 8.4 9.8 12 15 2.3 3.7 5 7.6 6.3 11.8 1 2.7.3 5.3-.1 8l-4.3 24c-3.3 13.6 1.3 29.6 4.6 43h-20.6c-2.8-11.3-7.5-21-15-30a22 22 0 0 0 3.6-14.6c2 1 3.8 2 5.8 2.8 6.8-9.4 11.5-21.2 8.5-32.8-3.3-12.6-12.8-21.8-24-28-41.5-23.8-85.8-43.5-128.3-65.7-8.8-4.7-17.8-9.2-26-14.7l6-26.6a191 191 0 0 1 31.8 1.1c2 .1 4 .4 6-.3l24.2-14c3-2 6.5-.1 9.7.3z" class="C"/><path d="M238 390.2c-2 3.8-3.8 7.4-4.6 11.7-4-2.3-8-3.6-12.4-4.7 2.3-2.4 4.3-4.7 7.4-6 3.2-1.5 6.2-1 9.6-1zm3.3 2c3 3 5.5 5.5 5.7 9.8.4 4-1.4 6.8-3.2 10-2.3-2.3-4.5-4.7-6.7-7 .5-5 1.7-8.7 4.2-13zM295 396a23 23 0 0 1 18.3 8.8c3.6 4.6 4.3 9.6 6 15 .4 1 .7 2.4 2 2.8 5 2 10.8 3.2 15.4 5.8 3.8 2 7 5.5 8 9.8 1.3 5-.5 10.8-4 14.7-2.2 2.5-4.8 4-7.6 5.7-2.5-3.3-5-6.3-8.8-8.3-1.5-4-3.2-7.6-5.2-11.4 2.6-3.3 5.4-6 7-9.8h-3l-6 6.8-8.4-7.4 4-8c-1.2.1-2.4.2-3.6.4-1.8 1.2-2.8 4-3.8 5.8-5.2-1.5-10-2-15.5-2L288 415l-4 1.3c-.1 3 .5 6.2 1 9.2l-8.6 4.2a55 55 0 0 0-6.7-7.7l-2.8 2.2c1.5 3.2 4 6 5.8 9a107 107 0 0 0-6.4 8.8c-5.6 1.2-9 4.4-12.4 8.8-4-3.7-8-7.2-9.2-13-1.2-7 1-15 8-18.4 6.3-3.4 12.2-1.4 18.8-2.3 1.2-1.5 2-3.4 3-5 2-4.2 5.4-8 8.8-11 3.3-3 7.3-5 11.8-5zm-75.3 5c3.6.7 7 1.3 10 3a36 36 0 0 1 11.5 10.6c-5.7 2-11.6 2.7-16.5-1.6-3.8-3-4.7-7.3-5-12z" class="B"/><path d="M284.2 416.4l4-1.3 1.6 9.6 2 14.2-2 2.6-2.6-2-2-14-1-9.2zM309 421c1.2-.2 2.4-.4 3.6-.4l-4 8c-2.2 4.8-4 10-5.8 15-1.3.3-2.6.6-4 .7 1-6 4-11.6 6.2-17.2 1-2 2-4.6 3.8-5.8zm-39.2 1l6.8 7.7c1.3 2.7 4.8 6.7 3.8 9.8-4.3-.2-5-3.4-7.4-6.4-2-3-4.4-5.8-5.8-9l2.8-2.2z"/><path d="M289.8 424.6c5.4-.1 10.3.6 15.5 2-2 5.6-5 11.3-6.2 17.2 1.3-.1 2.6-.4 4-.7l5.8-15 8.4 7.4c-2 2.4-4 4.7-4.7 8 3.7-.7 4.7-1.8 7-4.8l5.2 11.4c-9.6-5-22-3.8-29.4 4.2-2.6-4-5.3-7.6-9.6-10-6-3.4-12.5-3.7-19-2.5a107 107 0 0 1 6.4-8.8c2.3 3 3 6 7.4 6.4 1-3-2.5-7-3.7-9.8l8.6-4.2 2 14 2.6 2 2-2.6-2-14.2z" class="D"/><path d="M323 429c1 0 2.2.1 3.4.2-1.8 4-4.6 6.5-7 9.8-2.2 3-3 4-7 4.8.7-3.3 2.6-5.6 4.8-8l6-6.8z"/><path d="M266.5 449.7c4.8-.5 11-2 15.4.5 3.7 2 7.7 5.5 8.3 9.8.2 3 .1 6.6-2.2 9-2.5 3-8.3 2.5-12 3-8.2 1.8-17.8-5.3-17.3-14 .7-3.6 3.8-8 7.7-8.2zm41.7 4.6c5.7-.8 11.5-.4 16.2 3.3 3.6 2.7 5.2 7.6 4 12-1 3-4.3 5.4-7 7-4.7 2.8-10.6 2.2-15.7.8-5.3-1.4-9.4-6.8-9.2-12.3.5-5.7 6.4-10 11.7-10.7zm44.3 1.3c5.5-1.4 12.3 2.4 14.4 7.6 4.3 7.8-2 18.7-11 19-6 .7-12-3.7-13.6-9.4-.8-4-.7-9 2-12.3 2-2.2 5-4 8-5z" class="B"/><path d="M336.3 463c.1 2.6-.2 5-1 7.4-.1-2.6-.3-5 1-7.4z" fill="#fff"/><path d="M108 466.6c3 1 6 1.8 8 4.3 2.2 2.7 4.7 6.4 4.6 10 .1 3.3-2.2 6.3-3.8 9-3-4.5-6.2-8.7-7.8-14-1-3-1-6.2-1-9.4zm-4 .7c.3 4.4 1 8.7 2.2 13a48 48 0 0 0-12.4 1.8c.4-3 .5-6.5 2.2-9 2-3 5-4.2 8-5.7zm49 3.7a25 25 0 0 1 18 12.8c1 1.7 2 4.3 3.8 5.4 3.3.1 6.6-.7 10-.4a30 30 0 0 1 10.5 2.7c6.2 3 9.8 10.6 8.2 17.3-1 4.4-3.5 7.6-6 11-3.4-2.3-6.3-3.8-10.6-3.8l-8.7-10.8 4-11c-1.4.2-2.7.5-4 .8a21 21 0 0 0-3.9 6.9l-9.6-4.2 1.4-7.8-3.5-.1c-1 2.4-1.5 5-2 7.4a54 54 0 0 0-15.4 2.7c-1.3-2.8-2.5-6-4.5-8.3l-2.6.4c-.4 3.3 2.2 7 3.3 10-2.8 2.4-5.3 5-7.7 8l-6.2-6-4.4.8a111 111 0 0 0 8.6 9.2c-1.2 3-2.4 6-3.6 9.2a34 34 0 0 0-9.7 12.5c-5.2-2.3-10-4.6-12.3-10-3-7-2-17.2 4.7-22 5-4 11-3.2 16-6.7.3-4 .8-8 2.5-11.7 2-4.3 4-9 8.2-12A20 20 0 0 1 153 471z" class="B"/><path d="M292.4 474.5l7.2 7c3.8 2.4 8 2.7 11.7 5.3a29 29 0 0 1 8.4 7.6A128 128 0 0 1 326 506c3.2 6.7 7 13.8 9 21 1 3.4-.1 6.4-1.2 9.6-2 5.4-4.4 10.6-5.4 16.4a33 33 0 0 0 2.2 15.5 157 157 0 0 0 11.6 24.5H306l-6.2-29c-.6-4-.1-8 .8-12l5-28.6c.8-4.5-.8-8.2-2.8-12a95 95 0 0 0-13.2-18.8 270 270 0 0 0-17.2-13.2c6.3.7 12.3.3 17.7-3.3l2.4-1.6zm40.4 1l11.8 10a56 56 0 0 1 9 13 187 187 0 0 1 17.8 49.2 285 285 0 0 1 7.4 45.5h-32c-5.4-9-10.5-18.5-13.4-28.6-2-6.6-1.7-13.6 1-20 2.4-6 6-11.7 4.2-18.3a139 139 0 0 0-15.5-33.4c-2-3.2-4.8-5.4-7.8-7.5a37 37 0 0 0 9.8-3c3-1.7 5.3-4.2 7.7-6.7z" class="C"/><path d="M105 484c4.3.1 6.3 5.8 8.7 8.7-3.7 1.3-7 2-10.8.5-4-1.2-6-4.3-8.3-7.5 3.5-1.2 6.6-2.5 10.4-1.7z" class="B"/><path d="M162.7 490h3.5c-.5 2.6-1 5.2-1.4 7.8l-1.5 15c-.1 1.4-1.4 2.4-2.3 3.3-2.3-1.3-1.4-3-1.4-5.2l1.2-13.5c.4-2.5 1-5 2-7.4zm-21.7 2c2 2.3 3.2 5.5 4.5 8.3l6 13-1 3.4c-1.4-.8-2.8-1-3.5-2.5l-5.4-12c-1.2-3-3.7-6.6-3.3-10l2.6-.4zm37.3 3.3l4-.8-4 11c-1 2.5-2 4.8-4 6.5l-2-3.2 2-6.5a21 21 0 0 1 3.9-6.9z"/><path d="M160.8 497.5l-1.2 13.5c.1 2.2-1 4 1.4 5.2 1-1 2.2-2 2.3-3.3.7-5 .7-10 1.5-15l9.6 4.2-2 6.5 2 3.2c2-1.8 3-4 4-6.5 3.2 3.4 6 7 8.7 10.8-4.3-.2-8.8-1-13-.7-6.6 1.2-11 5.8-15 11-8.7-7-21-9-30.6-3l3.6-9.2 5.2 4.8 2.6-2.3a54 54 0 0 0-5.7-6.5c2.4-3 5-5.4 7.7-8 2 4 3.4 8 5.4 12 .7 1.6 2 1.8 3.5 2.5l1-3.4-6-13a54 54 0 0 1 15.4-2.7z" class="D"/><path d="M127.7 504.2c2.2 2 4.2 4 6.2 6l5.8 6.5-2.6 2.3-5.2-4.8a111 111 0 0 1-8.6-9.2l4.4-.8z"/><path d="M254.6 506.4c3.2 1.3 4.8 3.8 7 6.3l-11.6 4.6a24 24 0 0 0-5.2-11.6c3.4-.2 6.6-.7 10 .7zm-13.4 1.4c3 4 4 7.6 4.7 12.5l-7 7.6c-1.4-3-3-5.4-3-8.8a14 14 0 0 1 3.2-8.8l2.2-2.4zm21.8 8.8c-.2 6.2-2.6 12.5-8.8 14.8-4.3 1.7-8.3.6-12.4-1 5.2-7.3 12.6-11.8 21.2-14zM81.8 520c-3.2 3.2-6 6.4-8.5 10.3-2.5-3.8-5.4-6.4-9.2-9 5.3-3.2 12-3 17.7-1.3z" class="B"/><path d="M205.6 520.3c2.3.5 4.4 1.6 6.6 2.6l28.4 12.7-5.6 5.4-33.7-16.2 4.3-4.4z" class="C"/><path d="M175.5 521.6c3.7-.7 7.6-.2 11.3.1 2.5.2 4.4 1.5 6 3.5 3.5 4 2.8 11-1 14.5-2.7 2.8-5.7 5-9.7 5a57 57 0 0 1-11.7-.2c-4.3-2-7.6-6.8-6.4-11.6 1-6 6.2-9.7 11.6-11.4zm-91.5 2c1.5 3 3.3 6.5 2.4 10-1 3.2-2.7 6.6-5.5 8.5-2.5 1.3-5.8 1.3-8.6 1.8 2-8 5-15.2 11.7-20.4zM61.6 525a21 21 0 0 1 9.7 9.1l-3 10c-3-2.4-6-4.2-7.2-8-1.3-3.8-.4-7.2.5-11zm73.6 2.3c7.2-2.2 16.7.1 21 6.7 2.8 5.2.2 12.5-5 15-7 3.6-16.2 3.3-22-2-3.3-3-5-8.7-2.8-12.7 2-3 5.4-6 9-7zm110.2 12c6.6-3 16.5 1 17.8 8.6.7 4 .5 9-2 12.3-6 6.8-19.8 5.7-23-3.4-2.7-7 .5-14.4 7.2-17.4zM36.4 553a39 39 0 0 1 9.5-.5 13 13 0 0 1 7.8 6c3.2 6.2.7 15.2-6 18-4 .6-9 1.5-13-.1-9.3-4.6-8-20.4 1.7-23.5z" class="B"/></svg>