<svg xmlns="http://www.w3.org/2000/svg" viewBox="0 0 400 610" width="533.3" height="813.3" xmlns:v="https://vecta.io/nano"><style><![CDATA[.B{fill:#d96038}.C{fill:#636361}]]></style><path d="M0 0h400v610H0V0z"/><g class="B"><path d="M18.5 16.4l83.3-.1L18.4 72l.1-55.7zm92.5-.2h18L18.4 103l.1-25c-.1-1.8 1.4-2 2.5-3l82-55c2.4-1.4 5-4 8-3.8zm26 .1h26l-101 87-18 4a129 129 0 0 1-24.6-.1l111.2-87.4c1.8-1.3 4-3.6 6.2-3.5zm32 0l16-.1L90 100c-7-1-13 1.3-20 1.5L166 18c1-.6 2-1.7 3-1.7z"/><path d="M212.6 16.4c3.4-.4 7-.1 10.4-.2h106.8a140 140 0 0 1-8 19.7A205 205 0 0 1 277 98.6a55 55 0 0 1-14.2-.1c-2.2-.3-4 .5-6.2 1.2l44.4-81c-1-.6-2-1-3.2-1.4-1 1-1.8 2-2.4 3.2L252.7 99l-31.7 1.7c-4.8.3-9.2-.6-14-1-5.2-.3-10.4-.1-15.7.1 2.3-5 6.3-9.7 7-15-1.8-.6-3.5-1.3-5.4-1.3h-37.4L166 71l46.5-54.6zm123.4 0l39-.1c3.6-.6 7.2 3.3 7 6.8 0 6.6.3 13.6-1 20-1 5-1.7 9.5-4.2 14L361 85a248 248 0 0 0-3.8-36.2c-.8-2.8-5-.2-4.3 2.2l4 32c0 3.8.2 7.8-1 11.5a133 133 0 0 0-11.6.4 101 101 0 0 0-2.7-30.4c-.6-1.6-.7-3.7-2.6-4.4-1 .4-2 1-2.7 1.5a89 89 0 0 1 3.9 33.5l-14 .6-1-13-3.2.4.5 12.8-36.4 1.4c11.2-11 20.8-23.7 29-37.2 7.5-13 14.4-25.5 19.2-39.6.5-1.3 1-3 1.8-4zm-143 1.2h11l-54.5 65c-1 1.2-2.4 3-2 4.5 1.2 1.6 2.4 2 4.3 2h38.7l-7 12.8c-9.3 1.7-15.5 10-18.5 18.4a58 58 0 0 0-3.3 21.8l-34.5 64c-2 3.7-4.3 6.6-4.6 11 2 .7 4.2 1.2 6.5 1.2h23.7l-35.2 56.3c-2.8 4.5-5.8 8.8-8.2 13.6 2 .8 3.6 1.6 5.7 1.5h31l-23.3 44.2c-1 1.8-2.2 3-3.8 4l-17.2 11.8c-1.4-12.6-1.6-25.4-2.6-38 1.2-1.7 1.6-3.2 2-5.3l-2.4-2L98 288l-.3-16.7 20.7-34.8c1.2-2 1.7-4-.6-5.4-6-.6-12-.1-18-.3l1-11.3L160.2 108l-1.4-3.2c-4.5-.3-5.6 3-8.4 5.6l-41.5 45 2-22 24-26.7c1.7-1.4 2-6-1-6H99.7l-1-1.3 14-12 76.8-68.2c1-1 2-1.8 3.6-1.7zm189 44.2V94c-1-2.3-1.3-6.3-4-7.3-2.4 1.2-3.5 4.5-4.7 6.8l-9.4.5a112 112 0 0 0 14.7-24.5l3.3-7.8z"/></g><path d="M363.5 94.5l.4-.5 9.4-.5L272.8 293l.6 3c1.5.6 3 1 4.6 1h14l-26.2 45c-1.2 2.3-2 4.7 1.2 5.5 6 .6 12 0 18.2.2l-16 32.8-2.6-5a116 116 0 0 0-37.3-47L295.6 210c1.4-2.4 2.6-5.4 4.6-7.3 2.3-1 5-1.7 7.2-3 5-2.6 9.6-6.5 12.6-11.4 2.5-3.8 3.2-8.4 5.7-12.3 3-4.8.6-11-.6-16-.4-1.3.3-2.4 1-3.6l25-44.4c2-3.7 3.8-7.3 6.5-10.5l6-7zm-23.3.5c-.4 5.2-.7 10.4-1.7 15.5-.3 1.6-2 2.7-3.3 3.6-3.7 2.6-7.5 5-11.5 7.3a123 123 0 0 0 2.6-25.8 1644 1644 0 0 1 13.9-.6zm4 0a133 133 0 0 1 11.6-.4c-3.2 5-8.4 9.3-12.8 13.5l1-13zm-21.7 1a108 108 0 0 1-4 28.4l-13.8 6.3c-3.4 1.3-7 3.7-10.7 3.6-6.5.1-12.7-2.8-18-6.3-3-2.2-6.2-6-6.6-10 .3-3 .5-7.2 3.5-9a132 132 0 0 0 13.2-11.6l36.4-1.4zm-69.8 3L242 118c-2.7 1.2-6 1.8-9 .8l-25-9c-2.5-.8-4.5.4-6.4 2-3.5 2.8-6.3 6.6-8.8 10.3-2.5 3.6-3.2 7.4-7 10-13.5 10.2-17.3 29.6-11.5 45 .8 1 2.6 1.3 3.7 2l9-15.8a39 39 0 0 1 7.3-8.7 182 182 0 0 0 18.8-2.1c3.6-.5 6.7-1.6 10.3-.1l-8.2 15-45 81.6-8.7-74.6-.7-17.7 30.6-56.3H207l14 1c10.6-.7 21-.8 31.7-1.7zM90 100l-3 3.2c1.4 1.3 2.7 3.2 4.8 3h17.7c3 6 2 11.7 2 18l-62 68.2c-1.7 2-3.4 4.5-.7 6.7 4.4.7 9.2.1 13.7.4l-32.8 37-11.4 13 .1-101.8c-.2-2 1-3 2.4-4.2l49-42.5c7-.1 13-2.4 20-1.5zm8.7-.3l1 1.3H98l.7-1.3zm278-.3c.6 5.5 1.6 11 1.8 16.7-.7 2.8-2.3 5.4-3.4 8l-66 141-4 9.8c2 .8 3.8 1.5 6 1.4h21.6l-20 41.4c-.8 1.7-1.2 3.5-1.6 5.3a38 38 0 0 0 7 .7h23.3l-27 84.6-2.5 7c2.8 2.2 5.7 1.5 9 1.6h33l-16.6 84.4L308 498c4.6-4.2 10-5.3 15.6-7.7l-1.7-4c-6.4.5-12.7 1.5-19 2l18.8-48.5c1.6-4.4 3.8-8 4-13l-34.6-.1 11-37.7 4.5-14c-1-1.2-1.6-3-3.5-2-2.3 2-3.4 5.5-5 8l-23 43.5a102 102 0 0 0-.8-24.5c-.5-4-2-8-2.5-12 .2-1.3.8-2.7 1.4-4l15.4-30.6c1.7-3.5 3.8-6.3 3.7-10.3-6.5-2-13.8-.5-20.6-1 7.4-13 15.2-26 22.7-39 1.5-2.7 3.6-5.4 4.5-8.3.7-2.5-1.8-3-3.7-3.3-5-.2-10.2 0-15.3-.1 1.2-3.3 2.8-6.4 4.4-9.4l87.3-172.7 5.3-10zm-193 2.4L162 142c-.5-7.3 1-15 3.3-21.8 3-8.5 9.2-16.7 18.5-18.4zm-121.5 1.4L18.4 141v-29c.1-1.8-.2-3.4 1.2-5a129 129 0 0 0 24.6.1l18-4zm206.2.4c-2.3 4-4.2 7.7-4.2 12.4.4 6 2.3 12 7.2 15.6 7 5 15 8.7 23.6 8 7-.2 13-3.2 19.2-6.7 2.5 4.3 4.7 8 3.4 13.2-1.8 1.8-2.6 4.2-4.2 6-3.5 3-8 5-12.6 6.2a45 45 0 0 1-24.7.2c-8-2.5-13.4-8-18.4-14.6-4.2-5.6-7.6-12-8-19.2-.3-5.5 1.6-11 4.5-15.7 3-4.6 8.7-7 14-5.7z" class="C"/><path d="M109.7 106.2H128l-16.4 18c0-6.4 1-12.2-2-18z" class="B"/><path d="M345.2 113l-19 34-4 6c-1-4 1.8-7 1.4-11.3-.3-4.5-2.4-8-4.6-11.7a196 196 0 0 0 26.2-17.3zM207 114.2a405 405 0 0 0 26.3 9.5c3.6.8 7.5-.1 11.2-.1a45 45 0 0 0 4 16.2 65 65 0 0 0-11.2 16 58 58 0 0 0-14.4-9.3c-4-.4-8 .4-12 .6a44 44 0 0 0-12 2.3c-3-4-4-9.4-5.2-14.4-1-3.4 1-5.8 2.8-8.5 3.3-4.5 5.4-9.5 10.3-12.4zm175 8.3v77.2l-3 .1-44.5 119-16.5.1 20.5-42.3c1.3-2.2.8-6-2.5-5.7h-23.8l4.2-9.5 59-126 6.4-13z" class="C"/><path d="M145.8 124.8l-43 81c0-5.2 1.2-10.2 1.2-15.4a40 40 0 0 0 5.2-8.6l-3.4-1.4c.6-5 1-10 2-15.2l38-40.2z" class="B"/><path d="M110.8 133.6l-2 22-21.3 23c-1.2 1.4-2.4 2.7-2.8 4.5.3 2 1.6 2.2 3.3 2.4 4.4.3 8.8 0 13.2.1-2.5 4-5.4 7.7-8 11.5l-60 83-9 12.3L24 253c-.2-2 1-3.2 2.2-4.6l43.3-48.8c1.3-1.4 1.5-3 2-4.7-5-1-10.2-.6-15.4-.7l54.4-60.5zm78 3.8l3.5 11.7c-6.2 4.8-10.4 10.6-14.2 17.4-1.2-7-.6-14.2 3-20.5 2-3.5 4.8-6 7.8-8.5zm62 5.8c5.6 8 11.5 15.6 20.7 19.5 10.2 4.5 21 3.2 31.6 1a33 33 0 0 0 15-8.2c2.3 5 4.5 11.6 3.6 17-4.7 6-11.8 5.6-18.3 3.4-1.7-2.3-2.6-5.6-5.4-6.7-3.5-1.6-8-.8-12-1-7.8-.3-15.3 1.4-23 2-3.2.5-6.2.6-8.7 3-4.4 4-7.2 10-9.7 15.4-1.5 3.2-1.8 8.2-5 10-5 3.2-13.7 1.2-15-5-1.5-5-3-10.4-2.5-15.6.2-1 .2-3 1.5-3.4 2.6-.7 5.7-.7 8-2 3-1.6 5.3-4.2 7-7 1.4-2.8 1.6-6 3-9a54 54 0 0 1 9-13.4zm-24 11.2a33 33 0 0 1 8.8 6.5c-1.6 2.4-3 5.5-5.6 7-2.8 1.8-6.7 1.4-9.3 2.7-3 2-4 6-4.2 9.4-.3 6 2.3 11 2 17-.1 4.8.2 9.5 1.2 14.2 2.2 11 9 21 17.3 28.4L197 313a100 100 0 0 0-19.5-2.4c-.6-11-2-21.8-3.4-32.7l-3-22.6 54.6-99 1.3-2z" class="C"/><path d="M160.8 156.3l.7 17.7 8.8 74.7-19.4 35.5-33.3.1L157 221l4-6c-1.6-1.2-2.7-2.3-5-2-8.6 0-17.3 0-26 0l30.7-56.5z" class="B"/><path d="M107.6 165l-2 15.2c-4-.1-8 .1-12-.1 4.5-5.2 9.3-10 14-15zm185.4 8.8c2.4.1 4.5 1.8 5 4.2a45 45 0 0 1-12 22.2c-1 1.2-2.7 2.5-1.4 4 2.5 3.3 5.6.8 8.8.3L226.2 326a99 99 0 0 0-25.9-12l39.6-72a98 98 0 0 0 12.1 7.3l3.6-1.5c-.4-4-3-6.7-4.3-10.4-1.2-3.2-2.8-6.4-3.4-9.7-.1-1.5 1-3 1.7-4.4l27-49c5.4-.4 11-1 16.4-.7zm-21.2 1.2l-18.2 33.7-7.4 13.2a79 79 0 0 1-1.3-16.8c0-3 1.7-5.4 2.7-8.2 2.2-6.2 4.7-14 9.4-18.7 3.2-4 10.2-2.6 14.8-3.2zm31 6.2c5 1 9.6 2.2 14.6.7-4 10-13 15.4-23 17.6l7.4-15.6 1-2.7zm-199 9c0 5.2-1.2 10.2-1.2 15.4L89 231c-.7 1.7-2 3-1 4.8 3.7.7 7.7.2 11.5.3-.4 7.5-1.5 15.2-.7 22.7l-26 45c-1 1.6-1.3 3.3-1.7 5 7.3 1.4 15 .3 22.3.7l-43 69.8c-1 1.2-1.6 2.8-3.3 2.7-7.7.3-15.4-.2-23 .2-2 .2-3.5 1.5-1.8 3.5 3 .7 6.6.4 9.8.4h36a98 98 0 0 0-4.1 16.7H32c-3.3 0-6.7-.2-10 .3-.6.7-.6 1.6 0 2.8 3.3.4 6.7.3 10 .3h31.4a143 143 0 0 0-.3 16.7c-13 .1-26-.2-39.2.1-2 0-3.6 2-1.5 3.6 3.8.6 7.7.2 11.5.3h29.6a128 128 0 0 0 3 15.9c-14.2 0-28.5-.2-42.6.1-2.4 0-3.8 3.2-.8 3.7l45 .2a165 165 0 0 0 7.6 16.6H25c-1.6.1-3.8.3-3.4 2.5.5 1 1.3 1.3 2.4 1.4l53.7.2c2.3 2.4 3.8 5.5 6 8.2a127 127 0 0 1-30.8 7.8l-27.8-.1c-1.6 0-2.6 1-4 1.5a34 34 0 0 1-2.6 1V315l-.2-13.6c2.2 2.3 2.2 2.2 5.4 1.5l3-4.3L104 190.3zm120.6 12.5c2.5 1 5 2.3 7.6 2.6s5.3-.4 8-.8a67 67 0 0 0 6.5 34.7c-6.3-3.7-11.6-9-15.3-15.2-4-6.5-5.8-13.7-6.6-21.2zm157.6.4c.5 13.6 0 27.2.2 40.8.2 3.7-1.7 6.3-2.6 9.8L340 411.4h-21.2l24.7-77c1.5-5 3.4-9.6 4.3-14.7-3-.7-6-1-9-1L378.4 212l3.6-9zm-281.2 16.4c-.3 3.8-.5 7.6-1 11.3h-5l6-11.3z" class="C"/><path d="M99.7 236.2H112L99 259c-.8-7.5.3-15.2.7-22.7zm71 19.2l3 22.6c1.3 11 2.8 21.7 3.4 32.7-8.2-.1-16.3 1.5-23.8 4.8-8.2 3.5-15.8 9.7-23.3 14.7l25.5-47.4 15-27.3z" class="B"/><path d="M381.7 265l.4 13v230l-22-3.5-.6-14-3.5-1.7-7.7 13.8-5.6-.8 16.8-88-1.8-2.4-12.8-.1L378.6 278l3.2-13.3zm-284 6.3c.4 5.6.2 11 .3 16.7.1 5.5.6 11 .6 16.4l-20.4-.2 19.5-33zm1.2 40.4l2.6 38c-7.4 5.2-14.8 9.4-21 16a61 61 0 0 0-11 16.3H54.4L99 311.7z" class="C"/><path d="M177.3 316l-.2 9.5c-13.2.5-25.5 6.7-34.6 16.2a58 58 0 0 0-14.4 39.4c.6 27.8 15 54.8 37.4 71.2l-.6 9a101 101 0 0 1-18.3-16.9c-8.8-10.6-16.4-21.8-21.2-34.8-5.8-15.5-7-32.5-3.6-48.7a54 54 0 0 1 17.4-30.5c10.5-9.2 24-14.5 38-14.4z" class="B"/><path d="M177.3 316c18.2.4 37 7 51.3 18.4 11.2 8.6 20.4 20.3 27.8 32.2a86 86 0 0 1 13 48.4c0 13.4-2.3 26.3-10 37.6-5.4 8-13 14-21.6 18.5a57 57 0 0 1-28 5.8 85 85 0 0 1-45-15.5l.6-9c13.2 9.8 29.8 16.4 46.4 15.4 17-.7 34.6-10.6 42.7-26 5.3-10 7-21.5 6.7-32.7-.4-17.7-7.6-35.3-18-49.5a90 90 0 0 0-40.2-29.8 77 77 0 0 0-26.1-4.3c.1-3 .2-6.3.2-9.5z" class="C"/><path d="M177.2 325.4a77 77 0 0 1 26.1 4.3 90 90 0 0 1 40.2 29.8c10.3 14.2 17.5 31.8 18 49.5.2 11.2-1.3 22.7-6.7 32.7-8 15.4-25.6 25.2-42.7 26-16.6 1-33.3-5.6-46.4-15.4-22.3-16.4-36.8-43.5-37.4-71.2a58 58 0 0 1 14.4-39.4c9-9.5 21.3-15.7 34.6-16.2z"/><path d="M177 329.3l-.6 11c-8.5.7-16.6 4.6-22.3 11-7.8 8-10.2 21-10 32a27 27 0 0 0 18 25.6c3 .1 6-.4 8.8-.6l-2.5 21-3-.8 2.6 3.3-2 16.4a100 100 0 0 1-30.4-43 70 70 0 0 1-1.4-41.5c2.8-9.7 8.4-18.4 16.5-24.4 7.4-6 16.4-9.6 26-9.8z" class="B"/><path d="M177 329.3c9 0 18.4 1.6 27 4.6 15.2 5.6 27.3 16.4 36.8 29.2 9 13 15.5 28 16.5 44 .4 9.4-.1 19-3.6 27.8-4.8 12.5-15.7 22.3-28.2 26.7a54 54 0 0 1-23.5 2.2c-13-1-25.6-7.7-35.6-15.7l2-16.4C177 442 188.5 449 202 451.8c14.2 3.5 30.3-2.3 37.8-15 6.2-9.7 6.5-20.6 5.2-31.8-.4-3.2-2.3-6.4-3.8-9.2-2.6-5-7-8.8-12.3-10.6-3.2-.6-6.6 0-10 0-2.7.2-6-.1-8.4 1.4-3.8 2.3-7.4 6-8.2 10.6-.8 5.2 1.5 11 4.2 15.3 2.7 4 6 7.8 8.8 11.7-6.2 6.5-14.4 10.2-23.4 10.2-8.6.3-15.4-3-23.5-5.2l2.5-21c3-.4 5.5 0 7.8-2.3 3-2.8 7.8-5.5 8.4-9.8 1-4.7-1-9.8-3.3-14-2.7-4.6-6-9-9-13.3a33 33 0 0 1 28.2-9.8c7.7.2 14.5 3 21.3 6-6.6-9-15-16.7-25.6-20.8-7.2-2.6-14.5-4.5-22.2-4l.6-11z" class="C"/><path d="M176.5 340.2c7.8-.4 15 1.4 22.2 4 10.6 4 19 11.7 25.6 20.8-6.8-3.2-13.6-6-21.3-6a33 33 0 0 0-28.2 9.8c3 4.4 6.4 8.7 9 13.3 2.3 4 4.2 9.2 3.3 14-.5 4.3-5.4 7-8.4 9.8-2.3 2.3-5 2-7.8 2.3-3 .2-6 .7-8.8.6a27 27 0 0 1-18-25.6c-.2-10.8 2.2-23.8 10-32 5.7-6.3 14-10.2 22.3-11z"/><path d="M123.6 341.3L119 352c-4.2 12.5-5.3 26-3.6 39l-11-3c-1-10.6-1.6-21.2-2.7-31.8l21.8-15z" class="B"/><path d="M102 356.4l2.7 31.8c-4-1-8-1.8-11.3-4.4a63 63 0 0 1-10.9-11.6c5.6-6.5 12.6-10.8 19.5-15.7zm-22.2 19.4c3.8 4.2 8 9.8 13 12.5 4 1.7 8.3 2.5 12.4 4l1.7 30c-5-3-9.4-7-14.6-9.4-6-3-12.4.5-19.3-1.4-1.7-.7-4.7-.8-4-3.4 1-11 3.8-23.5 11-32.3z" class="C"/><path d="M219 385.2c3.2 0 6.7-.6 10 0 5.3 1.8 9.7 5.7 12.3 10.6 1.5 2.8 3.4 6 3.8 9.2 1.3 11.2 1 22-5.2 31.8-7.5 12.8-23.6 18.5-37.8 15-13.5-2.7-25-9.7-33.7-20.2-1-1-1.8-2.2-2.6-3.3l3 .8c8 2.2 14.8 5.5 23.5 5.2 9 0 17.2-3.7 23.4-10.2l-8.8-11.7c-2.7-4.4-5-10-4.2-15.3.8-4.5 4.4-8.3 8.2-10.6 2.3-1.5 5.7-1.2 8.4-1.4z"/><path d="M105 392.2l11.3 3.5a107 107 0 0 0 11.3 31.1L113 426c-2.2-1-4.2-2.5-6.3-3.7l-1.7-30z" class="B"/><path d="M291 405.7c-1.6 7.6-4.7 15-6.7 22.5-1 2.4 1.6 4 3.6 4l31.3.1a5757 5757 0 0 1-23.4 57.8c-4.3 1.6-8.5 3.3-12 6.2-13.6.1-27.2 2.6-40.8 3.8-10.2 2-20 .3-30.3-.1l31-25 16.5-14.6a87 87 0 0 0 10.9-17.1l20-37.4zm-222.7 8.6l7.7 1.3c4.3.3 9-.5 13 .3 3.4.7 5.7 2.8 8.3 4.8 3 2.4 6.3 4 9.5 6l-1.3 20c-2.6-2.6-5.3-5-8.8-6.5-5-2-10.6-2.3-15.8-4.2-3-1.2-6.2-2.3-9-4-.8-.5-2.2-1.2-2.3-2.3-1-5-1.2-10.4-1.2-15.5z" class="C"/><path d="M106.8 426.7c1.7 1 3.4 2.4 5.3 2.8 5.8.8 11.7.5 17.4 1.3 2 1.8 3.2 4.7 4.8 7a123 123 0 0 0 16.3 18.7c-11.3-.2-22.2 1.8-33.3 2.5-5.2-3-7.8-8-11.8-12l1.3-20z" class="B"/><path d="M70.6 436.2c3.2 1 6.3 2.5 9.4 3.7 5 2 10.6 1.7 15.3 3.7a30 30 0 0 1 9.2 7.6c-1.4 4-2.4 8-4.7 11.7-2 3.2-5 5.7-7.7 8.2l-6.5-2c-2-2-3.4-4.8-4.8-7.2a93 93 0 0 1-10.2-25.8z" class="C"/><path d="M104.6 451.2a43 43 0 0 0 11.5 11.6c7.7-.3 15.3-1.5 23-2 4.4-.3 8.6-1 13 .2a43 43 0 0 1 13.1 6.6l.2 4.8-26.5 13.4c-3 1.4-6.5 1.4-9.8 1-3.8-.5-7-2.7-10-4.6-8.3-5-17.2-9-26.7-11 2.7-2.5 5.8-5 7.7-8.2 2.2-3.6 3.3-7.7 4.7-11.7z" class="B"/><path d="M165 467.6l4.8 3-4.6 1.8-.2-4.8z" class="C"/><path d="M88.7 473.8A122 122 0 0 1 113 483c6 3 10 7.6 17 8.2 6.4.7 11.6-2.3 17-5l19-9.6c1.5 3.7 2.7 7 5.3 10.2 2.5 3 5.6 4.8 8.8 6.8l-13.3 7.3a73 73 0 0 1-37.8 6.4c-4.3-.1-7.6-2.8-11.2-5a109 109 0 0 1-29.1-28.4z" class="B"/><path d="M175 473.4a134 134 0 0 0 22.9 7.6 115 115 0 0 1-17.8 12.6c-3.2-2-6.3-4-8.8-6.8-2.6-3-3.8-6.5-5.3-10.2 3-1.3 6-2.3 9-3z" class="C"/><path d="M83.6 475.8a134 134 0 0 1 5.4 7.8c-12-.1-24-.1-36 .1l30.8-7.8z" class="B"/><path d="M227 481l-23.5 18.3c-3.4-.3-7-.3-10.3-1-3.4-.8-6.6-2.4-10-3.2 5.4-3.4 10.8-6.3 15.7-10.6 2-1.5 3.4-3.4 6-2.8 7.6 1 14.5.5 22-1z" class="C"/><path d="M21 485l1 2c2.8.8 6 .4 9 .5h60.5L102 504H26c-2 .2-3.6-.3-4.7 1.8.4 1 1 1.8 1.8 2 3.3.4 6.6.1 10 .2h70.7c1 3.3 3 7.3 2.7 11-.6 2-3 3.6-4.7 4.7-2.7.7-6 .3-8.7.4H25c-2.5-.1-2.7 1.3-4 3 1.7 1 3 1.8 5 1.7h70c-6 5.8-13.2 9.2-18.4 16-17.8.2-35.8-.1-53.6.1-2.2 0-3.6 2.2-1.4 3.6 2.8.5 5.7.2 8.4.3h45a33 33 0 0 0 4 16c-17.6-.1-35.3 0-53-.1-1.5.1-3.3 0-4.8.6-1 1.2-1 2.3.4 3.2 4.4.6 9 .1 13.4.3l46 .2c4.8 3.6 8.5 7.2 15 7 11.7-.6 23.4-1 35-2.5 5-.4 10.2-1.7 15-1l34 5c2.5.3 4.8 1 7.2-.2 4-2 7.5-5.5 10.8-8.4h137c1.8.2 2.7-1 4-1.7L338 565H202.7l12.7-12.3c2.7-2 6-4 9.5-3.5 5.7.8 11.2 2.4 17 2.7l25 1.7c5 .8 8.4-5 13-4.6h35c3.5-.1 6.5.8 9.3-1.8-2.7-3-5.7-2-9.3-2l-33.2.1c3.6-4.6 7-12.6 13.2-13.8 15.3-1 30.3 1.5 45.2-.8 5.6-1 11.2-2.4 14.7-7.3 3.5-5.2 5-12 5.2-18.3l22 3.5v87.7H18.4V486a34 34 0 0 0 2.6-1zm162.2 10.4c3.4.8 6.6 2.3 10 3.2 3.4.6 7 .6 10.3 1L188 510a60 60 0 0 1-39.1 4.7l-13-3.3a74 74 0 0 0 30.4-6.2c6.2-2.6 11.2-6.5 16.8-10zm100.6.6c-2.7 2.2-4.6 5-6.2 8h-70l5-4.3c10.3.4 20 2 30.3.1l40.8-3.8zm9.2 1c2.6-1.3 6-.7 9-.8a83 83 0 0 0-15.9 19.8c-.6 1-1.3 3-.4 4 3.4 1 7.5.2 11 0 10-.6 20-1.8 30.2-1.5 4.5-.1 9.4.6 13.5-1.5 6.7-3.2 10.3-9 14.7-14.5-.3 6.3-1.7 14.3-6.6 18.8-4 3.2-10.6 3.7-15.6 3.8h-35c-3.7-.1-7.4.8-10.3 3.3-6 5.2-9.4 13.8-16.3 17.7-3 1.8-6 1.8-9.4 2.2-2.6.2-5.3.7-8 .6-2.7-.3-5.5-1.2-8.2-2-6-1.7-12.5-2.4-18.8-3.4-3.2-.6-6.2-.4-9.2 1-5 2-8.5 6-12.4 9.6l-19 17c-2 2-4 1-6.4.8l-23-3.3c-5.7-.7-11.5-2.5-17-1.6-11 1.3-22 2.6-33 3-5 .1-10.7 1.6-15-1-7-4.2-12-12.4-10.3-20.6 2-3.6 5.8-6.5 9.2-8.6 7-4 13.6-9 18.7-15.3 2-2.5 2.3-5.4 2-8.5-.6-5.8-3-10.7-5.5-16 8.4 6.7 18 12 28 15.7l7.6 2.5c2.8 4.7 1 11-4 13.4-7.2 3.6-15.6 5-23 8-4.6 2-4.5 9.6-.7 12.4 4.6 3.5 11.5 4.2 17 4 12.3-.7 24.7-1.2 37-2 3.6-.2 7.4-.3 10.8-1.4a166 166 0 0 0 19-8c6.3-2.5 11.5-6.6 17.7-9 2.4-1 5-.7 7.5-.7 7.3.4 14.6.1 21.8 1.2 4 .4 8.2 1.3 12.2 1 5.3-1 10-5 12.6-9.7L283 505a22 22 0 0 1 10-7.9zm15 1l29.4 3.3-2.4 12.2c-13.6-.1-27.2.4-41 .7 3.8-6 8.4-11.7 14-16.2zm34.6 4l5.6.8c-2 3-4.5 5.3-7 7.6l1.6-8.3zM205 508h70.4l-9.6 16H148.2l-.6-4.6a66 66 0 0 0 48.8-7.2c2.8-1.4 5.4-4.6 8.6-4.2zm-57 21h60l15.3.4c-3.4.7-7 .7-10 2.2l-21.8 10.2c-3.5 1.6-6.5 3.4-10.6 3.3-21.5-.2-43 .2-64.4-.2 7.8-4.6 18.4-4.8 26.4-9.7 2.4-1.5 3.4-4 5-6zm93-.2l19.5.1c-2.5 1.5-4.3 3.6-7.5 3l-19.7-2.5c2.6-.4 5-.6 7.7-.5z" class="B"/></svg>