<svg xmlns="http://www.w3.org/2000/svg" viewBox="0 0 400 610" width="533.3" height="813.3" xmlns:v="https://vecta.io/nano"><path d="M0 0h400v610H0V0z"/><path d="M19.5 16.3l125-.1c-5.2 3-10.5 5.5-15.6 8.5-11 6.6-21.2 14.7-29.2 24.8l-5.4 7c.1-8-1.4-15.6-2-23.4 2-4.2 4.7-8 7-12.2 1.6-2.6-2.3-5.8-4.5-3.4-1.8 2.6-3 5.5-5 8-17.2 5-33.7 12.7-49 22-7.3 4.8-14 10.7-21.3 15.4V16.3z" fill="#fff"/><path d="M144.3 16.2l13.8.1-22.6 11.2a210 210 0 0 0-35.3 24.7c-1 1-2.6 2-2 3.7.8 1 2.4.6 3.5.7C115 43 133 33.2 149.8 24.8c6-3 11.6-5.8 17.6-8.3 2-.5 4.5-.2 6.6-.3l-10 13c-1 1.5-2.3 2.4-4 3.2-12 6-22.7 13.7-33.8 21-12.2 8.4-23.8 18.2-33.7 29.3-3.2 3.6-6.5 7.3-9 11.5.6 1.7 2.3 3 4 1.4 15.8-22 38.8-39.5 62.2-52.8 2.4-1.3 4.8-3.2 7.4-4l-7.8 12.6c-2.3 3.4-4 7.4-6.6 10.4l-15.5 13.5C112.4 90 97.8 103.7 86 121l3 2.4c2.5-2 4-5 5.8-7.5 12.4-17 27.3-30.8 43-44.5-4.4 8.5-9 17-12.8 25.7-2 4.3-3.2 8.5-6 12l-34.5 52.2 1 3.7c1.8-.3 3.4-.2 4-2.3 6-14.8 15.8-28.7 25.3-41.5l-14 44.8c-3.7 6.4-9 12-13 18.2.2 2.5 2 1.6 3.8 1.8l7-11a387 387 0 0 0-7.6 49.8l2.3 2.8c1.3 1 3 .1 3-1.6a390 390 0 0 1 11.8-66l1.4-5.8c1 3 1.3 6.6 1.7 9.8l2.4 27c.1 1.5.6 3.2 2.2 3.7l2-2-2.3-25.8c-.5-7-2-14-2.7-21-.2-2.5 1-5.2 1.7-7.5 3.3-10 7-19.7 11-29.4a377 377 0 0 1 3.7 62.5c2 2 2.8 0 3.3-1.7 1.2-9.7.5-20-.2-30-1.2-13-2.4-26-3-39 3-7.3 6.6-14.3 10.2-21.3 1.3-2.3 2.3-5 4-7l3 71.2c-.1 3.3-.8 6.6-.5 10 1.8 1.6 3-.7 3.3-2.3 2-15 1.7-30.5 1-45.6a574 574 0 0 0-3.5-39.9c3-5.3 6-10.6 9.3-15.8 1-1.6 1.8-3.3 3.3-4.4l2.6 85c-.2 1.6 2.5 4.4 3.2 1.6 4-30 1-62.4-2.4-92.5 3.5-4.8 6.8-10.3 11-14.3 1.5 4.3 2.3 9 3.4 13.4 2 16.4 2 33.4 1.4 50-.2 1.5 1.2 2.5 2 3.6.6-.7 1-1.3 1.3-2 1.7-16.5 1.3-33-.2-49.5 5 22 5.3 45.4.8 67.5-4.2 21-13.3 40.7-27.7 56.5-4.2 4.5-8.7 8.7-13.5 12.5-14 11.2-25.5 24.8-35.5 39.5l-13.2 20c-.2.4-.6.8-1.2 1l-6.4-71c-1.2-4.3-.6-8.5-1.2-12.8-1.8-22.8-3-46.8.4-69.5a57 57 0 0 1 5.5-18.6c.2 3-1 6-.5 8.8 1.8 1.5 3-.2 3.8-1.7 1-5.3 1.3-11 1-16.4 2-2.2 3.6-4.7 5.4-7 8-10 18.2-18 29.2-24.8l15.6-8.5z" fill="#858585"/><path d="M182 16.3l54-.1C221 28.7 206 41 195.7 58c-.7 1-1.3 2.4.1 3.3 1.5-.2 2.8-.1 3.6-1.6a147 147 0 0 1 25.7-29.3l16-12.2c-3.8 8.3-6.8 17-9.6 25.8-.4 1.2-1 2.2-2 3A208 208 0 0 0 199 83.5l-4 7.6c1 1 2 1.5 3.4 2 6.8-13.3 17-25.2 27-36.3l3-3a390 390 0 0 0-7.5 28.2c-.3 2.5-2.2 3.7-3.7 5.6a154 154 0 0 0-31.6 58.4c-.5 1.3-.6 2.7-.2 4.2a39 39 0 0 1 3.3.2 154 154 0 0 1 17.9-41.3L219 91.3a293 293 0 0 0-5.5 34.8c-.4 2 0 4.8-1.5 6.4-9 11.2-14.5 24.5-17.3 38.4.5 2.3 3.2 2 3.5-.1 3-11 7-22.8 14-32l-.5 45.2c-.3 3.4 5.8 2 5.3-1l.7-45 7.8 30c2 .1 2-.7 3-2l-4.7-21c-1.3-5.8-3.7-11.3-5-17 1-12.3 3.2-24.7 5.4-37 4 9.3 7.8 19.8 8.4 30-.1 2 1.5 1.8 2.8 2.6l2-2.3c-1-7-2.5-13.7-4.7-20.4-1.6-5.5-4.7-10.4-7.2-15.8l9.5-36a43 43 0 0 0 2-7c6.7 24 11 50 8.3 75 .1 2.2 2.2 2 3.7 1.6a193 193 0 0 0-7.7-74.5c-.6-2.6-2-5.5-2-8 2-6.5 5-12.5 7.4-19a137 137 0 0 1 9.1 29.9c.6 4 1.7 8.4 1.2 12.4-1.6 3.6-1.8 7.7-2.2 11.6-.1 3.5-.4 7.4.8 10.7l29.3 72.6 6 15c.6 2.5.5 5 .5 7.5l1.7.3c3 8 4.7 16.3 7.8 24.2.4 3-.6 6.3.2 9.4l2 .4c1.8 8.8 4.4 18 4.4 27 1.6 4.7 1.4 10 2 15-.1 2.7.8 6-.6 8.5L287 242a131 131 0 0 0-29.3-16.5l-19.8-6c-4.6-.5-8.2 2.2-11.3 5.2-4.6 4.8-9 10.2-11.8 16.2-2 4.2-2.8 8.3-6 12-3.4 4-8.5 8-13.8 8.6-5-.3-10-2-14.4-4l-.3-.6c-.7-9-2.4-17.2-.6-26.3a19 19 0 0 1 9.9-11.1 52 52 0 0 0 1.9-4.5c0-1.3-2.3-2.3-3.4-2-10.4.6-21 3.2-29 10-4.5-.7-10-1.8-14.4-.2-6 3.2-9.2 9-14 14-5.2 7.4-5.2 18.8-1 26.6 2.6 5 8 7 10.8 11.7.2 3-.3 6.8-2.4 9.3-2.5 1-5.5 1-8 1-13.4 1-25.5.4-37.8 7-5 2.8-7 7.7-8.8 13-3.8 13.3-4.5 28-5 42-.2 1.7-.8 3.2-.7 5a257 257 0 0 0 2.6 34c1.6 12 2.3 25.5 6.5 37 1.3 3.2 3.2 7.4 7.2 7.3 3.4.4 5.3-3 6.6-5.6 3.8-8.4 5-18.5 6.5-27.6.8 1 1.4 2.2 2.3 3l6.6.7c5.7-3.5 7.3-12.7 8.6-18.7 2 2.2 3 4.8 6.4 4.5 3.5.2 5.2-2.5 6.7-5.2 3.2-6 4.8-13.3 6.3-20 3 4 8.5 5.5 12.4 1.8 4.6-5 5.7-13.5 6.4-20a29 29 0 0 0 12.3 4.4c1.5.2 3 1 4 2 2.8 10.8.3 20.5-1.5 31 1.3 2.3 2.5 0 4-.7 2-8.8 4-19 2-27.8 3.5 3 6.7 6 9.6 9.5-.1 4-1.2 7.6-1.8 11.4l-1 .4c-.4 2 .5 5.5-1 7 1 4-1.4 8-.5 12 1 .2 1.7.3 2.6.3l.5-2 28.6 76 14.4 33.7c1.3 2.4 2.5 5.4 4.6 7 2.8-2.3 3.7-6.6 4.8-10a254 254 0 0 0 7.2-45.8c.5-8 .5-16-.7-24l14.7 21c2.3 3.2 4 6.6 6 10a224 224 0 0 1 20.8 51l13.8 46.3c1 3 2 7 4.7 9.2 1 .8 2 1 2.7.5 1.4-1.3 2-3.6 2.3-5.4a169 169 0 0 0 1.6-61.8 362 362 0 0 0-22.1-68.9c-9.4-22.8-22-46-39.5-63.5-2.5-3.6-3.6-8.2-6.2-11.8-2.6-3.5-5-6.8-8.7-9.4-3-2.3-7-3.2-10.7-3.5-4.2-7.6-8.2-15.5-10.7-24-.8-2 .4-4 1-5.8 3.2-7 9-12.8 14.6-17.7a112 112 0 0 0 25.3 15.2c3.2 1.2 7.4 2.2 10.7 1 2-.5 2.4-3 3.3-4.5 1.4-2 .2-4.6.1-7a80 80 0 0 0 18.7 10c3 .8 6.7 1.8 9.4-.5.1 1 .3 1.7.6 2.5h1.6c-.5 7.8-2.8 15.6-3 23.3-.7 4.2-3 8.3-3 12.7-.5 12.6-.2 25 2.2 37.4 3.7 20.2 11.7 39 22.5 56.4 1.2 1.7 2.2 4 4 5.3a983 983 0 0 1 2.2-51.2v-1c3-30.6 7.6-61.2 20.2-89.6A329 329 0 0 0 367 235a754 754 0 0 0 8.3-103L372 88a117 117 0 0 0-26.2-53.8c-6-7-13-12.3-20.2-18H383V203v11.7c-2 .7-3 1-3.2 3.2l-21 139.2c-1 11.6-1.6 23.6-3.5 35-.7 5.8-4.2 11-6 17l-4 14.5c-1 3.6-.6 7.8-.5 11.5l4 56c.1 2-.4 4-.6 6l-6 40-.6 6 1.8 30a95 95 0 0 1-.9 22.7h-323V129c-.1-1.4.8-2 1.7-3 10.3-9.7 22-16 33.8-23-9.4 26-17.3 53.5-20.6 81-2.2 17.4-1.7 35.5-1 53l4.2 43 9.3 46c.8 2.8-.8 4.7-1.8 7.2l-12 27c-3.4 8-7 16.4-9 25 .4 2.8 3 2 4.2.1 4.7-14.4 10.4-28.3 17-42 1.2-2.6 2.5-5.2 3.5-8l3 25c.2 1.5-.4 2.5-1 3.8L29 412c-1 2.4 1.6 4 3.5 2.5l20-44.7a403 403 0 0 1-.2 39.2c-.1 1.2-.2 2.4-1 3.5-3 5-6.8 9.7-9 15L28.7 457a12 12 0 0 0 2.1 2.8 36 36 0 0 0 2-1.9l19-37.6L41.5 495 28 547c2 1.7 2.7 1.6 5 1a398 398 0 0 0 14.7-56.9c1.2 3.5 1.5 7.3 2.4 10.8.4 1 1.4 1.6 2.4 2l1.6-2-4-17a12 12 0 0 1-.3-5l4-28.6c0-.6.3-1 .6-1.4l4.2 18.8c.3 1.8 1 2.2 2.5 3.2l1.2-2-7-30 3.3-45c4 18.4 8.5 36.7 12.6 55 1.2 1 2.3 1.3 3.5 1-2.3-21-8.4-42.5-13.5-63l-3-16-1.6-20c1.7 2.8 2.7 6 4 9L73 392l3-1c-4.8-17-12.3-32.5-19.7-48.4C54 338 54 333.3 53 328l-6-29 21.2 34.7c1 1.7 3.8 2.2 4.8.3l-13-22-14.4-22.5c-5.7-23.6-6.5-46-8.2-70 1.4 6.4 3.4 12.6 5 19L58.7 289c.4 1.7 3.7 3 4.6 1 1-2.4-1.2-5-2-7.3l-21-67.3c-1-4-3-8.4-2.7-12.5l4-35c.4-2 .6-4 1.4-6l15.2 74c.3 1.2.3 3 1.4 3.7l2.7-.5-16-85c-.2-1.6-.7-3.3-.2-5l9.4-32 1.8 22 1.8 41.5c0 1.4.7 2.3 1.4 3.4 1.5-.5 2.3-1.7 3.3-2.7l-4.4-65c-.2-3.3-1.3-7 0-10.2l12.4-31c.6 1 .5 2 .7 3l1.5 67c-.2 1.6.3 2.4 2 2.8l2-2a596 596 0 0 0-2-77.8c-.4-2.7 1.5-5 2.5-7.6l10.3-21.2a89 89 0 0 1 1.2 26.7 57 57 0 0 0-5.5 18.6C81 107.2 82 131.2 84 154c.6 4.4 0 8.6 1.2 12.8l6.4 71c.6-.2 1-.5 1.2-1a223 223 0 0 1 13.2-20c10-14.7 21.6-28.3 35.5-39.5L155 165a118 118 0 0 0 27.8-56.5A160 160 0 0 0 182 41a222 222 0 0 0-4.4-20.1c1.3-1.4 2.7-4 4.5-4.6zm70-.1h24a149 149 0 0 0-15.2 32c-1.7-11-5-21.5-9-32z" fill="#fff"/><path d="M276 16.2h11a458 458 0 0 0-17.7 67.9c1.2 1 1.7 4 3.6 1.8.8-2.2 1-4.6 1.3-7A330 330 0 0 1 290 21c.5-1 .7-2.7 1.8-3 2.6 8.7 6.3 17.3 8.4 26-7.4 22-13.3 43.8-14.5 67 0 2-.6 4.4.3 6l3.5-1.5a190 190 0 0 1 6.8-43.4c1.6-7.2 4.3-14 6.2-21.2 2 5.3 3.4 10.8 5 16l6.2 21.8-10.5 27.3a197 197 0 0 0-10.4 45.3c-.3 2.7-.1 5.3-1.2 7.8-2.6-4.7-4-10-6-15l-29.3-72.6c-1.2-3.3-1-7.3-.8-10.7.4-3.8.6-8 2.2-11.6 1 2.4.6 5 1.2 7.7 1.6.3 2.6-1 3.7-2a156 156 0 0 0-1.8-17.1c3.5-11.4 9-21.7 15.2-32zm21 0c2 .1 4.3-.3 6 1l11 7A98 98 0 0 1 347.8 81c.3 3 4.6 1.5 4-1a109 109 0 0 0-18-40.6A86 86 0 0 0 309 16.3l16.6-.1 20.2 18A117 117 0 0 1 372 88c2.7 14.4 3.2 29.4 3.3 44-.3 34.4-3.4 69-8.3 103a329 329 0 0 1-16.4 69.6c-12.6 28.3-17.3 59-20.2 89.6a52 52 0 0 0-9.9-31.6c-1.3-2-3.5-4.2-4.3-6.6.1-12 4.4-24 6.5-36a10 10 0 0 1 1.1 2 104 104 0 0 1 5.8 29.8c-.3 2.8 4 3 4 .2a100 100 0 0 0-4.8-27.9c-1.2-4-3.2-8-4-12 .5-2.7.8-6 2-8.5l10 3.8c1.5 5.2.7 11 2 16 1.4-.5 2.8-1.7 3.4-3 0-4-.6-7.8-1-11.7 2-.1 3.6.1 5.3-.8 1-1.3 1.3-3 1.8-4.6-2.3-5.2-6-9.4-9.7-13.7-1.5-1.6-1.7-4.3-2.3-6.4-.8-4-2.4-8-2.7-12l3.4-18c1.5 1.4 2 4.2 2.7 6l6 26c.4 2 .3 4.3 1 6.2 1 1.6 3.8-1 3.6-2.2-1-9.4-3.4-18.8-5.7-28-1-4.8-3-9.4-4.7-14-.7-2-1.6-4-1.3-6l2-33-.2-10c7.5 13.4 12.5 28.5 12.8 44 0 1.2.2 3 1.8 2.8a11 11 0 0 0 2.1-1.8c-.5-13.6-3.7-27.2-9.4-39.6l-6-11c-1.2-2.4-2.7-4.4-3-7.2l-4.7-31c6 7.3 11 15 15.7 23.2 3 5.5 6.2 11.6 7 18 .2 1 .3 3.3 2 3 2.5-1.4 1-4.6.8-7-3.5-15-13.3-28-22.5-40-2-2.8-5-5.5-5.3-9l-8.7-37 11 11.7c4.5 5.2 9 9.7 12.2 16 3.2 5.6 5.4 11.4 6 17.8l2.6 1 1.3-2.6a55 55 0 0 0-11.9-25.5l-10.8-13c-3.8-4.5-8.4-8.3-12.3-12.8-1.6-4.5-2.4-9.3-4-13.8-2-8-4.8-16-6.5-24 13 13.7 25.7 28.6 35.4 44.8 1.3 1.5 3.6 1.6 4.2-.7-3-4.3-5.3-9-8.4-13C332.3 76 319.4 63 308 49c-1.6-2.6-2-6-3.2-9L297 16z" fill="#858585"/><path d="M87 31.2a482 482 0 0 0-13.7 27.9c-.7 2-2.4 2-4 3a182 182 0 0 0-49.1 30c-1 2 1.4 4 3.2 2 14-11.8 30-21.2 47-28.5L58.8 93c-1 2-1 4.6-3.4 5.5l-33.7 22.3c-.7.6-1.4 1-2.3 1.4l-.1-54.6c1.8.1 2.5-1.3 4-2.3 7.5-5.8 15.2-11.8 23.5-16.5a180 180 0 0 1 40.2-17.6z" fill="#fff"/><path d="M315.6 96l8.8 35c.2 1 .8 2.6.3 3.7l-19.2 49.5c-2 5.6-2.3 11.5-3.7 17L294 177l2-1.3c.4-20.2 4.6-40 11-59l8.8-21zm11 44l5.7 35c-8.2 17.5-19.2 36-23.3 56-.2 2.4-1.4 6.5.4 8.4 1-.6 2.7-1 3-2.4 1-12.4 6.7-25 11.7-36.2l9.6-18.7 1.4 26c-4.4 9-10.4 17.5-14 27-4 8.8-7 18-10 27l-.7.3-.7-.8c1.4-2.4.5-5.8.6-8.5-.4-5-.2-10.3-2-15-.1-9-2.7-18.2-4.4-27l-2-.4c1.2-.6 2.8-1 3.6-2 .8-8.5 1.4-16.5 4.5-24.6l16.6-44zm8.3 77c.4 10.2-1 21-2.2 31-.5 3.2-.6 6.2-2.5 9l-9 14.4c-2.2-2-5-3.8-6.7-6.3l4.6-14c4.3-12 10.4-22.3 16-34z" fill="#858585"/><path d="M177.2 221c-1.5 3.4-3.4 6.4-4.2 10-1.7 7.2-.6 14 .4 21-2.6 6-7 12.5-13.2 15.2-5 1.3-10.7.1-15.8 1.4-2.7-3.3-6.3-4.7-8.6-8.4-2.6-4.3-4-9.5-2-14.4a40 40 0 0 1 12.7-16.3c4.8-.3 10 .6 14.7-.7 2.5 1 5.2 3.2 8 3.2l.8-1c-.4-2.2-4.3-3-5.4-4.8a49 49 0 0 1 12.8-5.2z" fill="#d96038"/><path d="M235.3 226.3c3.7-.7 8 1 11.5 2 5 1.7 10.2 3.2 15 6 1.3 1.5 1 3.4 1 5.2l-2.6.5-17-3.2c-4.8-.7-9.2-3-14-4.3 1.6-2.3 3.7-5 6.2-6.2z" fill="#ffe000"/><path d="M151.3 236.4c2-.3 4.4-.6 6 1 1.3 1.6.7 4.4.3 6.3-1 3.6-7.3 3-9.2.8-1.2-2.5-.7-7.8 3-8.2z"/><path d="M226 236c4.7 1 9.2 3 14 4l18.2 4c2 .5 4 .4 6-.7 2-1.4 2.6-3.6 3.2-6a105 105 0 0 1 19.7 14l39 34c5 5 10 10.4 13.5 16.6-9-2.6-17.5-8-25.8-12.3-6.4-3.4-12.6-7.6-19-10.8-4.2.1-6-3-9-5-15-11.8-31.2-24-49-31-3-1.6-3.3 3-1.3 4 3.4 1.6 7 1.8 9.3 5 2 2.3 5 6 3.6 9.2-10.6.3-21.5-4-31.4-7.5 1-2 1.6-4 2.3-6 1.4-4.2 4-8 7-11.2zm-52.6 16c.3 2.4-.2 5.5 1 7.6 1.5 2.8 4.6 4.4 7.5 5.5 6 1.7 10.8 4.3 17.2 3 6.3 2.5 12.4 6.3 19 8.3-.2 1-.6 1.7-1 2.6 5 2.8 9.5 6.7 14 10-4.3 4-8.3 8.4-11.8 13.2-1.5 2-2.2 4.2-4.5 5.6-.6 3.8-2.4 7-2 11l-4.4 25c-.2 2.6-1.6 4.5.5 6.7l2.6-1.2 4-24.2 3.3 7.7c2.5 3.8-.3 9.5-.8 13.7a33 33 0 0 0-8 6.5c-2.7 3-6 4.8-9.2 7-6.2-6.5-13-14.7-21.6-18-4.6-.8-8.8-1-12.6-4.3-2.7-2.3-2.2-6.2-5-8.2l-1-22c2.6 2.8 4.4 6.2 7.8 8.3 1.8 1 4 3.4 6 1.3 2-4.8 2.2-9.6 3-14.7 3.7 3.2 6.7 4.8 11.4 6.2.8-.7 2.4-1.4 2.7-2.5 1.3-7.2.3-14.4-2.3-21.2-.6-2-1.5-2.2-3.5-2-1.6 1.4-1 3-.3 4.7a39 39 0 0 1 2.7 16.2 17 17 0 0 1-7.6-4.1c-2.8-2.2-4-6-5.6-9.4-2.4-.1-3 2-2.8 4a85 85 0 0 1-.1 18.2c-3.5-1.3-6-4.4-7.7-7.6-2.7-4.6-4.2-10.2-5.7-15.3-2.2-5.7-5.3-12-10-16-1.8-1.5-2.6-4-4.2-5.8 5-1.3 10.8-.1 15.8-1.4 6-2.7 10.6-9.2 13.2-15.2zm77 1c13.6 8 26.2 17.4 38 27.6 2.3 5.5 5.3 9.6 8 15l3 8.4c-3 0-6.2-2-9-3.4L266 285.2c-1-.6-2.4-1-3.5-1.5-10-7.6-20.8-16-32.5-20.4-1.8-.8-2.8.3-3.7 1.8 3 2.2 8 3 10.4 6l-.7 2.8c-2 1.4-3 3.2-5.8 2.6-9-1.3-17.7-6-25.8-9.8-.3-1 1.5-1.7 2-2.3 3.3-2 5.8-5 8.5-7.7l16.4 5.2c5.6 1.3 12 3.4 18 2.6 1-1 2.4-2 3-3.4.6-3-.7-5.3-1.8-8z" fill="#ffe000"/><path d="M379.5 253c.3 2 .4 4 .3 6v336.8H348c1-7.3 2.3-15.5 1.2-22.8l-2.3-21c-.2-4-1-8.2-.2-12l5.6-36c2.6 5.4 4 11.4 5.5 17 1.6 5.7 1.2 11.2 1.5 17l3.7 46 2 1.3c1.3 0 2.3-2 2-3-1.5-16.3-3.2-32.7-3.8-49 0-5.8-.6-11.4-2.3-17-1.7-6.8-5.2-12.5-7.6-19l6-17c6.8-24.2 7.2-50.3 7-75.2l-2.5-1.5-1.4 1-1 34.6-7.3 44c-1-3-.7-6.7-1-10-.7-14.7-2.3-29.3-3.6-44-.4-3.3 1.2-7 2.2-10l7.7-22c1.4-11.2 2.6-22.6 4-34l3-25 13-85zm-49.7 11.2c-.6 4.3-1.6 8.4-2.4 12.6-1.5-.6-2.4-1.8-3.6-3 1.8-3.4 4-6.5 6-9.7z" fill="#858585"/><path d="M240 272.7a162 162 0 0 1 18.6 13.6c.4 1.6.6 3 1.8 4.2 3.4 3.8 9 8.5 9 14-2 .4-4.5-.7-6.5-1.5-8.8-4.2-17.3-9-25-15.2-1-1-2.7-.3-4-1l-12.2-8.5c3.8 1 7 2.4 11 1.5 4-.7 6.5-2.7 7-7zm-92.8 6.3c2.6 2.7 4.8 5.7 6.5 9-1.4 8.4-.6 18-4 25.6-1 2-2.2 5-4.6 5.8l-2.8-2.7a111 111 0 0 1 .4-13.8l-2.7-2.2-1 1a184 184 0 0 0 1 41.3c-2.7 11-2.5 23.6-7.2 33.8-.6 1-1.2 3-2.7 3-2.7-5.8-3.4-11.8-4.4-18-.1-1.2-1.2-2-1.5-3a332 332 0 0 1-1.6-31.5l6.3 2c3.2-1.5 4.7-5.3 6-8.4 3.7-9 3.3-19.6 4.8-29.4.4-1 1.6-1.6 2.4-2.3 3.3-2.6 4.3-6.3 5-10.2z" fill="#ffe000"/><path d="M302.2 291.2l6.3 3.5c-.8 2-1.5 4-2.3 6.2-1-3.4-2.2-6.6-4-9.7z" fill="#fff"/><path d="M122.3 292.6c4.3-.3 8.7-1 13-.6l-3 22c-.8 3.6-1.6 8.2-4.3 10.8l-3-.8-2.3-5.8c-.1-5.3.5-10.7 1-16l-2.2-2 .6-7.5zm-5 .4l-2.8 25c-.8 4.8-1.3 10.4-4 14.7l-3-.1c-3-6.6-1.2-12.7-.8-19.6.2-3.4 1.4-7 .7-10.4-1.6-1.2-2.2-.1-3.7.6a243 243 0 0 0-.8 71c-.5 1-1 2.3-1.3 3.5L99 404l-4.2 18-.8.3c-3-8.8-4.4-18.3-6-27.5l-3.6-43c1.3-7.4 1-15 1.6-22.6 2.5 1.4 4.6 1.5 6.7-.6 8.3-10 9.5-21.4 11.2-33.8a68 68 0 0 1 13.4-2zm-17 2.8c-1.2 10.6-4 22.6-11.4 30.7-1-1.5-2.7-2.4-2.2-4.5 1-6.2 2-13 4.5-18.7 1.8-3.8 5-6.2 9-7.5z" fill="#ffe000"/><path d="M312 297c3 .5 6.3 3 9.3 4.2-.7 5-2.6 10-3.4 15-.1 2.6-2.4 3.4-4 5a28 28 0 0 0-8.9 10.2c-.7 1.3-1.2 2.5-2.5 3.4.3-7.8 2.6-15.5 3-23.3l2.4-1 4-13z" fill="#858585"/><path d="M156.6 302.2c-.1 9.3 1.3 18.6 1.8 28-3 9-1.8 20-7.4 28.2-3.3-3.6-4-7.7-5-12.3-.2-1.6-1.7-2.3-1.7-4l-1.6-18.8c2-.2 4-.2 5.8-.8 5.4-4.8 7.3-13.3 8.3-20.2zm-38 18.4v.3.5a279 279 0 0 0 1.5 37.7c-2.5 10-1 21.5-5 31-.6 1.3-.7 3.8-2 4.3-.8-1-1.7-2-2-3.4-1.7-6.4-1.6-13-4-19a266 266 0 0 1-1.7-36.8c2.6 1.6 6.3 2.5 8.4-.5 2.8-4 4-9.2 4.7-14v-.2z" fill="#ffe000"/><path d="M316.5 324l-3.7 18.5a157 157 0 0 0-2.2 22.1c-.6 2.2-3 3.8-4 6-2.3 5.3-3.7 11.8-3.6 17.5 1.8.3 2.6-.2 4-1.2.6-4.7 1.2-10.2 3.7-14.4a265 265 0 0 0 4.2 47.6c1.5.4 3 .3 4-.3 1-1.5.6-3.2.4-5-2.2-17.2-4-34.8-3.4-52.2 1.7 1.3 2.6 3.8 3.7 5.6 4.4 8 6.6 16.5 6.7 25.5.3 2.2 2.5 1.7 4 1l-2.2 51.2c-1.8-1.2-2.8-3.6-4-5.3-11-17.3-18.8-36.2-22.5-56.4-2.4-12.4-2.7-25-2.2-37.4 1 1 2 1 3.6 1a54 54 0 0 1 7.9-19c1.5-2 3-4 5.5-5z" fill="#858585"/><path d="M223.2 342c2 3.3 4 6.8 5.8 10.2.5 3.8-1 8.2-1.3 12 .8 2.6 2.7.3 4-.4a137 137 0 0 0 1-4.5l1 .3 5 7a310 310 0 0 1 44.5 71.4l1 3c-7-14.4-16-28-26.2-40.4l-16.2-16.8-16.3-14-4.8.8c-1.5 3 .8 5.7 1.7 8.7a215 215 0 0 1 10.7 46.7c-5.8-23-15.7-47.3-31.6-65.4 3.3-2.3 6.5-4 9.2-7 2.4-2.6 4.8-5 8-6.5-.5 3.4-1.4 6.8-1.8 10.2-.3 2 1.5 3.7 3.4 2.8 1.3-1 1.3-2.4 1.6-4l1.8-14zm7.8 0c3.8.3 7.6 1.2 10.7 3.5 3.5 2.5 6 6 8.7 9.4 2.6 3.6 3.7 8.2 6.2 11.8 17.6 17.6 30 40.8 39.5 63.5A362 362 0 0 1 318 499c3.4 20.5 2.5 41.5-1.6 61.8-.5 1.8-1 4-2.3 5.4-.8.5-1.7.3-2.7-.5-2.7-2-3.7-6-4.7-9.2L293 510.2c-4.6-18-12-34.8-20.8-51l-6-10-14.7-21c1.2 8 1.2 16 .7 24a243 243 0 0 1-7.2 45.8c-1 3.3-2 7.6-4.8 10-2-1.7-3.4-4.7-4.6-7L221 467c-10-25-18.7-50.8-28.6-76l4.6-24.4c1.3.7 2 2.2 3 3.3 1.8 2.6 3.8 5 5.3 8 .8 6-1.7 12.3-3 18-.3 2-1.7 4.8-1 6.7 1.6 2 3.5.2 3.8-1.7 1.2-5.6 2.6-11.2 3.5-17 1.8 2 3 4.8 4.2 7 .8 2 2 3.7 1.8 5.8l-3 18c-.7 2.4 1.7 2.5 3.3 2l2.8-13.7c.5.2.8.5 1 1 10 25 14.7 51 17.2 78 .1 2 1.6 2.3 3.3 2.8l3.4-3.6c0-30.7-1-60.4-9.4-90.2l-2.3-8c2.8 2 5 4.4 7.6 6.7a202 202 0 0 1 31.7 40.4 273 273 0 0 1 36.7 108.5c.4 3.3 3 4.8 6 3.3 1-1.3.6-3.3.7-4.8.3-17.6-3-35.7-7-52.8a313 313 0 0 0-60.8-119.1c-6-7-10.4-15.3-15-23.2z" fill="#d96038"/></svg>