<svg xmlns="http://www.w3.org/2000/svg" viewBox="0 0 400 610" width="533.3" height="813.3" xmlns:v="https://vecta.io/nano"><path d="M0 0h400v610H0V0z"/><path d="M19.5 16.3l21-.1c22 28 35 62.5 43 96.8 7.5 32.7 11 66.6 14 100 .2 2 .2 4 .1 5.8l-2.2-3-33-42.2c-3.2-3-3-8.7-4.5-12.8l-6-30.2c14 13.5 26 29 36 45.6L91 174c-10.8-17.7-22.7-34-38.3-47.8-1.3-1.3-2.8-2-3-4-3.3-13.6-7.5-27-11.7-40.4a468 468 0 0 1 40.4 46.8l2.6.6.6-3.3C68 107.8 52 91 36.3 74.7c-1.5-1.5-2-4-3-6l-11-29c-1-3.6-3.6-5.7-3-9.8A115 115 0 0 1 37 46c10.3 10.5 19.5 22 27.7 34.4 1 1.5 3 2 4 .3 0-1.7-1.6-3.4-2.4-4.8a175 175 0 0 0-46.7-50.3v-9.2z" fill="#858585"/><path d="M40.3 16.2H107a116 116 0 0 0 12.2 51.7c8.3 17 20.8 31.4 35.7 43-12.3 0-24.6 0-37 0a7 7 0 0 0-4.5 1.2c-.5 1.5-.1 3.4-.1 5l14.5 131c10.2 59.2 24 117.8 46.4 173.7 12 30 26.7 59 45 86 1.3 1.7 2.2 4.4 4.8 4l130-4c1-.4 2-1.3 3-2-.1-1.8.2-3.3-1-4.7a508 508 0 0 1-50.2-83.6c-22-46.3-38-95-49.4-145-11.6-52-20-104.3-21.2-157.5 0-2.2-.6-4-3-4l-28.4-.1C207 89 203.3 67.3 195 47c-4-9.5-11-17.7-19.6-23.5-4-3-8.8-4.8-13-7.3H260l-1.2 3.6c-2.5 6-5.4 11.7-6.8 18.2-3 13.6-3.7 28-3 41.8l1 .7 1 .7c-1 25 .1 50 4.2 74.8 4.6 28.2 12.7 55.7 24.2 82C290 260.5 302 282 317 302c1 1.2 2 2.2 3 3l.5.5c1.3 3.6 2.2 7.3 3.5 11 1.8-.2 3-.8 3.5-2 3.8 4.4 8 8.7 12.2 12.8 1.2 1 2 2.2 3.7 2.5 1.8 3.4 2 8.6 4.6 11.3 1.5 1.5 2-1.2 2.5-2l-1-3 34 21.3v238.3c-66.3 0-132.7 0-199 0-2.3-2.7-4.4-5.6-6.4-8.4-20.6-29.5-38.4-60.2-57.2-90.8-.8-1.4-1.3-2.8-1.7-4.3l-12-35c-1.7-3.5-4-6.7-6-10-4.8-8.5-11.5-16-17-24-4-7.3-7-15.2-10.2-22.8-8.7-21-17-42-25-63l-27-73c-.4-1.5-1.6-2.3-2.3-3.5l-.2-78c2.3 5.4 3.3 11.3 5.2 17l7 22c1.2 3.6 1 7.8 1.5 11.6l.8.3 1.2.6c2.7 7.3 5 14.8 7.6 22 1.7 5 4 9.4 4.2 14.8.6 2.6-.7 7.8 2 9h.8l1.3-.5 11.5 28c.4 1 .8 2.2 1.2 3.3 4 9 8 18 12.4 26.7l1 .2c.4 2.7.5 5.2 2.6 7.2l12.8 23.5.6-2.4c-.1 3.3 1 6 1.5 9 .5 2 .5 4 2.4 5.4 1 .3 2 .5 3.2.8l9.3 14.2c1 5.8 1.4 11.4 4 16.8 1-.2 1.7-.6 2.4-1 .3-2.5-1.2-5.2-1.6-7.8L146 441c-1.2-4.2-2.6-8.3-4-12.5-.5-1.6-1-3-2-4.6l-.7-4.2-6.6-21.7 1.2-.3 1 .4c2-1 2-3.4.4-4.6-2-2-4.3-4.2-6.3-6.4-.2-4-1.8-7.6-2.7-11.4-2-6.7-3.6-13.6-5.8-20.2l-1.3-4.5-7.6-32.6 1-2.2-2.6-4a519 519 0 0 1-8.5-48.9l-.6-1.7c-.6-11.5-2-23-2.4-34.7l.4-1.3c1.5-2.7-.5-4.3-1.5-6.7.1-2 .1-4-.1-5.8l-14-100c-8-34.3-21-69-43-96.8z" fill="#fff"/><path d="M107 16.2h55.4l13 7.3C184 29.3 191 37.4 195 47c8.2 20.3 12 42 8.6 63.8h-13.3l-6-14c6.3.5 11.7 3.4 16.7 7 1.2-.4 2.3-1 3.4-1.5-5-6.2-14.4-9-22-9.6L173 74.2c8.4 1.8 15.4 6 22.8 10.2l3 .1c-.2-1.2-.4-2.3-.8-3.4-7.8-5.5-16.2-8-25-11.2-1.5-.6-3-.7-3.7-2.3l-13-20.4A106 106 0 0 1 172 54a112 112 0 0 1 18 10.4l2.5-2.2c-.6-1.5-1.2-2.2-2.6-3l-18.3-9.8c-6.3-2.7-13-5-19.2-8l-22-21c-1-.7-2-2.4-3.4-2-2.3 2.2-2 4.6-2.6 7.4a99 99 0 0 0 .4 41.5c1-.1 2-.5 3-1 .4-1 0-2.5 0-3.6-1-8.6-1-17.4-.7-26 .2-3.6 1-7 2-10.6l13.4 14c-1.2 14.8-3.3 30-3 45 .2 2.2-.3 4.5 1.7 6 1.3.4 2.2-1.2 3-2-2.2-15-.3-30.7 2-45.5L158 60c1.7 2 .5 4.6.4 7a234 234 0 0 0-2.3 41.1c0 2 2.5 1.4 3.8 1.2a273 273 0 0 1 2.4-42.3 339 339 0 0 1 10 17.9c1 1.7.4 3.5.3 5.4a121 121 0 0 0-.9 20.7h-17c-15-11.5-27.4-26-35.7-43a116 116 0 0 1-12-51.8zm153 0h50.3l10.4 7C331 31 340 40.5 347 51a139 139 0 0 0-33-6.8c-2.3-.5-5.8 0-7.4-2l-17.6-17c-3.3-.1-5 1.7-3 4.6l28.5 27.5c3.2 3 6.6 6 9.2 10 .3 1.5.2 3 .2 4.7a196 196 0 0 0 5.9 55c.6 2.4 2.5 1.5 4.2 1.2-.7-5.5-2.7-10.7-3.6-16a173 173 0 0 1-2.5-39.3A204 204 0 0 1 342.1 93c1 1.6 2.2 3.3 2.3 5.3l1 19c1 10 2.2 20.5 5 30.2.3 2 1.7 3.2 3.6 2 .6-2-.5-4.3-1-6.2-3-13-4-26.3-5-39.4a222 222 0 0 1 18.9 45.3c.6 2 1 4 2 5.8 2.2 1.3 4.8.1 4.7-2.6-4-16.8-11-32.5-19-47.7 6.6 2.4 12.4 6.7 18.7 10A184 184 0 0 1 379 164c-14.2-2.5-27.8-10.8-39-20-5.8-5.7-11.3-12-17-17.6-1.2 38.4 2.7 76.8 13 114a391 391 0 0 0 27 70c.8 1.5 1.4 3 2 4.6-3.8-2-7-4.8-11-6.6-3.5-2-7.2-2-11-3-1-.7-1.6-1.8-2.2-2.7L321 266.5c7.7 4.5 14.3 11 21.6 16 1-1.5 2.4-2.6.5-4.2L327 265c-2.5-2-5.5-3-8-4.8-1.5-2.3-2.2-5.2-3.3-7.7l-13.5-44c6.5 5 11.8 11.5 16.2 18.3 2 2.8 3.2 6 5.2 8.8 1.4.4 2.7.8 4-.4-6-12-14.2-23.4-25.2-31.3-1.5-1-1.7-2.3-2-4-2.3-12.3-4.4-24.8-5.6-37.3 10.2 9.4 17.6 21 23.2 33.6.8 2.3 4.2 1.2 3.6-1-5.4-12-11.7-23-21.3-32.2-2-2.2-5-4.2-6.3-6.8-1.6-13.7-2-27.6-3-41.4 2.4 3 4.5 6.5 6.6 9.8a288 288 0 0 1 16.6 31.4c.5 1 1 3.3 2.7 2.2 1.2-.2 1-2.7.7-3.5a168 168 0 0 0-13.8-27.4c-4-7-8.7-13.3-13-20-1.2-1.6-1-4.2-1.5-6L284 71.5c12.3 16.4 21.8 35.2 29.2 54.4.5 1.3 1.7 1.7 2.8 2.4l1.5-3.2a236 236 0 0 0-21.4-43c-4-6.5-8.8-12.5-13.2-18.7-3-3.8-3.4-9-5.5-13.5-2-5.3-4.8-10-7.4-15a115 115 0 0 1 37.8 47.6c.7 1.4 1 2.8 2.5 3.6 1.2-.1 2.4-.4 3.6-1a134 134 0 0 0-31.8-45.9c-5.3-4.4-10.7-8.7-16-13-1.7-1.3-2.3-3-3.3-4.8-.5-1.4-2.6-1.2-3.7-1.6l1.2-3.6z" fill="#858585"/><path d="M310.3 16.2H383V345c-6.3-9-11.6-19-16.7-29a60 60 0 0 0-1.1-1.7l-2-4.6c-11-22.5-20.5-45.7-27-70-10.2-37-14-75.5-13-114l17 17.6c11 9 24.6 17.4 39 20a184 184 0 0 0-5.7-49.3h1.3l1.6-2.2c-1.4-1.3-3-2.5-4.6-3.6-2-8-4.5-15.7-7.4-23.3l2.5.7 6.2 2.8c1-1.5.7-2.3.3-4-3.7-2-7.5-3.5-11.4-5.2-3-7.8-7-15.4-11.3-22.5 2.5 1 5 2.4 7.3 3.8l3.4-.6-.8-2.7a110 110 0 0 0-13.7-6.3c-7-10.7-16-20-26.3-27.8-3.3-2.6-7-4.6-10.4-7z" fill="#fff"/><path d="M127 18.7c1.3-.6 2.5 1.2 3.4 2 7.3 7 15 13.8 22 21l19.2 8c6.3 3 12.3 6.3 18.3 9.8 1.4.8 2 1.5 2.6 3l-2.5 2.3a112 112 0 0 0-18-10.4l-15.7-6.6 13 20.4c.8 1.6 2.2 1.7 3.7 2.3 8.8 3.3 17.2 5.7 25 11.2l.8 3.4h-3c-7.4-4.2-14.4-8.3-22.8-10.2l9.2 18.3c7.6.5 17.2 3.3 22 9.6-1 .6-2.2 1-3.4 1.5-5-3.6-10.4-6.5-16.7-7l6 14h13.3l28.4.1c2.5.1 3 2 3 4 1 53.3 9.6 105.6 21.2 157.5a693 693 0 0 0 49.4 145 508 508 0 0 0 50.2 83.6c1.3 1.4 1 3 1 4.7-1 .7-2 1.6-3 2l-130 4c-2.6.4-3.5-2.3-4.8-4a463 463 0 0 1-45-86c-22.4-56-36.2-114.5-46.4-173.7l-14.5-131c0-1.6-.4-3.5.1-5a7 7 0 0 1 4.5-1.2h37 17a121 121 0 0 1 .9-20.7c.1-2 .7-3.7-.3-5.4a339 339 0 0 0-10-17.9 273 273 0 0 0-2.4 42.3c-1.3.2-3.8 1-3.8-1.2a234 234 0 0 1 2.3-41c.1-2.3 1.3-5-.4-7l-12-16.4c-2.2 14.8-4 30.6-2 45.5-1 .7-1.8 2.3-3 2-2-1.4-1.5-3.8-1.7-6-.2-15 2-30.2 3-45a550 550 0 0 0-13.7-13.6l-2 10.6c-.4 8.6-.4 17.4.7 26 .1 1 .5 2.5 0 3.6-.8.6-1.7 1-3 1a99 99 0 0 1-.4-41.5c.6-2.8.3-5.3 2.6-7.4zm131.8 1c1 .4 3.3.3 3.8 1.6 1 1.7 1.7 3.5 3.3 4.8l16 13a134 134 0 0 1 31.8 45.9c-1.2.5-2.4.8-3.6 1-1.5-.8-1.8-2.2-2.5-3.6a115 115 0 0 0-37.7-47.6l7.4 15c2 4.6 2.5 9.6 5.5 13.5 4.5 6.2 9.2 12.3 13.3 18.7a230 230 0 0 1 21.4 43l-1.5 3.2c-1-.7-2.3-1-2.7-2.4-7.3-19.2-16.8-38-29.2-54.4l5.3 29.5c.4 2 .3 4.5 1.5 6l13 20a168 168 0 0 1 13.8 27.4c.3 1 .5 3.4-.7 3.5-1.6 1-2.2-1.2-2.7-2.2a288 288 0 0 0-16.6-31.4 105 105 0 0 0-6.6-9.8l3 41.4c1.2 2.6 4.4 4.6 6.3 6.8 9.5 9.2 16 20.3 21.3 32.2.6 2.2-2.8 3.4-3.6 1-5.6-12.6-13-24-23.2-33.6 1.2 12.5 3.3 25 5.6 37.3.4 1.6.6 3 2 4 11 8 19.2 19.2 25.2 31.3-1.2 1.2-2.4.8-4 .4-2-2.7-3.3-6-5.2-8.8a71 71 0 0 0-16.2-18.3 346 346 0 0 0 13.5 44l3.3 7.7c2.6 1.8 5.6 2.8 8 4.8l16.2 12.8c2 1.6.5 2.7-.5 4.2-7.3-5-14-11.6-21.6-16 5.6 12.6 12.3 24.6 19.8 36.2.7 1 1.3 2 2.2 2.8 3.8 1 7.5 1 11 3 4 1.8 7.2 4.6 11 6.6l1 1.7-.3 2.8c-1.7-.2-3-.4-4.2-1.7-4.3-4-9.6-5.3-15-6.8 7.2 10.2 15.3 19.8 24 28.8l7.2 7.8c-1 1-2 3.7-3.8 2.8a334 334 0 0 1-28-31.3c.3 6 1.3 11.8 3 17.6l1 3c-.6 1-1 3.6-2.5 2-2.6-2.7-2.8-8-4.6-11.3l.3-.2-1-14.8c0-2-1-3-2-4.5a254 254 0 0 1-19.4-32.6c.4 12.5 2.6 25 6.2 37-.5 1-1.7 1.7-3.5 2l-3.5-11-.5-.5c.2-1.4.2-2.7-.1-4a150 150 0 0 1-2.7-25.2c-.2-3 .2-6.2-1-9-7-15.5-12.8-31.7-16.5-48.2L298 230c.1 12 .5 24.3 2.7 36 .5 2.8 1.4 5.3 1 8.2-1.4-.3-2.6-.7-3.8-1.3a146 146 0 0 1-3.6-40.9c.6-8 0-16 1.3-24 .4-2-.2-4-.6-6a479 479 0 0 1-6-37.2 90 90 0 0 0-2.3 10.3 258 258 0 0 0-4.6 45.1c.2 2-1.2 3-2.5 4.3-1-1-1.5-2-1.5-3.3 0-21.7 2.2-43.8 7.7-65 .7-2.8 1.7-5.2 1.3-8.2-1.6-14.3-1.8-28.7-3.4-43-1.7 3-2.3 6.6-3.4 9.8a242 242 0 0 0-10.1 61.9c-1.6 1-3 3.6-4 .3a207 207 0 0 1 8.1-56.1c2.5-8.7 5.8-17.2 8-26a246 246 0 0 0-7.5-35.3 85 85 0 0 0-8.8 22.1 196 196 0 0 0-7.8 43.1c.1 1.5-2 2.8-3 3.8-1.6-2.2-1-4.3-1-6.8a195 195 0 0 1 10.4-48.8l8-19.2-3.4-9-9.8-17c-6 14.5-7.8 30.6-8 46.2-.3 3 1 5-2.3 6.5l-1-.7c-.8-14-.2-28.2 3-41.8 1.4-6.5 4.3-12 6.8-18.2zm30.2 5.5l17.6 17c1.6 2 5 1.5 7.4 2a139 139 0 0 1 33 6.8l13.7 6.3.8 2.7-3.4.6a71 71 0 0 0-7.2-3.8c-12.3-5.5-25-7.4-38.3-8.8l10.7 10.6c3.4 3.6 6 8 9.5 11.5 3.2 1.3 6.7 2 10 3l19.3 6 11.4 5.2c.4 1.7.6 2.4-.3 4l-6.2-2.8-27.5-9.4-3.2-1a420 420 0 0 1 14.9 22.5c6.8 3.7 14 6.6 20.7 10.6 1.7 1 3.2 2.2 4.6 3.6L375 114h-1.3c-6.2-3.2-12-7.5-18.7-10 8 15.2 15 31 19 47.7.1 2.8-2.4 4-4.7 2.6-1-1.7-1.4-4-2-5.8a222 222 0 0 0-18.9-45.3 240 240 0 0 0 5 39.4c.3 2 1.5 4.3 1 6.2-2 1.2-3.3-.2-3.6-2-3-9.7-4-20-5-30.2-.7-6.3-.6-12.6-1-19-.1-2-1.3-3.6-2.3-5.3A204 204 0 0 0 328 72.7a173 173 0 0 0 2.5 39.3c1 5.5 3 10.7 3.6 16-1.7.3-3.6 1.2-4.2-1.2a196 196 0 0 1-5.9-55c0-1.5.1-3.2-.2-4.7-2.6-3.7-6-6.8-9.2-10L286 30c-2-3-.3-4.7 3-4.6z"/><path d="M260.4 27.8c3.3 5.6 6.5 11.4 9.8 17 1.6 3 2.5 6 3.4 9-3.3 6-5.6 12.8-8 19.2a190 190 0 0 0-10.6 49c-.1 2.5-.7 4.6 1 6.8 1-1 3-2.3 3-3.8a196 196 0 0 1 7.8-43.1 85 85 0 0 1 8.8-22.1 246 246 0 0 1 7.5 35.3c-2.3 8.7-5.7 17.2-8 26a207 207 0 0 0-8.1 56.1c1 3.3 2.4.8 4-.3a242 242 0 0 1 10.1-61.9c1-3.2 1.6-7 3.4-9.8l3.4 43c.4 3-.6 5.3-1.3 8.2a258 258 0 0 0-7.7 65c-.1 1.2.4 2.3 1.5 3.3 1.3-1.3 2.6-2.2 2.5-4.3a258 258 0 0 1 4.6-45.1l2.3-10.3a479 479 0 0 0 6 37.2c.4 2 1 4 .6 6-1.2 8-.7 16-1.3 24a146 146 0 0 0 3.6 40.9 17 17 0 0 0 3.8 1.3c.3-3-.6-5.4-1-8.2-2.2-11.7-2.5-24-2.7-36-.1-3.8.6-7.4 1.2-11.2 3.7 16.6 9.6 32.8 16.5 48.3 1.3 2.7 1 6 1 9a150 150 0 0 0 2.7 25.2c.2 1.3.3 2.6.1 4l-3-3c-15-20-27-41.6-37.8-64.2-11.5-26-19.6-53.7-24.2-81.8-4-24.7-5.2-49.8-4.2-74.8l-1-.7c3.3-1.4 2-3.6 2.3-6.5.3-15.5 2-31.7 8-46.2zM312.6 48c13.3 1.4 26 3.3 38.3 8.8a148 148 0 0 1 11.3 22.5l-19.3-6c-3.3-1-7-1.7-10-3-3.5-3.5-6-8-9.5-11.5-3.5-3.6-7.2-7-10.7-10.6zM23.4 57c7 20 14 39.6 19.4 60 .1.8.1 1.5-.1 2.3L36.3 150a383 383 0 0 0-4.2 64c-.1 2.4.6 5.3-.5 7.5-3-7-4.7-14.7-7-22-2-5.6-3-11.5-5.2-17-.6-2.7 2-4 1.7-6.6l2.4-119zm313 18.3l3.2 1 27.5 9.4-2.5-.7a217 217 0 0 1 7.4 23.3c-6.7-4-14-7-20.7-10.6a420 420 0 0 0-14.9-22.5zm-160 17.4l8 18a227 227 0 0 1-8.7 0 116 116 0 0 1 .5-18.1z" fill="#858585"/><path d="M120 117.4h108.5c1.4 45.2 7 90.3 16.4 134.6 9.8 46 22.4 91.2 40.2 135 16.3 40.4 37 79 62.5 114.3l-122.4 4c-16.2-23.7-29.6-49-40.8-75.5A737 737 0 0 1 145 304a1037 1037 0 0 1-24.8-179c-.1-2.5-.5-5-.2-7.6z" fill="red"/><path d="M45.5 127a658 658 0 0 1 7.9 41.1c.1 1.3 0 2.7-.2 4l-4.4 29A440 440 0 0 0 47 271c-.4-5.4-2.5-9.8-4.2-14.8L35 234l-1.2-.6c1.5-1 3.2-1.3 3-3.4a357 357 0 0 1 2.1-69.2c1.3-11.4 4-22.7 6.6-34zm15.8 51.3c3.7 4.5 8 8.4 11.4 13a279 279 0 0 1 22 32c.6 1.4 2.7 3 4.2 2l-.4 1.3 2.4 34.7-22.5-34.7c-3.4-4.8-7.8-9.2-10.6-14.3L61.5 178zm-5.3 4l7.4 38c.6 2.5.7 4.8.3 7.4a428 428 0 0 0-1.3 72.5l.2 7.3-11.5-28-1.3.5 2-2a374 374 0 0 1 .8-77l3.4-18.7zm13.4 39.3l.2.2a316 316 0 0 1 27.9 42.8c.7 1 1 2.6 2.5 2.4.6-1.2 1-2.4 1.3-3.6a519 519 0 0 0 8.5 48.9l-28.6-41.4c-2-2.7-2.4-5.6-3.2-8.7l-8.7-40.5zm-2 17.5c2.3 12 5.2 24.2 8.2 36 .8 3.2 2 6.6 2 10v51.4l-1 1L64 310.6c1-.6 3-1.2 3-2.6-2.7-22.5-1-46.4.4-69zm253.8 38.8a254 254 0 0 0 19.4 32.6c1 1.5 2 2.7 2 4.5l1 14.8-.3.2c-1.7-.2-2.6-1.4-3.7-2.5-4.2-4-8.3-8.3-12.2-12.7-3.6-12-5.8-24.5-6.2-37zm-239 1.2l25.6 38c1 1.6 2 1.8 3.7 1.4 1.6 11 5.4 21.8 7.6 32.6l-.6 1.3-22-27.8c-1.7-2-2-4.5-3-7L82.3 279zm-62 .7L71.8 412c3 6.3 5 12.3 9.3 17.8 1 1.8 3.3 3.8 3 6l.4 22.2a47 47 0 0 0 13 24.4 50 50 0 0 0 14.9 10.2c1.4 2 1.7 4.8 3 6.8L144 548l31.3 47.8H165l-42.8-66.2c-3.7-5.2-6-10.3-10.5-14.5-9.2-9.2-17.5-19.2-26-29-1.2-1.4-1.7-3-2.4-4.6L75 459c-3-10.3-5.7-20.7-9-31L20.7 305.2c-1-2.3-1.5-4.7-1.3-7.2l1-18.3zM81 296l12.3 39.5c.8 2 .5 4 .5 6.4l-.4 24-.6 2.4L80 344.8c2.4-.8 2.8-1.2 2.2-3.8-1.7-7-1.6-13.8-1.8-21 0-8-.5-16 .7-24zm265.8 14.4c5.5 1.5 10.8 2.8 15 6.8 1.3 1.3 2.5 1.4 4.2 1.7l.3-2.8c5 9.8 10.4 19.7 16.8 29v12.6c-12.2-5-23.4-13.4-34-21.3-1.6-5.7-2.6-11.6-3-17.6 8.8 11 17.7 21.6 28 31.3 2 .8 2.7-1.8 3.8-2.8-2-3-4.7-5.2-7.2-7.8l-24-28.8zM19.3 313l18 47.6 25 69 12 38.4c2.2 6.4 3.8 13.7 7.6 19.5 7.7 11.6 19 21.3 28.3 32l-23 5L76 508a13 13 0 0 1-1.3-4c-2-11.5-3.6-23.5-7-34.6-1.5-4.6-4.5-8.3-6-13L34 382l-13.6-32.3c-1.6-3.5-1-6.8-1-10.6l-.1-26zM99 334l17.4 21.8 4-.1c2.2 6.6 3.8 13.5 5.8 20.2l2.7 11.4-10.4-10c-2.3-2.3-4.7-4-6-7.2-5-12-9.8-24-13.7-36.3zm-2 12.6c2 4.2 3.3 8.7 5.2 13l8.5 20.6c-.4 5-1 10-1 15.3a102 102 0 0 1-9.3-14.2l-3.2-.8 2.5-1.6c-1.6-4.3-2-9.3-2.5-14l-.2-18.4zm-77.5 11l.1.2L49.8 436 21 384c-1-1.6-1.7-3-1.6-5v-21.2l.1-.3zm98.5 24.6l16 15.8-1.2.3 6.6 21.8c.4 1.4.6 2.7.8 4.2-1.4-1.7-2.5-3.5-3.6-5.5a517 517 0 0 1-18.4-36.4zm-4 5l21.8 40.8c.8 1.2 1.7 2.2 3.2 2.4l3-1.8c1.4 4 3 8.3 4 12.5l-31.2-37.7a48 48 0 0 1-.7-16z" fill="#858585"/><path d="M19.4 395l36 65.4c2.2 4.2 5 8.2 6.4 12.6 3.6 11 4.4 23 6.8 34.3 2.8 8.4 8.8 15.7 15 22L93 542l32.5 53.8c-35.4 0-70.7 0-106 0V395z" fill="#fff"/><path d="M88 440l12.7 19.3 10.2 28a46 46 0 0 1-20-21.2A62 62 0 0 1 88 440zm24.6 82c2 3.5 4.8 6.6 6.4 10.4-7.3 1.2-14.5 3.2-22 4.5-2.3-3-4.7-5.7-6.8-8.8 7.5-1.8 14.8-4.2 22.3-6zm9 14l9.5 14.6-23.2 3.7-8.2-13.5a307 307 0 0 1 22-4.8zm12.3 19l6.8 10.3-23 5.3c-2.6-3.7-4.8-7.7-7-11.6l23.5-4zm8.8 13l18.2 27.6c-9.3 0-18.6-.1-28 0-4.7-7-9-14.6-13.4-22 7.6-2.2 15.4-4 23-5.7z" fill="#858585"/></svg>