<svg xmlns="http://www.w3.org/2000/svg" viewBox="0 0 400 610" width="533.3" height="813.3" xmlns:v="https://vecta.io/nano"><style><![CDATA[.B{fill:#858585}.C{fill:#fccf00}.D{fill:#fff}.E{fill:#6fc7e6}.F{fill:#d96038}.G{fill:#9260c7}.H{fill:#85b5da}]]></style><path d="M0 0h400v610H0V0z"/><path d="M19.4 15.3H80C75.6 24.2 71 35 64 42c-9 11-17.7 23-24.5 35.5l-20 44.8.1-107z" class="D"/><path d="M116.4 15.2c-3.7 5.7-7.4 11.6-11.4 17l-12-5.6c-1-.1-2-.1-3.2.2-.6 1.8 0 2.8 1.7 3.4 3.7 1.8 7.3 3.8 11 5.7L88.8 54.4l-9-8.4c-.3 1.6-1.4 2.3-3.2 2l9 9.8a106 106 0 0 0-10 13.9c-6.3.7-12.6-2.6-16.6-7.4l-1-.1c-.6 1-2.4 2-1.6 3.4A29 29 0 0 0 73 76.2L63 94.4c-4.3-1.6-8-6.6-12-9-1.3 0-3.4.5-2.7 2.3a50 50 0 0 0 12.6 10.6L53 115c-2.2-1.8-4.3-3.6-6.4-5.4-1.4-2-2.6-4.3-4.2-6l-3.2.2c-.4 1.3-.3 2.2.4 2.8C43.3 111 46.8 115 51 119l-8.6 20-1-.2c-2.8-4.3-5.7-8.4-8.6-12.6-1-1.2-1.6-2.6-3-3.4a13 13 0 0 0-2.7.8c0 .6.2 1 .6 1.7 2 3 3 6.8 5.4 9.7l6.7 9.5L21.7 197l-.5-.2a428 428 0 0 1-1.8-28.6v-33c0-1.3.4-2.5 1-3.7 7-16 14-31.8 21.6-47.4a160 160 0 0 1 26-38c1-1.2 2-2 3.2-2.8a216 216 0 0 0 15.4-27.7l30-.2z" class="C"/><path d="M123.2 15.3l24.3-.1c-4.7 2.4-9.5 4.3-13.6 7.7-5.6 4-9.3 9.4-14 14.3l-7.6.2c-1.7.7-3.2 1.2-5 1l15.2-23 .6-.3z" class="B"/><path d="M154 15.2l46.7.1 5.8 12.2a146 146 0 0 0 14.3 18.6c.7 2.7.8 5.8 2 8.2 1.4.5 2.4.5 3-.1.5-.5 1-1 1.8-1.2 2.7 2.5 5.3 5.2 8.4 7.3 1 2.5 1.7 5.3 3 8 1.5-.1 2.7-.7 3.4-1.7l7.4 7c.8 2 .8 4.2 1.5 6.2.8.2 1.7.2 2.7 0l1-.1c5.6 5.4 10.5 12 15.3 18l1 .6c.7 1.5 1.3 3 2.6 4 2 2.6 3.5 5.5 5.7 8 4-18.4 5.7-37 4-56l1.2.7 11 16.3.4 3.7h1c.7.1 1.2.3 1.6.8l9.6 16.7c1 2 1 4.4 1.4 6.5 0 1 .8 2 2.4 2.5l1 1c3.6 7.7 6.8 15.4 9.3 23.5l.4 1 7.6 30c.1 3.4 2 6.3 2.4 9.6 2.3 8.4 3.8 17 6.6 25.3.1 1.3.3 2.6.6 4l7.6 29a232 232 0 0 0 10.8 28.2 99 99 0 0 0 20.4 30l1.2.5c-.4-2.5-.7-5.2-1.4-7.6.8-3.5-1.2-7.4-2.3-10.7.3-.8.4-1.5.4-2.3l-7.2-62.3 1.4.4c.1-1 .1-2 0-3l-2.2-3-.8-23.2h2c2.4-3.7-.6-5.8-2.3-8.8l.3-27c4-2-.2-4-.7-6.7l.3-1.4a258 258 0 0 0-9.6-55.2c-1.4-4.7-2.6-9.7-4.8-14-.5-.6-.8-1.3-.8-2-.1-2-1.4-4.3-2-6.3-5-12.6-11.3-24.6-19.7-35.4H383v441c-.7-2-.8-4-1.2-6.2l-4-29-27 3c2-4.2 5-8 7.2-12 4-7 6.6-15 7-23-.4-7-3.8-13.6-8.3-18.8l-18.6-17.4c-.6-.5-1-1-1.3-1.7 5.8-7.2 11-15.3 14-24.2 1.3-4 1.6-8.4 2.4-12.8.2-7-2.6-13.6-7.8-18.3-9.3-9.2-24-10.7-36.3-9.8-1.2-2.5-3-4.2-6-4.3-2.7-.4-4.2 2-6.8.8l-1.8.5-30.3-87c-.2-1-.3-1.8-.1-2.8l3.5-25.3c1.8 1.2 2.3 4.7 4.5 5 2.8-2.4.8-4.2-.6-6.6l21.3-9.8c1.7 1 3.4 2.6 5.3 3 1.4-.4 1.8-1.7 1.8-3-1-.8-2-1.4-3-2.3 6.6-4.3 12.7-9.6 19-14.3.5-.8.8-1.7 1-2.6-.4-1-1-1.6-1.6-2.2l-65.6-16-1.3-9c-.7-.5-1.4-1-2.2-1.5-6.7 1.3-13.4 3-20 4.5-1.5.3-2.6.6-2.8 2.3-.1 3.2 1 6.6 1.2 9.8L186 156c-5 4.3-10.3 8.4-14.7 13.3-.4 1-.7 1.8-1 2.8a13 13 0 0 0 1.9 2.4c6.3 1 13 1.5 19.4 2.2l-4.3 6 .5 1.4c3.4 1 5.5-4.8 7.5-6.8l22-.2c-.3 2-1.7 4.6-1 6.4.5 1.6 1.7 1 3 .8l2-7.3L233 176l22.8 18.3c1.3 1.2 3.3 2.3 4 4l30.5 87c-.5.7-1 1.3-2 1.8-2-.4-4.2-.2-6.3-.1l-24 1-8.7-19c-1.5-3-4.6-5-7.4-6.5-5.2-2.6-11-4.4-16.5-6-1-1.7-1.5-3.7-2.2-5.6 3.3-3 7-7.2 6.2-12-.1-3.6-2-5.8-3.4-9a28 28 0 0 0-3.9-6.1c-1-7.6.1-17-2.6-24.4-2-3.5-7.8-4.3-11.5-4.6-5.8-.2-12.7-1-18.2 1-2.3.8-3.7 2.8-4 5-.3 3.8 1.2 7.3 2 11 1 5 2.6 9 2.7 14v18c.2 3.4 1.6 6.4 3.6 9l-5 6-20.3 16.7c-2 1.8-1.4 3.8-1.8 6.2-.5 3.3-.1 6.4 0 9.7l-44 1.8c-5 .1-10 1.4-14 4.5-5 3.7-7 10.5-5.5 16.4 1.3 6.5 5 11 6 17.6L82 334.7c-1.2-2.3-3-4.3-4.3-6.5L78 302l.8-1c.3 1.2.7 2.2 1.4 3 1 .1 1.8.1 2.7 0 .2-1 .3-2 0-3l-5-10.8a9 9 0 0 0 .5-3.3l5-49 17.8-54 10.6-22c-.2 3.3-1.2 6.7-1.8 10l-3.6 16.3 1.3 1-1.2.2c.3 1.8-1.2 2.7-1.3 4.5-.7 5-2.3 10-2.7 15-1.5 12.6-2.4 25.7-1.2 38.3-1 3-2.4 5.8-3 9 .7 1.2.7 3.6 2.7 2.5h1.2a130 130 0 0 0 8.2 31.1l1-.2c4.3-11 10.7-20.7 17.2-30.5l1-1.5c1.2-.8 2-2 3-3 4.6-6 10-11.4 14-18 9.7-15.6 14.2-34.4 16-52.6l1-40.2c2-2 1-3.5.5-6-.3-2-1-4-1.2-5.8-.4-9.4-1.7-19-2.8-28.3 10.6 9.6 20.7 21.7 26.2 35h.6a113 113 0 0 0 9.8-33.2c2.2-2.8 2-3.3 1-6.7-.1-7 .3-14-.5-21.2h1.5c.8-.6 1.3-1.3 1.8-2.2-1.5-1.6-3-3-4.7-4.5a72 72 0 0 0-8-22.6c1.6-.1 3 .6 4.2-.7l.5-1-.3-1c-2-1.3-5.2-.6-7.6-1.4-3-6.3-8.7-12.2-13.5-17.3l2.6-.6c.7-1 2.4-2 1.7-3.2-2-1-4.5.6-6.4 1-2.2.2-4.2-2.3-6-3.3-2.7-1.5-5.6-4-8.7-4.2l-.2-1.6z" class="D"/><path d="M200.8 15.3h17.7a135 135 0 0 0 2.5 30.8 146 146 0 0 1-14.3-18.6L201 15.3zm29-.1h53.6l.4.6a205 205 0 0 0-2.1 27.2c.1 1.8-.7 3.5 1.5 4.4 1-.5 1.7-1.2 2.4-2a216 216 0 0 1 2-30h8.3c1 1 3 3 2.3 4.7a261 261 0 0 0-2.2 51.2L285 55l-1.2-.7a179 179 0 0 1-4 56c-2.2-2.4-3.8-5.3-5.7-8 1.5-.6 2.8-.5 3.6-2.2A300 300 0 0 0 258 56.2c9.8 1.7 15.2 9 20.4 16.7 1.2-.2 2.3-1.3 3.3-2a45 45 0 0 0-18.1-17.3c-2.7-1.3-7-.8-9-3l-9.6-16a50 50 0 0 1 29.2 15.3c1.4 0 4 .6 3.6-1.6-6.6-7.5-15-13.3-24.8-16-3.6-.8-7.6-1-11-2l-12.2-15zm73 0h28C339 26 345.4 38 350.4 50.6c.7 2 2 4.2 2 6.3l-1-.1a112 112 0 0 0-22.7-16.4l-10.3-4.7c-1.7-.8-2.7-2.8-3.8-4.2l-11.8-16.3zm-80 .5c4.7 5 9 11 13.3 16.4.1 3.2-1 6.6-1 10-1 6.2.1 12.2 1.2 18.3-3-2-5.6-4.8-8.4-7.3-.6.3-1.2.6-1.8 1.2 0-1.7.4-3.3-.1-5a126 126 0 0 1-3-33.5zm-68.5 1c3 .2 6 2.7 8.7 4.2 2 1 4 3.5 6 3.3a93 93 0 0 0-25.6 10l-7.4 4.2-10.8-1c7-10.2 17.3-17 29-20.7zM301.6 24l1 .2 10 14c.7 1 1.6 2.2 1.7 3.5-2.2 18.5-6.2 38.5-4.4 57-.4-2.2-.4-4.6-1.4-6.5L298.8 76c-.4-.4-1-.6-1.6-.7 2.2-.5 2.3-2 2.2-4-.6-15.8.2-31 2.2-47zM171 27.4l.2-.1c4.8 5 10.5 11 13.5 17.3L164 43.4 153 45l-10.7-4.5c-.3-.7-.1-1.2.6-1.4A107 107 0 0 1 171 27.4zm68.4 9.6a153 153 0 0 1 12.4 19.2l-2 17.4c-2.7-2-5-4.7-7.4-7-.3-3-1.5-5.7-2-8.6a61 61 0 0 1-1-20.8zm81.3 4a88 88 0 0 1 28 19c1.8 1 4.4 1.7 4.5-1.3 2.2 4.4 3.3 9.4 4.8 14a258 258 0 0 1 9.6 55.2l-.3 1.4-11-12c-3-3-6.5-4.8-9.8-7.2l-10-35.8c4 2.2 7.7 5.6 11.5 8.3 2.6 1.7 5 4.5 8 5.5 1.3-.5 2-1.2 2.2-2.3a67 67 0 0 0-19.6-14.6c-1.5-1-4-1.5-4.6-3.4l-13.2-27zM122 43.3c8-.1 16.3 1 23.7 4 1 .5 1.2 2.4 1.6 3.4L159 92c.3 1.5 1.2 2.3 2.8 2l1.5-2c-5.3-13.3-8.2-27.7-11.8-41.5 11.2 6.7 19 19.5 23 31.6-1 4.4-2.6 8.5-3.2 13a77 77 0 0 0-.9 17.9c1.4 1.8 2.6-.2 3.6-1l2.6-22 .8 1c3.6 11.5 4 24 5.7 36.2.3 1.6-.1 4.8 2 5 2.4.8 3.4-.8 3.5-3-.3-14.3-2.6-28.3-6.6-42 5 4.3 11.2 9.8 12.6 16.5.6.8 1.3 1.5 2 2a113 113 0 0 1-9.8 33.2h-.6c-5.6-13.3-15.6-25.4-26.2-35 1 9.4 2.4 18.8 2.8 28.3a101 101 0 0 0-13-29c-1-1.7-2.3-3.2-2.6-5.2a103 103 0 0 0-11.8-36.4l-13-17-.6-1.2zM103 45l10-1c4.7 2.5 8.8 7.3 12.2 11.5 10.6 13.8 15.8 32 17.5 49-12 17-22.8 37.7-26 58.3l3.4.7c.6-.7 1-1.5 1-2.5a157 157 0 0 1 22.2-50.1 180 180 0 0 1-2.6 39.6L107.5 189l-1.2-1c1.4-5.4 2.4-11 3.6-16.3.6-3.3 1.6-6.6 1.8-10l-10.6 22c-7.3 17.5-13.4 35.6-17.8 54-3.6 16-4.5 32.7-5 49a9 9 0 0 1-.5 3.3c-2.3-3.4-4.2-7-7-10.2-1.8-2.4-4.2-4.6-5.7-7a365 365 0 0 1 2.5-42.7l1 .1 5 20.2c.1 1.7 2 2 3.3 2.3l1-1.8-5.5-23c-.6-2.8-2.2-5.3-3-8l9.4-47c1.6 5.3 1.7 10.7 2.4 16.2l2.5 21.5a4 4 0 0 0 3 .4c0-12.2-1-24.4-4-36.2-.6-4-2.7-7.8-1-11.7l10-31 2 10.3c2.5 13.3 3 26.3 3.8 39.6l1 .7a7 7 0 0 0 2.8-1.2c.2-.8.2-1.7.2-2.6-.2-16.6-2.2-33.4-6.4-49.5-.4-2-1.3-3.5-.5-5.5l7.6-22.7c.7-.1 1 .1 1.2.8a108 108 0 0 1 10 44.9c.1 2-.1 4 .4 5.8 1.3.3 2.7-.3 3-1.7a130 130 0 0 0-6.6-42.7L103.4 94c1.4-10.3 1-20.6-1.8-30.7 3.2 2 7.2 3.7 9.2 7 8.7 11.8 11.7 26 13 40.4 1.2 2.5 4 .6 3.8-1.6a78 78 0 0 0-13-40.5c-4-5.6-9.7-7.7-15-11.8-.8-1.2-1.4-2.6-2-3.8 1.6-2.6 3.6-5.7 5.8-7.8zm214 1.6c.6.5 1 1 1.4 1.8L331 75c-6.8 16.4-8.5 33.5-8.4 51l-9.3-23.5-1-1c.7-.5 1.2-1 1.7-1.6a131 131 0 0 1 1.3-37l1.8-16.2zm-159 1.7a125 125 0 0 0 6-1c7.7.2 15.3 1 23 1 1.8-.5 3.5.8 5-.2-1.3 1.2-2.6.6-4.2.7a72 72 0 0 1 8 22.6c-3-2-5.8-4-9-5.3-5.6-2.7-11.5-3.8-17.3-5.7l-11.5-12zM93 58c4.6 6 5 13.7 5.6 21-.1 1.8.5 3.5-1 4.8L78 107.4C65.6 124 53.5 143 47 163c-.8 2 1.5 2.7 3 2.7 1.6-1.7 1.8-4.7 2.8-6.8 8.3-23.2 23.7-44.7 39.7-63.2 2-2 3.5-4.5 5.8-6a120 120 0 0 1-6.6 26.2c-1.5 3-4 5.4-6 8A256 256 0 0 0 45 198.2c-.5 1.7-1.5 3.8 1 4.6 1-.3 1.7-.8 2.4-1.4 5.5-18.6 14-36 24.5-52.4 4-6.7 9-12.8 14-19l-14 45c-.4 1.5-.8 3-1.5 4.5C66.7 187 61.2 194.2 57 202c-6 10.8-11 23-13 35 1 2 2 2.3 3.8 1 2.5-14 8.3-26.8 15-39l6.2-9a407 407 0 0 0-6 34.2l-8 21c-4 12.2-7.3 25-8.6 37.8l.4 1c1.4.3 3-1.7 3-3 2-13.3 6-26 10.4-38.5l.5-.4-1 29c-.2 4.6.6 9.4-.2 14-3.4 11.3-7 23.3-8.5 35 0 2.7-1 5 1.7 6.8.8-1 2.2-2.4 2-3.8.2-10 3-19 5.4-28.5 1.4 11.6 2 22.8 4.3 34.5.5 1.8-.5 3-1 4.7-2 4.5-3 9.3-4.2 14-2.3-3.8-3.3-8.4-4.8-12.6-1-3.5-1.5-7-3.4-10-.4-2.4-.1-4.8-.7-7.2-5-23-6-46.3-8-69.8L41 220a266 266 0 0 1 6.5-77l-.2-1.6 34.5-68.6C85 67.4 89 62.5 93 58zm162 3.8L271 97v1.2l-1-.6c-5-6-9.8-12.5-15.3-18l-1 .1c.4-.5.8-1 1-1.6L255 62zm-82.5 3.6a48 48 0 0 1 24.8 12.4l.5 21.2a39 39 0 0 0-8.7-12.1c-3-2.8-6.8-4.5-9.7-7.3l-6.8-14.2zM333 81h.7c3.8 10.6 7 21.8 8.5 33-2 7.4-5.4 14.5-7.4 22a126 126 0 0 0-3.4 21.1c-.6 1.6.7 3 1.3 4.6 1.5-.8 2.8-2 2.7-3.7.7-12.2 3.3-24 8.3-35l4 24.4c.4 2.6 1.4 5.3.4 7.8l-6.6 23c-1 4.7-1 9.5-1.8 14.2-2.8-8.2-4.3-17-6.6-25.3-.5-3.3-2.3-6.2-2.4-9.6l-7.6-30c1.8-.1 2.8-1.4 3-3 .1-14.5 2-29.3 7-43zm-184.7 27c6.7 9.5 10 22 12.3 33.4.8 1 1.7 1.4 2.7 1.3 2-.2 1-3.3.8-4.6.5 2.4 1.4 3.8-.5 6 .8 13.4.5 27-1 40.2-2 18-6.4 37-16 52.6-4 6.6-9.4 12-14 18-1 1-1.7 2.3-3 3a102 102 0 0 0-3.6-32.7c-.5-2-1.6-3.7-.7-5.8 3.5-9.8 6.5-19.8 10.2-29.4l3.8 15c2.4 9.6 3.2 19.4 3.5 29.3 1 1 3-1 3.2-2.2a118 118 0 0 0-2.5-29c-1-6.8-3.8-13.4-5.6-20 .6-4 2.8-8 3.6-12L145 152c.8 1 1 2.2 1.6 3.3a134 134 0 0 1 9.7 38.8c.2 1.5 0 3.4.8 4.8.8.2 1.6.1 2.2-.2 2-2 .7-5 .7-7.5a163 163 0 0 0-11.6-41.8c-1-2.5-2.2-4.4-1.7-7.2a180 180 0 0 0 1.4-34.1z" class="B"/><path d="M246 108.3c.8.4 1.5 1 2.2 1.5l1.3 9c21.7 5.6 43.8 10.5 65.6 16 .7.6 1.2 1.3 1.6 2.2-.1 1-.4 2-1 2.6l-19 14.3c1 1 2 1.5 3 2.3 0 1.3-.4 2.7-1.8 3-2-.5-3.6-2-5.3-3a204 204 0 0 1-21.3 9.8c1.4 2.4 3.4 4.2.6 6.6-2.2-.2-2.8-3.7-4.5-5L264 193c-.2 1-.2 2 .1 2.8l30.3 87 1.8-.5c2.6 1.3 4-1.2 6.8-.8 3 .1 4.8 1.8 6 4.3 1 2.2 1.7 4 1.6 6.6 4.8-.4 9.4.1 14.2.4 6.5.7 12.4 3.8 17.5 8 3 3.6 5 8.6 4.6 13.3-.8 6.7-2 13.6-5.2 19.6l-8.2 11c-2 2.3-4 4.7-4.2 8l22.2 21c5.5 5.2 8 13 7 20.5-1.4 10.4-8 19.4-13.3 28-1 2-2.7 4.6-2.5 7 2 2.2 6.6 1.8 9.3 2l19-2c.8.1 1.4.5 2 1l3.4 26c-.7.8-1.7 2-3 2.2-14.6 3-29.5.7-43.3-4.6-6.2-2.3-11.6-6.4-14.3-12.6-1.7-4.7-3.2-9-2.6-14.2.8-6.5 4-11.6 8-16.7 2.7-4.5 6.6-10 6.8-15.3-2.8-5-8-9.2-12-13-7.3-5.3-14.6-12.2-18.6-20.3a13 13 0 0 1-.9-9.7c2.2-9 8.4-15.8 10.7-24.8.4-1.2.4-2 0-3-6.7-1-13.7-.4-20.5-.4 0 2.2.1 4.4.2 6.6-.1 12-2 23.8-6.7 35-.6.8-1.3 1.5-2 2-5.5.1-10-2.3-14.5-5.3 1.7 15 4.7 30.7 11 44.5.5 1.2.3 2.8.2 4-2.3.8-4 .5-6.4.1 1.4 7.5 3.5 15.7 2.6 23.4-1.4 3.5-6 6.2-9 8 .1 5 .8 10 1 14.8l-1.3 2.6c-3.5.5-7 2-10.6 2l-12.5-4c-1.2-.3-2-1-2.8-1.8-.4-3.7-.5-7.5-1-11.2-4-.6-8.7-1.8-12.8-2-3.7 2-8 3.8-11.5 6-.4 4-.4 8.3-.8 12.4l-1.3 2.7-9.6.7-15.2-6.8c-1-3.5.2-8.5 0-12.3-2.6-1.4-6.8-3-7.7-6 .5-6.3 2-12.6 3-18.7l-12-1.8c-1-.2-2-1.2-3-1.8.8-4.3 4-8.3 5.3-12.6-6.6-1.7-13-4-19-7.6l-9.4-5.7c-1-1.2-.2-3.7.8-4.8 10.4-5.2 19.4-14.4 27.8-22.4l-1-30c-.4-2.2.3-6-.7-7.7a53 53 0 0 0-15 3.1c-2.3 1-4.4 2.6-5.4 5 2 7.5 3.5 15.6.3 23-3.2 6.4-9.6 9.5-16.4 10.4L90 370c-1.3.4-3-1.7-2-2.8.7-1.6 2.6-1 4-1.3l39-2c4.8-1.6 11.4-3.5 13.4-8.7 2.4-6.4.6-13-.5-19.2-.6-3.8 1.4-6.7 4.5-8.6a54 54 0 0 1 19.8-5.5l-.2-5.8-.1-3.4-22.8 1.7-12.2 2.3c-1.8.7-2.8 2.6-3.3 4.4 2.7 6 6 11 6.2 18-.3 3-.8 6.6-2.2 9.4-1 1.7-2 3.5-4.2 3.8l-14.7 3-25.6 1.3c-1.4-.7-2.2-1.6-2.5-2.5 1.3-.7 2.2-1.6 3.7-1.5 8-.4 16.2-.8 24.3-1.3l13-2.7c1.4-3.5 5-7.6 4-11.4-.8-4-2.2-8-4.3-11.4-2.3-4-.8-11 4-12.4 7.3-2.3 15.5-2.6 23-3.6l13-1c.3-2-.1-4.4-.1-6.6l-45.4 1.8c-2.5.1-5 .2-7 1.8-1.7 1.4-1.3 4-1 6 1.3 6 3.5 11.6 5.5 17.4.5 2.4 1 6-1 8L111 342 93 344.7c-1.6.2-2.3-1-2-2.6.2-1.5 1.8-1.3 3-1.5 6.5-.8 13.6-1.3 19.7-3.8 2.8-1 1.5-3.5 1.8-6-2.6-6.8-5.8-14.6-5.7-22 .1-5 4.3-8.5 9.2-8.7 16-.8 31.8-1.3 47.7-2l.6-.3-.3-6.3V282c.4-2.4-.2-4.5 1.8-6.2 6-6.2 13.5-11.3 20.3-16.7 1.7-2 3.4-4 5-6-2-2.7-3.4-5.7-3.6-9v-18c-.1-5-1.7-9-2.7-14-.8-3.7-2.3-7.2-2-11 .2-2.3 1.6-4.4 4-5 5.5-2 12.3-1.2 18.2-1 3.7.3 9.4 1 11.5 4.6 2.6 7.4 1.7 17 2.6 24.4a28 28 0 0 1 3.9 6.1c1.2 3.2 3.2 5.4 3.4 9 .7 4.8-3 9-6.2 12 .7 1.8 1.2 4 2.2 5.6l16.5 6c2.8 1.5 6 3.6 7.4 6.5l8.7 19c1 2 1.8 4.4 3 6.4 5.5-.4 10.8-2.4 16.2-3.5 2-.7 2.4.5 3.6 1.5 2.7-1.7 5.5-3 7.7-5.4.8-.5 1.5-1 2-1.8l-30.5-87c-.7-1.7-2.6-2.8-4-4L233 176l-11.7 1.2c-.7 2.4-1.2 5-2 7.3-1.2.3-2.4.8-3-.7-.6-1.8.8-4.5 1-6.4l-22 .2c-2 2-4 7.7-7.5 6.8l-.5-1.4c1.3-2 3-4 4.3-6l-19.4-2.2a13 13 0 0 1-1.9-2.4l1-2.8c4.4-5 9.7-9 14.7-13.3l38.4-31.2c-.3-3.2-1.3-6.6-1.2-9.8.2-1.7 1.3-2 2.8-2.3l20-4.5z"/><path d="M243 113.8l1.6 6.3-15 3.4c-.1-2-.6-4.2-.2-6 4.6-1 9-2.7 13.7-3.7zm104.3 2.2c2 .3 3.7 2 5.3 3.3a89 89 0 0 1 12.5 14.6c.7 1 2 1.6 3 2.3l-.3 27c-4.6-6.4-10-11.7-15.5-17.4l-5-29.7zM245 125c7.8 4.4 15.2 10 22.8 14.8l-10.6 4.4L245 125zm8.8 0l3 .6 25 5.8c-3 2.3-6.4 4.2-9.8 6-6-4-12.5-8-18-12.4zm-14.4 0c1 .3 1.8 1 2.3 2.3l11.7 18-10.6 2.8-3.5-23.2zm-5 2.3h1L239 149c-3.5.7-6.8.7-10.3 1l6-22.6zm-5.8 4.7l-4.5 18-9 .4c4.3-6.2 9-12.3 13.4-18.4z" class="B"/><path d="M281.7 131.4l.5.1a263 263 0 0 1 10.3 2.8c-4 3.2-8.4 5.8-12.8 8.3l-7.7-5c3.4-2 6.7-3.7 9.8-6z" class="C"/><path d="M223 133l-12.7 18-10 .4L223 133zm69.4 1.2l15.2 4.3.4.5c-1.4 1.7-3.8 3-5.6 4.4-3.6 2-7.5 5.6-11.4 6.8-3.8-2.6-7.7-5-11.5-7.7a100 100 0 0 0 12.8-8.3z" class="B"/><path d="M268 139.6l7.6 5c-4.6 2-9.3 5-14.2 5.8l-4-6.4 10.6-4.4z" class="C"/><path d="M47.3 141.3l.2 1.6C42 168 39 194.4 41 220l1.7 28 8 69.8c.6 2.4.3 4.8.7 7.2 2 3 2.3 6.6 3.4 10-11.7.2-23.5-.4-35.3-.3V218.4l.2-.6 2.4-2c5.6-26 15.2-50.2 25.3-74.5z" class="D"/><path d="M275.6 144.7l11.8 8L272 160c-1.2.2-2.6 1.5-3.8 1l-6.8-10.6c5-1 9.6-3.7 14.2-5.7z" class="B"/><path d="M253.4 145.5l4.3 6.7A126 126 0 0 1 244 156l-1.2-7.7c3.5-1 7-1.6 10.6-2.8zM239 149l1.2 7.8c-4.8 1.3-9 1.5-14 1.5l2.3-8.5c3.6-.2 7-.2 10.3-1zm-23.8 1.6l.1-.1 9-.4-2 8.3-12.8.2c2-2.6 3.8-5.4 6-8zm-15 .8l.1-.1c3.3.2 6.7-.3 10-.4l-5.8 8c-3.2-.2-6.4 0-9.6 0a3 3 0 0 1-2.6-1c3-1.8 5-4.7 7.8-6.6z" class="C"/><path d="M257.7 152l6.7 10.2-.2.7-9.2 3c-2.8.7-6.3 2.2-9.2 1.4L244 156a126 126 0 0 0 13.7-3.8zm95.6 0c5.3 5.8 12 12.3 15 19.8-.2 7.7 1 15.5.8 23.2l-10.6-12.4-5-30.6zM240 157l1.7 10.4-.5.5-17.7.6 2.6-10c5-.1 9-.3 14-1.5zm-47.6 1c.8.7 1.7 1 2.6 1h9.6l-6 8.7c-.8 1-1 2-2.6 2l-16.3.5a91 91 0 0 1 12.8-12zm16.8.6l.1-.1 12.8-.2-2.6 10.2-17.8.7c2.3-3.7 5-7 7.6-10.6zm-70 .2c-2 9.7-5.5 19.3-8.7 28.6-1 3.3-3.7 4.5-6 7-8.6 7.7-18 16-22.8 26.8l.2 1c1.4.7 2.5.8 3.3.2 1-2.3 2-4.6 3.6-6.7 5-7 11.7-13 18-18.4l-9.2 28.6c-.6 3-3.7 5-5.5 7.2-4.3 4.4-7.7 8.8-10.8 14.2-1.3-12.6-.3-25.7 1.2-38.3.5-5 2-10 2.7-15l1.6 1.6c2 .5 2.8-2.7 3.8-4a222 222 0 0 1 28.5-32.8zm210.5 3.2c.7 1 .7 2 1 3l2.8 18.6c.6 2.3 1.3 5 1 7.4-1.5 13.2-4.2 27.5-3 40.8.8.8 1.6 1 2.4 1 .6-.6 1-1.2 1.5-1.8-.5-9.7.2-19.5 1.2-29 1.3 5.6 2 11.4 3 17 3.6 19 7.8 38.7 14.5 57 1.5 2.2 3 1 5 .2.8 2.4 1 5 1.4 7.6l-1.2-.5a99 99 0 0 1-20.4-30A232 232 0 0 1 348 225c-3.2-9.5-5-19.4-7.6-29 1.5.8 2.6.6 3.3-.4 1.5-1 .7-3 .8-4.6-.2-10 2.4-19.4 5.3-29z" class="B"/><path d="M263.4 169l-2.4 18-5.4-15.5 7.8-2.4zm-16.4 4.4l3.7-.7 6 17.2c-6-5-12.4-10-18.5-15l4.5-.8c.7 3 0 5.3 3.5 7 2.7-2.3-.2-5.3.7-7.8z" class="D"/><path d="M359.3 189.3c2.4 3.4 5.2 6.4 7.7 9.7.5 1 1.8 1.2 2.7 1.7L377 263c0 .8-.1 1.5-.4 2.3-2.8-6.2-4.4-13-6.3-19.5l-11-56.5z" class="B"/><path d="M197 199.4c6 .6 12.5.8 18 3.5 1.2 5.6 1.2 11.4 1.3 17l-20.5 1.2c-2-6.4-3.8-13-5.5-19.4 1.7-1.4 4.6-1.6 6.6-2.4z" class="G"/><path d="M196 225.8h20.6a220 220 0 0 1 .4 3.7c-2 1-4.6 1-6.6 1.8-.6 1.4-.4 2.5.8 3l6-2 .6 6.5c-.6 4.7-.3 9.2-4.2 12.6-2.6 2-7 3.8-10 2-3-2-6-3.5-6.6-7.3-.6-4.6-.4-9.3-.7-14 2 .8 4.3 1.5 6.4 2.4.3 2.7-.6 6 .6 8.5a52 52 0 0 0 2-1.2c.1-2.6 0-5.2 0-7.8-1.8-2.5-6.3-2.8-9-4v-4z" class="D"/><path d="M122.4 228c.4.6.6 1.2.8 2 2.4 9.5 3 19.2 3 29l2.5.4c-6.6 9.8-13 19.4-17.2 30.5l-1 .2a130 130 0 0 1-8.2-31.1H101c2-1.8 1.4-4.7 2.6-7.2 2.4-6.8 7-11 11.4-16.5a397 397 0 0 0-6.9 40c0 2-1.5 5 1 6 1.3 1 3.5.6 3.6-1.2l6.4-39.7c1-4.2 1.7-8.3 3.2-12.3z" class="B"/><path d="M218.8 254l2 6.5c-2.3 4-6 6.7-10.7 7-4.6.8-8.6-1-12.5-3-.8-1-3-2-2.8-3.4l3.3-4.3c3 1.6 5.6 2.7 9 2.2 4.8-.1 8.5-1.4 11.8-5zm5.5 8c6 2.3 13.7 3.8 18.8 8a104 104 0 0 1 13 28c-4.5 3.6-6 8.6-7.2 14-.1.8.4 1.4 1.3 2 1.2-.4 3-1.5 3-3 .3-3.7 2-7.7 5.2-9.8 6-1.4 12-3.7 18-4.8 6.2 20.4 8 44.4-.6 64.4-.6.5-1.4.5-2.6 0-5.2-1.2-8.2-4.8-11-9-7.7-6.3-13-15.5-18.3-23.7-1.4-2.3-3-4.5-4.2-7 .3-2 1-4 1.5-6-1.6-2.6-6.2-3-8-5.4a183 183 0 0 1-14.4-40.6 24 24 0 0 0 5.3-7zm-32.3 2.2c2.3 2.3 4.7 4 7 6l-4.6 19.7c-3-1.5-5.3-3.3-7.7-5.5-.7-1.2-.6-2.8-.8-4-1.7-1.7-4.3-1.7-5.2.8-.5 5 3.3 9 7.2 11.3l47.4 25 .4.6a186 186 0 0 1-30 59L183 400.4a70 70 0 0 1-35.3-11.7v-.6l32-28c-1-2.7-2.2-2.8-4.8-2.2l-3-72.8c.3-3 0-6.6 2.4-8.6 5-5 11.5-8.7 17.5-12.2zm24 6.8l12 36.6-29.6-15.4 4.3-20.7c4.7 1 8.7 1.3 13.2-.5z" class="F"/><path d="M65.2 279c5.8 6.5 9.6 14 13.6 22l-.8 1-.3 26.3c-1.8-1.7-3-3.6-5.4-4.5-1-.7-3.4-1-3.6-2.4l-3.5-42z" class="B"/><path d="M309 286c12.4-1 27 .6 36.3 9.8 5.3 4.7 8 11.3 7.8 18.3-.8 4.4-1 8.7-2.4 12.8-2.7 9-8 17-14 24.3.3.7.8 1.2 1.3 1.7l18.6 17.4c4.5 5 8 12 8.3 18.8-.4 8.2-3 16-7 23-2 4.2-5.2 8-7.2 12l27-3 4 29c.3 2.2.5 4.3 1.2 6.3.1 2.2 0 4.5 0 6.7-6.8 1-13 3-20 3a76 76 0 0 1-22.8-2.4c-8.7-2.3-17-5-23.6-11.3a33 33 0 0 1-8.4-12.6 96 96 0 0 1-1.4-9.9 36 36 0 0 1 7-20.4c3-4 5.4-8.2 7.5-12.5l-9.3-10c-7-6.3-14.3-12.7-19-21-2.5-4.3-4-9-3-14.2 1.4-8 6.2-15.2 9.3-22-4-.1-8.2.1-12.2.1l-.2-6.6 20.5.4c.4.8.4 1.8 0 3-2.3 9-8.5 16-10.7 24.8a13 13 0 0 0 .9 9.7c4 8 11.4 15 18.6 20.3 4 4 9.2 8.2 12 13-.1 5.4-4 10.8-6.7 15.3a33 33 0 0 0-8 16.7c-.7 5 1 9.5 2.6 14.2 2.7 6.2 8 10.3 14.3 12.6 13.8 5.3 28.7 7.7 43.3 4.6 1.2-.1 2-1.4 3-2.2l-3.4-26c-.6-.6-1.3-1-2-1l-19 2c-2.7-.2-7.3.2-9.3-2-.2-2.3 1.4-5 2.5-7 5.3-8.8 11.8-17.8 13.3-28 1.2-7.5-1.4-15.3-7-20.5l-22.2-21c.1-3.3 2-5.7 4.2-8l8.2-11a56 56 0 0 0 5.2-19.6c.3-4.7-1.6-9.7-4.6-13.3-5-4-11-7.2-17.5-8l-14.2-.4c0-2.4-.6-4.4-1.6-6.6zm-27 1c2.2-.1 4.2-.3 6.3.1-2.2 2.4-5 3.6-7.7 5.4-1.2-1-1.7-2.2-3.6-1.5l-16.2 3.5c-1.2-2-2-4.3-3-6.4l24-1z" class="E"/><path d="M296 287.6l7.3-.1c.8 1.7 1.8 3.5 2 5.4-1 4-4.7 6-8.2 7.5l-14 4-1.5-6.3a76 76 0 0 0 14.4-10.5z" class="D"/><path d="M167 291.7l.3 6.3-.6.3-47.7 2c-5 .2-9 3.6-9.2 8.7-.1 7.3 3 15 5.7 22-.2 2.3 1 5-1.8 6-6 2.5-13.2 3-19.7 3.8-1 .2-2.8 0-3 1.5-.3 1.5.4 2.8 2 2.6l18-3 7.7-4.5c1.8-2 1.4-5.7 1-8L114 312c-.3-2-.7-4.6 1-6 2-1.6 4.6-1.7 7-1.8l45.4-1.8c0 2.2.4 4.5.1 6.6l-13 1c-1.8-.6-3.5-1-5.4-.8l-23 1c-1.8.2-4.4-.1-6 1 1 7 6 14.3 6 22 .6 7-6 13-12.2 14.8-6.6 1.4-13.3 2-20 3-5 .8-10.2.2-15.2 1.3l-.6-16a32 32 0 0 1 2.8 7.1c.2 1.8 4 1.6 4.3.1a36 36 0 0 0-3.2-8.3c9-.1 18.2-1.7 27.3-2.6-1-6.6-4.6-11.2-6-17.6a16 16 0 0 1 5.5-16.4c4-3 9-4.5 14-4.5l44-1.8zm142.6 4.8c5.8-.8 11 .6 17 1.3 5.7.8 10.8 3.8 14.5 8.2 2.3 3.4 2 7.2 1.5 11-1.3 10-6.4 19-13 26.5-2.4 3.2-5.4 7.2-3.2 11.3 2 4 6.4 6.7 9.7 9.2l12 12c4.2 4.2 7 10 6.6 16-2.3 10.3-7.5 18.8-12.8 27.7-1.4 2.8-3.4 6-3.3 9.3.4 3.5 3.6 5 6.7 5.8 7.7 1.4 16.2-.1 24-1l1.3 8c-9.2-.1-18.7 1.5-27.4-.7-4-.8-8.7-2.5-10.6-6.4-2.2-3.8-1.4-8.8.7-12.4l10-18.7c2.6-1 3-3.2 3.8-5.5 1.4-4.5 2.8-8.6.3-13-3.6-6-10.3-10.7-15.3-15.7-4.8-4.5-12.3-9-12.7-16.2-1-5.6 3.5-10 6.3-14.6 5.3-6.8 10-13.3 11-22 .2-3.4-.4-7.3-3.2-9.5-3.5-3-8.8-4-13.3-4.4-5.2-.6-10.2.3-15.4 0a14 14 0 0 0 5-6z" class="E"/><path d="M320 302.4c4.4.5 9.7 1.5 13.3 4.4 2.8 2.2 3.5 6 3.2 9.5a43 43 0 0 1-11 22c-2.8 4.5-7.2 9-6.3 14.6.4 7.3 8 11.7 12.7 16.2 5 5 11.7 9.6 15.3 15.7 2.6 4.4 1.2 8.5-.2 13-1 2.3-1.3 4.6-3.8 5.5 1.4-3.7 3-7.3 3-11.4a20 20 0 0 0-4-10l-11.4-9.6c-4.5-3.5-9.6-7.2-13-12-1.8-2.4-1.3-5.7-.8-8.4 2.3-9.6 7.8-16 12-25 2-3.6 4-7 2.4-11.2-1.7-3.5-5-6.3-8.5-7.7-7-2.8-13.7-2.8-21-3 .2-1.7 1.3-1.8 2.6-2.6 5.2.3 10.2-.6 15.4 0zM149 309c2-.1 3.6.2 5.4.8-7.6 1-15.7 1.3-23 3.6-5 1.5-6.4 8.3-4 12.4 2 3.5 3.5 7.4 4.3 11.4 1 3.8-2.6 8-4 11.4l-13 2.7-24.3 1.3c-1.5 0-2.4.8-3.7 1.5.3 1 1 1.8 2.5 2.5l25.6-1.3 14.7-3c2-.3 3.2-2 4.2-3.8 1.5-2.8 2-6.2 2.2-9.4-.2-7-3.5-12-6.2-18 .5-1.8 1.5-3.6 3.3-4.4 3.8-1.4 8.2-1.7 12.3-2.3l22.8-1.7.1 3.4-11 1c-4 .2-7.7 2-11 3.8-4 2-6.7 6-8 10-2 6.4 3.2 13.3 1.7 19.8-1.2 3.6-5.2 5.5-8.7 6.3-10 2-19.8 2-30 2.5l-22 .3-.3-8c5-1 10-.5 15.2-1.3 6.6-1 13.4-1.5 20-3 6.3-1.7 12.8-7.8 12.2-14.8.1-7.6-5-14.8-6-22 1.5-1.2 4-1 6-1 7.7 0 15.3-.8 23-1zm149.7.4c.6 1.3 1 2.7 1.4 4-5 .3-9.7-.1-14.6.5l-1-4.2c4.4-1.2 9.6-.3 14.2-.3zm5.3.1c5.7.7 12 .1 17.4 2 3.3 1 6 4 6.7 7.4.2 2.7-1.4 4.3-2.6 6.6L314 346c-1.6 4.4-2.8 9.8-1.4 14.4 6 9 15 14 23 21 4 2.5 7.3 7.8 6.3 12.5l-3.7 8.4c-.6-4.5 1-9.2-1.4-13-5-8.6-12.4-13-19.5-19.6-3.2-3-6.6-6-9.3-9.7-1-1.5-2.2-3-1.7-5 1.4-5 4.4-9.7 6.3-14.6l4.8-12.3c1.5-4.5 0-10-4-12.7-2.6-2-6-2.3-9-3 .2-1 .1-2-.4-3z" class="H"/><path d="M304.5 312.5c3 .8 6.3 1.2 9 3 4 2.8 5.4 8.2 4 12.7l-4.8 12.3c-2 5-5 9.6-6.3 14.6-.6 2 .7 3.4 1.7 5 2.6 3.6 6 6.7 9.3 9.7 7 6.5 14.4 11 19.5 19.6 2.5 3.7 1 8.5 1.4 13l-4.4 10c-2.7.8-3.7 3.3-5.2 5.4-2.8 4.5-5.5 10-4.7 15.4 1 5 4.8 9 9 11 4.2 2.2 9.8 3.6 14.5 2.2l.5.1 1.3 1.4c5.3.2 10.4 1.3 15.7 1.7V446l6-.4 1.4 8.5-36.3-2.7a26 26 0 0 1-15.3-9.4c-3.8-5.4-4.4-12.4-2.3-18.6 2.5-7.7 8.2-13 11.4-20.5 1.5-3.6 2.6-7.7.3-11.3-6.8-11-19-16.8-26.4-27.7-2-3.2-4.7-7-3.7-11 1.5-7 5.7-11.6 8.4-18.4 1.5-3.6 4.2-9.6 2-13.2-2.7-2.2-6.3-2.2-9.6-2l-14.5.1-1-5.6c5-.6 9.7-.2 14.6-.5 2 .3 2.7.1 4.5-1zM168 316l.2 5.8a54 54 0 0 0-19.8 5.5c-3 2-5 4.8-4.5 8.6 1 6.3 2.8 12.8.5 19.2-2 5.2-8.6 7-13.4 8.7l-39 2c-1.4.2-3.4-.3-4 1.3-1 1 .7 3 2 2.8l41.5-2.6c6.8-1 13.3-4 16.4-10.4 3.2-7.4 1.6-15.5-.3-23 1-2.4 3-4 5.4-5a53 53 0 0 1 15-3.1c1 1.7.4 5.6.8 7.8l-14.6 1.8c.7 6 3.5 12 2 17.7-1.6 7-6 13.3-12.4 16.7-3.3 1.8-7 3.4-10.7 4l-53.5.5L79 360l22-.3c10.2-.6 19.8-.4 30-2.5 3.4-.8 7.5-2.7 8.7-6.3 1.5-6.5-3.7-13.4-1.7-19.8 1.2-4 4-8.2 8-10 3.4-1.8 7.2-3.6 11-3.8l11-1z" class="E"/><path d="M69.5 326.4c3.5 2.4 6.5 5.8 8.7 9.5.1 5.4.3 10.8.6 16l.3 8 .5 14.5c0 2 .2 3.8.2 5.8-2-1.5-3.7-3.8-5.5-5.6-3.5-4.6-6.8-9.4-9.4-14.5l-2.7-5c.4-.6.7-1.3 1-2 .2-5 1.6-10.3 3.4-15 2 11.6 5 23.2 8.2 34.6 2.2 3 4.8-1 4-3.3l-9.4-42.8z" class="B"/><path d="M238 327l9 14-15.4 2.3 5.2-13.4 1-2.8z" class="F"/><path d="M287 330.2l12.2-.1c-3 6.6-8 14-9.3 22-1 5 .5 9.8 3 14.2 4.8 8.2 12.2 14.7 19 21l9.3 10c-2.2 4.3-4.6 8.7-7.5 12.5-4 6-7 13.2-7 20.4a96 96 0 0 0 1.4 9.9c1.7 4.7 4.6 9 8.4 12.6 6.7 6.4 15 9 23.6 11.3a76 76 0 0 0 22.8 2.4c7-.2 13.3-2 20-3v50.5l-33-8c-3.5-.8-8.8-1.3-12-2.4.1-4.4-.8-7-3.8-10.2-7.2-7-18.2-10-28-8.3-5.5.8-10 4.2-13 9l-.8 5.3-.5.3c-13 0-26.2 1.6-39 4.2l-.7-.1-9.6-16.8c-1.7-1.8-3.2-3.5-5.5-4.5-4.4-2-9.5-1-14 .5-3.5 1.4-7 2.4-10 5-5 3.6-10.8 9-11 15.7-.1 5.6 3.4 8.4 5.7 13l-41 14.8-31.8 11c-38 11-76.4 15.8-115.5 20.5V375l54.8-.5c1.8 2 3.4 4.2 5.5 5.6l-.2-5.7 53.5-.5c3.7-.7 7.4-2.4 10.7-4 6.4-3.4 11-9.7 12.4-16.7 1.5-5.7-1.4-11.7-2-17.7l14.6-1.8 1 30c-8.4 8-17.4 17.2-27.8 22.4-1 1-2 3.6-.8 4.8l9.4 5.7c5.8 3.6 12.3 6 19 7.6-1.2 4.4-4.4 8.3-5.2 12.6 1 .6 2 1.6 3 1.8 4 .6 8 1.3 12 1.8-1.2 6.2-2.6 12.5-3 18.8 1 3 5 4.6 7.7 6 .2 3.8-1 8.8 0 12.3 5 2.4 10.2 4.7 15.2 6.8l9.6-.7 1.3-2.7.8-12.4c3.5-2.2 7.8-4 11.5-6 4 .1 8.7 1.4 12.8 2l1 11.2c.7 1 1.6 1.5 2.8 1.8l12.5 4c3.5-.1 7-1.5 10.6-2 .5-.8 1-1.7 1.3-2.6-.3-5-1-10-1-14.8 3-2 7.8-4.6 9-8 1-7.7-1.2-16-2.6-23.4 2.3.4 4 .7 6.4-.1.2-1.3.4-3-.2-4-6.2-13.8-9.3-29.5-11-44.5 4.4 3 9 5.4 14.5 5.3.8-.6 1.5-1.3 2-2 4.7-11 6.6-23 6.7-35z" class="D"/><path d="M19.4 334.7l35.3.3c1.4 4.2 2.4 8.8 4.8 12.6l-.3 4.3-18.5-.4c-3.7-.1-7.5-.5-11 0L28 354c-2 0-3.7 0-5.6.1a47 47 0 0 1 1.7-8.7h25c1 0 3.3-.5 2.8-2-.7-.7-1.4-1.4-2.2-2-8.8 0-17.7 0-26.6 0-1 .1-2 1.3-3 2-.3 1.2-.4 2.5-.7 3.7.2-4 .1-8.2.1-12.2z" class="E"/><path d="M242 345.3l7.4-1 7 8.5c.6.8 2 1.7 2 2.8l1.3 16.4a180 180 0 0 0 8.5 33.7l-1 .1-25.2-4c-4.5-1.2-9.4-4-11.6-8.2L230 364c0-2.5-.3-4.7.3-7 2.8 7.5 6.4 15.8 6.3 24 .5 3.3 4.2 2 6.5 2 3.2-.4 7 .2 10-1-.6-13-4-25.7-11-36.6zm-4.3 1a75 75 0 0 1 11.2 32.3h-8.5c-.6-11.7-6-20.6-9.5-31.3 2.3-.3 4.5-1 6.8-1z" class="F"/><path d="M29.6 351.5c3.6-.5 7.5-.1 11 0 6.2.3 12.3.1 18.5.4-.1 2.6-.1 3.7 3 3l2.7 5c-8.8-1-18-.7-26.8-1-3.3-.2-7.4.5-10.3-1l23-.5c1.6-1.6-.1-2.7-1.6-3.3H28l1.6-2.4z" class="H"/><path d="M225.8 354.7c.3 12.4.3 25 .5 37.3-1.3 7.2 0 15-3.5 21.7l-22.6 3 8-33.5c.3-1.5.7-3 1.7-4 5.8-7.7 11-15.8 15.8-24.3z" class="F"/><path d="M21.4 358c2-.4 4.2-.2 6.3-.3 3 1.6 7 1 10.3 1l26.8 1c2.7 5 6 10 9.4 14.5l-54.8.5v-5.8l37.3.4 1.7-2c-1-1-1.6-2.2-3.4-2l-35-.6 1.4-7z" class="E"/><path d="M125.8 378.2c.5 1.3.5 2.5-.2 3.6a35 35 0 0 0-2.7 14.2c2 3 5.2 5.7 7.2 9 2.8 4.3 6.8 9.7 7 15 0 7.2-4 12.6-6.7 18.8 3 3.4 5.4 7.4 5.8 12l1.3 14.2c.2 5.6-2.2 12-.6 17.5 1.4 4.5 5 7 9.4 8.4l19.4 5.5c1.5.1 2.2 2 3 3l-.7 1.7 6 16c-.4 2.3-1.7 2.7-3.7 2l-5-14.8c-2.4 3.4-4.4 7-6.7 10.5a31 31 0 0 1-2.7 1.3c-1-1-1.3-2-.8-2.8 1.7-3 3.7-6.2 5.6-9.2-6 1.8-12.5 4-19 4-6-1.3-13-4-16.8-9-1-1.4-1.4-3-2.8-4.2-2.3-2-5.4-3-8.2-4l-9.5 5c-4 2.8-8.7 6.4-9.6 11.4.5 4.6 3 8.2 7 10.5l17-3.7c1.7.5 2.2 2.2 1.7 3.8l-14.5 3 11.3 8c.1 1.2 0 2.4-.3 3.5l-1 .1L103 524l1.3 12.2c-.3 1.6-1.8 3.4-3.6 2.4-1-4.4-.6-11.3-1.7-15.4l-10.7-.6c-3.5-1.4-7.8-2.5-10.6-5-1.3-1.6-3.3-3.3-3.7-5.4-.5-1.4.3-3 .6-4.6 1.5-4.5 3-9 4.5-13.4-4.4-.8-9.4-2.2-12.7-5.4-4.2-5-5.5-11-5-17.4L40 470c-2.2-4-3-8.7-3.8-13-1-7-2.7-13.8-3-21-3.5 1-7 1.2-10 3-3 .6-3.8-2.2-2-4.2 3.7-1.5 7.7-2.4 11.6-3.2-2.8-3-6.3-5.8-9.2-8.8-.1-2-.3-3.3 1.7-4l9.4 9.3c0-4.5.6-9 2.6-13 1.6-1 4.5 1 3 2.7a32 32 0 0 0-1 17.2c3.6 6.6 7 13.4 11.3 19.6 1 1.3 1.7 2.6 3.7 2.4 2.8-.6 6-1.4 8.4-3 .2-2-1.8-4-2.5-6-2.7-4.5-7.4-8.4-6.6-14.2 1-4.7 3.2-9.4 5-13.8 1.8-4.5 4.8-8.4 7-12.8 1.4-2.5 2-5 4.7-6.3 9.3 2.2 18.5 4.6 27.7 7.3 3 1 7 2 9.3 4.5 1.4 3.4 2 7.3 3 10.8a68 68 0 0 0 3.8 2.3c3-2.5 6-3.6 6.7-7.8l-4.5-19.8c-1.6-.6-3.6-.3-5.3-.5-2.4-.4-5.7 1.4-7.8.1-.3-1-.3-3.5 1.3-3.4 4-.3 7.8-.4 11.6-.7-2.8-4.6-6-9-9-13.5l.7-1.7a23 23 0 0 1 3.3 0l8.3 12c.4-4 1.2-8 2.8-11.7.7-2 2.2-1.4 3.8-1z"/><path d="M204 386l-8 31-25-3c.8-3 2.6-5.6 3.5-8.5 3.3-.4 8.2 2.3 11 .2L204 386z" class="F"/><path d="M234.4 404c2.2 1 4.3 3 6.8 3.3l22 2.7c1.7 7.2 3.2 14.7 3.2 22-2.3 2-5 4-7.6 5.6l-9 3.2-23-3 4.8-4 2.8-29.7z" class="G"/><path d="M123.5 405.2l8.6 14c.3 5.5-2.7 11.5-5.4 16.2a73 73 0 0 0-7.6-5.8c3.6-3.2 7-6 7-11.4-.5-4.3-1.8-8.6-2.6-12.8zm-50 2.3c10.7 2.4 20.2 3.6 30 9 1 4 .5 7.6 2.7 11.3 5.6 2.5 10.3 6.2 15.2 10 3.6 3 8 7 9 11.6l1.4 15c.6 4.8-1.4 9-1 14-.1 5.2 1.5 10.2 5.4 13.8 5.2 5 11.8 5.7 18.5 7.8l-.1.7-13.8 2.3c-4.7-1.5-9-3.4-11.6-8l-6.8-6.2c-2-1.2-4.4-1.6-6.6-2.4.6-4.5.5-9-.7-13.4-1.6-6.2-5-11-8.3-16.5-4.7-7.2-12-12-17-19-.8-2-1.6-4-2.3-6-.1-1.5.1-2.8-.7-4-2.7-6-7.3-9.6-11.3-14.7l-2.2-4.8zM70 410c1 0 1.4 3 2 3.7a95 95 0 0 0 8.6 10.4c2.7 3 3.4 6.7 4.5 10.5 2 6.5 6.3 11.3 11.6 15.4a64 64 0 0 1 11.8 15.2c3 5.8 5.4 13.4 4 20a44 44 0 0 0-18.6 12.4 16 16 0 0 0-4.2 12.1c.8 3.2 2.7 5.3 4.5 8-3.7-.6-7.8-1.3-11-3-1.7-1-3.6-1.8-4-4 2.3-5.3 3.6-11 5.5-16.5 1-1.8-.2-3.4-1.7-4.4-4.3-.6-9.2-1.4-12.5-4.6-2.4-3-4-6.6-4-10.5 0-7.8 1.5-15.8 1.2-23.6l-9-16.3c0-2.7 1.4-5.6 2.4-8l9-16.8z" class="C"/><path d="M333.7 412.2l-5.6 13c-2 5.3-1 11.6 3.4 15.3a35 35 0 0 0 15.9 5.9c-4.7 1.4-10.2 0-14.5-2.2-4.3-2.2-8.2-6.2-9-11-.8-5.5 2-11 4.7-15.4 1.5-2 2.5-4.7 5.2-5.4z" class="H"/><path d="M229 413.7l-1.3 18.7c-3.8 2.6-7.8 4.8-11.5 7.6-3.8 2-7.8 4.7-12 5.5a305 305 0 0 1-11.9-2.6c-3.8-1.4-7.5-3.2-11-5l-.3-.6 3.7-16c4.2.4 8.4 1.6 12.6 2 9.6-1.5 19.3-2.6 29-4 1.8-1.4 2-3.4 3-5.2z" class="G"/><path d="M93 416c1.5-.5 3.4.6 4.7 1.3 1.5 3 1.3 3.5-.1 6.5-2.3.6-5 1.2-7-.3-2-2.2-1-7 2.3-7.4zm-22.7 12.7c2.8 1 3 4.5 2.4 7-1 2.3-4.7 2-6.7 1.5-2.8-1.5-3-5.8-.4-7.6 1.5-1.8 2.5-2 4.6-1z"/><path d="M239 445l3 .5 7.4 1.3c3 0 6-2 8.7-2.4l1 11.5c-1.8 1-5 1-7 1.6-4-1-8-2.8-12.2-4l-.8-8.5z" class="C"/><path d="M365 446v3.4c-5.2-.4-10.4-1.5-15.7-1.7l-1.3-1.4c5.6 1 11.5-.2 17.2-.3z" class="E"/><path d="M39.3 446.8c3 5 6 11 11 15 3.7 2 8-.2 11.7-1.4l-.4 6.5-17 .7c-3-6.3-4-14-5.4-20.7zm148.3-.4L204 451l3-.8-.4 9.4c-2.7.2-5.7.8-8.4.5a1262 1262 0 0 0-10.9-5.8l.3-8zm40 40.2c3-.7 6.2-.8 9 .8 3 5.8-2 10.7-6 14-5 3.5-12 7.4-18.3 6.2-2-.6-5.4-1.8-4.6-4.6 2-9 11.6-14.5 20-16.4zm80.5 3c5.8-.1 11.4 0 16.7 2.6 3.5 1.8 7.6 4.6 8 9L330 504l-16 2c-4.5-1.3-9.4-2.6-12.7-6.3-1.3-1.7-3-3.6-1.4-5.7 1.4-3.8 4.6-3.8 8-4.2zm-65.8 6.3l37.4 65c-.5 4-1.6 8-2.2 12-1.2-.2-1.2-1.4-2-2.3L236.8 504c1-1.8 3-3.2 4-5a67 67 0 0 0 1.5-2.6zm55.3 7.3c2 2.4 4.6 4 7.3 5.6l-17.5 85.3-.3.6h-8.4l19-91.4z" class="C"/><path d="M291.2 504.6L289 515a286 286 0 0 0-27.9 2.9l-.6-.3c-1.5-3-4.2-6.3-5-9.3 12-2 23.4-4.2 35.6-3.6z" class="B"/><path d="M233 506.6l42.8 72.8c-.2 4-1.7 8.6-2.3 12.8l-47.7-81.3c2.2-1.5 5-2.5 7.2-4.2z" class="C"/><path d="M336.8 508.3A346 346 0 0 1 381 518c.1 3.8 0 7.6 0 11.4l-45.8-11-.5-.6 2-9.6z" class="B"/><path d="M308.6 510.4l8.6 1.4-16.8 82.4-.4.5h-8.7l17.3-84.3zm22.2-.4l-17.5 84-.3.6a406 406 0 0 1-8.5 0l17-82.5 6-1a49 49 0 0 0 3.3-1.3zm-109.2 2.2l48.2 82.5c-3 0-6.3.1-9.4-.1L212.8 513c3 .3 5.8-.5 8.7-1z" class="C"/><path d="M288.3 518.6l-2.2 11c-3.8-.1-7.4-.4-11.3.2-2.2 0-4.7 1-6.7.6l-5-9c8.4-1.3 16.7-2.7 25.3-2.7zm-78 1.7l5.6 9.6-52.2 17.8-41.2 13L91 567l-69.2 8.2c.2-2.4-.3-5.6.5-7.7 33.7-4.3 67.4-9 100.5-17a218 218 0 0 0 31.9-10l55.6-20.4zm123.5 2c16 2 31.5 7 47 10.8.3 3 .1 6 .1 9-16.2-4.4-32.6-7.7-49.3-9.3l2-10.4zm-116 10.8l5 8.6-52 17.2-103 35c-3.3 1.3-6.5.8-10 1-12 0-24.2-.1-36.3 0l-.4-.6.4-14.3.6-.4L65 576c27-4 55.4-8.2 81-17.5l71.7-25zm67 .2c.3 3.7-1.5 8.5-2 12.4-1.8.1-4 .6-5.6.2l-6.5-11 .1-.6 14-.8zm46.2 2.8l50 10.2c.5 3.7.1 7.8.2 11.6-16.7-5.8-34.4-9.3-52-11.2.1-3.5 1.3-7 2-10.6zm-106 9.2l5 8.3c-12.3 2.8-24 7.2-36 11L123 590c-1 .5-3 .8-3.4 2l1 2.8c-15-.4-30 .1-44.7-.3l46.4-15.2 65-22 37.5-12zm57 3.8a66 66 0 0 1-.4 3.7c-1-1-1.6-2.2-2.3-3.3l2.7-.3zm46 1a237 237 0 0 1 52.9 11.9v32.6h-62l6-29.4a221 221 0 0 1 52.2 9.1c2.4.7 2.4-1.5 1.7-3a212 212 0 0 0-52.9-10.3l2.3-11zm-96 7.3l6 10.5-74 21.8 1.8 2.8c5.5-1.6 11-4.3 16.5-6l57.6-15 13.7 23h-130a3268 3268 0 0 1 72.4-26.4l35.8-11z" class="B"/></svg>